<svg width="104" height="104" viewBox="0 0 104 104" fill="none" xmlns="http://www.w3.org/2000/svg">
<path d="M75.1198 102.537C74.3008 102.537 73.7539 101.99 73.7539 101.171C73.7539 100.352 74.3008 99.8052 75.1198 99.8052C75.9389 99.8052 76.4857 100.352 76.4857 101.171C76.4857 101.99 75.9389 102.537 75.1198 102.537Z" fill="#BEBEDF"/>
<path d="M80.5837 4.19619C79.7646 4.19619 79.2178 3.64933 79.2178 2.83027C79.2178 2.01121 79.7646 1.46436 80.5837 1.46436C81.4028 1.46436 81.9496 2.01121 81.9496 2.83027C81.9496 3.64933 81.4028 4.19619 80.5837 4.19619Z" fill="#BEBEDF"/>
<path d="M34.1442 102.537C33.3252 102.537 32.7783 101.99 32.7783 101.171C32.7783 100.352 33.3252 99.8052 34.1442 99.8052C34.9633 99.8052 35.5102 100.352 35.5102 101.171C35.5102 101.99 34.9633 102.537 34.1442 102.537Z" fill="#BEBEDF"/>
<path d="M58.7289 9.5229C58.5922 8.84056 58.0466 8.2937 57.363 8.2937C56.5439 8.2937 55.9971 8.84056 55.9971 9.65962V15.26C56.1338 15.9423 56.6806 16.4892 57.363 16.4892C58.182 16.4892 58.7289 15.9423 58.7289 15.1233V9.5229Z" fill="#FFC100"/>
<path d="M24.5846 43.8059C24.5846 42.9868 24.0377 42.4399 23.2186 42.4399H14.8864C14.2041 42.5767 13.6572 43.1235 13.6572 43.8059C13.6572 44.6249 14.2041 45.1718 15.0231 45.1718H23.3554C24.0377 45.0351 24.5846 44.4882 24.5846 43.8059Z" fill="#FFC100"/>
<path d="M51.9005 42.4397C49.5788 42.4397 47.8027 44.2158 47.8027 46.5374C47.8027 48.8591 49.5788 50.6352 51.9005 50.6352C54.2222 50.6352 55.9982 48.8591 55.9982 46.5374C55.9982 44.2158 54.2222 42.4397 51.9005 42.4397ZM51.9005 45.1715C52.7195 45.1715 53.2664 45.7172 53.2664 46.5374C53.2664 47.3565 52.7195 47.9034 51.9005 47.9034C51.0814 47.9034 50.5346 47.3565 50.5346 46.5374C50.5346 45.7172 51.0814 45.1715 51.9005 45.1715Z" fill="#FFC100"/>
<path d="M23.2196 47.9031C24.0387 47.9031 24.5855 48.4499 24.5855 49.269C24.5855 49.9513 24.0387 50.4982 23.3563 50.6349H15.0241C14.2051 50.6349 13.6582 50.0881 13.6582 49.269C13.6582 48.5854 14.2051 48.0398 14.8874 47.9031H23.2196Z" fill="#FFC100"/>
<path d="M40.9762 43.8059C40.9762 42.9868 40.4293 42.4399 39.6102 42.4399H31.2793C30.5957 42.5767 30.0488 43.1235 30.0488 43.8059C30.0488 44.6249 30.5957 45.1718 31.4147 45.1718H39.747C40.4293 45.0351 40.9762 44.4882 40.9762 43.8059Z" fill="#FFC100"/>
<path d="M39.6073 47.9031C40.4264 47.9031 40.9732 48.4499 40.9732 49.269C40.9732 49.9513 40.4264 50.4982 39.744 50.6349H31.4118C30.5928 50.6349 30.0459 50.0881 30.0459 49.269C30.0459 48.5854 30.5928 48.0398 31.2751 47.9031H39.6073Z" fill="#FFC100"/>
<path d="M73.7545 43.8059C73.7545 42.9868 73.2076 42.4399 72.3886 42.4399H64.0564C63.374 42.5767 62.8271 43.1235 62.8271 43.8059C62.8271 44.6249 63.374 45.1718 64.1931 45.1718H72.5253C73.2076 45.0351 73.7545 44.4882 73.7545 43.8059Z" fill="#FFC100"/>
<path d="M72.3895 47.9031C73.2086 47.9031 73.7555 48.4499 73.7555 49.269C73.7555 49.9513 73.2086 50.4982 72.5263 50.6349H64.194C63.375 50.6349 62.8281 50.0881 62.8281 49.269C62.8281 48.5854 63.375 48.0398 64.0573 47.9031H72.3895Z" fill="#FFC100"/>
<path d="M90.1461 43.8059C90.1461 42.9868 89.5992 42.4399 88.7802 42.4399H80.4492C79.7656 42.5767 79.2188 43.1235 79.2188 43.8059C79.2188 44.6249 79.7656 45.1718 80.5847 45.1718H88.9169C89.5992 45.0351 90.1461 44.4882 90.1461 43.8059Z" fill="#FFC100"/>
<path d="M88.7782 47.9031C89.5973 47.9031 90.1441 48.4499 90.1441 49.269C90.1441 49.9513 89.5973 50.4982 88.9149 50.6349H80.5827C79.7637 50.6349 79.2168 50.0881 79.2168 49.269C79.2168 48.5854 79.7637 48.0398 80.446 47.9031H88.7782Z" fill="#FFC100"/>
<path d="M53.268 9.5229C53.1313 8.84056 52.5856 8.2937 51.902 8.2937C51.083 8.2937 50.5361 8.84056 50.5361 9.65962V15.26C50.6728 15.9423 51.2197 16.4892 51.902 16.4892C52.7211 16.4892 53.268 15.9423 53.268 15.1233V9.5229Z" fill="#27397C"/>
<path d="M53.2683 19.0839C53.1316 18.4016 52.586 17.8547 51.9024 17.8547C51.0833 17.8547 50.5365 18.4016 50.5365 19.2207V23.3184H20.352C19.6685 23.4551 19.1228 24.0008 19.1228 24.6843V31.5127H1.2292C0.546855 31.6494 0 32.1962 0 32.8786C0 33.6989 0.546854 34.2445 1.36592 34.2445H102.576C103.258 34.1078 103.805 33.5622 103.805 32.8786C103.805 32.0595 103.258 31.5127 102.439 31.5127H84.6832V24.5476C84.5465 23.864 83.9996 23.3184 83.3172 23.3184C82.497 23.3184 81.9513 23.864 81.9513 24.6843V31.5127H21.8534V26.0502H69.7948C70.4784 25.9135 71.024 25.3667 71.024 24.6843C71.024 23.864 70.4784 23.3184 69.6581 23.3184H53.2683V19.0839Z" fill="#27397C"/>
<path d="M31.4138 56.0981C32.0961 56.0981 32.643 56.645 32.7797 57.3273V84.7812C32.7797 85.6002 32.2328 86.1471 31.4138 86.1471C30.7314 86.1471 30.1846 85.6002 30.0479 84.9179V57.4641C30.0479 56.645 30.5947 56.0981 31.4138 56.0981Z" fill="#27397C"/>
<path d="M27.3154 62.791C27.1786 62.1086 26.633 61.5618 25.9494 61.5618C25.1304 61.5618 24.5835 62.1086 24.5835 62.9277V88.8789H13.6574V62.791C13.5207 62.1086 12.9738 61.5618 12.2915 61.5618C11.4712 61.5618 10.9256 62.1086 10.9256 62.9277V88.8789H6.69112C6.00877 89.0156 5.46191 89.5612 5.46191 90.2448C5.46191 91.0639 6.00877 91.6107 6.82783 91.6107H26.2229C26.9052 91.474 27.3154 90.9271 27.3154 90.2448V62.791Z" fill="#27397C"/>
<path d="M17.7556 56.0981C18.4379 56.0981 18.9848 56.645 19.1215 57.3273V79.3175C19.1215 80.1366 18.5746 80.6834 17.7556 80.6834C17.0732 80.6834 16.5264 80.1366 16.3896 79.4542V57.4641C16.3896 56.645 16.9365 56.0981 17.7556 56.0981Z" fill="#27397C"/>
<path d="M77.8536 23.3181C78.6727 23.3181 79.2195 23.865 79.2195 24.684C79.2195 25.3664 78.6727 25.9132 77.9903 26.0499H75.1218C74.3027 26.0499 73.7559 25.5031 73.7559 24.684C73.7559 24.0005 74.3027 23.4548 74.9851 23.3181H77.8536Z" fill="#27397C"/>
<path d="M6.82881 36.9766C7.51238 36.9766 8.05801 37.5234 8.19472 38.2058V84.7812C8.19472 85.6003 7.64787 86.1471 6.82881 86.1471C6.14646 86.1471 5.5996 85.6003 5.46289 84.9179V38.3425C5.46289 37.5234 6.00975 36.9766 6.82881 36.9766Z" fill="#27397C"/>
<path d="M62.8279 62.791C62.6911 62.1086 62.1455 61.5618 61.4619 61.5618H42.2036C41.5213 61.6985 40.9744 62.2441 40.9744 62.9277V83.4152H36.7399C36.0576 83.5519 35.5107 84.0976 35.5107 84.7811C35.5107 85.6002 36.0576 86.147 36.8767 86.147H67.0623C67.7447 86.0103 68.2915 85.4635 68.2915 84.7811C68.2915 83.9621 67.7447 83.4152 66.9256 83.4152H62.8279V62.791ZM50.5358 83.4152H43.7062V64.2936H60.096V83.4152H53.2664V70.9865C53.1309 70.3029 52.5841 69.7573 51.9005 69.7573C51.0815 69.7573 50.5358 70.3029 50.5358 71.1232V83.4152Z" fill="#27397C"/>
<path d="M58.7289 56.0984C59.548 56.0984 60.0949 56.6452 60.0949 57.4643C60.0949 58.1467 59.548 58.6935 58.8657 58.8302H45.071C44.2507 58.8302 43.7051 58.2834 43.7051 57.4643C43.7051 56.7807 44.2507 56.2351 44.9343 56.0984H58.7289Z" fill="#27397C"/>
<path d="M72.3894 56.0981C71.707 56.0981 71.1602 56.645 71.0234 57.3273V84.7812C71.0234 85.6002 71.5703 86.1471 72.3894 86.1471C73.0717 86.1471 73.6186 85.6002 73.7553 84.9179V57.4641C73.7553 56.645 73.2084 56.0981 72.3894 56.0981Z" fill="#27397C"/>
<path d="M76.4854 62.791C76.6221 62.1086 77.1677 61.5618 77.8513 61.5618C78.6703 61.5618 79.2172 62.1086 79.2172 62.9277V79.4542C79.0805 80.1377 78.5336 80.6834 77.8513 80.6834C77.0322 80.6834 76.4854 80.1377 76.4854 79.3175V62.791Z" fill="#27397C"/>
<path d="M86.0476 56.0981C85.3652 56.0981 84.8184 56.645 84.6816 57.3273V84.7812C84.6816 85.6002 85.2285 86.1471 86.0476 86.1471C86.7299 86.1471 87.2768 85.6002 87.4135 84.9179V57.4641C87.4135 56.645 86.8666 56.0981 86.0476 56.0981Z" fill="#27397C"/>
<path d="M90.1455 62.791C90.2822 62.1086 90.8278 61.5618 91.5114 61.5618C92.3305 61.5618 92.8773 62.1086 92.8773 62.9277V90.3815C92.7406 91.0639 92.3305 91.474 91.6481 91.6107H31.4147C30.5945 91.6107 30.0488 91.0639 30.0488 90.2448C30.0488 89.5612 30.5945 89.0156 31.278 88.8789H90.1455V62.791Z" fill="#27397C"/>
<path d="M96.9743 36.9766C97.6567 36.9766 98.2035 37.5234 98.3402 38.2058V90.2449C98.3402 91.0639 97.7934 91.6108 96.9743 91.6108C96.2907 91.6108 95.7451 91.0639 95.6084 90.3816V38.3425C95.6084 37.5234 96.1553 36.9766 96.9743 36.9766Z" fill="#27397C"/>
</svg>
