<svg width="436" height="355" viewBox="0 0 436 355" fill="none" xmlns="http://www.w3.org/2000/svg">
    <g filter="url(#filter0_d_542_19426)">
        <path d="M308 185L254 239V209C254 195.745 264.745 185 278 185H308Z" fill="#BFCCFB"/>
        <path d="M40 72V307C40 315.837 47.1634 323 56 323H342L396 269V72H40Z" fill="white"/>
        <mask id="mask0_542_19426" style="mask-type:alpha" maskUnits="userSpaceOnUse" x="304" y="236" width="92"
              height="87">
            <path d="M304 236H396V269L342 323H304V236Z" fill="#D9D9D9"/>
        </mask>
        <g mask="url(#mask0_542_19426)">
            <g filter="url(#filter1_d_542_19426)">
                <path d="M342 285V323L396 269H358C349.163 269 342 276.163 342 285Z" fill="white"/>
            </g>
        </g>
        <path d="M40 48C40 39.1634 47.1634 32 56 32H380C388.837 32 396 39.1634 396 48V72H40V48Z" fill="#BFCCFB"/>
        <path d="M110 12L110 52" stroke="white" stroke-width="6" stroke-linecap="round"/>
        <path d="M182 12L182 52" stroke="white" stroke-width="6" stroke-linecap="round"/>
        <path d="M254 12L254 52" stroke="white" stroke-width="6" stroke-linecap="round"/>
        <path d="M326 12L326 52" stroke="white" stroke-width="6" stroke-linecap="round"/>
        <!-- Début du texte -->
        <path d="M117.296 113V104.6H121.976V105.764H118.664V108.14H121.496V109.304H118.664V111.836H121.976V113H117.296ZM124.163 113V104.6H125.939L130.259 111.236V104.6H131.639V113H129.851L125.531 106.364V113H124.163ZM141.16 111.944C142.216 111.944 143.068 111.428 143.596 110.672L144.7 111.524C143.92 112.556 142.684 113.24 141.16 113.24C138.52 113.24 136.732 111.2 136.732 108.8C136.732 106.4 138.52 104.36 141.16 104.36C142.684 104.36 143.92 105.044 144.7 106.076L143.596 106.928C143.068 106.172 142.216 105.656 141.16 105.656C139.408 105.656 138.148 107.048 138.148 108.8C138.148 110.564 139.408 111.944 141.16 111.944ZM150.055 104.36C152.683 104.36 154.483 106.4 154.483 108.8C154.483 111.2 152.683 113.24 150.055 113.24C147.415 113.24 145.627 111.2 145.627 108.8C145.627 106.4 147.415 104.36 150.055 104.36ZM150.055 111.944C151.807 111.944 153.055 110.552 153.055 108.8C153.055 107.036 151.807 105.656 150.055 105.656C148.303 105.656 147.043 107.048 147.043 108.8C147.043 110.564 148.303 111.944 150.055 111.944ZM161.441 109.88V104.6H162.821V109.784C162.821 111.956 161.537 113.24 159.509 113.24C157.481 113.24 156.185 111.956 156.185 109.784V104.6H157.553V109.88C157.553 111.2 158.309 111.944 159.509 111.944C160.685 111.944 161.441 111.2 161.441 109.88ZM165.155 113V104.6H167.531C169.295 104.6 170.375 105.536 170.375 107.024C170.375 108.044 169.871 108.8 168.995 109.172L171.659 113H170.027L167.687 109.448C167.627 109.448 167.579 109.448 167.531 109.448H166.523V113H165.155ZM167.603 105.764H166.523V108.284H167.603C168.455 108.284 168.947 107.804 168.947 107C168.947 106.244 168.455 105.764 167.603 105.764ZM172.252 111.836L173.26 110.912C173.812 111.608 174.484 112.004 175.216 112.004C176.044 112.004 176.524 111.536 176.524 110.828C176.524 109.088 172.612 109.508 172.612 106.7C172.612 105.416 173.68 104.36 175.204 104.36C176.416 104.36 177.316 104.912 177.988 105.752L176.968 106.664C176.476 105.98 175.9 105.584 175.216 105.584C174.484 105.584 174.016 106.028 174.016 106.664C174.016 108.392 177.928 107.96 177.928 110.792C177.904 112.292 176.74 113.24 175.24 113.24C173.92 113.24 172.996 112.736 172.252 111.836Z"
              fill="#667DCF"/>
        <path d="M116.496 127.864V125.8H125.68V127.864H122.224V137H119.952V127.864H116.496ZM126.357 137V128.936H128.389V129.736C128.917 129.192 129.605 128.776 130.517 128.776C130.789 128.776 131.029 128.824 131.221 128.888V130.888C130.965 130.824 130.693 130.776 130.325 130.776C129.333 130.776 128.693 131.32 128.389 131.832V137H126.357ZM134.738 137.24C133.122 137.24 132.018 136.312 132.018 134.824C132.018 133.608 132.962 132.696 134.69 132.408L137.154 131.992V131.784C137.154 130.936 136.514 130.392 135.586 130.392C134.802 130.392 134.194 130.76 133.762 131.352L132.274 130.216C132.994 129.224 134.178 128.616 135.65 128.616C137.986 128.616 139.186 130.008 139.186 131.784V137H137.154V136.216C136.642 136.84 135.682 137.24 134.738 137.24ZM134.034 134.728C134.034 135.272 134.466 135.624 135.154 135.624C136.082 135.624 136.754 135.192 137.154 134.552V133.416L135.234 133.736C134.386 133.88 134.034 134.232 134.034 134.728ZM141.513 137V128.936H143.545V129.576C144.105 129.032 144.857 128.616 145.929 128.616C147.673 128.616 149.065 129.816 149.065 132.2V137H147.017V132.28C147.017 131.208 146.409 130.536 145.417 130.536C144.393 130.536 143.849 131.224 143.545 131.736V137H141.513ZM150.668 135.832L152.012 134.616C152.508 135.24 153.1 135.688 153.868 135.688C154.524 135.688 154.86 135.304 154.86 134.824C154.86 133.416 151.004 133.944 151.004 131.112C151.004 129.688 152.204 128.616 153.884 128.616C155.116 128.616 156.236 129.208 156.812 129.992L155.468 131.176C155.052 130.664 154.524 130.248 153.9 130.248C153.26 130.248 152.956 130.6 152.956 131.016C152.956 132.392 156.812 131.912 156.812 134.696C156.78 136.392 155.42 137.32 153.9 137.32C152.46 137.32 151.436 136.744 150.668 135.832ZM158.685 140.936V128.936H160.717V129.592C161.341 128.968 162.125 128.616 163.229 128.616C165.789 128.616 167.325 130.616 167.325 132.968C167.325 135.32 165.789 137.32 163.229 137.32C162.125 137.32 161.341 136.968 160.717 136.344V140.936H158.685ZM162.941 130.536C161.997 130.536 161.229 130.952 160.717 131.704V134.232C161.261 135 162.013 135.4 162.941 135.4C164.317 135.4 165.213 134.376 165.213 132.968C165.213 131.56 164.317 130.536 162.941 130.536ZM173.103 128.616C175.727 128.616 177.519 130.552 177.519 132.968C177.519 135.384 175.727 137.32 173.103 137.32C170.479 137.32 168.687 135.384 168.687 132.968C168.687 130.552 170.479 128.616 173.103 128.616ZM173.135 135.4C174.431 135.4 175.407 134.36 175.407 132.968C175.407 131.56 174.431 130.536 173.135 130.536C171.791 130.536 170.799 131.56 170.799 132.968C170.799 134.376 171.791 135.4 173.135 135.4ZM178.403 135.832L179.747 134.616C180.243 135.24 180.835 135.688 181.603 135.688C182.259 135.688 182.595 135.304 182.595 134.824C182.595 133.416 178.739 133.944 178.739 131.112C178.739 129.688 179.939 128.616 181.619 128.616C182.851 128.616 183.971 129.208 184.547 129.992L183.203 131.176C182.787 130.664 182.259 130.248 181.635 130.248C180.995 130.248 180.691 130.6 180.691 131.016C180.691 132.392 184.547 131.912 184.547 134.696C184.515 136.392 183.155 137.32 181.635 137.32C180.195 137.32 179.171 136.744 178.403 135.832ZM187.443 127.528C186.723 127.528 186.115 126.92 186.115 126.2C186.115 125.48 186.723 124.872 187.443 124.872C188.163 124.872 188.755 125.48 188.755 126.2C188.755 126.92 188.163 127.528 187.443 127.528ZM186.419 137V128.936H188.451V137H186.419ZM191.4 134.056V130.76H189.896V128.936H191.4V126.92H193.448V128.936H195.912V130.76H193.448V134.056C193.448 134.952 193.928 135.304 194.728 135.304C195.288 135.304 195.656 135.24 195.928 135.128V136.904C195.528 137.08 195.048 137.16 194.376 137.16C192.36 137.16 191.4 136.024 191.4 134.056ZM198.756 127.528C198.036 127.528 197.428 126.92 197.428 126.2C197.428 125.48 198.036 124.872 198.756 124.872C199.476 124.872 200.068 125.48 200.068 126.2C200.068 126.92 199.476 127.528 198.756 127.528ZM197.732 137V128.936H199.764V137H197.732ZM206.04 128.616C208.664 128.616 210.456 130.552 210.456 132.968C210.456 135.384 208.664 137.32 206.04 137.32C203.416 137.32 201.624 135.384 201.624 132.968C201.624 130.552 203.416 128.616 206.04 128.616ZM206.072 135.4C207.368 135.4 208.344 134.36 208.344 132.968C208.344 131.56 207.368 130.536 206.072 130.536C204.728 130.536 203.736 131.56 203.736 132.968C203.736 134.376 204.728 135.4 206.072 135.4ZM212.31 137V128.936H214.342V129.576C214.902 129.032 215.654 128.616 216.726 128.616C218.47 128.616 219.862 129.816 219.862 132.2V137H217.814V132.28C217.814 131.208 217.206 130.536 216.214 130.536C215.19 130.536 214.646 131.224 214.342 131.736V137H212.31ZM233.906 135.688C233.154 136.696 231.906 137.32 230.386 137.32C227.522 137.32 225.906 135.32 225.906 132.968C225.906 130.584 227.41 128.616 230.05 128.616C232.29 128.616 233.762 130.136 233.762 132.248C233.762 132.696 233.698 133.112 233.634 133.384H227.986C228.178 134.888 229.106 135.496 230.37 135.496C231.25 135.496 232.018 135.112 232.45 134.536L233.906 135.688ZM230.002 130.28C228.962 130.28 228.274 130.856 228.05 131.912H231.762C231.73 131.096 231.138 130.28 230.002 130.28ZM235.747 137V128.936H237.779V129.576C238.339 129.032 239.091 128.616 240.163 128.616C241.907 128.616 243.299 129.816 243.299 132.2V137H241.251V132.28C241.251 131.208 240.643 130.536 239.651 130.536C238.627 130.536 238.083 131.224 237.779 131.736V137H235.747ZM249.343 132.968C249.343 130.616 250.895 128.616 253.439 128.616C254.527 128.616 255.311 128.952 255.935 129.576V125H257.983V137H255.935V136.36C255.311 136.984 254.527 137.32 253.439 137.32C250.895 137.32 249.343 135.32 249.343 132.968ZM251.471 132.968C251.471 134.376 252.351 135.4 253.727 135.4C254.639 135.4 255.391 135.016 255.935 134.28V131.656C255.391 130.92 254.639 130.536 253.727 130.536C252.351 130.536 251.471 131.56 251.471 132.968ZM260.419 137V128.936H262.451V129.736C262.979 129.192 263.667 128.776 264.579 128.776C264.851 128.776 265.091 128.824 265.283 128.888V130.888C265.027 130.824 264.755 130.776 264.387 130.776C263.395 130.776 262.755 131.32 262.451 131.832V137H260.419ZM270.415 128.616C273.039 128.616 274.831 130.552 274.831 132.968C274.831 135.384 273.039 137.32 270.415 137.32C267.791 137.32 265.999 135.384 265.999 132.968C265.999 130.552 267.791 128.616 270.415 128.616ZM270.447 135.4C271.743 135.4 272.719 134.36 272.719 132.968C272.719 131.56 271.743 130.536 270.447 130.536C269.103 130.536 268.111 131.56 268.111 132.968C268.111 134.376 269.103 135.4 270.447 135.4ZM277.709 127.528C276.989 127.528 276.381 126.92 276.381 126.2C276.381 125.48 276.989 124.872 277.709 124.872C278.429 124.872 279.021 125.48 279.021 126.2C279.021 126.92 278.429 127.528 277.709 127.528ZM276.685 137V128.936H278.717V137H276.685ZM281.666 134.056V130.76H280.162V128.936H281.666V126.92H283.714V128.936H286.178V130.76H283.714V134.056C283.714 134.952 284.194 135.304 284.994 135.304C285.554 135.304 285.922 135.24 286.194 135.128V136.904C285.794 137.08 285.314 137.16 284.641 137.16C282.626 137.16 281.666 136.024 281.666 134.056ZM292.31 137V128.936H294.342V129.576C294.902 129.032 295.654 128.616 296.726 128.616C298.47 128.616 299.862 129.816 299.862 132.2V137H297.814V132.28C297.814 131.208 297.206 130.536 296.214 130.536C295.19 130.536 294.646 131.224 294.342 131.736V137H292.31ZM304.441 137.24C302.825 137.24 301.721 136.312 301.721 134.824C301.721 133.608 302.665 132.696 304.393 132.408L306.857 131.992V131.784C306.857 130.936 306.217 130.392 305.289 130.392C304.505 130.392 303.897 130.76 303.465 131.352L301.977 130.216C302.697 129.224 303.881 128.616 305.353 128.616C307.689 128.616 308.889 130.008 308.889 131.784V137H306.857V136.216C306.345 136.84 305.385 137.24 304.441 137.24ZM303.737 134.728C303.737 135.272 304.169 135.624 304.857 135.624C305.785 135.624 306.457 135.192 306.857 134.552V133.416L304.937 133.736C304.089 133.88 303.737 134.232 303.737 134.728ZM311.728 134.056V130.76H310.224V128.936H311.728V126.92H313.776V128.936H316.24V130.76H313.776V134.056C313.776 134.952 314.256 135.304 315.056 135.304C315.616 135.304 315.984 135.24 316.256 135.128V136.904C315.856 137.08 315.376 137.16 314.704 137.16C312.688 137.16 311.728 136.024 311.728 134.056ZM319.084 127.528C318.364 127.528 317.756 126.92 317.756 126.2C317.756 125.48 318.364 124.872 319.084 124.872C319.804 124.872 320.396 125.48 320.396 126.2C320.396 126.92 319.804 127.528 319.084 127.528ZM318.06 137V128.936H320.092V137H318.06ZM326.369 128.616C328.993 128.616 330.785 130.552 330.785 132.968C330.785 135.384 328.993 137.32 326.369 137.32C323.745 137.32 321.953 135.384 321.953 132.968C321.953 130.552 323.745 128.616 326.369 128.616ZM326.401 135.4C327.697 135.4 328.673 134.36 328.673 132.968C328.673 131.56 327.697 130.536 326.401 130.536C325.057 130.536 324.065 131.56 324.065 132.968C324.065 134.376 325.057 135.4 326.401 135.4ZM332.638 137V128.936H334.67V129.576C335.23 129.032 335.982 128.616 337.054 128.616C338.798 128.616 340.19 129.816 340.19 132.2V137H338.142V132.28C338.142 131.208 337.534 130.536 336.542 130.536C335.518 130.536 334.974 131.224 334.67 131.736V137H332.638ZM344.769 137.24C343.153 137.24 342.049 136.312 342.049 134.824C342.049 133.608 342.993 132.696 344.721 132.408L347.185 131.992V131.784C347.185 130.936 346.545 130.392 345.617 130.392C344.833 130.392 344.225 130.76 343.793 131.352L342.305 130.216C343.025 129.224 344.209 128.616 345.681 128.616C348.017 128.616 349.217 130.008 349.217 131.784V137H347.185V136.216C346.673 136.84 345.713 137.24 344.769 137.24ZM344.065 134.728C344.065 135.272 344.497 135.624 345.185 135.624C346.113 135.624 346.785 135.192 347.185 134.552V133.416L345.265 133.736C344.417 133.88 344.065 134.232 344.065 134.728ZM351.544 137V125H353.576V137H351.544Z"
              fill="#2F4077"/>
        <path d="M118.724 184.988V177.932L116.72 179.048L116.048 178.112L118.748 176.588H120.032V184.988H118.724ZM125.061 176.36C126.837 176.36 127.797 177.392 127.797 178.592C127.797 179.396 127.389 180.056 126.621 180.416C127.629 180.812 128.181 181.616 128.181 182.66C128.181 184.124 127.053 185.24 125.061 185.24C123.081 185.24 121.941 184.124 121.941 182.66C121.941 181.616 122.493 180.812 123.513 180.416C122.733 180.056 122.325 179.396 122.325 178.592C122.325 177.392 123.297 176.36 125.061 176.36ZM125.085 179.924C125.889 179.924 126.441 179.444 126.441 178.712C126.441 177.992 125.889 177.5 125.085 177.5C124.221 177.5 123.681 177.992 123.681 178.712C123.681 179.444 124.233 179.924 125.085 179.924ZM125.073 184.088C126.129 184.088 126.825 183.488 126.825 182.6C126.825 181.688 126.129 181.052 125.073 181.052C123.993 181.052 123.297 181.688 123.297 182.6C123.297 183.5 123.993 184.088 125.073 184.088ZM136.895 176.36C139.523 176.36 141.323 178.4 141.323 180.8C141.323 183.2 139.523 185.24 136.895 185.24C134.255 185.24 132.467 183.2 132.467 180.8C132.467 178.4 134.255 176.36 136.895 176.36ZM136.895 183.944C138.647 183.944 139.895 182.552 139.895 180.8C139.895 179.036 138.647 177.656 136.895 177.656C135.143 177.656 133.883 179.048 133.883 180.8C133.883 182.564 135.143 183.944 136.895 183.944ZM147.09 183.944C148.146 183.944 148.998 183.428 149.526 182.672L150.63 183.524C149.85 184.556 148.614 185.24 147.09 185.24C144.45 185.24 142.662 183.2 142.662 180.8C142.662 178.4 144.45 176.36 147.09 176.36C148.614 176.36 149.85 177.044 150.63 178.076L149.526 178.928C148.998 178.172 148.146 177.656 147.09 177.656C145.338 177.656 144.078 179.048 144.078 180.8C144.078 182.564 145.338 183.944 147.09 183.944ZM151.4 177.86V176.6H158.18V177.86H155.48V185H154.1V177.86H151.4ZM163.18 176.36C165.808 176.36 167.608 178.4 167.608 180.8C167.608 183.2 165.808 185.24 163.18 185.24C160.54 185.24 158.752 183.2 158.752 180.8C158.752 178.4 160.54 176.36 163.18 176.36ZM163.18 183.944C164.932 183.944 166.18 182.552 166.18 180.8C166.18 179.036 164.932 177.656 163.18 177.656C161.428 177.656 160.168 179.048 160.168 180.8C160.168 182.564 161.428 183.944 163.18 183.944ZM169.48 185V176.6H171.724C173.392 176.6 174.412 177.452 174.412 178.832C174.412 179.552 174.076 180.152 173.452 180.524C174.388 180.896 174.904 181.64 174.904 182.564C174.904 184.064 173.764 185 171.916 185H169.48ZM171.748 177.764H170.848V180.02H171.748C172.528 180.02 172.984 179.6 172.984 178.868C172.984 178.172 172.528 177.764 171.748 177.764ZM171.988 181.172H170.848V183.836H171.988C172.924 183.836 173.476 183.344 173.476 182.504C173.476 181.652 172.924 181.172 171.988 181.172ZM176.874 185V176.6H179.25C181.014 176.6 182.094 177.536 182.094 179.024C182.094 180.044 181.59 180.8 180.714 181.172L183.378 185H181.746L179.406 181.448C179.346 181.448 179.298 181.448 179.25 181.448H178.242V185H176.874ZM179.322 177.764H178.242V180.284H179.322C180.174 180.284 180.666 179.804 180.666 179C180.666 178.244 180.174 177.764 179.322 177.764ZM184.714 185V176.6H189.394V177.764H186.082V180.14H188.914V181.304H186.082V183.836H189.394V185H184.714ZM194.288 185V183.812L197.144 180.92C197.984 180.056 198.416 179.588 198.416 178.796C198.416 177.992 197.84 177.536 197.072 177.536C196.22 177.536 195.68 178.004 195.212 178.784L194.132 178.124C194.828 177.032 195.812 176.36 197.192 176.36C198.62 176.36 199.76 177.284 199.76 178.688C199.76 179.828 199.016 180.692 198.08 181.64L195.884 183.812H199.988V185H194.288ZM204.315 176.36C206.463 176.36 207.495 178.292 207.495 180.8C207.495 183.308 206.463 185.24 204.315 185.24C202.167 185.24 201.123 183.308 201.123 180.8C201.123 178.292 202.167 176.36 204.315 176.36ZM204.315 177.584C203.091 177.584 202.479 178.928 202.479 180.8C202.479 182.684 203.091 184.016 204.315 184.016C205.527 184.016 206.139 182.672 206.139 180.8C206.139 178.916 205.527 177.584 204.315 177.584ZM208.631 185V183.812L211.487 180.92C212.327 180.056 212.759 179.588 212.759 178.796C212.759 177.992 212.183 177.536 211.415 177.536C210.563 177.536 210.023 178.004 209.555 178.784L208.475 178.124C209.171 177.032 210.155 176.36 211.535 176.36C212.963 176.36 214.103 177.284 214.103 178.688C214.103 179.828 213.359 180.692 212.423 181.64L210.227 183.812H214.331V185H208.631ZM214.917 182.66V181.472L218.721 176.6H220.281V181.472H221.205V182.66H220.281V185H218.973V182.66H214.917ZM216.297 181.472H218.973V178.052L216.297 181.472Z"
              fill="#667DCF"/>
        <path d="M117.648 209V197.8H124.176V199.688H119.92V202.344H123.536V204.232H119.92V207.112H124.176V209H117.648ZM126.513 209V200.936H128.545V201.576C129.105 201.032 129.857 200.616 130.929 200.616C132.673 200.616 134.065 201.816 134.065 204.2V209H132.017V204.28C132.017 203.208 131.409 202.536 130.417 202.536C129.393 202.536 128.849 203.224 128.545 203.736V209H126.513ZM136.884 206.056V202.76H135.38V200.936H136.884V198.92H138.932V200.936H141.396V202.76H138.932V206.056C138.932 206.952 139.412 207.304 140.212 207.304C140.772 207.304 141.14 207.24 141.412 207.128V208.904C141.012 209.08 140.532 209.16 139.86 209.16C137.844 209.16 136.884 208.024 136.884 206.056ZM143.216 209V200.936H145.248V201.736C145.776 201.192 146.464 200.776 147.376 200.776C147.648 200.776 147.888 200.824 148.08 200.888V202.888C147.824 202.824 147.552 202.776 147.184 202.776C146.192 202.776 145.552 203.32 145.248 203.832V209H143.216ZM154.06 199.656H152.108L153.772 197H155.98L154.06 199.656ZM156.796 207.688C156.044 208.696 154.796 209.32 153.276 209.32C150.412 209.32 148.796 207.32 148.796 204.968C148.796 202.584 150.3 200.616 152.94 200.616C155.18 200.616 156.652 202.136 156.652 204.248C156.652 204.696 156.588 205.112 156.524 205.384H150.876C151.068 206.888 151.996 207.496 153.26 207.496C154.14 207.496 154.908 207.112 155.34 206.536L156.796 207.688ZM152.892 202.28C151.852 202.28 151.164 202.856 150.94 203.912H154.652C154.62 203.096 154.028 202.28 152.892 202.28ZM165.999 207.688C165.247 208.696 163.999 209.32 162.479 209.32C159.615 209.32 157.999 207.32 157.999 204.968C157.999 202.584 159.503 200.616 162.143 200.616C164.383 200.616 165.855 202.136 165.855 204.248C165.855 204.696 165.791 205.112 165.727 205.384H160.079C160.271 206.888 161.199 207.496 162.463 207.496C163.343 207.496 164.111 207.112 164.543 206.536L165.999 207.688ZM162.095 202.28C161.055 202.28 160.367 202.856 160.143 203.912H163.855C163.823 203.096 163.231 202.28 162.095 202.28ZM179.578 207.688C178.826 208.696 177.578 209.32 176.058 209.32C173.194 209.32 171.578 207.32 171.578 204.968C171.578 202.584 173.082 200.616 175.722 200.616C177.962 200.616 179.434 202.136 179.434 204.248C179.434 204.696 179.37 205.112 179.306 205.384H173.658C173.85 206.888 174.778 207.496 176.042 207.496C176.922 207.496 177.69 207.112 178.122 206.536L179.578 207.688ZM175.674 202.28C174.634 202.28 173.946 202.856 173.722 203.912H177.434C177.402 203.096 176.81 202.28 175.674 202.28ZM181.419 209V200.936H183.451V201.576C184.011 201.032 184.763 200.616 185.835 200.616C187.579 200.616 188.971 201.816 188.971 204.2V209H186.923V204.28C186.923 203.208 186.315 202.536 185.323 202.536C184.299 202.536 183.755 203.224 183.451 203.736V209H181.419ZM194.439 200.936H196.615L198.711 206.696L200.791 200.936H202.983L200.039 209H197.367L194.439 200.936ZM205.287 199.528C204.567 199.528 203.959 198.92 203.959 198.2C203.959 197.48 204.567 196.872 205.287 196.872C206.007 196.872 206.599 197.48 206.599 198.2C206.599 198.92 206.007 199.528 205.287 199.528ZM204.263 209V200.936H206.295V209H204.263ZM207.932 210.408C207.932 209.608 208.332 208.968 209.052 208.44C208.732 208.12 208.556 207.688 208.556 207.272C208.556 206.632 208.828 206.12 209.436 205.672C208.732 205.144 208.348 204.344 208.348 203.448C208.348 201.88 209.564 200.616 211.58 200.616C212.204 200.616 212.748 200.728 213.212 200.936H216.156V202.664H214.732C214.812 202.92 214.844 203.176 214.844 203.448C214.844 205.032 213.66 206.312 211.58 206.312C211.308 206.312 211.052 206.296 210.812 206.248C210.636 206.408 210.54 206.584 210.54 206.76C210.54 207.08 210.716 207.24 211.084 207.24H213.116C215.148 207.24 216.252 208.328 216.252 209.832C216.252 211.624 214.54 213 212.028 213C209.452 213 207.932 212.104 207.932 210.408ZM211.612 204.776C212.46 204.776 213.004 204.248 213.004 203.448C213.004 202.648 212.46 202.136 211.612 202.136C210.732 202.136 210.204 202.664 210.204 203.448C210.204 204.248 210.732 204.776 211.612 204.776ZM209.852 210.12C209.852 210.888 210.588 211.368 212.012 211.368C213.484 211.368 214.236 210.824 214.236 210.024C214.236 209.416 213.868 208.984 212.892 208.984H210.396C210.092 209.272 209.852 209.624 209.852 210.12ZM222.966 205.512V200.936H225.014V205.416C225.014 207.832 223.606 209.32 221.238 209.32C218.87 209.32 217.478 207.832 217.478 205.416V200.936H219.526V205.512C219.526 206.68 220.134 207.4 221.254 207.4C222.358 207.4 222.966 206.68 222.966 205.512ZM234.687 207.688C233.935 208.696 232.687 209.32 231.167 209.32C228.303 209.32 226.687 207.32 226.687 204.968C226.687 202.584 228.191 200.616 230.831 200.616C233.071 200.616 234.543 202.136 234.543 204.248C234.543 204.696 234.479 205.112 234.415 205.384H228.767C228.959 206.888 229.887 207.496 231.151 207.496C232.031 207.496 232.799 207.112 233.231 206.536L234.687 207.688ZM230.783 202.28C229.743 202.28 229.055 202.856 228.831 203.912H232.543C232.511 203.096 231.919 202.28 230.783 202.28ZM241.747 205.512V200.936H243.795V205.416C243.795 207.832 242.387 209.32 240.019 209.32C237.651 209.32 236.259 207.832 236.259 205.416V200.936H238.307V205.512C238.307 206.68 238.915 207.4 240.035 207.4C241.139 207.4 241.747 206.68 241.747 205.512ZM246.044 209V200.936H248.076V201.736C248.604 201.192 249.292 200.776 250.204 200.776C250.476 200.776 250.716 200.824 250.908 200.888V202.888C250.652 202.824 250.38 202.776 250.012 202.776C249.02 202.776 248.38 203.32 248.076 203.832V209H246.044Z"
              fill="#2F4077"/>
        <path d="M117.296 257V248.6H120.56C123.2 248.6 124.988 250.532 124.988 252.8C124.988 255.068 123.2 257 120.56 257H117.296ZM120.572 249.86H118.664V255.74H120.572C122.312 255.74 123.56 254.432 123.56 252.8C123.56 251.156 122.312 249.86 120.572 249.86ZM125.627 257L128.903 248.6H130.727L134.003 257H132.527L131.639 254.648H127.979L127.091 257H125.627ZM128.435 253.472H131.183L129.815 249.848L128.435 253.472ZM133.822 249.86V248.6H140.602V249.86H137.902V257H136.522V249.86H133.822ZM142.304 257V248.6H146.984V249.764H143.672V252.14H146.504V253.304H143.672V255.836H146.984V257H142.304ZM152.405 257V248.6H157.085V249.764H153.773V252.14H156.605V253.304H153.773V255.836H157.085V257H152.405ZM159.273 257V248.6H161.049L165.369 255.236V248.6H166.749V257H164.961L160.641 250.364V257H159.273ZM176.27 255.944C177.326 255.944 178.178 255.428 178.706 254.672L179.81 255.524C179.03 256.556 177.794 257.24 176.27 257.24C173.63 257.24 171.842 255.2 171.842 252.8C171.842 250.4 173.63 248.36 176.27 248.36C177.794 248.36 179.03 249.044 179.81 250.076L178.706 250.928C178.178 250.172 177.326 249.656 176.27 249.656C174.518 249.656 173.258 251.048 173.258 252.8C173.258 254.564 174.518 255.944 176.27 255.944ZM185.164 248.36C187.792 248.36 189.592 250.4 189.592 252.8C189.592 255.2 187.792 257.24 185.164 257.24C182.524 257.24 180.736 255.2 180.736 252.8C180.736 250.4 182.524 248.36 185.164 248.36ZM185.164 255.944C186.916 255.944 188.164 254.552 188.164 252.8C188.164 251.036 186.916 249.656 185.164 249.656C183.412 249.656 182.152 251.048 182.152 252.8C182.152 254.564 183.412 255.944 185.164 255.944ZM196.55 253.88V248.6H197.93V253.784C197.93 255.956 196.646 257.24 194.618 257.24C192.59 257.24 191.294 255.956 191.294 253.784V248.6H192.662V253.88C192.662 255.2 193.418 255.944 194.618 255.944C195.794 255.944 196.55 255.2 196.55 253.88ZM200.265 257V248.6H202.641C204.405 248.6 205.485 249.536 205.485 251.024C205.485 252.044 204.981 252.8 204.105 253.172L206.769 257H205.137L202.797 253.448C202.737 253.448 202.689 253.448 202.641 253.448H201.633V257H200.265ZM202.713 249.764H201.633V252.284H202.713C203.565 252.284 204.057 251.804 204.057 251C204.057 250.244 203.565 249.764 202.713 249.764ZM207.362 255.836L208.37 254.912C208.922 255.608 209.594 256.004 210.326 256.004C211.154 256.004 211.634 255.536 211.634 254.828C211.634 253.088 207.722 253.508 207.722 250.7C207.722 249.416 208.79 248.36 210.314 248.36C211.526 248.36 212.426 248.912 213.098 249.752L212.078 250.664C211.586 249.98 211.01 249.584 210.326 249.584C209.594 249.584 209.126 250.028 209.126 250.664C209.126 252.392 213.038 251.96 213.038 254.792C213.014 256.292 211.85 257.24 210.35 257.24C209.03 257.24 208.106 256.736 207.362 255.836ZM218.347 257V248.6H221.611C224.251 248.6 226.039 250.532 226.039 252.8C226.039 255.068 224.251 257 221.611 257H218.347ZM221.623 249.86H219.715V255.74H221.623C223.363 255.74 224.611 254.432 224.611 252.8C224.611 251.156 223.363 249.86 221.623 249.86ZM227.909 257V248.6H232.589V249.764H229.277V252.14H232.109V253.304H229.277V255.836H232.589V257H227.909ZM238.011 257V248.6H241.275C243.915 248.6 245.703 250.532 245.703 252.8C245.703 255.068 243.915 257 241.275 257H238.011ZM241.287 249.86H239.379V255.74H241.287C243.027 255.74 244.275 254.432 244.275 252.8C244.275 251.156 243.027 249.86 241.287 249.86ZM250.549 247.88H249.277L250.633 246.26H252.097L250.549 247.88ZM247.573 257V248.6H252.253V249.764H248.941V252.14H251.773V253.304H248.941V255.836H252.253V257H247.573ZM254.441 257V248.6H259.121V249.764H255.809V252.14H258.641V253.304H255.809V257H254.441ZM260.827 257V248.6H262.195V257H260.827ZM264.788 257V248.6H266.564L270.884 255.236V248.6H272.264V257H270.476L266.156 250.364V257H264.788ZM274.843 257V248.6H276.211V257H274.843ZM277.904 249.86V248.6H284.684V249.86H281.984V257H280.604V249.86H277.904ZM286.386 257V248.6H287.754V257H286.386ZM294.055 248.36C296.683 248.36 298.483 250.4 298.483 252.8C298.483 255.2 296.683 257.24 294.055 257.24C291.415 257.24 289.627 255.2 289.627 252.8C289.627 250.4 291.415 248.36 294.055 248.36ZM294.055 255.944C295.807 255.944 297.055 254.552 297.055 252.8C297.055 251.036 295.807 249.656 294.055 249.656C292.303 249.656 291.043 251.048 291.043 252.8C291.043 254.564 292.303 255.944 294.055 255.944ZM300.355 257V248.6H302.131L306.451 255.236V248.6H307.831V257H306.043L301.723 250.364V257H300.355Z"
              fill="#667DCF"/>
        <path d="M117.648 281V269.8H120.48L123.216 274.504L125.952 269.8H128.784V281H126.512V272.968L124.016 277.16H122.416L119.92 272.968V281H117.648ZM132.662 271.528C131.942 271.528 131.334 270.92 131.334 270.2C131.334 269.48 131.942 268.872 132.662 268.872C133.382 268.872 133.974 269.48 133.974 270.2C133.974 270.92 133.382 271.528 132.662 271.528ZM131.638 281V272.936H133.67V281H131.638ZM135.293 279.832L136.637 278.616C137.133 279.24 137.725 279.688 138.493 279.688C139.149 279.688 139.485 279.304 139.485 278.824C139.485 277.416 135.629 277.944 135.629 275.112C135.629 273.688 136.829 272.616 138.509 272.616C139.741 272.616 140.861 273.208 141.437 273.992L140.093 275.176C139.677 274.664 139.149 274.248 138.525 274.248C137.885 274.248 137.581 274.6 137.581 275.016C137.581 276.392 141.437 275.912 141.437 278.696C141.405 280.392 140.045 281.32 138.525 281.32C137.085 281.32 136.061 280.744 135.293 279.832ZM150.703 279.688C149.951 280.696 148.703 281.32 147.183 281.32C144.319 281.32 142.703 279.32 142.703 276.968C142.703 274.584 144.207 272.616 146.847 272.616C149.087 272.616 150.559 274.136 150.559 276.248C150.559 276.696 150.495 277.112 150.431 277.384H144.783C144.975 278.888 145.903 279.496 147.167 279.496C148.047 279.496 148.815 279.112 149.247 278.536L150.703 279.688ZM146.799 274.28C145.759 274.28 145.071 274.856 144.847 275.912H148.559C148.527 275.096 147.935 274.28 146.799 274.28ZM164.281 279.688C163.529 280.696 162.281 281.32 160.761 281.32C157.897 281.32 156.281 279.32 156.281 276.968C156.281 274.584 157.785 272.616 160.425 272.616C162.665 272.616 164.137 274.136 164.137 276.248C164.137 276.696 164.073 277.112 164.009 277.384H158.361C158.553 278.888 159.481 279.496 160.745 279.496C161.625 279.496 162.393 279.112 162.825 278.536L164.281 279.688ZM160.377 274.28C159.337 274.28 158.649 274.856 158.425 275.912H162.137C162.105 275.096 161.513 274.28 160.377 274.28ZM166.122 281V272.936H168.154V273.576C168.714 273.032 169.466 272.616 170.538 272.616C172.282 272.616 173.674 273.816 173.674 276.2V281H171.626V276.28C171.626 275.208 171.018 274.536 170.026 274.536C169.002 274.536 168.458 275.224 168.154 275.736V281H166.122ZM184.166 279.4C184.966 279.4 185.606 279.032 185.99 278.472L187.574 279.688C186.822 280.68 185.638 281.32 184.166 281.32C181.382 281.32 179.718 279.32 179.718 276.968C179.718 274.616 181.382 272.616 184.166 272.616C185.638 272.616 186.822 273.256 187.574 274.248L185.99 275.464C185.606 274.904 184.966 274.536 184.134 274.536C182.806 274.536 181.83 275.56 181.83 276.968C181.83 278.392 182.806 279.4 184.166 279.4ZM192.619 272.616C195.243 272.616 197.035 274.552 197.035 276.968C197.035 279.384 195.243 281.32 192.619 281.32C189.995 281.32 188.203 279.384 188.203 276.968C188.203 274.552 189.995 272.616 192.619 272.616ZM192.651 279.4C193.947 279.4 194.923 278.36 194.923 276.968C194.923 275.56 193.947 274.536 192.651 274.536C191.307 274.536 190.315 275.56 190.315 276.968C190.315 278.376 191.307 279.4 192.651 279.4ZM198.888 281V272.936H200.92V273.576C201.48 273.032 202.232 272.616 203.304 272.616C205.048 272.616 206.44 273.816 206.44 276.2V281H204.392V276.28C204.392 275.208 203.784 274.536 202.792 274.536C201.768 274.536 201.224 275.224 200.92 275.736V281H198.888ZM207.755 272.936H209.259V272.088C209.259 270.376 210.395 269 212.411 269C213.147 269 213.771 269.176 214.283 269.448L213.419 271.144C213.179 270.968 212.859 270.824 212.443 270.824C211.755 270.824 211.307 271.304 211.307 272.04V272.936H213.771V274.76H211.307V281H209.259V274.76H207.755V272.936ZM218.697 272.616C221.321 272.616 223.113 274.552 223.113 276.968C223.113 279.384 221.321 281.32 218.697 281.32C216.073 281.32 214.281 279.384 214.281 276.968C214.281 274.552 216.073 272.616 218.697 272.616ZM218.729 279.4C220.025 279.4 221.001 278.36 221.001 276.968C221.001 275.56 220.025 274.536 218.729 274.536C217.385 274.536 216.393 275.56 216.393 276.968C216.393 278.376 217.385 279.4 218.729 279.4ZM224.966 281V272.936H226.998V273.736C227.526 273.192 228.214 272.776 229.126 272.776C229.398 272.776 229.638 272.824 229.83 272.888V274.888C229.574 274.824 229.302 274.776 228.934 274.776C227.942 274.776 227.302 275.32 226.998 275.832V281H224.966ZM231.466 281V272.936H233.498V273.544C234.042 273.016 234.73 272.616 235.722 272.616C236.746 272.616 237.642 273.064 238.17 273.928C238.746 273.224 239.514 272.616 240.874 272.616C242.538 272.616 243.85 273.768 243.85 276.04V281H241.802V276.12C241.802 275.144 241.274 274.536 240.362 274.536C239.482 274.536 239.002 275.144 238.682 275.688C238.698 275.8 238.698 275.912 238.698 276.04V281H236.65V276.12C236.65 275.144 236.122 274.536 235.21 274.536C234.282 274.536 233.802 275.224 233.498 275.736V281H231.466ZM247.193 271.528C246.473 271.528 245.865 270.92 245.865 270.2C245.865 269.48 246.473 268.872 247.193 268.872C247.913 268.872 248.505 269.48 248.505 270.2C248.505 270.92 247.913 271.528 247.193 271.528ZM246.169 281V272.936H248.201V281H246.169ZM251.15 278.056V274.76H249.646V272.936H251.15V270.92H253.198V272.936H255.662V274.76H253.198V278.056C253.198 278.952 253.678 279.304 254.478 279.304C255.038 279.304 255.406 279.24 255.678 279.128V280.904C255.278 281.08 254.798 281.16 254.126 281.16C252.11 281.16 251.15 280.024 251.15 278.056ZM262.013 271.656H260.061L261.725 269H263.933L262.013 271.656ZM264.749 279.688C263.997 280.696 262.749 281.32 261.229 281.32C258.365 281.32 256.749 279.32 256.749 276.968C256.749 274.584 258.253 272.616 260.893 272.616C263.133 272.616 264.605 274.136 264.605 276.248C264.605 276.696 264.541 277.112 264.477 277.384H258.829C259.021 278.888 259.949 279.496 261.213 279.496C262.093 279.496 262.861 279.112 263.293 278.536L264.749 279.688ZM260.845 274.28C259.805 274.28 259.117 274.856 258.893 275.912H262.605C262.573 275.096 261.981 274.28 260.845 274.28ZM270.328 276.968C270.328 274.616 271.88 272.616 274.424 272.616C275.512 272.616 276.296 272.952 276.92 273.576V269H278.968V281H276.92V280.36C276.296 280.984 275.512 281.32 274.424 281.32C271.88 281.32 270.328 279.32 270.328 276.968ZM272.456 276.968C272.456 278.376 273.336 279.4 274.712 279.4C275.624 279.4 276.376 279.016 276.92 278.28V275.656C276.376 274.92 275.624 274.536 274.712 274.536C273.336 274.536 272.456 275.56 272.456 276.968ZM288.828 279.688C288.076 280.696 286.828 281.32 285.308 281.32C282.444 281.32 280.828 279.32 280.828 276.968C280.828 274.584 282.332 272.616 284.972 272.616C287.212 272.616 288.684 274.136 288.684 276.248C288.684 276.696 288.62 277.112 288.556 277.384H282.908C283.1 278.888 284.028 279.496 285.292 279.496C286.172 279.496 286.94 279.112 287.372 278.536L288.828 279.688ZM284.924 274.28C283.884 274.28 283.196 274.856 282.972 275.912H286.684C286.652 275.096 286.06 274.28 284.924 274.28ZM289.856 279.832L291.2 278.616C291.696 279.24 292.288 279.688 293.056 279.688C293.712 279.688 294.048 279.304 294.048 278.824C294.048 277.416 290.192 277.944 290.192 275.112C290.192 273.688 291.392 272.616 293.072 272.616C294.304 272.616 295.424 273.208 296 273.992L294.656 275.176C294.24 274.664 293.712 274.248 293.088 274.248C292.448 274.248 292.144 274.6 292.144 275.016C292.144 276.392 296 275.912 296 278.696C295.968 280.392 294.608 281.32 293.088 281.32C291.648 281.32 290.624 280.744 289.856 279.832ZM309.609 279.688C308.857 280.696 307.609 281.32 306.089 281.32C303.225 281.32 301.609 279.32 301.609 276.968C301.609 274.584 303.113 272.616 305.753 272.616C307.993 272.616 309.465 274.136 309.465 276.248C309.465 276.696 309.401 277.112 309.337 277.384H303.689C303.881 278.888 304.809 279.496 306.073 279.496C306.953 279.496 307.721 279.112 308.153 278.536L309.609 279.688ZM305.705 274.28C304.665 274.28 303.977 274.856 303.753 275.912H307.465C307.433 275.096 306.841 274.28 305.705 274.28ZM311.45 281V272.936H313.482V273.576C314.042 273.032 314.794 272.616 315.866 272.616C317.61 272.616 319.002 273.816 319.002 276.2V281H316.954V276.28C316.954 275.208 316.346 274.536 315.354 274.536C314.33 274.536 313.786 275.224 313.482 275.736V281H311.45ZM321.822 278.056V274.76H320.318V272.936H321.822V270.92H323.87V272.936H326.334V274.76H323.87V278.056C323.87 278.952 324.35 279.304 325.15 279.304C325.71 279.304 326.078 279.24 326.35 279.128V280.904C325.95 281.08 325.47 281.16 324.798 281.16C322.782 281.16 321.822 280.024 321.822 278.056ZM329.178 271.528C328.458 271.528 327.85 270.92 327.85 270.2C327.85 269.48 328.458 268.872 329.178 268.872C329.898 268.872 330.49 269.48 330.49 270.2C330.49 270.92 329.898 271.528 329.178 271.528ZM328.154 281V272.936H330.186V281H328.154ZM333.134 278.056V274.76H331.63V272.936H333.134V270.92H335.182V272.936H337.646V274.76H335.182V278.056C335.182 278.952 335.662 279.304 336.462 279.304C337.022 279.304 337.39 279.24 337.662 279.128V280.904C337.262 281.08 336.782 281.16 336.11 281.16C334.094 281.16 333.134 280.024 333.134 278.056ZM343.998 271.656H342.046L343.71 269H345.918L343.998 271.656ZM346.734 279.688C345.982 280.696 344.734 281.32 343.214 281.32C340.35 281.32 338.734 279.32 338.734 276.968C338.734 274.584 340.238 272.616 342.878 272.616C345.118 272.616 346.59 274.136 346.59 276.248C346.59 276.696 346.526 277.112 346.462 277.384H340.814C341.006 278.888 341.934 279.496 343.198 279.496C344.078 279.496 344.846 279.112 345.278 278.536L346.734 279.688ZM342.83 274.28C341.79 274.28 341.102 274.856 340.878 275.912H344.59C344.558 275.096 343.966 274.28 342.83 274.28ZM347.762 279.832L349.106 278.616C349.602 279.24 350.194 279.688 350.962 279.688C351.618 279.688 351.954 279.304 351.954 278.824C351.954 277.416 348.098 277.944 348.098 275.112C348.098 273.688 349.298 272.616 350.978 272.616C352.21 272.616 353.33 273.208 353.906 273.992L352.562 275.176C352.146 274.664 351.618 274.248 350.994 274.248C350.354 274.248 350.05 274.6 350.05 275.016C350.05 276.392 353.906 275.912 353.906 278.696C353.874 280.392 352.514 281.32 350.994 281.32C349.554 281.32 348.53 280.744 347.762 279.832ZM119.488 305.24C117.872 305.24 116.768 304.312 116.768 302.824C116.768 301.608 117.712 300.696 119.44 300.408L121.904 299.992V299.784C121.904 298.936 121.264 298.392 120.336 298.392C119.552 298.392 118.944 298.76 118.512 299.352L117.024 298.216C117.744 297.224 118.928 296.616 120.4 296.616C122.736 296.616 123.936 298.008 123.936 299.784V305H121.904V304.216C121.392 304.84 120.432 305.24 119.488 305.24ZM118.784 302.728C118.784 303.272 119.216 303.624 119.904 303.624C120.832 303.624 121.504 303.192 121.904 302.552V301.416L119.984 301.736C119.136 301.88 118.784 302.232 118.784 302.728ZM125.559 303.832L126.903 302.616C127.399 303.24 127.991 303.688 128.759 303.688C129.415 303.688 129.751 303.304 129.751 302.824C129.751 301.416 125.895 301.944 125.895 299.112C125.895 297.688 127.095 296.616 128.775 296.616C130.007 296.616 131.127 297.208 131.703 297.992L130.359 299.176C129.943 298.664 129.415 298.248 128.791 298.248C128.151 298.248 127.847 298.6 127.847 299.016C127.847 300.392 131.703 299.912 131.703 302.696C131.671 304.392 130.311 305.32 128.791 305.32C127.351 305.32 126.327 304.744 125.559 303.832ZM132.762 303.832L134.106 302.616C134.602 303.24 135.194 303.688 135.962 303.688C136.618 303.688 136.954 303.304 136.954 302.824C136.954 301.416 133.098 301.944 133.098 299.112C133.098 297.688 134.298 296.616 135.978 296.616C137.21 296.616 138.33 297.208 138.906 297.992L137.562 299.176C137.146 298.664 136.618 298.248 135.994 298.248C135.354 298.248 135.05 298.6 135.05 299.016C135.05 300.392 138.906 299.912 138.906 302.696C138.874 304.392 137.514 305.32 135.994 305.32C134.554 305.32 133.53 304.744 132.762 303.832ZM146.091 301.512V296.936H148.139V301.416C148.139 303.832 146.731 305.32 144.363 305.32C141.995 305.32 140.603 303.832 140.603 301.416V296.936H142.651V301.512C142.651 302.68 143.259 303.4 144.379 303.4C145.483 303.4 146.091 302.68 146.091 301.512ZM151.38 295.528C150.66 295.528 150.052 294.92 150.052 294.2C150.052 293.48 150.66 292.872 151.38 292.872C152.084 292.872 152.692 293.48 152.692 294.2C152.692 294.92 152.084 295.528 151.38 295.528ZM152.42 305.864C152.42 307.88 151.476 309 149.444 309C148.772 309 148.308 308.92 147.908 308.744V306.968C148.164 307.08 148.548 307.144 149.108 307.144C149.908 307.144 150.388 306.792 150.388 305.864V296.936H152.42V305.864ZM162.281 303.688C161.529 304.696 160.281 305.32 158.761 305.32C155.897 305.32 154.281 303.32 154.281 300.968C154.281 298.584 155.785 296.616 158.425 296.616C160.665 296.616 162.137 298.136 162.137 300.248C162.137 300.696 162.073 301.112 162.009 301.384H156.361C156.553 302.888 157.481 303.496 158.745 303.496C159.625 303.496 160.393 303.112 160.825 302.536L162.281 303.688ZM158.377 298.28C157.337 298.28 156.649 298.856 156.425 299.912H160.137C160.105 299.096 159.513 298.28 158.377 298.28ZM164.619 302.056V298.76H163.115V296.936H164.619V294.92H166.667V296.936H169.131V298.76H166.667V302.056C166.667 302.952 167.147 303.304 167.947 303.304C168.507 303.304 168.875 303.24 169.147 303.128V304.904C168.747 305.08 168.267 305.16 167.595 305.16C165.579 305.16 164.619 304.024 164.619 302.056ZM171.587 302.056V298.76H170.083V296.936H171.587V294.92H173.635V296.936H176.099V298.76H173.635V302.056C173.635 302.952 174.115 303.304 174.915 303.304C175.475 303.304 175.843 303.24 176.115 303.128V304.904C175.715 305.08 175.235 305.16 174.563 305.16C172.547 305.16 171.587 304.024 171.587 302.056ZM178.943 295.528C178.223 295.528 177.615 294.92 177.615 294.2C177.615 293.48 178.223 292.872 178.943 292.872C179.663 292.872 180.255 293.48 180.255 294.2C180.255 294.92 179.663 295.528 178.943 295.528ZM177.919 305V296.936H179.951V305H177.919ZM189.812 303.688C189.06 304.696 187.812 305.32 186.292 305.32C183.428 305.32 181.812 303.32 181.812 300.968C181.812 298.584 183.316 296.616 185.956 296.616C188.196 296.616 189.668 298.136 189.668 300.248C189.668 300.696 189.604 301.112 189.54 301.384H183.892C184.084 302.888 185.012 303.496 186.276 303.496C187.156 303.496 187.924 303.112 188.356 302.536L189.812 303.688ZM185.908 298.28C184.868 298.28 184.18 298.856 183.956 299.912H187.668C187.636 299.096 187.044 298.28 185.908 298.28ZM190.84 303.832L192.184 302.616C192.68 303.24 193.272 303.688 194.04 303.688C194.696 303.688 195.032 303.304 195.032 302.824C195.032 301.416 191.176 301.944 191.176 299.112C191.176 297.688 192.376 296.616 194.056 296.616C195.288 296.616 196.408 297.208 196.984 297.992L195.64 299.176C195.224 298.664 194.696 298.248 194.072 298.248C193.432 298.248 193.128 298.6 193.128 299.016C193.128 300.392 196.984 299.912 196.984 302.696C196.952 304.392 195.592 305.32 194.072 305.32C192.632 305.32 191.608 304.744 190.84 303.832Z"
              fill="#2F4077"/>
        <!-- Fin du texte -->
        <line x1="82" y1="130" x2="82" y2="184" stroke="#2F4077" stroke-width="6"/>
        <line x1="82" y1="202" x2="82" y2="256" stroke="#ADBFFC" stroke-width="6" stroke-dasharray="4 4"/>
        <circle cx="82" cy="121" r="10" fill="#2F4077"/>
        <circle cx="82" cy="193" r="7" stroke="#ADBFFC" stroke-width="6" stroke-linecap="round"/>
        <circle cx="82" cy="265" r="7" stroke="#ADBFFC" stroke-width="6" stroke-linecap="round"/>
    </g>
    <defs>
        <filter id="filter0_d_542_19426" x="0" y="-27" width="436" height="405" filterUnits="userSpaceOnUse"
                color-interpolation-filters="sRGB">
            <feFlood flood-opacity="0" result="BackgroundImageFix"/>
            <feColorMatrix in="SourceAlpha" type="matrix" values="0 0 0 0 0 0 0 0 0 0 0 0 0 0 0 0 0 0 127 0"
                           result="hardAlpha"/>
            <feOffset dy="4"/>
            <feGaussianBlur stdDeviation="20"/>
            <feComposite in2="hardAlpha" operator="out"/>
            <feColorMatrix type="matrix" values="0 0 0 0 0 0 0 0 0 0 0 0 0 0 0 0 0 0 0.1 0"/>
            <feBlend mode="normal" in2="BackgroundImageFix" result="effect1_dropShadow_542_19426"/>
            <feBlend mode="normal" in="SourceGraphic" in2="effect1_dropShadow_542_19426" result="shape"/>
        </filter>
        <filter id="filter1_d_542_19426" x="322" y="253" width="94" height="94" filterUnits="userSpaceOnUse"
                color-interpolation-filters="sRGB">
            <feFlood flood-opacity="0" result="BackgroundImageFix"/>
            <feColorMatrix in="SourceAlpha" type="matrix" values="0 0 0 0 0 0 0 0 0 0 0 0 0 0 0 0 0 0 127 0"
                           result="hardAlpha"/>
            <feOffset dy="4"/>
            <feGaussianBlur stdDeviation="10"/>
            <feComposite in2="hardAlpha" operator="out"/>
            <feColorMatrix type="matrix" values="0 0 0 0 0 0 0 0 0 0 0 0 0 0 0 0 0 0 0.25 0"/>
            <feBlend mode="normal" in2="BackgroundImageFix" result="effect1_dropShadow_542_19426"/>
            <feBlend mode="normal" in="SourceGraphic" in2="effect1_dropShadow_542_19426" result="shape"/>
        </filter>
    </defs>
</svg>
