<svg width="278" height="263" viewBox="0 0 278 263" fill="none" xmlns="http://www.w3.org/2000/svg">
    <path d="M254 31H24C10.7452 31 0 41.7452 0 55V91.5H278V55C278 41.7452 267.255 31 254 31Z" fill="#BFCCFB"/>
    <path d="M268 199L214 253V223C214 209.745 224.745 199 238 199H268Z" fill="#BFCCFB"/>
    <path d="M206 256L271 191" stroke="#2F4077" stroke-width="8"/>
    <path d="M198 259H24C12.9543 259 4 250.046 4 239V96H274V183C274 189.627 268.627 195 262 195H238C222.536 195 210 207.536 210 223V247C210 253.627 204.627 259 198 259Z" fill="white" stroke="#2F4077" stroke-width="8"/>
    <path d="M254 30H24C10.7452 30 0 40.7452 0 54V92H278V54C278 40.7452 267.255 30 254 30Z" fill="#BFCCFB"/>
    <mask id="path-6-inside-1_47_4129" fill="white">
        <path d="M0 54C0 40.7452 10.7452 30 24 30H254C267.255 30 278 40.7452 278 54V92H0V54Z"/>
    </mask>
    <path d="M0 54C0 40.7452 10.7452 30 24 30H254C267.255 30 278 40.7452 278 54V92H0V54Z" fill="#BFCCFB"/>
    <path d="M-8 54C-8 36.3269 6.32689 22 24 22H254C271.673 22 286 36.3269 286 54H270C270 45.1634 262.837 38 254 38H24C15.1634 38 8 45.1634 8 54H-8ZM278 92H0H278ZM-8 92V54C-8 36.3269 6.32689 22 24 22V38C15.1634 38 8 45.1634 8 54V92H-8ZM254 22C271.673 22 286 36.3269 286 54V92H270V54C270 45.1634 262.837 38 254 38V22Z" fill="#2F4077" mask="url(#path-6-inside-1_47_4129)"/>
    <path d="M67 4L67 60" stroke="#2F4077" stroke-width="8" stroke-linecap="round"/>
    <path d="M139 4L139 60" stroke="#2F4077" stroke-width="8" stroke-linecap="round"/>
    <path d="M211 4L211 60" stroke="#2F4077" stroke-width="8" stroke-linecap="round"/>
    <path d="M66.7 135.8C74.95 135.8 80.6 141.7 80.6 149.4C80.6 157.1 74.95 163 66.7 163C58.4 163 52.75 157.1 52.75 149.4C52.75 141.7 58.4 135.8 66.7 135.8ZM66.75 155.55C69.95 155.55 72.4 153.1 72.4 149.4C72.4 145.6 69.95 143.25 66.75 143.25C63.45 143.25 61 145.65 61 149.4C61 153.15 63.45 155.55 66.75 155.55ZM98.3918 155.55C100.392 155.55 101.992 154.55 102.892 153.25L109.092 157.95C106.742 161.05 102.992 163 98.3418 163C89.4418 163 84.3418 156.75 84.3418 149.4C84.3418 142.05 89.4418 135.8 98.3418 135.8C102.992 135.8 106.742 137.75 109.092 140.85L102.892 145.55C101.992 144.25 100.442 143.25 98.2418 143.25C94.9918 143.25 92.5918 145.7 92.5918 149.4C92.5918 153.15 94.9918 155.55 98.3918 155.55ZM115.229 152.2V143.9H110.529V136.8H115.229V130.5H123.229V136.8H130.129V143.9H123.229V152.2C123.229 154.2 124.279 155.3 126.379 155.3C128.229 155.3 129.429 155.05 130.179 154.75V161.6C128.829 162.2 127.279 162.5 124.929 162.5C118.079 162.5 115.229 158.4 115.229 152.2ZM140.222 162.65C137.322 162.65 134.922 160.25 134.922 157.4C134.922 154.6 137.322 152.2 140.222 152.2C143.022 152.2 145.472 154.6 145.472 157.4C145.472 160.25 143.022 162.65 140.222 162.65ZM53.55 222V214.4L65.6 202.85C67.3 201.25 68.9 199.4 68.9 197.15C68.9 194.85 67.35 193.5 65.2 193.5C62.1 193.5 60.35 195.65 58.6 198.55L51.8 194.35C54.85 189.35 59.45 186 66.05 186C72.4 186 77.45 190 77.45 196.25C77.45 201.05 74.25 204.8 71.4 207.45L63.95 214.4H78.35V222H53.55ZM95.9805 186C105.53 186 109.78 193.95 109.78 204.5C109.78 215.05 105.53 223 95.9805 223C86.4805 223 82.1805 215.05 82.1805 204.5C82.1805 193.95 86.4805 186 95.9805 186ZM96.0305 193.8C92.4305 193.8 90.8305 197.75 90.8305 204.5C90.8305 211.3 92.4305 215.2 96.0305 215.2C99.4805 215.2 101.13 211.25 101.13 204.5C101.13 197.7 99.4805 193.8 96.0305 193.8ZM113.511 222V214.4L125.561 202.85C127.261 201.25 128.861 199.4 128.861 197.15C128.861 194.85 127.311 193.5 125.161 193.5C122.061 193.5 120.311 195.65 118.561 198.55L111.761 194.35C114.811 189.35 119.411 186 126.011 186C132.361 186 137.411 190 137.411 196.25C137.411 201.05 134.211 204.8 131.361 207.45L123.911 214.4H138.311V222H113.511ZM140.151 213.3V205.7L154.051 187H163.751V205.7H166.951V213.3H163.751V222H155.301V213.3H140.151ZM148.601 205.7H155.301V196.85L148.601 205.7Z" fill="#2F4077"/>
</svg>
