<svg width="486" height="355" viewBox="0 0 486 355" fill="none" xmlns="http://www.w3.org/2000/svg">
    <g clip-path="url(#clip0_1591_33299)">
        <g filter="url(#filter0_d_1591_33299)">
            <path d="M333 185L279 239V209C279 195.745 289.745 185 303 185H333Z" fill="#BFCCFB"/>
            <path d="M65 72V307C65 315.837 72.1634 323 81 323H367L421 269V72H65Z" fill="white"/>
            <mask id="mask0_1591_33299" style="mask-type:alpha" maskUnits="userSpaceOnUse" x="329" y="236" width="92"
                  height="87">
                <path d="M329 236H421V269L367 323H329V236Z" fill="#D9D9D9"/>
            </mask>
            <g mask="url(#mask0_1591_33299)">
                <g filter="url(#filter1_d_1591_33299)">
                    <path d="M367 285V323L421 269H383C374.163 269 367 276.163 367 285Z" fill="white"/>
                </g>
            </g>
            <path d="M65 48C65 39.1634 72.1634 32 81 32H405C413.837 32 421 39.1634 421 48V72H65V48Z" fill="#BFCCFB"/>
            <path d="M135 12L135 52" stroke="white" stroke-width="6" stroke-linecap="round"/>
            <path d="M207 12L207 52" stroke="white" stroke-width="6" stroke-linecap="round"/>
            <path d="M279 12L279 52" stroke="white" stroke-width="6" stroke-linecap="round"/>
            <path d="M351 12L351 52" stroke="white" stroke-width="6" stroke-linecap="round"/>
            <path d="M142.296 113V104.6H146.976V105.764H143.664V108.14H146.496V109.304H143.664V111.836H146.976V113H142.296ZM149.163 113V104.6H150.939L155.259 111.236V104.6H156.639V113H154.851L150.531 106.364V113H149.163ZM166.16 111.944C167.216 111.944 168.068 111.428 168.596 110.672L169.7 111.524C168.92 112.556 167.684 113.24 166.16 113.24C163.52 113.24 161.732 111.2 161.732 108.8C161.732 106.4 163.52 104.36 166.16 104.36C167.684 104.36 168.92 105.044 169.7 106.076L168.596 106.928C168.068 106.172 167.216 105.656 166.16 105.656C164.408 105.656 163.148 107.048 163.148 108.8C163.148 110.564 164.408 111.944 166.16 111.944ZM175.055 104.36C177.683 104.36 179.483 106.4 179.483 108.8C179.483 111.2 177.683 113.24 175.055 113.24C172.415 113.24 170.627 111.2 170.627 108.8C170.627 106.4 172.415 104.36 175.055 104.36ZM175.055 111.944C176.807 111.944 178.055 110.552 178.055 108.8C178.055 107.036 176.807 105.656 175.055 105.656C173.303 105.656 172.043 107.048 172.043 108.8C172.043 110.564 173.303 111.944 175.055 111.944ZM186.441 109.88V104.6H187.821V109.784C187.821 111.956 186.537 113.24 184.509 113.24C182.481 113.24 181.185 111.956 181.185 109.784V104.6H182.553V109.88C182.553 111.2 183.309 111.944 184.509 111.944C185.685 111.944 186.441 111.2 186.441 109.88ZM190.155 113V104.6H192.531C194.295 104.6 195.375 105.536 195.375 107.024C195.375 108.044 194.871 108.8 193.995 109.172L196.659 113H195.027L192.687 109.448C192.627 109.448 192.579 109.448 192.531 109.448H191.523V113H190.155ZM192.603 105.764H191.523V108.284H192.603C193.455 108.284 193.947 107.804 193.947 107C193.947 106.244 193.455 105.764 192.603 105.764ZM197.252 111.836L198.26 110.912C198.812 111.608 199.484 112.004 200.216 112.004C201.044 112.004 201.524 111.536 201.524 110.828C201.524 109.088 197.612 109.508 197.612 106.7C197.612 105.416 198.68 104.36 200.204 104.36C201.416 104.36 202.316 104.912 202.988 105.752L201.968 106.664C201.476 105.98 200.9 105.584 200.216 105.584C199.484 105.584 199.016 106.028 199.016 106.664C199.016 108.392 202.928 107.96 202.928 110.792C202.904 112.292 201.74 113.24 200.24 113.24C198.92 113.24 197.996 112.736 197.252 111.836Z"
                  fill="#667DCF"/>
            <path d="M141.496 127.864V125.8H150.68V127.864H147.224V137H144.952V127.864H141.496ZM151.357 137V128.936H153.389V129.736C153.917 129.192 154.605 128.776 155.517 128.776C155.789 128.776 156.029 128.824 156.221 128.888V130.888C155.965 130.824 155.693 130.776 155.325 130.776C154.333 130.776 153.693 131.32 153.389 131.832V137H151.357ZM159.738 137.24C158.122 137.24 157.018 136.312 157.018 134.824C157.018 133.608 157.962 132.696 159.69 132.408L162.154 131.992V131.784C162.154 130.936 161.514 130.392 160.586 130.392C159.802 130.392 159.194 130.76 158.762 131.352L157.274 130.216C157.994 129.224 159.178 128.616 160.65 128.616C162.986 128.616 164.186 130.008 164.186 131.784V137H162.154V136.216C161.642 136.84 160.682 137.24 159.738 137.24ZM159.034 134.728C159.034 135.272 159.466 135.624 160.154 135.624C161.082 135.624 161.754 135.192 162.154 134.552V133.416L160.234 133.736C159.386 133.88 159.034 134.232 159.034 134.728ZM166.513 137V128.936H168.545V129.576C169.105 129.032 169.857 128.616 170.929 128.616C172.673 128.616 174.065 129.816 174.065 132.2V137H172.017V132.28C172.017 131.208 171.409 130.536 170.417 130.536C169.393 130.536 168.849 131.224 168.545 131.736V137H166.513ZM175.668 135.832L177.012 134.616C177.508 135.24 178.1 135.688 178.868 135.688C179.524 135.688 179.86 135.304 179.86 134.824C179.86 133.416 176.004 133.944 176.004 131.112C176.004 129.688 177.204 128.616 178.884 128.616C180.116 128.616 181.236 129.208 181.812 129.992L180.468 131.176C180.052 130.664 179.524 130.248 178.9 130.248C178.26 130.248 177.956 130.6 177.956 131.016C177.956 132.392 181.812 131.912 181.812 134.696C181.78 136.392 180.42 137.32 178.9 137.32C177.46 137.32 176.436 136.744 175.668 135.832ZM183.685 140.936V128.936H185.717V129.592C186.341 128.968 187.125 128.616 188.229 128.616C190.789 128.616 192.325 130.616 192.325 132.968C192.325 135.32 190.789 137.32 188.229 137.32C187.125 137.32 186.341 136.968 185.717 136.344V140.936H183.685ZM187.941 130.536C186.997 130.536 186.229 130.952 185.717 131.704V134.232C186.261 135 187.013 135.4 187.941 135.4C189.317 135.4 190.213 134.376 190.213 132.968C190.213 131.56 189.317 130.536 187.941 130.536ZM198.103 128.616C200.727 128.616 202.519 130.552 202.519 132.968C202.519 135.384 200.727 137.32 198.103 137.32C195.479 137.32 193.687 135.384 193.687 132.968C193.687 130.552 195.479 128.616 198.103 128.616ZM198.135 135.4C199.431 135.4 200.407 134.36 200.407 132.968C200.407 131.56 199.431 130.536 198.135 130.536C196.791 130.536 195.799 131.56 195.799 132.968C195.799 134.376 196.791 135.4 198.135 135.4ZM203.403 135.832L204.747 134.616C205.243 135.24 205.835 135.688 206.603 135.688C207.259 135.688 207.595 135.304 207.595 134.824C207.595 133.416 203.739 133.944 203.739 131.112C203.739 129.688 204.939 128.616 206.619 128.616C207.851 128.616 208.971 129.208 209.547 129.992L208.203 131.176C207.787 130.664 207.259 130.248 206.635 130.248C205.995 130.248 205.691 130.6 205.691 131.016C205.691 132.392 209.547 131.912 209.547 134.696C209.515 136.392 208.155 137.32 206.635 137.32C205.195 137.32 204.171 136.744 203.403 135.832ZM212.443 127.528C211.723 127.528 211.115 126.92 211.115 126.2C211.115 125.48 211.723 124.872 212.443 124.872C213.163 124.872 213.755 125.48 213.755 126.2C213.755 126.92 213.163 127.528 212.443 127.528ZM211.419 137V128.936H213.451V137H211.419ZM216.4 134.056V130.76H214.896V128.936H216.4V126.92H218.448V128.936H220.912V130.76H218.448V134.056C218.448 134.952 218.928 135.304 219.728 135.304C220.288 135.304 220.656 135.24 220.928 135.128V136.904C220.528 137.08 220.048 137.16 219.376 137.16C217.36 137.16 216.4 136.024 216.4 134.056ZM223.756 127.528C223.036 127.528 222.428 126.92 222.428 126.2C222.428 125.48 223.036 124.872 223.756 124.872C224.476 124.872 225.068 125.48 225.068 126.2C225.068 126.92 224.476 127.528 223.756 127.528ZM222.732 137V128.936H224.764V137H222.732ZM231.04 128.616C233.664 128.616 235.456 130.552 235.456 132.968C235.456 135.384 233.664 137.32 231.04 137.32C228.416 137.32 226.624 135.384 226.624 132.968C226.624 130.552 228.416 128.616 231.04 128.616ZM231.072 135.4C232.368 135.4 233.344 134.36 233.344 132.968C233.344 131.56 232.368 130.536 231.072 130.536C229.728 130.536 228.736 131.56 228.736 132.968C228.736 134.376 229.728 135.4 231.072 135.4ZM237.31 137V128.936H239.342V129.576C239.902 129.032 240.654 128.616 241.726 128.616C243.47 128.616 244.862 129.816 244.862 132.2V137H242.814V132.28C242.814 131.208 242.206 130.536 241.214 130.536C240.19 130.536 239.646 131.224 239.342 131.736V137H237.31ZM250.49 128.936H251.994V128.088C251.994 126.376 253.13 125 255.146 125C255.882 125 256.506 125.176 257.018 125.448L256.154 127.144C255.914 126.968 255.594 126.824 255.178 126.824C254.49 126.824 254.042 127.304 254.042 128.04V128.936H256.506V130.76H254.042V137H251.994V130.76H250.49V128.936ZM257.794 137V128.936H259.826V129.736C260.354 129.192 261.042 128.776 261.954 128.776C262.226 128.776 262.466 128.824 262.658 128.888V130.888C262.402 130.824 262.13 130.776 261.762 130.776C260.77 130.776 260.13 131.32 259.826 131.832V137H257.794ZM266.176 137.24C264.56 137.24 263.456 136.312 263.456 134.824C263.456 133.608 264.4 132.696 266.128 132.408L268.592 131.992V131.784C268.592 130.936 267.952 130.392 267.024 130.392C266.24 130.392 265.632 130.76 265.2 131.352L263.712 130.216C264.432 129.224 265.616 128.616 267.088 128.616C269.424 128.616 270.624 130.008 270.624 131.784V137H268.592V136.216C268.08 136.84 267.12 137.24 266.176 137.24ZM265.472 134.728C265.472 135.272 265.904 135.624 266.592 135.624C267.52 135.624 268.192 135.192 268.592 134.552V133.416L266.672 133.736C265.824 133.88 265.472 134.232 265.472 134.728ZM272.95 137V128.936H274.982V129.576C275.542 129.032 276.294 128.616 277.366 128.616C279.11 128.616 280.502 129.816 280.502 132.2V137H278.454V132.28C278.454 131.208 277.846 130.536 276.854 130.536C275.83 130.536 275.286 131.224 274.982 131.736V137H272.95ZM286.682 135.4C287.482 135.4 288.122 135.032 288.506 134.472L290.09 135.688C289.498 136.456 288.65 137.016 287.61 137.224L286.202 139.56H284.186L285.594 137.208C283.466 136.76 282.234 135 282.234 132.968C282.234 130.616 283.898 128.616 286.682 128.616C288.154 128.616 289.338 129.256 290.09 130.248L288.506 131.464C288.122 130.904 287.482 130.536 286.65 130.536C285.322 130.536 284.346 131.56 284.346 132.968C284.346 134.392 285.322 135.4 286.682 135.4ZM293.738 137.24C292.122 137.24 291.018 136.312 291.018 134.824C291.018 133.608 291.962 132.696 293.69 132.408L296.154 131.992V131.784C296.154 130.936 295.514 130.392 294.586 130.392C293.802 130.392 293.194 130.76 292.762 131.352L291.274 130.216C291.994 129.224 293.178 128.616 294.65 128.616C296.986 128.616 298.186 130.008 298.186 131.784V137H296.154V136.216C295.642 136.84 294.682 137.24 293.738 137.24ZM293.034 134.728C293.034 135.272 293.466 135.624 294.154 135.624C295.082 135.624 295.754 135.192 296.154 134.552V133.416L294.234 133.736C293.386 133.88 293.034 134.232 293.034 134.728ZM301.537 127.528C300.817 127.528 300.209 126.92 300.209 126.2C300.209 125.48 300.817 124.872 301.537 124.872C302.257 124.872 302.849 125.48 302.849 126.2C302.849 126.92 302.257 127.528 301.537 127.528ZM300.513 137V128.936H302.545V137H300.513ZM304.168 135.832L305.512 134.616C306.008 135.24 306.6 135.688 307.368 135.688C308.024 135.688 308.36 135.304 308.36 134.824C308.36 133.416 304.504 133.944 304.504 131.112C304.504 129.688 305.704 128.616 307.384 128.616C308.616 128.616 309.736 129.208 310.312 129.992L308.968 131.176C308.552 130.664 308.024 130.248 307.4 130.248C306.76 130.248 306.456 130.6 306.456 131.016C306.456 132.392 310.312 131.912 310.312 134.696C310.28 136.392 308.92 137.32 307.4 137.32C305.96 137.32 304.936 136.744 304.168 135.832ZM319.578 135.688C318.826 136.696 317.578 137.32 316.058 137.32C313.194 137.32 311.578 135.32 311.578 132.968C311.578 130.584 313.082 128.616 315.722 128.616C317.962 128.616 319.434 130.136 319.434 132.248C319.434 132.696 319.37 133.112 319.306 133.384H313.658C313.85 134.888 314.778 135.496 316.042 135.496C316.922 135.496 317.69 135.112 318.122 134.536L319.578 135.688ZM315.674 130.28C314.634 130.28 313.946 130.856 313.722 131.912H317.434C317.402 131.096 316.81 130.28 315.674 130.28Z"
                  fill="#2F4077"/>
            <path d="M146.004 176.36C148.632 176.36 150.432 178.4 150.432 180.8C150.432 183.2 148.632 185.24 146.004 185.24C143.364 185.24 141.576 183.2 141.576 180.8C141.576 178.4 143.364 176.36 146.004 176.36ZM146.004 183.944C147.756 183.944 149.004 182.552 149.004 180.8C149.004 179.036 147.756 177.656 146.004 177.656C144.252 177.656 142.992 179.048 142.992 180.8C142.992 182.564 144.252 183.944 146.004 183.944ZM156.199 183.944C157.255 183.944 158.107 183.428 158.635 182.672L159.739 183.524C158.959 184.556 157.723 185.24 156.199 185.24C153.559 185.24 151.771 183.2 151.771 180.8C151.771 178.4 153.559 176.36 156.199 176.36C157.723 176.36 158.959 177.044 159.739 178.076L158.635 178.928C158.107 178.172 157.255 177.656 156.199 177.656C154.447 177.656 153.187 179.048 153.187 180.8C153.187 182.564 154.447 183.944 156.199 183.944ZM160.509 177.86V176.6H167.289V177.86H164.589V185H163.209V177.86H160.509ZM172.289 176.36C174.917 176.36 176.717 178.4 176.717 180.8C176.717 183.2 174.917 185.24 172.289 185.24C169.649 185.24 167.861 183.2 167.861 180.8C167.861 178.4 169.649 176.36 172.289 176.36ZM172.289 183.944C174.041 183.944 175.289 182.552 175.289 180.8C175.289 179.036 174.041 177.656 172.289 177.656C170.537 177.656 169.277 179.048 169.277 180.8C169.277 182.564 170.537 183.944 172.289 183.944ZM178.589 185V176.6H180.833C182.501 176.6 183.521 177.452 183.521 178.832C183.521 179.552 183.185 180.152 182.561 180.524C183.497 180.896 184.013 181.64 184.013 182.564C184.013 184.064 182.873 185 181.025 185H178.589ZM180.857 177.764H179.957V180.02H180.857C181.637 180.02 182.093 179.6 182.093 178.868C182.093 178.172 181.637 177.764 180.857 177.764ZM181.097 181.172H179.957V183.836H181.097C182.033 183.836 182.585 183.344 182.585 182.504C182.585 181.652 182.033 181.172 181.097 181.172ZM185.984 185V176.6H188.36C190.124 176.6 191.204 177.536 191.204 179.024C191.204 180.044 190.7 180.8 189.824 181.172L192.488 185H190.855L188.516 181.448C188.456 181.448 188.408 181.448 188.36 181.448H187.352V185H185.984ZM188.432 177.764H187.352V180.284H188.432C189.284 180.284 189.776 179.804 189.776 179C189.776 178.244 189.284 177.764 188.432 177.764ZM193.823 185V176.6H198.503V177.764H195.191V180.14H198.023V181.304H195.191V183.836H198.503V185H193.823ZM203.397 185V183.812L206.253 180.92C207.093 180.056 207.525 179.588 207.525 178.796C207.525 177.992 206.949 177.536 206.181 177.536C205.329 177.536 204.789 178.004 204.321 178.784L203.241 178.124C203.937 177.032 204.921 176.36 206.301 176.36C207.729 176.36 208.869 177.284 208.869 178.688C208.869 179.828 208.125 180.692 207.189 181.64L204.993 183.812H209.097V185H203.397ZM213.424 176.36C215.572 176.36 216.604 178.292 216.604 180.8C216.604 183.308 215.572 185.24 213.424 185.24C211.276 185.24 210.232 183.308 210.232 180.8C210.232 178.292 211.276 176.36 213.424 176.36ZM213.424 177.584C212.2 177.584 211.588 178.928 211.588 180.8C211.588 182.684 212.2 184.016 213.424 184.016C214.636 184.016 215.248 182.672 215.248 180.8C215.248 178.916 214.636 177.584 213.424 177.584ZM217.741 185V183.812L220.597 180.92C221.437 180.056 221.869 179.588 221.869 178.796C221.869 177.992 221.293 177.536 220.525 177.536C219.673 177.536 219.133 178.004 218.665 178.784L217.585 178.124C218.281 177.032 219.265 176.36 220.645 176.36C222.073 176.36 223.213 177.284 223.213 178.688C223.213 179.828 222.469 180.692 221.533 181.64L219.337 183.812H223.441V185H217.741ZM224.026 182.66V181.472L227.83 176.6H229.39V181.472H230.314V182.66H229.39V185H228.082V182.66H224.026ZM225.406 181.472H228.082V178.052L225.406 181.472ZM235.296 185V176.6H237.036L239.364 180.536L241.716 176.6H243.456V185H242.076V178.496L239.88 182.12H238.872L236.664 178.472V185H235.296ZM244.987 185L248.263 176.6H250.087L253.363 185H251.887L250.999 182.648H247.339L246.451 185H244.987ZM247.795 181.472H250.543L249.175 177.848L247.795 181.472ZM255.714 185H254.07L257.142 180.644L254.31 176.6H255.942L258.114 179.66L260.298 176.6H261.942L259.086 180.644L262.17 185H260.526L258.114 181.616L255.714 185ZM264.343 185.144C263.839 185.144 263.443 184.748 263.443 184.256C263.443 183.776 263.839 183.368 264.343 183.368C264.835 183.368 265.231 183.776 265.231 184.256C265.231 184.748 264.835 185.144 264.343 185.144Z"
                  fill="#667DCF"/>
            <path d="M142.648 209V197.8H147.048C150.6 197.8 153 200.376 153 203.4C153 206.424 150.6 209 147.048 209H142.648ZM147.08 199.864H144.92V206.936H147.08C149.16 206.936 150.664 205.384 150.664 203.4C150.664 201.4 149.16 199.864 147.08 199.864ZM159.654 199.656H157.702L159.366 197H161.574L159.654 199.656ZM162.39 207.688C161.638 208.696 160.39 209.32 158.87 209.32C156.006 209.32 154.39 207.32 154.39 204.968C154.39 202.584 155.894 200.616 158.534 200.616C160.774 200.616 162.246 202.136 162.246 204.248C162.246 204.696 162.182 205.112 162.118 205.384H156.47C156.662 206.888 157.59 207.496 158.854 207.496C159.734 207.496 160.502 207.112 160.934 206.536L162.39 207.688ZM158.486 202.28C157.446 202.28 156.758 202.856 156.534 203.912H160.246C160.214 203.096 159.622 202.28 158.486 202.28ZM172.872 204.968C172.872 207.32 171.336 209.32 168.776 209.32C167.672 209.32 166.888 208.968 166.264 208.344V209H164.232V197H166.264V201.592C166.888 200.968 167.672 200.616 168.776 200.616C171.336 200.616 172.872 202.616 172.872 204.968ZM168.488 202.536C167.544 202.536 166.76 202.952 166.264 203.688V206.248C166.808 207 167.576 207.4 168.488 207.4C169.864 207.4 170.76 206.376 170.76 204.968C170.76 203.56 169.864 202.536 168.488 202.536ZM180.044 205.512V200.936H182.092V205.416C182.092 207.832 180.684 209.32 178.316 209.32C175.948 209.32 174.556 207.832 174.556 205.416V200.936H176.604V205.512C176.604 206.68 177.212 207.4 178.332 207.4C179.436 207.4 180.044 206.68 180.044 205.512ZM184.978 206.056V202.76H183.474V200.936H184.978V198.92H187.026V200.936H189.49V202.76H187.026V206.056C187.026 206.952 187.506 207.304 188.306 207.304C188.866 207.304 189.234 207.24 189.506 207.128V208.904C189.106 209.08 188.626 209.16 187.954 209.16C185.938 209.16 184.978 208.024 184.978 206.056ZM195.046 204.968C195.046 202.616 196.598 200.616 199.142 200.616C200.23 200.616 201.014 200.952 201.638 201.576V197H203.686V209H201.638V208.36C201.014 208.984 200.23 209.32 199.142 209.32C196.598 209.32 195.046 207.32 195.046 204.968ZM197.174 204.968C197.174 206.376 198.054 207.4 199.43 207.4C200.342 207.4 201.094 207.016 201.638 206.28V203.656C201.094 202.92 200.342 202.536 199.43 202.536C198.054 202.536 197.174 203.56 197.174 204.968ZM213.546 207.688C212.794 208.696 211.546 209.32 210.026 209.32C207.162 209.32 205.546 207.32 205.546 204.968C205.546 202.584 207.05 200.616 209.69 200.616C211.93 200.616 213.402 202.136 213.402 204.248C213.402 204.696 213.338 205.112 213.274 205.384H207.626C207.818 206.888 208.746 207.496 210.01 207.496C210.89 207.496 211.658 207.112 212.09 206.536L213.546 207.688ZM209.642 202.28C208.602 202.28 207.914 202.856 207.69 203.912H211.402C211.37 203.096 210.778 202.28 209.642 202.28ZM219.7 209V200.936H221.732V201.544C222.276 201.016 222.964 200.616 223.956 200.616C224.98 200.616 225.876 201.064 226.404 201.928C226.98 201.224 227.748 200.616 229.108 200.616C230.772 200.616 232.084 201.768 232.084 204.04V209H230.036V204.12C230.036 203.144 229.508 202.536 228.596 202.536C227.716 202.536 227.236 203.144 226.916 203.688C226.932 203.8 226.932 203.912 226.932 204.04V209H224.884V204.12C224.884 203.144 224.356 202.536 223.444 202.536C222.516 202.536 222.036 203.224 221.732 203.736V209H219.7ZM235.428 199.528C234.708 199.528 234.1 198.92 234.1 198.2C234.1 197.48 234.708 196.872 235.428 196.872C236.148 196.872 236.74 197.48 236.74 198.2C236.74 198.92 236.148 199.528 235.428 199.528ZM234.404 209V200.936H236.436V209H234.404ZM238.059 207.832L239.403 206.616C239.899 207.24 240.491 207.688 241.259 207.688C241.915 207.688 242.251 207.304 242.251 206.824C242.251 205.416 238.395 205.944 238.395 203.112C238.395 201.688 239.595 200.616 241.275 200.616C242.507 200.616 243.627 201.208 244.203 201.992L242.859 203.176C242.443 202.664 241.915 202.248 241.291 202.248C240.651 202.248 240.347 202.6 240.347 203.016C240.347 204.392 244.203 203.912 244.203 206.696C244.171 208.392 242.811 209.32 241.291 209.32C239.851 209.32 238.827 208.744 238.059 207.832ZM253.468 207.688C252.716 208.696 251.468 209.32 249.948 209.32C247.084 209.32 245.468 207.32 245.468 204.968C245.468 202.584 246.972 200.616 249.612 200.616C251.852 200.616 253.324 202.136 253.324 204.248C253.324 204.696 253.26 205.112 253.196 205.384H247.548C247.74 206.888 248.668 207.496 249.932 207.496C250.812 207.496 251.58 207.112 252.012 206.536L253.468 207.688ZM249.564 202.28C248.524 202.28 247.836 202.856 247.612 203.912H251.324C251.292 203.096 250.7 202.28 249.564 202.28ZM267.046 207.688C266.294 208.696 265.046 209.32 263.526 209.32C260.662 209.32 259.046 207.32 259.046 204.968C259.046 202.584 260.55 200.616 263.19 200.616C265.43 200.616 266.902 202.136 266.902 204.248C266.902 204.696 266.838 205.112 266.774 205.384H261.126C261.318 206.888 262.246 207.496 263.51 207.496C264.39 207.496 265.158 207.112 265.59 206.536L267.046 207.688ZM263.142 202.28C262.102 202.28 261.414 202.856 261.19 203.912H264.902C264.87 203.096 264.278 202.28 263.142 202.28ZM268.888 209V200.936H270.92V201.576C271.48 201.032 272.232 200.616 273.304 200.616C275.048 200.616 276.44 201.816 276.44 204.2V209H274.392V204.28C274.392 203.208 273.784 202.536 272.792 202.536C271.768 202.536 271.224 203.224 270.92 203.736V209H268.888ZM286.932 207.4C287.732 207.4 288.372 207.032 288.756 206.472L290.34 207.688C289.588 208.68 288.404 209.32 286.932 209.32C284.148 209.32 282.484 207.32 282.484 204.968C282.484 202.616 284.148 200.616 286.932 200.616C288.404 200.616 289.588 201.256 290.34 202.248L288.756 203.464C288.372 202.904 287.732 202.536 286.9 202.536C285.572 202.536 284.596 203.56 284.596 204.968C284.596 206.392 285.572 207.4 286.932 207.4ZM295.384 200.616C298.008 200.616 299.8 202.552 299.8 204.968C299.8 207.384 298.008 209.32 295.384 209.32C292.76 209.32 290.968 207.384 290.968 204.968C290.968 202.552 292.76 200.616 295.384 200.616ZM295.416 207.4C296.712 207.4 297.688 206.36 297.688 204.968C297.688 203.56 296.712 202.536 295.416 202.536C294.072 202.536 293.08 203.56 293.08 204.968C293.08 206.376 294.072 207.4 295.416 207.4ZM301.654 209V200.936H303.686V201.576C304.246 201.032 304.998 200.616 306.07 200.616C307.814 200.616 309.206 201.816 309.206 204.2V209H307.158V204.28C307.158 203.208 306.55 202.536 305.558 202.536C304.534 202.536 303.99 203.224 303.686 203.736V209H301.654ZM310.521 200.936H312.025V200.088C312.025 198.376 313.161 197 315.177 197C315.913 197 316.537 197.176 317.049 197.448L316.185 199.144C315.945 198.968 315.625 198.824 315.209 198.824C314.521 198.824 314.073 199.304 314.073 200.04V200.936H316.537V202.76H314.073V209H312.025V202.76H310.521V200.936ZM321.462 200.616C324.086 200.616 325.878 202.552 325.878 204.968C325.878 207.384 324.086 209.32 321.462 209.32C318.838 209.32 317.046 207.384 317.046 204.968C317.046 202.552 318.838 200.616 321.462 200.616ZM321.494 207.4C322.79 207.4 323.766 206.36 323.766 204.968C323.766 203.56 322.79 202.536 321.494 202.536C320.15 202.536 319.158 203.56 319.158 204.968C319.158 206.376 320.15 207.4 321.494 207.4ZM327.732 209V200.936H329.764V201.736C330.292 201.192 330.98 200.776 331.892 200.776C332.164 200.776 332.404 200.824 332.596 200.888V202.888C332.34 202.824 332.068 202.776 331.7 202.776C330.708 202.776 330.068 203.32 329.764 203.832V209H327.732ZM334.232 209V200.936H336.264V201.544C336.808 201.016 337.496 200.616 338.488 200.616C339.512 200.616 340.408 201.064 340.936 201.928C341.512 201.224 342.28 200.616 343.64 200.616C345.304 200.616 346.616 201.768 346.616 204.04V209H344.568V204.12C344.568 203.144 344.04 202.536 343.128 202.536C342.248 202.536 341.768 203.144 341.448 203.688C341.464 203.8 341.464 203.912 341.464 204.04V209H339.416V204.12C339.416 203.144 338.888 202.536 337.976 202.536C337.048 202.536 336.568 203.224 336.264 203.736V209H334.232ZM349.959 199.528C349.239 199.528 348.631 198.92 348.631 198.2C348.631 197.48 349.239 196.872 349.959 196.872C350.679 196.872 351.271 197.48 351.271 198.2C351.271 198.92 350.679 199.528 349.959 199.528ZM348.935 209V200.936H350.967V209H348.935ZM353.916 206.056V202.76H352.412V200.936H353.916V198.92H355.964V200.936H358.428V202.76H355.964V206.056C355.964 206.952 356.444 207.304 357.244 207.304C357.804 207.304 358.172 207.24 358.444 207.128V208.904C358.044 209.08 357.564 209.16 356.891 209.16C354.876 209.16 353.916 208.024 353.916 206.056ZM364.779 199.656H362.827L364.491 197H366.699L364.779 199.656ZM367.515 207.688C366.763 208.696 365.515 209.32 363.995 209.32C361.131 209.32 359.515 207.32 359.515 204.968C359.515 202.584 361.019 200.616 363.659 200.616C365.899 200.616 367.371 202.136 367.371 204.248C367.371 204.696 367.307 205.112 367.243 205.384H361.595C361.787 206.888 362.715 207.496 363.979 207.496C364.859 207.496 365.627 207.112 366.059 206.536L367.515 207.688ZM363.611 202.28C362.571 202.28 361.883 202.856 361.659 203.912H365.371C365.339 203.096 364.747 202.28 363.611 202.28Z"
                  fill="#2F4077"/>
            <path d="M144.852 247.88L143.304 246.26H144.768L146.124 247.88H144.852ZM141.264 257L144.54 248.6H146.364L149.64 257H148.164L147.276 254.648H143.616L142.728 257H141.264ZM144.072 253.472H146.82L145.452 249.848L144.072 253.472ZM154.437 257V248.6H157.701C160.341 248.6 162.129 250.532 162.129 252.8C162.129 255.068 160.341 257 157.701 257H154.437ZM157.713 249.86H155.805V255.74H157.713C159.453 255.74 160.701 254.432 160.701 252.8C160.701 251.156 159.453 249.86 157.713 249.86ZM166.975 247.88H165.703L167.059 246.26H168.523L166.975 247.88ZM163.999 257V248.6H168.679V249.764H165.367V252.14H168.199V253.304H165.367V255.836H168.679V257H163.999ZM170.866 257V248.6H175.546V249.764H172.234V252.14H175.066V253.304H172.234V257H170.866ZM177.253 257V248.6H178.621V257H177.253ZM181.214 257V248.6H182.99L187.31 255.236V248.6H188.69V257H186.902L182.582 250.364V257H181.214ZM191.269 257V248.6H192.637V257H191.269ZM195.23 257V248.6H197.606C199.37 248.6 200.45 249.536 200.45 251.024C200.45 252.044 199.946 252.8 199.07 253.172L201.734 257H200.102L197.762 253.448C197.702 253.448 197.654 253.448 197.606 253.448H196.598V257H195.23ZM197.678 249.764H196.598V252.284H197.678C198.53 252.284 199.022 251.804 199.022 251C199.022 250.244 198.53 249.764 197.678 249.764Z"
                  fill="#667DCF"/>
            <path d="M142.648 281V269.8H149.176V271.688H144.92V274.344H148.536V276.232H144.92V281H142.648ZM151.928 271.528C151.208 271.528 150.6 270.92 150.6 270.2C150.6 269.48 151.208 268.872 151.928 268.872C152.648 268.872 153.24 269.48 153.24 270.2C153.24 270.92 152.648 271.528 151.928 271.528ZM150.904 281V272.936H152.936V281H150.904ZM155.372 281V272.936H157.404V273.576C157.964 273.032 158.716 272.616 159.788 272.616C161.532 272.616 162.924 273.816 162.924 276.2V281H160.876V276.28C160.876 275.208 160.268 274.536 159.276 274.536C158.252 274.536 157.708 275.224 157.404 275.736V281H155.372ZM168.968 276.968C168.968 274.616 170.52 272.616 173.064 272.616C174.152 272.616 174.936 272.952 175.56 273.576V269H177.608V281H175.56V280.36C174.936 280.984 174.152 281.32 173.064 281.32C170.52 281.32 168.968 279.32 168.968 276.968ZM171.096 276.968C171.096 278.376 171.976 279.4 173.352 279.4C174.264 279.4 175.016 279.016 175.56 278.28V275.656C175.016 274.92 174.264 274.536 173.352 274.536C171.976 274.536 171.096 275.56 171.096 276.968ZM187.468 279.688C186.716 280.696 185.468 281.32 183.948 281.32C181.084 281.32 179.468 279.32 179.468 276.968C179.468 274.584 180.972 272.616 183.612 272.616C185.852 272.616 187.324 274.136 187.324 276.248C187.324 276.696 187.26 277.112 187.196 277.384H181.548C181.74 278.888 182.668 279.496 183.932 279.496C184.812 279.496 185.58 279.112 186.012 278.536L187.468 279.688ZM183.564 274.28C182.524 274.28 181.836 274.856 181.612 275.912H185.324C185.292 275.096 184.7 274.28 183.564 274.28ZM193.622 281V272.936H195.654V273.544C196.198 273.016 196.886 272.616 197.878 272.616C198.902 272.616 199.798 273.064 200.326 273.928C200.902 273.224 201.67 272.616 203.03 272.616C204.694 272.616 206.006 273.768 206.006 276.04V281H203.958V276.12C203.958 275.144 203.43 274.536 202.518 274.536C201.638 274.536 201.158 275.144 200.838 275.688C200.854 275.8 200.854 275.912 200.854 276.04V281H198.806V276.12C198.806 275.144 198.278 274.536 197.366 274.536C196.438 274.536 195.958 275.224 195.654 275.736V281H193.622ZM209.349 271.528C208.629 271.528 208.021 270.92 208.021 270.2C208.021 269.48 208.629 268.872 209.349 268.872C210.069 268.872 210.661 269.48 210.661 270.2C210.661 270.92 210.069 271.528 209.349 271.528ZM208.325 281V272.936H210.357V281H208.325ZM211.981 279.832L213.325 278.616C213.821 279.24 214.413 279.688 215.181 279.688C215.837 279.688 216.173 279.304 216.173 278.824C216.173 277.416 212.317 277.944 212.317 275.112C212.317 273.688 213.517 272.616 215.197 272.616C216.429 272.616 217.549 273.208 218.125 273.992L216.781 275.176C216.365 274.664 215.837 274.248 215.213 274.248C214.573 274.248 214.269 274.6 214.269 275.016C214.269 276.392 218.125 275.912 218.125 278.696C218.093 280.392 216.733 281.32 215.213 281.32C213.773 281.32 212.749 280.744 211.981 279.832ZM227.39 279.688C226.638 280.696 225.39 281.32 223.87 281.32C221.006 281.32 219.39 279.32 219.39 276.968C219.39 274.584 220.894 272.616 223.534 272.616C225.774 272.616 227.246 274.136 227.246 276.248C227.246 276.696 227.182 277.112 227.118 277.384H221.47C221.662 278.888 222.59 279.496 223.854 279.496C224.734 279.496 225.502 279.112 225.934 278.536L227.39 279.688ZM223.486 274.28C222.446 274.28 221.758 274.856 221.534 275.912H225.246C225.214 275.096 224.622 274.28 223.486 274.28ZM240.968 279.688C240.216 280.696 238.968 281.32 237.448 281.32C234.584 281.32 232.968 279.32 232.968 276.968C232.968 274.584 234.472 272.616 237.112 272.616C239.352 272.616 240.824 274.136 240.824 276.248C240.824 276.696 240.76 277.112 240.696 277.384H235.048C235.24 278.888 236.168 279.496 237.432 279.496C238.312 279.496 239.08 279.112 239.512 278.536L240.968 279.688ZM237.064 274.28C236.024 274.28 235.336 274.856 235.112 275.912H238.824C238.792 275.096 238.2 274.28 237.064 274.28ZM242.81 281V272.936H244.842V273.576C245.402 273.032 246.154 272.616 247.226 272.616C248.97 272.616 250.362 273.816 250.362 276.2V281H248.314V276.28C248.314 275.208 247.706 274.536 246.714 274.536C245.69 274.536 245.146 275.224 244.842 275.736V281H242.81ZM260.854 279.4C261.654 279.4 262.294 279.032 262.678 278.472L264.262 279.688C263.51 280.68 262.326 281.32 260.854 281.32C258.07 281.32 256.406 279.32 256.406 276.968C256.406 274.616 258.07 272.616 260.854 272.616C262.326 272.616 263.51 273.256 264.262 274.248L262.678 275.464C262.294 274.904 261.654 274.536 260.822 274.536C259.494 274.536 258.518 275.56 258.518 276.968C258.518 278.392 259.494 279.4 260.854 279.4ZM269.306 272.616C271.93 272.616 273.722 274.552 273.722 276.968C273.722 279.384 271.93 281.32 269.306 281.32C266.682 281.32 264.89 279.384 264.89 276.968C264.89 274.552 266.682 272.616 269.306 272.616ZM269.338 279.4C270.634 279.4 271.61 278.36 271.61 276.968C271.61 275.56 270.634 274.536 269.338 274.536C267.994 274.536 267.002 275.56 267.002 276.968C267.002 278.376 267.994 279.4 269.338 279.4ZM275.575 281V272.936H277.607V273.576C278.167 273.032 278.919 272.616 279.991 272.616C281.735 272.616 283.127 273.816 283.127 276.2V281H281.079V276.28C281.079 275.208 280.471 274.536 279.479 274.536C278.455 274.536 277.911 275.224 277.607 275.736V281H275.575ZM284.443 272.936H285.947V272.088C285.947 270.376 287.083 269 289.099 269C289.835 269 290.459 269.176 290.971 269.448L290.107 271.144C289.867 270.968 289.547 270.824 289.131 270.824C288.443 270.824 287.995 271.304 287.995 272.04V272.936H290.459V274.76H287.995V281H285.947V274.76H284.443V272.936ZM295.384 272.616C298.008 272.616 299.8 274.552 299.8 276.968C299.8 279.384 298.008 281.32 295.384 281.32C292.76 281.32 290.968 279.384 290.968 276.968C290.968 274.552 292.76 272.616 295.384 272.616ZM295.416 279.4C296.712 279.4 297.688 278.36 297.688 276.968C297.688 275.56 296.712 274.536 295.416 274.536C294.072 274.536 293.08 275.56 293.08 276.968C293.08 278.376 294.072 279.4 295.416 279.4ZM301.654 281V272.936H303.686V273.736C304.214 273.192 304.902 272.776 305.814 272.776C306.086 272.776 306.326 272.824 306.518 272.888V274.888C306.262 274.824 305.99 274.776 305.622 274.776C304.63 274.776 303.99 275.32 303.686 275.832V281H301.654ZM308.154 281V272.936H310.186V273.544C310.73 273.016 311.418 272.616 312.41 272.616C313.434 272.616 314.33 273.064 314.858 273.928C315.434 273.224 316.202 272.616 317.562 272.616C319.226 272.616 320.538 273.768 320.538 276.04V281H318.49V276.12C318.49 275.144 317.962 274.536 317.05 274.536C316.17 274.536 315.69 275.144 315.37 275.688C315.385 275.8 315.385 275.912 315.385 276.04V281H313.338V276.12C313.338 275.144 312.81 274.536 311.898 274.536C310.97 274.536 310.49 275.224 310.186 275.736V281H308.154ZM323.881 271.528C323.161 271.528 322.553 270.92 322.553 270.2C322.553 269.48 323.161 268.872 323.881 268.872C324.601 268.872 325.193 269.48 325.193 270.2C325.193 270.92 324.601 271.528 323.881 271.528ZM322.857 281V272.936H324.889V281H322.857ZM327.837 278.056V274.76H326.333V272.936H327.837V270.92H329.885V272.936H332.349V274.76H329.885V278.056C329.885 278.952 330.365 279.304 331.165 279.304C331.725 279.304 332.093 279.24 332.365 279.128V280.904C331.965 281.08 331.485 281.16 330.813 281.16C328.797 281.16 327.837 280.024 327.837 278.056ZM338.701 271.656H336.749L338.413 269H340.621L338.701 271.656ZM341.437 279.688C340.685 280.696 339.437 281.32 337.917 281.32C335.053 281.32 333.437 279.32 333.437 276.968C333.437 274.584 334.941 272.616 337.581 272.616C339.821 272.616 341.293 274.136 341.293 276.248C341.293 276.696 341.229 277.112 341.165 277.384H335.517C335.709 278.888 336.637 279.496 337.901 279.496C338.781 279.496 339.549 279.112 339.981 278.536L341.437 279.688ZM337.533 274.28C336.493 274.28 335.805 274.856 335.581 275.912H339.293C339.261 275.096 338.669 274.28 337.533 274.28Z"
                  fill="#2F4077"/>
            <line x1="107" y1="130" x2="107" y2="184" stroke="#2F4077" stroke-width="6"/>
            <line x1="107" y1="202" x2="107" y2="256" stroke="#ADBFFC" stroke-width="6" stroke-dasharray="4 4"/>
            <circle cx="107" cy="121" r="10" fill="#2F4077"/>
            <circle cx="107" cy="193" r="7" stroke="#ADBFFC" stroke-width="6" stroke-linecap="round"/>
            <circle cx="107" cy="265" r="7" stroke="#ADBFFC" stroke-width="6" stroke-linecap="round"/>
        </g>
    </g>
    <defs>
        <filter id="filter0_d_1591_33299" x="25" y="-27" width="436" height="394" filterUnits="userSpaceOnUse"
                color-interpolation-filters="sRGB">
            <feFlood flood-opacity="0" result="BackgroundImageFix"/>
            <feColorMatrix in="SourceAlpha" type="matrix" values="0 0 0 0 0 0 0 0 0 0 0 0 0 0 0 0 0 0 127 0"
                           result="hardAlpha"/>
            <feOffset dy="4"/>
            <feGaussianBlur stdDeviation="20"/>
            <feComposite in2="hardAlpha" operator="out"/>
            <feColorMatrix type="matrix" values="0 0 0 0 0 0 0 0 0 0 0 0 0 0 0 0 0 0 0.1 0"/>
            <feBlend mode="normal" in2="BackgroundImageFix" result="effect1_dropShadow_1591_33299"/>
            <feBlend mode="normal" in="SourceGraphic" in2="effect1_dropShadow_1591_33299" result="shape"/>
        </filter>
        <filter id="filter1_d_1591_33299" x="347" y="253" width="94" height="94" filterUnits="userSpaceOnUse"
                color-interpolation-filters="sRGB">
            <feFlood flood-opacity="0" result="BackgroundImageFix"/>
            <feColorMatrix in="SourceAlpha" type="matrix" values="0 0 0 0 0 0 0 0 0 0 0 0 0 0 0 0 0 0 127 0"
                           result="hardAlpha"/>
            <feOffset dy="4"/>
            <feGaussianBlur stdDeviation="10"/>
            <feComposite in2="hardAlpha" operator="out"/>
            <feColorMatrix type="matrix" values="0 0 0 0 0 0 0 0 0 0 0 0 0 0 0 0 0 0 0.25 0"/>
            <feBlend mode="normal" in2="BackgroundImageFix" result="effect1_dropShadow_1591_33299"/>
            <feBlend mode="normal" in="SourceGraphic" in2="effect1_dropShadow_1591_33299" result="shape"/>
        </filter>
        <clipPath id="clip0_1591_33299">
            <rect width="486" height="355" fill="white"/>
        </clipPath>
    </defs>
</svg>
