<svg width="1300" height="572" viewBox="0 0 1300 572" fill="none" xmlns="http://www.w3.org/2000/svg">
<g clip-path="url(#clip0_884_18029)">
<path d="M67.8109 722.209L65.8401 718.857C50.0753 692.01 37.3124 666.276 27.8658 642.335C18.6308 618.886 12.3315 596.516 9.14634 575.785C6.03853 555.479 5.7985 536.188 8.50519 518.473C11.1566 501.155 16.6442 484.921 24.8117 470.135C36.5781 448.945 54.2538 430.208 77.3602 414.47C99.0059 399.728 126.029 387.192 157.675 377.243C187.324 367.908 221.881 360.593 260.394 355.454C296.404 350.645 336.853 347.636 380.656 346.488C430.531 345.181 486.381 346.263 546.554 349.677C600.509 352.757 659.668 357.816 722.442 364.697C764.513 369.309 796.606 371.377 817.832 370.821C839.056 370.265 844.329 367.319 845.658 366.325C845.166 365.215 843.2 362.029 835.52 356.315C828.58 351.145 818.744 345.156 805.445 338.005C780.451 324.55 747.551 309.354 715.719 294.658C677.069 276.803 640.59 259.949 618.971 246.703C608.23 240.146 599.473 231.156 593.618 220.77C587.59 210.056 584.972 198.362 586.063 187C587.153 175.638 592.021 164.771 600.17 155.604C608.961 145.693 621.435 137.667 637.201 131.768C657.843 124.058 693.606 119.916 753.087 118.358C778.438 117.695 805.915 117.535 832.469 117.369C858.691 117.211 885.772 117.063 910.463 116.417C976.876 114.677 1000.2 109.705 1011.96 106.092C1024.54 102.226 1033.08 90.208 1032.73 76.8343C1032.4 64.32 1037.1 53.3585 1046.71 44.22C1054.83 36.5064 1066.62 30.0849 1081.78 25.0947C1106.05 17.0904 1139.55 12.5125 1181.41 11.4162C1243.66 9.78433 1303.66 16.6054 1304.26 16.6892L1310.09 17.3621L1310.11 23.2101C1310.22 47.5263 1310.74 83.6286 1311.51 87.8701C1311.12 85.8986 1308.84 82.9841 1305.11 83.082L1306.44 96.1966C1303.22 96.8111 1297.28 97.1981 1287.78 97.4462C1275.2 97.7763 1257.66 97.8063 1239.07 97.8632C1217.47 97.9011 1192.99 97.9801 1172.56 98.5156C1155.2 98.9706 1142.86 99.6893 1134.86 100.759C1128.18 101.628 1122.19 105.022 1117.97 110.321C1113.75 115.619 1111.55 122.416 1111.83 129.448C1112.54 149.055 1108.51 162.841 1099.13 172.801C1085.54 187.266 1060.77 193.961 1016.31 195.125C1014.4 195.175 1012.38 195.227 1010.4 195.246C1006.47 195.318 1000.4 195.378 992.701 195.447C967.04 195.722 924.081 196.153 881.897 197.259C839.708 198.363 810.414 199.791 790.577 201.6C785.699 202.025 783.38 205.555 782.839 208.742C782.294 211.895 783.29 215.999 787.707 218.064C810.313 228.608 848.615 243.299 885.651 257.496C927.793 273.672 967.63 288.919 986.583 298.764C1007.04 309.397 1023.21 322.388 1034.63 337.453C1045 351.092 1051.14 366.197 1052.43 381.197C1053.33 391.912 1051.73 402.494 1047.74 411.884C1043.77 421.24 1037.44 429.401 1029.44 435.492C1007.58 452.09 979.979 464.146 945.114 472.329C914.551 479.507 879.115 483.542 836.698 484.652C759.59 486.673 672.374 478.548 588.005 470.681C507.146 463.151 430.756 456.031 366.13 457.725C348.202 458.194 331.717 459.353 317.135 461.189C283.75 465.367 264.272 475.89 259.192 492.511C255.601 504.202 258.747 519.65 268.454 538.428C277.046 555.021 290.861 574.221 309.52 595.539C343.362 634.17 384.874 670.421 407.184 689.892C413.403 695.314 417.866 699.228 420.541 701.735L432.192 712.731L67.8109 722.209Z" fill="white"/>
<path d="M1181.3 4.84248C1138.79 5.95616 1104.66 10.6826 1079.77 18.8686C1063.66 24.1811 1051.02 31.1206 1042.22 39.4788C1036.97 44.4738 1032.92 50.0975 1030.24 56.1493C1027.37 62.6339 1026 69.6746 1026.2 77.0375C1026.33 82.1889 1024.84 87.086 1021.91 91.2595C1018.98 95.3999 1014.9 98.3492 1010.11 99.8293C986.322 107.093 941.781 109.053 910.357 109.876C885.733 110.521 858.65 110.669 832.495 110.826C805.909 110.993 778.432 111.151 752.982 111.818C725.452 112.54 703.388 113.778 685.501 115.634C663.396 117.931 646.868 121.206 634.961 125.648C618.148 131.937 604.797 140.547 595.3 151.27C586.22 161.486 580.791 173.656 579.573 186.442C578.354 199.162 581.238 212.171 587.957 224.089C594.365 235.452 603.937 245.246 615.619 252.409C637.573 265.842 674.219 282.792 713.037 300.708C742.929 314.53 773.855 328.787 798.072 341.568C810.866 348.304 820.594 353.995 827.858 358.96C830.145 360.52 832.032 361.891 833.515 363.074C829.895 363.598 824.788 364.063 817.725 364.248C796.798 364.796 765.001 362.755 723.229 358.166C660.321 351.255 601.029 346.166 546.976 343.089C486.604 339.649 430.588 338.571 380.514 339.882C336.482 341.036 295.769 344.086 259.561 348.899C220.686 354.081 185.769 361.505 155.727 370.949C139.904 375.923 125.088 381.599 111.674 387.764C97.7698 394.176 84.977 401.318 73.6496 409.016C61.9021 417.022 51.399 425.856 42.4293 435.275C33.1391 445.036 25.259 455.683 19.0134 466.948C10.4338 482.405 4.70139 499.408 1.93784 517.487C-0.850971 535.865 -0.625134 555.817 2.56637 576.781C5.82894 597.976 12.2403 620.837 21.6538 644.744C31.2062 669.011 44.1427 695.073 60.0813 722.214L64.0229 728.916L448.338 718.849L425.037 696.86C422.261 694.255 417.732 690.31 411.477 684.824C389.3 665.447 348.027 629.422 314.456 591.08C296.137 570.182 282.632 551.405 274.283 535.3C269.762 526.597 266.746 518.647 265.307 511.645C263.944 505.008 263.99 499.191 265.451 494.395C267.338 488.266 271.665 483.228 278.722 479.012C287.798 473.621 300.976 469.806 317.9 467.711C332.285 465.913 348.572 464.759 366.265 464.296C430.499 462.613 506.69 469.705 587.349 477.207C671.917 485.069 759.332 493.22 836.836 491.19C879.715 490.067 915.611 485.988 946.602 478.699C963.706 474.684 979.493 469.578 993.474 463.594C1008.43 457.156 1021.87 449.469 1033.4 440.708C1042.31 433.933 1049.37 424.826 1053.79 414.434C1058.18 404.076 1059.99 392.398 1058.95 380.596C1057.57 364.376 1050.96 348.06 1039.84 333.45C1027.8 317.609 1010.9 303.974 989.567 292.902C970.279 282.9 930.274 267.559 887.965 251.32C851.029 237.155 812.858 222.526 790.454 212.077C789.953 211.859 789.05 211.42 789.306 209.86C789.562 208.3 790.585 208.24 791.144 208.16C810.849 206.356 841.433 204.926 882.032 203.863C922.632 202.8 967.081 202.329 992.738 202.053C1000.43 201.983 1006.54 201.923 1010.47 201.854C1012.49 201.833 1014.5 201.781 1016.48 201.729C1038.73 201.146 1056.08 199.171 1069.57 195.712C1084.73 191.813 1096 185.801 1103.94 177.334C1114.6 165.95 1119.19 150.665 1118.4 129.208C1118.19 123.728 1119.87 118.498 1123.1 114.448C1125.34 111.647 1129.31 108.139 1135.69 107.311C1143.46 106.281 1155.57 105.568 1172.7 105.12C1193.06 104.586 1217.47 104.542 1239.04 104.472C1257.67 104.414 1275.24 104.382 1287.91 104.05C1297.92 103.788 1303.98 103.365 1307.6 102.709L1304.87 76.5131C1309.59 76.3883 1314.01 78.8163 1316.46 82.8492C1317.01 83.7607 1317.43 84.7401 1317.72 85.7243C1317.91 86.3814 1317.99 86.8411 1317.99 86.8411C1317.34 82.2316 1316.81 50.8889 1316.68 23.2033L1316.64 11.474L1305.01 10.1265C1304.38 10.0444 1289.57 8.35098 1266.84 6.83131C1245.96 5.46172 1214.08 3.98313 1181.3 4.84248ZM1181.65 18.0503C1244.13 16.4137 1303.57 23.2822 1303.57 23.2822C1303.57 23.2822 1303.86 89.7556 1305.31 89.7177C1302.25 90.2927 1296.05 90.6213 1287.67 90.8409C1260.44 91.5533 1210.34 90.9167 1172.45 91.9088C1156.74 92.3195 1143.08 93.0082 1134.06 94.2025C1116.58 96.5104 1104.64 112.056 1105.3 129.684C1106.8 170.748 1087.13 186.662 1016.2 188.52C1014.29 188.57 1012.34 188.621 1010.36 188.64C993.616 188.88 936.843 189.21 881.785 190.652C846.995 191.564 812.91 192.919 790.04 195.006C774.519 196.402 770.842 217.448 784.987 224.017C832.872 246.354 948.002 286.127 983.598 304.591C1056.29 342.304 1058.92 404.784 1025.53 430.176C981.516 463.577 914.225 475.946 836.589 477.981C687.292 481.89 499.768 447.583 366.052 451.085C348.49 451.545 331.872 452.641 316.4 454.6C134.365 477.342 388.539 680.5 416.074 706.478L71.5651 715.501C-87.2569 445.117 99.0678 360.472 380.893 353.09C485.63 350.346 603.493 358.262 721.822 371.287C766.045 376.143 797.274 378 818.104 377.455C942.71 374.19 694.362 285.072 622.523 241.092C584.355 217.708 575.104 162.076 639.61 137.984C662.573 129.385 704.805 126.264 753.359 124.992C801.916 123.721 861.024 124.352 910.735 123.051C954.075 121.915 991.694 119.277 1013.98 112.448C1029.58 107.679 1039.86 93.0035 1039.43 76.6916C1038.24 32.3133 1111.84 19.8795 1181.65 18.0503Z" fill="#474785"/>
<path d="M270.933 710.281L167.607 712.987C152.867 687.045 140.564 662.718 130.942 640.462C119.866 614.847 111.946 591.133 107.428 569.973C102.948 549.009 101.59 527.435 103.492 510.434C105.363 493.599 110.08 478.178 118.593 465.268C138.8 434.669 182.485 417.665 199.507 411.767C230.866 400.935 297.123 391.962 348.115 389.139C357.686 388.611 367.516 388.218 377.569 387.954C467.595 385.597 576.81 393.395 701.329 402.29C715.327 403.277 729.459 404.295 743.722 405.309C779.388 407.825 809.101 408.775 834.869 408.1C855.508 407.558 873.611 405.979 890.228 403.321C906.511 400.715 919.729 397.164 929.523 392.744C937.815 388.991 943.546 384.612 946.137 380.116C947.116 378.405 950.117 373.138 944.106 364.343C939.915 358.207 930.789 348.996 879.242 321.765C842.465 302.341 798.848 281.545 760.349 263.223C710.043 239.264 676.881 226.652 670.218 220.712C659.938 211.597 656.141 197.788 660.323 184.659C664.505 171.532 682.199 162.311 695.869 160.829C752.783 154.646 861.167 149.925 940.286 146.497C970.046 145.189 995.781 144.086 1010.49 143.205C1037.3 141.642 1055.96 133.687 1065.89 119.648C1070.03 113.758 1074.85 103.52 1074.12 88.1746C1073.75 80.4199 1076.74 73.5672 1083 67.7871C1095.26 56.4623 1120.3 49.2968 1159.66 45.9542C1170.34 45.0396 1182.08 44.4156 1194.8 44.0823C1217.9 43.4772 1244.25 43.8311 1273.59 45.1501C1283.79 45.6019 1293.9 46.1532 1303.77 46.7677C1303.81 49.9761 1303.85 53.3156 1303.9 56.6534C1293.75 56.0437 1283.34 55.4876 1272.83 55.0169C1243.82 53.7279 1217.81 53.3803 1195.06 53.9759C1182.59 54.3029 1171.1 54.9126 1160.64 55.8067C1116.12 59.6169 1098.75 71.2071 1091.98 77.4643C1088.62 80.5589 1087.15 83.7688 1087.32 87.5317C1088.04 102.646 1084.37 116.388 1076.7 127.262C1064.34 144.767 1042.33 154.563 1011.3 156.4C996.49 157.285 970.722 158.389 940.896 159.698C861.942 163.121 763.725 167.578 707.237 173.716C697.192 174.805 691.466 181.959 689.451 188.258C687.436 194.556 687.973 203.694 695.513 210.402C701.094 215.345 739.158 233.479 775.951 251.019C814.549 269.403 858.3 290.263 895.311 309.813C953.826 340.693 970.838 353.365 975.578 360.28C982.48 370.375 978.805 381.408 973.562 390.565C960.735 412.977 907.07 428.115 826.889 430.216C801.452 430.882 773.349 430.236 743.03 428.094C728.767 427.08 714.602 426.063 700.638 425.074C578.734 416.356 476.438 410.114 389.152 412.4C377.653 412.702 366.42 413.15 355.431 413.762C305.693 416.52 268.433 420.237 238.252 430.677C205.909 441.866 187.41 454.41 174.384 475.403C145.412 522.103 205.577 600.925 270.933 710.281Z" fill="#E8E8FD"/>
</g>
<defs>
<clipPath id="clip0_884_18029">
<rect width="1319" height="611" fill="white"/>
</clipPath>
</defs>
</svg>
