<svg width="104" height="104" viewBox="0 0 104 104" fill="none" xmlns="http://www.w3.org/2000/svg">
<path d="M102.131 99.7064C101.126 99.7064 100.456 99.0363 100.456 98.0317C100.456 97.0271 101.126 96.3582 102.131 96.3582C103.135 96.3582 103.806 97.0271 103.806 98.0317C103.806 99.0363 103.135 99.7064 102.131 99.7064Z" fill="#BEBEDF"/>
<path d="M98.7822 5.94788C97.7776 5.94788 97.1074 5.27773 97.1074 4.27313C97.1074 3.26853 97.7776 2.59961 98.7822 2.59961C99.7868 2.59961 100.457 3.26853 100.457 4.27313C100.457 5.27773 99.7868 5.94788 98.7822 5.94788Z" fill="#BEBEDF"/>
<path d="M8.37299 99.7064C7.36838 99.7064 6.69824 99.0363 6.69824 98.0317C6.69824 97.0271 7.36838 96.3582 8.37299 96.3582C9.37759 96.3582 10.0477 97.0271 10.0477 98.0317C10.0477 99.0363 9.37759 99.7064 8.37299 99.7064Z" fill="#BEBEDF"/>
<path d="M1.67572 12.6449C0.671118 12.6449 0.000976562 11.9748 0.000976562 10.9702C0.000976562 9.96555 0.671118 9.29663 1.67572 9.29663C2.68032 9.29663 3.35046 9.96555 3.35046 10.9702C3.35046 11.9748 2.68032 12.6449 1.67572 12.6449Z" fill="#BEBEDF"/>
<path d="M11.7217 39.4329C11.7217 36.5863 13.8981 34.4099 16.7447 34.4099C19.5913 34.4099 21.7677 36.5863 21.7677 39.4329C21.7677 42.2795 19.5913 44.4559 16.7447 44.4559C13.8981 44.4559 11.7217 42.2795 11.7217 39.4329ZM18.4182 39.4329C18.4182 38.4283 17.7493 37.7582 16.7447 37.7582C15.7401 37.7582 15.0699 38.4283 15.0699 39.4329C15.0699 40.4375 15.7401 41.1077 16.7447 41.1077C17.7493 41.1077 18.4182 40.4375 18.4182 39.4329Z" fill="#FFC100"/>
<path d="M16.7451 41.1072C17.5824 41.1072 18.2513 41.7773 18.4198 42.6135V49.4785C18.4198 50.4831 17.7497 51.1532 16.7451 51.1532C15.9077 51.1532 15.2388 50.4831 15.0703 49.6457V42.7819C15.0703 41.7773 15.7405 41.1072 16.7451 41.1072Z" fill="#FFC100"/>
<path d="M48.5547 32.7359C48.5547 29.8893 50.7311 27.7129 53.5777 27.7129C56.4243 27.7129 58.6007 29.8893 58.6007 32.7359C58.6007 35.5825 56.4243 37.7589 53.5777 37.7589C50.7311 37.7589 48.5547 35.5825 48.5547 32.7359ZM55.2512 32.7359C55.2512 31.7313 54.5823 31.0612 53.5777 31.0612C52.5731 31.0612 51.903 31.7313 51.903 32.7359C51.903 33.7405 52.5731 34.4106 53.5777 34.4106C54.5823 34.4106 55.2512 33.7405 55.2512 32.7359Z" fill="#FFC100"/>
<path d="M53.579 34.4102C54.4164 34.4102 55.0853 35.0803 55.2538 35.9164V42.7814C55.2538 43.786 54.5836 44.4562 53.579 44.4562C52.7417 44.4562 52.0727 43.786 51.9043 42.9487V36.0849C51.9043 35.0803 52.5744 34.4102 53.579 34.4102Z" fill="#FFC100"/>
<path d="M78.6914 12.6448C78.6914 9.79826 80.8678 7.62183 83.7144 7.62183C86.5598 7.62183 88.7374 9.79826 88.7374 12.6448C88.7374 15.4914 86.5598 17.6678 83.7144 17.6678C80.8678 17.6678 78.6914 15.4914 78.6914 12.6448ZM85.3879 12.6448C85.3879 11.6402 84.719 10.9701 83.7144 10.9701C82.7098 10.9701 82.0397 11.6402 82.0397 12.6448C82.0397 13.6494 82.7098 14.3196 83.7144 14.3196C84.719 14.3196 85.3879 13.6494 85.3879 12.6448Z" fill="#FFC100"/>
<path d="M83.7158 14.3191C84.5531 14.3191 85.2221 14.9892 85.3905 15.8254V22.6904C85.3905 23.695 84.7204 24.3651 83.7158 24.3651C82.8784 24.3651 82.2095 23.695 82.041 22.8576V15.9938C82.041 14.9892 82.7112 14.3191 83.7158 14.3191Z" fill="#FFC100"/>
<path d="M65.2979 49.4783C65.2979 46.6318 67.4743 44.4553 70.3209 44.4553C73.1674 44.4553 75.3439 46.6318 75.3439 49.4783C75.3439 52.3249 73.1674 54.5013 70.3209 54.5013C67.4743 54.5013 65.2979 52.3249 65.2979 49.4783ZM71.9944 49.4783C71.9944 48.4737 71.3255 47.8036 70.3209 47.8036C69.3163 47.8036 68.6461 48.4737 68.6461 49.4783C68.6461 50.4829 69.3163 51.1531 70.3209 51.1531C71.3255 51.1531 71.9944 50.4829 71.9944 49.4783Z" fill="#FFC100"/>
<path d="M70.3212 51.1528C71.1586 51.1528 71.8275 51.823 71.996 52.6591V59.5241C71.996 60.5287 71.3258 61.1988 70.3212 61.1988C69.4839 61.1988 68.8149 60.5287 68.6465 59.6913V52.8276C68.6465 51.823 69.3166 51.1528 70.3212 51.1528Z" fill="#FFC100"/>
<path d="M41.8574 66.221C41.8574 63.3744 44.0339 61.198 46.8804 61.198C49.727 61.198 51.9034 63.3744 51.9034 66.221C51.9034 69.0676 49.727 71.244 46.8804 71.244C44.0339 71.244 41.8574 69.0676 41.8574 66.221ZM48.554 66.221C48.554 65.2164 47.885 64.5463 46.8804 64.5463C45.8758 64.5463 45.2057 65.2164 45.2057 66.221C45.2057 67.2256 45.8758 67.8957 46.8804 67.8957C47.885 67.8957 48.554 67.2256 48.554 66.221Z" fill="#FFC100"/>
<path d="M46.8818 67.8953C47.7191 67.8953 48.3881 68.5654 48.5565 69.4016V76.2665C48.5565 77.2711 47.8864 77.9413 46.8818 77.9413C46.0444 77.9413 45.3755 77.2711 45.207 76.4338V69.57C45.207 68.5654 45.8772 67.8953 46.8818 67.8953Z" fill="#FFC100"/>
<path d="M68.6455 82.9634C68.6455 80.1169 70.8219 77.9404 73.6685 77.9404C76.5139 77.9404 78.6915 80.1169 78.6915 82.9634C78.6915 85.81 76.5139 87.9864 73.6685 87.9864C70.8219 87.9864 68.6455 85.81 68.6455 82.9634ZM75.342 82.9634C75.342 81.9588 74.6731 81.2887 73.6685 81.2887C72.6639 81.2887 71.9938 81.9588 71.9938 82.9634C71.9938 83.968 72.6639 84.6382 73.6685 84.6382C74.6731 84.6382 75.342 83.968 75.342 82.9634Z" fill="#FFC100"/>
<path d="M73.6699 84.6379C74.5072 84.6379 75.1762 85.3081 75.3446 86.1442V93.0092C75.3446 94.0138 74.6745 94.684 73.6699 94.684C72.8325 94.684 72.1636 94.0138 71.9951 93.1764V86.3127C71.9951 85.3081 72.6653 84.6379 73.6699 84.6379Z" fill="#FFC100"/>
<path d="M90.4131 24.3645L94.9332 24.5317C95.2689 24.5317 95.4361 24.699 95.7706 24.699C97.947 26.0392 98.7844 28.7174 97.6126 30.8938L97.4453 31.2295L96.1051 33.5731V34.0748C96.1051 34.4105 96.1051 34.5777 95.9378 34.9122L95.7706 35.2467L94.766 37.926V42.4461C94.766 43.7864 94.2643 45.1255 93.0925 46.1301L92.924 46.2973L90.9148 47.8036C90.5804 47.972 90.2459 48.3065 89.9114 48.4737L89.743 48.641L87.9022 50.8174L88.0695 50.9846C88.5711 51.4875 89.0741 52.1577 89.4085 52.8266L89.5758 53.1623L89.9114 53.9984L90.2459 54.3341L91.4177 55.8404C92.2551 57.0122 92.4223 58.687 92.0879 60.026V60.6962L92.5896 61.3651C93.2597 62.2025 93.7614 63.3743 93.7614 64.5461V64.8818L93.5942 66.5553C93.5942 67.3927 93.2597 68.0628 92.924 68.7318L92.7568 68.9002L92.924 69.0674C93.2597 69.7364 93.5942 70.5737 93.5942 71.5783V71.9128H93.7614C95.2689 72.0813 96.7752 73.0859 97.4453 74.4249L97.6126 74.7594L98.1143 75.9312C98.7844 77.4387 98.7844 79.2807 97.7798 80.787V80.9542C97.7798 82.2933 97.1097 83.4663 96.1051 84.3025L95.7706 84.4709L92.2551 87.1491L92.0879 87.3163L91.2505 87.8192V87.9864C91.2505 88.3209 91.0833 88.4881 91.0833 88.6566L90.9148 88.991C90.4131 90.1629 89.4085 91.0002 88.4039 91.5019L88.0695 91.6692L85.3901 92.6738C85.0557 92.8422 84.8884 92.8422 84.5527 92.8422H84.3855L82.2091 93.1767C81.5402 93.3439 80.87 93.1767 80.3671 93.0094C79.531 92.8422 78.8608 91.8376 79.1953 91.0002C79.3625 90.1629 80.1999 89.66 81.0372 89.66H81.8746L84.2183 89.3255H84.5527L87.5665 88.3209C88.0695 88.1537 88.4039 87.8192 88.5711 87.4835C88.5711 87.3163 88.7384 87.1491 88.7384 86.9818V86.8146C88.7384 86.3117 88.9068 85.81 89.4085 85.4743L89.5758 85.3071L90.9148 84.4709L94.2643 81.7916C94.5988 81.4571 94.9332 80.9542 94.9332 80.6198V80.4525C94.9332 80.1168 94.9332 79.7824 95.1017 79.4479L95.2689 79.2807L95.4361 78.945V77.2715L94.9332 76.0997C94.5988 75.4295 93.7614 74.9266 92.924 75.2623H92.0879C91.585 75.4295 91.2505 75.4295 90.7476 75.2623L90.5804 75.0951L90.2459 74.7594C89.4085 74.2577 89.2413 73.2531 89.743 72.4157L89.9114 72.2485C90.0787 72.0813 90.2459 71.7456 90.2459 71.4111C90.2459 71.0767 90.0787 70.5737 89.9114 70.2393L89.743 70.0721L89.5758 69.9048C88.9068 69.2347 88.9068 68.0628 89.5758 67.3927L89.743 67.2255C90.0787 67.0582 90.2459 66.5553 90.4131 66.2209V66.0536L90.5804 64.3789C90.5804 64.0444 90.5804 63.71 90.2459 63.3743L90.0787 63.2071L88.7384 62.0352C88.2367 61.5335 88.2367 60.6962 88.5711 60.026L88.7384 59.8588C89.0741 59.3559 89.0741 58.687 88.9068 58.1841L88.7384 58.0168L87.7338 56.5105L87.2321 56.0076C87.0649 56.0076 87.0649 55.8404 87.0649 55.6732V55.5059L86.7292 54.3341C86.5619 53.8312 86.2275 53.4967 85.7246 53.3295H85.5573C84.3855 52.9938 83.8838 51.822 84.5527 50.8174L84.7212 50.6502L88.0695 46.4645C88.2367 46.2973 88.4039 46.1301 88.7384 45.9628H88.9068C89.0741 45.9628 89.2413 45.7944 89.2413 45.7944L89.4085 45.6271L91.4177 44.1209C91.7522 43.7864 91.9194 43.4507 92.0879 43.1163V37.5916L93.0925 34.5777V33.4059C93.0925 33.2375 93.0925 33.0702 93.2597 32.903L93.4269 32.7358L94.9332 30.0564C95.2689 29.5547 95.1017 28.8846 94.766 28.3829L94.5988 28.2157L90.4131 27.7128C89.5758 27.7128 88.9068 27.0438 88.7384 26.2065V26.0392C88.7384 25.2019 89.4085 24.5317 90.2459 24.3645H90.4131Z" fill="#27397C"/>
<path d="M53.4091 4.44105C55.4183 3.93936 57.4275 4.60828 58.5994 6.11579L58.7666 6.45025L59.2695 7.28762H59.604C61.446 7.45485 63.1195 8.79392 63.7896 10.4687C64.2913 10.6359 64.7942 10.9704 65.2959 11.4733H65.4644C65.6316 11.4733 66.1333 11.8077 66.1333 11.8077L67.4723 12.4779C67.9753 12.6451 68.3097 12.9796 68.6454 13.3152L68.8126 13.4825H68.9799C70.3189 13.1468 71.8264 13.4825 72.9983 14.1514L73.3327 14.3186C74.1701 14.9888 74.8402 15.8261 75.1747 16.998L75.3419 17.3324L76.5138 18.1698C76.681 18.337 77.1839 18.8399 77.1839 18.8399L78.8574 22.1882C79.1931 23.0256 78.8574 24.0302 78.1885 24.3646C77.3511 24.6991 76.5138 24.5319 76.0121 23.8629L75.8448 23.6945L74.3373 20.6819L72.831 19.6773C72.4954 19.3416 72.1609 19.0072 72.1609 18.5043V18.1698C72.1609 17.8353 71.8264 17.3324 71.4908 17.1652C71.1563 16.8307 70.6546 16.8307 70.1517 16.8307H69.9845L68.8126 17.1652C68.1425 17.3324 67.4723 17.1652 67.1379 16.6635L66.8034 15.9934C66.6362 15.8261 66.469 15.6589 66.3005 15.4917L66.1333 15.3232L64.7942 14.6543C64.627 14.6543 64.627 14.4871 64.4598 14.4871H64.2913C63.9568 14.4871 63.6224 14.3186 63.4552 13.9842L63.2867 13.8169C63.1195 13.6497 62.785 13.3152 62.4506 13.3152H62.2833C61.7804 13.1468 61.2787 12.8123 61.1103 12.3106V12.1422L60.943 11.4733C60.7758 10.8031 60.1057 10.4687 59.4368 10.3014H58.5994C58.0977 10.3014 57.5948 10.133 57.4275 9.79852L57.2603 9.63129L56.2557 8.125C55.92 7.62209 55.2511 7.28763 54.581 7.45486H54.4137L48.889 8.79392C48.3861 8.96115 48.0517 9.12838 47.8844 9.46406L47.7172 9.63129L46.5442 12.1422C46.5442 12.3106 46.3769 12.4779 46.3769 12.6451V12.8123L46.5442 16.1606C46.5442 16.6635 46.3769 16.998 46.2097 17.3324L46.0425 17.4997L44.3677 19.3416C44.2005 19.5089 44.2005 19.5089 44.0333 19.5089L43.866 19.6773L38.0057 21.5181C37.504 21.6865 37.0011 22.1882 36.8338 22.6899V23.1928C36.8338 24.1974 35.9965 24.8675 34.9919 24.6991H34.8246L31.8108 24.1974C31.4764 24.1974 31.3091 24.0302 31.1419 23.8629L30.9747 23.6945L28.6298 21.1836C28.2953 20.8491 27.9609 20.6819 27.4579 20.6819H27.2907L24.6126 20.8491C24.1097 20.8491 23.608 21.1836 23.2723 21.5181C23.1051 21.8537 22.9379 22.1882 22.9379 22.6899V22.8583L23.7752 26.2066L24.9471 28.8847C25.4487 30.0578 24.6126 31.2296 23.2723 31.2296H23.1051L22.2677 31.0612H21.2631L20.9286 31.2296C20.4257 31.3969 19.7568 31.3969 19.2539 31.0612L17.9148 29.7221C17.5804 29.3876 17.2447 29.2204 16.743 29.2204H16.5758L9.87803 29.7221H9.37634L4.52056 31.8985C3.85164 32.2342 3.34873 32.9031 3.51596 33.7405V33.9077L4.1861 35.9169C4.35333 36.2514 4.52056 36.4199 4.68779 36.5871L4.85624 36.7543C5.35793 37.0888 5.69239 37.7589 5.52516 38.2606V38.4291C5.52516 38.7635 5.52516 39.2652 5.69239 39.6009L5.86084 39.7681L6.02807 40.1026C6.02807 40.1026 6.02807 40.2698 6.1953 40.2698L6.36253 40.437L6.52977 40.6055L6.69699 41.1072C7.70159 41.1072 8.37174 41.7773 8.37174 42.7819C8.37174 43.7865 7.70159 44.4555 6.69699 44.4555C5.1907 44.4555 3.85164 43.4509 2.84704 41.6101C2.51136 40.94 2.1769 40.2698 2.1769 39.6009V39.2652C1.84244 38.7635 1.33953 38.4291 1.1723 37.7589L1.00507 37.4245L0.334924 35.4153C-0.502447 33.0704 0.502152 30.5595 2.67859 29.3876L3.01427 29.2204L7.86883 27.044C8.37174 26.8755 8.7062 26.7083 9.20911 26.7083H9.54357L16.2401 26.2066C17.5804 26.0394 18.9194 26.5411 19.924 27.3784L20.5942 28.0486L20.4257 27.7129L20.2585 27.3784L19.4211 23.8629C19.0867 22.3554 19.4211 20.8491 20.2585 19.6773C21.0959 18.5043 22.2677 17.8353 23.7752 17.6681H24.1097L26.789 17.4997C28.1281 17.3324 29.4672 17.8353 30.639 18.8399L30.9747 19.0072L32.9826 21.0164L33.9872 21.1836V21.0164C34.4902 19.8445 35.4948 18.8399 36.6666 18.337L37.0011 18.1698L42.527 16.3278L43.1959 15.6589L43.0287 13.1468C43.0287 12.4779 43.0287 11.8077 43.3631 11.1376L43.5316 10.8031L44.7034 8.29223C45.3723 7.12039 46.3769 6.11579 47.7172 5.61288L48.0517 5.44565L53.4091 4.44105Z" fill="#27397C"/>
<path d="M19.0895 54.8364C19.7597 54.3335 20.9315 54.3335 21.4332 55.1709L21.266 55.0037L21.6004 55.1709L22.2706 55.3381L24.1125 56.0083L24.447 56.1755H24.6142L26.289 57.0129C26.7907 57.1801 26.9591 57.5158 27.1264 58.0175V58.1847C27.1264 58.3519 27.1264 58.3519 27.2936 58.5192V58.6876C27.628 59.3565 27.628 60.0267 27.1264 60.5284L26.7907 60.6968C26.4562 61.0313 26.289 61.533 26.289 61.8687C26.289 62.0359 26.289 62.2031 26.4562 62.3704L26.6234 62.5376C26.7907 62.8733 26.7907 63.2077 26.7907 63.7094V64.2123L25.7861 72.7508V73.421C25.9545 73.7554 25.9545 74.2583 25.7861 74.5928V74.9273L24.6142 81.4566C24.6142 81.625 24.447 81.7922 24.447 82.1267L21.9361 84.6376C21.6004 84.9733 21.4332 85.475 21.6004 85.9779C21.6004 86.3123 21.9361 86.6468 22.2706 86.9825L22.4378 87.1497L23.7781 87.9871C23.9453 88.1543 24.447 88.656 24.447 88.656L25.1172 89.8278C25.2844 89.9963 25.4516 90.3307 25.7861 90.498L25.9545 90.6652L29.3028 92.0055C29.47 92.0055 29.6372 92.1727 29.6372 92.1727L30.8091 93.3446C31.1448 93.679 31.4792 93.8462 31.8137 93.8462H33.4884C33.6557 93.8462 33.9901 93.8462 34.1573 94.0135L34.3258 94.1819L35.3304 94.6836C35.4976 94.6836 35.6649 94.8508 35.8321 94.8508H35.9993L41.8597 95.6882C42.3614 95.6882 42.8643 95.6882 43.1988 95.3538L43.366 95.1865L43.5332 94.6836C43.8689 94.3492 44.3706 94.0135 44.8735 94.1819H45.0407L45.5424 94.3492H45.8781L47.2172 94.8508C47.5516 95.0181 47.8873 95.3538 48.0545 95.6882V95.8555C48.2218 96.1911 48.389 96.5256 48.7235 96.6928L48.8919 96.8601L50.5654 97.6974C50.8999 97.8647 51.2356 97.8647 51.4028 97.8647H51.57L52.9091 97.5302H53.412L56.2586 98.0319H57.0947L60.7787 97.0273C61.2804 96.8601 61.6161 96.6928 61.7833 96.1911C61.9505 95.8554 61.9505 95.521 61.9505 95.1865V95.0181L61.1131 92.0055C60.9459 91.6698 60.9459 91.3354 61.1131 91.0009L61.2804 90.8324L62.1177 88.9917C62.6207 88.1543 63.6253 87.8199 64.2942 88.3215C65.1315 88.656 65.466 89.6606 65.1315 90.3308V90.498L64.4614 91.6698L65.1315 94.0135C65.466 95.1865 65.2988 96.5256 64.7971 97.5302L65.2988 98.0319C64.6299 99.0365 63.6253 99.8739 62.4522 100.208L62.1177 100.377L58.435 101.381H56.4258L53.5792 100.878L52.4074 101.046C51.4028 101.213 50.3982 101.213 49.5608 100.878L47.5516 99.8739C46.547 99.3722 45.8781 98.702 45.3752 97.8647V97.6974H45.208C44.2034 98.3676 43.0315 98.702 41.8597 98.702H41.524L35.6649 97.8647C35.1619 97.8647 34.6603 97.6974 34.1573 97.363L33.8229 97.1957L33.1527 96.8601H32.1481C30.8091 96.8601 29.6372 96.3584 28.7999 95.521L28.4654 95.3538L27.628 94.5164L24.6142 93.3446C23.7781 93.0101 22.9407 92.34 22.4378 91.5026L22.2706 91.1681L21.7689 90.498L20.7643 89.9963C19.5912 89.3261 18.5878 88.1543 18.2522 86.9825V86.6468C17.9177 85.3077 18.2522 83.9687 19.0895 82.7968L19.2568 82.4612L21.0987 80.2847L22.2706 74.2583V74.0899C22.1033 73.5882 22.1033 73.2537 22.1033 72.7508V72.4164L23.1079 63.8779C22.9407 63.375 22.7735 63.0405 22.7735 62.5376V62.2031C22.7735 61.3658 22.9407 60.5284 23.4424 59.6922L22.9407 59.3565L21.0987 58.6876L20.2614 58.3519C19.424 58.0175 19.0895 57.8503 18.7551 57.3473C18.2522 56.5112 18.4194 55.3381 19.0895 54.8364Z" fill="#27397C"/>
<path d="M43.5338 44.4558C44.5384 44.4558 45.2085 45.126 45.2085 46.1306C45.2085 46.9667 44.5384 47.6368 43.701 47.8041H40.1855C39.1809 47.8041 38.5107 47.1352 38.5107 46.1306C38.5107 45.2932 39.1809 44.623 40.0183 44.4558H43.5338Z" fill="#27397C"/>
<path d="M77.0181 34.4104C78.0227 34.4104 78.6929 35.0805 78.6929 36.0851C78.6929 36.9213 78.0227 37.5914 77.1854 37.7587H73.6699C72.6653 37.7587 71.9951 37.0897 71.9951 36.0851C71.9951 35.2478 72.6653 34.5776 73.5026 34.4104H77.0181Z" fill="#27397C"/>
<path d="M66.9732 67.8955C67.9778 67.8955 68.6479 68.5656 68.6479 69.5703C68.6479 70.4064 67.9778 71.0765 67.1404 71.2438H63.6249C62.6203 71.2438 61.9502 70.5749 61.9502 69.5703C61.9502 68.7329 62.6203 68.0627 63.4577 67.8955H66.9732Z" fill="#27397C"/>
</svg>
