<svg width="288" height="180" viewBox="0 0 288 180" fill="none" xmlns="http://www.w3.org/2000/svg">
<g clip-path="url(#clip0_884_22211)">
<path d="M221.072 110.347C221.072 110.428 221.072 110.428 221.153 110.509C221.153 110.509 221.072 110.428 220.991 110.428V110.104C220.991 110.185 220.991 110.266 221.072 110.347Z" fill="#D5C1DE"/>
<path d="M228.532 102.154H228.531V102.155H228.532V102.154Z" fill="white"/>
<path d="M228.532 102.154H228.531V102.155H228.532V102.154Z" fill="white"/>
<path d="M260.807 45.7977C267.781 44.5816 268.997 49.6903 267.457 53.3398C265.185 58.8535 261.375 62.341 257.806 65.4224C245.886 75.7207 228.856 76.6129 214.585 90.8038C210.935 94.4533 207.286 94.5343 216.287 98.0207C236.154 92.183 234.614 106.617 233.479 108.563C234.938 111.807 240.534 121.133 223.342 132.323C225.532 138.81 228.369 146.109 215.882 150.975C217.99 167.274 194.879 163.706 191.148 163.625C170.713 184.141 155.63 178.709 139.006 184.709C122.382 190.791 101.784 206.685 86.7013 220.957C63.7522 242.933 65.2114 247.556 43.0734 230.527C30.0987 220.552 11.9343 195.17 21.4215 179.195C45.1817 169.707 70.8882 161.03 90.1888 142.541C91.648 141.082 117.921 132.242 138.438 111.24C154.413 94.8583 178.255 78.2351 210.773 63.9622C226.991 56.9072 249.535 47.744 260.807 45.7977Z" fill="white"/>
<path d="M190.904 141.244C190.416 141.243 182.875 141 181.74 140.513C181.091 140.189 178.172 137.27 181.172 136.54C183.768 135.404 186.767 134.675 189.525 135.728C194.228 137.432 191.795 141.243 190.904 141.244Z" fill="#B4C2E3"/>
<path d="M130.248 40.5249C132.437 41.498 125.951 47.5798 125.301 49.9311C124.733 55.6079 128.789 53.4186 131.302 51.3104C133.979 48.958 142.655 47.2558 141.439 46.9307C136.087 58.9323 135.519 63.312 130.734 74.5835L105.921 44.5794C105.921 44.4984 130.248 40.5249 130.248 40.5249Z" fill="#273671"/>
<path d="M191.066 141.566C190.904 141.566 190.742 141.485 190.58 141.404C190.498 141.323 190.417 141.242 190.336 141.161C189.688 140.917 189.931 140.107 189.85 139.62C189.85 139.051 189.85 138.484 189.931 137.835C189.931 137.673 190.012 137.511 190.093 137.349C190.093 136.781 190.58 136.376 191.066 136.7C191.471 137.024 191.471 137.592 191.634 138.079C191.796 137.997 191.958 137.916 192.12 137.997C193.174 138.322 191.958 139.782 192.282 140.512C192.282 140.917 192.039 141.323 191.634 141.485C191.471 141.485 191.309 141.566 191.066 141.566Z" fill="white"/>
<path d="M80.295 142.539H80.2939V142.54H80.295V142.539Z" fill="#8E78B7"/>
<path d="M99.8379 111.076C97.8916 110.022 96.1884 107.184 93.9991 106.941C87.8363 99.9666 94.9722 115.942 89.7015 113.346C86.376 113.833 88.0793 109.211 86.376 107.914C83.3756 107.589 77.7809 102.075 76.0777 102.318C75.3476 102.399 75.3476 104.913 76.2397 106.778C81.7545 117.726 71.6181 129.647 79.7272 142.134C80.3752 143.188 81.5925 142.621 81.9975 141.486C84.4308 134.349 88.0793 114.319 86.8631 113.995C87.9173 114.238 91.2417 114.888 92.0528 116.753C94.3231 122.024 93.6751 131.998 97.8106 131.187C101.946 130.376 102.514 114.4 99.8379 111.076Z" fill="#273671"/>
<path d="M145.006 64.4482C144.357 62.5019 142.816 59.9886 143.952 57.9603C145.655 54.7168 142.816 45.6346 137.14 45.9586C137.87 47.4189 133.409 46.8508 129.68 57.7982C127.246 64.9342 131.544 63.475 134.463 65.0163C134.382 65.5833 132.923 66.6374 133.49 66.7184C139.897 68.0977 145.249 65.6643 145.006 64.4482Z" fill="#B4C2E3"/>
<path d="M216.61 55.9346C212.313 54.6374 217.179 46.1221 214.583 45.7984C214.015 45.0681 215.069 43.6899 215.961 42.9601C216.61 42.3919 215.637 34.9318 222.207 41.4994C223.908 43.8517 218.557 56.7454 216.61 55.9346Z" fill="#B4C2E3"/>
<path d="M215.476 16.6036C215.638 16.9277 215.395 17.3338 215.071 17.5768C214.584 17.9818 214.178 18.4689 213.772 18.8739C213.691 18.9549 213.529 19.118 213.367 19.118H213.205C213.043 19.361 212.799 19.604 212.637 19.8471C211.421 21.4693 209.961 22.8475 208.583 24.3077C206.15 26.74 203.555 29.0103 201.285 31.6057C199.176 34.039 197.067 36.4713 194.878 38.7416C194.473 39.2287 193.986 39.7147 193.662 40.2018C193.581 40.5259 193.257 40.5259 193.095 40.3638C193.013 40.3638 192.851 40.2828 192.77 40.2018C191.148 38.8226 189.445 37.5255 187.742 36.2283C185.229 34.6061 182.633 32.9838 180.119 31.2816C178.903 30.4705 177.687 29.4974 176.47 28.6053C176.389 28.6863 176.308 28.6863 176.227 28.6863C175.902 28.6863 175.659 28.4432 175.659 28.1192C175.578 28.1192 175.497 28.0371 175.497 27.9561C175.416 27.8751 175.416 27.7131 175.497 27.5511C175.578 27.4701 175.659 27.4701 175.821 27.4701C175.983 27.1461 176.308 26.821 176.551 26.578C177.037 26.173 177.525 24.8747 178.255 25.1188C179.552 23.9826 180.768 22.7665 182.147 21.6313C181.741 20.9822 182.552 20.5772 182.957 20.1722C183.525 19.604 184.011 19.0359 184.579 18.4689C187.58 15.2255 190.985 12.3871 193.905 9.06161C196.662 6.5483 199.257 3.70991 202.177 1.27761C203.312 0.0603993 204.123 -0.425634 205.096 1.35862C205.825 2.41276 206.555 3.5479 207.124 4.68305C207.61 4.84506 207.691 5.33215 208.015 5.65618C208.745 6.38629 209.556 7.19741 210.124 8.08847C212.232 10.6028 213.772 13.5222 215.476 16.2796C215.395 16.4416 215.476 16.5226 215.476 16.6036Z" fill="#B4C2E3"/>
<path d="M84.5123 78.5598C84.2693 78.5598 84.0263 78.3978 83.9442 78.2358C83.6202 78.1548 83.4581 77.9107 83.2151 77.6677C82.971 77.5867 82.809 77.4247 82.647 77.2627C81.7549 76.1275 81.1879 74.5863 81.1069 73.1271C78.5115 73.4512 77.3763 69.0715 79.7276 68.0995C79.9706 67.2884 81.0258 66.6392 81.8359 67.1263C82.161 67.1263 82.485 67.2073 82.809 67.3694C82.971 67.4504 83.0531 67.5314 83.2151 67.6934C83.5392 68.0174 83.9442 68.3425 84.0263 68.8285C84.1073 68.9095 84.1883 69.0715 84.1883 69.2346C84.2693 69.1536 84.2693 69.1536 84.3503 69.0715C84.4313 68.9905 84.5123 68.9905 84.6743 68.9905C84.8363 68.7475 85.1614 68.7475 85.4044 68.6665C86.0535 68.4235 86.7016 68.5045 87.2697 68.7475C87.7557 67.9364 89.3779 68.9095 89.945 69.2346C90.2701 69.4776 90.6751 69.4776 90.9181 69.8017C91.1622 69.9637 91.4862 70.1267 91.4862 70.4508C91.4862 70.8558 91.0812 71.1809 90.6751 71.0178C90.3511 71.1809 90.0271 71.3429 89.621 71.5049C89.459 71.9099 89.3779 72.397 89.1349 72.8021C89.0539 72.9641 88.9729 73.1271 88.8098 73.2892C88.8908 73.8562 89.0539 74.3433 88.9729 74.9103C88.8908 75.4784 87.9987 75.4784 87.9177 74.9103C87.8367 74.8293 87.7557 74.6673 87.6747 74.5863C87.4317 74.0182 86.8636 74.1003 86.3775 74.1813C86.0535 74.5863 85.7284 74.9913 85.4044 75.3974C85.4854 76.0455 85.6474 76.6946 85.4854 77.3437C85.4854 77.8297 85.2424 78.6409 84.5123 78.5598Z" fill="#57419A"/>
<path d="M139.736 35.2565C142.818 36.5537 139.168 38.4189 140.222 40.2842C137.871 40.3652 139.087 40.5272 139.25 43.0416C139.412 45.6359 138.033 45.5549 137.222 46.204C136.574 46.69 136.493 47.5011 136.736 49.1234C136.574 51.3937 133.411 50.7456 130.492 51.5557C129.275 51.8808 127.897 54.3131 126.843 53.5829C124.085 51.6367 127.411 46.8531 130.897 41.5813C131.87 40.0412 133.816 36.6347 136.006 35.0945C137.466 34.1214 138.682 34.6884 139.736 35.2565Z" fill="black"/>
<path d="M84.4301 79.5302C83.0519 79.5302 78.7533 77.827 77.8612 78.5571C71.0503 60.7167 39.9101 73.1244 52.6418 92.505C57.8315 100.452 68.0499 100.128 74.1317 95.1003C78.2673 95.5864 85.1602 96.0735 83.295 90.5587C81.5107 91.8558 79.9695 92.586 76.321 92.829C78.7533 89.7476 79.8885 85.612 78.5103 80.9084C78.4293 80.6654 78.3483 80.4223 78.3483 80.1793C78.4293 80.2603 78.4293 80.3413 78.5103 80.4223C79.9695 80.6654 85.6462 82.1256 84.4301 79.5302Z" fill="#B4C2E3"/>
<path d="M140.629 59.0152C140.305 58.7722 140.386 58.3661 140.467 57.9611C140.548 57.393 140.629 56.826 140.629 56.2579C140.629 55.5288 140.467 54.7987 140.305 53.9876C140.224 53.7445 140.143 53.4195 140.305 53.1764C139.899 52.3653 139.575 51.4732 139.007 50.7441C138.683 50.257 138.278 49.933 137.871 49.5269C137.628 49.2839 137.385 48.9599 137.06 48.7169C136.979 48.7169 136.898 48.5538 136.817 48.4728C136.655 48.3108 136.655 47.9868 136.817 47.8248C136.817 47.4997 136.574 47.0946 136.736 46.7706C136.655 46.5265 136.979 46.2835 137.223 46.3645C137.79 46.2835 138.278 47.1756 138.602 47.5817C139.251 48.3918 139.899 49.2839 140.386 50.176C140.953 50.8252 141.278 51.6363 141.602 52.3653C141.926 53.1764 142.007 54.0686 142.089 54.9607C142.251 55.9338 142.656 56.907 142.575 57.8801C142.494 58.2851 142.007 58.4471 141.683 58.2851C141.683 58.9342 141.197 59.5013 140.629 59.0152Z" fill="#FFC540"/>
<path d="M220.097 26.253C220.746 26.9021 223.098 30.3076 222.936 30.4696C221.801 31.3617 207.772 24.0638 211.339 22.1175C213.366 20.8203 218.719 24.2258 220.097 26.253Z" fill="#B4C2E3"/>
<path d="M201.122 33.7136C201.203 33.7946 201.203 33.8756 201.122 34.0376C201.041 34.1996 200.879 34.3627 200.717 34.5247C200.473 34.6867 200.23 34.8487 200.068 35.0917C199.987 35.1727 199.987 35.2548 199.987 35.2548C199.987 35.3358 199.906 35.3358 199.906 35.4168C199.825 35.4978 199.663 35.4978 199.581 35.4978C199.418 35.4168 199.418 35.1727 199.499 35.0917C199.581 34.8487 199.744 34.6867 199.906 34.4437C199.987 34.2817 200.068 34.1996 200.149 34.0376L200.23 33.9566C200.311 33.7946 200.392 33.6326 200.554 33.5516C200.717 33.3896 200.96 33.4706 201.122 33.7136Z" fill="#57419A"/>
<path d="M215.8 33.3906C216.124 33.6336 216.449 33.9587 216.286 34.3638C216.205 34.4448 216.205 34.5258 216.124 34.6068C216.043 34.6878 215.962 34.6878 215.881 34.7688C215.476 34.8498 214.908 35.0129 214.584 35.1749C213.611 35.4989 212.719 35.8229 211.746 36.148C210.854 36.31 209.962 36.472 209.069 36.553C207.529 36.7151 205.907 36.9591 204.367 36.7151C204.042 36.7151 203.718 36.634 203.394 36.553C202.338 36.229 201.284 35.6609 200.149 35.4989H199.663C199.501 35.4989 199.42 35.1749 199.663 35.1749H199.825C199.744 34.9319 199.744 34.7688 199.825 34.5258C199.906 34.3638 199.987 34.2828 200.068 34.1207C200.23 33.9587 200.474 33.8767 200.717 33.7957H201.041C201.933 33.8767 202.826 34.0397 203.718 34.1207C205.502 34.4448 207.285 34.3638 209.069 34.2017C209.556 34.2017 210.043 33.9587 210.53 33.8767C211.34 33.7957 212.07 33.6336 212.8 33.3096C213.449 33.0666 214.097 33.0666 214.746 32.8225C215.232 32.7415 215.476 33.1476 215.8 33.3906Z" fill="#B4C2E3"/>
<path d="M159.036 76.1264C160.009 79.3698 159.117 82.6953 158.306 85.7767C158.144 87.3169 158.144 88.9391 157.658 90.3983C157.576 90.6424 157.414 90.8854 157.171 90.9664C156.766 91.0474 156.36 91.1284 155.874 91.2904C155.468 91.3714 154.982 91.6965 154.658 91.2904C154.576 91.1284 154.495 91.0474 154.495 90.8044C154.414 90.3173 154.333 89.7502 154.171 89.2631C153.765 87.3979 153.197 85.6147 152.711 83.7494C152.386 82.6143 152.305 81.3161 151.819 80.1809C151.089 78.9648 149.873 77.9106 148.494 77.3425C147.359 76.8565 146.142 76.6945 145.007 76.4504C144.926 79.0458 145.007 81.5591 145.25 84.1544C145.412 85.5326 145.574 86.8308 145.737 88.209C145.737 89.7502 145.574 91.2904 145.412 92.7506C145.169 94.3718 145.169 95.994 145.169 97.6163C145.088 99.3185 145.493 102.725 143.061 102.806C142.007 102.887 140.791 102.725 140.061 101.833C138.925 100.292 138.763 98.1833 138.519 96.3181C138.195 93.4797 138.033 90.7234 137.952 87.885C137.79 85.2086 137.384 82.5322 136.654 79.9379C135.925 77.5045 134.465 75.4773 133.654 73.045C133.33 72.1528 133.249 71.1797 133.168 70.2066C133.006 69.3144 133.168 68.3413 133.33 67.4492C133.411 67.2872 133.492 67.2062 133.654 67.2062H133.898C133.979 66.5571 134.709 66.5571 135.114 66.8011C135.844 66.9632 136.492 67.0442 137.222 67.1252C138.276 67.2062 139.412 67.0442 140.466 66.8822C141.601 66.6381 142.655 66.071 143.71 65.5839C145.899 64.5298 145.25 65.99 146.547 66.9632C147.765 67.7743 148.819 68.7474 149.954 69.7205C151.089 70.6937 152.386 71.3417 153.684 72.0718C154.658 72.6389 155.631 73.207 156.685 73.7751C157.658 74.3421 158.712 74.9102 159.036 76.1264Z" fill="#FFC100"/>
<path d="M90.268 84.4789C91.1601 90.5607 91.9712 98.5077 91.1601 104.266C85.2403 102.887 87.3486 104.996 86.3755 107.996C86.3755 107.996 79.1585 105.725 76.4821 101.751C75.671 100.535 75.752 96.6425 75.9961 95.7503C76.1581 95.0213 86.2135 96.3995 83.3751 90.6417C83.3751 90.6417 79.8886 93.3181 76.2391 92.912C76.2391 92.912 77.5363 88.7764 78.5904 85.695C80.2127 80.9104 88.5648 76.2888 90.268 84.4789Z" fill="#FFC100"/>
<path d="M230.721 38.2566C230.883 38.4996 231.045 38.6616 231.126 38.9057C231.289 40.2029 229.748 40.5269 229.667 40.5269C228.289 41.7441 219.53 36.3104 217.908 35.0132C217.178 40.3649 214.989 44.2574 211.664 48.1499C211.34 49.5281 207.529 46.6087 207.367 45.9607C205.421 44.5004 198.933 41.014 201.528 36.5534C206.312 36.5534 212.394 37.1215 216.854 34.1211C216.124 33.634 215.476 33.0669 214.827 32.4988C208.988 34.8512 203.068 34.1211 202.906 33.8781C202.176 32.6608 205.664 28.6063 207.934 26.498C210.204 24.3898 211.258 22.6055 214.503 24.5518C219.205 26.9851 220.666 28.9314 225.125 33.553C226.585 34.9322 230.153 37.3645 230.721 38.2566Z" fill="#273671"/>
<path d="M209.556 47.906C208.826 49.3652 208.015 55.123 208.097 56.9073C207.367 60.3127 194.148 72.3154 191.797 69.315C191.635 69.1519 191.878 68.5038 191.959 68.2598C194.473 62.34 198.528 59.9077 200.555 54.961C202.339 49.3652 199.825 43.2024 201.528 41.5812C201.933 41.1751 204.366 43.7705 209.556 47.906Z" fill="#B4C2E3"/>
<path d="M140.629 102.885C140.629 102.885 140.548 106.616 141.926 106.454C143.305 106.291 145.494 105.156 145.738 104.913C145.981 104.67 147.684 103.128 147.684 103.128C147.684 103.128 147.522 101.831 146.306 102.642C145.089 103.453 143.791 104.263 143.143 102.804C142.818 102.155 140.629 102.804 140.629 102.885Z" fill="#FFC100"/>
<path d="M154.982 91.6953C154.982 91.6953 154.658 94.0466 155.306 94.0466C155.956 94.0466 159.442 93.5606 160.091 92.9115C160.74 92.2634 161.875 90.4792 160.334 91.0462C158.794 91.6143 157.659 92.5064 157.415 91.2903L154.982 91.6953Z" fill="#FFC100"/>
<path d="M224.881 16.6855C225.124 17.1715 225.935 17.9016 225.286 18.3887C224.962 18.6317 224.557 18.4697 224.395 18.1446C223.584 17.9826 222.692 17.6586 221.8 17.7396C221.557 18.3887 221.15 18.8748 220.502 19.0368C220.664 20.0099 219.853 21.064 219.285 19.6859C219.123 19.7669 218.961 19.6859 218.799 19.6859C219.285 22.5243 215.718 22.9293 216.529 20.659C216.529 20.497 216.529 20.254 216.61 20.0909C214.339 14.7392 221.962 12.2259 224.881 16.6855Z" fill="#FFC100"/>
<path d="M225.774 22.1999C224.801 21.0648 226.098 19.2805 225.125 18.5504C224.639 18.1454 221.396 16.8482 221.558 18.4694C220.423 18.6314 220.179 19.4425 220.423 20.5777C220.179 20.7407 220.016 20.5777 219.773 20.5777C218.314 18.3074 219.124 21.6318 218.314 22.1189C216.611 21.5508 214.259 22.1189 216.287 23.092C217.341 23.3351 217.746 24.3082 218.638 24.7143C219.287 24.7953 219.368 24.0652 219.53 23.5781C219.935 25.0383 222.125 25.4433 223.504 25.3623C224.315 25.0383 224.233 23.4161 224.882 22.849C225.369 23.092 225.936 22.768 225.774 22.1999Z" fill="#955E68"/>
<path d="M236.558 43.3632C236.072 43.2012 235.666 43.0392 235.18 42.8772C235.017 42.9582 234.693 42.8772 234.531 42.7951C233.72 42.4711 232.828 42.1471 232.017 41.741C231.612 41.579 231.207 41.498 230.801 41.336C230.639 41.255 230.396 41.255 230.315 41.0929C230.234 40.9309 230.234 40.6869 230.315 40.5248C230.396 40.3628 230.558 40.3628 230.72 40.1198C230.801 39.9578 230.882 39.8757 230.963 39.7137C231.044 39.5517 231.288 39.4707 231.45 39.4707C231.774 39.4707 232.017 39.7137 232.261 39.8757C232.828 40.0388 233.558 40.2008 233.882 40.7679C234.126 40.8489 234.369 40.9309 234.612 41.0119C235.099 40.9309 235.504 40.9309 235.99 41.0119C236.964 41.0929 238.018 41.0929 238.748 41.822C239.478 42.2281 238.829 43.2012 238.181 42.7951H238.262C238.181 42.7141 238.1 42.7141 238.018 42.6331C237.856 42.5521 237.694 42.3901 237.451 42.3091C237.37 42.3901 237.37 42.4711 237.208 42.4711C237.451 42.9582 237.045 43.5252 236.558 43.3632Z" fill="#955E68"/>
<path d="M141.033 48.3118C139.736 47.9878 134.708 45.3924 138.763 45.5544C139.736 45.5544 139.492 43.1221 139.492 43.1221C137.952 41.4189 137.952 39.7156 140.384 40.2837C139.249 38.3375 140.384 37.2023 141.438 36.5532C141.438 36.5532 143.953 37.8504 144.764 38.4995C145.169 38.8235 144.845 39.9597 145.169 40.6078C146.466 43.2031 142.087 43.9333 142.006 44.5813C141.925 45.5544 142.736 48.9609 141.033 48.3118Z" fill="#D69F69"/>
<path d="M141.115 63.8818C140.628 63.7198 140.71 63.1517 140.872 62.7466C140.547 62.2595 140.71 61.6925 140.466 61.2054C139.574 61.0434 139.818 59.5842 140.71 59.7462C140.791 59.0971 141.358 58.5301 142.007 58.6921C142.493 58.5301 142.899 58.7731 143.304 59.0161C143.791 59.1781 143.953 59.8272 144.115 60.2323C144.277 60.7194 144.601 61.2864 144.196 61.6925C144.115 62.1785 143.953 62.6656 143.466 62.9897C142.899 63.3958 142.25 63.6388 141.601 63.8008C141.601 63.9628 141.358 63.9628 141.115 63.8818Z" fill="#D69F69"/>
<path d="M88.3243 79.4514C88.1623 80.1815 82.6475 82.4518 85.5669 76.451C85.2429 73.6126 87.1892 73.5316 87.9193 74.4237C88.3243 74.9918 88.8924 76.046 88.7293 73.8556C89.2974 71.3423 90.5946 70.4502 91.4057 71.0993C91.8928 71.4233 92.3788 73.5316 92.6219 73.3696C93.757 72.4775 94.0821 74.6668 93.676 75.1539C92.8659 76.127 93.0279 76.613 93.109 77.1811C93.109 77.1001 91.8118 81.4787 88.3243 79.4514Z" fill="#FCC6A7"/>
<path d="M91.6483 109.94C89.864 104.426 91.8915 103.291 85.5667 104.102C87.1063 106.616 86.6206 114.319 89.702 113.428C89.8637 113.346 90.1889 112.94 90.3509 113.672C91.8101 113.671 91.8105 111.076 91.6483 109.94Z" fill="#FCC6A7"/>
<path d="M74.1321 114.888C73.9701 114.077 74.3751 113.347 74.4562 112.537C74.1321 113.266 73.483 114.969 72.5909 115.131C71.9428 115.05 72.2669 114.32 72.4289 113.915C72.5099 113.591 72.6719 113.266 72.754 112.861C72.3479 113.347 72.2669 114.077 71.8618 114.564C71.6178 114.726 71.2127 114.483 71.2937 114.239C71.6998 113.185 71.9428 112.131 72.5099 111.158C72.997 110.185 73.402 109.212 73.8891 108.319C74.2131 107.59 74.5372 107.346 75.2673 107.833C75.7544 107.833 75.9974 108.238 76.3214 108.564C76.4834 108.726 76.7275 108.807 76.8085 109.05C77.1325 109.374 77.3755 109.861 76.9705 110.185C77.1325 111.077 77.1325 111.888 76.8895 112.78C76.8085 113.104 76.7275 113.591 76.3214 113.672C76.0784 113.753 75.7544 113.591 75.6734 113.266C75.5913 113.672 75.4293 114.077 75.2673 114.483C75.1863 114.726 75.1053 114.969 74.9433 115.212C74.7002 115.293 74.2131 115.212 74.1321 114.888Z" fill="#FCC6A7"/>
<path d="M75.2671 105.401L74.2939 107.428L76.4022 108.401L75.2671 105.401Z" fill="#FFC540"/>
<path d="M80.6191 143.026C81.1052 145.865 83.6195 148.459 84.9977 146.595C85.2418 146.27 87.7551 144.73 84.6737 144.973C80.6191 144.973 83.4575 141.485 80.6191 143.026Z" fill="#FFC100"/>
<path d="M97.001 131.673C97.244 132.727 97.8931 134.835 98.4601 135.728C99.1903 135.323 102.84 134.835 101.38 133.619C98.2171 134.349 99.4333 130.943 97.001 131.673Z" fill="#FFC100"/>
<path d="M191.634 69.6392C191.634 69.6392 190.256 71.7474 192.283 72.3155C194.311 72.8826 196.662 70.8553 196.662 70.8553C196.662 70.8553 195.121 70.6933 194.392 70.3693C193.662 70.0442 192.688 69.6392 192.688 69.6392H191.634Z" fill="#273671"/>
<path d="M229.263 102.482C229.182 102.401 229.263 102.401 229.263 102.482C229.263 102.401 229.263 102.401 229.263 102.482Z" fill="black"/>
<path d="M91.1605 70.4491C88.9712 66.9616 84.5106 69.638 83.8625 68.5028C82.6453 64.6103 77.0506 68.6648 78.4287 71.5032C78.9158 72.4763 81.3481 73.2065 81.3481 73.2065C81.1861 74.9907 82.8084 77.747 84.4295 78.2341C86.6188 78.9642 83.8625 71.1792 88.4841 75.1527C89.0522 70.6921 90.9175 72.1523 91.1605 70.4491ZM88.3221 70.1251C88.2411 70.1251 88.2411 70.2061 88.3221 70.1251V70.1251Z" fill="#3C3D56"/>
<path d="M217.989 102.725C218.07 102.644 218.07 102.644 217.989 102.725C218.07 102.644 218.151 102.725 218.151 102.725C218.151 102.806 218.151 102.806 218.07 102.806C218.07 102.725 217.989 102.725 217.989 102.725Z" fill="black"/>
<path d="M218.232 103.131C217.99 103.131 218.152 102.887 218.233 102.644C218.314 102.644 218.395 102.644 218.476 102.725C218.394 102.807 218.394 102.887 218.313 102.968C218.313 103.049 218.313 103.13 218.232 103.131Z" fill="black"/>
<path d="M221.233 112.861C211.827 107.671 218.557 98.9129 226.423 98.6699C233.235 104.265 229.749 114.483 221.233 112.861Z" fill="#B4C2E3"/>
<path d="M219.693 112.211C217.179 110.022 215.07 105.48 218.233 103.129C221.72 104.183 222.693 110.022 219.693 112.211Z" fill="white"/>
<path d="M226.749 112.374H226.748V112.375H226.749V112.374Z" fill="black"/>
<path d="M224.152 19.8474C224.314 19.9285 224.314 20.2526 224.071 20.3336C223.503 20.3327 222.935 20.5772 222.368 20.7393C221.72 20.6582 222.692 19.847 222.936 19.7664C223.342 19.6854 223.828 19.6854 224.152 19.8474Z" fill="black"/>
<path d="M223.909 20.5783C224.152 20.6593 223.99 21.1464 223.747 21.0643C223.341 20.9833 223.504 20.4163 223.909 20.5783Z" fill="black"/>
<path d="M135.032 64.8525H135.031V64.8536H135.032V64.8525Z" fill="black"/>
<path d="M144.277 65.2593H144.276V65.2603H144.277V65.2593Z" fill="black"/>
<path d="M145.17 68.9893H145.169V68.9903H145.17V68.9893Z" fill="black"/>
<path d="M141.601 38.581C141.925 38.5 142.087 38.8241 141.925 39.0671C141.763 39.3112 141.601 39.5542 141.601 39.8782L141.52 39.9592C141.115 39.7162 141.196 38.7431 141.601 38.581Z" fill="black"/>
<path d="M142.736 39.31C143.06 39.553 142.736 40.0401 142.412 39.796C142.087 39.634 142.412 39.1479 142.736 39.31Z" fill="black"/>
<path d="M89.5389 104.428C88.5657 104.509 87.5926 104.59 86.7005 104.347C86.2954 104.266 85.9704 104.023 85.5653 104.023C85.4843 104.023 85.4033 103.942 85.4033 103.86C85.4033 103.617 85.7273 103.698 85.8894 103.698C86.4575 103.779 87.0245 103.698 87.5116 103.698C88.4037 103.698 89.2148 103.779 90.107 103.617C90.35 103.617 90.512 103.942 90.269 104.104C90.107 104.428 89.7819 104.428 89.5389 104.428Z" fill="black"/>
<path d="M88.9715 101.832C88.0794 101.832 87.1872 101.832 86.2951 101.751C86.0521 101.751 85.7281 101.67 85.484 101.67H85.322C85.16 101.589 85.322 101.346 85.484 101.427C86.0521 101.264 86.6202 101.427 87.2683 101.427H88.6475C88.8905 101.427 89.1335 101.264 89.3765 101.427C89.4575 101.589 89.2145 101.832 88.9715 101.832Z" fill="black"/>
<path d="M89.0527 101.832C88.0796 101.913 87.0254 101.913 86.0523 101.832C85.8093 101.751 85.4842 101.751 85.3222 101.67C85.2412 101.67 85.1602 101.589 85.1602 101.508C85.1602 101.102 86.7014 101.427 87.1064 101.346C87.7555 101.346 88.3226 101.346 88.9717 101.264C89.1337 101.264 89.2147 101.183 89.2957 101.264C89.5387 101.346 89.5387 101.751 89.2957 101.832H89.0527Z" fill="black"/>
<path d="M88.4849 103.211C87.8358 103.292 87.8358 102.076 88.4849 102.319C89.053 102.157 89.053 103.211 88.4849 103.211ZM88.5659 102.968C88.9709 102.725 88.5659 102.4 88.4039 102.481C88.2419 102.643 88.1609 103.13 88.5659 102.968Z" fill="black"/>
<path d="M76.889 109.048C76.0779 108.643 75.3478 108.075 74.5377 107.589C74.3747 107.507 74.1316 107.426 74.2936 107.264H74.4567C75.0238 107.507 75.6729 107.67 76.2399 107.913C76.565 108.075 77.4571 108.48 77.213 108.967C77.213 109.048 77.051 109.129 76.889 109.048Z" fill="black"/>
<path d="M230.721 105.319C230.559 103.778 229.829 102.481 229.099 101.183C228.451 100.048 227.64 98.8311 226.504 98.2641C226.017 98.021 225.45 98.1021 224.963 98.1831C224.234 98.2641 223.585 98.5071 222.936 98.7501C221.639 99.3992 220.342 100.21 219.205 101.183C215.962 103.941 216.043 106.454 216.854 108.724C217.259 109.861 217.746 110.915 218.557 111.807C219.287 112.698 220.261 113.104 221.315 113.347H221.477C224.639 113.834 227.235 112.698 228.532 111.401C229.099 110.834 229.586 110.266 229.991 109.536C230.802 108.319 230.883 106.778 230.721 105.319ZM219.855 111.888C219.855 111.888 217.341 109.861 217.097 106.86C217.016 105.968 217.178 105.076 217.584 104.184C218.151 103.211 218.881 103.86 218.881 103.86C222.936 106.941 220.017 111.725 219.855 111.888ZM229.505 107.995C228.289 112.212 223.828 112.698 223.828 112.698C223.179 112.861 222.612 112.779 221.963 112.698C221.558 112.617 221.152 112.536 220.747 112.374C220.828 112.212 220.909 111.969 220.99 111.807C221.234 111.32 221.396 110.834 221.477 110.59C221.639 110.104 221.72 109.698 221.801 109.212C221.882 108.805 221.963 108.4 221.882 107.995C221.882 107.751 221.882 107.589 221.801 107.346C221.801 107.103 221.72 106.86 221.639 106.616C221.234 105.076 220.017 103.373 218.638 102.887C218.638 102.805 220.261 101.264 222.288 100.129C223.504 99.3992 224.477 99.0752 225.612 98.9942C226.504 98.9132 227.397 100.453 227.721 100.859C229.262 102.805 230.235 105.481 229.505 107.995Z" fill="black"/>
<path d="M203.637 30.7129C202.826 31.5241 202.096 32.3352 201.286 33.1452C201.61 33.1452 202.015 33.2273 202.34 33.3083C202.745 32.4162 203.151 31.6051 203.637 30.7129ZM209.07 47.9042C206.313 46.12 203.88 43.8497 201.529 41.5794C202.015 60.717 199.501 54.3921 191.878 68.907V68.988C191.959 68.988 191.959 69.0701 191.959 69.1511C197.231 69.6372 205.745 60.798 206.88 58.7707C209.314 54.6351 207.691 51.4727 209.07 47.9042ZM211.016 23.658C210.854 23.577 210.692 23.577 210.53 23.496C210.206 23.901 209.8 24.225 209.476 24.6311C209.962 24.225 210.449 23.901 211.016 23.658ZM216.043 34.1994C215.638 33.7943 215.233 33.3893 214.827 32.9832C210.53 34.7675 205.259 35.0915 200.717 33.8753C200.312 34.2814 199.906 34.6865 199.501 35.0915C204.853 36.9568 210.935 36.7137 216.043 34.1994ZM217.666 35.8216C217.666 35.6596 217.747 35.4976 217.747 35.4166C217.423 35.2546 217.017 35.0105 216.774 34.8485C212.152 37.0378 206.718 37.8489 201.691 36.6327C201.205 37.3628 201.041 38.498 201.122 39.3091C201.448 41.6604 208.503 46.8501 210.53 48.0662C210.935 48.3103 211.503 48.2293 211.827 47.8232C214.746 44.3368 216.855 40.2822 217.666 35.8216ZM215.314 16.9271L215.395 16.8461C211.584 11.4134 207.61 6.14161 203.799 0.627909C200.96 3.38529 198.041 6.14161 195.122 8.81799C188.392 14.8998 182.391 21.7117 175.579 27.7125C181.418 31.8481 187.5 35.7406 193.175 40.2012C200.312 32.2542 207.853 24.6311 215.314 16.9271ZM215.962 19.6035C215.881 18.9543 215.8 18.3873 215.881 17.7382C214.665 19.0353 213.53 20.3336 212.314 21.6307C213.043 21.6307 213.611 21.7117 214.26 21.8737C214.908 22.0357 215.638 21.8737 216.043 21.3067C216.126 21.2246 216.126 21.2246 216.207 21.2246C215.962 20.7386 215.962 20.1705 215.962 19.6035ZM222.369 29.9828C221.801 28.5237 219.612 25.6043 217.909 24.3071C215.962 22.8469 213.53 21.8737 211.908 21.8737C211.422 21.8737 211.016 22.6849 210.773 23.0089C212.395 23.1709 215.314 24.3071 217.423 25.9283C219.936 27.7935 222.369 29.9828 222.369 29.9828ZM222.288 43.2016C221.882 40.3633 219.45 40.0382 217.747 39.065C216.693 41.4174 215.962 43.4447 214.503 45.4719C214.665 45.5529 214.989 45.6339 215.152 45.7959C215.152 45.4719 215.557 43.8497 215.638 44.7418C215.314 48.4723 214.908 50.4996 214.827 53.176C215.314 56.2574 217.18 56.2574 218.315 54.4731C219.693 52.2028 222.612 45.6339 222.288 43.2016ZM223.748 17.8192C227.721 19.4414 223.667 14.3328 221.315 14.7378C217.747 14.0077 215.719 17.2511 216.936 20.4146C217.017 20.8196 217.017 21.1436 216.693 21.4687V21.5497C218.072 22.1168 218.558 21.4687 218.558 20.0895C218.882 19.1164 219.855 19.4414 220.099 20.2515C220.261 19.3604 220.017 18.4683 221.234 18.4683C221.477 17.4142 222.774 17.3332 223.748 17.8192ZM228.775 36.5517C224.64 34.3624 219.531 25.5233 211.908 23.82C207.934 25.7663 204.853 29.2538 203.069 33.3893C206.799 34.0374 210.773 33.5513 214.422 32.3352C210.854 28.1176 228.289 44.0117 230.883 39.3901C230.964 39.2281 230.964 38.984 230.883 38.822C230.64 38.417 229.992 37.2008 228.775 36.5517ZM236.965 43.2016C237.371 43.1196 236.965 42.6335 237.047 42.3905C236.884 42.2285 235.993 42.1464 236.56 41.9844C237.371 41.7414 238.183 42.2285 238.912 42.5525C237.29 39.5521 235.83 42.9576 231.533 39.6331C231.209 40.1192 230.964 40.4443 230.64 40.7683C232.749 41.4174 234.695 42.7955 236.965 43.2016ZM239.318 42.3095C239.804 43.5257 238.264 42.9576 237.695 42.7145C237.938 45.3099 231.128 41.6604 229.91 41.2554C225.775 41.3364 222.207 37.6059 218.639 35.8216C218.639 36.6327 218.315 37.6869 217.99 38.66C223.667 40.0382 223.829 44.2558 221.558 48.7153C220.423 51.2297 219.612 54.3921 217.504 56.2574C217.423 58.2037 221.477 57.2305 221.072 59.0137C220.585 59.1768 220.342 58.4467 219.774 58.3657C218.639 58.1226 217.017 57.6355 217.261 56.3384C216.855 56.4194 216.45 56.3384 216.043 56.1764C216.043 58.5277 214.989 58.7707 217.828 59.2578C218.639 59.4198 219.45 59.5818 220.261 59.2578C220.909 60.879 215.881 59.9058 215.395 59.0137C215.07 58.0406 215.476 56.9864 215.719 56.0133C213.287 53.662 215.233 49.4455 215.233 46.4451C214.908 46.3641 214.665 46.12 214.341 45.958C213.206 47.4992 211.908 50.0935 209.8 48.2293C208.746 51.1487 209.638 54.3111 208.584 57.2305C205.826 63.1503 199.501 66.7988 194.149 69.7992C195.041 70.3673 196.176 70.1242 197.231 70.0432C198.528 71.0153 193.663 70.9343 193.825 69.7992C193.257 70.0432 192.608 69.7992 192.04 69.6372C191.067 71.4214 192.527 72.3945 194.231 71.6644C194.312 71.5834 194.474 71.6644 194.555 71.7454C194.231 73.2057 189.446 72.4755 191.716 69.3941C192.121 64.7715 196.744 61.2851 199.095 57.4735C202.34 51.8778 200.798 42.8766 201.286 41.0923C200.231 39.7141 200.636 37.8489 201.367 36.3897C200.636 36.1456 200.068 35.9836 199.258 35.5786C197.636 36.7947 194.798 41.0923 193.094 41.1744C186.932 37.2008 181.174 32.6592 175.173 28.3616C174.768 28.1986 174.444 27.5505 175.011 27.3885C184.256 17.9002 194.312 9.14201 203.637 -0.345225C203.88 -0.670313 204.448 -0.507236 204.529 -0.102208C208.584 5.33156 212.314 10.9263 216.288 16.36C217.99 12.3044 227.235 14.1697 225.613 18.6303C225.937 19.3604 225.694 20.0895 225.694 20.8196C225.937 21.7927 226.667 23.415 224.964 23.1709C225.046 27.3885 218.72 25.8473 218.963 22.6039C218.963 22.1978 219.531 21.6307 219.612 22.2798C218.477 24.3071 223.18 26.4964 223.991 24.5501C223.343 24.5501 222.288 24.225 222.288 23.496C222.855 23.496 223.586 24.063 224.316 23.901C224.397 23.658 224.397 23.415 224.478 23.1709C222.45 22.8469 224.964 22.6849 225.532 22.7659C225.775 22.1978 225.046 21.7117 225.046 21.1436C224.883 20.4146 225.127 19.6035 225.046 18.7923C223.991 18.7923 222.855 17.5762 221.882 18.3063C222.126 19.1164 221.153 19.1974 220.666 19.3604C220.909 20.0085 220.828 21.3067 219.855 21.0626C219.369 20.9006 219.531 20.1705 219.126 19.9275C218.477 21.7927 219.45 22.9279 216.288 22.1168C216.126 22.2798 215.881 22.3608 215.719 22.4418C216.531 22.8469 217.99 23.577 218.882 24.3881C222.126 27.6315 223.91 32.1721 227.721 35.0105C229.1 36.3087 230.964 37.2008 231.614 39.146C234.776 41.7414 237.857 39.6331 239.318 42.3095Z" fill="black"/>
<path d="M215.719 55.8535L215.395 58.5299C215.395 58.5299 215.557 59.2589 217.097 59.503C218.557 59.827 219.206 59.9081 219.935 59.746C220.665 59.584 221.395 58.5299 220.097 58.2048C218.8 57.8808 217.26 57.8808 217.341 55.9345L215.719 55.8535Z" fill="#273671"/>
<path d="M63.7512 243.499C63.5891 243.337 63.5891 243.094 63.7512 242.931C64.7243 241.877 65.6164 240.742 66.5085 239.688C68.2928 237.498 70.4011 235.552 72.4283 233.606C74.6176 231.579 76.8069 229.551 78.9152 227.524C80.5374 225.983 82.1597 224.443 83.8618 222.82C86.4572 220.307 89.1336 217.874 91.7279 215.361C95.0523 212.522 98.4588 209.765 101.945 207.169C105.514 204.575 109.244 202.061 112.812 199.466C115.812 197.358 118.894 195.493 121.894 193.466C126.274 190.789 130.571 188.032 135.275 186.005C136.572 185.438 137.87 184.788 139.248 184.302C141.925 183.247 144.762 182.599 147.6 182.112C150.196 181.626 152.79 181.464 155.385 181.139C158.143 180.653 160.9 180.166 163.576 179.518C166.576 178.788 169.414 177.571 172.253 176.273C177.93 173.76 182.957 170.272 187.742 166.38C188.634 165.57 189.606 164.84 190.498 164.029L190.58 163.948C189.363 163.624 188.228 162.974 186.85 161.839C185.389 160.623 184.254 159.082 183.281 157.461C182.227 155.839 181.254 154.216 180.362 152.514C179.47 150.649 178.011 147.972 178.741 145.864C178.416 145.54 178.173 145.215 177.93 144.81C177.93 144.729 177.848 144.729 177.848 144.648C177.848 144.567 177.767 144.567 177.767 144.485C177.686 144.404 177.686 144.323 177.686 144.242C177.686 144.161 177.604 143.999 177.604 143.918C177.523 143.999 177.442 144.08 177.361 144.161C177.199 144.404 176.956 144.567 176.713 144.729C176.388 144.972 176.145 145.296 175.821 145.54C175.334 145.945 174.929 146.35 174.442 146.756C174.361 146.837 174.28 146.918 174.118 147.08C173.388 147.729 172.658 148.377 171.929 149.027C171.199 149.676 170.468 150.243 169.739 150.892C169.009 151.541 168.279 152.108 167.468 152.595C166.009 153.649 164.468 154.622 162.846 155.432C161.224 156.325 159.521 157.136 157.819 157.785C156.197 158.433 154.574 158.92 152.872 159.325C152.061 159.488 151.25 159.65 150.439 159.812C149.466 159.974 148.574 160.136 147.6 160.136C145.735 160.298 143.871 160.298 142.006 160.055C140.221 159.893 138.356 159.488 136.653 158.92C135.761 158.596 134.788 158.271 133.978 157.866C133.085 157.461 132.193 156.974 131.382 156.488C130.733 156.082 130.085 155.677 129.436 155.189C129.193 155.027 128.95 154.865 128.706 154.622C128.544 154.46 128.382 154.378 128.22 154.216L128.139 154.135C127.977 154.054 127.895 153.73 128.058 153.568C128.058 153.487 128.058 153.487 128.139 153.487C128.22 153.405 128.382 153.405 128.463 153.487L128.544 153.568C128.544 153.568 128.625 153.568 128.625 153.649H128.787C128.868 153.649 128.868 153.73 128.95 153.73C129.112 153.811 129.193 153.973 129.355 154.054C129.598 154.216 129.841 154.378 130.004 154.541C130.166 154.622 130.409 154.784 130.571 154.865C131.058 155.108 131.463 155.432 131.95 155.677H132.031C132.112 155.758 132.193 155.758 132.274 155.839C132.355 155.92 132.436 155.92 132.517 155.92C132.517 155.92 132.598 155.92 132.598 156.001C132.598 156.082 132.679 156.001 132.679 156.001C132.76 156.082 132.841 156.082 132.923 156.082C133.491 156.406 134.14 156.65 134.707 156.893H134.788C135.924 157.379 137.14 157.785 138.356 158.028H138.437C139.572 158.352 140.788 158.515 141.925 158.677C143.141 158.839 144.357 158.839 145.573 158.839C146.952 158.839 148.331 158.677 149.709 158.515C151.25 158.271 152.709 157.947 154.25 157.542C155.954 157.055 157.656 156.406 159.278 155.677C160.9 154.946 162.44 154.135 163.982 153.243C164.387 153 164.793 152.757 165.117 152.595C165.847 152.108 166.657 151.622 167.387 151.135C168.198 150.568 169.009 150.081 169.82 149.514C170.144 149.27 170.468 149.027 170.794 148.784C171.118 148.458 171.523 148.215 171.848 147.972C172.577 147.323 173.307 146.756 174.037 146.026C174.361 145.702 174.767 145.377 175.091 145.053C175.172 144.972 175.334 144.81 175.415 144.729C175.821 144.323 176.226 143.918 176.631 143.431C176.794 143.269 176.956 143.107 177.118 143.026C177.199 142.945 177.28 142.864 177.361 142.864C177.442 142.783 177.523 142.783 177.523 142.702C177.523 142.702 177.604 142.702 177.604 142.621L177.686 142.54C177.767 140.999 178.579 139.295 180.119 139.052C179.551 138.241 179.227 137.187 179.227 136.133C179.146 135.971 179.389 134.836 179.47 134.755C179.795 134.025 180.605 132.808 181.579 132.159C181.984 131.835 182.47 131.51 182.876 131.267C183.038 131.186 183.2 131.105 183.362 131.024C183.524 130.943 183.606 130.862 183.768 130.781C186.201 129.24 188.877 128.186 191.634 127.456C194.472 126.646 197.31 125.916 200.148 125.509C203.879 124.861 207.691 124.212 211.42 123.482C214.015 122.834 216.53 121.861 219.043 120.969C220.584 120.32 222.124 119.753 223.666 119.023C225.369 118.049 227.071 116.914 228.531 115.698C229.828 114.481 231.045 112.941 231.775 111.319C232.343 110.183 232.91 108.967 233.234 107.669C233.883 104.751 233.072 101.668 231.451 99.2359C230.478 98.1818 229.098 97.4517 227.639 97.2086C227.558 97.2086 227.477 97.1276 227.396 97.1276C227.233 97.0466 227.152 97.0466 226.99 97.0466C226.828 97.0466 226.666 97.0466 226.423 97.1276C224.152 96.9656 222.043 97.2896 219.854 97.7767C217.503 98.1818 215.15 98.7499 212.88 99.4789C210.285 100.452 207.691 101.344 205.095 102.074H205.014C204.933 102.074 204.933 102.074 204.852 102.155C204.852 102.155 204.771 102.155 204.771 102.236H204.446C204.365 102.236 204.365 102.236 204.284 102.317H204.203C202.257 102.885 200.31 103.371 198.364 103.859C195.608 104.588 192.932 105.237 190.093 105.642C188.715 105.805 187.255 105.967 185.877 106.048H185.715C184.335 106.129 182.957 106.21 181.578 106.21C177.848 106.291 174.199 105.886 170.468 105.805C168.441 105.805 166.414 105.724 164.387 105.642C163.739 105.642 163.09 105.561 162.44 105.561C161.792 105.561 161.224 105.724 160.575 105.724H160.494V105.561C162.521 104.832 164.63 104.832 166.739 104.832C168.847 104.832 170.956 104.994 173.064 105.075C175.01 105.237 176.956 105.318 178.903 105.399C180.93 105.399 182.957 105.318 184.984 105.237C184.497 104.345 184.173 102.966 183.93 102.398C183.524 101.02 183.2 99.723 183.119 98.2628C183.038 97.2896 183.119 96.3975 183.038 95.4244C183.119 95.2624 183.362 95.2624 183.362 95.5054C183.687 97.1276 184.011 98.7499 184.335 100.371C184.66 101.506 184.822 102.641 185.308 103.778C185.47 104.183 185.634 104.588 185.877 104.994C185.877 105.075 185.958 105.156 186.039 105.237C186.363 105.237 186.769 105.156 187.174 105.156C187.174 104.994 187.417 104.832 187.579 104.751C188.066 104.345 188.471 103.94 188.877 103.533C190.417 102.074 191.877 100.533 193.256 98.9929C193.905 98.2628 194.553 97.6137 195.04 96.8036C195.283 96.5595 195.689 96.7215 195.689 97.1276C195.445 97.6137 195.121 98.0198 194.878 98.4248C193.094 100.939 191.228 103.452 188.634 105.075C188.634 105.075 188.552 105.075 188.552 105.156C191.715 104.913 194.797 104.102 197.797 103.371C200.067 102.804 202.338 102.155 204.528 101.506C204.69 101.263 204.852 101.02 205.014 100.777C205.663 99.885 206.392 98.9929 207.041 98.1008C210.042 94.2082 213.691 90.8838 217.584 87.9644C221.07 85.3691 224.558 82.8558 228.206 80.5844C232.748 77.9091 237.695 76.2058 242.56 74.1786C245.073 73.0434 247.669 72.0703 250.101 70.6911C252.29 69.3939 254.237 67.7717 256.183 66.0695C257.481 64.9343 258.859 63.8791 260.076 62.744C260.887 62.0149 261.698 61.2038 262.509 60.3927C263.401 59.5816 264.293 58.6895 265.022 57.7163C265.995 56.3382 267.049 54.96 267.537 53.3378C268.104 51.7155 268.348 49.9313 267.375 48.4721C266.563 47.0129 265.103 46.4448 263.482 46.1208C260.968 45.6337 258.454 46.2828 256.102 47.0939C253.183 48.0671 250.263 48.9581 247.263 49.9313C243.695 51.1485 240.046 51.9596 236.64 53.3378C233.64 54.3919 230.64 55.6081 227.639 56.8242C225.531 57.7973 223.341 58.7705 221.151 59.7436C218.232 60.9608 215.393 62.339 212.556 63.6361C207.853 65.6634 203.392 68.0968 198.851 70.286C195.608 71.9083 192.282 73.4485 189.039 74.9897C186.931 75.9628 184.822 76.8549 182.795 77.9901C178.984 79.8553 175.415 82.2066 171.929 84.6389C169.576 86.4232 167.144 88.1264 164.793 89.8297C164.144 90.2347 163.576 90.6397 162.927 91.0458C161.71 92.343 160.251 93.3971 158.792 94.4513C156.278 96.4785 153.926 98.6678 151.493 100.777C150.277 101.831 148.98 102.804 147.844 103.778C146.708 104.832 145.573 105.886 144.438 106.859C140.871 109.859 137.464 112.941 134.059 116.103C128.058 121.536 122.057 127.051 115.164 131.267C113.785 132.159 112.488 133.051 111.029 133.863C108.838 135.079 106.649 136.133 104.379 137.106C100.405 138.728 96.5126 140.511 92.782 142.621C90.4307 143.999 88.3225 145.621 86.1332 147.161C83.5378 149.108 81.1865 151.216 78.5912 153.162C76.6449 154.541 74.6176 155.839 72.5903 157.136C68.4548 159.569 64.1562 161.758 59.8586 163.786C55.074 165.975 50.1273 167.921 45.2616 169.948C43.0724 170.841 40.8831 171.733 38.6938 172.544C34.6393 174.327 30.5847 176.111 26.4492 177.814C24.6649 178.464 22.9617 179.274 21.1774 180.004C20.7724 180.166 20.3663 180.328 19.9613 180.41C19.7993 180.41 19.7183 180.328 19.6372 180.247C19.5562 180.085 19.6372 179.923 19.7993 179.842C21.2584 179.193 22.6377 178.545 24.0968 177.895C27.0972 176.598 30.0976 175.3 33.098 174.084C34.6393 173.436 36.0984 172.787 37.6397 172.057C39.5859 171.246 41.4512 170.517 43.3974 169.705C48.5061 167.435 53.6958 165.326 58.8045 163.055C67.0756 159.082 75.2667 154.784 82.2407 148.784C85.4031 146.188 88.6465 143.675 92.215 141.567C96.1075 139.376 100.162 137.593 104.298 135.809C107.298 134.511 110.298 133.051 113.056 131.267C114.596 130.213 116.218 129.24 117.758 128.186C122.462 124.861 126.841 121.131 131.139 117.319C134.14 114.725 136.978 111.887 139.978 109.291C143.871 105.967 147.762 102.56 151.899 99.4789C153.115 98.5058 154.331 97.5327 155.547 96.5595C156.116 96.0735 156.602 95.5054 157.17 95.0194C159.035 93.3971 160.981 91.7759 162.927 90.3157C164.306 89.3426 165.603 88.3695 166.901 87.3963C168.928 85.9372 170.956 84.4769 173.064 83.0178C175.172 81.6385 177.28 80.2604 179.47 79.0442C181.092 78.0711 182.876 77.26 184.578 76.4489C187.255 75.2327 190.012 74.0166 192.606 72.7183C192.444 72.6373 192.282 72.6373 192.12 72.5563C190.579 72.0703 191.147 70.6101 191.715 69.5559C191.715 69.3939 191.958 69.3129 192.039 69.4749V69.6369C191.958 69.7989 191.958 70.043 191.877 70.286C191.796 70.5291 191.796 70.7721 191.715 70.9351C191.715 71.1782 191.552 71.3402 191.633 71.5832C191.715 71.7452 191.958 71.8262 192.12 71.9083C192.525 72.0703 193.013 72.2323 193.418 72.3133C194.391 71.8262 195.364 71.4212 196.256 70.9351C195.689 70.8531 195.202 70.7721 194.634 70.6911C194.067 70.6101 193.662 70.448 193.743 69.7989C193.743 69.6369 193.986 69.6369 194.067 69.7989C194.067 69.881 194.067 69.962 194.148 70.043C194.391 70.205 194.797 70.124 195.04 70.205C195.932 70.286 196.743 70.367 197.634 70.286C198.283 69.962 198.932 69.6369 199.58 69.3129C204.041 66.9616 208.583 64.6903 213.285 62.663C216.854 60.8787 220.421 59.2576 224.071 57.7973C227.152 56.3382 230.234 55.122 233.396 53.8238C235.748 52.9317 238.019 52.0406 240.37 51.3105C242.722 50.5804 245.154 49.9313 247.507 49.1212C250.993 48.0671 254.481 46.9309 257.886 45.8767C259.589 45.3907 261.292 45.0667 263.076 45.3097C265.022 45.5527 266.887 45.9577 268.023 47.742C269.321 49.4452 269.158 51.7155 268.429 53.6618C267.942 55.365 266.887 56.8242 265.914 58.2034C265.103 59.3386 264.13 60.3927 263.076 61.2848C262.265 62.0149 261.617 62.825 260.806 63.5551C259.427 64.8523 257.967 65.9885 256.589 67.2046C253.751 69.7179 250.588 71.9083 247.182 73.4484C242.235 75.7187 237.045 77.503 232.18 79.8553C229.422 81.1525 226.828 82.7737 224.314 84.4769C221.313 86.5042 218.475 88.7755 215.719 91.0458C214.177 92.424 212.474 93.7211 211.015 95.2624C211.501 95.4244 211.988 95.7495 212.474 95.9925C213.366 96.4785 214.258 96.8036 215.231 97.1276C215.881 97.3707 216.611 97.4517 217.259 97.6947C217.908 97.5327 218.475 97.4517 219.124 97.3707C220.583 97.0466 221.962 96.7215 223.422 96.5595C226.747 96.3165 231.531 96.7215 232.829 100.29C233.477 101.587 233.964 102.885 234.126 104.345C234.288 105.724 234.207 107.102 233.964 108.48C234.126 108.561 234.288 108.724 234.288 108.886C234.856 110.021 235.018 111.238 235.505 112.373C235.91 113.914 236.559 115.454 236.477 117.076C236.477 118.535 235.829 119.834 235.261 121.131C234.288 123.239 232.991 125.104 231.288 126.727C230.071 127.862 228.774 128.997 227.476 130.051C226.341 131.024 225.125 131.997 223.909 132.889C224.152 133.213 224.233 133.62 224.314 134.025C224.314 134.106 224.395 134.187 224.395 134.187C225.693 137.836 226.422 143.188 223.909 146.431C223.909 146.513 223.828 146.513 223.828 146.513C223.747 146.675 223.584 146.837 223.422 146.999C222.529 147.972 221.475 148.703 220.421 149.432C219.043 150.324 217.502 151.054 215.962 151.541C216.043 151.784 216.043 152.108 216.043 152.27C216.286 154.46 215.881 156.731 214.988 158.758C214.664 159.569 214.096 160.298 213.447 160.866C213.285 161.028 213.204 161.109 213.042 161.271C212.636 161.596 212.15 161.92 211.664 162.163C211.501 162.244 211.339 162.325 211.258 162.407C210.528 162.812 209.718 162.974 208.988 163.136C207.527 163.462 205.987 163.705 204.527 163.948C203.392 164.029 202.257 164.191 201.041 164.272C198.77 164.435 196.499 164.84 194.229 164.597C193.094 164.516 192.201 164.435 191.309 164.272C191.147 164.597 190.904 164.84 190.741 165.083C190.336 165.57 189.85 165.975 189.363 166.462C188.633 167.191 187.823 167.921 187.012 168.57C182.47 172.3 177.442 175.463 172.091 177.814C170.225 178.707 168.36 179.518 166.333 180.166C164.63 180.653 162.845 181.139 161.062 181.464C159.359 181.788 157.737 182.112 156.035 182.437C152.385 182.842 148.736 183.166 145.249 183.977C142.492 184.626 139.815 185.438 137.302 186.654C133.572 188.194 129.922 190.221 126.436 192.33C123.921 193.79 121.489 195.412 119.056 196.952C115.65 199.06 112.407 201.332 109.163 203.683C103.405 207.575 97.8907 211.873 92.62 216.415C90.4307 218.442 88.2415 220.55 85.9701 222.658C80.4564 227.848 75.0226 233.039 69.5899 238.148C68.2107 239.526 66.9946 240.985 65.6974 242.445C65.2913 242.931 64.8053 243.337 64.3182 243.742C64.2372 243.823 64.1562 243.823 64.1562 243.823C63.9942 243.742 63.8322 243.661 63.7512 243.499ZM179.47 147.323C179.551 148.053 179.714 148.784 179.957 149.514C180.362 150.405 180.768 151.378 181.173 152.27C181.903 153.892 182.876 155.351 183.849 156.812C184.903 158.19 185.877 159.65 187.174 160.785C188.39 161.839 189.606 162.974 191.228 163.217C193.581 163.867 195.932 163.543 198.364 163.379C200.148 163.298 201.933 163.055 203.636 162.893C205.663 162.731 207.609 162.244 209.556 161.839C210.529 161.596 211.502 161.271 212.312 160.704C213.042 160.136 213.772 159.488 214.096 158.596C214.664 157.379 214.826 156.082 215.069 154.784C215.15 154.297 215.231 153.892 215.231 153.487C215.312 152.838 215.312 152.27 215.312 151.622C214.907 151.703 214.502 151.865 214.096 151.946C213.447 152.027 212.88 152.027 212.312 152.189C211.664 152.351 210.934 152.432 210.285 152.514C208.177 152.757 205.987 152.919 203.798 153C202.663 153.081 201.446 153.162 200.31 153.162C199.013 153.243 197.797 153.405 196.581 153.487C194.635 153.568 192.689 153.649 190.823 153.568C189.282 153.568 187.985 152.676 186.688 151.946C185.877 151.46 184.984 150.973 184.173 150.405C183.038 149.514 181.903 148.541 180.768 147.648C180.362 147.242 179.876 146.837 179.389 146.513C179.389 146.756 179.47 146.999 179.47 147.323ZM190.661 152.676C194.31 152.595 198.04 152.351 201.69 152.189C206.798 152.027 211.907 151.784 216.773 150.081C219.043 149.27 221.07 147.972 222.774 146.35C223.666 145.296 224.152 143.999 224.314 142.621C224.477 141.648 224.639 140.674 224.477 139.701C224.395 138.566 224.314 137.511 224.071 136.457C223.909 135.809 223.747 135.079 223.504 134.43C223.341 134.106 223.179 133.701 223.098 133.375C222.205 134.025 221.313 134.674 220.503 135.403C219.854 135.89 219.124 136.376 218.476 136.863C217.421 137.593 216.448 138.322 215.393 138.971C214.339 139.62 213.366 140.268 212.231 140.756C211.096 141.242 209.961 141.485 208.745 141.729C207.691 141.891 206.555 141.972 205.5 141.891H203.798C202.014 142.053 200.229 142.134 198.364 142.215C196.418 142.215 194.391 142.053 192.363 142.053C190.174 142.053 187.985 141.891 185.796 141.648C184.903 141.485 183.93 141.485 183.119 141.323C182.957 141.242 182.714 141.242 182.47 141.161C181.822 140.999 181.254 140.837 180.768 140.349C180.605 140.268 180.443 140.106 180.362 139.944C180.362 140.025 180.281 140.106 180.2 140.106C178.659 140.756 178.092 142.621 178.497 144.08C178.741 144.729 179.227 145.215 179.633 145.621C180.362 146.269 181.092 146.918 181.903 147.486C182.146 147.648 182.389 147.81 182.632 148.053C183.524 148.784 184.416 149.432 185.308 150.081C185.715 150.405 186.12 150.73 186.525 150.973C186.769 151.135 187.012 151.297 187.255 151.378C187.579 151.541 187.823 151.703 188.066 151.865C188.39 152.027 188.715 152.189 188.958 152.27C188.958 152.27 189.039 152.27 189.039 152.351C189.201 152.351 189.769 152.595 190.661 152.676ZM194.797 140.837C195.121 140.837 195.364 140.837 195.689 140.918H204.771C205.338 140.837 205.906 140.756 206.473 140.756H207.122C207.365 140.756 207.529 140.675 207.772 140.675C207.934 140.675 208.015 140.593 208.177 140.593C208.583 140.593 208.988 140.511 209.312 140.511C210.285 140.268 211.258 140.025 212.15 139.62C214.258 138.566 216.043 137.025 217.989 135.809C219.611 134.674 221.232 133.456 222.855 132.321C224.639 131.024 226.504 129.564 228.125 128.105C230.802 125.997 233.315 123.401 234.532 120.239C235.018 119.104 235.505 118.049 235.505 116.833C235.586 115.698 235.261 114.562 234.937 113.508C234.856 113.265 234.775 113.022 234.694 112.779C234.37 112.13 234.126 111.481 233.883 110.832C233.802 110.507 233.64 110.102 233.559 109.697C232.261 112.779 230.478 115.698 227.72 117.644C225.936 118.942 224.071 120.32 222.043 121.131C220.422 121.861 218.8 122.347 217.259 122.915C215.962 123.401 214.664 123.969 213.285 124.374C209.961 125.347 206.555 125.835 203.068 126.402C199.824 126.889 196.662 127.375 193.499 128.267C191.958 128.673 190.417 128.997 188.877 129.564C186.606 130.456 184.416 131.51 182.389 132.889C181.822 133.294 181.254 133.701 180.849 134.187C180.524 134.674 180.281 135.16 180.2 135.728V136.457C180.849 136.052 181.741 135.728 182.389 135.566C182.876 135.403 183.443 135.241 184.011 135.16C184.903 134.998 185.796 134.917 186.688 134.917C187.255 134.917 187.823 134.917 188.39 135.079C189.607 135.241 190.823 135.566 191.715 136.539C192.039 136.782 192.282 137.106 192.444 137.511C192.606 137.755 192.851 138.079 192.932 138.322C193.175 138.971 193.337 139.701 193.256 140.349C193.175 140.511 193.175 140.674 193.175 140.837H194.797ZM191.958 140.837C192.039 140.837 192.039 140.756 192.039 140.756V139.539C191.958 139.214 191.877 138.809 191.715 138.484C191.39 137.917 191.066 137.268 190.58 136.782C190.498 137.025 190.417 137.268 190.336 137.511C190.174 138.322 190.093 139.052 190.174 139.863C190.255 140.106 190.174 140.349 190.255 140.593V140.756H191.796C191.796 140.837 191.877 140.837 191.958 140.837ZM181.011 136.782C180.768 136.863 180.443 137.025 180.2 137.106C180.362 137.836 180.687 138.566 181.092 139.214C181.578 139.782 182.308 140.025 182.957 140.268C183.93 140.593 184.903 140.593 185.958 140.675H186.363C187.417 140.756 188.471 140.756 189.525 140.756V140.675C189.282 139.944 189.201 139.133 189.363 138.403C189.444 138.079 189.525 137.836 189.606 137.511C189.688 137.187 189.931 136.62 190.174 136.214C190.093 136.133 189.931 136.052 189.769 135.971H189.688C189.282 135.809 188.796 135.647 188.39 135.647C188.066 135.566 187.742 135.566 187.336 135.566C186.282 135.484 185.146 135.647 184.092 135.809H183.93C182.876 136.052 181.984 136.376 181.011 136.782ZM209.799 96.1545C208.501 97.6137 207.284 99.1549 206.149 100.695C206.068 100.777 205.987 100.858 205.906 100.939C206.879 100.614 207.853 100.29 208.826 99.966C210.447 99.4789 211.907 98.7499 213.529 98.3438C214.096 98.1818 214.664 98.0198 215.312 97.8578C215.069 97.7767 214.745 97.6947 214.502 97.6137C213.61 97.2896 212.637 97.0466 211.745 96.5595C211.177 96.3165 210.61 95.9925 210.123 95.6674C210.123 95.8305 209.961 95.9925 209.799 96.1545Z" fill="black"/>
<path d="M142.33 106.778C140.871 107.102 140.708 105.562 140.465 104.508C140.384 104.02 140.303 103.453 140.303 102.966C139.654 102.642 139.249 102.074 138.925 101.101C138.68 100.372 138.437 99.5609 138.275 98.7498C137.545 94.8573 137.464 90.8837 137.059 86.9912C136.815 84.8019 136.653 82.6126 136.005 80.4234C135.194 77.666 133.653 74.9896 133.167 72.1512C133.005 71.4211 133.005 70.611 133.005 69.7999C132.843 70.1239 132.68 70.448 132.518 70.854C132.437 71.0971 132.275 71.4211 132.113 71.7462C131.951 72.0702 131.87 72.3132 131.707 72.6383C131.545 73.1243 131.382 73.5304 131.22 74.0165C131.139 74.2595 131.058 74.5036 130.977 74.6656C130.896 74.8276 130.896 74.9896 130.814 75.1516V75.2326C130.733 75.4767 130.571 75.6387 130.328 75.7197C130.085 75.7197 129.923 75.6387 129.76 75.4767C129.76 75.3946 129.679 75.3946 129.679 75.3136C129.436 75.0706 129.274 74.8276 129.031 74.5846C128.544 73.9355 127.977 73.2863 127.409 72.6383C126.193 71.1781 124.977 69.6379 123.759 68.0967C122.543 66.5565 121.327 65.0963 120.111 63.5561C118.894 62.0149 117.678 60.5557 116.461 59.0144C115.245 57.5553 114.11 56.0951 112.893 54.6359C111.677 53.1757 110.461 51.6355 109.326 50.1753C108.19 48.7161 107.055 47.3369 105.919 45.8777C105.676 45.6347 105.514 45.3096 105.271 44.9856C105.19 44.8236 105.028 44.6615 105.109 44.4985C105.109 44.3365 105.271 44.1744 105.433 44.0934H105.676C105.919 44.0934 106.163 44.0124 106.487 43.9314C106.568 43.9314 106.73 43.9314 106.811 43.8504C107.622 43.6884 108.352 43.6074 109.164 43.4443C110.948 43.1203 112.65 42.8773 114.434 42.5522C116.299 42.2282 118.165 41.9042 120.111 41.6611C121.976 41.4171 123.84 41.093 125.706 40.85C126.598 40.688 127.409 40.607 128.301 40.4439C128.787 40.3629 129.193 40.2819 129.679 40.2819C130.085 40.2009 130.49 40.2009 130.896 40.2009C131.058 39.8769 131.301 39.5518 131.626 39.3898C131.951 39.1468 132.356 39.0658 132.599 38.7418C133.005 38.2547 133.41 37.6876 133.734 37.1195C134.14 36.1464 134.626 35.1732 135.437 34.5241C136.572 33.7141 138.194 33.7951 139.411 34.3621C139.979 34.6051 140.627 34.9302 140.952 35.4163C141.114 35.6603 141.114 35.8224 141.195 36.0654C142.249 36.3084 143.06 37.1195 143.871 37.7686C144.276 37.9306 144.762 38.0116 145.006 38.3357C145.33 38.7418 145.168 39.3088 145.087 39.7149C145.33 40.2009 145.735 40.607 145.735 41.174C145.898 43.0393 143.952 44.4985 142.168 44.2555C142.168 44.4985 142.087 44.7426 142.087 44.9856C142.087 46.8508 142.411 48.7971 143.303 50.4183C143.79 51.3104 144.519 52.1215 144.844 53.1757C145.33 54.6359 144.925 56.1761 144.438 57.5553C144.276 57.8793 144.195 58.2033 144.033 58.5284C144.681 59.2575 145.168 60.4736 145.33 61.2847C145.33 61.9338 144.925 62.4199 144.438 62.907C144.681 63.231 144.844 63.6371 144.925 63.7181C145.411 64.3661 145.817 65.0153 146.303 65.6644C147.034 66.4744 147.926 67.2045 148.818 67.9346C151.25 69.6379 154.008 70.9351 156.44 72.7193C157.089 73.2053 157.819 73.6114 158.386 74.1785C159.44 75.2326 159.683 77.0169 159.765 78.395C160.008 81.2334 159.44 84.0718 158.954 86.8292C158.792 87.9643 158.629 89.0995 158.467 90.2346C158.467 90.5597 158.386 91.1267 158.062 91.2888C157.981 91.3708 157.981 91.4518 157.818 91.5328C157.981 91.5328 158.224 91.3708 158.386 91.2888C159.197 91.0457 160.332 90.2346 161.062 90.9647C161.387 91.2077 161.468 91.7759 161.224 92.0999C160.819 92.425 160.413 92.587 159.927 92.83C159.764 92.911 159.278 93.316 158.873 93.5601C158.792 93.6411 158.71 93.6411 158.71 93.7221C158.143 94.0461 157.413 94.2892 156.764 94.2892C156.278 94.2892 155.873 94.2892 155.386 94.2081C155.062 94.2081 154.656 94.1271 154.575 93.8031C154.413 93.154 154.413 92.506 154.575 91.8569C154.413 91.7759 154.251 91.6949 154.089 91.6138C153.763 91.2888 153.682 90.8027 153.52 90.3156C153.196 89.1805 153.034 88.0453 152.872 86.9102C152.628 85.613 152.385 84.3148 151.98 83.0177C151.574 81.7205 151.412 80.2603 150.439 79.2871C149.061 78.5581 147.763 77.747 146.466 76.8549C146.385 76.7738 146.141 76.6928 145.979 76.5308V76.8549C145.898 79.3682 145.816 81.8825 145.735 84.3958C145.654 88.3704 146.222 92.425 145.735 96.3985C145.411 98.2627 145.816 102.155 143.708 102.885C143.789 102.885 143.789 102.966 143.789 102.966C144.357 102.966 144.925 102.723 145.411 102.48C146.06 102.155 146.628 101.912 147.358 101.993C147.601 102.074 147.763 102.318 147.682 102.561C147.601 102.804 147.277 102.804 147.115 102.723C147.034 102.642 147.034 102.642 146.953 102.642C145.979 102.885 145.168 103.615 144.195 103.696C143.546 103.777 143.303 103.372 143.303 102.966H143.222C142.411 103.047 141.6 103.047 140.952 102.885C141.114 103.615 141.276 104.346 141.519 105.075C141.762 105.724 141.762 105.805 142.411 105.643C143.222 105.4 144.033 104.913 144.843 104.589C145.006 104.508 145.249 104.589 145.33 104.751C145.654 105.319 144.681 105.562 144.276 105.805C143.708 106.048 143.141 106.373 142.492 106.454C142.411 106.697 142.33 106.697 142.33 106.778ZM133.491 68.9078C133.572 70.1239 133.815 71.2591 134.14 72.3942C135.032 75.3946 136.653 78.071 137.464 81.1524C138.599 86.5862 138.599 92.2619 139.411 97.7767C139.573 98.7498 139.816 99.7229 140.141 100.696C140.384 101.588 140.79 102.236 141.762 102.236C142.492 102.318 143.384 102.48 143.952 101.912C144.357 101.426 144.438 100.858 144.519 100.29C144.6 99.5609 144.681 98.7498 144.681 98.0197C144.844 95.7494 145.087 93.3981 145.087 91.0457C145.087 87.8833 144.925 84.8019 144.925 81.6395C144.925 79.7742 144.925 77.828 145.006 75.9627C145.087 73.8544 145.249 71.6652 145.006 69.5569C145.006 69.4759 145.006 69.3938 145.087 69.3128C145.087 69.2318 145.087 69.1508 145.168 69.0698L145.33 69.2318C145.33 69.3128 145.411 69.3128 145.411 69.3938C145.492 69.5569 145.492 69.6379 145.573 69.7999C145.654 69.9619 145.654 70.0429 145.654 70.1239C145.654 70.2049 145.735 70.2859 145.735 70.3669C145.735 70.53 145.817 70.611 145.817 70.773C145.898 71.1781 145.898 71.6652 145.979 72.0702V76.2057C146.709 76.2057 147.439 76.6928 148.088 76.9359C149.142 77.504 150.196 77.99 151.169 78.7201C152.061 79.6932 152.304 80.9094 152.709 82.1255C153.358 84.2338 153.601 86.3421 154.008 88.4514C154.17 89.1805 154.332 89.9916 154.494 90.7217C154.575 91.2077 154.819 91.1267 155.224 91.0457C155.305 91.0457 155.467 90.9647 155.548 90.9647C155.873 90.8837 156.116 90.8837 156.44 90.8837C156.765 90.8837 157.008 90.8027 157.332 90.8027C157.332 90.6407 157.332 90.3977 157.413 90.2346C157.494 89.5056 157.575 88.6944 157.657 87.9643C157.9 86.0181 158.305 84.0718 158.467 82.1255C158.629 80.1793 158.954 76.1247 157.332 74.7466C154.494 72.6383 151.412 70.854 148.412 68.9888C147.115 68.0967 145.736 66.9615 144.844 65.5834C144.033 66.5565 141.6 67.2855 140.627 67.3665C139.573 67.4475 138.599 67.3665 137.545 67.3665C136.572 67.2855 135.68 67.2855 134.788 66.9615C134.707 66.9615 134.464 66.8805 134.302 66.7995C133.978 67.4475 133.734 68.1777 133.491 68.9078ZM155.467 93.5601C156.44 93.4791 157.332 93.235 158.224 93.073C158.386 92.992 158.629 92.911 158.873 92.83C159.521 92.425 160.089 92.0999 160.656 91.6138C160.656 91.5328 160.575 91.4518 160.494 91.3708C159.765 91.4518 159.116 91.8569 158.386 92.0999C158.143 92.1809 157.9 92.2619 157.656 92.1809C157.494 92.0999 157.332 92.0189 157.251 91.8569C157.089 91.9379 156.927 91.9379 156.846 91.9379C156.359 91.9379 155.792 92.0999 155.224 92.0999C155.386 92.668 155.386 93.3981 155.467 93.5601ZM106.892 45.1476C107.217 45.4716 107.46 45.7967 107.784 46.2017C108.352 46.9318 109.002 47.662 109.569 48.391C110.785 49.8512 111.92 51.3104 113.137 52.7706C114.353 54.2298 115.488 55.69 116.705 57.1492C117.921 58.6094 119.138 60.1496 120.354 61.6098C121.57 63.15 122.867 64.6912 124.085 66.2314C125.301 67.6916 126.517 69.2318 127.652 70.692C128.544 71.7462 129.355 72.8003 130.247 73.9355C130.409 73.3673 130.652 72.8003 130.814 72.2322C130.977 71.8272 131.139 71.3401 131.301 70.9351C131.463 70.53 131.626 70.1239 131.788 69.7189C132.437 68.1777 133.086 66.7185 133.734 65.1773C133.815 65.0963 133.815 64.9342 133.897 64.8532C132.518 64.7722 131.058 64.7722 129.841 64.1231C126.841 62.1769 129.112 57.7173 130.409 55.3649C130.977 54.4728 131.463 53.5817 131.951 52.6086C132.113 52.3645 132.194 52.1215 132.356 51.8785C131.463 51.8785 130.652 51.9595 130.004 52.5265C129.274 53.2567 128.706 54.3918 127.49 54.3918C124.977 54.3918 124.814 51.0674 125.463 49.2831C125.787 48.31 126.274 47.3369 126.923 46.4447C127.814 45.0666 129.031 43.9314 130.004 42.5522C130.247 42.1472 130.49 41.6611 130.652 41.2551C130.328 41.3361 129.923 41.4171 129.517 41.4981C128.625 41.6611 127.733 41.8232 126.841 41.9042C124.977 42.2282 123.192 42.4712 121.327 42.7963C119.462 43.0393 117.597 43.3633 115.731 43.6074C113.948 43.8504 112.083 44.0934 110.218 44.3365C109.488 44.4175 108.676 44.5805 107.946 44.6615C107.541 44.7426 107.217 44.7426 106.811 44.8236H106.568C106.649 44.9046 106.811 45.0666 106.892 45.1476ZM137.383 66.7995C137.788 66.7995 138.113 66.8805 138.518 66.8805H139.249C139.492 66.8805 139.816 66.8805 140.06 66.7995C140.141 66.7995 140.303 66.7185 140.465 66.7185C140.546 66.7185 140.708 66.6375 140.79 66.6375C141.033 66.5565 141.276 66.5565 141.519 66.4744H141.438C141.681 66.3934 142.006 66.3124 142.249 66.1504C142.411 66.0694 142.573 65.9884 142.735 65.9074C142.817 65.8264 142.979 65.8264 143.06 65.7454C143.222 65.6644 143.384 65.5834 143.546 65.5024C143.627 65.4203 143.708 65.4203 143.79 65.3393C143.871 65.2583 143.952 65.2583 144.033 65.1773C144.114 65.0963 144.195 65.0963 144.276 65.0963C144.357 65.0963 144.357 65.0153 144.438 65.0153L144.6 64.8532C144.6 64.8532 144.6 64.7722 144.681 64.7722V64.2851C144.681 64.2041 144.681 64.2041 144.6 64.2041C144.6 64.2041 144.6 64.1231 144.519 64.1231C144.519 64.0421 144.438 64.0421 144.438 63.9611V63.8801C144.438 63.7991 144.357 63.7181 144.357 63.6371C144.357 63.6371 144.357 63.5561 144.276 63.5561V63.474C144.276 63.393 144.195 63.312 144.195 63.312V63.15C144.195 63.15 144.114 63.069 144.114 63.15V63.231C144.033 63.312 144.033 63.312 143.952 63.393C143.465 63.7991 142.898 64.0421 142.249 64.1231C141.762 64.1231 141.357 64.2851 140.871 64.2041C140.384 64.6912 139.249 64.6102 138.68 64.7722C137.545 64.8532 136.41 64.8532 135.275 64.7722H135.194V64.8532C135.194 64.9342 135.113 65.0963 135.032 65.1773C135.032 65.1773 135.032 65.2583 134.951 65.2583V65.4203C134.951 65.4203 134.951 65.5024 134.869 65.5024V65.5834C134.869 65.6644 134.788 65.7454 134.788 65.8264C134.788 65.9074 134.707 65.9884 134.707 66.0694V66.2314H134.788C135.032 66.2314 135.275 66.3124 135.518 66.3124C135.68 66.3124 135.842 66.3934 135.924 66.3934C136.005 66.3934 136.248 66.4744 136.329 66.4744C136.653 66.7995 137.059 66.7995 137.383 66.7995ZM132.599 53.2567C131.87 54.5549 130.977 55.771 130.328 57.1492C129.679 58.6904 128.301 61.3657 129.679 62.826C130.328 63.5561 131.382 63.6371 132.275 63.8801C133.572 64.1231 134.951 64.2041 136.329 64.2851C137.626 64.2851 139.006 64.2851 140.222 63.8801C140.546 63.312 140.303 62.664 140.141 62.0959C140.06 61.7718 139.979 61.4467 139.816 61.2037C139.654 61.2847 139.492 61.2847 139.33 61.2847C138.437 61.2847 137.464 61.2037 136.572 61.1227C136.086 61.0417 135.68 61.1227 135.194 61.0417C134.87 60.9607 134.707 60.5557 135.032 60.3116C135.356 60.0686 135.68 59.6636 135.924 59.4195C137.059 58.2843 138.032 56.9062 138.437 55.2839C138.599 54.7979 138.599 54.2298 138.68 53.6628C138.761 53.1757 138.844 52.6086 138.925 52.1215C138.437 51.2294 137.87 50.4183 137.14 49.6082C137.059 49.5261 137.059 49.4451 136.978 49.4451C136.978 50.4183 136.41 51.2294 135.518 51.6355C134.707 52.0405 133.897 52.0405 133.005 51.9595C133.086 52.3645 132.68 53.0946 132.599 53.2567ZM141.681 59.4195C141.276 59.6636 140.871 59.9876 140.546 60.3116C140.465 60.3926 140.465 60.5557 140.384 60.5557C140.384 60.6367 140.303 60.6367 140.303 60.7177V60.7987C140.384 60.8797 140.384 60.9607 140.384 61.0417C140.465 61.3657 140.627 61.6098 140.708 61.9338C140.871 62.5019 141.033 63.15 140.871 63.7181C141.357 63.5561 141.844 63.474 142.411 63.312C142.735 63.15 142.979 62.988 143.222 62.745C143.627 62.4199 144.195 62.0959 144.276 61.6098C144.276 61.2847 144.114 60.9607 144.033 60.6367C143.871 60.3116 143.79 59.8256 143.546 59.5826C143.141 59.3385 142.573 59.2575 142.087 59.3385C142.006 59.2575 141.844 59.3385 141.681 59.4195ZM139.735 53.9058C139.33 56.3381 137.951 58.5284 136.167 60.1496C136.978 60.0686 137.788 60.0686 138.599 60.0686C139.087 60.0686 139.573 60.0686 140.06 60.3116L140.141 60.3926C140.06 60.2306 140.222 59.9066 140.222 59.7446C140.303 59.1765 140.384 58.6094 140.384 57.9603C140.465 56.2571 140.303 54.7169 139.735 53.3377C139.654 53.5817 139.654 53.7438 139.735 53.9058ZM137.14 47.0128C137.059 47.4989 137.14 47.986 137.14 48.553C138.275 49.3641 139.249 50.4993 139.898 51.7975C140.627 53.5817 141.195 55.528 141.033 57.5553C141.033 58.0413 140.952 58.4463 140.871 58.9334C141.033 58.7714 141.195 58.6094 141.276 58.5284C141.6 58.2843 142.087 58.1223 142.492 58.1223C142.492 57.3112 142.33 56.5821 142.168 55.771C141.844 54.1488 141.438 52.4455 140.546 50.9864C139.816 50.0132 139.168 48.9591 138.356 48.148C137.951 47.662 137.626 47.0938 137.14 46.6888V47.0128ZM137.464 46.3637C137.545 46.4447 137.626 46.4447 137.626 46.5257C138.032 46.7698 138.275 47.0938 138.518 47.4179C139.492 48.148 140.141 49.1211 140.871 50.0942C142.33 52.2835 143.06 54.9599 142.979 57.5553V58.1223C143.141 58.1223 143.303 58.2033 143.546 58.2843C143.627 58.0413 143.627 57.7983 143.708 57.6363C144.195 55.852 144.762 53.7438 143.465 52.1215C143.06 51.4724 142.573 50.9054 142.249 50.2563C141.6 48.7971 141.438 47.1749 141.681 45.6347C141.681 45.4716 141.844 44.8236 142.006 44.4175C141.519 44.2555 140.79 43.8504 141.033 43.6074C141.276 43.3633 141.519 43.7694 141.681 43.8504C142.087 44.0124 142.573 44.0124 143.06 43.8504C143.627 43.6074 144.276 43.2823 144.6 42.7963C144.762 42.5522 144.844 42.3092 144.925 42.0662C144.681 42.2282 144.357 42.3092 144.195 42.2282C143.871 42.2282 143.465 42.0662 143.222 41.9042C143.141 41.8232 142.898 41.7422 142.898 41.6611C142.898 41.5791 142.979 41.4981 143.06 41.5791C143.627 41.7422 144.276 41.6611 144.762 41.3361C144.844 41.2551 145.006 41.174 145.087 41.093C145.087 40.85 145.006 40.5249 144.844 40.2819C144.6 39.7959 145.168 39.0658 144.519 38.7418C144.195 38.5787 143.79 38.5787 143.465 38.3357C143.06 38.0116 142.573 37.7686 142.168 37.5245C142.006 37.4435 141.681 37.2815 141.357 37.0385V37.1195C141.357 37.2005 141.357 37.3625 141.276 37.4435C141.033 38.0116 140.303 38.2547 140.222 38.9038C140.222 39.3088 140.627 39.6339 140.79 40.0389C140.952 40.3629 140.871 40.769 140.465 40.931C140.06 41.093 139.654 40.931 139.249 40.85C139.006 40.931 138.844 41.174 138.761 41.4171C138.761 42.2282 139.654 42.5522 140.06 43.1203C140.303 43.5253 139.979 43.8504 139.816 44.1744C139.654 44.6615 139.735 45.1476 139.654 45.6347C139.33 46.4447 138.761 46.4447 138.275 46.4447H137.788C137.626 46.3637 137.545 46.3637 137.464 46.3637ZM131.626 40.931C131.382 41.8232 131.058 42.6343 130.49 43.3633C128.868 45.5526 126.679 47.5809 126.112 50.3373C125.868 51.3914 126.031 53.5817 127.571 53.4187C128.22 53.2567 128.544 52.6896 129.031 52.2025C129.355 51.7975 129.841 51.4724 130.328 51.3104C131.058 50.9864 131.951 50.9864 132.843 50.9864C133.978 50.9864 135.113 50.9864 135.924 50.2563C136.734 49.2021 135.843 47.743 136.329 46.5257C136.41 45.9587 136.897 45.6347 137.383 45.4716C137.707 45.3906 138.032 45.3906 138.356 45.3906C138.437 45.3906 138.599 45.3096 138.599 45.1476C138.599 44.4175 138.68 43.6884 139.249 43.1203C138.113 42.3092 137.302 41.012 138.844 40.0389C139.249 39.7959 139.654 40.0389 140.141 40.0389C139.979 39.7149 139.735 39.4708 139.654 39.2278C139.33 38.6607 139.735 38.0116 140.141 37.6055C140.303 37.4435 140.465 37.2815 140.627 37.1195C140.708 36.9575 140.708 36.7145 140.708 36.4704C140.465 35.9844 139.979 35.6603 139.492 35.4973C139.006 35.3353 138.518 35.0922 137.951 35.0922C136.167 34.9302 135.518 36.1464 134.87 37.6055C134.464 38.4977 133.816 39.3088 133.005 39.8769C132.68 40.0389 132.275 40.1199 132.032 40.2819C132.113 40.3629 132.113 40.4439 132.113 40.5249C132.113 40.688 132.032 40.85 131.951 40.931H131.626Z" fill="black"/>
<path d="M76.9708 110.346C76.9708 110.265 77.0518 110.265 77.0518 110.184C76.8088 109.778 76.5658 109.454 76.4027 109.049C75.8357 107.995 75.4296 106.777 75.2676 105.642C74.7816 107.103 73.9704 108.481 73.2403 109.86C72.5923 111.4 71.8622 112.86 71.5381 114.4C72.3482 113.751 72.6733 112.616 73.3213 111.887C73.4844 111.643 73.8894 111.887 73.7274 112.13C73.6464 112.292 73.4844 112.535 73.4023 112.697C73.2403 112.941 73.0783 113.265 72.8353 113.67C72.6733 114.481 72.5102 115.293 73.3213 114.157C73.6464 113.67 73.8894 113.184 74.1325 112.616C74.2945 112.373 74.3755 112.13 74.4565 111.805C74.5385 111.724 74.6196 111.643 74.7006 111.643C74.7816 111.643 74.8626 111.805 74.8626 111.968C74.7816 112.211 74.6196 112.616 74.4565 113.022C74.3755 113.589 74.2945 114.076 74.3755 114.644C74.9436 114.157 75.1056 113.265 75.5117 112.616V112.373C75.5117 112.13 75.4296 111.968 75.3486 111.724C75.2676 111.562 75.5117 111.481 75.6737 111.562C75.9167 112.049 75.8357 112.616 76.3217 113.022C76.8088 112.373 76.7278 111.319 76.9708 110.346ZM86.0531 145.297C85.4039 145.054 84.8369 145.135 84.2688 145.216C83.8638 145.216 83.4577 145.297 83.0527 145.135C82.7286 144.973 82.4856 144.648 82.3225 144.324C82.0795 143.918 81.9175 143.512 81.7555 143.026C81.5125 143.107 81.2684 143.107 81.0254 143.188C80.9444 143.188 80.9444 143.188 80.8634 143.269C81.0254 143.918 81.2684 144.486 81.5125 145.135C81.6745 145.621 81.9175 146.189 82.4035 146.432C82.7286 146.594 83.1337 146.757 83.4577 146.838C83.5397 146.838 83.6208 146.919 83.6208 147.081C83.6208 147.162 83.6208 147.162 83.5397 147.243C83.9448 147.081 84.3498 146.919 84.6749 146.757C85.2419 146.27 85.81 145.784 86.0531 145.297ZM55.725 73.125C55.1569 73.611 54.6709 74.0981 54.2648 74.5031C53.7787 74.9892 53.3727 75.5573 52.8866 76.1254C52.4805 76.6924 52.0755 77.3415 51.7515 77.9896C51.5074 78.4767 51.2644 79.0448 51.0214 79.5308C50.8593 80.0989 50.6153 80.5849 50.5343 81.153C50.3723 81.6391 50.2912 82.2072 50.2912 82.6932C50.2102 83.2613 50.2102 83.7474 50.2102 84.3155C50.2102 84.9635 50.2912 85.6936 50.3723 86.3427C50.4533 86.9918 50.6153 87.5589 50.7783 88.208C50.9404 88.856 51.1834 89.5051 51.5074 90.0732V90.1543C51.7515 90.7213 52.0755 91.2084 52.3185 91.6944C52.6436 92.1815 52.9676 92.6676 53.3727 93.1547C53.7787 93.6407 54.1838 94.0468 54.5899 94.4518L54.6709 94.5328C55.0759 94.9389 55.5619 95.3439 56.049 95.668C56.6171 96.0741 57.1842 96.3981 57.7523 96.7221C58.2383 96.9662 58.7254 97.2092 59.2114 97.3712C59.7795 97.6142 60.3466 97.7762 60.9147 97.8572C61.4817 98.0203 62.1308 98.1013 62.6179 98.1823C63.266 98.2633 63.9151 98.2633 64.5631 98.2633C65.2122 98.2633 65.8614 98.1823 66.4284 98.1013C66.9965 98.0203 67.5646 97.8572 68.1316 97.6952C68.6997 97.5332 69.1858 97.3712 69.6729 97.1282C70.2399 96.8841 70.727 96.6411 71.2131 96.3171C71.7812 95.993 72.3482 95.587 72.8353 95.1009C73.3213 94.6948 73.7274 94.2898 74.1325 93.8837C74.4565 93.4787 74.8626 93.0736 75.1866 92.6676C75.5927 92.1005 75.9167 91.5324 76.1597 91.0464L76.2407 90.9654C76.4848 90.4783 76.7278 89.9922 76.8898 89.5051C77.1329 88.856 77.3759 88.127 77.5389 87.3969C77.701 86.8288 77.782 86.3427 77.863 85.7746C77.944 85.2076 77.944 84.6395 77.944 84.1535V84.0724C77.944 83.4233 77.863 82.8552 77.782 82.2882V82.2072C77.701 81.7201 77.62 81.2341 77.4569 80.747V80.6659C77.3759 80.3419 77.2139 80.0179 77.1329 79.6928C76.9708 79.3688 76.8898 79.0448 76.7278 78.7197C76.4848 78.1526 76.1597 77.6655 75.9167 77.0985C75.5927 76.4494 75.1866 75.9623 74.7816 75.4763C74.4565 75.0712 74.0514 74.7462 73.7274 74.3411C73.2403 73.854 72.7543 73.449 72.1862 73.125C71.7002 72.7999 71.132 72.4759 70.646 72.1518C70.1589 71.9078 69.5919 71.6647 69.1048 71.4217C68.3747 71.1787 67.7266 70.9346 66.9965 70.7726C66.5094 70.6106 66.0234 70.6106 65.4553 70.5296C64.9692 70.4486 64.4821 70.4486 63.9961 70.4486H63.9151C63.266 70.4486 62.6179 70.5296 62.0498 70.6106H61.9688C61.2387 70.7726 60.5907 70.9346 59.8606 71.0977C59.4545 71.1787 59.1304 71.3407 58.8064 71.4217C58.4003 71.5837 58.0763 71.6647 57.7523 71.8268M80.6204 82.2882C80.9444 81.9631 81.2684 81.6391 81.6745 81.3151C80.5393 81.2341 79.4852 80.828 78.43 80.5849C78.5931 81.072 78.6741 81.6391 78.7551 82.1262C78.8361 82.8552 78.9171 83.5043 78.9171 84.2345C79.4031 83.5043 79.9712 82.8552 80.6204 82.2882ZM83.1337 91.1274C82.8096 91.3704 82.5666 91.6134 82.2415 91.7754C81.2684 92.2625 80.2953 92.8296 79.1601 92.9926C78.187 93.1547 77.1329 93.0737 76.1597 93.0737C76.1597 93.1547 76.0787 93.1547 76.0787 93.0737C75.9167 93.3167 75.6737 93.5597 75.5117 93.8027C75.3486 94.0468 75.1056 94.2898 74.8626 94.4518C74.7816 94.5328 74.7006 94.6138 74.6196 94.6948C75.9167 94.6948 77.1329 94.8568 78.43 94.8568C80.0522 94.8568 81.7555 94.5328 83.2147 93.7217H83.3767V93.1547C83.2147 92.5055 83.1337 91.7754 83.1337 91.1274ZM86.0531 107.751C85.972 107.589 85.972 107.346 85.891 107.184C85.486 105.48 84.9179 103.94 84.5129 102.237C83.9448 99.6415 83.4577 97.1282 83.2147 94.4518C83.1337 94.5328 82.9716 94.6138 82.8906 94.6948C81.5935 95.4249 80.1333 95.749 78.6741 95.912C77.782 96.0741 76.8898 95.993 75.9977 95.83V98.0203C75.9977 98.6684 75.9167 99.3175 75.9977 99.9666C75.9977 100.534 75.9977 101.183 76.3217 101.669C76.8898 102.318 77.62 102.723 78.349 103.21C79.8902 104.264 81.5935 105.156 83.2147 106.129C84.0258 106.615 85.972 107.751 86.0531 107.751ZM86.6212 110.914C86.6212 110.103 86.4591 109.373 86.2961 108.562C86.2151 108.481 82.4856 106.534 81.7555 106.129C79.8902 105.075 78.025 104.021 76.3217 102.642C76.1597 102.561 76.0787 102.399 75.9977 102.318C75.9167 102.804 75.8357 103.21 75.8357 103.696C75.7547 105.399 76.4027 106.941 77.1329 108.4C77.863 109.454 78.5931 110.67 78.5931 111.968C78.7551 114.157 78.187 116.347 78.025 118.455C77.62 122.429 77.0518 126.483 77.1329 130.457C77.1329 132.322 77.2949 134.268 77.62 136.133C77.944 138.323 78.5121 140.918 80.6204 142.215C81.0254 142.134 81.5125 142.134 81.8365 141.891C81.9985 138.404 83.2957 135.079 84.0258 131.755C84.6749 128.916 85.2419 126.078 85.81 123.24C86.3771 119.59 86.7022 115.861 86.7022 112.211C86.7022 112.13 86.7832 112.049 86.7832 111.968C86.7022 111.562 86.6212 111.157 86.6212 110.914ZM83.1337 80.4229C83.2957 80.3419 83.5397 80.1799 83.7828 80.0989C83.5397 80.0179 83.2147 79.9358 82.9716 79.8548C81.8365 79.5308 80.7014 79.2068 79.5662 78.9627C78.9171 78.8007 78.349 78.6387 77.701 78.4767C77.782 78.7197 77.863 78.9627 77.944 79.2068C78.106 79.5308 78.187 79.8548 78.268 80.1799C78.268 80.2609 78.268 80.2609 78.349 80.3419C79.4031 80.3419 80.5393 80.2609 81.6745 80.5849C81.8365 80.6659 82.1605 80.6659 82.2415 80.909C82.4856 80.747 82.8096 80.5849 83.1337 80.4229ZM83.4577 69.3135C83.6208 69.1514 83.7828 69.0704 83.9448 68.9074C83.6208 68.0973 82.9716 67.3672 82.0795 67.1242C80.7014 66.8801 79.2411 68.1783 78.6741 69.3135C78.268 70.1246 78.5931 71.0977 78.9981 71.9078C79.4852 72.4759 80.2953 72.7999 81.0254 72.7999C81.4304 71.5027 82.4856 70.1246 83.4577 69.3135ZM88.9725 87.7209C89.3775 85.5316 89.9456 83.0183 88.4864 81.153C88.4043 81.072 88.3233 80.991 88.2423 80.909C87.1072 80.4229 85.729 80.5039 84.5939 80.909C82.3225 81.8011 80.8634 83.8284 79.3221 85.5316C79.1601 85.7746 78.9981 85.9366 78.8361 86.1807V86.3427C78.7551 86.9098 78.6741 87.4779 78.5931 88.046C78.43 88.613 78.268 89.1001 78.106 89.6672C77.863 90.3163 77.5389 90.9654 77.2139 91.6134C76.9708 92.1005 76.6468 92.5865 76.3217 92.9926C78.43 92.5865 80.6204 92.3435 82.4035 91.0464C82.5666 90.8833 82.8096 90.7213 83.0527 90.5593H83.1337C83.0527 89.7482 82.9716 88.937 82.9716 88.208C82.8906 86.9918 83.1337 85.8556 83.1337 84.6395C83.0527 84.3965 83.2957 84.1535 83.5397 84.2345C83.7828 84.2345 83.8638 84.4775 83.7828 84.7205C83.7828 84.8825 83.8638 85.0456 83.8638 85.2076C84.1068 86.9098 84.0258 88.613 84.0258 90.3163C84.1878 93.3977 84.4319 96.4791 84.9989 99.4795C85.486 102.399 86.3771 105.156 87.1072 107.995C87.4323 109.373 87.5133 110.832 87.6753 112.211C87.8373 111.724 87.9993 111.238 87.9993 110.67C87.9993 110.346 87.8373 109.697 88.3233 109.697C88.4864 109.697 88.6484 109.86 88.6484 110.022C88.6484 110.589 88.5674 111.157 88.4864 111.724C88.5674 112.13 88.6484 112.535 88.8104 112.941C89.1345 112.13 89.1345 111.238 89.1345 110.346C89.1345 110.022 89.7026 109.941 89.7026 110.265C89.7836 110.589 89.7026 111.805 89.5406 112.697C89.5406 113.022 89.5406 113.265 89.6216 113.265C89.7026 113.265 89.7836 113.103 89.8646 113.022C90.3506 112.292 90.4327 111.4 90.3506 110.508C90.3506 110.103 90.9997 110.103 90.9997 110.508C90.9997 111.238 90.9187 111.968 90.5947 112.697C90.6757 112.778 90.6757 112.86 90.5947 112.86V112.941C90.5947 113.184 90.7567 113.67 91.0807 113.508C91.5678 113.103 91.6488 112.373 91.7298 111.724C91.8918 110.589 91.4047 109.454 91.3237 108.319C91.1617 106.941 90.6757 105.561 90.1076 104.264C89.9456 104.183 89.8646 104.102 89.7836 103.94C89.7836 103.858 89.7836 103.777 89.8646 103.696C89.7026 103.21 89.4595 102.723 89.2965 102.237C88.5674 100.21 87.8373 98.1823 87.8373 95.993C87.8373 93.2357 88.3233 90.4783 88.9725 87.7209ZM90.6757 93.8837C90.5137 91.3704 90.5947 88.775 90.1076 86.2617C89.9456 87.6399 89.5406 88.937 89.2965 90.2353C88.8914 91.8564 88.6484 93.5597 88.4864 95.1819C88.2423 97.1282 88.8104 98.9934 89.5406 100.777C89.9456 101.831 90.2696 102.886 90.5947 103.94C90.6757 104.021 90.7567 104.021 90.8377 104.102C90.7567 102.723 90.7567 101.426 90.7567 100.048C90.7567 98.0203 90.7567 95.993 90.6757 93.8837ZM100.244 133.944C99.6769 133.944 99.1088 133.944 98.7038 133.457C98.5418 133.376 98.2977 132.484 98.2977 131.917C98.1357 131.998 97.4066 131.998 97.3245 131.998C97.4876 132.89 97.5686 134.511 98.6228 135.403C98.7848 135.565 99.3518 135.079 99.6769 134.917C100.244 134.673 101.298 134.755 101.298 134.187C101.298 133.619 100.569 133.944 100.244 133.944ZM90.3506 70.8536C90.5947 70.7726 90.8377 70.6916 90.9997 70.5296C90.4327 69.6375 89.3775 69.0704 88.4043 68.8264C87.5133 68.7453 86.5402 68.6643 85.648 68.9074C83.7018 69.5565 82.0795 71.2597 81.5935 73.206C81.2684 74.9892 82.9716 77.9896 84.9179 78.0716C85.2419 77.9086 85.2419 77.5035 85.2419 77.0985C85.1609 76.4494 85.0799 75.8813 85.0799 75.2332C85.1609 74.5841 85.648 74.016 86.2961 73.854C86.6212 73.692 87.1072 73.611 87.4323 73.854C87.8373 74.0981 88.0803 74.5031 88.2423 74.9082C88.4864 74.2601 88.4043 73.53 88.4864 72.8809C88.8104 71.9888 89.4595 71.1787 90.3506 70.8536ZM91.8918 74.3411C91.8918 74.2601 91.8918 74.1791 91.8108 74.0981C91.7298 74.016 91.7298 73.935 91.7298 73.854C91.7298 73.773 91.6488 73.692 91.6488 73.692C91.6488 73.611 91.5678 73.611 91.5678 73.53C91.4868 73.449 91.4868 73.449 91.4047 73.368L91.3237 73.287C91.3237 73.287 91.2427 73.287 91.2427 73.206C91.2427 73.206 91.1617 73.206 91.1617 73.125H90.6757L90.5947 73.206H90.5137L90.3506 73.368C90.2696 73.449 90.1886 73.611 90.1886 73.692C90.1886 73.773 90.1076 73.854 90.1076 73.854C90.1076 73.935 90.0266 74.016 90.0266 74.0981C90.0266 74.1791 89.9456 74.2601 89.9456 74.4221V75.0712C89.9456 75.1522 89.9456 75.2332 90.0266 75.3143C90.0266 75.3953 90.1076 75.4763 90.1076 75.5573C90.1076 75.6383 90.1886 75.6383 90.1886 75.7193C90.2696 75.8003 90.2696 75.8813 90.3506 75.8813C90.3506 75.9623 90.4327 75.9623 90.4327 75.9623L90.5137 76.0444L90.5947 76.1254C90.5947 76.1254 90.6757 76.1254 90.6757 76.2064H91.1617C91.1617 76.2064 91.2427 76.2064 91.2427 76.1254L91.3237 76.0444C91.4047 76.0444 91.4047 75.9623 91.4047 75.9623C91.4868 75.8813 91.4868 75.8813 91.5678 75.8003C91.5678 75.7193 91.6488 75.7193 91.6488 75.6383C91.7298 75.5573 91.7298 75.4763 91.7298 75.3953C91.7298 75.3143 91.8108 75.2332 91.8108 75.1522C91.8108 75.0712 91.8918 74.9892 91.8918 74.9082V74.5841C91.9729 74.5841 91.9729 74.4221 91.8918 74.3411ZM92.2159 73.611V73.206C92.0539 72.3949 91.7298 71.7457 91.4047 71.0156C91.0807 71.3407 90.3506 71.5027 90.0266 71.7457C89.5406 72.1518 89.2155 72.7189 89.1345 73.287V74.3411H89.5406C89.6216 74.0981 89.6216 73.854 89.7836 73.692C89.9456 73.449 90.1076 73.125 90.4327 72.9619C90.4327 72.9619 90.5137 72.9619 90.5137 72.8809C90.5947 72.8809 90.5947 72.7999 90.6757 72.7999C90.8377 72.7189 90.9187 72.7189 91.0807 72.7189C91.4868 72.7189 91.8918 72.9619 92.0539 73.368C92.1349 73.449 92.1349 73.53 92.2159 73.611ZM92.946 75.7193C93.5141 75.3143 93.5951 74.6651 93.4331 74.016C93.351 73.692 93.27 73.206 92.865 73.125C92.703 73.125 92.622 73.206 92.541 73.368V74.9892C92.622 75.2332 92.703 75.4763 92.946 75.7193ZM100.893 116.023C100.812 115.05 100.731 114.076 100.488 113.103C100.407 112.778 100.325 112.535 100.325 112.211C100.244 112.049 100.082 111.805 99.9199 111.643C99.1088 110.67 98.0547 109.86 97.0815 109.13C96.0274 108.319 94.9733 107.589 93.9191 106.777C93.189 106.291 92.4599 105.804 91.7298 105.318C91.8108 106.048 91.7298 106.86 91.7298 107.67V108.076C91.8108 108.4 91.8108 108.643 91.8918 108.968C91.9729 109.535 92.2159 110.103 92.2969 110.67C92.3779 111.643 92.1349 114.562 90.5947 114.076C90.3506 113.914 90.1886 113.67 90.1076 113.346C89.9456 113.589 89.7836 113.833 89.4595 113.833C89.2155 113.833 89.1345 113.67 89.0535 113.508C88.8914 113.67 88.7294 113.67 88.4864 113.589C88.3233 113.427 88.2423 113.103 88.1613 112.86C88.0803 112.941 88.0803 113.022 87.9993 113.184C87.8373 113.346 87.6753 113.427 87.4323 113.346V113.914C87.9183 113.995 88.7294 114.4 88.8914 114.4C93.9191 115.942 92.703 116.347 93.8381 120.888C94.4872 123.24 94.9733 125.672 95.5414 128.024C95.7844 128.835 95.8654 129.809 96.3514 130.538C96.9195 130.944 97.6496 130.944 98.2977 130.944C98.4608 130.944 98.6228 130.944 98.7038 130.863C98.8658 130.782 98.9468 130.619 99.0278 130.457C99.3518 129.809 99.6769 129.078 99.8389 128.348C100.407 125.997 100.731 123.645 100.974 121.293C101.055 119.509 101.136 117.806 100.893 116.023ZM100.893 111.805C101.542 113.265 101.785 114.888 101.866 116.509C102.028 118.617 101.866 120.725 101.623 122.753C101.136 125.267 100.974 127.862 100.001 130.214C99.6769 131.025 99.3518 131.592 98.7848 131.836C99.4339 134.106 100.812 132.484 102.028 133.782C102.677 134.592 101.542 135.322 100.812 135.484C100.163 135.646 99.4339 135.89 98.7848 136.052C98.4608 136.133 97.8116 135.403 97.7306 135.322C97.4066 135.16 96.9195 132.89 97.0005 131.998C96.3514 131.917 95.7844 131.592 95.4604 131.106C94.8112 129.971 94.7302 128.672 94.3241 127.537C93.6761 125.186 93.027 122.835 92.4599 120.401C91.6488 116.59 92.541 117.158 88.8914 115.455C88.3233 115.212 87.8373 114.806 87.2692 114.481C87.1882 117.806 86.9452 121.212 86.3771 124.537C85.891 127.132 85.4039 129.727 84.8369 132.322C84.4319 134.025 83.8638 135.728 83.3767 137.431C83.0527 138.891 82.5666 140.269 82.4035 141.729C82.4035 141.972 82.4856 142.215 82.2415 142.458C82.1605 142.539 81.9985 142.702 81.9175 142.783C81.9985 142.864 81.9985 142.864 81.9985 142.945C82.3225 143.512 82.7286 144.161 83.2957 144.567C84.0258 144.73 84.6749 144.486 85.4039 144.567C87.9183 144.811 85.1609 147.243 84.1068 147.486C83.8638 147.567 83.4577 147.811 83.2147 147.486C83.1337 147.405 83.2147 147.243 83.2957 147.162H83.2147C82.2415 147.081 81.3494 146.594 81.0254 145.621C80.7014 144.892 80.4573 144.08 80.3763 143.269H80.2953C79.4852 143.188 78.9171 142.539 78.43 141.972C77.4569 140.756 76.9708 139.215 76.7278 137.756C75.9977 134.268 75.8357 130.619 75.9977 127.051C76.1597 123.97 76.5658 120.888 76.8898 117.806C76.9708 116.915 77.1329 116.023 77.2139 115.131C77.3759 113.751 77.62 112.292 77.2949 110.914C77.1329 112.049 77.1329 114.157 76.0787 113.914C75.8357 113.833 75.6737 113.751 75.5927 113.589C75.3486 114.319 75.1056 115.374 74.2135 115.455C73.5654 115.374 73.6464 114.806 73.7274 114.319C73.4023 114.888 72.9973 115.293 72.5923 115.293C72.1862 115.212 72.1052 114.888 72.1862 114.481C71.9432 114.806 71.6191 115.05 71.2131 115.05C69.9159 114.725 71.9432 111.481 72.2672 110.751C73.0783 108.805 74.2135 107.103 75.0246 105.156C74.9436 104.588 74.9436 104.021 75.0246 103.534C75.0246 103.21 75.2676 102.318 75.5117 101.913C75.1866 101.264 75.1056 100.534 75.1056 99.8845C75.0246 98.7494 75.1056 97.6142 75.1056 96.4791C75.1056 96.3171 75.1866 95.993 75.1866 95.668C75.0246 95.587 74.8626 95.587 74.6196 95.5059C74.2945 95.4249 74.0514 95.3439 73.7274 95.2629C73.5654 95.4249 73.3213 95.587 73.0783 95.83C72.5923 96.2361 72.0242 96.5601 71.4561 96.8841C70.889 97.2092 70.4019 97.5332 69.8349 97.7762C68.6998 98.2633 67.4825 98.6684 66.2664 98.9124H66.1044C64.8882 99.0745 63.6721 99.1555 62.4549 99.0745C61.7258 98.9935 60.9957 98.9124 60.2656 98.7494C59.6175 98.5874 58.8874 98.3443 58.3193 98.1013C57.7523 97.9393 57.2652 97.6952 56.7791 97.3712C56.211 97.0472 55.644 96.7221 55.1569 96.3981C54.0218 95.587 53.0486 94.6138 52.1565 93.5597C51.7515 92.9926 51.3454 92.4245 50.9404 91.8564C50.6153 91.2894 50.2912 90.7213 50.0482 90.0732C49.8052 89.4241 49.5611 88.775 49.3991 88.046C49.2371 87.3969 49.0751 86.6668 48.9941 85.9366C48.9131 85.2886 48.9131 84.5585 48.9131 83.8284C48.9131 83.0993 48.9941 82.3692 49.1561 81.7201C49.3991 80.3419 49.8052 78.9627 50.3723 77.6655C51.0214 76.3684 51.8325 75.2332 52.8056 74.1791C53.7787 73.206 54.9139 72.3139 56.13 71.6647C56.211 71.6647 56.2921 71.5837 56.2921 71.5837C56.6981 71.3407 57.1842 71.0156 57.5903 70.8536C58.1573 70.6106 58.6444 70.2866 59.2925 70.1246C59.3735 70.0425 59.5355 70.0425 59.5355 70.0425C60.8337 69.6375 62.2929 69.4755 63.6721 69.4755C64.3201 69.4755 64.8882 69.4755 65.5373 69.5565C66.1854 69.6375 66.7535 69.7185 67.4015 69.8805C68.6998 70.2056 69.9969 70.6916 71.2131 71.3407C72.4292 71.9888 73.4844 72.8809 74.4565 73.854C74.9436 74.3411 75.4296 74.9082 75.7547 75.3953C76.1597 75.9623 76.4848 76.5304 76.8088 77.0985C76.9708 77.3415 77.0518 77.5845 77.1329 77.7466C77.863 77.8276 78.5121 77.9086 79.2411 77.9896C80.1333 78.0716 81.0254 78.3147 81.9175 78.5577C82.0795 78.6387 83.2147 78.9627 83.8638 79.3688C83.8638 79.1258 83.9448 78.8817 83.9448 78.6387C82.1605 78.2337 80.9444 75.7193 80.6204 74.0981V73.368H80.5393C79.7282 73.368 78.9981 73.044 78.349 72.4759C77.782 71.8268 77.5389 70.9346 77.5389 70.1246C77.62 68.6643 78.8361 67.5292 79.9712 66.8801C81.6745 65.907 83.2957 67.1242 83.9448 68.6643C84.8369 68.1783 85.81 68.0152 86.7832 68.1783C88.4043 68.0973 89.9456 68.8264 90.9997 70.0425C91.1617 70.2866 91.2427 70.5296 91.1617 70.6916C91.8918 71.6647 92.1349 72.2328 92.1349 72.9619C92.3779 72.7189 92.784 72.7189 93.027 73.044C93.5951 73.773 93.6761 75.0712 92.865 75.7193C92.784 75.8003 92.703 75.8813 92.622 75.9623C92.946 76.5304 93.108 77.4225 92.3779 77.6655C92.541 79.0448 90.9997 80.4229 89.7026 80.4229C88.8914 80.4229 88.0803 79.9358 87.5943 79.2878V79.2068C87.6753 79.2068 87.8373 79.2878 87.9183 79.3688C88.6484 79.6928 89.4595 79.9358 90.1886 79.6928C91.0807 79.4498 91.7298 78.7197 91.9729 77.8276V77.7466H91.6488C91.4868 77.7466 91.3237 77.5035 91.4868 77.3415C91.7298 77.1795 91.9729 77.3415 92.2159 77.2605C92.3779 77.2605 92.3779 77.0175 92.3779 76.9354C92.2969 76.4494 91.9729 76.0444 91.8108 75.6383V75.7193C91.7298 75.8003 91.7298 75.8813 91.6488 75.9623C91.5678 76.1254 91.4868 76.2874 91.3237 76.3684C91.1617 76.4494 90.9997 76.6114 90.8377 76.6924C90.7567 76.6924 90.7567 76.6924 90.6757 76.7734H90.2696C90.1076 76.7734 89.8646 76.6114 89.7026 76.5304C89.4595 76.3684 89.2965 76.0444 89.2155 75.8003C89.1345 75.5573 89.0535 75.2332 89.0535 74.9082C88.8914 74.9082 88.7294 74.8272 88.5674 74.7462C88.5674 74.8272 88.5674 74.8272 88.4864 74.9082C88.4043 75.2332 88.2423 75.7193 87.8373 75.7193C87.6753 75.7193 87.5943 75.6383 87.5133 75.5573C87.1882 75.1522 87.1072 74.5841 86.6212 74.3411C86.4591 74.2601 86.3771 74.3411 86.2151 74.3411C85.891 74.4221 85.567 74.5031 85.3229 74.8272C84.5939 75.8813 85.972 77.5035 84.8369 78.3957C84.7559 78.6387 84.5129 78.7197 84.2688 78.8007C84.2688 79.2068 84.1878 79.6928 84.1068 79.8548C85.486 79.6118 87.0262 79.6928 87.9183 80.5039C89.0535 81.2341 89.4595 82.4502 89.6216 83.6663C89.8646 84.3965 90.1076 85.2076 90.2696 86.0187C90.5947 87.5589 90.5947 89.1811 90.7567 90.7213C90.9187 93.5597 90.9997 96.3981 90.9997 99.3175C90.9997 101.102 90.9187 102.886 90.9997 104.588C91.8108 105.075 92.703 105.642 93.5141 106.129C94.8923 107.022 96.1894 108.076 97.5686 109.049C99.1088 109.778 100.163 110.67 100.893 111.805Z" fill="black"/>
</g>
<defs>
<clipPath id="clip0_884_22211">
<rect width="288" height="179.896" fill="white" transform="translate(0 -0.000488281)"/>
</clipPath>
</defs>
</svg>
