<svg width="132" height="200" viewBox="0 0 132 200" fill="none" xmlns="http://www.w3.org/2000/svg">
<g clip-path="url(#clip0_884_21626)">
<path d="M124.586 196.901C120 194.879 114.94 194.227 109.964 194.264C104.704 194.301 99.5025 195.114 94.3191 195.935C88.8375 196.803 83.3277 197.677 77.7646 197.677C72.1747 197.677 66.6234 196.899 61.0379 196.787C56.1453 196.689 51.0761 197.104 46.5336 199.061C45.9728 199.302 45.4254 199.569 44.8869 199.854C43.9359 200.355 43.0889 198.912 44.0428 198.409C48.5897 196.006 53.7524 195.195 58.8453 195.109C64.4233 195.015 69.9687 195.785 75.5378 195.966C81.1588 196.149 86.7072 195.448 92.2481 194.579C97.6229 193.736 103.004 192.806 108.451 192.622C113.548 192.451 118.766 192.92 123.579 194.7C124.203 194.932 124.82 195.187 125.43 195.457C125.844 195.638 125.939 196.242 125.73 196.601C125.48 197.027 125.001 197.083 124.586 196.901Z" fill="black"/>
<path d="M90.6622 196.689C90.6845 196.532 90.6593 196.371 90.6444 196.213C90.6429 196.162 90.64 196.11 90.6355 196.057C90.861 196.152 91.1459 196.113 91.3254 195.934C91.4262 195.833 91.4811 195.708 91.496 195.582L91.4989 195.584C91.5123 195.508 91.5256 195.431 91.539 195.355C91.6013 195.081 91.6799 194.809 91.766 194.54C92.2318 194.358 92.2555 193.907 92.4039 193.545C92.6131 193.248 92.6828 192.876 92.4721 192.499C92.1799 191.954 91.3476 191.889 90.9708 192.371C89.0511 192.172 88.7604 192.609 88.391 194.42C88.3064 195.085 88.0943 195.748 88.072 196.412C88.1224 196.95 88.7885 197.263 89.247 197.001C89.3968 197.226 89.6431 197.333 89.8893 197.333C90.2513 197.333 90.6118 197.103 90.6622 196.689ZM90.4041 194.055C90.3982 194.088 90.3922 194.124 90.3863 194.158C90.3818 194.121 90.3759 194.083 90.37 194.046C90.3818 194.051 90.3937 194.052 90.4041 194.055Z" fill="white"/>
<path d="M83.2205 199.042C83.6285 198.971 83.9801 198.724 84.3524 198.557C84.7574 198.532 85.1713 198.463 85.5808 198.428C86.0051 198.419 86.4293 198.426 86.8551 198.432C87.3907 198.44 87.9277 198.448 88.4618 198.428C89.5625 198.459 90.8057 198.233 91.2864 197.11C91.6009 196.571 91.862 195.64 91.2804 195.19C91.1514 194.197 90.4081 193.374 89.4468 194.117C89.3252 193.558 89.3163 192.975 89.2154 192.417C88.5849 191.767 88.5419 194.509 88.4944 194.832C87.1963 195.068 86.0585 195.818 84.8494 196.313C84.4444 196.497 84.0528 196.705 83.6433 196.883C83.4356 196.92 83.2442 197.048 83.1211 197.206C81.777 197.251 81.829 199.049 83.081 199.049C83.1256 199.049 83.173 199.046 83.2205 199.042ZM89.8815 196.665C89.7242 196.754 89.5388 196.746 89.3578 196.739C89.3014 196.736 89.2436 196.735 89.1857 196.735C89.1531 196.494 88.981 196.281 88.7496 196.203C88.978 196.068 89.248 195.933 89.3237 195.657C89.5521 195.6 89.7673 195.436 89.9675 195.276C90.0832 195.752 89.791 196.184 89.8815 196.665Z" fill="white"/>
<path d="M73.3872 199.842C73.7491 199.834 74.1111 199.837 74.4731 199.842C75.5946 199.852 76.7132 199.864 77.7991 199.555C79.0364 199.422 80.5095 198.919 80.7721 197.557C80.916 196.519 81.6533 195.083 80.5778 194.319C80.3434 194.171 80.1728 193.938 79.8686 193.912C79.5304 193.883 79.1833 193.905 78.842 193.877C78.6358 193.895 78.4252 193.874 78.216 193.85C77.9208 193.819 77.6256 193.788 77.3392 193.875C76.5634 194.273 76.6094 195.331 76.0575 195.938C74.6674 196.291 73.267 196.603 71.8799 196.978C71.1307 197.103 70.3623 197.355 69.7941 197.879C69.4277 198.229 69.352 198.806 69.668 199.216C69.8505 199.484 70.1724 199.594 70.3786 199.635C71.0699 199.812 71.7716 199.865 72.4763 199.865C72.7804 199.865 73.083 199.855 73.3872 199.842Z" fill="white"/>
<path d="M48.5351 83.29C50.5097 83.3389 51.9769 82.0436 53.4856 80.9589C55.0166 79.8891 56.2894 78.5151 57.678 77.2791C58.6794 76.4229 59.3574 75.2641 60.3587 74.4079C61.6138 73.2313 62.8036 71.8009 63.9414 70.5367C65.2528 69.3007 66.1949 67.7813 67.1399 66.2648C67.6428 65.5838 68.0344 64.7959 68.708 64.2632C69.693 63.4367 70.9139 62.9292 72.1438 62.5939C73.0591 62.4425 74.1228 62.4782 74.8838 61.8817C75.0589 61.7095 75.1627 61.484 75.1835 61.2511C76.0884 61.343 77.0082 61.346 77.9176 61.3653C80.1444 61.484 81.1369 61.0374 81.8875 58.8606C82.3088 57.9763 82.0463 56.948 82.2539 56.0073C82.3978 55.5755 82.4394 55.12 82.426 54.6704C82.4824 54.3113 82.4364 53.838 81.9973 53.7727C81.5582 53.3216 80.8876 53.4448 80.3758 53.694C79.5747 53.0189 78.5585 53.2741 77.6358 53.4715C77.6194 53.4581 77.6016 53.4463 77.5853 53.4359C77.7782 51.8794 77.7366 49.5171 75.5425 49.8866C74.9966 49.9593 74.5322 50.3288 74.0175 50.492C73.6599 50.1715 73.0695 50.1225 72.6778 50.4594C72.5517 50.4282 72.4242 50.3926 72.2995 50.3525C72.1957 50.1433 72.0177 49.9682 71.8041 49.8777C71.5682 49.7798 71.2982 49.7768 71.0608 49.8718C70.7908 49.5082 70.2493 49.3658 69.8458 49.5869C69.5209 49.4207 69.1041 49.4771 68.8222 49.7011C68.7673 49.71 68.7124 49.7189 68.6575 49.7264C68.6753 48.8079 67.355 48.3791 66.8387 49.207C66.818 49.1952 66.7972 49.1863 66.7764 49.1774C66.7349 49.1595 66.6904 49.1447 66.6444 49.1328C66.3803 47.7277 66.8743 46.0035 65.6089 45.0672C65.2825 44.8773 64.9294 44.8194 64.5823 44.861C64.3538 44.7007 64.066 44.634 63.7753 44.72C63.2249 44.8565 63.0647 45.4144 62.9222 45.8996C62.8392 46.0154 62.7665 46.137 62.7071 46.2632C62.5885 46.5199 62.4861 46.7855 62.3926 47.054C62.4045 47.1816 62.3585 47.3107 62.2754 47.4057C62.1063 47.9339 61.958 48.474 61.7874 49.0008C61.5797 49.4771 61.3037 50.0706 61.0575 50.6834C61.0337 50.722 61.0085 50.7591 60.9848 50.7977C60.8082 51.0722 60.5753 51.3155 60.3617 51.5692C60.6703 50.9342 61.05 50.2709 60.8067 49.5513C60.3825 48.474 59.7 47.603 59.3841 46.4101C59.1882 45.7409 59.0977 45.0019 59.341 44.3342C59.6259 43.8179 59.8336 43.2184 59.4894 42.6753C59.2476 42.1857 58.8574 41.7865 58.6008 41.3087C58.4124 40.8888 58.4213 40.4155 58.3871 39.9629C58.3723 37.801 58.5177 35.2593 60.2727 33.7562C60.8349 33.6494 61.191 32.9757 60.9655 32.4593C60.648 31.7887 59.838 31.5394 59.2758 31.1135C58.2952 30.4325 57.2819 28.7291 55.9141 29.3923C52.0392 31.8822 47.9194 33.9758 43.7152 35.8573C41.1843 37.1897 38.6757 38.5563 36.1181 39.8383C34.1672 40.7597 32.3692 41.9453 30.4006 42.8267C27.7199 44.3238 24.916 45.5569 22.1166 46.8122C20.5768 47.5867 19.1734 48.6135 17.6038 49.3391C16.9555 49.6997 16.2864 50.0098 15.5773 50.2264C14.2955 50.7739 13.0138 51.317 11.6994 51.7814C9.10027 52.9314 6.10951 52.8631 3.62165 54.3247C3.35017 54.4463 3.04753 54.4908 2.79681 54.6585C2.28649 55.0072 2.25681 55.8218 2.74341 56.2106C2.96148 56.3946 3.21665 56.4331 3.48071 56.491C4.56071 56.8219 5.65852 57.0118 6.69994 57.4273C8.39115 58.2508 10.1076 59.0847 11.551 60.3103C12.5302 60.9513 13.3417 61.7882 14.2036 62.5731C14.8326 63.1503 15.5106 63.6741 16.0817 64.3136C16.5564 64.8537 17 65.422 17.4094 66.0126C18.0711 66.8034 18.7565 68.719 19.9819 68.4979C20.0961 68.4683 20.1925 68.4312 20.2756 68.3881C20.0946 69.0455 19.9492 69.7147 19.7786 70.372C19.5546 69.5989 18.9968 69.0321 18.5518 68.3911C18.3752 68.0662 18.3856 67.6759 18.1571 67.3747C17.9079 67.0141 17.3976 66.9147 17.0089 67.0735C16.1692 67.4222 16.463 68.3392 16.6128 69.0202C16.4541 68.9802 16.2864 68.9772 16.1188 69.0247C15.8666 69.0929 15.6693 69.2577 15.5387 69.4758C14.7955 69.7414 14.8252 70.6613 14.8266 71.3172C14.2184 71.5976 14.208 72.3633 14.2881 72.9449C14.3727 73.7224 14.5403 74.862 15.4705 75.0252C16.1366 75.7626 18.5073 78.3845 19.4493 78.2287C20.0442 78.7851 20.6925 79.2896 21.2013 79.9321C21.544 80.3328 21.8882 80.8996 22.4935 80.8076C23.0379 81.137 23.7203 81.6148 24.3716 81.3121C24.8612 81.3848 25.2187 80.996 25.4575 80.6191C25.821 80.2215 26.0509 79.8208 26.3818 79.4113C27.2007 78.5759 27.6784 77.929 27.4707 77.3058C27.7792 77.4393 28.0967 77.5521 28.4275 77.6426C30.1618 78.1263 31.9894 78.1694 33.6836 78.8178C36.3243 79.5701 38.6846 81.0524 41.2866 81.9204C42.4631 82.3121 43.911 82.4679 45.0622 82.7617C46.1348 83.0348 47.2281 83.2915 48.3408 83.2915C48.4046 83.2915 48.4698 83.2915 48.5351 83.29ZM21.1019 66.6224C21.0574 66.6536 21.0159 66.6877 20.9743 66.7248C20.9981 66.6788 21.0233 66.6328 21.0545 66.5883C21.0708 66.5987 21.0871 66.6091 21.1019 66.6224ZM66.5554 60.5225C66.272 60.4884 65.9872 60.4157 65.6935 60.2866C64.9947 60.064 64.56 59.6945 64.2544 59.242C64.8775 59.8637 65.7053 60.2525 66.5554 60.5225ZM73.43 60.2317C73.3899 60.2346 73.3499 60.2376 73.3098 60.2391C72.9849 60.2109 72.6586 60.1946 72.3337 60.1887C72.6986 60.0803 73.0561 59.9527 73.4196 59.8014C73.3929 59.9527 73.3988 60.0967 73.43 60.2317ZM61.1939 54.8588C61.2711 54.9137 61.3482 54.9671 61.4298 55.0161C61.2963 54.9909 61.1672 54.9582 61.053 54.8855C60.8824 54.7475 60.7622 54.5636 60.6643 54.3632C60.8379 54.5487 61.0204 54.7164 61.1939 54.8588Z" fill="white"/>
<path d="M39.1888 114.312C39.4706 114.238 39.7273 114.104 39.9572 113.925C41.7226 112.923 43.6512 112.229 45.3884 111.163C48.5824 109.294 51.6459 107.162 55.0298 105.676C57.3233 104.581 59.4477 103.161 61.532 101.713C61.9474 101.452 62.3435 101.164 62.75 100.891C63.3048 100.582 63.9056 100.309 64.3166 99.8049C65.3906 98.2706 64.9634 94.5092 63.781 93.1322C63.7706 93.0328 63.7647 92.9334 63.7603 92.8325V92.7375C63.9947 92.5832 64.2068 92.414 64.3848 92.19C64.9204 91.5119 64.3744 90.5697 63.5259 90.6246C63.1847 90.5341 62.9517 90.77 62.7915 91.04C62.1254 91.506 61.3303 91.7359 60.5707 92.003C59.6272 92.2479 58.6807 92.4853 57.7609 92.8132C56.4317 93.3488 55.1203 93.9646 53.6961 94.1976C51.9945 94.4691 50.2855 94.2866 48.6002 94.0091C46.323 93.837 43.9998 93.5981 41.9808 92.4348C40.9809 91.9407 40.1531 91.4511 39.211 90.9139C38.1874 90.4035 37.1564 89.9109 36.2025 89.2728C34.848 88.5517 33.4743 87.835 32.2949 86.8379C31.8929 86.4299 31.516 85.9996 31.1259 85.5796C30.3129 84.7131 28.9199 85.8349 29.6216 86.8171C30.4627 88.1259 30.9642 89.5993 31.4819 91.0534C31.9507 92.1054 32.3542 93.1812 32.7666 94.2569C33.6004 96.5628 34.6418 98.9546 35.3153 101.287C36.0808 103.716 36.9398 105.86 37.3878 108.314C37.5807 109.748 37.6118 111.198 37.7854 112.632C37.8299 113.385 38.0895 114.34 38.9292 114.34C39.0093 114.34 39.0968 114.331 39.1888 114.312Z" fill="white"/>
<path d="M60.5193 35.6153C60.1291 36.4729 59.3962 37.4107 59.7033 38.3915C59.8546 38.8737 60.2671 39.2313 60.4124 39.7076C60.4777 40.4183 60.5994 41.1217 60.8575 41.7894C61.4301 43.0224 61.534 44.6071 62.6585 45.5137C63.513 45.9974 64.6019 45.6636 65.5439 45.6784H65.5454C65.6389 45.7378 65.7249 45.8075 65.8095 45.8773C66.0943 46.8551 66.029 47.8196 66.1433 48.8078C66.8643 51.3169 70.0345 50.6002 71.9453 50.1595C72.7642 53.1761 74.1869 53.0054 76.7296 52.0172C76.9818 53.9818 78.142 54.9106 80.1091 54.6718C81.4116 54.6094 83.0094 54.3676 83.7081 53.1227C84.5181 53.0692 85.3296 53.3037 86.144 53.2176C87.6157 53.0544 88.8351 52.0929 89.654 50.8999C91.0723 49.0378 90.2118 46.6221 89.4315 44.6739C89.3099 44.1976 89.2194 43.6887 89.2832 43.1975C89.7787 42.0105 90.8216 41.1706 91.3705 40.0118C93.2694 36.5694 92.9549 33.6062 90.0694 30.8671C88.7713 29.5539 86.9822 28.7868 85.1412 28.9738C84.1294 28.9322 83.1102 28.8848 82.2765 29.5317C81.2039 28.4129 80.5022 26.9306 79.219 26.0136C76.8543 24.5802 73.9911 24.4645 71.7747 26.248C71.3267 26.6338 70.8935 27.0567 70.5716 27.5567C70.0227 28.4648 70.1977 29.4352 68.8181 29.2201C67.115 29.2839 64.5856 28.9426 63.918 30.9754C63.6495 31.7782 64.3096 32.753 63.5872 33.4029C62.6956 34.3214 61.1023 34.36 60.5193 35.6153Z" fill="black"/>
<path d="M90.9325 46.8031C91.2619 46.6858 91.5319 46.447 91.7648 46.1947C93.8031 45.4454 94.5197 41.773 92.511 40.6201C92.2054 39.2965 90.8094 38.0546 89.5855 39.1986C89.3407 37.2949 87.1288 37.4803 87.2401 39.4093C86.1601 38.0204 85.5845 36.3126 85.2151 34.6107C85.6423 33.5408 85.8174 32.3612 85.6438 31.2231C86.4271 30.6578 86.6808 29.4693 86.12 28.668C85.8233 28.1947 85.3961 27.8505 85.0786 27.3964C84.6365 26.8444 83.9303 26.7999 83.3369 26.5536C82.2777 26.0343 80.9603 26.5966 80.3373 27.5344C79.6712 27.8089 79.1074 28.5523 79.4412 29.2794C79.7973 29.999 80.6859 30.2705 81.398 30.5243C81.9113 30.9931 82.521 31.3552 83.2019 31.5303C83.1723 31.7855 83.15 32.0422 83.1322 32.2974C83.0862 32.98 83.1114 33.661 83.199 34.3376C82.5507 35.5736 81.4647 36.5678 80.2023 37.1539C79.6014 37.4106 79.0065 37.6821 78.3894 37.8958C78.1595 37.97 77.9681 38.1748 77.8702 38.3929C77.6565 38.8529 77.8835 39.4449 78.3523 39.6407C78.8849 39.8707 79.4234 39.5131 79.9278 39.3559C81.3995 38.8425 82.7732 38.0471 83.8057 36.8631C84.4095 38.7149 85.5503 41.1795 87.3706 42.0757C87.384 42.1647 87.3988 42.2552 87.4151 42.3442C87.4196 42.3754 87.4255 42.4051 87.43 42.4362C87.4196 42.457 87.4077 42.4778 87.3973 42.4986C87.3439 42.5965 87.295 42.6989 87.249 42.8027C87.1095 42.6588 86.9493 42.5104 86.7535 42.4481C86.5458 42.3888 86.3381 42.4852 86.1393 42.5386C85.221 42.7374 84.3116 43.0075 83.3829 43.1158C82.8963 43.5788 86.209 42.595 86.4286 42.6395C86.8989 42.6306 87.0591 43.331 87.0012 43.696C86.9181 44.1322 87.516 44.3993 87.789 44.0462C87.875 44.7866 88.2607 45.5359 88.863 45.9825C89.2992 46.6354 90.1537 47.1221 90.9325 46.8031Z" fill="black"/>
<path d="M65.8348 45.042C66.0158 44.9975 66.1627 44.8758 66.2458 44.72C66.8837 44.9693 67.7486 44.8728 68.023 44.1606C68.3331 43.4395 67.9518 42.6278 67.7263 41.9364C67.3109 40.7894 66.7309 39.6113 65.7458 38.8501C65.194 38.3649 64.1496 38.2936 63.8276 39.0741C63.5591 39.7611 63.8306 40.5045 63.979 41.19C64.1451 41.9067 64.4136 42.5907 64.4997 43.3119C64.654 43.7021 64.8171 44.0879 65.0026 44.4648C65.1138 44.8283 65.4343 45.1488 65.8348 45.042ZM66.5603 43.119C66.3392 43.0552 66.1375 42.9305 65.9164 42.8727C65.9046 42.8385 65.8912 42.8029 65.8779 42.7688C65.8111 42.5863 65.6716 42.4498 65.504 42.3726C65.2236 41.5239 64.9091 40.6662 64.8468 39.77C65.8363 40.5906 66.2621 41.9097 66.5603 43.119Z" fill="black"/>
<path d="M64.7239 43.324C64.8099 42.8002 64.4435 42.3254 63.9332 42.2289C62.874 42.0791 61.9512 41.3075 61.4483 40.3846C60.8816 39.3355 61.4097 36.9511 59.6992 37.0104C59.9633 36.0667 60.5537 35.077 61.4498 34.6215C61.6041 35.2625 62.4497 35.5518 62.9615 35.1453C63.8397 35.1453 63.997 34.2624 64.0786 33.568C64.6957 33.522 65.0488 32.9181 64.9627 32.3379C64.9227 31.4239 65.5977 30.8096 66.2593 30.2962C67.3942 29.0647 69.1492 29.3362 70.652 29.3006C71.0481 29.6611 71.7988 30.2413 72.1103 29.4727C72.2008 28.9994 71.8225 28.5765 71.5777 28.2055C71.7617 25.0673 66.783 25.6667 64.804 26.1223C63.6884 26.3671 62.7746 27.3716 62.2034 28.2693C61.205 29.5053 61.1071 31.1286 61.2777 32.6465C60.0938 32.8736 59.1741 33.8069 58.5673 34.8025C57.6119 36.1899 57.4695 37.9556 57.8656 39.5611C58.1757 40.6487 58.824 43.2869 60.4024 42.2942C60.9365 42.8521 61.5136 43.3997 62.2227 43.7276C63.0075 44.1104 64.4806 44.5244 64.7239 43.324Z" fill="black"/>
<path d="M68.2277 31.7646C68.9146 31.6756 69.5006 30.9351 69.1564 30.2674C69.6845 28.8964 70.2646 27.4378 71.3832 26.4377C72.7035 25.451 74.3086 24.5489 76.0102 24.715C78.0901 24.8872 79.7294 26.2434 81.3791 27.3829C81.3791 27.3799 81.3776 27.377 81.3776 27.377C81.4948 27.4289 81.6476 27.4022 81.7203 27.2746C82.0274 26.6915 80.9681 25.8249 80.581 25.4703C78.4373 23.479 75.5533 22.4033 72.7406 23.6319C71.3921 24.2031 70.0569 24.9777 69.1727 26.1751C68.3701 27.3072 67.756 28.567 67.2946 29.8742C67.1373 30.3179 66.9756 30.8075 67.2249 31.2542C67.4162 31.5984 67.8316 31.8328 68.2277 31.7646Z" fill="black"/>
<path d="M62.5521 139.26C62.4987 142.806 62.6974 146.348 62.8043 149.891C62.9734 152.765 62.8651 155.654 63.1722 158.518C63.5549 162.717 64.4109 166.849 64.9346 171.031C65.4316 173.817 65.7401 176.65 66.4196 179.395C66.8201 180.729 67.2949 182.039 67.8527 183.314C68.182 184.057 68.5173 184.797 68.8184 185.554C68.8333 185.833 68.9534 186.106 69.0825 186.361C69.6462 187.206 70.0498 188.687 71.2247 188.715C72.1919 189.718 73.091 190.802 74.1813 191.675C75.7776 192.834 77.6824 194.194 79.7579 193.678C81.2547 193.196 81.5752 191.421 81.5811 190.04C81.6538 189.329 81.8823 188.454 81.9995 187.832C82.7472 184.458 83.3065 181.167 83.8954 177.789C84.5897 181.281 85.8477 184.616 86.7111 188.062C87.2437 189.302 87.6591 190.857 88.8088 191.665C89.6247 192.058 90.6677 192.625 91.5771 192.277C91.8782 192.154 92.0666 191.881 92.3069 191.672C92.3144 191.665 92.3233 191.66 92.3307 191.651C92.3233 191.656 92.3173 191.663 92.3099 191.669C93.5798 190.393 94.0545 188.535 94.6939 186.894C96.9133 179.822 96.8064 172.273 97.2916 164.968C97.4622 162.469 97.5586 159.966 97.6209 157.461C97.8316 153.463 98.0051 149.671 98.0941 145.701C98.1876 142.91 98.1431 140.117 98.2039 137.325C98.2217 135.187 98.4205 133.056 98.379 130.918C98.7899 130.358 98.5911 129.563 98.6223 128.909C98.6149 128.109 98.5674 127.308 98.5407 126.509C98.5407 126.511 98.5392 126.512 98.5377 126.512C98.5392 126.429 98.514 126.346 98.4621 126.279C98.3716 126.162 98.238 126.121 98.1134 126.14C97.9057 125.904 97.6105 125.8 97.3094 125.738C96.7174 125.435 96.1047 125.181 95.4728 124.974C94.2504 124.552 92.8514 124.527 91.6097 124.89C90.9688 125.086 90.3754 125.411 89.7494 125.644C88.0018 126.227 86.3862 127.043 84.6194 127.463C83.2367 127.659 81.8541 127.904 80.4522 127.799C78.2462 127.877 76.2568 127.316 74.1413 126.968C72.1771 126.739 70.1758 126.632 68.2814 126.015C67.3409 125.588 66.2623 125.374 65.4197 124.775C65.0251 124.107 63.9792 123.956 63.5668 124.692C63.3161 125.177 63.4051 125.744 63.3576 126.269C63.319 127.386 63.3383 128.503 63.2701 129.618C62.8948 132.82 62.6604 136.04 62.5521 139.26Z" fill="#2A3276"/>
<path d="M88.6429 78.5559C88.6162 78.504 88.5895 78.4521 88.5613 78.4001C88.7794 78.5218 89.0019 78.6361 89.2303 78.7414C89.033 78.6835 88.8372 78.6212 88.6429 78.5559ZM80.6304 108.901C80.1675 109.769 79.1751 111.301 80.442 111.931C80.5251 112.295 80.6942 112.64 80.9434 112.921C80.847 113.942 81.4864 114.804 82.1495 115.512C82.826 116.255 83.4995 117.003 84.1181 117.798C84.9682 118.798 87.6178 122.778 88.9885 120.926C91.4526 123.272 95.3039 125.395 98.7753 125.297C102.137 125.26 105.714 124.667 108.543 122.76C111.937 120.433 114.722 116.374 116.302 112.609C116.88 111.378 117.254 110.302 117.537 109.018C118.365 107.584 118.999 106.036 119.193 104.38C119.223 103.917 119.395 103.416 119.187 102.975C119.936 101.092 120.025 99.0621 120.076 97.0619C120.136 96.1346 120.178 95.3971 120.184 94.4964C120.236 94.0439 120.159 93.5216 119.754 93.2471C118.905 92.6194 118.209 93.4964 118.098 94.3228C117.614 96.3586 117.925 98.4819 117.597 100.544C117.419 102.343 117.02 104.098 115.459 105.134C115.225 102.999 115.484 100.844 115.377 98.703C115.334 97.9047 115.259 96.6732 114.207 96.6569C113.659 96.645 113.367 97.1109 113.065 97.4878C112.79 97.8454 112.355 98.1021 111.973 98.2905C110.731 98.8974 109.32 99.1556 107.948 98.9656C107.43 98.9389 106.908 98.8484 106.488 98.522C104.795 97.1925 103.62 95.2324 102.908 93.2189C102.054 91.0718 100.894 89.0346 100.441 86.7465C100.122 85.4319 99.6876 84.1365 99.7841 82.764C99.704 82.0355 100.281 79.3943 99.6313 79.1435C99.2752 79.0367 99.2456 79.5278 99.1358 79.7549C97.9282 79.3824 96.6316 79.4195 95.3617 79.4581C96.7681 79.2726 98.1433 78.8928 99.4992 78.4625C103.159 77.4653 106.774 75.8554 109.51 73.1712C111.615 71.4055 113.459 69.3267 114.817 66.9318C115.61 65.4673 115.184 63.7224 115.205 62.1317C115.262 60.8527 114.618 59.7591 113.989 58.6967C113.207 57.388 112.312 56.1446 111.479 54.867C110.278 52.8728 108.209 51.4068 105.883 51.1086C104.267 50.9572 102.665 51.3415 101.09 51.6516C99.4963 52.0834 98.0958 53.0538 96.5737 53.6652C93.9746 54.8715 92.1721 57.2367 89.6502 58.5736C87.3789 59.8333 85.7856 61.9537 84.4089 64.1022C83.7621 65.0771 82.8898 65.9525 82.5426 67.0936C82.2 68.3222 82.7266 69.573 82.9773 70.7719C83.2132 71.8818 83.7013 72.9086 84.2932 73.8731C85.0305 75.2441 85.9592 76.4267 87.06 77.3541C86.3879 77.4891 86.1476 78.231 86.2114 78.8809C86.201 79.4255 86.1802 80.0116 86.4117 80.5146C86.6312 81.1407 86.8241 81.7802 86.9472 82.4316C87.4457 85.1322 87.6148 87.8876 87.4976 90.6296C87.4041 92.9963 86.9873 95.3467 86.3864 97.6347C86.2218 98.568 85.5438 99.6467 86.0334 100.561C84.9979 102.61 83.2963 104.212 82.1718 106.213C81.3291 106.815 81.1867 108.066 80.6304 108.901Z" fill="#2A3276"/>
<path d="M117.519 102.875C117.869 101.497 118.043 100.081 118.056 98.657C118.16 95.222 118.072 91.6638 116.504 88.5286C116.799 87.2733 115.117 86.8207 114.65 87.9944C114.043 88.2941 113.399 88.6413 113.251 89.3684C113 89.6874 112.558 89.9856 112.598 90.4323C112.626 90.6919 112.868 90.9293 113.14 90.8789C113.301 92.4235 113.973 93.851 114.246 95.3733C114.423 96.3096 114.598 97.2444 114.76 98.1822C114.826 98.6748 115.288 99.0636 115.788 99.022C115.816 100.268 115.642 101.506 115.611 102.748C115.727 103.779 117.25 103.88 117.519 102.875Z" fill="white"/>
<path d="M25.8054 81.2884C25.4152 82.6164 26.7133 83.523 27.7251 84.0868C29.1062 84.8644 30.4977 85.6137 31.686 86.6746C33.4692 88.0011 35.3978 89.1155 37.448 89.9731C38.5176 90.5473 39.6822 91.0058 40.7711 91.5133C41.4105 91.8397 42.0469 92.1795 42.7338 92.4036C44.0408 92.8309 45.3833 93.1425 46.7081 93.5075C48.6159 94.0906 50.5949 94.5744 52.6007 94.2954C54.4358 94.0313 56.2709 93.5758 57.9784 92.8428C59.0569 92.3576 60.0894 91.767 61.2154 91.3886C61.8059 91.1854 62.4319 90.9405 62.9793 90.666C64.0475 90.1482 65.1171 89.4271 66.3528 89.5398C65.9033 91.8486 65.6823 94.1515 65.5977 96.484C65.4138 98.18 65.3174 100.122 65.2372 101.763C65.1423 104.454 64.4821 107.069 64.3041 109.751C63.8249 112.451 63.9866 115.187 63.905 117.918C63.8546 119.29 63.7537 120.673 63.9169 122.041C63.9674 122.458 64.0875 122.87 64.3264 123.218C64.6794 123.725 65.2847 123.958 65.8514 124.145C66.7667 124.434 67.691 124.694 68.6152 124.951C70.5245 125.624 72.3744 126.006 74.3787 126.268C76.3458 126.577 78.3278 126.895 80.3261 126.768C83.7604 126.711 87.1532 126.292 90.5342 125.758C90.8071 125.745 91.0831 125.743 91.3412 125.641C92.0755 125.36 92.1349 124.249 91.4436 123.881C91.3041 123.805 91.1632 123.759 91.1335 123.749C90.4333 123.54 89.9066 123.019 89.3355 122.592C87.3669 121.169 85.8359 119.26 84.0275 117.656C83.1596 116.877 82.3644 116.021 81.4847 115.256C80.9684 114.742 80.3839 114.226 80.0709 113.558C79.571 111.551 80.6154 109.448 81.5159 107.708C82.3452 106.85 83.0083 105.854 83.8064 104.97C84.6921 103.909 85.235 102.62 85.8477 101.395C86.3388 100.418 86.7289 99.3908 86.9248 98.3135C87.4811 96.8119 87.7897 95.2406 87.9766 93.6544C88.0567 93.0357 88.1086 92.4154 88.1487 91.8204C88.254 90.9969 88.2495 89.7298 87.1221 89.7579C87.8371 85.0765 86.7734 80.2453 85.0956 75.8829C84.4117 74.04 82.7902 72.8485 81.7384 71.246C80.7355 69.5708 79.5205 67.86 77.635 67.1344C76.9897 66.8599 76.3087 66.7041 75.6159 66.6077C73.9351 66.3213 72.2409 66.1106 70.5334 66.2323C69.4371 66.2486 68.3022 66.851 67.467 67.3718C66.0339 67.9935 65.0281 69.1895 64.0697 70.3765C63.101 71.6199 62.0759 72.8129 61.1057 74.0519C60.53 74.8799 59.8758 75.6336 59.2201 76.3622C58.6089 77.0744 57.9873 77.6991 57.3702 78.3994C56.7604 79.0894 56.2427 79.8625 55.5855 80.5109C54.1598 81.7558 52.6748 83.1654 50.7878 83.6239C49.3725 83.8405 47.9884 83.2915 46.6429 82.9295C45.8774 82.7158 45.1089 82.514 44.3568 82.2573C43.4147 81.8997 42.4623 81.5674 41.5025 81.2543C40.2474 80.8121 39.0443 80.223 37.7432 79.9188C36.4066 79.6295 35.1308 79.0983 33.7778 78.8891C33.1132 78.7897 32.4426 78.7333 31.778 78.6413C30.3079 78.5463 28.6241 77.8519 27.3097 78.7912C26.556 79.4218 26.0872 80.3595 25.8054 81.2884Z" fill="#B1C1E3"/>
<path d="M45.4801 87.609C46.4562 87.4933 47.3152 87.0185 48.1682 86.5659C50.8949 85.321 53.2003 83.3565 55.5828 81.57C57.547 80.1618 59.1611 78.3531 60.7618 76.5577C61.5821 75.6585 62.4367 74.7875 63.1665 73.8097C64.2925 72.357 65.1901 70.7248 66.4837 69.4057C66.4436 69.5096 66.4021 69.615 66.3502 69.7159C66.2567 69.8924 66.5282 70.0512 66.6187 69.8731C66.8501 69.4963 66.8056 68.9769 67.1809 68.7054C67.7788 68.2053 68.4256 67.7543 69.1585 67.4753C69.4507 67.4189 69.6703 67.2231 69.6807 66.913C69.6184 66.0049 68.4627 66.3432 67.9242 66.5999C67.8901 66.407 67.7491 66.2126 67.5311 66.2749C67.2907 66.3832 67.3041 66.7186 67.2106 66.9337C64.8043 68.2053 63.4113 70.5824 61.7809 72.636C59.9636 74.737 58.0469 76.85 56.0219 78.7522C54.1393 80.3562 52.1054 81.7688 50.1057 83.2214C48.9663 84.1117 47.6045 84.6385 46.345 85.3195C45.9118 85.5376 45.4385 85.6415 44.9846 85.8062C43.9862 86.2068 44.4075 87.7708 45.4801 87.609Z" fill="#B1C1E3"/>
<path d="M83.1963 64.2848C83.4232 64.1423 83.6413 63.9509 83.7407 63.6928C83.7986 63.5429 83.8312 63.3975 83.8401 63.2461C84.5522 62.3974 85.3889 61.6807 86.2256 60.9626C86.4333 60.7296 86.5001 60.4343 86.7552 60.2385C87.089 59.8705 87.537 59.4402 87.448 58.8986C87.6157 58.5039 87.5177 58.0113 87.1528 57.7412C86.7389 57.4875 86.2538 57.4608 85.8073 57.1952C84.8177 56.7604 82.9441 56.0156 82.8194 57.7175C82.3403 58.1522 82.3076 58.9001 82.2809 59.5114C82.3002 60.1227 82.1044 60.7044 81.9427 61.2875C81.5451 61.1599 81.0719 61.2845 80.8137 61.6199C80.3182 61.3795 79.7471 61.0887 79.1878 61.2519C78.8243 61.3009 78.5143 61.0575 78.1523 61.0842C76.9996 61.1495 76.9388 62.5962 77.9654 62.9805C78.4505 63.2135 79.0024 63.2402 79.529 63.1794C80.701 63.6334 81.8522 65.0341 83.1963 64.2848Z" fill="#B1C1E3"/>
<path d="M92.6313 55.5884C93.0214 55.3584 93.3804 55.118 93.7454 54.8628C93.9635 54.7708 94.1904 54.6862 94.3551 54.5126C94.9515 53.9428 94.4901 52.8834 93.6801 52.8864C93.6564 52.8404 93.6282 52.7959 93.5955 52.7543C93.5065 52.6401 93.3938 52.5466 93.2647 52.4828C93.4591 51.3714 92.1818 50.9441 91.4177 51.5955C91.3985 51.5777 91.3792 51.5613 91.3584 51.545C91.4934 50.8194 90.6908 50.2096 90.0173 50.5049C89.4283 50.8283 89.2162 51.3343 88.7311 51.7468C88.3736 51.9887 88.1169 52.3878 88.203 52.8211C88.0086 53.3553 88.2371 54.0274 88.783 54.247C88.9032 54.7411 89.3868 55.0958 89.8971 55.0349C90.0989 55.4519 90.581 55.7026 91.038 55.5988C91.48 56.1611 92.1298 55.9475 92.6313 55.5884Z" fill="#B1C1E3"/>
<path d="M63.5422 51.3268C64.8076 50.852 64.4575 49.3549 64.0496 48.3845C64.3136 48.2747 64.1682 47.9067 63.8982 47.9749C63.3241 46.5668 62.6536 45.1676 61.5736 44.077C61.3421 43.7357 61.0024 43.4701 60.6093 43.3425C59.645 43.019 58.8113 43.9434 58.8291 44.8723C58.7682 46.4615 59.3424 48.0002 59.918 49.4558C60.3808 50.4796 61.3347 51.6192 62.5824 51.3758C62.7248 51.4085 62.8716 51.4277 63.017 51.4277C63.198 51.4277 63.376 51.3981 63.5422 51.3268Z" fill="#FFC100"/>
<path d="M109.355 98.6601C109.484 98.5325 109.582 98.3945 109.647 98.2298C110.131 98.4034 110.724 98.2728 111.064 97.8781C111.872 97.6808 112.641 97.3558 113.432 97.1021C113.976 96.9433 114.694 96.8409 114.857 96.194C115.022 95.28 114.753 94.3392 114.612 93.4371C114.338 91.9073 113.587 90.5333 113.024 89.0985C113.568 88.8299 114.046 88.4367 114.446 87.9856C114.808 87.9025 115.167 87.8164 115.528 87.7304C115.767 87.6725 116.008 87.6132 116.247 87.5553C116.312 87.7304 116.385 87.901 116.504 88.0494C116.655 88.2393 116.86 88.3669 117.084 88.4189C117.241 89.1118 117.438 89.7988 117.657 90.4784C117.851 91.0304 117.973 91.6625 118.421 92.075C119.725 93.0795 120.419 91.2336 120.843 90.2781C121.186 89.4575 121.497 88.6222 121.816 87.7927C122.174 87.1235 121.963 86.2021 121.129 86.0819C120.989 81.9821 120.183 77.9551 118.882 74.069C118.318 72.2974 117.562 70.5954 116.967 68.8342C116.845 68.4736 116.807 68.0463 116.513 67.7807C116.364 67.2465 115.734 66.9379 115.222 67.1545C114.888 67.2732 114.718 67.5789 114.578 67.883C114.347 68.303 114.095 68.7095 113.832 69.1101C113.145 70.1325 112.258 71.1148 111.447 72.0036C110.591 72.9844 109.62 73.8702 108.526 74.5824C107.327 75.3481 106.012 75.9253 104.835 76.731C104.238 76.679 103.624 76.8051 103.08 77.0485C102.873 77.1405 102.677 77.2503 102.492 77.3734C101.369 77.0099 100.81 78.326 100.667 79.2208C100.108 79.8366 99.7654 80.6808 100.52 81.304C100.801 83.2671 101.322 85.1842 101.781 87.1087C102.093 88.0464 102.078 89.1637 102.587 90.0125C103.286 92.2189 103.921 94.5247 105.376 96.3231C105.771 96.9982 106.324 97.6837 107.134 97.8069C107.407 98.4034 107.994 98.9821 108.612 98.9821C108.861 98.9821 109.116 98.8871 109.355 98.6601ZM107.502 83.8502C107.474 83.831 107.444 83.8131 107.413 83.7983C107.404 83.7315 107.394 83.6648 107.386 83.598C107.377 83.5312 107.368 83.463 107.358 83.3962C107.4 83.5475 107.45 83.6989 107.502 83.8502Z" fill="#FFC100"/>
<path d="M118.515 92.8565C119.14 92.3713 118.618 91.5507 118.583 90.9186C118.591 90.9038 118.598 90.889 118.606 90.8726C118.646 90.7955 118.612 90.6975 118.545 90.6471C118.487 90.3118 118.5 89.9497 118.382 89.6322C118.035 88.8843 117.027 89.2924 117.133 90.0669C116.585 90.4765 116.923 91.2109 117.011 91.7644C117.112 92.3386 117.478 93.0152 118.033 93.0152C118.181 93.0152 118.342 92.9678 118.515 92.8565Z" fill="#FCC53B"/>
<path d="M102.682 84.8922C102.703 83.9441 102.622 82.9811 102.734 82.0404C102.883 82.1828 102.994 82.3787 103.184 82.4722C103.31 82.53 103.421 82.4158 103.394 82.2911C103.368 82.1769 103.228 82.2333 103.254 82.3371C103.031 82.2006 103 81.8979 102.817 81.7332C102.144 81.4914 102.231 82.763 102.181 83.1577C102.145 83.7304 102.105 84.3017 102.067 84.8744C102.055 85.0421 102.202 85.1875 102.365 85.192C102.369 85.1934 102.371 85.1934 102.374 85.1934C102.533 85.1934 102.684 85.0584 102.682 84.8922Z" fill="#FCC53B"/>
<path d="M88.8572 58.0923C89.013 58.0077 89.1435 57.8816 89.2281 57.7273C89.7592 57.9424 90.4223 57.57 90.5009 56.9884C90.5172 56.5877 90.538 56.1144 90.2265 55.8221C89.504 55.1915 88.6554 54.7241 87.8454 54.2136C87.2891 53.8234 86.4524 53.4228 85.9302 54.0831C85.7537 53.6498 85.2908 53.3783 84.8265 53.4436C84.3903 53.5356 84.0328 53.816 83.5951 53.9258C82.5151 54.2685 82.3431 55.7494 83.4601 56.1574C84.1737 57.1649 86.0118 57.9321 86.9434 56.8207C86.9479 56.8237 86.9523 56.8251 86.9568 56.8281C87.2105 57.4187 87.7475 58.1991 88.424 58.1991C88.5634 58.1991 88.7073 58.1665 88.8572 58.0923Z" fill="#FFC100"/>
<path d="M82.0423 69.9569C82.474 69.5519 82.287 69.0859 82.1995 68.6007C82.201 67.7461 82.4206 66.9048 82.4146 66.0501C83.2617 65.3319 82.7929 64.1864 81.6862 64.1879C81.029 63.9223 80.4267 63.5469 79.7947 63.2264C79.5559 63.1032 79.274 63.1225 79.0381 63.2368C77.1511 62.5958 75.135 62.6448 73.1664 62.5557C70.6874 62.5765 67.9726 62.8896 66.8258 65.4254C66.3704 66.2445 67.1359 67.2238 68.0423 66.9537C68.382 66.8498 68.6921 66.6718 69.0318 66.5679C70.4872 66.1154 71.8713 66.2014 73.3533 66.2356C75.2403 66.4952 77.1882 66.9507 78.8171 67.9672C79.3897 68.3114 79.9416 68.7076 80.3288 69.2625C80.4638 69.4836 80.5261 69.7507 80.7145 69.9347C80.9029 70.1202 81.1507 70.2166 81.3969 70.2166C81.6313 70.2166 81.8628 70.1305 82.0423 69.9569Z" fill="#FFC100"/>
<path d="M80.6684 110.317C80.8464 109.894 80.7129 109.42 80.5957 108.997C80.572 108.917 80.5467 108.837 80.5186 108.759C80.8687 107.853 79.8436 107.226 79.3659 106.597C78.6879 105.779 77.7785 105.197 77.0471 104.457C75.35 102.219 73.2627 100.071 71.4691 98.0159C70.6873 97.0633 69.8002 96.2056 68.9842 95.2857C68.3804 94.2663 67.8716 93.1816 67.5126 92.0525C67.3153 91.5287 67.0289 91.0375 66.8717 90.4959C66.6076 89.8268 65.6226 89.6902 65.1998 90.2793C64.9847 90.5657 64.9847 90.9173 64.9238 91.2571C64.8393 91.7898 64.7696 92.3284 64.7473 92.8685C64.7221 94.0437 65.2947 95.1417 65.9519 96.081C66.3703 96.679 66.8939 97.1983 67.385 97.7354C67.79 98.1346 68.0778 98.8082 68.7083 98.8527C71.0775 102.184 73.9777 105.07 76.5665 108.213C77.2667 108.938 78.5381 110.98 79.6804 110.98C80.0275 110.98 80.3643 110.79 80.6684 110.317Z" fill="#FFC100"/>
<path d="M79.5606 194.657C80.2742 194.643 81.0768 194.479 81.6375 194.042C82.5113 192.786 82.541 191.143 82.7843 189.702C83.5913 184.915 84.2292 180.093 84.4414 175.241C84.6669 171 85.3374 166.809 85.8344 162.596C86.4174 155.653 87.2526 148.737 87.9692 141.807C88.3742 138.37 88.6872 134.926 89.0833 131.488C89.1693 130.644 89.2628 129.798 89.3948 128.96C89.5669 127.985 90.1307 125.412 88.5967 125.59C88.0582 125.774 88.0434 126.408 87.9781 126.882C87.4544 128.808 87.2393 130.789 87.0064 132.764C86.3522 138.306 85.827 143.863 85.195 149.405C84.7574 153.542 84.4043 157.686 83.9904 161.825C83.6492 165.304 83.1656 168.769 82.989 172.265C82.6775 179.244 82.0885 186.224 80.6347 193.062C80.2875 193.205 79.9434 193.287 79.5754 193.341C79.5651 193.317 79.5547 193.295 79.5443 193.271C79.5339 193.269 79.525 193.268 79.5146 193.266C79.5191 193.266 79.522 193.266 79.5265 193.268C79.485 193.263 79.4464 193.257 79.4063 193.249C79.4093 193.25 79.4123 193.25 79.4152 193.25C79.3841 193.246 79.3514 193.24 79.3188 193.229C79.2951 193.241 79.2698 193.25 79.2431 193.26C79.1794 193.287 79.1156 193.312 79.0503 193.336C78.9524 193.373 78.8545 193.401 78.7521 193.427C78.5756 193.471 78.3901 193.505 78.2062 193.505C78.1884 193.505 78.1706 193.504 78.1513 193.504C78.4331 194.053 78.7907 194.661 79.4553 194.661C79.4894 194.661 79.525 194.66 79.5606 194.657Z" fill="black"/>
<path d="M78.6172 191.952C78.6124 191.945 78.6077 191.937 78.6029 191.931C78.6077 191.937 78.6124 191.945 78.6156 191.952H78.6172Z" fill="black"/>
<path d="M64.6531 125.453C64.5612 124.761 64.5567 124.064 64.4974 123.369C64.487 123.166 64.4009 122.975 64.2333 122.854C63.987 122.682 63.6399 122.719 63.4381 122.94C63.2705 123.116 63.2646 123.356 63.2794 123.58C63.2883 123.97 63.3135 124.36 63.3476 124.749C63.3506 124.749 63.3536 124.751 63.3536 124.751C63.7571 124.874 64.1398 125.131 64.4395 125.426C64.4736 125.46 64.5077 125.494 64.5404 125.528C64.5834 125.546 64.6264 125.568 64.668 125.59C64.6635 125.544 64.6576 125.499 64.6531 125.453Z" fill="black"/>
<path d="M74.3591 200.475C76.0444 200.374 77.7297 200.02 79.3349 199.542C80.0796 199.46 80.7635 199.159 81.0721 198.428C81.6699 197.181 81.8435 195.752 81.7337 194.386C81.6966 194.123 81.6907 193.853 81.621 193.599C81.3539 193.236 81.1032 193.755 81.0587 194.009C80.7219 194.97 80.5454 198.279 79.547 198.586C77.6926 199.211 75.7492 199.579 73.8221 199.545C72.4736 199.463 71.0376 199.613 69.9012 198.849C69.9783 198.324 70.5421 198.128 70.9293 197.858C72.3089 197.116 73.9185 197.178 75.4139 196.846C75.5089 196.825 75.6053 196.809 75.7032 196.795C75.7077 196.794 75.7106 196.792 75.7151 196.791C75.7685 196.769 75.8219 196.745 75.8738 196.721C75.8708 196.723 75.8664 196.724 75.8664 196.724C75.8931 196.711 75.9198 196.696 75.945 196.68C75.9791 196.657 76.0148 196.635 76.0504 196.61C76.1305 196.552 76.2032 196.485 76.2744 196.415C76.3026 196.387 76.3307 196.356 76.3589 196.326C76.3856 196.298 76.4123 196.272 76.4405 196.243C76.4376 196.246 76.4361 196.248 76.4331 196.251C76.488 196.194 76.5384 196.137 76.5933 196.08C76.6334 196.04 76.6749 196.003 76.712 195.961C76.7298 195.941 76.7491 195.921 76.7669 195.902C76.7788 195.889 76.7906 195.875 76.8025 195.864C75.7685 195.935 74.819 196.074 73.8088 196.282C72.9127 196.343 72.0004 196.448 71.1503 196.751C70.1326 197.147 68.5126 198.106 69.106 199.398C69.8715 200.352 71.6354 200.499 73.0937 200.499C73.561 200.499 73.9972 200.484 74.3591 200.475Z" fill="black"/>
<path d="M79.1225 194.228C79.1566 193.938 79.1537 193.561 78.9415 193.37C78.8792 193.391 78.8139 193.41 78.7487 193.426C78.5721 193.471 78.3882 193.503 78.2042 193.503C78.1879 193.503 78.1731 193.503 78.1582 193.502C78.1167 193.57 78.09 193.646 78.0855 193.728C78.0751 193.971 78.0989 194.226 78.1108 194.48C78.1834 194.498 78.2532 194.521 78.3259 194.544C78.3229 194.542 78.317 194.541 78.317 194.541C78.36 194.553 78.4045 194.563 78.4475 194.573C78.4935 194.576 78.5395 194.581 78.584 194.587L78.5781 194.585C78.7398 194.606 78.903 194.628 79.0647 194.659C79.0736 194.662 79.0825 194.664 79.0928 194.665C79.1062 194.518 79.1151 194.372 79.1225 194.228Z" fill="black"/>
<path d="M90.6091 192.711H90.6002C90.6046 192.711 90.6076 192.709 90.612 192.709L90.6091 192.711C90.612 192.711 90.6165 192.711 90.6194 192.709C90.6254 192.709 90.6313 192.708 90.6387 192.708H90.6461H90.6432C90.6461 192.708 90.6476 192.706 90.6491 192.706L90.6476 192.708C90.753 192.697 90.8568 192.696 90.9621 192.687C91.0645 192.676 91.1669 192.671 91.2677 192.659H91.2633H91.2752C91.2766 192.657 91.2781 192.657 91.2811 192.657C91.2781 192.657 91.2781 192.657 91.2752 192.659C91.2781 192.659 91.2811 192.657 91.2841 192.657H91.2811H91.287H91.2841C91.2855 192.657 91.29 192.656 91.2915 192.656H91.29H91.2944H91.2915C91.3004 192.656 91.3093 192.654 91.3182 192.653H91.3152C91.3389 192.65 91.3597 192.647 91.3835 192.645C91.3849 192.645 91.3879 192.644 91.3894 192.644H91.3968C91.3983 192.642 91.3983 192.642 91.3998 192.642H91.4042C91.4873 192.632 91.5689 192.62 91.6549 192.608C91.692 192.602 91.7321 192.596 91.7707 192.586H91.7751C91.7944 192.577 91.8152 192.577 91.8344 192.586C91.8641 192.601 91.8775 192.632 91.8715 192.663C92.4798 192.561 93.0821 192.39 93.3269 191.767C94.6131 189.381 95.38 186.753 95.9586 184.113C96.5847 181.388 97.1276 178.643 97.5386 175.875C98.1171 171.696 98.1928 167.458 98.3589 163.244V163.256C98.3589 163.248 98.3589 163.241 98.3604 163.232V163.22C98.4747 156.985 98.6378 150.741 98.9598 144.539C99.5992 139.878 99.7475 135.163 99.7772 130.481C99.7831 129.667 99.7816 128.852 99.8528 128.039C99.9181 127.265 100.061 126.477 99.9033 125.702C99.8573 125.291 99.5265 124.801 99.0592 125.003C98.4183 125.312 98.2284 127.19 98.0578 127.886C97.6661 131.272 97.9258 134.879 97.7433 138.234C97.678 140.28 97.4332 142.309 97.2626 144.348C97.1187 147.18 97.1009 150.117 96.9615 152.902C96.8695 158.107 96.8309 163.316 96.5342 168.514C96.3785 171.164 96.1693 173.814 95.607 176.413C94.9024 179.896 94.3045 183.404 93.4277 186.85C92.9278 188.258 92.4649 189.77 91.8745 191.096C91.5615 191.21 91.2366 191.292 90.9058 191.32C90.9028 191.314 90.8998 191.308 90.8969 191.304C90.8657 191.308 90.836 191.311 90.8034 191.313C90.75 191.317 90.6951 191.32 90.6402 191.32C90.5942 191.32 90.5497 191.319 90.5052 191.313C90.4118 191.304 90.3227 191.282 90.2322 191.258C90.0394 191.206 89.8495 191.141 89.6611 191.077C89.4786 191.018 89.308 190.943 89.1433 190.845C89.1537 190.851 89.1641 190.857 89.1745 190.863C89.1181 190.831 89.0647 190.796 89.0128 190.761C89.2368 191.202 89.4653 191.641 89.5899 192.119C89.7382 192.398 89.983 192.593 90.2664 192.703C90.2901 192.705 90.3138 192.708 90.3376 192.709C90.3821 192.712 90.4266 192.714 90.4726 192.717H90.5008C90.5364 192.717 90.5735 192.714 90.6091 192.711Z" fill="black"/>
<path d="M91.7654 192.592L91.7686 192.59L91.7654 192.592Z" fill="black"/>
<path d="M89.3726 189.961C89.3726 189.961 89.3788 189.967 89.3819 189.969C89.3835 189.972 89.3866 189.973 89.3896 189.976C89.3835 189.97 89.3788 189.966 89.3726 189.961Z" fill="black"/>
<path d="M86.1185 186.476C86.1615 186.547 86.2045 186.618 86.249 186.689C86.206 186.618 86.163 186.547 86.1185 186.476Z" fill="black"/>
<path d="M85.8804 186.059C85.8166 185.923 85.7691 185.779 85.7232 185.633C85.6371 185.356 85.5644 185.074 85.4695 184.801C85.3998 184.605 85.3285 184.409 85.2707 184.21C85.2202 184.035 85.1757 183.857 85.1342 183.679C85.1312 183.667 85.1283 183.655 85.1253 183.642C85.1283 183.652 85.1298 183.663 85.1327 183.672C85.1253 183.645 85.1194 183.617 85.1134 183.589C85.1164 183.608 85.1209 183.627 85.1253 183.646C85.106 183.56 85.0852 183.476 85.066 183.39C85.0704 183.409 85.0749 183.428 85.0793 183.448C84.9814 183.028 84.9013 182.602 84.839 182.176C84.8063 181.959 84.7737 181.743 84.744 181.525C84.7129 181.3 84.6936 181.072 84.6595 180.846V180.849C84.6372 180.703 84.609 180.556 84.5853 180.409C84.5883 180.427 84.5898 180.443 84.5927 180.459C84.5868 180.421 84.5809 180.384 84.5749 180.346C84.5319 180.054 84.52 179.76 84.4918 179.467C84.4651 179.176 84.4295 178.885 84.4206 178.593C84.4102 178.266 84.4414 177.941 84.4681 177.616C84.4696 177.595 84.4726 177.573 84.474 177.552C84.4503 177.472 84.4266 177.391 84.4028 177.309C84.3524 177.091 84.3153 176.861 84.2085 176.662C84.0008 176.214 83.3243 176.192 83.1033 176.638C82.8496 177.181 83.0157 177.808 83.0973 178.373C83.3273 179.965 83.7545 181.517 84.3895 182.995C84.8583 184.059 85.3404 185.123 85.916 186.133C85.9041 186.108 85.8923 186.084 85.8804 186.059Z" fill="black"/>
<path d="M84.6447 199.492C86.7898 199.3 88.9543 199.245 91.0371 198.704C92.0993 198.432 92.5578 197.417 92.7625 196.43C92.9835 195.441 93.1393 194.427 93.1942 193.414C93.1897 192.832 93.4019 190.897 92.3545 191.409C92.2017 191.524 92.1216 191.752 92.0623 191.924C91.997 192.153 91.9258 192.38 91.859 192.608C91.8753 192.627 91.8783 192.657 91.8664 192.682C91.859 192.7 91.8427 192.711 91.8264 192.718C91.7314 193.04 91.6469 193.365 91.5905 193.699C91.414 194.914 91.5979 196.202 91.1647 197.368C90.7701 197.732 90.1826 197.818 89.6797 197.965C88.171 198.224 86.6192 198.066 85.0971 198.167C84.2545 198.29 83.4 198.245 82.5856 198C82.6805 197.668 83.0469 197.436 83.3243 197.296C84.0053 196.899 84.7545 196.657 85.5066 196.433C86.0421 196.251 86.551 196.064 87.0613 195.887C87.1132 195.862 87.1652 195.837 87.2171 195.815C87.2913 195.784 87.3654 195.757 87.4396 195.726C87.4485 195.723 87.4559 195.72 87.4634 195.715C87.4619 195.717 87.4589 195.718 87.4559 195.72C87.5182 195.693 87.582 195.666 87.6429 195.641C87.6414 195.641 87.6399 195.643 87.6384 195.643C87.6429 195.641 87.6488 195.638 87.6532 195.637C87.6503 195.637 87.6503 195.637 87.6473 195.638C87.6518 195.637 87.6577 195.634 87.6621 195.632C87.6636 195.632 87.6636 195.631 87.6651 195.631C87.7215 195.607 87.7764 195.58 87.8313 195.552C87.8713 195.533 87.9114 195.515 87.9499 195.493C87.987 195.466 88.0226 195.439 88.0582 195.411L88.0642 195.408C88.0686 195.404 88.0716 195.401 88.076 195.398C88.1176 195.359 88.1562 195.318 88.1947 195.275L88.1932 195.276C88.1962 195.273 88.1992 195.269 88.2036 195.264C88.2363 195.223 88.2689 195.178 88.2971 195.134C88.2971 195.132 88.2971 195.132 88.2986 195.132C88.3401 195.061 88.3713 194.982 88.4024 194.907C88.4365 194.815 88.4543 194.718 88.4781 194.623C88.5048 194.521 88.5345 194.418 88.5508 194.315C88.5552 194.288 88.5582 194.263 88.5626 194.236C88.3401 194.355 88.0434 194.445 87.6473 194.524C86.8447 194.766 86.0585 195.077 85.287 195.352C84.1952 195.736 82.9787 195.981 82.1168 196.807C80.6318 198.678 82.5173 199.514 84.1878 199.514C84.3435 199.514 84.4963 199.506 84.6447 199.492Z" fill="black"/>
<path d="M87.4395 195.724C87.4362 195.726 87.4346 195.726 87.4313 195.727L87.4395 195.724Z" fill="black"/>
<path d="M88.2949 195.136C88.2949 195.136 88.2917 195.141 88.2901 195.144C88.2933 195.141 88.2933 195.139 88.2949 195.136Z" fill="black"/>
<path d="M88.2979 195.131H88.2959V195.133L88.2979 195.131Z" fill="black"/>
<path d="M88.2972 195.129L88.2988 195.126L88.2972 195.129Z" fill="black"/>
<path d="M88.4039 194.903L88.4016 194.906L88.4023 194.909C88.4023 194.909 88.3997 194.913 88.3989 194.916C88.4001 194.912 88.4027 194.908 88.4039 194.903Z" fill="black"/>
<path d="M88.4014 194.907L88.3995 194.909L88.4014 194.907Z" fill="black"/>
<path d="M90.5979 192.714C90.632 192.343 90.6454 191.963 90.6572 191.588C90.6528 191.491 90.6276 191.402 90.5816 191.321C90.5549 191.321 90.5296 191.319 90.5029 191.316C90.411 191.307 90.322 191.285 90.2315 191.261C90.0609 191.214 89.8932 191.159 89.7271 191.102C89.371 191.343 89.3651 191.991 89.2879 192.401C89.2835 192.468 89.279 192.534 89.2746 192.598C89.2909 192.606 89.3043 192.616 89.3176 192.629C89.3488 192.634 89.3814 192.64 89.4126 192.644C89.4096 192.644 89.4066 192.643 89.4037 192.643C89.4081 192.644 89.4126 192.644 89.4185 192.646C89.4155 192.646 89.4126 192.644 89.4096 192.644C89.417 192.646 89.4244 192.646 89.4318 192.647C89.4823 192.653 89.5342 192.656 89.5861 192.659C89.6544 192.663 89.7211 192.675 89.7894 192.68C89.8354 192.683 89.8799 192.683 89.9259 192.684C89.9704 192.687 90.0119 192.692 90.0549 192.693C90.0965 192.696 90.1395 192.698 90.1825 192.699C90.2329 192.702 90.2849 192.708 90.3368 192.711C90.3813 192.714 90.4258 192.715 90.4703 192.718C90.4807 192.72 90.4896 192.72 90.5 192.72C90.5326 192.72 90.5652 192.715 90.5979 192.714Z" fill="black"/>
<path d="M94.8353 80.5915C98.3468 80.3808 101.794 79.2309 104.825 77.4666C108.355 75.7528 111.479 73.2571 113.912 70.1841C114.953 68.7745 115.861 67.2447 116.653 65.6941C116.926 63.9937 116.659 62.1553 115.912 60.6062C114.341 57.189 112.451 53.846 109.838 51.1202C109.584 51.2612 109.328 51.3992 109.073 51.5372C108.853 51.6544 108.632 51.7657 108.412 51.8799C108.34 51.9245 108.269 51.9675 108.197 52.012C109.399 53.1931 110.455 54.5256 111.354 55.858C113.228 58.8063 115.318 62.1152 114.965 65.7327C113.941 66.9836 113.091 68.3694 112.014 69.5817C109.848 71.9825 107.338 74.0257 104.463 75.468C101.068 77.3984 97.3394 78.7991 93.4215 78.6433C91.2066 78.3866 88.8493 77.7189 87.1284 76.2796C86.0736 75.3122 85.4387 73.9945 84.7904 72.7452C82.9671 69.1959 82.8188 68.2033 84.0293 65.2817C84.0041 65.2564 83.9804 65.2327 83.9552 65.2089C83.8261 65.0828 83.6956 64.9493 83.5828 64.8083C83.4641 64.6585 83.3499 64.5086 83.2446 64.3498C83.1466 64.2014 83.0621 64.0456 82.9805 63.8884C82.9642 63.8572 82.9479 63.8275 82.9301 63.7964C82.89 63.7474 82.8485 63.6984 82.8084 63.6465C82.7698 63.5961 82.7313 63.5456 82.6927 63.4952C82.0103 64.9552 81.5103 66.5132 81.2982 68.0979C81.2121 69.6277 81.8441 71.067 82.4613 72.4321C83.387 74.2972 84.2548 76.2826 85.811 77.7174C86.9904 78.7056 88.3657 79.4638 89.8551 79.8674C91.2437 80.2992 92.6768 80.6167 94.1321 80.6167C94.3665 80.6167 94.6009 80.6093 94.8353 80.5915Z" fill="black"/>
<path d="M104.362 75.5204C104.367 75.5175 104.371 75.516 104.377 75.5131C104.34 75.5308 104.303 75.5485 104.266 75.5676C104.299 75.5514 104.331 75.5352 104.362 75.5204Z" fill="black"/>
<path d="M104.462 75.4681C104.465 75.4666 104.47 75.4636 104.473 75.4622C104.442 75.4784 104.411 75.4931 104.378 75.5093C104.406 75.4961 104.434 75.4813 104.462 75.4681Z" fill="black"/>
<path d="M84.0042 64.9984C84.0028 64.9955 83.9998 64.9925 83.9983 64.9896C84.0057 65.0014 84.0146 65.0132 84.0234 65.025C84.0161 65.0161 84.0101 65.0073 84.0042 64.9984Z" fill="black"/>
<path d="M88.2936 58.2496C88.3164 58.2453 88.3381 58.242 88.3597 58.2386C88.3839 58.2091 88.4063 58.1772 88.4284 58.1474C88.3758 58.1836 88.3231 58.2198 88.2717 58.2551C88.2794 58.2529 88.2859 58.2517 88.2936 58.2496Z" fill="black"/>
<path d="M110.088 99.6614C112.256 99.01 114.227 97.8304 116.028 96.446C115.984 96.2931 115.941 96.1418 115.896 95.989C115.892 95.98 115.887 95.9711 115.884 95.9608C115.735 95.5898 115.604 95.2114 115.476 94.8316C114.29 95.7248 113.009 96.4949 111.702 97.1211C110.606 97.633 109.421 98.0559 108.21 98.1568C107.074 98.0381 106.427 97.0499 105.825 96.1878C104.116 93.6223 102.84 90.7585 102.227 87.7286C101.773 85.1053 101.266 82.4611 101.005 79.814C101.057 79.1982 100.594 78.2427 99.8966 78.7576C99.634 78.8926 99.493 79.1849 99.4574 79.4727C99.3284 80.728 99.4159 81.9863 99.6028 83.2312C99.8165 84.7981 100.03 86.5713 100.353 88.0818C100.939 91.042 102.08 93.879 103.709 96.4178C104.906 98.409 106.216 100.028 108.275 100.028C108.823 100.028 109.422 99.9136 110.088 99.6614Z" fill="black"/>
<path d="M117.945 94.8536C119.825 93.2259 121.185 91.1026 122.286 88.8991C122.403 86.9479 122.036 84.9403 121.739 82.998C121.28 80.0364 120.832 77.0599 119.847 74.2154C119.217 71.9363 118.399 69.7239 117.388 67.5828C116.903 66.6836 116.692 65.6435 116.225 64.7532C116.118 64.6538 115.962 64.6152 115.826 64.676C115.159 65.1078 115.621 66.424 115.765 67.059C116.093 68.3099 116.535 69.5192 116.965 70.7225C117.947 73.9157 118.793 77.1533 119.591 80.3999C120.011 82.0855 120.374 83.6954 120.662 85.3825C120.786 86.3514 121.062 87.3515 120.923 88.3234C120.094 89.6039 119.43 90.9957 118.408 92.1412C118.026 92.5745 117.619 92.9929 117.192 93.3921C117.193 93.4099 117.195 93.4262 117.196 93.4425C117.205 93.5583 117.208 93.671 117.216 93.7868C117.244 93.9337 117.269 94.0806 117.29 94.2289C117.315 94.4204 117.331 94.6118 117.343 94.8047C117.343 94.7972 117.342 94.7883 117.342 94.7794C117.355 94.9708 117.364 95.1608 117.376 95.3507C117.567 95.186 117.757 95.0213 117.945 94.8536Z" fill="black"/>
<path d="M99.9725 126.569C105.335 126.379 110.406 123.572 113.821 119.497C117.479 114.915 119.788 109.248 120.651 103.468C121.006 101.039 121.326 98.5963 121.139 96.1361C121.056 94.9239 120.897 93.7175 120.743 92.5127C120.636 91.9028 120.469 89.8136 119.507 90.6357C119.185 91.1713 119.288 91.8494 119.274 92.4489C119.283 93.6374 119.35 94.8215 119.392 96.007C119.488 98.9568 119.01 101.919 118.482 104.804C117.432 109.772 115.359 114.841 112.127 118.78C108.707 122.512 103.819 125.081 98.667 124.68C96.3883 124.42 94.2832 123.809 92.233 122.836C89.9676 121.625 87.9293 120.111 86.1609 118.246C84.6418 116.788 82.9506 115.423 81.8409 113.633C81.4953 113.08 81.0606 112.535 80.9241 111.884C80.7847 111.004 80.6749 110.027 81.1125 109.213C82.2341 107.182 83.7443 105.432 85.0839 103.566C88.272 98.8797 88.3832 93.0038 88.2809 87.5345C88.0049 83.8547 87.6385 80.1422 86.517 76.6093C86.4487 76.3912 86.3597 76.1805 86.1283 76.087C85.8153 75.9609 85.4399 76.1567 85.3984 76.5024C85.3554 76.7695 85.6061 77.1434 85.6595 77.3675C85.8553 77.9432 86.0022 78.5367 86.1238 79.1214C87.0303 83.5609 87.2454 88.1177 86.9324 92.6314C86.7662 97.3721 84.9815 101.607 81.8973 105.159C80.9434 106.606 79.6631 107.961 79.2596 109.685C79.0727 110.806 79.0326 112.028 79.494 113.09C80.3515 114.796 81.6659 116.194 82.9714 117.565C85.7381 120.402 88.6399 123.325 92.3086 124.966C93.3278 125.487 94.43 125.781 95.5338 126.063C96.9861 126.419 98.4726 126.664 99.9725 126.569Z" fill="black"/>
<path d="M78.3427 62.0363C79.5057 61.8627 80.8498 62.1076 81.826 61.3167C82.4802 60.7677 82.6997 59.9056 83.0187 59.1489C83.5676 57.9173 83.5869 56.5418 83.8702 55.239C83.9652 54.4823 83.8747 53.7107 83.8851 52.948C83.845 52.5904 83.9741 51.7833 83.4356 51.8159C82.6508 52.2091 82.3882 53.552 82.2488 54.2983C82.1449 54.8829 81.9595 55.4483 81.8393 56.0299C81.639 56.8267 81.6939 57.6606 81.461 58.4485C80.9937 60.2573 81.0619 60.37 79.1393 60.4309C78.046 60.554 76.9496 60.5867 75.8593 60.5436C75.7332 60.5407 75.6026 60.5407 75.4721 60.5421C75.0092 60.5451 74.5345 60.5481 74.1132 60.3804C74.1324 60.3849 74.1517 60.3908 74.171 60.3967C73.8224 60.2973 73.6088 60.0213 73.4174 59.7364C73.3655 59.689 73.3106 59.6519 73.2557 59.6252C72.9664 59.8715 72.6771 60.1193 72.3774 60.3537C72.4027 60.4576 72.4546 60.56 72.5406 60.6579C73.2913 61.5675 74.5671 61.7158 75.6679 61.8316C76.3948 61.9161 77.1143 62.0601 77.8457 62.0601C78.0104 62.0601 78.1765 62.0527 78.3427 62.0363Z" fill="black"/>
<path d="M72.6777 60.1147L72.6758 60.1167L72.6777 60.1147Z" fill="black"/>
<path d="M73.4219 59.4851C73.3981 59.5044 73.3744 59.5252 73.3507 59.5459C73.2973 59.589 73.2453 59.6335 73.1934 59.678C73.2706 59.6157 73.3477 59.5519 73.4219 59.4851Z" fill="black"/>
<path d="M73.1904 59.3546L73.1856 59.3578L73.1904 59.3546Z" fill="black"/>
<path d="M73.2021 59.3494C73.2021 59.3494 73.199 59.3509 73.1958 59.3525V59.3541C73.1958 59.3541 73.199 59.3509 73.2021 59.3494Z" fill="black"/>
<path d="M62.2284 44.1369C62.172 43.9707 62.2255 43.7407 62.0504 43.6442C61.7225 43.4944 61.5564 43.9039 61.5445 44.171C61.4763 44.5686 61.4303 44.9663 61.4021 45.3655C61.408 45.3788 61.414 45.3907 61.4199 45.4025L61.4318 45.4278C61.5193 45.5005 61.5905 45.5895 61.6588 45.6785C61.6513 45.6696 61.6454 45.6607 61.638 45.6518C61.6528 45.6696 61.6662 45.6889 61.681 45.7082C61.678 45.7038 61.6736 45.6993 61.6706 45.6949C61.7463 45.7987 61.816 45.9056 61.8828 46.0154C61.9139 46.0391 61.9436 46.0643 61.9762 46.0881C61.9733 46.0881 61.9733 46.0866 61.9703 46.0851C61.9792 46.091 61.9866 46.097 61.9955 46.1044C62.1557 46.2261 62.2922 46.3744 62.4495 46.5006C62.4584 46.5065 62.4658 46.5139 62.4747 46.5184C62.4762 46.5198 62.4791 46.5213 62.4806 46.5228C62.491 46.5273 62.5014 46.5332 62.5118 46.5391C62.5459 46.5525 62.5785 46.5688 62.6112 46.5866C62.6305 46.597 62.6497 46.6059 62.6705 46.6148C62.6868 46.6222 62.7017 46.6282 62.718 46.6356C62.7254 46.64 62.7328 46.643 62.7402 46.646C62.6097 45.8017 62.4658 44.9589 62.2284 44.1369Z" fill="black"/>
<path d="M62.4813 46.5214L62.4752 46.5183C62.4782 46.5198 62.4798 46.5214 62.4844 46.5229L62.4813 46.5214Z" fill="black"/>
<path d="M79.4178 55.1887C79.9044 55.1828 80.3866 55.0982 80.8598 54.9884C81.7173 54.8326 82.7216 54.6635 83.1222 53.7776C83.1993 53.6381 83.2572 53.377 83.0465 53.328C82.7617 53.3369 82.5139 53.5432 82.2439 53.6233C81.9621 53.7079 81.6683 53.699 81.3761 53.6901C81.2218 53.6856 81.0675 53.6797 80.9147 53.6901C80.6032 53.6886 80.2768 53.7227 79.9489 53.7568C79.093 53.8444 78.2162 53.9334 77.4982 53.4171C77.3454 52.9556 77.5976 52.4185 77.556 51.9763C77.5501 51.0222 76.3662 51.3026 75.3322 51.5846C74.7952 51.73 74.2982 51.8754 74.0297 51.8487C73.5505 51.7493 72.9319 51.5386 72.699 51.0816C72.5373 49.9628 72.0967 49.2758 70.8654 49.3232C69.8017 49.3411 68.7929 50.0073 67.7188 49.8025C65.541 49.3648 66.8747 47.5457 66.4297 46.139C65.9149 45.0113 64.3869 45.136 63.3677 45.3452C62.9716 45.4802 62.6363 45.1656 62.3648 44.9134C62.2773 44.449 62.2921 43.9459 62.1675 43.4785C62.0681 42.7945 61.6424 42.1431 60.9125 42.0615C60.6721 41.9799 60.3947 42.0778 60.2909 42.3197C60.1826 42.569 60.3072 42.8361 60.5401 42.9518C60.6528 43.0141 60.7878 43.0408 60.8902 43.121C60.9807 43.2797 60.9852 43.4682 61.0015 43.6462C61.0193 43.7887 61.0222 43.937 61.0208 44.0884C61.0311 44.1433 61.04 44.1982 61.043 44.2561V44.2442C61.0445 44.2798 61.0475 44.3139 61.0534 44.3495C61.0653 44.4119 61.0816 44.4727 61.0979 44.532C61.1216 44.6181 61.1543 44.7012 61.1854 44.7843C61.2225 44.8941 61.2492 45.0069 61.2878 45.1152C61.3278 45.2131 61.3738 45.3081 61.4183 45.403C61.4228 45.4105 61.4272 45.4194 61.4317 45.4283C61.5252 45.5039 61.5978 45.5989 61.6705 45.6954C61.6602 45.6805 61.6483 45.6657 61.6379 45.6523C61.6527 45.6701 61.6661 45.6894 61.6809 45.7087L61.6705 45.6954C61.7462 45.7992 61.8159 45.9061 61.8812 46.0159C61.9138 46.0396 61.9435 46.0648 61.9747 46.0886C61.9732 46.0871 61.9717 46.0856 61.9702 46.0856C61.9791 46.09 61.9865 46.0975 61.9954 46.1034C62.1571 46.2251 62.2921 46.3734 62.4494 46.5011C62.4583 46.507 62.4657 46.5129 62.4746 46.5189C62.4865 46.5248 62.4983 46.5322 62.5117 46.5381C62.5443 46.5515 62.577 46.5678 62.6081 46.5871C62.62 46.5916 62.6304 46.5975 62.6408 46.602C62.755 46.6331 62.8722 46.6524 62.9909 46.6613C63.7875 46.6583 64.6168 45.9891 65.3867 46.4625C65.4461 47.056 65.1791 47.6213 65.1494 48.2104C65.0129 49.5651 66.0291 50.7892 67.3465 51.0281C68.1031 51.27 68.8404 51.0697 69.5747 50.8709C70.1043 50.7254 70.6354 50.5815 71.171 50.6053C71.2392 51.1053 71.263 51.6335 71.5448 52.0727C72.0774 52.831 73.015 53.3073 73.9288 53.3829C74.7997 53.4304 75.5518 52.9422 76.3292 52.6262C75.8678 54.4676 77.7177 55.1917 79.2309 55.1917C79.2932 55.1917 79.3555 55.1902 79.4178 55.1887Z" fill="black"/>
<path d="M85.7914 53.4375C87.3179 53.298 88.6383 52.8172 89.5833 52.0041C89.564 51.8676 89.5936 51.7237 89.6752 51.6079C89.7435 51.5115 89.8206 51.4462 89.9156 51.375C89.8948 51.3898 89.874 51.4046 89.8533 51.421C89.9304 51.3601 90.0075 51.2978 90.0847 51.2355C90.0995 51.2221 90.1144 51.2117 90.1277 51.1999L90.1307 51.1969C90.1381 51.1925 90.144 51.1865 90.1529 51.1806C90.1559 51.1761 90.1603 51.1732 90.1648 51.1702C90.1693 51.1658 90.1752 51.1613 90.1811 51.1568C90.2939 51.0649 90.4081 50.9729 90.5208 50.8809C91.0445 49.9713 91.2507 48.8288 91.0371 47.4577C90.8472 46.0911 89.9497 44.9887 89.2673 43.8358C88.9142 43.2645 89.6649 42.8149 89.9868 42.4262C90.3651 42.0433 90.7315 41.6397 91.0327 41.1901C93.6155 37.8516 93.878 34.3172 90.9362 31.0988C89.7153 29.7025 87.9395 28.9666 86.1727 28.5541C84.882 28.1861 83.5913 28.474 82.3867 28.9384C81.372 26.4679 78.9583 24.3683 76.239 24.1561C73.6948 24.0092 70.5987 24.7244 69.6329 27.3804C69.406 27.8923 69.311 28.5674 68.6049 28.5125C66.2713 28.4087 63.8294 28.3285 62.7064 30.8169C62.4334 31.4149 62.558 32.0677 62.5536 32.6998C62.5669 32.9239 62.4379 33.1346 62.248 33.2488C61.5463 33.6702 60.7585 33.9536 60.1488 34.5205C59.0258 35.6749 58.5689 37.491 58.9071 39.055C59.0302 39.742 59.5213 40.239 59.8417 40.8236C60.0554 41.4691 59.8922 42.7437 60.8668 42.6962C62.0002 42.4796 61.254 40.6871 60.99 39.9927C60.8312 39.6203 60.4885 39.3651 60.3432 38.9897C59.9619 37.6542 60.4307 35.8885 61.7792 35.2995C62.9749 34.8395 64.2107 34.1985 64.2656 32.7532C64.3294 32.3229 64.1899 31.8778 64.3145 31.4579C64.5667 30.8436 65.1557 30.3673 65.8069 30.2397C66.3291 30.1329 66.9181 30.1655 67.51 30.1996C68.7221 30.2679 69.9489 30.3376 70.6328 29.1921C71.247 27.8804 71.3449 26.6622 72.8551 26.0435C74.2823 25.3476 76.0254 25.0686 77.5519 25.585C79.2535 26.3284 80.6925 27.7677 81.3557 29.5097C81.7859 30.71 83.1211 29.9444 83.9266 29.6343C85.7054 29.0897 88.3401 30.0052 89.7212 31.1656C93.1392 34.3617 92.6527 37.8026 89.7999 41.1768C88.5181 42.5122 87.3862 43.1962 88.6308 45.1089C89.7183 46.7692 90.1574 49.0083 88.8 50.6271C88.2273 51.2711 87.2838 51.6213 86.5094 51.8898C85.6089 52.2504 84.6595 52.3647 83.7011 52.4448C83.4756 52.513 83.0469 52.4863 83.0795 52.8276C83.1003 52.9923 83.2397 53.0695 83.3836 53.1155C84.0245 53.3009 84.6877 53.4597 85.3582 53.4597C85.5021 53.4597 85.646 53.4523 85.7914 53.4375ZM90.0016 50.1686C90.0313 50.1879 90.0432 50.2339 90.0209 50.2636C89.9853 50.3111 89.9512 50.36 89.9126 50.406C89.8844 50.4402 89.8577 50.4758 89.8221 50.5025C89.8058 50.5158 89.788 50.5277 89.7687 50.5366C89.7568 50.5426 89.745 50.547 89.7316 50.5485H89.7272C89.6901 50.5485 89.6604 50.5173 89.6574 50.4832C89.656 50.4506 89.6767 50.4224 89.7064 50.4135C89.7064 50.412 89.7064 50.412 89.7079 50.412L89.7094 50.4105C89.7168 50.4046 89.7272 50.3986 89.7361 50.3927C89.7361 50.3927 89.7361 50.3942 89.7346 50.3942C89.7435 50.3882 89.7509 50.3808 89.7598 50.3734C89.7553 50.3749 89.7539 50.3779 89.7509 50.3793C89.7835 50.3452 89.8132 50.3081 89.8414 50.271C89.8414 50.2725 89.8384 50.2755 89.8369 50.2784C89.8592 50.2473 89.8829 50.2176 89.9037 50.1864C89.9185 50.1672 89.9408 50.1553 89.963 50.1553C89.9764 50.1553 89.9883 50.1597 90.0016 50.1686Z" fill="black"/>
<path d="M90.1777 51.1584L90.1758 51.1603L90.1777 51.1584Z" fill="black"/>
<path d="M90.1816 51.1532L90.1785 51.1548V51.1564L90.1816 51.1532Z" fill="black"/>
<path d="M90.124 51.2013L90.1221 51.2032L90.124 51.2013Z" fill="black"/>
<path d="M90.1318 51.1932C90.1318 51.1932 90.1315 51.1954 90.1291 51.1972C90.1291 51.1972 90.1282 51.196 90.1257 51.1978L90.1254 51.2C90.1254 51.2 90.1294 51.1951 90.1318 51.1932Z" fill="black"/>
<path d="M68.4875 62.2108C70.0719 62.0832 71.6904 61.7761 73.1131 61.0431C73.6323 60.7092 74.6174 60.2567 74.2272 59.4999C74.0388 59.1705 73.6115 59.0577 73.2822 59.2417C71.8298 60.1795 70.0689 60.5935 68.3985 60.7315C67.4935 60.7997 66.6806 60.4466 65.9877 59.8916C65.0146 59.2135 64.1749 58.3678 63.5118 57.39C63.0163 56.7311 62.7834 55.9447 62.4273 55.2177C62.0831 54.6612 61.5164 54.32 60.966 54.001C59.7377 53.1656 60.2747 52.1907 60.7732 51.0986C60.8296 50.9547 60.8859 50.8093 60.9408 50.6654C60.8459 50.5585 60.748 50.4532 60.6471 50.3493C60.6115 50.3167 60.5759 50.2825 60.5403 50.2484C60.429 50.146 60.3133 50.0451 60.2124 49.9324C60.0819 49.7884 59.9647 49.6401 59.8534 49.4813C59.849 49.4768 59.8445 49.4709 59.8415 49.465C59.8445 49.4709 59.8475 49.4754 59.8519 49.4813C59.8475 49.4754 59.8445 49.4709 59.8401 49.4664C59.4484 50.3656 59.0538 51.2663 58.9203 52.2471C58.6785 54.0573 60.1145 54.7117 61.2939 55.6495C61.8754 57.3469 62.5682 59.1527 64.0191 60.3175C65.2089 61.3087 66.6004 62.2212 68.1893 62.2212C68.2887 62.2212 68.3866 62.2182 68.4875 62.2108Z" fill="black"/>
<path d="M61.6235 45.2234C61.5894 45.0097 61.7259 44.7278 61.5478 44.5661C61.4989 44.5379 61.4529 44.5527 61.4232 44.5824L61.4217 44.5794C61.3461 44.7011 61.2882 44.8317 61.2422 44.9667C61.2571 45.0157 61.2719 45.0661 61.2897 45.1151C61.3283 45.2115 61.3743 45.308 61.4203 45.4015C61.4247 45.4089 61.4292 45.4178 61.4336 45.4267C61.5197 45.4994 61.5909 45.5869 61.6591 45.6774C61.6517 45.6685 61.6458 45.6596 61.6383 45.6507C61.6472 45.6611 61.6561 45.673 61.665 45.6849C61.6487 45.532 61.6339 45.3777 61.6235 45.2234Z" fill="black"/>
<path d="M83.3168 72.4645C83.5913 72.4274 83.4355 72.1188 83.3317 71.9793C83.0646 71.4303 82.7086 70.908 82.3763 70.4094C80.4907 67.335 76.9867 65.544 73.4396 65.3259C71.1609 65.1122 68.7368 65.2458 66.6288 66.1999C66.0962 66.6049 64.9568 67.1005 65.4924 67.9137C66.1377 68.6511 66.743 67.8128 67.2474 67.3765C67.7785 66.9848 68.4283 66.7815 69.0691 66.6524C70.4414 66.375 71.7825 66.369 73.1488 66.6049C75.3771 66.8364 77.4985 67.6421 79.344 68.9078C80.6183 69.8485 81.6004 71.132 82.8154 72.141C82.9652 72.2686 83.1106 72.4482 83.3168 72.4645Z" fill="black"/>
<path d="M65.668 68.933C66.079 68.6259 66.1057 68.0427 66.1354 67.5694C66.2036 67.1762 66.435 66.8112 66.6353 66.4699C67.4438 65.5574 68.0743 64.4119 69.2181 63.8762C70.1854 63.3955 71.2312 63.1091 72.2919 62.9503C73.4209 62.7723 74.5172 62.6417 75.6328 62.8628C78.0539 63.2411 80.3029 64.2783 82.4822 65.3526C82.8739 65.5158 83.2121 65.866 83.6349 65.9194C83.669 65.9194 83.7002 65.9105 83.7195 65.8764C83.7491 65.8215 83.7002 65.771 83.6542 65.771C82.5282 64.0468 80.7228 62.9518 78.7779 62.3687C76.6772 61.6238 74.406 61.4101 72.2089 61.7885C69.9821 62.0764 67.5847 62.7916 66.3178 64.7887C65.6621 65.5143 64.9011 66.2592 64.5717 67.191C64.5361 67.5931 64.2884 67.9492 64.3195 68.3543C64.3789 68.9805 65.1726 69.3232 65.668 68.933Z" fill="black"/>
<path d="M55.9655 94.7245C57.2592 94.4055 58.4326 93.7764 59.618 93.1888C62.0791 92.0433 64.4156 90.6767 66.7373 89.273C68.4656 88.4302 69.9848 87.2847 71.4965 86.1096C72.8613 85.0857 74.2484 84.0901 75.6444 83.1108C76.2215 82.7443 75.6844 81.9282 75.094 82.3585C72.578 83.4847 70.231 84.9507 68.0087 86.577C66.2789 87.537 64.6293 88.6365 62.9573 89.6529C61.2365 90.6797 59.3865 91.4661 57.5944 92.3564C56.3379 92.9721 54.9597 93.2837 53.5993 93.5775C51.4586 93.95 49.2586 93.5716 47.1386 93.2125C44.1152 92.4706 41.2402 91.1664 38.5891 89.5431C34.7142 87.4554 30.8377 85.3439 27.1215 82.9832C26.5682 82.5366 26.1009 81.9861 25.5386 81.5513C25.052 81.2204 24.3844 81.8392 24.6989 82.3526C24.9319 82.7814 25.506 83.1078 25.8309 83.415C27.3233 84.737 29.1495 85.6318 30.8318 86.6897C32.615 87.764 34.3759 88.8768 36.1962 89.8888C37.4349 90.5639 38.598 91.3696 39.8293 92.0596C42.3513 93.3757 45.0454 94.4797 47.8655 94.9441C49.2704 95.1444 50.6827 95.3625 52.1039 95.3893C53.4183 95.3893 54.706 95.0658 55.9655 94.7245Z" fill="black"/>
<path d="M48.9411 83.8645C50.6338 83.8571 52.0165 83.0558 53.1588 81.9029C54.7995 80.6254 56.2489 79.1312 57.7681 77.7171C59.6907 75.9825 61.5718 74.2109 63.3134 72.2938C64.1501 71.4243 64.883 70.4583 65.5906 69.482C65.8354 69.1407 66.0609 68.7727 66.1944 68.3973C66.3131 67.9344 66.4288 66.875 65.6589 67.1153C65.4645 67.1643 65.2924 67.2756 65.0996 67.329C64.6412 67.5367 64.3682 67.9804 64.0493 68.3484C63.401 69.1585 62.7586 70.0414 62.0569 70.7877C60.0482 72.9289 57.9639 74.9958 55.8751 77.0553C54.1468 78.6237 52.3695 80.1787 50.487 81.5527C49.0835 82.1878 47.4917 81.983 46.0127 81.7872C44.0693 81.5676 42.3098 80.7025 40.4673 80.1179C38.4467 79.4532 36.3505 79.0451 34.3359 78.3596C32.98 77.9634 31.5692 77.7824 30.2014 77.4144C28.4745 76.9337 26.7744 77.1266 25.8992 78.8804C25.549 79.4962 25.1426 80.0793 24.8162 80.7085C24.5759 81.0839 24.5314 81.5438 24.7287 81.9474C24.8251 82.1834 25.0788 82.351 25.3369 82.2828C25.5268 82.2338 25.6781 82.0706 25.7063 81.8762C25.7612 81.5409 25.9659 81.2218 26.095 80.9488C27.3159 79.0021 27.4628 77.9901 30.0085 78.8448C33.514 79.6624 36.9632 80.6639 40.3827 81.7842C43.1806 82.6255 45.9815 83.8452 48.9411 83.8645Z" fill="black"/>
<path d="M27.6996 83.9334C28.1239 83.5951 28.3109 83.0535 28.5645 82.5906C28.9992 81.8724 29.376 81.043 29.784 80.3248C30.0228 79.7817 30.4471 79.4034 30.7423 78.9018C30.861 78.703 30.9782 78.4938 30.8759 78.2549C30.726 77.9047 30.3566 77.8246 30.0184 77.8928C28.7515 78.2846 27.98 79.6185 27.575 80.8056C27.3288 81.3828 27.219 82.1306 27.0588 82.7063C26.992 83.0031 26.8911 83.288 26.9267 83.5981C26.9698 83.9735 27.4104 84.1411 27.6996 83.9334Z" fill="black"/>
<path d="M28.2939 78.4512C28.736 78.3029 28.2213 77.7998 28.0447 77.6233C27.1546 76.4704 25.8936 75.6513 24.7083 74.8515C24.1089 74.4123 23.5942 73.9805 23.2411 73.3425C22.618 71.3008 23.7633 69.0692 22.9088 67.069C22.5557 66.1401 21.4638 65.6074 20.5352 66.0155C19.8824 66.3241 19.5382 67.0601 19.4047 67.7367C19.3602 68.1151 19.2979 68.5839 19.5798 68.8866C20.0263 69.3422 20.6746 68.9059 20.7755 68.3703C20.8897 67.9192 20.9313 67.4206 21.176 67.0185C21.805 66.5541 22.0721 67.8064 22.0973 68.2397C22.2635 69.8318 21.5276 71.4403 22.0157 72.9997C22.1151 73.5784 22.3569 74.1052 22.8005 74.5014C23.7232 75.4317 24.8477 76.1855 25.8981 76.9437C26.4025 77.3087 26.8564 77.7538 27.4024 78.0551C27.6605 78.2539 27.9676 78.4201 28.2939 78.4512Z" fill="black"/>
<path d="M17.2674 70.6532C18.2198 70.0166 16.4441 68.1277 17.2096 67.3473C17.4069 67.2835 17.662 67.1796 17.6012 66.9244C17.5241 66.6617 17.125 66.6395 16.9025 66.5475C16.1622 66.3338 15.597 67.0742 15.5154 67.7419C15.3477 68.5209 16.223 71.1161 17.2674 70.6532Z" fill="black"/>
<path d="M15.7256 72.4731H15.7146C15.7098 72.4747 15.7067 72.4763 15.7019 72.4779C15.7067 72.4795 15.7098 72.4795 15.7146 72.481C15.7177 72.4779 15.7209 72.4747 15.7256 72.4731Z" fill="black"/>
<path d="M15.7254 72.3016C15.7403 72.2927 15.7566 72.2838 15.7714 72.2749C15.7966 72.2571 15.8189 72.2378 15.8411 72.217C15.8382 72.2185 15.8367 72.2214 15.8337 72.2229C15.8664 72.1933 15.896 72.1606 15.9227 72.1265C15.9301 72.1146 15.9376 72.1027 15.945 72.0924L15.9435 72.0953C15.9524 72.079 15.9613 72.0627 15.9672 72.0464C15.9657 72.0478 15.9643 72.0508 15.9643 72.0538C15.9776 72.0167 15.9895 71.9796 16.0014 71.941V71.9366C16.0014 71.9351 16.0014 71.9351 16.0028 71.9351C16.0058 71.9232 16.0073 71.9098 16.0103 71.898C16.0117 71.8817 16.0132 71.8653 16.0132 71.849C16.0117 71.8119 16.0103 71.7733 16.0043 71.7348C15.9969 71.6858 15.9821 71.6398 15.9687 71.5908C15.9539 71.5448 15.9405 71.4988 15.9242 71.4543H15.9257C15.896 71.3757 15.853 71.3 15.8189 71.2228C15.7966 71.1694 15.7729 71.1175 15.7477 71.067V71.07C15.7462 71.0656 15.7432 71.0626 15.7417 71.0581C15.7432 71.0611 15.7447 71.0626 15.7477 71.067C15.7447 71.0611 15.7417 71.0567 15.7403 71.0507C15.7403 71.0492 15.7373 71.0478 15.7358 71.0463C15.6928 70.9661 15.6468 70.886 15.6067 70.8059C15.5845 70.7599 15.5637 70.7154 15.5429 70.6694C15.5281 70.6323 15.5148 70.5937 15.4955 70.5596V70.5581C15.4895 70.5477 15.4866 70.5344 15.4851 70.5225C15.2982 70.0907 15.2344 69.6678 15.4228 69.3087C15.5845 69.1693 15.7759 69.0669 15.9806 69.0105C16.2387 69.1752 16.3485 68.7449 16.08 68.6781C15.8456 68.6247 15.6008 68.7212 15.3634 68.7256C14.9851 68.7093 14.4986 68.877 14.3606 69.2167C13.8873 70.0269 14.1143 70.9424 14.589 71.6962C14.6068 71.6784 14.635 71.6695 14.6603 71.6784C14.6959 71.6902 14.7107 71.7259 14.7285 71.754C14.7507 71.7911 14.7775 71.8268 14.8042 71.8624C14.8027 71.8609 14.8012 71.8594 14.8012 71.8579C14.8027 71.8594 14.8042 71.8609 14.8042 71.8624C14.8056 71.8638 14.8056 71.8638 14.8056 71.8653V71.8638C14.8323 71.898 14.859 71.9306 14.8887 71.9603C14.9199 71.9915 14.9525 72.0211 14.9866 72.0478L14.9881 72.0493C15.0267 72.0805 15.0667 72.1102 15.1053 72.1384C15.1098 72.1398 15.1127 72.1428 15.1157 72.1443C15.1157 72.1443 15.1142 72.1443 15.1142 72.1428C15.1439 72.1636 15.175 72.1829 15.2062 72.2007C15.2344 72.217 15.264 72.2303 15.2937 72.2422C15.2937 72.2422 15.2907 72.2407 15.2893 72.2392C15.2907 72.2407 15.2907 72.2407 15.2937 72.2422H15.2982H15.2967C15.3353 72.2571 15.3753 72.2689 15.4139 72.2793H15.4124C15.4139 72.2793 15.4168 72.2793 15.4183 72.2808C15.4881 72.2986 15.5578 72.3164 15.629 72.3283H15.6275C15.6364 72.3298 15.6453 72.3312 15.6557 72.3327C15.6794 72.3223 15.7032 72.3134 15.7254 72.3016Z" fill="black"/>
<path d="M15.6218 72.3256C15.6218 72.3256 15.6266 72.3272 15.6299 72.3272C15.6266 72.3272 15.6218 72.3256 15.6218 72.3256Z" fill="black"/>
<path d="M14.9883 72.0472L14.9851 72.0457L14.9883 72.0472Z" fill="black"/>
<path d="M14.7426 71.8293V71.8309L14.7441 71.8325L14.7426 71.8293Z" fill="black"/>
<path d="M14.7393 71.8198C14.7393 71.8182 14.7376 71.8182 14.7376 71.8166C14.7376 71.8182 14.7393 71.8166 14.7393 71.8198Z" fill="black"/>
<path d="M14.7074 71.744L14.709 71.7472L14.7074 71.744Z" fill="black"/>
<path d="M16.0029 71.933L16.0014 71.9377V71.9393L16.0029 71.933Z" fill="black"/>
<path d="M16.0029 71.9325L16.0013 71.9341V71.9357L16.0029 71.9325Z" fill="black"/>
<path d="M15.7367 71.046L15.7383 71.0491L15.7367 71.046Z" fill="black"/>
<path d="M15.5052 70.5615L15.502 70.5631L15.5068 70.5647L15.5052 70.5615Z" fill="black"/>
<path d="M15.498 70.5596H15.4961L15.498 70.5615V70.5596Z" fill="black"/>
<path d="M16.0586 72.1456H16.0605V72.1475H16.0586V72.1456Z" fill="black"/>
<path d="M25.6521 82.831C25.8628 82.5223 25.0735 81.9986 24.8584 81.819C23.8897 81.0222 22.6539 80.6869 21.6748 79.9005C20.669 79.2194 19.7002 78.4567 18.7196 77.7564C17.9601 77.194 17.3385 76.4759 16.6056 75.8823C15.3743 74.6404 14.3907 73.5542 14.5702 71.747V71.7307L14.5717 71.7277C14.5776 71.6713 14.5851 71.6134 14.5925 71.5556C14.5925 71.2974 14.6904 71.0555 14.7186 70.8018C14.729 70.551 14.3551 70.4694 14.2587 70.7039C13.8374 71.9725 13.8463 73.5112 14.4456 74.722C15.3328 76.1969 16.6472 77.3127 17.9067 78.4404C19.7358 79.8812 21.6511 81.2492 23.7962 82.1781C24.2279 82.4036 24.6567 82.6321 25.1017 82.828C25.1996 82.8696 25.3272 82.9259 25.4444 82.9259C25.5215 82.9259 25.5942 82.9007 25.6521 82.831Z" fill="black"/>
<path d="M81.2837 107.966C81.6249 107.555 81.3786 107.022 80.984 106.752C80.3609 106.07 79.6859 105.436 79.0213 104.794C77.8137 103.71 76.7634 102.471 75.6166 101.327C74.3942 100.093 73.4003 98.667 72.3766 97.2677C71.0459 95.4664 69.9199 93.5271 68.6382 91.6946C67.9795 90.8369 67.438 90.0416 66.9306 89.1395C66.7363 88.7537 66.1874 88.632 65.9411 89.0341C65.3522 90.5728 67.935 93.7274 68.8236 95.0168C69.9615 96.4976 71.2373 97.8612 72.3692 99.345C74.4298 102.096 76.5023 104.878 79.0836 107.169C79.6518 107.662 80.536 108.723 81.2837 107.966Z" fill="black"/>
<path d="M80.8713 113.721C81.9705 112.666 79.0347 110.756 78.4131 109.945C77.2886 108.832 76.2442 107.646 75.2057 106.453C73.2875 104.262 71.4257 101.914 69.5728 99.6976C68.2896 98.1619 66.9351 96.6855 65.7453 95.0741C64.9042 93.9597 64.3938 92.0798 65.1415 90.8081C65.416 90.3793 65.6296 89.9223 65.8966 89.4876C66.223 88.7605 65.2009 89.3021 64.9249 89.4178C63.7648 90.0425 63.1477 91.4388 63.259 92.7267C63.2693 93.7846 63.8553 94.6734 64.3226 95.5771C65.818 98.1915 67.8267 100.58 69.7108 102.885C72.2031 105.933 74.6538 109.003 77.471 111.758C77.9977 112.292 78.5644 112.782 79.143 113.257C79.6221 113.656 80.2734 114.285 80.8713 113.721Z" fill="black"/>
<path d="M81.4296 128.304C82.382 128.314 83.3196 128.176 84.2557 128.01C85.2467 127.881 86.2451 127.808 87.2124 127.543C88.2048 127.332 89.1899 127.109 90.1453 126.764C91.3128 126.403 92.5219 126.102 93.6004 125.51C94.5602 124.99 94.0232 123.493 92.9447 123.735C92.7058 123.799 92.4848 123.898 92.2622 123.999C88.9228 125.321 85.3787 126.048 81.8094 126.348C78.5991 126.387 75.3368 126.249 72.2422 125.335C69.4235 124.483 66.1553 123.977 64.1274 121.65C64.654 118.371 64.9374 115.061 65.2771 111.759C65.4106 109.804 65.3513 107.838 65.5337 105.884C65.7118 103.952 65.8379 102.011 65.8453 100.071C65.8616 98.9468 65.6035 97.8458 65.5827 96.724C65.5471 96.3071 65.7073 95.3515 65.1213 95.396C64.565 95.6334 64.5324 96.3902 64.4255 96.9065C64.2668 98.147 64.341 99.4053 64.2164 100.649C64.0472 102.653 63.7772 104.564 63.5948 106.553C63.4242 108.382 63.482 110.227 63.3144 112.058C63.0755 114.181 62.8768 116.309 62.6157 118.432C62.4896 119.434 62.3679 120.441 62.184 121.435C61.9985 121.955 62.2537 122.48 62.6038 122.869C64.7949 125.51 68.342 126.253 71.493 127.151C74.7063 128.121 78.0887 128.338 81.4296 128.304Z" fill="black"/>
<path d="M15.7511 72.3584C16.2733 72.0394 15.8208 71.2901 15.576 70.9221C15.536 70.8256 15.4811 70.6283 15.3431 70.7144C15.2927 70.7544 15.2986 70.8316 15.3446 70.8672C15.5004 71.1921 15.6294 71.5705 15.5567 71.9296C15.1488 71.5156 15.0063 70.9206 14.766 70.4131C14.7141 70.3137 14.5865 70.2707 14.4797 70.3019C14.1904 70.3983 14.3313 70.75 14.3655 70.9681C14.4901 71.6061 14.9351 72.67 15.7511 72.3584Z" fill="black"/>
<path d="M63.7526 57.8594C64.88 57.8148 66.3903 56.7732 66.4971 55.6025C66.2271 55.0119 65.4275 55.9868 65.0833 56.1381C64.6901 56.3874 64.2703 56.607 63.8312 56.7584C63.4306 56.8756 62.9633 56.7628 62.5969 56.9617C62.2869 57.1827 62.3892 57.7199 62.7631 57.8059C63.1117 57.8816 63.4722 57.8727 63.8267 57.8534L63.7526 57.8594Z" fill="black"/>
<path d="M83.1848 66.0755C84.1639 64.9983 84.9398 63.7445 85.9516 62.6895C87.8846 60.67 89.9704 58.796 92.2743 57.2068C94.7844 55.5479 97.3464 53.8727 100.247 52.9854C102.168 52.3949 107.325 51.2271 108.762 52.8756C109.479 53.5478 109.968 55.4278 111.244 54.6428C111.913 54.1339 111.572 53.3846 111.128 52.8504C110.633 51.9245 109.884 51.095 108.959 50.6187C106.911 49.7596 104.613 50.1172 102.482 50.4362C99.3121 50.9778 96.3065 52.2762 93.6258 54.0345C91.4079 55.3565 89.2939 56.8626 87.3802 58.5972C85.7528 60.1403 84.0081 61.6538 82.9192 63.6465C82.5528 64.341 81.8852 65.3707 82.4134 66.1096C82.627 66.3292 82.9905 66.3129 83.1848 66.0755Z" fill="black"/>
<path d="M95.0591 54.076C95.6199 53.7303 95.5857 52.8652 95.0576 52.5062C94.1868 51.653 93.1468 50.92 91.9244 50.6929C91.2435 50.552 90.5002 50.4229 89.8 50.5149C89.7896 50.5223 89.7778 50.5282 89.7659 50.5342C89.754 50.5416 89.7422 50.5446 89.7288 50.5461L89.7244 50.5475C89.708 50.5475 89.6947 50.5416 89.6828 50.5327C89.3401 50.5906 89.0093 50.7063 88.7037 50.9036C88.5583 50.9867 88.3121 51.1989 88.5034 51.3562C88.5746 51.4052 88.6889 51.3918 88.7349 51.3132C89.5004 50.9571 90.4068 51.3844 91.1426 51.6678C91.8295 51.9527 92.4793 52.3311 93 52.8712C93.445 53.3356 93.899 54.2288 94.568 54.2288C94.7194 54.2288 94.8826 54.1829 95.0591 54.076Z" fill="black"/>
<path d="M90.9439 56.3836C92.4319 55.0972 89.3714 53.6534 88.3596 53.3077C87.7737 53.1489 87.1669 53.0466 86.5601 53.008C85.8703 53.0184 84.8244 52.8997 84.4179 53.5778C84.3482 53.7469 84.4728 53.8819 84.6064 53.9398C84.6019 53.9383 84.596 53.9354 84.5915 53.9339C84.5885 53.9324 84.5856 53.9309 84.5811 53.9294C84.6805 53.9992 84.8215 53.9724 84.8882 53.8701C86.391 53.919 87.8553 54.5304 89.0213 55.4666C89.6117 55.9222 90.0612 56.9015 90.9439 56.3836Z" fill="black"/>
<path d="M88.5292 59.0993C89.7204 57.8292 86.8706 56.5724 85.8944 56.3424C85.5784 56.2519 82.2806 55.6584 83.0298 56.5249C83.7463 56.7905 84.4895 57.0175 85.1942 57.3291C85.7876 57.5828 86.3573 57.9004 86.8142 58.3604C87.2786 58.9094 87.734 59.6824 88.5292 59.0993Z" fill="black"/>
<path d="M20.1654 70.4603C20.7099 70.0893 20.7321 69.3014 20.6639 68.7064C20.6372 68.2539 20.6713 67.4645 20.072 67.4051C19.7975 67.4007 19.5779 67.6693 19.4222 67.8622C19.1373 68.2168 18.8866 68.5937 18.7843 69.0447C18.4816 69.9914 19.1655 70.9781 20.1654 70.4603Z" fill="black"/>
<path d="M80.8179 194.715C81.7733 194.672 81.6917 193.285 80.7378 193.337C80.3907 193.313 80.0376 193.301 79.6875 193.277C79.6741 193.285 79.6578 193.288 79.6415 193.288C79.637 193.288 79.6311 193.288 79.6252 193.286C79.5881 193.282 79.551 193.271 79.5139 193.266C79.5183 193.267 79.5213 193.267 79.5243 193.268C79.5139 193.267 79.505 193.266 79.4961 193.264C78.9709 193.224 78.4517 193.154 77.9547 192.99C77.7945 192.906 77.6402 192.813 77.4948 192.711C77.3539 192.84 77.2011 192.954 77.0394 193.05C77.0231 193.076 77.0053 193.099 76.9875 193.125C76.8495 193.307 76.6819 193.458 76.5009 193.595C76.4742 193.616 76.446 193.636 76.4178 193.657C76.7056 193.875 77.0127 194.076 77.3405 194.255C77.437 194.294 77.5364 194.331 77.6358 194.365C77.6536 194.361 77.6729 194.366 77.6921 194.374C77.6936 194.374 77.6951 194.374 77.6966 194.375C77.701 194.377 77.7055 194.378 77.7085 194.38C77.7055 194.378 77.7025 194.377 77.701 194.377C77.8093 194.417 77.9295 194.444 78.0437 194.467H78.0408C78.0467 194.469 78.0526 194.469 78.0586 194.472L78.0571 194.47C78.0645 194.472 78.0719 194.473 78.0793 194.475H78.0779C78.0808 194.475 78.0823 194.476 78.0838 194.476H78.0882C78.1698 194.494 78.247 194.521 78.3271 194.545C78.3226 194.545 78.3197 194.543 78.3182 194.542C78.3597 194.553 78.4057 194.565 78.4487 194.574C78.4947 194.579 78.5407 194.582 78.5852 194.589C78.7454 194.608 78.9071 194.631 79.0659 194.662C79.1015 194.668 79.1356 194.677 79.1697 194.683C79.1771 194.684 79.1831 194.684 79.1905 194.684C79.2439 194.686 79.2973 194.687 79.3507 194.69C79.3848 194.693 79.419 194.693 79.4516 194.697C79.4768 194.699 79.5183 194.7 79.5495 194.712C79.7616 194.724 79.9753 194.73 80.1874 194.73C80.3981 194.73 80.6087 194.724 80.8179 194.715Z" fill="black"/>
<path d="M77.6963 194.374H77.6982V194.376H77.6963V194.374Z" fill="black"/>
<path d="M90.6092 192.711H90.6003C90.6048 192.711 90.6092 192.71 90.6122 192.71L90.6092 192.711C90.6122 192.71 90.6166 192.71 90.6196 192.71C90.627 192.71 90.633 192.708 90.6389 192.708C90.6389 192.708 90.6374 192.708 90.6374 192.71C90.6389 192.708 90.6404 192.708 90.6419 192.708H90.6434C90.6478 192.707 90.6493 192.707 90.6523 192.707C90.6523 192.707 90.6493 192.707 90.6478 192.708C90.7531 192.698 90.857 192.696 90.9623 192.687C91.0202 192.681 91.078 192.677 91.1359 192.673C91.4266 192.543 91.7234 192.422 92.0126 192.297C92.2248 192.456 92.563 192.336 92.6238 192.075C92.7143 191.669 92.3093 191.379 91.983 191.674C90.9074 191.747 89.8882 191.334 88.9655 190.824C88.1956 190.189 87.6496 189.307 87.0518 188.515C86.5681 187.651 86.0029 186.779 85.7003 185.835C85.5237 185.299 85.3858 184.756 85.2701 184.209V184.206C85.2137 184.016 85.1662 183.822 85.1217 183.627C85.1187 183.612 85.1143 183.599 85.1113 183.584C85.1158 183.605 85.1202 183.624 85.1247 183.642C85.1054 183.558 85.0846 183.473 85.0653 183.387C85.0698 183.406 85.0727 183.424 85.0772 183.445C84.9808 183.023 84.9007 182.597 84.8369 182.172C84.8042 181.955 84.7716 181.738 84.7419 181.522C84.7123 181.298 84.693 181.071 84.6588 180.845C84.6588 180.845 84.6603 180.844 84.6588 180.842L84.6574 180.839C84.6351 180.694 84.6069 180.55 84.5832 180.406C84.5862 180.424 84.5891 180.44 84.5921 180.456C84.5862 180.418 84.5787 180.381 84.5743 180.342C84.5535 180.206 84.5402 180.066 84.5283 179.928C84.4512 179.351 84.3933 178.777 84.3429 178.217C84.3043 177.922 84.0417 177.695 83.745 177.695C82.8549 177.748 83.1338 179.039 83.0908 179.654C83.1709 181.79 84.2257 183.725 84.8191 185.734C85.5519 187.464 85.8501 189.328 87.0013 190.841C87.4508 191.61 88.1733 192.307 89.01 192.659C89.0115 192.658 89.013 192.656 89.0145 192.656C89.0634 192.609 89.1257 192.564 89.1969 192.573C89.2444 192.579 89.2874 192.594 89.3201 192.628C89.3512 192.632 89.3838 192.638 89.415 192.643C89.412 192.643 89.4076 192.641 89.4046 192.641C89.4091 192.643 89.415 192.643 89.4209 192.643H89.4106C89.418 192.643 89.4254 192.644 89.4328 192.646C89.4847 192.652 89.5352 192.655 89.5886 192.658C89.6553 192.662 89.7236 192.673 89.7903 192.677C89.8363 192.68 89.8823 192.68 89.9283 192.683C89.9713 192.684 90.0143 192.689 90.0559 192.692C90.0989 192.695 90.1404 192.696 90.1835 192.698C90.2339 192.701 90.2873 192.705 90.3377 192.71C90.3823 192.713 90.4268 192.714 90.4727 192.717H90.5009C90.538 192.717 90.5736 192.713 90.6092 192.711Z" fill="black"/>
<path d="M84.6523 180.797C84.6538 180.807 84.6553 180.819 84.6582 180.831C84.6553 180.819 84.6538 180.808 84.6523 180.797Z" fill="black"/>
<path d="M89.4625 190.913C89.2281 190.694 89.0175 190.455 88.8202 190.204C88.8157 190.201 88.8113 190.2 88.8068 190.198C88.703 190.149 88.6407 190.072 88.5798 189.979C88.5428 189.921 88.522 189.85 88.4983 189.786C88.4968 189.78 88.4938 189.774 88.4923 189.766C87.4272 188.338 86.6261 186.71 86.092 185.023C85.457 182.539 84.8221 180.03 84.5091 177.481C84.4082 176.899 84.6767 175.9 83.8994 175.746C82.9276 175.694 83.0923 177.181 82.9885 177.837C82.892 179.346 83.2689 180.816 83.7302 182.239C83.929 183.247 84.3014 184.202 84.5907 185.186C85.0773 186.891 85.7656 188.492 86.8708 189.888C87.169 190.327 87.5473 190.7 87.9315 191.062C88.3321 191.424 88.8098 191.839 89.375 191.848C89.9313 191.733 89.8572 191.197 89.4625 190.913Z" fill="black"/>
<path d="M85.1647 196.159C85.6706 196.014 86.2417 195.993 86.7268 195.841C87.3099 195.617 87.8795 195.338 88.3795 194.962C88.3869 194.942 88.3958 194.923 88.4032 194.904C88.4373 194.81 88.4551 194.717 88.4789 194.622C88.5056 194.519 88.5353 194.417 88.5516 194.312C88.562 194.245 88.5709 194.177 88.5827 194.11C88.5931 194.056 88.6035 194.005 88.6124 193.953C88.6376 193.823 88.6584 193.693 88.6806 193.561C88.6792 193.57 88.6792 193.576 88.6777 193.582C88.691 193.502 88.7073 193.421 88.7192 193.34C88.7385 193.205 88.7607 193.062 88.8245 192.939C88.875 192.837 88.9314 192.734 89.0144 192.657C89.0426 192.631 89.0738 192.605 89.1094 192.589C89.1079 192.418 89.1034 192.251 89.102 192.09C88.9447 191.098 88.4448 191.065 87.9849 191.917C87.6629 192.498 87.5932 193.139 87.4671 193.734C87.4286 194.04 87.4256 194.261 87.1407 194.442C87.1511 194.433 87.1615 194.424 87.1719 194.414C86.8173 194.708 86.4747 195.06 86.0504 195.242C85.7329 195.398 84.7315 195.506 84.825 195.965C84.8591 196.091 84.9748 196.166 85.0965 196.166C85.1202 196.166 85.1425 196.165 85.1647 196.159Z" fill="black"/>
<path d="M88.4014 194.908L88.3998 194.91C88.3998 194.913 88.3982 194.916 88.3966 194.919C88.3982 194.916 88.3998 194.913 88.4014 194.908Z" fill="black"/>
<path d="M88.7686 194.061V194.058L88.767 194.064L88.7686 194.061Z" fill="black"/>
<path d="M87.1875 194.404L87.186 194.405C87.1798 194.408 87.1751 194.413 87.1705 194.417C87.1767 194.413 87.1813 194.408 87.1875 194.404Z" fill="black"/>
<path d="M72.7713 196.805C74.0308 196.566 75.719 196.836 76.7264 195.946C76.7397 195.931 76.7531 195.919 76.7664 195.905C76.7842 195.885 76.8005 195.866 76.8183 195.847C76.8554 195.807 76.8925 195.768 76.9266 195.725H76.9251C76.9474 195.697 76.9711 195.67 76.9978 195.648C77.0023 195.642 77.0082 195.637 77.0142 195.634C77.0409 195.597 77.0676 195.559 77.0943 195.52C77.4043 195.057 77.48 194.507 77.391 193.967C77.342 193.691 77.3554 193.306 77.0957 193.143C77.0483 193.136 77.0067 193.137 76.9682 193.148C76.894 193.244 76.8109 193.332 76.7219 193.413C76.6611 193.542 76.621 193.691 76.578 193.793C76.4905 194.167 76.2412 194.482 76.1908 194.867C76.1611 195.115 76.1611 195.396 75.9742 195.587C75.4105 195.983 74.6895 196.142 74.016 196.235C73.5739 196.29 73.1333 196.365 72.7075 196.492C72.6304 196.514 72.5814 196.589 72.5903 196.669C72.6007 196.746 72.6719 196.807 72.749 196.807C72.7565 196.807 72.7639 196.807 72.7713 196.805Z" fill="black"/>
<path d="M79.2516 194.582C79.977 194.524 81.0081 194.551 81.0273 193.571C81.0273 193.073 80.609 192.644 80.1061 192.65C79.2738 192.656 78.4386 192.692 77.6153 192.545C76.6955 192.353 75.835 191.964 74.9909 191.564C73.2626 190.677 71.7539 189.408 70.6872 187.777C68.91 185.149 67.7929 182.151 66.8805 179.13C65.8762 175.96 65.1953 172.696 64.7339 169.403C64.3378 166.507 63.9165 163.613 63.6806 160.699C63.4566 154.746 63.5248 148.778 63.7488 142.827C63.8957 138.459 63.9625 134.084 64.0619 129.716C64.136 128.336 64.0915 126.858 64.1627 125.509C64.225 124.904 64.2384 124.303 64.2117 123.695C64.2161 123.54 64.0811 123.411 63.9298 123.411C63.5797 123.444 63.6628 123.772 63.6539 124.027C63.5263 124.785 63.1866 125.493 63.0694 126.257C62.292 130.6 62.2549 135.027 62.0087 139.423C61.7654 144.631 61.5829 149.839 61.6333 155.056C61.5844 158.077 61.6734 161.106 62.0695 164.105C62.7712 170.11 63.6583 176.128 65.7056 181.842C66.6788 184.663 67.9086 187.433 69.7541 189.798C71.874 192.476 75.7742 194.778 79.2516 194.582Z" fill="black"/>
<path d="M85.3112 54.4737C87.6299 54.217 90.3892 53.0048 90.8758 50.4838C90.9574 49.6855 90.588 48.8872 90.6845 48.0771C90.723 47.8589 90.5435 47.5429 90.3062 47.7298C90.2364 47.7862 90.2157 47.8782 90.2409 47.9554C90.1697 48.3159 90.0599 48.6765 89.9768 48.9822C89.3523 51.1797 87.0825 52.4676 84.8928 52.5314C84.7044 52.524 84.5412 52.4409 84.4136 52.3029C84.203 52.1308 83.9345 52.0729 83.6674 52.0982C82.9272 52.1709 82.5948 53.1175 83.0532 53.6769C83.5947 54.3239 84.4982 54.5331 85.3112 54.4737Z" fill="black"/>
<path d="M115.899 105.303C117.569 105.145 117.796 102.663 118.16 101.372C118.597 99.8303 118.815 98.2352 118.664 96.6342C118.624 95.5525 118.625 94.4648 118.406 93.3995C118.274 92.3682 118.026 91.3622 117.706 90.374C117.419 89.2864 117.086 88.2032 116.396 87.2966C116.323 87.2283 116.247 87.1601 116.169 87.0978C116.133 87.0696 116.098 87.0443 116.059 87.0206C116.032 87.0058 116.006 86.9909 115.979 86.9791C115.946 86.9672 115.917 86.9553 115.884 86.9464C115.86 86.9405 115.835 86.936 115.811 86.9316C115.773 86.9271 115.736 86.9242 115.697 86.9227C115.635 86.9227 115.571 86.9271 115.509 86.9331H115.506C115.383 86.9494 115.258 86.9776 115.136 87.0058C115.148 87.0043 115.161 87.0013 115.175 86.9969C115.107 87.0132 115.038 87.0354 114.972 87.0592C114.927 87.0785 114.884 87.0992 114.841 87.1245C114.854 87.117 114.868 87.1096 114.881 87.1037C114.632 87.2476 114.394 87.4138 114.157 87.5785C113.936 87.7358 113.717 87.8975 113.497 88.0578C113.314 88.2937 113.141 88.5267 112.964 88.7329C112.736 89.0386 112.393 89.2389 112.232 89.595C112.111 90.4897 112.65 91.3548 112.905 92.1917C113.426 93.674 113.982 95.1474 114.443 96.6505C114.835 98.1046 115.104 99.5988 115.126 101.109C115.133 101.893 115.113 102.675 115.064 103.457C114.979 104.151 114.917 105.304 115.881 105.304C115.887 105.304 115.893 105.304 115.899 105.303ZM116.715 91.0699C117.081 92.3727 117.283 93.7229 117.396 95.0687C117.397 96.3611 117.6 97.6535 117.467 98.943C117.278 100.289 116.961 101.618 116.589 102.923C116.916 99.9193 116.265 96.9932 115.242 94.1874C115.224 94.1399 115.206 94.0909 115.188 94.0434C115.179 94.0197 115.17 93.996 115.161 93.9722C114.632 92.5522 114.01 91.1619 113.375 89.8101C114.133 89.3235 114.866 88.7997 115.577 88.2418C116.268 89.0297 116.439 90.0921 116.715 91.0699Z" fill="black"/>
<path d="M115.959 86.9665C115.965 86.9696 115.969 86.9727 115.976 86.9742C115.969 86.9727 115.965 86.968 115.959 86.9665Z" fill="black"/>
<path d="M115.884 86.9453C115.894 86.9468 115.903 86.9512 115.915 86.9527C115.905 86.9512 115.894 86.9468 115.884 86.9453Z" fill="black"/>
<path d="M115.51 86.9332C115.516 86.9332 115.521 86.9316 115.525 86.9316C115.521 86.9316 115.515 86.9316 115.508 86.9332H115.51Z" fill="black"/>
<path d="M115.677 86.9194C115.685 86.921 115.691 86.921 115.697 86.921C115.691 86.921 115.685 86.9194 115.677 86.9194Z" fill="black"/>
<path d="M80.7426 29.5306C80.879 29.5499 80.9295 29.3852 80.7856 29.3852C80.7307 29.4001 80.6862 29.3882 80.6387 29.3719C80.5586 29.3407 80.4815 29.2799 80.4147 29.222C80.3791 29.1864 80.3257 29.1389 80.2782 29.1849C80.1699 29.317 80.6283 29.5544 80.7426 29.5306Z" fill="black"/>
<path d="M87.0806 49.6336C89.88 49.2538 93.2935 47.9362 94.1584 44.976C94.9017 42.6879 94.6465 40.3064 93.3707 38.2618C92.4212 36.4307 91.5816 35.7868 89.7079 35.0122C89.6337 32.7138 89.3444 30.3071 88.171 28.2876C86.4486 25.6302 82.6018 23.5751 79.6867 25.5871C79.2639 25.8067 77.3339 27.9033 78.4139 28.0384C78.4539 28.0755 78.5207 28.0577 78.5459 28.0146C79.3975 27.6822 80.0606 26.9433 80.9685 26.6985C82.9164 26.0634 84.9117 27.2861 86.1311 28.755C87.0094 29.7551 87.2601 31.1232 87.539 32.3859C87.7511 33.4824 87.6814 34.6086 87.8268 35.7096C88.1843 36.8284 89.5729 36.9456 90.4229 37.5451C91.2062 38.152 91.6023 39.1253 92.0637 39.977C92.7254 41.1774 92.715 42.593 92.439 43.9032C92.2373 44.8795 91.7106 45.7668 90.8294 46.2713C89.6411 47.0429 88.2867 47.5355 86.8788 47.6943C85.6015 47.859 85.8062 49.7375 87.0806 49.6336Z" fill="black"/>
<path d="M62.7725 52.1899C64.5349 51.948 64.8123 49.8781 64.302 48.4774C64.302 48.4818 64.3035 48.4848 64.3035 48.4878L64.305 48.4893C63.8555 46.587 62.6954 44.9563 61.2386 43.6832C61.8112 43.6966 61.9551 42.8597 61.4077 42.6802C60.2683 42.189 59.1438 42.4606 58.4243 43.4918C57.2049 45.4445 57.9511 48.2073 59.3812 49.8588C60.2505 50.8871 61.2756 52.3041 62.7725 52.1899ZM62.6642 50.8055C61.8854 50.663 61.3988 49.8929 60.8795 49.3558C60.295 48.6614 59.6764 47.9314 59.4302 47.044C59.1023 45.9371 58.9332 43.5482 60.5903 43.5972C61.9061 44.9267 63.0692 46.5143 63.3437 48.4017C63.4757 49.2223 63.719 50.5888 62.6642 50.8055Z" fill="black"/>
<path d="M65.6822 48.0721C65.9329 48.0647 66.2266 48.0587 66.4136 47.8703C66.5441 47.7382 66.5219 47.5334 66.3572 47.4429C65.7593 47.204 65.1274 47.0245 64.5236 46.7886C63.9969 46.5972 63.497 47.2411 63.8248 47.7011C63.9302 47.8614 64.1008 47.9519 64.2892 47.9712C64.752 48.0083 65.2149 48.0765 65.6822 48.0721Z" fill="black"/>
<path d="M1.99005 56.1396C6.87527 53.724 11.9474 51.7312 16.9869 49.6687C20.1335 48.5603 23.2088 47.2219 26.1758 45.6951C29.0331 44.4235 31.8384 42.8076 34.5681 41.3253C37.3052 39.8667 40.1446 38.6233 42.9351 37.2745C45.1619 36.1112 47.3471 34.8574 49.4833 33.5339C51.5944 32.1955 53.6223 30.7339 55.8135 29.5276C57.6486 30.9535 59.3992 32.5649 61.4776 33.6259C61.936 33.9211 62.5027 34.3826 63.0664 34.1051C63.3349 33.9523 63.3958 33.6214 63.2608 33.3603C62.1036 32.1643 60.7195 31.1583 59.3888 30.1538C58.3414 29.4133 57.4024 28.7783 56.4574 27.9919C55.6963 27.4414 54.8997 28.1269 54.2024 28.4578C53.6253 28.7397 53.0349 28.9979 52.5008 29.3599C48.9893 31.6687 45.3814 33.8321 41.6444 35.7611C39.9176 36.6053 38.1597 37.3873 36.4863 38.3384C33.7996 39.7525 31.1782 41.2838 28.5153 42.7423C27.0377 43.4635 25.5453 44.1579 24.0885 44.9235C21.2416 46.3109 18.2998 47.4816 15.3595 48.6479C13.6727 49.4447 12.0008 50.2667 10.2518 50.9181C7.25802 52.0977 4.39335 53.5652 1.4189 54.7864C0.585163 55.1603 1.04208 56.4972 1.99005 56.1396Z" fill="black"/>
<path d="M19.6598 68.9511C20.3007 68.4214 19.5945 67.7166 19.1999 67.2804C18.2223 66.0518 17.2847 64.7742 16.1528 63.6807C13.2525 60.8644 10.2439 58.1728 6.38234 56.8285C5.26525 56.4471 4.16893 56.0124 3.04591 55.6518C2.49701 55.5005 1.90509 55.3298 1.3369 55.4411C1.11734 55.496 0.955639 55.6919 0.983826 55.9219C1.01795 56.2008 1.31613 56.3299 1.53124 56.4531C1.75229 56.5777 1.97926 56.6964 2.20328 56.8136C4.1363 57.8864 6.26959 58.5319 8.16553 59.6759C10.2751 60.7962 12.1443 62.3022 13.9913 63.8009C14.9986 64.6912 15.9614 65.6259 16.7907 66.6854C17.3574 67.3056 18.7089 69.6352 19.6598 68.9511Z" fill="black"/>
<path d="M38.4164 115.378C43.0242 114.222 47.0624 111.633 51.0975 109.24C51.7028 108.879 52.3095 108.518 52.9163 108.159C52.9534 108.136 52.989 108.11 53.0246 108.085C53.124 108.015 53.2264 107.947 53.3317 107.888C53.4459 107.823 53.5602 107.762 53.6759 107.701C53.7664 107.652 53.8569 107.601 53.9473 107.551C55.5629 106.598 57.1829 105.649 58.7984 104.693C60.6603 103.571 62.6259 102.608 64.3809 101.326C64.7933 100.994 65.5306 100.306 64.8957 99.8441C64.4076 99.5859 63.875 99.9524 63.4285 100.148C60.5253 101.469 57.7674 103.065 55.0704 104.764C52.6433 106.284 50.1258 107.659 47.7121 109.199C44.9617 110.94 42.0199 112.381 38.9624 113.464C38.6063 113.596 38.228 113.673 37.8898 113.853C37.1673 114.265 37.5011 115.387 38.2918 115.387C38.3319 115.387 38.3734 115.384 38.4164 115.378Z" fill="black"/>
<path d="M38.1385 115.326C38.2127 115.288 38.2512 115.212 38.2809 115.14C38.6147 114.206 38.5776 113.2 38.4738 112.23C37.9946 107.562 36.3657 103.139 35.0083 98.6782C33.5233 94.2387 32.0412 87.4043 28.6128 84.2037C28.1589 83.8476 27.4809 84.3551 27.7212 84.8907C27.8889 85.2632 28.1307 85.4872 28.3132 85.8241C29.0772 87.5364 29.8768 89.2427 30.5132 91.0099C31.4018 93.4196 32.1184 95.862 32.8839 98.3103C33.9312 101.635 35.0839 104.931 36.0586 108.278C36.5467 110.104 36.9576 111.948 37.4041 113.785C37.5436 114.194 37.5925 115.54 38.1385 115.326Z" fill="black"/>
<path d="M53.331 107.889C53.4453 107.825 53.5595 107.763 53.6752 107.702C53.871 107.598 54.0624 107.487 54.2553 107.374C54.3176 107.168 54.3087 106.956 54.2983 106.732C54.2642 106.023 54.233 105.316 54.1633 104.612C54.0045 102.279 53.5461 99.991 53.0566 97.7104C52.8459 96.5426 52.5952 95.3823 52.3104 94.2308C52.2214 94.305 52.1131 94.354 51.9944 94.3659C51.9202 94.3733 51.846 94.3792 51.7718 94.3792C51.6962 94.3792 51.619 94.3733 51.5434 94.3629C51.3283 94.3303 51.1176 94.2828 50.9099 94.2219C50.7868 94.1834 50.6607 94.1507 50.542 94.1062C50.4397 94.0676 50.3373 94.029 50.2364 93.9919C50.6295 95.5039 50.9663 97.0308 51.2378 98.571C51.717 100.681 52.0834 102.812 52.2377 104.972C52.3712 105.824 52.2184 106.724 52.481 107.544C52.61 107.805 52.8504 107.966 53.1129 108.026C53.1842 107.977 53.2568 107.931 53.331 107.889Z" fill="black"/>
<path d="M48.1569 83.9619C48.16 83.9634 48.1648 83.965 48.168 83.965C48.1648 83.9634 48.16 83.9634 48.1569 83.9619Z" fill="black"/>
<path d="M41.2007 68.7336C36.6923 62.2078 31.7388 55.8853 25.7884 50.6089C24.1743 49.3314 22.4772 48.1191 20.5961 47.263C20.0709 46.935 19.0829 46.9662 19.2105 47.8253C19.5339 48.6177 20.4923 48.9337 21.1183 49.456C23.2457 51.014 25.3641 52.5943 27.1592 54.538C32.215 59.7165 36.7872 65.4173 40.6577 71.5202C42.9542 75.3157 44.9451 79.3324 46.5873 83.4321C46.8128 83.4663 47.0368 83.5108 47.2608 83.5508C47.5931 83.6132 47.924 83.6873 48.2548 83.7571C48.4654 83.8016 48.6746 83.8461 48.8838 83.8877C46.7742 78.6038 44.3205 73.504 41.2007 68.7336Z" fill="black"/>
<path d="M66.6749 67.411C67.6199 66.6543 66.568 65.5889 66.0399 64.9212C65.3471 64.0784 64.6499 63.2326 63.9274 62.415C59.2054 57.0986 53.8261 52.4201 48.5344 47.6868C45.1327 44.9447 41.8912 41.9341 38.6216 39.0793C38.1454 38.6876 37.5505 38.5852 37.9006 39.4755C38.9212 41.2263 40.4715 42.6167 41.869 44.0678C43.9696 46.3588 46.6162 48.3427 48.8341 50.4645C52.9034 54.1592 56.9282 57.8227 60.726 61.78C61.8623 63.0011 62.9616 64.2564 64.0208 65.5429C64.7641 66.2062 65.4777 68.1663 66.6749 67.411Z" fill="black"/>
<path d="M23.3912 70.6459C25.9903 69.8699 28.4292 68.573 30.9349 67.5299C34.6896 65.8532 38.1729 63.6617 41.6814 61.5339C44.9645 59.6213 48.1422 57.5439 51.2679 55.3984C53.1653 54.1282 55.1162 52.9427 56.8682 51.4722C57.4661 51.0493 58.0461 50.5983 58.6024 50.1234C58.9318 49.8534 59.2804 49.5982 59.6201 49.3341C59.4673 49.2287 59.3323 49.0922 59.2225 48.9364C59.0445 48.6842 58.9466 48.3993 58.8561 48.1099C58.5431 48.2657 58.2315 48.4289 57.9215 48.6248C55.717 50.1056 53.5244 51.7779 51.2486 53.1237C46.85 56.1225 42.3802 58.8927 37.8184 61.5962C33.7773 64.1914 29.3786 66.1277 24.9756 68.0122C24.4163 68.26 23.8392 68.4558 23.2606 68.6561C22.909 68.7541 22.5456 68.9277 22.3957 69.2853C22.099 69.9025 22.6019 70.6548 23.2666 70.6548C23.3081 70.6548 23.3496 70.6518 23.3912 70.6459Z" fill="black"/>
<path d="M35.1261 97.3104C37.4686 96.7792 42.4948 95.1159 44.0836 93.408C44.7007 91.9672 41.4934 93.1973 40.9608 93.3828C38.9032 94.1588 36.8485 94.9882 34.6855 95.423C34.282 95.4913 33.8444 95.5224 33.5684 95.8726C32.8608 96.9676 34.1544 97.6235 35.1261 97.3104Z" fill="black"/>
</g>
<defs>
<clipPath id="clip0_884_21626">
<rect width="131.481" height="200" fill="white" transform="matrix(-1 0 0 1 132 -0.00390625)"/>
</clipPath>
</defs>
</svg>
