<svg width="352" height="349" viewBox="0 0 352 349" fill="none" xmlns="http://www.w3.org/2000/svg">
    <path fill-rule="evenodd" clip-rule="evenodd" d="M181.74 18.6565L175.679 0L169.617 18.6565H150L165.87 30.1869L159.808 48.8435L175.679 37.3131L191.549 48.8435L185.487 30.1869L201.357 18.6565H181.74ZM181.74 318.657L175.679 300L169.617 318.657H150L165.87 330.187L159.808 348.843L175.679 337.313L191.549 348.843L185.487 330.187L201.357 318.657H181.74ZM25.6785 150L31.7404 168.657H51.3571L35.4869 180.187L41.5487 198.843L25.6785 187.313L9.80832 198.843L15.8702 180.187L0 168.657H19.6166L25.6785 150ZM104.74 37.6565L98.6785 19L92.6167 37.6565H73L88.8702 49.1869L82.8083 67.8435L98.6785 56.3131L114.549 67.8435L108.487 49.1869L124.357 37.6565H104.74ZM98.6785 277L104.74 295.657H124.357L108.487 307.187L114.549 325.843L98.6785 314.313L82.8083 325.843L88.8702 307.187L73 295.657H92.6167L98.6785 277ZM51.7404 92.6565L45.6785 74L39.6166 92.6565H20L35.8702 104.187L29.8083 122.843L45.6785 111.313L61.5487 122.843L55.4869 104.187L71.3571 92.6565H51.7404ZM45.6785 224L51.7404 242.657H71.3571L55.4869 254.187L61.5487 272.843L45.6785 261.313L29.8083 272.843L35.8702 254.187L20 242.657H39.6166L45.6785 224ZM319.617 168.657L325.679 150L331.74 168.657H351.357L335.487 180.187L341.549 198.843L325.679 187.313L309.808 198.843L315.87 180.187L300 168.657H319.617ZM252.679 19L246.617 37.6565H227L242.87 49.1869L236.808 67.8435L252.679 56.3131L268.549 67.8435L262.487 49.1869L278.357 37.6565H258.74L252.679 19ZM246.617 295.657L252.679 277L258.74 295.657H278.357L262.487 307.187L268.549 325.843L252.679 314.313L236.808 325.843L242.87 307.187L227 295.657H246.617ZM305.679 74L299.617 92.6565H280L295.87 104.187L289.808 122.843L305.679 111.313L321.549 122.843L315.487 104.187L331.357 92.6565H311.74L305.679 74ZM299.617 242.657L305.679 224L311.74 242.657H331.357L315.487 254.187L321.549 272.843L305.679 261.313L289.808 272.843L295.87 254.187L280 242.657H299.617Z" fill="#FAE351"/>
</svg>
