<svg width="136" height="136" viewBox="0 0 136 136" fill="none" xmlns="http://www.w3.org/2000/svg">
    <path fill-rule="evenodd" clip-rule="evenodd"
          d="M100.3 129.2C99.3622 129.2 98.5996 128.437 98.5996 127.5C98.5996 126.563 99.3622 125.8 100.3 125.8C101.237 125.8 102 126.563 102 127.5C102 128.437 101.237 129.2 100.3 129.2Z"
          fill="#CACAFB"/>
    <path fill-rule="evenodd" clip-rule="evenodd"
          d="M113.899 20.4C112.962 20.4 112.199 19.6374 112.199 18.7C112.199 17.7625 112.962 17 113.899 17C114.837 17 115.599 17.7625 115.599 18.7C115.599 19.6374 114.837 20.4 113.899 20.4Z"
          fill="#CACAFB"/>
    <path fill-rule="evenodd" clip-rule="evenodd"
          d="M15.2996 27.2C14.3622 27.2 13.5996 26.4374 13.5996 25.5C13.5996 24.5625 14.3622 23.8 15.2996 23.8C16.237 23.8 16.9996 24.5625 16.9996 25.5C16.9996 26.4374 16.237 27.2 15.2996 27.2Z"
          fill="#CACAFB"/>
    <path d="M66.3 68C64.4222 68 62.9 69.5222 62.9 71.4C62.9 75.628 64.6147 78.2 68 78.2C68.9389 78.2 69.7 77.4389 69.7 76.5C69.7 75.5611 68.9389 74.8 68 74.8L67.8401 74.7943C67.6371 74.7792 67.4547 74.734 67.2926 74.6528C68.6861 74.2281 69.7 72.9325 69.7 71.4C69.7 69.5222 68.1778 68 66.3 68Z"
          fill="#E1000F"/>
    <path d="M73.1 71.4C73.1 69.5222 74.6222 68 76.5 68C78.3778 68 79.9 69.5222 79.9 71.4C79.9 72.9325 78.8861 74.2281 77.4926 74.6528C77.6547 74.734 77.8371 74.7792 78.0401 74.7943L78.2 74.8C79.1389 74.8 79.9 75.5611 79.9 76.5C79.9 77.4389 79.1389 78.2 78.2 78.2C74.8147 78.2 73.1 75.628 73.1 71.4Z"
          fill="#E1000F"/>
    <path d="M95.2 85C96.1389 85 96.9 85.7611 96.9 86.7C96.9 87.5718 96.2437 88.2904 95.3983 88.3886L95.2 88.4H64.6C63.6611 88.4 62.9 87.6389 62.9 86.7C62.9 85.8282 63.5563 85.1096 64.4018 85.0114L64.6 85H95.2Z"
          fill="#E1000F"/>
    <path d="M90.1 93.5C90.1 92.5611 89.3389 91.8 88.4 91.8H64.6L64.4018 91.8114C63.5563 91.9096 62.9 92.6282 62.9 93.5C62.9 94.4389 63.6611 95.2 64.6 95.2H88.4L88.5983 95.1886C89.4437 95.0904 90.1 94.3718 90.1 93.5Z"
          fill="#E1000F"/>
    <path d="M50.5482 44.9162L50.3936 46.5661H48.3183L47.9651 42.8874C50.5261 42.6198 52.204 42.0625 52.204 40.1674C52.204 39.008 51.3209 38.2054 50.1729 38.2054C49.0027 38.2054 48.2742 38.8297 47.4573 40.0559L45.0508 38.5621C46.2871 36.5779 47.9651 35.53 50.3053 35.53C52.9105 35.53 55.2508 37.3359 55.2508 40.1674C55.2508 42.7759 53.2858 44.448 50.5482 44.9162Z"
          fill="#E1000F"/>
    <path d="M51.2988 49.9103C51.2988 50.9582 50.3936 51.85 49.3781 51.85C48.3183 51.85 47.4352 50.9582 47.4352 49.9103C47.4352 48.8625 48.3183 47.9707 49.3781 47.9707C50.3936 47.9707 51.2988 48.8625 51.2988 49.9103Z"
          fill="#E1000F"/>
    <path d="M54.4002 20.4C66.0521 20.4 75.2897 27.2971 79.7776 38.4662C80.1277 39.3373 79.7052 40.3274 78.834 40.6774C77.9628 41.0275 76.9728 40.605 76.6228 39.7338C72.6307 29.7988 64.5962 23.8 54.4002 23.8C40.3169 23.8 28.9002 35.2167 28.9002 49.3C28.9002 54.7669 30.6228 59.9696 33.772 64.2941C34.1712 64.8424 34.2027 65.5683 33.8706 66.1439L33.7465 66.3297L27.2461 74.8H37.4002C38.272 74.8 38.9906 75.4563 39.0888 76.3017L39.1002 76.5C39.1002 77.3718 38.4439 78.0904 37.5985 78.1886L37.4002 78.2H23.8002C22.4548 78.2 21.6672 76.727 22.3446 75.6205L22.4515 75.4651L30.2942 65.2426L30.1981 65.1004C27.2866 60.6505 25.6467 55.4694 25.5096 50.0416L25.5002 49.3C25.5002 33.339 38.4392 20.4 54.4002 20.4Z"
          fill="#000091"/>
    <path d="M79.9002 47.6C98.6779 47.6 113.9 62.8223 113.9 81.6C113.9 86.9221 112.675 92.0727 110.354 96.7354C109.935 97.5758 108.914 97.9179 108.074 97.4994C107.234 97.0809 106.891 96.0604 107.31 95.2199C109.398 91.0255 110.5 86.3932 110.5 81.6C110.5 64.7001 96.8001 51 79.9002 51C63.0003 51 49.3002 64.7001 49.3002 81.6C49.3002 98.3121 62.6975 111.895 79.3381 112.195L79.9002 112.2H109.023L103.986 104.643C103.502 103.918 103.65 102.956 104.299 102.405L104.457 102.286C105.183 101.802 106.145 101.949 106.695 102.598L106.815 102.757L113.615 112.957C114.332 114.033 113.632 115.457 112.39 115.59L112.2 115.6H79.9002C61.1225 115.6 45.9002 100.378 45.9002 81.6C45.9002 62.8223 61.1225 47.6 79.9002 47.6Z"
          fill="#000091"/>
    <path d="M93.5002 32.3C93.5002 33.2374 94.2628 34 95.2002 34C96.1376 34 96.9002 33.2374 96.9002 32.3C96.9002 31.3625 96.1376 30.6 95.2002 30.6C94.2628 30.6 93.5002 31.3625 93.5002 32.3Z"
          fill="#000091"/>
    <path d="M102 34C101.063 34 100.3 33.2374 100.3 32.3C100.3 31.3625 101.063 30.6 102 30.6C102.938 30.6 103.7 31.3625 103.7 32.3C103.7 33.2374 102.938 34 102 34Z"
          fill="#000091"/>
    <path d="M107.1 32.3C107.1 33.2374 107.863 34 108.8 34C109.738 34 110.5 33.2374 110.5 32.3C110.5 31.3625 109.738 30.6 108.8 30.6C107.863 30.6 107.1 31.3625 107.1 32.3Z"
          fill="#000091"/>
    <path fill-rule="evenodd" clip-rule="evenodd"
          d="M115.6 23.8H88.4002C87.4613 23.8 86.7002 24.5611 86.7002 25.5V39.1L86.7116 39.2982C86.8098 40.1437 87.5284 40.8 88.4002 40.8H101.295L107.598 47.1021L107.742 47.2315C108.825 48.1056 110.5 47.3487 110.5 45.9V40.8H115.6C116.539 40.8 117.3 40.0389 117.3 39.1V25.5C117.3 24.5611 116.539 23.8 115.6 23.8ZM113.9 27.2V37.4H108.8L108.602 37.4114C107.756 37.5096 107.1 38.2282 107.1 39.1V41.7945L103.202 37.8979L103.034 37.7503C102.739 37.5244 102.376 37.4 102 37.4H90.1002V27.2H113.9Z"
          fill="#000091"/>
    <path d="M27.2002 98.6C28.1391 98.6 28.9002 99.3611 28.9002 100.3C28.9002 101.172 28.2439 101.89 27.3985 101.989L27.2002 102H20.4002C19.4613 102 18.7002 101.239 18.7002 100.3C18.7002 99.4282 19.3565 98.7096 20.2019 98.6114L20.4002 98.6H27.2002Z"
          fill="#000091"/>
    <path d="M32.3002 100.3C32.3002 101.237 33.0628 102 34.0002 102C34.9376 102 35.7002 101.237 35.7002 100.3C35.7002 99.3625 34.9376 98.6 34.0002 98.6C33.0628 98.6 32.3002 99.3625 32.3002 100.3Z"
          fill="#000091"/>
    <path d="M40.8002 102C39.8628 102 39.1002 101.237 39.1002 100.3C39.1002 99.3625 39.8628 98.6 40.8002 98.6C41.7376 98.6 42.5002 99.3625 42.5002 100.3C42.5002 101.237 41.7376 102 40.8002 102Z"
          fill="#000091"/>
</svg>
