<svg width="105" height="104" viewBox="0 0 105 104" fill="none" xmlns="http://www.w3.org/2000/svg">
<g clip-path="url(#clip0_884_24686)">
<path d="M84.7188 64.5939H92.7579C94.2318 64.5939 95.4377 63.3881 95.4377 61.9142V52.5352C95.4377 51.0613 94.2318 49.8555 92.7579 49.8555H84.7188C83.2449 49.8555 82.0391 51.0613 82.0391 52.5352V61.9142C82.0391 63.3881 83.2449 64.5939 84.7188 64.5939ZM84.7188 52.5352H92.7579V61.9142H84.7188V52.5352Z" fill="#FCC72C"/>
<path d="M84.7188 83.352H92.7579C94.2318 83.352 95.4377 82.1461 95.4377 80.6723V71.2932C95.4377 69.8194 94.2318 68.6135 92.7579 68.6135H84.7188C83.2449 68.6135 82.0391 69.8194 82.0391 71.2932V80.6723C82.0391 82.1461 83.2449 83.352 84.7188 83.352ZM84.7188 71.2932H92.7579V80.6723H84.7188V71.2932Z" fill="#FCC72C"/>
<path d="M103.41 40.4765H75.407V28.4178C75.407 28.4178 75.3936 28.3642 75.3936 28.324V18.9985C75.3936 18.5832 75.206 18.1946 74.8711 17.94C74.5361 17.6855 74.1074 17.6051 73.7054 17.7123L33.9115 28.4714C33.322 28.6321 32.92 29.1547 32.92 29.771V36.4703H14.028C13.3581 36.6043 12.8221 37.1403 12.8221 37.9442C12.9561 38.6141 13.492 39.15 14.162 39.15H32.92V90.0648H6.10941V43.0222C5.97542 42.3523 5.43948 41.8164 4.76955 41.8164C3.96563 41.8164 3.42969 42.3523 3.42969 43.1562V92.7311H103.41C104.08 92.7311 104.616 92.1951 104.75 91.5252V41.8164C104.75 41.0125 104.214 40.4765 103.41 40.4765ZM53.9692 72.6332C53.1653 72.6332 52.6294 73.1691 52.6294 73.973V90.0514H45.9301V67.2737H62.0084V90.0514H55.3091V73.973C55.1751 73.1691 54.6392 72.6332 53.9692 72.6332ZM72.7005 20.7538V90.0514H64.6747V65.7999C64.5407 65.1299 64.0048 64.594 63.3349 64.594H44.4428C43.7729 64.728 43.237 65.2639 43.237 65.9339V90.0514H39.0834H36.9262H35.5863V84.6919V37.6628V30.7893L72.7005 20.7538ZM102.057 90.0514H75.3936V43.1562H102.057V90.0514Z" fill="#352A6B"/>
<path d="M11.6426 70.1142H15.6622C17.136 70.1142 18.3419 68.9083 18.3419 67.4344V62.075C18.3419 60.6011 17.136 59.3953 15.6622 59.3953H11.6426C10.1688 59.3953 8.96289 60.6011 8.96289 62.075V67.4344C8.96289 68.9083 10.1688 70.1142 11.6426 70.1142ZM11.6426 62.075H15.6622V67.4344H11.6426V62.075Z" fill="#FCC72C"/>
<path d="M11.6426 86.0319H15.6622C17.136 86.0319 18.3419 84.826 18.3419 83.3522V77.9927C18.3419 76.5189 17.136 75.313 15.6622 75.313H11.6426C10.1688 75.313 8.96289 76.5189 8.96289 77.9927V83.3522C8.96289 84.826 10.1688 86.0319 11.6426 86.0319ZM11.6426 77.9927H15.6622V83.3522H11.6426V77.9927Z" fill="#FCC72C"/>
<path d="M11.6426 54.2101H15.6622C17.136 54.2101 18.3419 53.0042 18.3419 51.5304V46.1709C18.3419 44.6971 17.136 43.4912 15.6622 43.4912H11.6426C10.1688 43.4912 8.96289 44.6971 8.96289 46.1709V51.5304C8.96289 53.0042 10.1688 54.2101 11.6426 54.2101ZM11.6426 46.1709H15.6622V51.5304H11.6426V46.1709Z" fill="#FCC72C"/>
<path d="M21.3438 67.4344C21.3438 68.9083 22.5496 70.1142 24.0235 70.1142H28.0431C29.5169 70.1142 30.7228 68.9083 30.7228 67.4344V62.075C30.7228 60.6011 29.5169 59.3953 28.0431 59.3953H24.0235C22.5496 59.3953 21.3438 60.6011 21.3438 62.075V67.4344ZM24.0235 62.075H28.0431V67.4344H24.0235V62.075Z" fill="#FCC72C"/>
<path d="M21.3438 83.3519C21.3438 84.8258 22.5496 86.0316 24.0235 86.0316H28.0431C29.5169 86.0316 30.7228 84.8258 30.7228 83.3519V77.9925C30.7228 76.5186 29.5169 75.3127 28.0431 75.3127H24.0235C22.5496 75.3127 21.3438 76.5186 21.3438 77.9925V83.3519ZM24.0235 77.9925H28.0431V83.3519H24.0235V77.9925Z" fill="#FCC72C"/>
<path d="M24.0235 54.2101H28.0431C29.5169 54.2101 30.7228 53.0042 30.7228 51.5304V46.1709C30.7228 44.6971 29.5169 43.4912 28.0431 43.4912H24.0235C22.5496 43.4912 21.3438 44.6971 21.3438 46.1709V51.5304C21.3438 53.0042 22.5496 54.2101 24.0235 54.2101ZM24.0235 46.1709H28.0431V51.5304H24.0235V46.1709Z" fill="#FCC72C"/>
<path d="M2.08986 13.6792C2.82985 13.6792 3.42972 13.0794 3.42972 12.3394C3.42972 11.5994 2.82985 10.9995 2.08986 10.9995C1.34988 10.9995 0.75 11.5994 0.75 12.3394C0.75 13.0794 1.34988 13.6792 2.08986 13.6792Z" fill="#CAC8E5"/>
<path d="M2.08986 98.0904C2.82985 98.0904 3.42972 97.4905 3.42972 96.7505C3.42972 96.0105 2.82985 95.4106 2.08986 95.4106C1.34988 95.4106 0.75 96.0105 0.75 96.7505C0.75 97.4905 1.34988 98.0904 2.08986 98.0904Z" fill="#CAC8E5"/>
<path d="M101.105 98.0904C101.845 98.0904 102.445 97.4905 102.445 96.7505C102.445 96.0105 101.845 95.4106 101.105 95.4106C100.366 95.4106 99.7656 96.0105 99.7656 96.7505C99.7656 97.4905 100.366 98.0904 101.105 98.0904Z" fill="#CAC8E5"/>
<path d="M4.76955 39.1365C5.50953 39.1365 6.10941 38.5366 6.10941 37.7966C6.10941 37.0567 5.50953 36.4568 4.76955 36.4568C4.02956 36.4568 3.42969 37.0567 3.42969 37.7966C3.42969 38.5366 4.02956 39.1365 4.76955 39.1365Z" fill="#352A6B"/>
<path d="M103.41 32.4373C104.15 32.4373 104.75 31.8374 104.75 31.0974C104.75 30.3574 104.15 29.7576 103.41 29.7576C102.67 29.7576 102.07 30.3574 102.07 31.0974C102.07 31.8374 102.67 32.4373 103.41 32.4373Z" fill="#CAC8E5"/>
<path d="M43.9199 39.1368H64.1518C64.8218 39.0028 65.3577 38.4668 65.3577 37.7969C65.3577 36.993 64.8218 36.457 64.0179 36.457H43.786C43.116 36.591 42.5801 37.127 42.5801 37.7969C42.5801 38.6008 43.116 39.1368 43.9199 39.1368Z" fill="#352A6B"/>
<path d="M43.9199 45.836H64.1518C64.8218 45.702 65.3577 45.166 65.3577 44.4961C65.3577 43.6922 64.8218 43.1562 64.0179 43.1562H43.786C43.116 43.2902 42.5801 43.8262 42.5801 44.4961C42.5801 45.3 43.116 45.836 43.9199 45.836Z" fill="#352A6B"/>
<path d="M43.9199 52.5352H47.9663C48.6363 52.4012 49.1722 51.8653 49.1722 51.1953C49.1722 50.3914 48.6362 49.8555 47.8323 49.8555H43.786C43.116 49.9895 42.5801 50.5254 42.5801 51.1953C42.5801 51.9992 43.116 52.5352 43.9199 52.5352Z" fill="#352A6B"/>
<path d="M64.0179 49.8555H51.8787C51.2088 49.9895 50.6729 50.5254 50.6729 51.1953C50.6729 51.9992 51.2088 52.5352 52.0127 52.5352H64.1519C64.8218 52.4012 65.3577 51.8653 65.3577 51.1953C65.3577 50.3914 64.8218 49.8555 64.0179 49.8555Z" fill="#352A6B"/>
<path d="M43.9199 59.2344H64.1518C64.8218 59.1004 65.3577 58.5645 65.3577 57.8945C65.3577 57.0906 64.8218 56.5547 64.0179 56.5547H43.786C43.116 56.6887 42.5801 57.2246 42.5801 57.8945C42.5801 58.6985 43.116 59.2344 43.9199 59.2344Z" fill="#352A6B"/>
<path d="M53.2596 32.4373H64.0053C64.8092 32.4373 65.3451 31.9013 65.3451 31.0974C65.3451 30.4275 64.8092 29.8916 64.1393 29.7576H53.3936C52.5897 29.7576 52.0537 30.2935 52.0537 31.0974C52.0537 31.7674 52.5897 32.3033 53.2596 32.4373Z" fill="#352A6B"/>
</g>
<defs>
<clipPath id="clip0_884_24686">
<rect width="104" height="87.091" fill="white" transform="translate(0.75 10.9995)"/>
</clipPath>
</defs>
</svg>
