<svg width="1440" height="261" viewBox="0 0 1440 261" fill="none" xmlns="http://www.w3.org/2000/svg">
<g clip-path="url(#clip0_50_7396)">
<path opacity="0.3" d="M724.287 357.349C826.618 124.6 1132.46 6.14978 1407.17 93.0947C1681.87 180.04 1821.39 438.921 1719.06 671.669C1616.73 904.418 1715.89 626.976 1441.18 540.031C1166.47 453.33 621.668 590.342 724.287 357.349Z" fill="#BBBBFC"/>
<path opacity="0.4" d="M1584.7 426.635C1536.92 626.199 1470.73 652.048 1227.79 620.771C984.85 589.494 698.187 377.199 745.915 177.881C793.702 -21.6826 1195.08 -12.2127 1394.75 13.493C1650.52 46.4224 1614.12 303.808 1584.7 426.635Z" fill="#ECECFE"/>
<path opacity="0.4" d="M695.628 314.146C655.932 222.09 668.753 195.724 749.954 149.864C831.155 104.003 974.431 120.683 1014.08 212.625C1053.77 304.68 931.037 397.484 864.3 435.175C778.81 483.458 720.059 370.804 695.628 314.146Z" fill="#E3E3FD"/>
<path opacity="0.4" d="M996.447 348.933C933.957 304.727 932.821 286.786 971.664 242.727C1010.51 198.668 1116.13 176.98 1178.55 221.132C1241.04 265.339 1191.25 345.423 1159.33 381.633C1118.43 428.02 1034.91 376.141 996.447 348.933Z" fill="#CACAFB"/>
</g>
<defs>
<clipPath id="clip0_50_7396">
<rect width="1440" height="261" fill="white" transform="matrix(-1 0 0 -1 1440 261)"/>
</clipPath>
</defs>
</svg>
