<svg width="288" height="216" viewBox="0 0 288 216" fill="none" xmlns="http://www.w3.org/2000/svg">
<g opacity="0.2">
<path d="M108.176 156.341H108.174V156.343H108.176V156.341Z" fill="black"/>
<path d="M108.176 156.341H108.174V156.343H108.176V156.341Z" fill="black"/>
<path d="M108.176 156.244H108.174V156.245H108.176V156.244Z" fill="black"/>
<path d="M84.7351 107.844H84.7334V107.846H84.7351V107.844Z" fill="black"/>
<path d="M84.7351 107.654H84.7334V107.656H84.7351V107.654Z" fill="black"/>
<path d="M84.7351 107.654H84.7334V107.656H84.7351V107.654Z" fill="black"/>
<path d="M84.9255 108.698H84.9238V108.7H84.9255V108.698Z" fill="black"/>
<path d="M84.8288 108.224H84.8271V108.225H84.8288V108.224Z" fill="black"/>
<path d="M82.6462 113.253H82.6445V113.255H82.6462V113.253Z" fill="black"/>
<path d="M82.9294 113.253H82.9277V113.255H82.9294V113.253Z" fill="black"/>
<path d="M82.8366 113.253H82.835V113.255H82.8366V113.253Z" fill="black"/>
<path d="M82.8366 113.253H82.835V113.255H82.8366V113.253Z" fill="black"/>
<path d="M82.8366 113.253H82.835V113.255H82.8366V113.253Z" fill="black"/>
<path d="M84.7351 107.939H84.7334V107.941H84.7351V107.939Z" fill="black"/>
<path d="M84.7351 107.654H84.7334V107.656H84.7351V107.654Z" fill="black"/>
<path d="M84.7351 107.654H84.7334V107.656H84.7351V107.654Z" fill="black"/>
<path d="M84.8288 108.224H84.8271V108.225H84.8288V108.224Z" fill="black"/>
<path d="M82.6462 113.253H82.6445V113.255H82.6462V113.253Z" fill="black"/>
<path d="M82.6462 113.253H82.6445V113.255H82.6462V113.253Z" fill="black"/>
<path d="M82.8366 113.253H82.835V113.255H82.8366V113.253Z" fill="black"/>
<path d="M84.7351 107.654H84.7334V107.656H84.7351V107.654Z" fill="black"/>
<path d="M84.7351 107.654H84.7334V107.656H84.7351V107.654Z" fill="black"/>
<path d="M100.584 122.933H100.582V122.935H100.584V122.933Z" fill="black"/>
<path d="M183.809 13.2308C183.714 63.5291 184.853 122.178 183.714 166.592C182.575 166.592 103.426 189.368 76.76 195.443C76.4744 156.818 76.7606 42.2707 76.7606 42.2707C76.7606 42.2707 172.895 15.6022 183.809 13.2308Z" fill="white"/>
<path d="M183.618 29.9309C175.457 34.1076 91.8488 54.226 77.0439 58.8768C76.0961 52.2335 77.7096 46.8252 76.7588 42.1725C83.6873 39.8012 173.937 16.266 183.903 13.1341C184.188 17.5931 183.904 26.7039 183.618 29.9309Z" fill="#273671"/>
<path d="M84.8269 50.9047C80.0811 50.1455 83.5936 42.5535 87.01 46.5385C87.9582 48.0569 86.8194 50.9992 84.8269 50.9047Z" fill="#FFC100"/>
<path d="M93.7467 48.7223C90.4248 47.2984 92.6079 42.0785 96.0243 43.5969C99.4407 44.7357 96.5946 49.6705 93.7467 48.7223Z" fill="#FFC100"/>
<path d="M104.376 45.7801C100.58 45.5894 102.384 39.7065 105.609 40.6546C108.837 41.51 107.507 46.1597 104.376 45.7801Z" fill="#FFC100"/>
<path d="M84.8263 51.664C82.3581 51.5695 80.7452 48.7234 81.9785 46.5419C83.3079 44.0754 87.1039 44.1698 88.2427 46.8254C89.287 49.103 87.389 51.853 84.8263 51.664ZM85.0169 50.4307C86.6298 50.4307 87.7686 48.6289 87.0094 47.205C86.2502 45.6882 84.0671 45.5921 83.2134 47.016C82.1691 48.4382 83.3079 50.4307 85.0169 50.4307Z" fill="black"/>
<path d="M94.6007 49.2917C92.1342 49.1972 90.5196 46.351 91.7546 44.1696C93.0823 41.7031 96.8783 41.7975 98.0171 44.453C99.0614 46.7306 97.1634 49.4806 94.6007 49.2917ZM94.7914 48.0584C96.4042 48.0584 97.543 46.2566 96.7838 44.8326C96.0246 43.3159 93.8415 43.2198 92.9878 44.6437C91.9435 46.0659 93.0823 48.0584 94.7914 48.0584Z" fill="black"/>
<path d="M104.756 46.8237C102.288 46.7292 100.675 43.8814 101.91 41.6982C103.238 39.2317 107.034 39.3262 108.173 41.9834C109.122 44.1665 107.224 47.0143 104.756 46.8237ZM104.947 45.4942C106.56 45.4942 107.699 43.6924 106.939 42.2685C106.18 40.7501 103.997 40.6556 103.143 42.0778C102.099 43.5018 103.143 45.5904 104.947 45.4942Z" fill="black"/>
<path d="M184.377 30.5948V20.4401C184.377 18.4476 184.377 16.359 184.188 14.3665C184.188 14.0814 184.188 13.8924 184.091 13.6073C184.188 13.4183 184.188 13.3222 184.188 13.1332C183.903 12.374 183.143 12.7536 182.573 12.9426C181.34 13.3222 180.107 13.6073 178.777 13.8924C147.839 22.1491 116.902 30.5004 85.964 38.7571C82.9272 39.6108 79.8904 40.37 76.8536 41.2236C76.474 41.3181 76.2834 41.6977 76.3778 41.9828V42.0773C76.3778 42.0773 76.3778 42.1735 76.2834 42.2679C76.1889 42.742 76.1889 43.2161 76.1889 43.6919C76.1889 44.5455 76.0944 45.3992 76.0944 46.2529C75.7148 95.7916 76.0944 145.33 75.9982 194.965C75.9982 195.154 76.0944 195.439 76.2834 195.534V195.724C76.3778 196.198 76.8536 196.293 77.2332 196.104C81.8829 194.869 86.4381 193.636 91.0878 192.402C121.078 184.336 150.972 176.363 180.96 168.297C181.814 168.108 182.573 167.823 183.428 167.632C183.806 167.632 184.188 167.253 184.091 166.779V166.684C184.282 166.59 184.377 166.399 184.377 166.21V157.857C184.377 115.436 184.566 73.0156 184.377 30.5948ZM77.4222 42.4569C82.0718 41.2236 86.627 39.9904 91.2784 38.7571C121.267 30.6893 151.161 22.7177 181.149 14.6516C181.908 14.461 182.764 14.272 183.523 13.9869V14.8406C183.523 15.6959 183.428 16.5496 183.428 17.4033C183.428 21.5789 183.428 25.7545 183.332 29.9301C182.573 30.1207 181.814 30.3097 181.055 30.5003C149.357 39.0405 117.661 47.4879 85.964 56.028C84.3494 56.4076 82.831 56.8817 81.3126 57.263C79.9849 57.6426 78.7516 57.926 77.4222 58.3056V49.1008C77.4222 47.1083 77.4222 45.0196 77.2332 43.0272V42.3624C77.137 42.5531 77.2332 42.5531 77.4222 42.4569ZM178.872 167.538C147.935 175.794 116.997 184.146 86.0585 192.402C83.1162 193.162 80.27 193.921 77.3277 194.774V186.614C77.2332 144.288 77.4222 102.056 77.3277 59.824C78.6554 59.4444 79.9849 59.0648 81.4088 58.7814C83.1162 58.3056 84.729 57.926 86.4381 57.452C118.704 48.8156 151.066 40.1793 183.332 31.4485C183.143 76.3375 183.332 121.321 183.238 166.304V166.493C183.047 166.59 182.764 166.59 182.573 166.684C181.34 166.873 180.107 167.253 178.872 167.538Z" fill="black"/>
<path d="M111.494 89.34C97.6373 54.6058 147.081 41.89 155.718 74.156C155.338 110.598 118.041 105.853 111.494 89.34Z" fill="#B4C2E3"/>
<path d="M117.665 96.6472C127.629 104.619 145.376 102.532 151.64 91.1421C144.996 76.7173 120.607 81.7483 117.665 96.6472Z" fill="#FFC100"/>
<path d="M140.343 73.0169C138.351 61.5344 120.604 65.9934 125.539 77.7627C129.05 85.9233 142.147 81.6532 140.343 73.0169Z" fill="#FFC100"/>
<path d="M129.334 102.341C111.493 100.158 102.286 79.9448 112.346 65.0442C121.836 51.1897 142.24 51.0952 151.825 64.8553C157.235 72.4473 157.52 83.2667 152.489 91.1422C147.84 99.0193 138.35 103.574 129.334 102.341ZM129.619 101.108C140.153 102.436 150.497 95.7935 153.723 85.6388C157.615 73.775 151.066 60.8686 139.203 56.9782C129.523 53.7524 118.611 57.6429 113.106 66.183V66.0886C103.995 80.3244 112.82 99.2099 129.619 101.108Z" fill="black"/>
<path d="M131.613 83.0764C124.78 82.2227 121.553 74.2511 125.729 68.8405C130.569 62.7669 140.25 65.3296 141.483 73.0161C142.337 78.7101 137.307 83.8356 131.613 83.0764ZM132.184 81.8431C137.498 82.2227 141.577 76.9083 139.87 71.8773C137.781 65.7092 129.526 64.7611 126.108 70.3589C123.262 75.1992 126.488 81.4635 132.184 81.8431Z" fill="black"/>
<path d="M117.851 96.1727C117.662 96.0783 117.471 95.9838 117.186 95.9838C117.092 95.9838 116.997 95.9838 116.903 96.0783L116.807 95.9838C116.807 95.7931 116.903 95.6042 116.997 95.4135C117.186 94.6543 117.566 93.8951 117.851 93.1359C118.61 91.5231 119.56 90.0991 120.603 88.7697C120.793 88.5807 120.982 88.3901 121.173 88.2011C121.458 87.8215 121.741 87.5364 122.121 87.2513C122.312 87.0623 122.501 86.8717 122.691 86.7772C122.786 86.6827 122.88 86.5883 122.976 86.4921H123.071C123.165 86.3976 123.26 86.3031 123.356 86.3031C123.736 86.018 124.115 85.7329 124.495 85.4495C125.254 84.8792 126.108 84.4051 126.961 83.9311C127.056 83.9311 127.152 83.8349 127.246 83.7404H127.341C127.435 83.7404 127.532 83.6459 127.626 83.5515C127.815 83.4553 128.006 83.3608 128.195 83.2663C129.809 82.6016 131.517 82.1275 133.32 81.8424C135.124 81.5573 137.022 81.6535 138.823 81.8424C140.627 82.1275 142.336 82.6016 143.949 83.3608C145.658 84.12 147.176 85.0699 148.599 86.2087C149.928 87.3475 151.161 88.6752 152.206 90.0991C152.3 90.1936 152.395 90.2881 152.395 90.4787C152.491 90.6677 152.585 90.7639 152.491 90.9528C152.395 91.1435 152.395 91.2379 152.206 91.3324C151.921 91.5231 151.541 91.5231 151.352 91.2379C150.972 90.6677 150.497 90.0991 150.022 89.5289C149.454 88.9603 148.884 88.2956 148.315 87.8215C147.745 87.3475 147.08 86.7772 146.417 86.3031C145.752 85.8291 144.993 85.4495 144.423 85.0699C143.664 84.6903 142.905 84.3107 142.145 84.12C141.386 83.9311 140.532 83.6459 139.773 83.4553C139.014 83.2663 138.16 83.1719 137.401 83.0757H137.305C136.451 82.9812 135.598 82.9812 134.838 83.0757C133.985 83.1719 133.129 83.2663 132.37 83.3608C131.611 83.5515 130.852 83.7404 130.093 83.9311C129.333 84.2145 128.574 84.4996 127.911 84.7847C127.246 85.1643 126.582 85.5439 125.917 85.9235C125.348 86.3031 124.874 86.6827 124.304 87.0623C124.21 87.1568 124.115 87.2513 123.925 87.3475H123.83C123.26 87.916 122.691 88.3901 122.121 89.0548C121.647 89.6251 121.173 90.2881 120.699 90.8583C120.223 91.6175 119.749 92.2823 119.369 93.0415C118.895 93.8951 118.61 94.7488 118.231 95.6987C118.136 95.8876 118.136 95.9838 118.042 96.1727C117.851 96.2672 117.851 96.2672 117.851 96.1727Z" fill="black"/>
<path d="M165.781 114.584C158.946 117.431 116.335 127.965 98.686 132.52C98.5898 128.629 97.5471 123.221 98.8748 119.614C107.984 116.672 152.779 104.999 165.686 101.867C165.779 107.656 165.591 113.35 165.781 114.584Z" fill="#B4C2E3"/>
<path d="M165.684 121.227C165.496 122.936 165.876 134.132 165.876 134.132L98.874 152.83L98.684 139.163C98.684 139.163 146.134 126.352 165.684 121.227Z" fill="#B4C2E3"/>
<path d="M165.873 155.393L98.3983 173.614L98.3978 160.139L165.873 142.392L165.873 155.393Z" fill="#273671"/>
<path d="M97.6377 120.373V119.234C97.6377 119.234 97.7322 119.14 97.7322 119.043C97.7322 119.043 97.7322 118.949 97.8283 118.949C99.4412 118.569 101.054 118.095 102.667 117.621C108.172 116.103 113.772 114.679 119.275 113.16C134.744 108.985 150.119 104.904 165.588 100.728C166.347 100.539 166.727 101.678 165.967 101.961C163.594 102.626 161.222 103.196 158.849 103.859C153.535 105.283 148.221 106.707 142.906 108.131C132.846 110.788 122.786 113.54 112.727 116.197C107.698 117.716 102.667 119.043 97.6377 120.373Z" fill="black"/>
<path d="M97.8298 119.042H97.8281V119.044H97.8298V119.042Z" fill="black"/>
<path d="M97.6384 133.184C97.4494 132.236 98.7772 132.331 99.3474 132.046C100.107 131.855 100.96 131.666 101.719 131.381C111.398 128.818 121.174 126.161 130.854 123.6C141.768 120.658 152.682 117.715 163.69 114.773C164.544 114.584 165.492 114.299 166.348 114.014V115.152C166.348 115.152 166.348 115.249 166.252 115.249V115.343C166.063 115.438 165.777 115.438 165.588 115.532C155.054 118.38 144.52 121.226 133.986 123.979C122.786 127.016 111.589 129.957 100.39 132.995C99.8215 133.184 99.1568 133.279 98.5865 133.469H98.3976C98.018 133.658 97.7328 133.469 97.6384 133.184Z" fill="black"/>
<path d="M166.348 115.246H166.347V115.248H166.348V115.246Z" fill="black"/>
<path d="M165.115 114.679V101.393C165.21 100.919 165.684 100.728 166.063 101.013C166.445 101.202 166.349 101.678 166.349 101.961V114.964C166.254 115.249 165.969 115.343 165.78 115.343C165.495 115.343 165.115 115.058 165.115 114.679Z" fill="black"/>
<path d="M97.6377 133.089C97.5432 132.33 97.6377 131.665 97.6377 130.906V119.803C97.6377 119.613 97.7322 119.518 97.8267 119.424C98.2079 119.044 98.871 119.424 98.871 119.898V133.089C98.7765 133.374 98.4914 133.469 98.3024 133.469C98.0173 133.469 97.7322 133.374 97.6377 133.089Z" fill="black"/>
<path d="M97.6377 140.112V138.973C97.6377 138.973 97.7322 138.879 97.7322 138.783C97.7322 138.783 97.7322 138.688 97.8283 138.688C99.4412 138.309 101.054 137.835 102.667 137.361C108.172 135.842 113.772 134.418 119.275 132.9C134.744 128.724 150.119 124.643 165.588 120.468C166.347 120.279 166.727 121.417 165.967 121.701C163.594 122.366 161.222 122.936 158.849 123.599C153.535 125.023 148.221 126.447 142.906 127.871C132.846 130.528 122.786 133.279 112.727 135.937C107.698 137.455 102.667 138.783 97.6377 140.112Z" fill="black"/>
<path d="M97.8298 138.782H97.8281V138.784H97.8298V138.782Z" fill="black"/>
<path d="M97.6384 152.924C97.4494 151.976 98.7772 152.07 99.3474 151.785C100.107 151.594 100.96 151.405 101.719 151.12C111.398 148.558 121.174 145.9 130.854 143.339C141.768 140.397 152.682 137.455 163.69 134.512C164.544 134.323 165.492 134.038 166.348 133.753V134.892C166.348 134.892 166.348 134.988 166.252 134.988V135.083C166.063 135.177 165.777 135.177 165.588 135.272C155.054 138.119 144.52 140.966 133.986 143.719C122.786 146.756 111.589 149.696 100.39 152.733C99.8215 152.924 99.1568 153.018 98.5865 153.209H98.3976C98.018 153.398 97.7328 153.209 97.6384 152.924Z" fill="black"/>
<path d="M166.348 134.986H166.347V134.988H166.348V134.986Z" fill="black"/>
<path d="M165.115 134.418V121.132C165.21 120.658 165.684 120.467 166.063 120.753C166.445 120.941 166.349 121.417 166.349 121.701V134.703C166.254 134.987 165.969 135.083 165.78 135.083C165.495 135.083 165.115 134.798 165.115 134.418Z" fill="black"/>
<path d="M97.6377 152.829C97.5432 152.07 97.6377 151.405 97.6377 150.646V139.543C97.6377 139.352 97.7322 139.258 97.8267 139.163C98.2079 138.784 98.871 139.163 98.871 139.638V152.829C98.7765 153.114 98.4914 153.209 98.3024 153.209C98.0173 153.209 97.7322 153.114 97.6377 152.829Z" fill="black"/>
<path d="M97.6377 161.086V159.947C97.6377 159.947 97.7322 159.852 97.7322 159.756C97.7322 159.756 97.7322 159.662 97.8283 159.662C99.4412 159.282 101.054 158.808 102.667 158.334C108.172 156.816 113.772 155.392 119.275 153.873C134.744 149.698 150.119 145.617 165.588 141.441C166.347 141.252 166.727 142.391 165.967 142.674C163.594 143.339 161.222 143.909 158.849 144.572C153.535 145.996 148.221 147.42 142.906 148.844C132.846 151.501 122.786 154.253 112.727 156.91C107.698 158.428 102.667 159.756 97.6377 161.086Z" fill="black"/>
<path d="M97.8298 159.754H97.8281V159.756H97.8298V159.754Z" fill="black"/>
<path d="M97.6384 173.896C97.4494 172.947 98.7772 173.042 99.3474 172.757C100.107 172.566 100.96 172.377 101.719 172.092C111.398 169.529 121.174 166.872 130.854 164.311C141.768 161.369 152.682 158.426 163.69 155.484C164.544 155.295 165.492 155.01 166.348 154.725V155.864C166.348 155.864 166.348 155.96 166.252 155.96V156.054C166.063 156.149 165.777 156.149 165.588 156.243C155.054 159.091 144.52 161.937 133.986 164.691C122.786 167.727 111.589 170.668 100.39 173.705C99.8215 173.896 99.1568 173.99 98.5865 174.181H98.3976C98.018 174.37 97.7328 174.181 97.6384 173.896Z" fill="black"/>
<path d="M166.348 155.96H166.347V155.962H166.348V155.96Z" fill="black"/>
<path d="M166.348 155.96H166.347V155.962H166.348V155.96Z" fill="black"/>
<path d="M165.115 155.486V142.2C165.21 141.726 165.684 141.536 166.063 141.821C166.445 142.01 166.349 142.485 166.349 142.769V155.771C166.254 156.056 165.969 156.151 165.78 156.151C165.495 156.056 165.115 155.866 165.115 155.486Z" fill="black"/>
<path d="M97.6377 173.8C97.5432 173.041 97.6377 172.376 97.6377 171.617V160.514C97.6377 160.324 97.7322 160.229 97.8267 160.135C98.2079 159.755 98.871 160.135 98.871 160.609V173.8C98.7765 174.085 98.4914 174.18 98.3024 174.18C98.0173 174.18 97.7322 174.085 97.6377 173.8Z" fill="black"/>
<path d="M107.509 125.877C107.13 125.592 106.75 125.307 106.371 125.023H106.561C106.75 125.023 107.13 125.023 107.415 124.927C107.604 124.927 107.698 124.833 107.889 124.738C107.984 124.644 108.08 124.453 108.08 124.264C108.08 124.073 107.984 123.979 107.889 123.788C107.795 123.694 107.604 123.599 107.415 123.599H107.32C107.035 123.599 106.75 123.599 106.465 123.694H106.276C106.465 123.409 106.75 123.125 106.939 122.84C107.13 122.65 107.13 122.461 107.13 122.27C106.939 121.701 106.182 121.701 105.897 122.175C105.706 122.366 105.611 122.555 105.422 122.746V121.796C105.422 121.416 105.137 121.227 104.758 121.227C104.378 121.227 104.093 121.511 104.188 121.89C104.188 122.366 104.188 122.84 104.282 123.409C103.902 123.22 103.619 122.935 103.334 122.65C103.049 122.461 102.764 122.081 102.384 122.27C102.101 122.366 101.815 122.746 101.91 123.029C102.004 123.22 102.101 123.409 102.29 123.505C102.669 123.884 103.049 124.168 103.523 124.453C103.428 124.453 103.239 124.548 103.143 124.548C102.954 124.548 102.669 124.644 102.48 124.738C102.384 124.738 102.29 124.738 102.29 124.833C102.195 124.833 102.101 124.833 102.101 124.927C102.004 124.927 101.91 125.023 101.91 125.118C101.91 125.212 101.815 125.212 101.815 125.307C101.815 125.497 101.815 125.686 102.004 125.877H102.101C102.195 125.877 102.29 125.971 102.384 125.971H102.86C103.049 125.971 103.239 125.877 103.334 125.877C103.239 126.066 103.143 126.162 103.049 126.257C102.764 126.636 102.48 127.11 102.764 127.49C102.954 127.966 103.808 127.68 103.902 127.206C104.093 126.921 104.282 126.636 104.567 126.351V127.586C104.567 127.966 104.852 128.155 105.232 128.155C105.611 128.155 105.897 127.869 105.8 127.49C105.8 127.016 105.8 126.542 105.706 126.162C106.276 126.542 106.845 126.921 107.509 127.206C107.889 127.206 108.174 126.162 107.509 125.877Z" fill="black"/>
<path d="M117.948 123.125C117.568 122.84 117.189 122.556 116.809 122.271H117C117.189 122.271 117.568 122.271 117.853 122.177C118.042 122.177 118.137 122.08 118.328 121.986C118.422 121.891 118.518 121.701 118.518 121.512C118.518 121.321 118.422 121.227 118.328 121.036C118.233 120.942 118.042 120.847 117.853 120.847H117.759C117.474 120.847 117.189 120.847 116.904 120.942H116.715C116.904 120.657 117.189 120.373 117.378 120.088C117.568 119.897 117.568 119.708 117.568 119.518C117.378 118.949 116.618 118.949 116.335 119.423C116.144 119.614 116.05 119.803 115.859 119.993V119.044C115.859 118.664 115.576 118.475 115.196 118.475C114.817 118.475 114.532 118.759 114.626 119.138C114.626 119.614 114.626 120.088 114.72 120.657C114.341 120.468 114.057 120.182 113.772 119.897C113.487 119.708 113.202 119.329 112.822 119.518C112.539 119.614 112.254 119.993 112.348 120.277C112.443 120.468 112.539 120.657 112.728 120.753C113.108 121.132 113.487 121.416 113.961 121.701C113.867 121.701 113.678 121.795 113.582 121.795C113.393 121.795 113.108 121.891 112.919 121.986C112.822 121.986 112.728 121.986 112.728 122.08C112.634 122.08 112.539 122.08 112.539 122.177C112.443 122.177 112.348 122.271 112.348 122.366C112.348 122.46 112.254 122.46 112.254 122.556C112.254 122.745 112.254 122.934 112.443 123.125H112.539C112.634 123.125 112.728 123.219 112.822 123.219H113.298C113.487 123.219 113.678 123.125 113.772 123.125C113.678 123.219 113.582 123.41 113.487 123.504C113.202 123.884 112.919 124.358 113.202 124.738C113.393 125.213 114.246 124.928 114.341 124.454C114.532 124.169 114.72 123.884 115.006 123.599V124.834C115.006 125.213 115.291 125.402 115.67 125.402C116.05 125.402 116.335 125.117 116.239 124.738C116.239 124.264 116.239 123.79 116.144 123.41C116.715 123.79 117.283 124.169 117.948 124.454C118.422 124.454 118.707 123.41 117.948 123.125Z" fill="black"/>
<path d="M128.484 120.373C128.104 120.087 127.725 119.804 127.345 119.519H127.536C127.725 119.519 128.104 119.519 128.39 119.424C128.579 119.424 128.673 119.328 128.864 119.234C128.958 119.139 129.054 118.949 129.054 118.76C129.054 118.569 128.958 118.475 128.864 118.284C128.769 118.189 128.579 118.095 128.39 118.095H128.295C128.01 118.095 127.725 118.095 127.44 118.189H127.251C127.44 117.906 127.725 117.621 127.914 117.336C128.104 117.145 128.104 116.956 128.104 116.766C127.914 116.197 127.156 116.197 126.871 116.671C126.681 116.862 126.586 117.051 126.397 117.241V116.291C126.397 115.912 126.112 115.723 125.732 115.723C125.353 115.723 125.068 116.006 125.162 116.386C125.162 116.862 125.162 117.336 125.257 117.906C124.877 117.715 124.594 117.43 124.308 117.145C124.023 116.956 123.738 116.577 123.359 116.766C123.075 116.862 122.79 117.241 122.885 117.525C122.979 117.715 123.075 117.906 123.264 118.001C123.644 118.38 124.023 118.664 124.497 118.949C124.403 118.949 124.214 119.043 124.118 119.043C123.929 119.043 123.644 119.139 123.455 119.234C123.359 119.234 123.264 119.234 123.264 119.328C123.17 119.328 123.075 119.328 123.075 119.424C122.979 119.424 122.885 119.519 122.885 119.613C122.885 119.708 122.79 119.708 122.79 119.804C122.79 119.993 122.79 120.184 122.979 120.373H123.075C123.17 120.373 123.264 120.467 123.359 120.467H123.834C124.023 120.467 124.214 120.373 124.308 120.373C124.214 120.467 124.118 120.658 124.023 120.752C123.738 121.132 123.455 121.606 123.738 121.985C123.929 122.461 124.783 122.176 124.877 121.702C125.068 121.417 125.257 121.132 125.542 120.847V122.082C125.542 122.461 125.827 122.65 126.206 122.65C126.586 122.65 126.871 122.365 126.775 121.985C126.775 121.511 126.775 121.037 126.681 120.658C127.251 121.037 127.819 121.417 128.484 121.702C128.958 121.702 129.149 120.658 128.484 120.373Z" fill="black"/>
<path d="M107.509 145.427C107.13 145.142 106.75 144.858 106.371 144.573H106.561C106.75 144.573 107.13 144.573 107.415 144.479C107.604 144.479 107.698 144.382 107.889 144.288C107.984 144.194 108.08 144.003 108.08 143.814C108.08 143.623 107.984 143.529 107.889 143.338C107.795 143.244 107.604 143.149 107.415 143.149H107.32C107.035 143.149 106.75 143.149 106.465 143.244H106.276C106.465 142.959 106.75 142.675 106.939 142.39C107.13 142.199 107.13 142.01 107.13 141.82C106.939 141.251 106.182 141.251 105.897 141.725C105.706 141.916 105.611 142.105 105.422 142.296V141.346C105.422 140.966 105.137 140.777 104.758 140.777C104.378 140.777 104.093 141.061 104.188 141.44C104.188 141.916 104.188 142.39 104.282 142.959C103.902 142.77 103.619 142.484 103.334 142.199C103.049 142.01 102.764 141.631 102.384 141.82C102.101 141.916 101.815 142.296 101.91 142.581C102.004 142.77 102.101 142.959 102.29 143.055C102.669 143.434 103.049 143.718 103.523 144.003C103.428 144.003 103.239 144.097 103.143 144.097C102.954 144.097 102.669 144.194 102.48 144.288C102.384 144.288 102.29 144.288 102.29 144.382C102.195 144.382 102.101 144.382 102.101 144.479C102.004 144.479 101.91 144.573 101.91 144.668C101.91 144.762 101.815 144.762 101.815 144.858C101.815 145.047 101.815 145.238 102.004 145.427H102.101C102.195 145.427 102.29 145.521 102.384 145.521H102.86C103.049 145.521 103.239 145.427 103.334 145.427C103.239 145.617 103.143 145.712 103.049 145.806C102.764 146.186 102.48 146.66 102.764 147.04C102.954 147.515 103.808 147.23 103.902 146.756C104.093 146.471 104.282 146.186 104.567 145.901V147.136C104.567 147.515 104.852 147.704 105.232 147.704C105.611 147.704 105.897 147.419 105.8 147.04C105.8 146.566 105.8 146.092 105.706 145.712C106.276 146.092 106.845 146.471 107.509 146.756C107.889 146.756 108.174 145.617 107.509 145.427Z" fill="black"/>
<path d="M117.948 142.675C117.568 142.389 117.189 142.106 116.809 141.821H117C117.189 141.821 117.568 141.821 117.853 141.726C118.042 141.726 118.137 141.63 118.328 141.536C118.422 141.441 118.518 141.251 118.518 141.062C118.518 140.871 118.422 140.777 118.328 140.588C118.233 140.491 118.042 140.397 117.853 140.397H117.759C117.474 140.397 117.189 140.397 116.904 140.491H116.715C116.904 140.208 117.189 139.923 117.378 139.638C117.568 139.447 117.568 139.258 117.568 139.068C117.378 138.499 116.618 138.499 116.335 138.973C116.144 139.164 116.05 139.353 115.859 139.543V138.593C115.859 138.214 115.576 138.025 115.196 138.025C114.817 138.025 114.532 138.308 114.626 138.688C114.626 139.164 114.626 139.638 114.72 140.208C114.341 140.017 114.057 139.732 113.772 139.447C113.487 139.258 113.202 138.879 112.822 139.068C112.539 139.164 112.254 139.543 112.348 139.828C112.443 140.017 112.539 140.208 112.728 140.303C113.108 140.682 113.487 140.966 113.961 141.251C113.867 141.251 113.678 141.345 113.582 141.345C113.393 141.345 113.108 141.441 112.919 141.536C112.822 141.536 112.728 141.536 112.728 141.63C112.634 141.63 112.539 141.63 112.539 141.726C112.443 141.726 112.348 141.821 112.348 141.915C112.348 142.01 112.254 142.01 112.254 142.106C112.254 142.295 112.254 142.486 112.443 142.675H112.539C112.634 142.675 112.728 142.769 112.822 142.769H113.298C113.487 142.769 113.678 142.675 113.772 142.675C113.678 142.865 113.582 142.96 113.487 143.054C113.202 143.434 112.919 143.908 113.202 144.287C113.393 144.763 114.246 144.478 114.341 144.004C114.532 143.719 114.72 143.434 115.006 143.149V144.384C115.006 144.763 115.291 144.952 115.67 144.952C116.05 144.952 116.335 144.667 116.239 144.287C116.239 143.813 116.239 143.339 116.144 142.96C116.715 143.339 117.283 143.719 117.948 144.004C118.422 144.004 118.707 142.96 117.948 142.675Z" fill="black"/>
<path d="M128.484 139.922C128.104 139.637 127.725 139.352 127.345 139.069H127.536C127.725 139.069 128.104 139.069 128.39 138.973C128.579 138.973 128.673 138.878 128.864 138.784C128.958 138.689 129.054 138.498 129.054 138.31C129.054 138.119 128.958 138.024 128.864 137.834C128.769 137.739 128.579 137.645 128.39 137.645H128.295C128.01 137.645 127.725 137.645 127.44 137.739H127.251C127.44 137.454 127.725 137.171 127.914 136.886C128.104 136.695 128.104 136.506 128.104 136.315C127.914 135.747 127.156 135.747 126.871 136.221C126.681 136.412 126.586 136.6 126.397 136.791V135.841C126.397 135.462 126.112 135.273 125.732 135.273C125.353 135.273 125.068 135.556 125.162 135.936C125.162 136.412 125.162 136.886 125.257 137.454C124.877 137.265 124.594 136.98 124.308 136.695C124.023 136.506 123.738 136.126 123.359 136.315C123.075 136.412 122.79 136.791 122.885 137.075C122.979 137.265 123.075 137.454 123.264 137.55C123.644 137.93 124.023 138.213 124.497 138.498C124.403 138.498 124.214 138.593 124.118 138.593C123.929 138.593 123.644 138.689 123.455 138.784C123.359 138.784 123.264 138.784 123.264 138.878C123.17 138.878 123.075 138.878 123.075 138.973C122.979 138.973 122.885 139.069 122.885 139.163C122.885 139.258 122.79 139.258 122.79 139.352C122.79 139.543 122.79 139.733 122.979 139.922H123.075C123.17 139.922 123.264 140.017 123.359 140.017H123.834C124.023 140.017 124.214 139.922 124.308 139.922C124.214 140.113 124.118 140.208 124.023 140.302C123.738 140.682 123.455 141.156 123.738 141.535C123.929 142.011 124.783 141.726 124.877 141.252C125.068 140.967 125.257 140.682 125.542 140.396V141.631C125.542 142.011 125.827 142.2 126.206 142.2C126.586 142.2 126.871 141.915 126.775 141.535C126.775 141.061 126.775 140.587 126.681 140.208C127.251 140.587 127.819 140.967 128.484 141.252C128.958 141.252 129.149 140.208 128.484 139.922Z" fill="black"/>
<path d="M139.396 137.17C139.017 136.885 138.637 136.602 138.257 136.317H138.448C138.637 136.317 139.017 136.317 139.302 136.222C139.491 136.222 139.585 136.126 139.776 136.032C139.87 135.937 139.966 135.747 139.966 135.558C139.966 135.367 139.87 135.272 139.776 135.082C139.681 134.987 139.491 134.893 139.302 134.893H139.207C138.922 134.893 138.637 134.893 138.352 134.987H138.163C138.352 134.702 138.637 134.419 138.826 134.134C139.017 133.943 139.017 133.754 139.017 133.563C138.826 132.995 138.067 132.995 137.783 133.469C137.593 133.66 137.498 133.849 137.309 134.039V133.089C137.309 132.71 137.024 132.521 136.644 132.521C136.265 132.521 135.98 132.804 136.074 133.184C136.074 133.66 136.074 134.134 136.169 134.702C135.789 134.513 135.506 134.228 135.221 133.943C134.935 133.754 134.65 133.374 134.271 133.563C133.987 133.66 133.702 134.039 133.797 134.323C133.891 134.513 133.987 134.702 134.176 134.798C134.556 135.178 134.935 135.461 135.41 135.747C135.315 135.747 135.126 135.841 135.03 135.841C134.841 135.841 134.556 135.937 134.367 136.032C134.271 136.032 134.176 136.032 134.176 136.126C134.082 136.126 133.987 136.126 133.987 136.222C133.891 136.222 133.797 136.317 133.797 136.411C133.797 136.506 133.702 136.506 133.702 136.602C133.702 136.791 133.702 136.98 133.891 137.17H133.987C134.082 137.17 134.176 137.265 134.271 137.265H134.746C134.935 137.265 135.126 137.17 135.221 137.17C135.126 137.361 135.03 137.456 134.935 137.55C134.65 137.93 134.367 138.404 134.65 138.783C134.841 139.259 135.695 138.974 135.789 138.5C135.98 138.215 136.169 137.93 136.454 137.645V138.783C136.454 139.163 136.739 139.354 137.119 139.354C137.498 139.354 137.783 139.068 137.687 138.689C137.687 138.215 137.687 137.741 137.593 137.361C138.163 137.741 138.731 138.12 139.396 138.404C139.87 138.5 140.155 137.456 139.396 137.17Z" fill="black"/>
<path d="M152.017 133.849C151.638 133.564 151.258 133.279 150.878 132.995H151.069C151.258 132.995 151.638 132.995 151.923 132.901C152.112 132.901 152.206 132.805 152.397 132.71C152.491 132.616 152.587 132.425 152.587 132.236C152.587 132.045 152.491 131.951 152.397 131.76C152.302 131.666 152.112 131.571 151.923 131.571H151.828C151.543 131.571 151.258 131.571 150.973 131.666H150.784C150.973 131.381 151.258 131.097 151.447 130.812C151.638 130.621 151.638 130.432 151.638 130.242C151.447 129.673 150.688 129.673 150.404 130.147C150.214 130.338 150.119 130.527 149.929 130.718V129.768C149.929 129.388 149.645 129.199 149.266 129.199C148.886 129.199 148.601 129.483 148.695 129.862C148.695 130.338 148.695 130.812 148.79 131.381C148.41 131.192 148.127 130.907 147.842 130.621C147.557 130.432 147.271 130.053 146.892 130.242C146.608 130.338 146.323 130.718 146.418 131.001C146.512 131.192 146.608 131.381 146.797 131.477C147.177 131.856 147.557 132.14 148.031 132.425C147.936 132.425 147.747 132.519 147.651 132.519C147.462 132.519 147.177 132.616 146.988 132.71C146.892 132.71 146.797 132.71 146.797 132.805C146.703 132.805 146.608 132.805 146.608 132.901C146.512 132.901 146.418 132.995 146.418 133.09C146.418 133.184 146.323 133.184 146.323 133.279C146.323 133.469 146.323 133.66 146.512 133.849H146.608C146.703 133.849 146.797 133.943 146.892 133.943H147.368C147.557 133.943 147.747 133.849 147.842 133.849C147.747 134.04 147.651 134.134 147.557 134.228C147.271 134.608 146.988 135.082 147.271 135.462C147.462 135.938 148.316 135.652 148.41 135.178C148.601 134.893 148.79 134.608 149.075 134.323V135.462C149.075 135.841 149.36 136.032 149.74 136.032C150.119 136.032 150.404 135.747 150.308 135.367C150.308 134.893 150.308 134.419 150.214 134.04C150.784 134.419 151.353 134.797 152.017 135.082C152.491 135.178 152.682 134.134 152.017 133.849Z" fill="black"/>
<path d="M69.4527 42.9329C69.3582 42.8384 69.4527 42.8384 69.4527 42.9329C69.3582 42.9329 69.3582 42.9329 69.4527 42.9329C69.4527 43.0274 69.3582 42.9329 69.4527 42.9329Z" fill="black"/>
<path d="M189.41 160.326C189.316 158.143 189.221 155.96 189.125 153.779C189.031 151.025 188.842 148.274 188.746 145.522C188.651 142.674 188.462 139.733 188.366 136.886C188.366 136.315 188.366 135.652 188.271 135.082C188.462 135.177 188.557 135.177 188.746 135.273C188.842 135.273 188.936 135.367 189.125 135.367H189.601C189.601 136.126 189.695 136.791 189.695 137.55C189.79 140.396 189.981 143.244 190.075 146.09C190.169 148.844 190.36 151.595 190.455 154.347C190.549 156.34 190.644 158.334 190.74 160.326C190.74 160.515 190.74 160.706 190.549 160.8C190.455 160.895 190.264 160.991 190.075 160.991C189.79 160.895 189.41 160.706 189.41 160.326Z" fill="black"/>
<path d="M260.965 57.6426C263.148 62.3884 260.395 67.7028 258.213 72.0674C255.745 76.054 250.621 78.3316 249.292 82.9813C248.627 84.6887 246.161 82.4111 245.211 81.8425C242.459 80.039 243.789 75.9579 241.7 73.8709C238.758 71.9729 238.758 76.243 237.904 78.0465C236.006 79.1853 237.334 72.3525 236.671 71.2137C236.006 68.8416 232.779 67.7028 230.597 68.8416C228.699 69.7898 224.427 69.5047 227.655 67.0381C229.268 61.4386 224.998 64.5699 221.866 64.2864C218.924 63.6217 218.259 65.2346 217.5 67.8918C217.594 68.3659 217.12 68.7455 216.646 68.651C211.995 68.462 208.484 63.9068 208.104 59.5406C208.864 49.5765 218.07 42.6475 227.655 40.8457C235.056 40.5606 239.802 40.655 244.831 46.5397C247.394 50.145 252.423 49.0062 255.745 50.9042C258.213 52.8022 260.68 54.2262 260.965 57.6426Z" fill="#3C3D56"/>
<path d="M262.864 190.315C250.243 189.271 228.035 186.804 206.492 179.022C205.069 177.598 205.354 174.277 205.069 172.379C206.113 160.327 211.333 170.67 211.616 160.801V160.895C211.807 159.947 212.092 158.903 212.186 157.953V158.049C212.661 155.866 212.946 153.683 213.325 151.5V151.311V151.405C219.684 137.266 212.186 149.318 198.71 153.303C192.257 155.201 186.277 146.376 181.628 141.821C170.999 140.871 179.445 145.426 184.285 149.698C196.908 169.722 156.289 141.345 148.888 136.41C142.718 132.235 153.726 126.541 153.726 126.541C160.18 129.957 172.897 136.79 184 136.221C191.214 135.842 199.28 130.527 208.865 123.22C214.179 119.613 219.399 114.584 226.043 113.825C228.889 111.831 232.59 93.0413 235.722 101.202C241.795 95.9837 251.381 89.4343 252.52 91.0472C254.322 92.1877 255.652 96.3633 257.075 101.107C261.631 103.67 266.375 106.896 269.791 110.977C282.318 123.22 276.53 142.295 276.624 157.764C274.157 170.102 281.844 192.213 262.864 190.315Z" fill="#FFC100"/>
<path d="M211.523 160.799H211.521V160.801H211.523V160.799Z" fill="#FFC540"/>
<path d="M211.617 160.799H211.615V160.801H211.617V160.799Z" fill="#FFC540"/>
<path d="M211.617 160.706H211.615V160.707H211.617V160.706Z" fill="#FFC540"/>
<path d="M210.953 152.163H210.951V152.165H210.953V152.163Z" fill="#FFC540"/>
<path d="M213.326 151.404H213.324V151.405H213.326V151.404Z" fill="#FFC540"/>
<path d="M213.326 151.404H213.324V151.405H213.326V151.404Z" fill="#FFC540"/>
<path d="M210.951 162.224C210.951 162.224 189.978 147.42 182.385 142.674C180.298 141.346 174.983 141.915 174.983 141.915C175.457 142.77 178.02 144.383 180.583 146.755C181.722 147.705 183.524 150.551 183.809 147.514C183.62 149.603 185.992 149.886 186.845 151.405C189.219 149.982 190.641 152.26 192.919 153.493C198.519 156.91 203.644 166.305 210.76 165.546L210.951 162.224Z" fill="#3C3D56"/>
<path d="M219.019 183.769C219.59 187.565 219.21 191.075 219.113 193.07C216.267 195.822 210.098 199.618 206.301 203.508C206.301 203.508 205.827 185.192 208.484 179.878C211.712 181.871 219.019 183.769 219.019 183.769Z" fill="#B4C2E3"/>
<path d="M235.719 107.18C239.041 108.224 235.908 111.355 234.866 112.968C230.785 123.408 227.083 133.372 225.091 144.477C223.098 151.024 222.339 158.427 221.2 164.595C218.352 165.164 211.234 165.544 211.234 165.544C213.988 151.119 217.784 136.314 222.908 122.554C226.229 117.24 226.515 103.573 235.719 107.18Z" fill="#B4C2E3"/>
<path d="M249.101 90.0991C251.664 92.7563 242.837 93.5155 240.939 96.4579C239.232 97.2171 236.195 101.393 235.436 100.348C231.829 88.8658 226.514 108.035 218.069 88.2956C209.907 89.814 217.499 81.1777 217.499 77.5723C217.119 73.5857 216.835 69.6952 218.733 66.0898C219.208 65.5196 219.776 62.9569 220.726 64.3808C223.952 66.1843 231.07 60.2052 226.135 67.9878C225.376 70.9285 232.779 67.3231 235.056 69.6007C237.902 71.7838 235.151 76.2429 237.999 78.426C240.086 68.936 241.984 73.5857 243.693 80.324C249.861 83.5514 248.342 86.2086 249.101 90.0991Z" fill="#955E68"/>
<path d="M187.891 155.107C187.986 155.296 188.082 155.392 188.082 155.486C188.082 155.392 187.986 155.201 187.891 155.107ZM207.442 165.547C204.784 170.67 205.068 173.898 204.879 177.409C199.564 172.094 197.476 172.189 189.03 160.801C187.891 159.282 181.344 146.85 184.475 147.42C185.519 148.843 186.658 151.405 186.943 151.69C189.884 147.609 203.74 164.691 207.442 165.547Z" fill="#955E68"/>
<path d="M128.294 128.155C128.294 128.155 128.294 128.06 128.199 128.06H128.105C128.199 128.06 128.199 128.06 128.294 128.155ZM152.02 125.686C152.399 125.877 152.873 126.162 152.873 126.636C152.683 127.395 152.114 127.869 151.734 128.534C151.07 129.579 150.596 130.717 150.122 131.856C149.742 132.615 149.551 133.563 149.362 134.419C149.266 134.987 148.983 135.652 148.224 135.367C147.938 135.273 147.653 134.987 147.274 134.893C146.42 134.798 145.566 135.178 144.711 135.082C143.763 135.082 142.909 134.702 142.054 134.419C140.915 134.039 139.967 133.375 139.017 132.71C137.499 131.665 135.791 130.812 133.988 130.623C133.323 130.527 132.754 130.432 132.09 130.432C130.856 130.432 129.527 130.338 128.388 129.673C127.629 129.199 126.585 128.44 126.964 127.49C127.249 126.921 128.009 126.921 128.483 127.206C129.053 127.016 129.718 127.016 130.382 127.11C130.951 127.11 131.425 127.206 131.995 127.395C132.09 127.395 132.184 127.49 132.28 127.586C133.419 127.681 134.558 127.681 135.697 127.586C134.558 126.636 133.229 126.162 131.995 125.497C131.045 125.118 130.097 124.833 129.147 124.453C128.388 124.168 127.914 123.505 127.44 122.935C127.155 122.555 126.681 121.796 127.249 121.416C127.82 121.037 128.483 121.701 129.053 121.89C129.812 122.27 130.666 122.746 131.425 123.125C131.995 123.409 132.564 123.599 133.134 123.788C134.178 123.979 135.221 123.979 136.265 123.979C134.082 122.555 131.71 121.701 129.433 120.468C128.864 120.089 128.294 119.613 128.199 118.95C128.105 117.905 128.958 117.431 129.907 117.715C131.425 118.191 132.943 118.57 134.367 119.329C135.601 119.992 136.739 120.942 137.878 121.796C136.739 120.563 135.221 119.613 133.988 118.474C133.419 117.905 132.849 117.241 132.28 116.672C131.805 116.196 130.762 115.437 131.71 114.869C132.184 114.678 132.564 115.154 132.943 115.154C133.419 115.248 133.893 115.343 134.462 115.437C135.032 115.628 135.601 115.817 136.265 115.817C135.98 115.248 135.791 114.298 136.645 114.204C136.836 114.204 137.025 114.298 137.215 114.395C137.689 114.774 138.258 115.058 138.734 115.437C140.821 116.767 142.719 118.191 144.522 119.709C145.091 120.089 145.661 120.657 146.229 121.131C147.748 122.366 149.266 123.599 150.785 124.738C151.26 125.118 151.544 125.403 152.02 125.686Z" fill="#955E68"/>
<path d="M221.201 93.5139H221.199V93.5156H221.201V93.5139Z" fill="black"/>
<path d="M220.918 93.134H220.916V93.1357H220.918V93.134Z" fill="black"/>
<path d="M251.094 90.9531C250.903 90.9531 250.714 90.8586 250.523 90.7641C250.809 90.7641 251.094 90.7641 251.379 90.668C251.568 90.668 251.853 90.5735 252.042 90.5735C251.853 90.8586 251.568 90.9531 251.094 90.9531Z" fill="black"/>
<path d="M205.922 204.076C205.827 204.076 205.637 203.982 205.542 203.886C205.352 203.697 205.352 203.508 205.352 203.317V197.338C205.352 196.39 205.448 195.44 205.448 194.492C205.542 192.594 205.731 190.696 205.922 188.798C206.111 186.994 206.396 185.191 206.681 183.387C206.775 182.534 206.966 181.68 207.061 180.826C207.155 180.067 207.25 179.402 207.44 178.643H207.535C207.631 178.643 207.725 178.738 207.725 178.738H207.82C207.914 178.832 208.105 178.832 208.199 178.928C208.294 178.928 208.294 178.928 208.39 179.023H208.485C208.39 179.591 208.294 180.161 208.199 180.73C208.009 181.68 207.914 182.724 207.82 183.672C207.725 184.432 207.631 185.285 207.44 186.141C207.346 186.9 207.25 187.753 207.155 188.513C206.966 190.22 206.775 191.929 206.681 193.636C206.587 194.586 206.587 195.534 206.49 196.39V202.747C206.49 203.032 206.49 203.317 206.301 203.602C206.301 203.602 206.301 203.697 206.207 203.697C206.207 203.982 206.111 204.076 205.922 204.076Z" fill="black"/>
<path d="M208.961 172.379H208.959V172.381H208.961V172.379Z" fill="black"/>
<path d="M208.863 172.379H208.861V172.381H208.863V172.379Z" fill="black"/>
<path d="M210.762 166.018H210.761V166.02H210.762V166.018Z" fill="black"/>
<path d="M211.143 166.018H211.142V166.02H211.143V166.018Z" fill="black"/>
<path d="M205.825 203.885C205.54 203.696 205.636 203.316 206.014 203.22C206.395 203.031 206.869 202.841 207.249 202.557C208.956 201.228 210.76 199.804 212.372 198.38C213.987 196.958 215.409 195.628 217.024 194.3C217.403 194.015 217.687 193.73 217.972 193.445C218.352 193.065 218.731 192.686 219.205 193.065C219.681 193.541 219.205 194.015 218.826 194.3C218.352 194.774 217.783 195.154 217.307 195.628C216.548 196.293 215.789 196.958 215.03 197.526C213.417 199.045 211.709 200.468 210 201.798C208.956 202.461 206.869 204.455 205.825 203.885Z" fill="black"/>
<path d="M218.353 193.353C218.353 191.265 218.447 189.178 218.638 187.089C218.638 185.476 218.827 183.958 218.923 182.439H220.251C220.062 183.958 219.965 185.476 219.965 186.995C219.776 188.987 219.682 191.076 219.776 193.068C219.776 193.448 219.397 193.733 219.112 193.733C218.638 193.922 218.353 193.733 218.353 193.353Z" fill="black"/>
<path d="M219.97 182.627H219.969V182.629H219.97V182.627Z" fill="black"/>
<path d="M219.018 182.437H219.017V182.439H219.018V182.437Z" fill="black"/>
<path d="M219.871 173.993H220.06C219.966 174.088 219.966 173.993 219.871 173.993Z" fill="black"/>
<path d="M221.582 165.735H221.58V165.736H221.582V165.735Z" fill="black"/>
<path d="M221.678 165.735H221.677V165.736H221.678V165.735Z" fill="black"/>
<path d="M221.963 165.544H221.961V165.546H221.963V165.544Z" fill="black"/>
<path d="M221.963 165.544H221.961V165.546H221.963V165.544Z" fill="black"/>
<path d="M137.688 121.702C136.075 120.848 134.745 119.518 133.321 118.474C132.753 118 132.182 117.526 131.708 116.861C131.14 116.293 130.475 115.628 130.57 114.774C130.664 114.299 131.14 114.11 131.519 114.11C132.088 114.11 132.562 114.299 133.038 114.489C133.512 114.774 136.358 115.343 136.169 115.913C136.169 116.008 136.075 116.008 135.978 116.008C135.884 116.008 135.79 116.008 135.79 115.913C135.125 115.817 134.556 115.722 133.892 115.628C133.132 115.534 132.468 115.248 131.708 115.248C132.847 116.767 134.46 117.906 135.884 119.044C136.643 119.709 137.499 120.089 138.162 120.848C138.636 121.228 138.258 121.891 137.688 121.702Z" fill="black"/>
<path d="M136.169 123.504C135.504 123.314 134.745 122.934 134.081 122.745C132.658 122.175 131.14 121.701 129.81 120.847C128.766 120.088 127.153 118.759 127.818 117.24C128.292 116.577 129.146 116.481 129.905 116.672C131.519 116.957 132.847 117.81 134.177 118.57C135.504 119.329 136.928 120.088 138.162 121.036C138.258 121.227 137.973 121.416 137.878 121.227C137.023 120.753 136.075 120.468 135.221 120.088C133.892 119.518 132.658 118.949 131.423 118.285C130.76 117.999 130.096 117.905 129.431 117.716C129.242 117.716 128.957 117.716 128.766 117.81C128.766 119.614 132.088 120.942 133.417 121.512C134.46 121.892 135.504 122.271 136.454 122.745C136.739 123.125 136.549 123.599 136.169 123.504Z" fill="black"/>
<path d="M134.651 127.585C133.797 127.3 132.847 126.826 132.088 126.447C130.475 125.782 128.766 125.023 127.344 123.884C125.635 122.46 126.299 120.658 128.577 121.321C130.001 121.797 131.423 122.365 132.941 122.839C133.891 123.125 134.936 123.599 135.884 123.599C135.884 123.41 135.695 123.219 135.504 123.125C135.41 123.125 135.315 123.03 135.41 122.936C135.504 122.839 135.599 122.936 135.695 122.936C136.454 123.125 137.119 123.978 136.169 124.454C135.315 124.737 134.365 124.454 133.606 124.169C132.941 123.978 132.182 123.695 131.519 123.504C130.76 123.219 130.095 123.03 129.336 122.745C128.766 122.556 128.197 122.271 127.533 122.365C128.197 124.169 132.278 125.402 133.986 126.161C134.365 126.352 134.745 126.447 135.125 126.635C135.504 127.015 135.221 127.776 134.651 127.585Z" fill="black"/>
<path d="M194.532 154.634C194.341 154.445 194.341 154.349 194.532 154.254L194.911 154.634C194.911 154.634 195.006 154.728 195.102 154.728H194.911C194.721 154.634 194.626 154.634 194.532 154.634Z" fill="black"/>
<path d="M198.047 153.873C198.047 153.873 197.952 153.778 197.856 153.778C197.856 153.778 197.761 153.778 197.761 153.682C197.572 153.588 197.476 153.493 197.382 153.399C197.287 153.303 197.193 153.303 197.097 153.208C197.761 153.019 198.332 152.734 198.995 152.543C201.937 151.501 204.69 149.886 207.537 148.368C209.34 147.325 211.238 146.566 212.851 145.331C213.421 144.951 214.084 144.572 214.654 144.003C215.223 143.529 215.982 144.288 215.508 144.857C213.61 146.755 211.047 147.799 208.675 149.127C205.544 150.836 202.317 152.64 198.9 153.682C198.711 153.682 198.426 153.778 198.047 153.873C198.141 153.873 198.141 153.873 198.047 153.873Z" fill="black"/>
<path d="M196.528 153.4C196.528 153.4 196.623 153.4 196.623 153.494C196.528 153.494 196.528 153.4 196.528 153.4Z" fill="black"/>
<path d="M220.918 93.134H220.916V93.1357H220.918V93.134Z" fill="black"/>
<path d="M220.918 93.134H220.916V93.1357H220.918V93.134Z" fill="black"/>
<path d="M250.338 91.9006H250.336V91.9023H250.338V91.9006Z" fill="black"/>
<path d="M148.887 136.411C148.318 136.032 149.078 134.323 149.078 133.66C149.646 131.002 151.07 128.725 152.683 126.542C152.968 126.162 153.253 125.688 153.822 125.782C154.012 125.782 154.201 125.971 154.296 126.162C154.487 126.636 154.107 126.921 153.822 127.206C153.442 127.586 153.157 128.06 152.874 128.534C151.544 130.338 150.5 132.236 149.931 134.419C149.741 134.987 149.552 135.558 149.361 136.126C149.361 136.317 149.172 136.6 148.887 136.411Z" fill="black"/>
<path d="M210.382 162.224H210.38V162.226H210.382V162.224Z" fill="black"/>
<path d="M226.799 70.644C226.04 70.3589 225.28 70.1699 224.427 70.1699C222.908 70.1699 221.294 70.1699 220.06 71.0236C219.871 71.1181 219.681 71.2142 219.586 71.4032C219.396 71.6883 219.492 72.1624 219.871 72.353C220.346 72.542 220.631 72.0679 221.105 71.8773C222.812 71.3087 224.806 71.2142 226.514 71.8773C226.893 71.9734 227.178 71.6883 227.273 71.3087C227.369 71.0236 227.178 70.7385 226.799 70.644Z" fill="black"/>
<path d="M221.863 76.0534C221.104 76.2424 220.25 76.6237 219.68 77.2867C219.491 77.4774 219.3 77.9514 219.68 78.0459C220.059 78.1421 220.439 77.857 220.724 77.7625C221.389 77.4774 222.052 77.1922 222.717 77.0978C223.192 77.0033 223.666 77.0033 224.141 77.0978C224.426 77.1922 224.709 77.1922 224.9 77.0978C225.185 76.9071 225.279 76.433 224.994 76.1479C224.235 75.4849 222.811 75.7683 221.863 76.0534Z" fill="black"/>
<path d="M205.161 28.1282C205.161 28.1282 205.161 28.2227 205.256 28.2227L205.161 28.1282Z" fill="black"/>
<path d="M202.696 40.9394C202.507 40.0865 201.937 39.6113 200.798 39.6105C198.71 39.61 198.52 42.8379 200.419 43.3112C200.134 45.6855 203.551 44.6413 202.317 42.7429C202.696 42.2698 202.885 41.6049 202.696 40.9394Z" fill="black"/>
<path d="M207.724 37.6184C207.25 35.9093 206.396 33.0632 204.213 33.4428C201.365 33.6317 198.519 34.9612 195.766 35.9093C194.912 32.4929 193.299 29.1727 193.205 25.5657C193.488 22.9085 196.525 20.7253 199.182 21.3901C200.891 21.9603 201.65 23.7621 202.315 25.3767C202.695 25.9453 202.504 27.4637 203.548 27.2747C203.928 27.1785 204.117 26.7989 204.022 26.5155C202.978 19.3031 195.007 17.5941 192.255 24.5213C191.875 25.7563 192.255 27.0841 192.634 28.2229C193.205 30.9745 193.868 33.7279 194.723 36.3851C191.875 37.7129 191.97 39.2313 192.825 42.7438C193.679 44.8308 193.584 49.6711 196.145 50.2397C198.614 50.6193 200.891 49.0064 203.074 48.1527C209.433 45.4955 210.287 44.3567 207.724 37.6184ZM204.213 46.1602C202.41 47.0139 196.336 51.1895 195.292 47.6786C194.627 45.2104 192.255 40.0866 193.868 38.5665C195.766 36.6685 199.562 35.8149 202.219 35.1501C204.117 34.6761 205.256 34.3909 206.015 36.7647C206.68 38.6627 207.25 40.1811 207.63 41.8885C208.389 44.6418 206.3 45.3049 204.213 46.1602Z" fill="black"/>
<path d="M191.305 31.9246C191.211 31.8301 191.116 31.7339 191.02 31.545C190.831 30.8802 190.641 30.2155 190.641 29.5525C190.452 28.4137 190.072 27.2749 190.546 26.1361C190.641 25.851 191.02 25.7565 191.116 26.0399C191.211 26.325 191.116 26.7046 191.211 26.9898C191.305 27.6545 191.494 28.3175 191.685 28.8878C191.874 29.647 191.97 30.4062 192.254 31.1654C192.254 31.7339 191.685 32.2097 191.305 31.9246Z" fill="black"/>
<path d="M195.767 54.3215C193.489 54.1308 191.78 52.518 191.306 50.3348C191.117 49.3867 190.927 48.3424 191.212 47.3942C191.306 47.2036 191.497 47.2036 191.591 47.3942C191.78 47.7738 191.78 48.2479 191.876 48.6275C192.065 49.196 192.16 49.7663 192.35 50.2404C192.73 51.2847 193.395 52.2328 194.437 52.7086C194.913 52.992 195.482 52.992 196.052 53.1827C196.715 53.2772 196.526 54.3215 195.767 54.3215Z" fill="black"/>
<path d="M191.969 55.365C191.589 55.2706 191.21 54.9854 190.83 54.7003C190.26 54.3207 189.786 53.7522 189.501 53.0874C189.312 52.5172 189.027 51.9486 189.123 51.3784C189.217 51.095 189.597 50.9988 189.786 51.2839C190.071 51.8542 190.26 52.4227 190.545 52.8968C190.925 53.467 191.589 53.8466 192.158 54.1318C193.013 54.5114 192.634 55.554 191.969 55.365Z" fill="black"/>
<path d="M211.996 112.306C211.425 112.117 210.857 111.832 210.192 111.641C209.624 111.452 208.959 111.167 208.389 110.882C207.061 110.219 206.017 109.269 205.068 108.225C204.593 107.656 204.213 107.086 203.833 106.518C203.454 105.853 203.265 105.188 203.074 104.523C202.885 103.86 202.791 103.101 202.885 102.342C202.885 101.962 202.98 101.677 202.98 101.392C202.98 101.203 203.074 101.107 203.074 101.013C203.17 100.727 203.17 100.538 203.265 100.253V100.159C203.074 100.064 202.791 99.9682 202.6 99.8737C202.411 99.7792 202.126 99.6848 201.935 99.5886C201.841 99.4941 201.652 99.4941 201.556 99.3996C201.461 99.3052 201.367 99.3052 201.176 99.209C200.987 99.1145 200.987 99.1145 200.797 99.02C200.702 98.9256 200.608 98.9256 200.513 98.8294C200.323 98.6404 200.037 98.546 199.848 98.4498C199.658 98.2608 199.374 98.0702 199.184 97.9757C198.995 97.7868 198.804 97.6906 198.615 97.5016C198.33 97.311 198.139 97.122 197.95 96.9314C197.76 96.7424 197.476 96.5518 197.286 96.2684C197.191 96.1722 197.097 96.0777 197.001 95.8888C196.906 95.7926 196.812 95.6036 196.717 95.6036C196.527 95.413 196.338 95.1296 196.147 94.9389C195.958 94.75 195.862 94.5593 195.673 94.2742C195.388 93.8946 195.103 93.4205 194.914 93.0409C194.343 92.1872 193.869 91.2374 193.49 90.3837C193.11 89.4356 192.731 88.4857 192.351 87.4414C192.162 86.9673 192.066 86.4932 191.971 86.0192C191.877 85.5434 191.686 85.0693 191.592 84.5952C191.592 84.3101 191.497 84.1195 191.497 83.836C191.497 83.5509 191.403 83.2658 191.403 83.0768C191.403 82.6011 191.307 82.127 191.307 81.6529V78.142C191.307 77.9514 191.307 77.7624 191.592 77.6663H191.686C191.782 77.6663 191.877 77.7624 191.971 77.8569C192.066 78.0459 192.066 78.2365 192.066 78.331V80.04C192.066 80.7992 192.066 81.5584 192.162 82.3176C192.162 82.6011 192.256 82.9807 192.256 83.2658C192.256 83.5509 192.351 83.836 192.351 84.025C192.445 84.5952 192.636 85.0693 192.731 85.6395C192.825 86.1136 193.016 86.5877 193.11 87.0618C193.11 87.158 193.205 87.3469 193.205 87.3469C193.395 87.9172 193.68 88.4857 193.869 89.056C194.06 89.6245 194.343 90.1948 194.629 90.6688C194.819 91.1429 195.103 91.617 195.388 91.9966C195.578 92.1872 195.673 92.4724 195.767 92.7558C195.958 92.9464 196.052 93.2316 196.241 93.4205C196.432 93.6112 196.527 93.8946 196.717 94.0852C196.812 94.1797 196.906 94.2742 197.001 94.4648C197.097 94.5593 197.191 94.75 197.286 94.8444C197.476 95.0334 197.665 95.224 197.856 95.413C197.95 95.5092 198.045 95.6036 198.139 95.6981C198.236 95.7926 198.33 95.8888 198.425 95.9832C198.615 96.1722 198.804 96.2684 198.995 96.4573C199.089 96.5518 199.278 96.648 199.374 96.8369C199.563 96.9314 199.658 97.0276 199.754 97.122C199.943 97.2165 200.134 97.4072 200.323 97.5016C200.513 97.5961 200.702 97.7868 200.987 97.8812C201.082 97.9757 201.176 97.9757 201.272 98.0702C201.367 98.1664 201.461 98.1664 201.652 98.2608C201.841 98.3553 202.032 98.4498 202.221 98.546C202.411 98.6404 202.6 98.7349 202.885 98.8294C203.074 98.9256 203.359 99.02 203.55 99.1145C203.55 99.02 203.55 99.02 203.644 98.9256C203.833 98.4498 204.119 97.9757 204.498 97.5961C204.878 97.122 205.448 96.648 206.017 96.3628C206.587 96.0777 207.346 95.8888 208.011 96.0777C208.674 96.2684 209.244 96.5518 209.718 97.0276C209.909 97.2165 210.098 97.5016 210.288 97.6906C210.477 97.9757 210.477 98.3553 210.572 98.6404C210.572 98.9256 210.572 99.209 210.477 99.4941C210.383 99.7792 210.287 99.9682 210.098 100.253C209.813 100.633 209.338 100.824 208.959 101.013C208.674 101.203 208.294 101.203 208.009 101.203H207.346C207.061 101.203 206.87 101.107 206.587 101.107C206.111 101.013 205.542 100.918 205.068 100.727C204.878 100.727 204.689 100.633 204.498 100.538C204.404 100.727 204.404 100.918 204.309 101.107C204.309 101.203 204.309 101.298 204.213 101.392C204.213 101.487 204.213 101.583 204.119 101.677C204.119 101.962 204.024 102.246 204.024 102.531V103.196C204.024 103.385 204.024 103.67 204.119 103.86C204.213 104.144 204.309 104.429 204.309 104.714C204.404 104.999 204.593 105.379 204.689 105.662C204.878 106.042 205.068 106.327 205.257 106.612C205.448 106.897 205.731 107.277 206.017 107.56C206.302 107.845 206.587 108.13 206.87 108.416C207.25 108.699 207.535 108.984 207.915 109.175C208.2 109.364 208.485 109.554 208.768 109.649C209.338 109.934 210.003 110.219 210.572 110.408C211.142 110.597 211.711 110.882 212.375 111.073C212.66 111.167 212.849 111.641 212.755 111.926C212.66 112.117 212.566 112.212 212.375 112.306H211.996ZM208.2 99.8737H208.579C208.579 99.8737 208.674 99.8737 208.768 99.7792C208.864 99.6848 208.959 99.6848 209.148 99.5886C209.244 99.5886 209.244 99.4941 209.338 99.3996C209.433 99.3052 209.433 99.3052 209.527 99.209C209.527 99.209 209.527 99.1145 209.624 99.1145V98.1664C209.624 98.1664 209.624 98.0702 209.527 97.9757C209.527 97.9757 209.527 97.8812 209.433 97.8812L209.148 97.5961C209.053 97.5016 208.959 97.5016 208.959 97.4072C208.864 97.311 208.768 97.311 208.674 97.2165C208.579 97.2165 208.485 97.122 208.294 97.0276H207.346C207.25 97.0276 207.155 97.122 207.061 97.122C206.966 97.2165 206.776 97.311 206.681 97.311C206.491 97.4072 206.396 97.5016 206.302 97.5961C206.207 97.6906 206.017 97.7868 205.922 97.9757C205.828 98.1664 205.731 98.2608 205.542 98.4498C205.352 98.6404 205.257 98.9256 205.163 99.209C205.257 99.209 205.352 99.3052 205.542 99.3052C205.828 99.3996 206.111 99.4941 206.491 99.4941C206.966 99.5886 207.44 99.6848 207.915 99.6848C207.915 99.8737 208.009 99.8737 208.2 99.8737Z" fill="black"/>
<path d="M212.944 110.977C212.944 110.883 212.944 110.883 212.944 110.977C213.039 110.883 213.039 110.977 213.039 110.977C213.039 110.977 213.039 111.072 212.944 110.977Z" fill="black"/>
<path d="M183.241 148.462H183.239V148.463H183.241V148.462Z" fill="black"/>
<path d="M190.547 164.122C195.197 169.057 199.563 174.846 205.446 178.358C207.155 180.825 215.886 182.628 219.017 183.673C230.596 186.139 242.364 188.796 254.226 190.411C260.396 190.885 268.747 192.118 273.967 188.133C277.287 183.482 276.624 177.219 276.907 171.714C276.813 157.669 278.996 143.529 278.426 129.482C277.667 112.306 268.273 109.458 256.789 99.8737C255.84 96.8369 255.555 92.9464 253.087 90.6688C252.707 89.9096 251.095 90.2892 250.43 90.5726C249.956 89.1504 249.671 87.7265 249.197 86.3026C248.817 78.9012 260.775 74.4405 262.388 64.5709C263.812 57.0733 259.636 49.7665 251.854 48.6277C241.605 47.1093 245.591 38.5674 230.311 39.7062C222.245 40.1803 214.273 44.7355 209.813 51.5683C206.585 56.5031 206.206 63.4321 211.616 66.8485C213.135 67.8928 215.033 69.2205 216.931 68.7465C216.551 71.1185 216.645 73.4906 217.119 75.7682C217.119 79.2808 214.462 82.127 213.798 85.5434C213.135 88.295 214.747 89.9096 217.499 88.8653C219.588 92.5668 221.391 98.4498 226.609 98.3553C228.698 98.0702 230.691 97.5016 232.683 96.5518C232.683 96.5518 232.683 96.6479 232.779 96.6479C232.874 96.9314 233.063 97.2165 233.159 97.5016C233.442 98.0702 233.727 98.5459 234.107 99.02C233.633 99.02 233.253 99.7792 232.874 100.064C230.976 102.057 229.172 104.808 228.983 107.656C227.654 109.079 226.515 110.788 226.041 112.686C219.682 115.152 213.798 118.665 208.294 122.65C202.315 126.825 196.241 131.38 189.503 134.323C187.416 135.367 186.751 135.462 185.139 135.747C178.685 136.886 172.421 133.754 166.348 131.666C155.624 128.629 147.747 120.752 138.826 114.489C138.066 114.013 136.074 112.4 135.315 113.254C134.65 114.013 135.22 115.058 135.694 115.817C137.118 118.38 139.776 119.804 141.959 121.607C142.242 121.796 142.527 121.702 142.718 121.511C143.192 120.657 141.199 119.804 140.724 119.139C139.111 117.715 137.307 116.576 136.454 114.489C143.001 118.38 148.412 123.885 154.865 127.964C162.361 131.666 177.736 138.689 185.802 136.695C200.891 132.33 211.616 119.613 226.135 113.73V113.919C223.004 120.657 220.441 127.584 218.258 134.608C215.127 143.244 212.944 152.164 211.14 161.18C201.65 155.012 192.54 148.464 182.955 142.485C181.152 140.776 177.641 140.967 175.269 141.061C172.042 141.631 178.21 145.048 178.874 146.09C180.393 147.325 181.911 148.653 183.62 149.603C184.379 152.164 185.518 154.632 186.087 155.96C179.065 157.004 168.057 148.464 162.172 144.668C158.661 142.58 149.645 134.228 146.229 134.513C141.768 135.462 138.541 130.906 134.27 130.338C131.993 129.958 127.723 130.621 127.343 127.584C128.482 126.162 138.446 130.338 134.745 126.542C134.27 126.351 135.124 127.205 135.03 127.49C133.226 126.825 131.424 126.162 129.43 126.257C126.393 126.162 125.54 128.155 128.102 129.958C130.286 131.38 133.132 131.001 135.6 131.856C139.301 133.184 141.862 136.506 146.038 135.747C146.418 135.652 146.988 135.556 147.462 135.841C156.952 141.061 175.838 159.093 186.657 157.099C187.605 159.093 188.649 160.991 189.788 162.889M250.335 91.9021C252.707 90.8578 252.993 91.9021 253.752 93.8946C254.511 95.7926 254.891 97.8812 255.555 99.8737C253.563 101.392 251.285 102.436 249.387 104.144C247.11 105.853 245.021 108.51 241.89 108.795C238.568 108.795 235.911 106.138 232.683 105.473C233.348 104.523 234.107 103.67 234.866 102.91C238.947 98.0702 244.167 93.8946 250.335 91.9021ZM221.012 93.326C222.625 93.2315 224.048 92.5668 225.376 91.5225C225.946 91.1429 227.844 88.9598 226.135 89.2449C224.617 90.7633 222.719 91.8076 220.536 92.1872C219.777 90.9522 219.303 89.3394 218.354 88.2006C219.114 87.7265 219.682 86.8728 220.632 87.0618C221.201 87.3469 222.15 87.1562 221.865 86.397C220.252 84.7842 218.258 86.6822 217.119 87.9154C215.696 88.5802 214.368 88.2006 214.653 86.397C214.936 82.7917 217.879 79.7549 217.879 76.1478C217.499 73.4906 217.31 70.7389 218.069 68.1762C218.449 66.754 219.017 65.4245 219.873 64.1913C221.771 65.8041 224.143 64.5709 226.23 64.1913C230.311 65.0449 220.347 69.6001 229.552 70.2649C230.311 70.2649 230.881 69.8853 231.64 69.6001C234.201 68.652 236.575 71.3092 236.005 73.8702C235.911 75.3886 235.816 77.0032 236.575 78.3309C237.238 79.4697 238.568 79.2808 238.947 78.0458C239.707 75.3886 239.327 71.5926 242.175 76.0533C242.554 77.0032 242.743 80.7992 242.934 81.6529C242.838 87.9154 239.895 90.4782 235.151 93.9907C230.311 96.9314 224.428 99.8737 221.012 93.326ZM233.442 96.2683C237.238 94.2742 240.56 91.2374 242.838 87.7265C244.167 85.1638 244.641 81.8418 243.788 79.0901C243.597 77.7624 243.977 76.3385 243.217 75.1052C242.458 73.5868 240.181 71.4037 238.758 73.4906C238.094 74.7256 238.283 76.3385 237.809 77.6662C236.385 74.9145 238.758 72.1629 236.005 69.6001C234.201 67.7021 232.209 67.9873 229.931 68.9354C228.887 69.1261 227.559 69.0316 226.706 68.3669C227.465 67.0374 229.363 65.7097 228.319 64.0951C226.895 61.9137 224.523 63.7155 222.625 63.9061C221.58 63.621 220.156 62.4822 219.397 63.8117C218.258 64.9505 217.594 66.4689 217.31 68.0817C213.418 68.4613 208.768 63.4321 208.674 59.6361C209.622 47.3927 223.478 40.2748 234.772 41.1301C240.656 41.4153 242.458 44.7355 246.254 48.1519C248.628 49.7665 251.569 49.7665 254.226 50.7146C261.059 52.8977 262.957 61.4379 260.299 67.417C257.833 73.8702 250.809 77.1921 248.343 83.5509C248.152 83.2658 247.773 80.9882 247.489 81.7474C247.489 84.8786 248.628 88.0116 249.387 91.0484C244.547 93.4205 239.801 96.3628 236.005 100.253L235.816 100.064C235.057 98.7349 234.298 97.5016 233.442 96.2683ZM234.107 99.209C234.107 99.1145 234.107 99.1145 234.107 99.209C234.201 99.3996 234.298 99.4941 234.392 99.5886C234.581 99.9682 234.866 100.348 235.151 100.633C235.246 100.727 232.589 104.24 231.45 106.232C230.881 106.421 230.217 106.706 229.646 107.086C230.596 104.24 232.589 101.677 234.107 99.209ZM226.989 113.254C227.748 110.597 229.552 107.94 232.115 106.706C233.822 107.086 235.34 107.94 236.955 108.604C235.72 111.736 232.209 116.672 228.413 114.963C227.748 114.489 226.706 114.11 226.989 113.254ZM211.996 162.698C215.221 146.281 220.347 130.338 226.609 114.869C228.793 116.482 231.829 116.482 233.918 114.584C227.654 130.527 223.289 147.42 221.012 164.407C217.879 164.407 214.747 164.596 211.616 164.976C211.711 164.122 211.805 163.552 211.996 162.698ZM183.241 148.464C180.678 146.376 178.306 144.003 175.552 142.105C177.547 142.294 181.057 142.011 182.576 143.054C185.042 144.952 187.605 146.661 190.168 148.368C196.906 152.923 203.645 157.478 210.287 162.13C210.477 162.224 210.572 162.319 210.761 162.413C210.572 163.269 210.477 164.028 210.287 164.881C209.622 164.881 207.629 164.881 207.535 165.07C202.41 163.172 191.496 148.368 187.131 150.836C186.372 149.697 185.518 146.376 183.62 147.229C183.241 147.42 183.241 147.894 183.241 148.464ZM204.878 176.934C202.506 175.225 200.512 173.044 198.425 170.955C195.673 167.918 192.731 164.976 190.262 161.75C187.701 157.384 185.139 152.829 184.094 147.894C184.568 147.705 185.898 150.362 186.657 151.216C185.613 153.682 188.459 155.391 189.977 156.91C191.118 157.858 198.33 165.452 194.058 159.947C192.066 157.478 189.314 155.771 187.416 153.208C186.846 152.07 187.226 151.025 188.555 151.501C195.388 155.106 199.849 162.319 206.776 165.735C204.687 168.963 203.833 173.233 204.878 176.934ZM277.287 135.273C277.098 147.609 275.674 159.852 275.674 172.188C275.294 177.029 276.433 186.804 270.739 188.607C256.694 192.403 233.918 184.906 219.208 182.438H219.017C215.507 181.584 211.996 180.445 208.579 179.212C208.2 179.212 207.82 178.927 207.441 178.832C207.344 178.832 207.25 178.832 207.25 178.738C204.308 176.269 205.543 168.109 207.82 166.305C208.009 166.211 214.368 165.926 215.601 165.831C217.594 165.831 219.588 165.641 221.58 165.641C222.339 165.641 223.004 165.641 223.763 165.546C232.968 165.831 242.364 166.97 251.474 165.546C253.372 165.167 252.233 160.8 252.139 159.756C250.62 152.544 249.861 145.237 249.387 137.93C249.008 132.899 248.437 127.87 248.817 122.935C248.817 122.366 249.197 119.233 248.532 120.183C247.013 126.162 247.773 132.33 248.248 138.404C248.532 146.85 250.241 155.106 251.38 163.458C251.474 163.933 251.095 164.313 250.62 164.407C241.225 165.735 231.64 164.313 222.15 164.313C224.237 146.946 229.363 130.053 234.961 113.445C236.29 112.212 237.334 110.693 237.618 108.89C242.364 112.212 247.013 107.94 250.43 104.808C252.139 103.29 254.322 102.246 256.124 100.824C259.351 104.144 263.242 106.518 266.849 109.269C275.58 115.343 277.763 125.307 277.287 135.273Z" fill="black"/>
<path d="M204.88 176.934H204.878V176.936H204.88V176.934Z" fill="black"/>
<path d="M57.9714 103.194H57.9697V103.196H57.9714V103.194Z" fill="black"/>
<path d="M49.9988 78.3296H49.9971V78.3313H49.9988V78.3296Z" fill="black"/>
<path d="M49.9988 78.3296H49.9971V78.3313H49.9988V78.3296Z" fill="black"/>
<path d="M49.905 78.3296H49.9033V78.3313H49.905V78.3296Z" fill="black"/>
<path d="M49.9988 78.3296H49.9971V78.3313H49.9988V78.3296Z" fill="black"/>
<path d="M49.9988 78.3296H49.9971V78.3313H49.9988V78.3296Z" fill="black"/>
<path d="M49.9988 78.3296H49.9971V78.3313H49.9988V78.3296Z" fill="black"/>
<path d="M49.9988 78.3296H49.9971V78.3313H49.9988V78.3296Z" fill="black"/>
<path d="M51.8972 104.997H51.8955V104.999H51.8972V104.997Z" fill="black"/>
<path d="M51.8972 104.997H51.8955V104.999H51.8972V104.997Z" fill="black"/>
<path d="M51.8044 104.902H51.8027V104.904H51.8044V104.902Z" fill="black"/>
<path d="M51.7068 104.807H51.7051V104.809H51.7068V104.807Z" fill="black"/>
<path d="M51.7068 104.807H51.7051V104.809H51.7068V104.807Z" fill="black"/>
<path d="M55.4079 104.522H55.4062V104.524H55.4079V104.522Z" fill="black"/>
<path d="M55.3152 105.376H55.3135V105.378H55.3152V105.376Z" fill="black"/>
<path d="M55.3152 105.376H55.3135V105.378H55.3152V105.376Z" fill="black"/>
<path d="M55.3152 104.902H55.3135V104.904H55.3152V104.902Z" fill="black"/>
<path d="M55.3152 104.902H55.3135V104.904H55.3152V104.902Z" fill="black"/>
<path d="M55.3152 104.902H55.3135V104.904H55.3152V104.902Z" fill="black"/>
<path d="M55.3152 104.712H55.3135V104.714H55.3152V104.712Z" fill="black"/>
<path d="M55.3152 104.522H55.3135V104.524H55.3152V104.522Z" fill="black"/>
<path d="M55.3152 104.522H55.3135V104.524H55.3152V104.522Z" fill="black"/>
<path d="M55.3152 105.376H55.3135V105.378H55.3152V105.376Z" fill="black"/>
<path d="M55.3152 104.902H55.3135V104.904H55.3152V104.902Z" fill="black"/>
<path d="M89.7622 114.774C89.8567 115.153 89.4771 115.533 89.0975 115.438C87.7697 114.964 82.6443 113.635 82.1702 113.444C80.1777 117.811 73.1543 123.695 71.921 124.454C63.1902 130.811 52.5614 132.709 42.0271 130.811C37.7553 130.052 27.6023 127.112 20.4844 117.716C15.9292 111.737 13.0813 104.334 12.5128 96.7419C11.4684 85.5445 15.17 72.6381 27.8857 63.7167C32.4409 60.3003 39.9384 57.2635 43.1659 56.8839C73.1543 53.2768 84.2572 74.5361 86.8199 87.537C89.003 93.6106 86.9144 102.152 84.8274 108.13C84.8274 108.13 89.003 113.066 89.7622 114.774Z" fill="#B4C2E3"/>
<path d="M57.3057 66.8481C57.8742 66.8481 57.6853 67.5128 57.2112 67.6073C56.3575 68.7461 54.6485 67.4166 53.8893 68.6516C51.3266 75.1993 46.1066 73.1123 46.0122 66.8481C45.4436 66.1834 46.3918 65.2352 46.8658 66.0889C48.6694 66.563 50.2822 64.0964 52.0858 64.0002C54.0782 64.0964 54.8374 66.6591 57.3057 66.8481Z" fill="#FFC100"/>
<path d="M66.2248 111.547C64.6119 102.625 59.2975 78.7105 58.2532 77.0031C57.683 76.0533 56.0701 76.6235 54.3627 76.907C53.3184 77.0976 53.7925 80.1344 54.1721 83.2657C54.2666 84.1194 52.9388 83.9304 52.9388 83.9304C51.8 83.6453 51.2298 79.2807 51.2298 77.7623C51.2298 77.7623 51.6094 76.8125 45.9154 78.7105L46.6746 84.6896L43.5433 84.7841C42.9747 83.8359 42.2155 81.4622 41.9304 79.9438L37.1846 80.8936C37.5642 89.7189 38.4178 109.554 39.1787 118.38C39.1787 118.38 41.9304 120.752 47.4338 121.131C54.4572 121.322 63.8527 118.191 66.2248 111.547Z" fill="white"/>
<path d="M89.4793 114.014C88.1499 111.831 86.537 109.933 85.4927 107.656C86.537 105.283 87.4869 101.202 87.2017 102.247C93.1809 76.6228 70.7845 52.3284 44.781 56.0299C15.076 59.9204 1.22147 95.6028 20.5811 118.475C36.9984 138.403 69.2661 136.031 82.5521 113.92C84.0705 113.729 92.5161 118.381 89.4793 114.014ZM87.1073 114.299C85.7778 114.014 82.6465 112.116 81.7929 113.444C68.7903 134.987 37.4724 137.455 21.3403 118.001C3.21395 96.6471 14.6964 63.1462 42.1238 57.4522C66.7978 51.9488 90.0496 73.1119 87.0111 98.1656C85.5889 111.452 81.3171 103.765 88.9108 114.868C88.3405 114.679 87.6758 114.488 87.1073 114.299Z" fill="black"/>
<path d="M66.8891 111.831C66.7946 111.546 66.7946 111.263 66.6984 110.978C66.415 109.648 66.1299 108.321 65.7503 106.991C65.4652 105.567 65.0856 104.239 64.8004 102.816C64.517 101.392 64.1374 100.064 63.8523 98.6399C63.5672 97.216 63.1876 95.7938 62.9024 94.3699C62.5228 92.9459 62.2394 91.4275 61.9543 90.0036C61.6692 88.5814 61.2896 87.2519 61.0044 85.828C60.721 84.4041 60.3414 83.0763 60.0563 81.6524C59.7712 80.3246 59.3916 78.9007 59.1064 77.5713C59.012 77.1917 58.9175 76.9082 58.9175 76.5286V76.4325C58.9175 76.338 58.823 76.2435 58.7268 76.149C58.6324 76.0529 58.4434 76.0529 58.2528 76.0529H58.1583C57.9676 76.0529 57.7787 76.149 57.588 76.149C56.925 76.2435 56.2603 76.338 55.5956 76.4325C55.216 76.5286 54.8364 76.5286 54.5512 76.6231C54.3623 76.6231 54.2678 76.7176 54.1716 76.7176C54.0772 76.7176 53.9827 76.7176 53.9827 76.8121C53.8882 76.8121 53.792 76.9082 53.792 77.0027C53.6976 77.0972 53.6976 77.1917 53.6976 77.2878V78.236C53.6976 78.8062 53.6976 79.4693 53.792 80.0395C53.792 80.7042 53.8882 81.3673 53.8882 82.032C53.8882 82.4116 53.8882 82.6967 53.9827 83.0763V83.4559H53.318C53.129 82.6967 53.0328 82.032 52.9384 81.3673C52.7494 80.134 52.4643 78.9952 52.2736 77.8564C52.2736 77.7619 52.2736 77.6674 52.1792 77.5713C52.0847 77.3823 51.9902 77.2878 51.7996 77.2878H51.42C51.231 77.2878 51.1348 77.3823 50.9459 77.3823C50.7552 77.3823 50.6608 77.4768 50.4718 77.4768H50.2812C50.0922 77.4768 49.9016 77.5713 49.8071 77.5713C49.2368 77.6674 48.6683 77.8564 48.1942 77.9509V77.8564C48.1942 77.5713 48.1942 77.2878 48.098 77.0972C48.0036 76.5286 48.0036 76.0529 47.9091 75.4843C47.7184 74.251 47.5295 72.9216 47.3388 71.6883C47.9091 72.4475 48.5738 73.2067 49.522 73.4918C49.7126 73.5863 49.996 73.5863 50.2812 73.5863H50.7552C52.4643 73.5863 53.6031 72.2569 54.3623 70.8346C54.7419 70.1699 55.027 69.2201 55.9752 69.1256C57.0195 69.1256 58.0638 69.4107 58.5379 68.1774C58.7268 67.7978 58.7268 67.3221 59.012 67.0386C59.1064 66.9425 59.2026 66.9425 59.2971 66.848C59.5822 66.659 59.7712 66.4684 59.5822 66.0888C59.486 65.8998 59.2026 65.8037 59.012 65.8998C58.823 65.9943 58.7268 65.9943 58.6324 66.0888C57.9676 66.2794 57.2084 66.0888 56.5454 65.7092C56.0696 65.3296 55.69 64.95 55.216 64.4759C54.4568 63.8112 53.4124 63.4316 52.3698 63.7167C51.42 63.9057 50.5663 64.4759 49.8071 65.0445C49.333 65.4241 48.9534 65.8037 48.2887 65.8998C47.7184 65.9943 47.0554 65.7092 46.5796 65.4241C46.5796 65.4241 46.4852 65.4241 46.4852 65.3296V64.95C46.4852 64.761 46.3907 64.5704 46.3907 64.3814C46.3907 64.0963 46.0111 63.9057 45.726 64.0018C45.6315 64.0018 45.537 64.0963 45.4408 64.1908C45.3464 64.2853 45.3464 64.3814 45.3464 64.5704C45.3464 64.761 45.4408 65.0445 45.4408 65.3296C45.537 65.8998 45.6315 66.5629 45.726 67.1331C45.8204 67.7978 45.9166 68.4609 46.0111 69.0311C46.2 70.3589 46.3907 71.6883 46.6758 73.0161C46.8648 74.251 47.0554 75.5788 47.3388 76.8121C47.435 77.0972 47.435 77.3823 47.5295 77.6674C47.5295 77.7619 47.624 77.9509 47.624 78.047C47.5295 78.047 47.3388 78.1415 47.2444 78.1415C47.0554 78.236 46.8648 78.236 46.6758 78.3305H46.3907C46.2962 78.3305 46.2 78.4266 46.1056 78.5211C46.0111 78.6156 46.0111 78.8062 46.0111 78.9007V79.5654C46.0111 80.0395 46.1056 80.4191 46.1056 80.8932C46.2 81.5579 46.2962 82.2226 46.2962 82.7912C46.2962 83.0763 46.3907 83.4559 46.3907 83.741V84.1206H44.302C44.302 84.0245 44.302 83.93 44.2076 83.741C44.1131 83.3614 44.0169 82.9818 43.9224 82.6967C43.7335 82.1265 43.639 81.4634 43.4484 80.8932C43.3539 80.6081 43.2577 80.2285 43.1632 79.945C43.1632 79.7544 43.0688 79.5654 42.9743 79.3748C42.9743 79.3748 42.9743 79.2803 42.8781 79.1858C42.7836 78.9952 42.6892 78.9952 42.4985 78.9007H42.1189C42.0244 78.9007 41.8355 78.9952 41.7393 78.9952C41.3597 79.0897 40.8856 79.1858 40.4116 79.2803C39.8413 79.3748 39.2728 79.5654 38.7987 79.6599C38.5136 79.7544 38.3229 79.8489 38.0395 79.8489C37.9433 79.8489 37.8488 79.945 37.7544 79.945C37.7544 79.945 37.6599 80.0395 37.5637 80.0395C37.4692 80.0395 37.4692 80.0395 37.3748 80.134C37.3748 80.2285 37.2803 80.3246 37.2803 80.4191V82.4116C37.2803 83.1708 37.2803 83.93 37.3748 84.7837C37.3748 86.3982 37.4692 88.0111 37.5637 89.624C37.6599 91.2386 37.6599 92.757 37.7544 94.3699C37.8488 95.9827 37.9433 97.5956 37.9433 99.2102C38.0395 100.823 38.1339 102.341 38.1339 103.954C38.2284 105.567 38.3229 107.182 38.3229 108.795C38.4191 110.408 38.5136 111.926 38.5136 113.541C38.608 115.059 38.7025 116.577 38.7025 118.096C38.7025 118.285 38.7987 118.379 38.8932 118.475C38.9876 118.57 38.9876 118.57 39.0821 118.57H39.1783C39.3672 118.759 39.5579 118.855 39.7468 119.044C40.6967 119.803 41.7393 120.373 42.8781 120.753C43.1632 120.847 43.4484 120.942 43.7335 121.036C44.0169 121.133 44.302 121.227 44.4927 121.227C45.6315 121.512 46.7703 121.607 48.0036 121.607H48.5738C49.522 121.607 50.5663 121.512 51.5144 121.416C52.7494 121.227 53.8882 120.942 55.027 120.657C56.1658 120.277 57.3046 119.898 58.3472 119.423C59.3916 118.949 60.4359 118.379 61.384 117.716C61.5747 117.62 61.6692 117.525 61.8598 117.431C62.808 116.766 63.7578 116.007 64.517 115.248C65.3707 114.489 66.1299 113.541 66.7946 112.591C66.8891 112.496 66.9836 112.306 67.078 112.211C67.078 112.211 67.078 112.117 67.1742 112.022C66.8891 112.022 66.8891 111.926 66.8891 111.831ZM46.5796 70.2644C46.4852 69.4107 46.2962 68.557 46.2 67.7017C46.1056 67.1331 46.0111 66.659 45.9166 66.0888L46.1056 66.2794C46.2962 66.4684 46.5796 66.5629 46.7703 66.659C46.9592 66.7535 47.1499 66.7535 47.3388 66.7535C48.0036 66.7535 48.6683 66.4684 49.1424 65.9943C52.2736 63.6222 53.0328 64.5704 54.2678 65.7092C54.9308 66.2794 55.69 66.9425 57.0195 67.0386C56.925 67.4182 56.8288 67.8923 56.5454 67.9868C55.4066 67.9868 54.3623 67.7978 53.5086 68.8405C52.7494 69.7903 52.4643 71.1181 51.5144 71.8773C50.7552 72.542 49.522 72.6365 48.5738 72.1624C48.098 71.8773 47.8146 71.4032 47.3388 71.0236C47.1499 70.7385 46.8648 70.5495 46.5796 70.2644ZM65.6558 112.117C65.2762 112.685 64.8966 113.255 64.4208 113.729C63.9468 114.3 63.282 114.868 62.7135 115.439C62.0488 116.007 61.2896 116.577 60.5304 117.051H60.4359C59.6767 117.525 58.823 118 57.8732 118.475C56.925 118.949 55.9752 119.329 54.9308 119.709C53.9827 119.994 52.9384 120.277 51.9902 120.468C51.0404 120.657 50.0922 120.753 49.1424 120.847H46.3907C45.726 120.753 44.9668 120.657 44.2076 120.562C43.639 120.373 42.9743 120.277 42.404 120.088C41.93 119.898 41.4559 119.709 41.0763 119.518C40.6967 119.329 40.2209 119.044 39.8413 118.759C39.7468 118.664 39.5579 118.57 39.4617 118.475C39.3672 117.051 39.2728 115.533 39.2728 114.109C39.1783 112.496 39.0821 110.883 39.0821 109.269C38.9876 107.656 38.8932 106.137 38.8932 104.525C38.7987 102.91 38.7025 101.392 38.7025 99.7787C38.608 98.1659 38.5136 96.6474 38.5136 95.0346C38.4191 93.42 38.3229 91.8071 38.2284 90.1942C38.1339 88.5814 38.0395 86.9668 37.9433 85.4484C37.9433 84.6892 37.8488 83.8355 37.7544 83.0763C37.7544 82.6967 37.6599 82.2226 37.6599 81.843C37.6599 81.6524 37.6599 81.4634 37.5637 81.2728H37.9433C38.2284 81.2728 38.4191 81.1783 38.7025 81.1783C38.9876 81.1783 39.2728 81.0838 39.5579 80.9877H40.032C40.2209 80.9877 40.3171 80.8932 40.4116 80.8932C40.6967 80.7987 40.9801 80.7987 41.2652 80.7042C41.4559 80.7042 41.5504 80.6081 41.7393 80.6081C41.7393 80.7042 41.8355 80.8932 41.8355 80.9877C41.93 81.3673 42.0244 81.7469 42.1189 82.1265C42.3096 82.6967 42.404 83.3614 42.5947 83.93C42.6892 84.4041 42.7836 84.8798 42.9743 85.2594V85.3539C42.9743 85.4484 42.9743 85.5446 43.0688 85.5446C43.1632 85.639 43.2577 85.7335 43.3539 85.7335H46.4852C46.5796 85.7335 46.6758 85.7335 46.7703 85.639C46.8648 85.5446 46.8648 85.5446 46.9592 85.4484C47.0554 85.3539 46.9592 85.165 46.9592 85.0688V84.7837C46.8648 84.2151 46.8648 83.5504 46.7703 82.8857C46.6758 82.2226 46.6758 81.5579 46.5796 80.8932C46.5796 80.5136 46.4852 80.0395 46.3907 79.6599C46.9592 79.5654 47.624 79.4693 48.1942 79.3748C48.7628 79.2803 49.4275 79.0897 49.996 78.9952H50.1867C50.3756 78.9952 50.5663 78.9007 50.7552 78.9007C50.8514 79.1858 50.8514 79.4693 50.9459 79.8489C51.0404 80.4191 51.1348 80.9877 51.3255 81.5579C51.5144 82.5061 51.7051 83.5504 51.894 84.5002C51.894 84.5947 51.894 84.6892 51.9902 84.7837C51.9902 84.9743 52.1792 85.165 52.3698 85.165H53.0328C53.318 85.165 53.6976 85.0688 53.9827 85.0688H54.0772C54.2678 85.0688 54.4568 84.8798 54.5512 84.6892V84.3096C54.5512 84.0245 54.5512 83.6449 54.4568 83.3614C54.4568 82.6967 54.3623 81.9375 54.3623 81.2728C54.3623 80.6081 54.2678 79.8489 54.1716 79.1858C54.1716 78.9007 54.1716 78.6156 54.0772 78.4266V78.236H54.6474C55.3104 78.1415 56.0696 78.047 56.7344 78.047C57.0195 78.047 57.3046 77.9509 57.4936 77.9509H57.6842C57.8732 78.8062 58.0638 79.7544 58.2528 80.7042C58.5379 82.1265 58.9175 83.4559 59.2026 84.8798C59.486 86.3021 59.8656 87.6315 60.1508 89.0554C60.4359 90.4794 60.8155 91.9016 61.1006 93.3255C61.4802 94.7495 61.7636 96.1734 62.0488 97.5956C62.3339 99.0195 62.7135 100.349 62.9986 101.771C63.282 103.195 63.6616 104.619 63.9468 106.043C64.2319 107.465 64.6115 108.795 64.8966 110.219C65.0856 111.072 65.2762 111.926 65.4652 112.78C65.7503 111.926 65.7503 112.022 65.6558 112.117Z" fill="black"/>
<path d="M10.1377 105.189C9.85258 105 9.7581 104.524 9.66362 104.241C9.3785 103.196 9.09338 102.152 8.90442 101.108C8.04906 97.406 8.14522 93.4211 9.09338 89.7196C9.28402 89.0548 10.3267 89.34 10.1377 90.0047C9.18786 93.136 8.9989 96.4579 9.47298 99.6836C9.66362 101.013 9.94706 102.246 10.1377 103.576C10.1377 103.765 10.7063 105.379 10.1377 105.189Z" fill="black"/>
<path d="M6.06025 97.9761C5.8713 97.7854 5.96578 97.4058 5.96578 97.2169C5.8713 95.793 5.96578 94.4652 6.15473 93.0413C6.34538 91.0488 6.53433 89.0546 7.00841 87.0622C7.10458 86.6826 7.57865 86.2085 7.95825 86.4936C8.24338 86.6826 8.1489 87.0622 7.95825 87.2528C7.3897 88.4861 7.29353 89.8138 7.00841 91.0488C6.72498 93.0413 6.43985 95.0338 6.43985 97.0279V97.7854C6.34538 98.0706 6.15473 98.0706 6.06025 97.9761Z" fill="black"/>
<path d="M89.6658 84.2152C89.3807 83.8356 89.4752 83.456 89.3807 82.982C89.1918 82.0321 89.0011 81.084 88.716 80.1341C88.053 78.1416 86.818 76.5288 85.7754 74.7252C85.6792 74.5346 85.4902 74.3456 85.4902 74.155C85.4902 73.966 85.5847 73.7754 85.8698 73.7754C86.0588 73.7754 86.2494 73.966 86.4384 74.155C87.8623 75.7696 89.1918 77.6676 90.0454 79.66C90.425 80.7044 90.614 81.747 90.8046 82.7913C90.8046 83.1709 90.9953 83.6467 90.8991 84.0263C90.5195 84.5004 89.8548 84.5948 89.6658 84.2152Z" fill="black"/>
<path d="M90.8072 79.9444C90.5221 79.0907 90.3332 78.1409 89.8591 77.2872C89.2888 76.0539 88.5296 74.9151 87.7704 73.6802C87.5798 73.3006 87.2002 72.921 87.2002 72.5414C87.2002 72.1618 87.676 72.1618 87.8649 72.3524C88.4352 72.8265 88.8148 73.4912 89.2888 74.1559C90.1425 75.1986 90.9017 76.4335 91.2813 77.6668C91.472 78.2354 91.6609 78.9001 91.8516 79.4703C91.946 79.7538 91.7571 80.0389 91.472 80.2295C91.3775 80.324 90.9979 80.2295 90.8072 79.9444Z" fill="black"/>
<path d="M59.6777 110.978C58.6334 109.365 57.5891 107.656 56.4503 106.043C56.1668 105.663 56.2613 105.189 56.5464 104.904C59.2981 102.247 56.8299 97.0269 52.6543 97.7861C48.9544 98.4508 48.0991 103.48 50.9469 105.378C51.232 105.569 51.421 105.948 51.3265 106.328C50.7563 108.7 50.3767 111.168 49.8081 113.54C49.7136 114.964 49.7136 115.627 51.3265 115.533C53.7931 115.723 57.9687 113.255 59.4871 112.022C59.7722 111.831 59.8667 111.357 59.6777 110.978Z" fill="black"/>
</g>
</svg>
