<svg width="288" height="216" viewBox="0 0 288 216" fill="none" xmlns="http://www.w3.org/2000/svg">
<path d="M127.505 124.568C126.083 125.042 130.409 134.878 130.704 136.004C132.719 142.995 139.296 158.281 140.302 155.318C143.325 150.223 169.749 144.891 169.749 144.891C169.749 144.891 153.989 125.813 147.649 117.281C141.192 119.829 132.422 119.414 127.505 124.568Z" fill="#3C3D56"/>
<path d="M79.9278 27.3991C80.4618 27.0431 80.7574 27.2211 80.8162 27.5771C84.0155 27.6948 87.8664 28.3464 92.4881 29.7688C104.457 32.4356 114.765 49.144 102.62 57.793C97.8806 62.3559 92.4881 61.4071 86.4455 60.579C86.0895 59.5111 87.9856 67.7468 86.3264 68.9325C84.1935 70.5917 78.1509 65.614 74.7133 65.7332C72.9364 67.9837 79.0982 70.7697 75.5429 73.3173C73.3513 74.9162 69.0856 74.6206 68.4339 75.9238C68.0779 79.1231 67.6631 82.3224 67.6631 82.3224C67.6631 82.3224 63.0414 81.1383 56.5841 80.6631C52.1404 75.0354 49.3559 66.6804 49.0587 59.1566C48.2291 40.0198 64.5227 27.6359 79.9278 27.3991Z" fill="#3C3D56"/>
<path d="M108.841 148.859C107.36 148.622 107.894 150.162 109.078 149.984C113.048 153.007 115.595 157.153 115.595 162.546C115.654 167.522 134.791 147.258 138.761 145.364C143.798 139.32 153.869 147.378 148.774 140.742C146.938 139.854 146.463 137.305 145.575 135.35C144.035 134.461 142.612 131.677 140.064 132.15C129.105 136.535 119.742 144.178 108.841 148.859Z" fill="#955E68"/>
<path d="M68.4346 81.019C68.6126 84.1595 73.1739 86.41 74.8331 89.2548C76.2555 90.7949 77.144 93.4617 79.3356 93.0469C81.6465 89.4328 85.4989 86.41 87.8686 83.0343C90.3559 84.1007 91.0075 84.8699 96.1632 85.6407C98.5328 86.1732 91.3635 88.2472 93.1419 93.2837C95.5704 104.66 94.8599 117.398 99.2433 128.299C100.725 133.809 110.205 138.431 111.508 130.017C113.286 121.308 110.678 110.407 110.146 100.69C109.909 97.1934 113.701 94.7649 114.707 92.3349C115.359 85.2259 109.731 85.1671 108.072 79.9526C107.716 78.5906 104.102 79.5966 105.998 77.8786C107.835 75.7457 105.524 71.48 108.665 71.3609C109.079 71.124 109.375 70.2944 109.197 69.8208C108.191 67.4511 106.947 65.2595 105.465 63.1266C104.28 61.5262 106.471 57.0825 104.517 56.8457C100.37 61.8218 92.6667 61.2306 86.861 60.223C86.3874 60.223 85.4386 62.5338 86.505 65.1991C88.4598 70.3548 84.0177 69.8208 83.6029 65.6743C83.3645 63.3634 79.6916 61.1114 76.8483 62.297C75.8995 62.7118 75.4259 64.7255 74.7155 65.1403C73.2931 66.0287 77.2632 72.4273 76.0775 72.8421C68.6126 75.2721 68.4346 73.2569 68.4346 81.019Z" fill="#955E68"/>
<path d="M163.884 151.111C163.764 151.17 163.647 151.17 163.469 151.23C164.12 151.111 164.772 151.052 165.365 150.874C166.075 150.755 166.787 150.696 167.556 150.577C167.854 150.518 168.149 150.46 168.386 150.282C168.564 150.164 168.623 149.986 168.623 149.749V149.452C168.386 149.926 167.912 150.164 167.083 150.223C165.958 150.401 164.95 150.816 163.884 151.111Z" fill="#6A53A3"/>
<path d="M157.544 152.534C158.374 152.297 159.321 152.475 159.972 151.941C159.321 152.06 158.61 152.238 157.959 152.415C157.84 152.415 157.663 152.475 157.544 152.534Z" fill="#6A53A3"/>
<path d="M147.057 137.009C147.413 137.602 147.708 138.195 148.004 138.786C148.182 139.142 148.36 139.557 148.479 139.913C148.479 139.971 148.538 140.03 148.538 140.03C148.301 139.557 148.242 139.024 148.004 138.609C147.767 138.075 147.413 137.483 147.057 137.009Z" fill="#6A53A3"/>
<path d="M148.242 155.079C148.42 155.138 148.657 155.02 148.835 155.02C149.428 154.901 150.019 154.723 150.612 154.605C151.797 154.308 152.923 154.072 154.108 153.776C154.226 153.717 154.345 153.657 154.404 153.539C153.693 153.776 152.923 154.072 152.152 154.191C150.909 154.545 149.545 154.783 148.242 155.079Z" fill="#6A53A3"/>
<path d="M231.545 138.372H237.826L276.1 34.153L271.182 31.1317C271.182 31.0729 244.579 103.178 231.545 138.372Z" fill="#676988"/>
<path d="M168.563 98.3197C180.294 106.082 220.407 131.913 220.939 132.684C220.168 140.327 216.317 141.334 207.371 142.459C208.733 147.259 217.562 145.126 221.769 143.289C224.79 141.986 225.383 137.305 225.146 135.053C228.226 137.069 230.952 138.372 230.952 138.372L233.797 130.907L169.986 94.1716C169.926 94.1128 168.741 97.846 168.563 98.3197Z" fill="#676988"/>
<path d="M170.46 130.61C178.044 139.793 190.9 149.63 199.611 158.871C205.358 157.687 216.615 154.784 218.511 154.784C216.615 152.473 207.964 143.408 207.372 142.401C210.097 140.979 220.407 143.468 221.059 132.506C215.193 127.767 213.06 126.76 212.112 127.055C210.393 127.589 213.889 133.751 198.069 134.698C191.79 129.9 190.485 127.174 187.879 127.352C182.191 128.122 176.385 129.544 170.46 130.61Z" fill="#3C3D56"/>
<path d="M140.776 154.487C140.776 157.094 140.54 157.391 140.54 157.391L168.327 150.28C168.327 150.28 169.453 147.139 169.156 145.126C162.639 147.377 145.1 151.052 140.776 154.487Z" fill="#676988"/>
<path d="M170.223 93.9945C184.976 103.06 234.092 130.728 234.092 130.728L271.004 31.4283L190.723 31.1311L190.545 31.7239C190.545 31.7239 176.74 74.5017 170.223 93.9945Z" fill="#B1C1E3"/>
<path d="M146.879 119.649C151.915 125.1 161.809 138.786 165.898 143.29C166.728 145.423 162.875 145.54 161.691 145.54C156.299 140.386 145.456 124.922 143.265 121.841C143.028 121.545 143.146 121.13 143.443 120.893C144.153 120.359 145.634 119.471 146.879 119.649Z" fill="#676988"/>
<path d="M131.119 124.508C134.318 124.803 140.184 119.471 141.488 124.034C147.235 130.313 151.678 137.602 156.537 144.533C157.544 145.362 157.781 146.133 157.366 146.607C156.596 147.495 153.93 147.734 152.982 148.029C150.019 149.689 146.227 150.281 143.501 151.88C142.08 152.236 138.347 145.896 138.762 145.362C144.035 138.905 155.114 148.8 148.005 138.668C146.346 136.121 144.746 133.039 141.783 131.795C139.058 131.558 135.858 133.336 133.845 134.403C133.134 132.802 128.037 124.449 131.119 124.508Z" fill="#676988"/>
<path d="M13.5102 144.711C11.2582 172.44 22.6344 183.163 51.7854 181.505C58.5988 183.519 65.5298 188.258 73.3508 187.667C81.7057 186.54 89.5855 182.808 96.5769 178.246C103.449 179.786 109.848 170.544 114.706 166.515C116.602 162.604 114.352 157.093 112.041 153.421C106.116 145.304 95.0956 149.57 87.8086 150.102C84.0754 148.147 93.3776 148.147 93.3776 145.719C95.3913 146.37 97.7609 148.147 100.369 147.793C118.795 147.437 119.862 129.01 112.336 116.865C110.382 118.405 112.81 125.277 111.922 128.537C111.804 137.068 102.68 136.653 99.835 129.958C92.2508 119.235 99.1245 104.066 89.7031 94.5273C87.6307 90.4396 85.6743 86.2915 85.6743 86.2915C85.6743 86.2915 82.475 88.8995 78.4461 93.8757C74.8924 89.3143 71.6327 85.2251 68.4923 82.2038C66.7154 82.4406 61.2053 81.5522 56.7028 80.7814C55.3995 81.967 54.0359 83.1526 53.2063 86.2915C32.7662 98.6165 15.5239 119.591 13.5102 144.711Z" fill="#B1C1E3"/>
<path d="M95.6292 61.23C94.3848 66.5622 100.014 75.6864 103.746 67.5698C109.019 57.3203 97.8813 43.7524 95.6292 61.23Z" fill="#FFC100"/>
<path d="M104.753 56.5494C105.405 59.0383 105.049 67.3329 108.96 67.4505C111.685 63.482 110.441 52.5206 107.596 52.6986C106.827 52.7574 105.819 54.3578 104.753 56.5494Z" fill="#FFC100"/>
<path d="M225.918 135.348H225.916V135.35H225.918V135.348Z" fill="black"/>
<path d="M169.334 150.045C169.334 149.808 169.097 149.571 168.86 149.571C168.624 149.571 168.387 149.808 168.387 150.045C168.387 150.281 168.624 150.518 168.86 150.518C169.097 150.518 169.334 150.281 169.334 150.045Z" fill="black"/>
<path d="M127.031 124.272C127.565 122.613 128.749 122.317 130.23 121.783C131.889 121.19 133.488 120.599 135.208 120.124C136.865 119.65 138.466 119.235 140.125 118.703C141.606 118.228 143.088 117.695 144.628 117.28C145.398 117.044 146.168 116.747 146.997 116.866C147.353 116.925 147.649 117.044 147.946 117.28C147.946 117.28 148.005 117.28 148.005 117.339C148.242 117.4 148.361 117.576 148.537 117.754L149.545 118.762C150.316 119.591 151.026 120.421 151.738 121.309C153.278 123.086 154.64 124.982 156.182 126.82C159.203 130.434 162.105 134.048 164.95 137.84C165.78 138.906 166.49 139.973 167.32 141.039C167.854 141.749 168.386 142.461 168.86 143.172C169.157 143.646 169.511 144.121 169.75 144.594C170.104 145.483 169.987 146.49 169.867 147.438C169.809 148.03 169.75 148.623 169.631 149.216C169.572 149.453 169.572 149.631 169.511 149.868C169.511 149.868 169.511 149.926 169.572 149.926C169.631 150.222 169.511 150.46 169.216 150.578C169.157 150.578 169.157 150.578 169.097 150.637C167.379 151.052 165.721 151.527 164.001 151.94C162.105 152.415 160.211 152.948 158.315 153.421C156.3 153.955 154.345 154.429 152.39 154.963C150.316 155.495 148.242 156.029 146.168 156.562C144.508 156.977 142.851 157.391 141.192 157.865H141.072C140.955 157.865 140.894 157.806 140.777 157.806C140.718 157.865 140.718 157.865 140.658 157.865C140.599 157.925 140.599 157.925 140.54 157.925C140.48 157.984 140.421 157.984 140.303 157.984C140.184 157.984 140.184 157.984 140.125 157.925C140.006 157.865 139.888 157.806 139.828 157.689C139.769 157.628 139.769 157.569 139.71 157.511C139.237 156.622 138.762 155.673 138.288 154.785C137.755 153.719 137.163 152.711 136.689 151.644C136.451 151.112 136.155 150.578 135.918 150.046C135.799 149.809 135.681 149.512 135.562 149.216C135.503 149.038 135.445 148.919 135.384 148.741C135.325 148.682 135.325 148.623 135.325 148.504C135.325 148.445 135.267 148.328 135.325 148.267C135.384 148.15 135.503 148.03 135.681 148.15C135.799 148.208 135.859 148.328 135.977 148.445C136.096 148.564 136.155 148.682 136.214 148.801C136.392 149.038 136.511 149.275 136.689 149.512C137.28 150.519 137.873 151.586 138.407 152.593V152.889C138.703 153.482 139.059 154.075 139.354 154.666C139.532 154.963 139.71 155.319 139.888 155.615C139.947 155.2 140.006 154.785 140.184 154.37C140.243 154.192 140.362 154.075 140.421 153.955C140.184 153.599 140.006 153.185 139.828 152.83C139.118 151.349 138.407 149.868 137.755 148.386C137.517 147.852 137.28 147.379 137.104 146.846C137.341 146.668 137.577 146.549 137.814 146.371C137.873 146.312 137.932 146.312 137.992 146.254C138.051 146.49 138.17 146.668 138.229 146.846C138.998 148.623 139.828 150.4 140.658 152.178C140.894 152.593 141.014 153.008 141.309 153.423C141.37 153.363 141.487 153.363 141.546 153.304C144.686 151.644 148.124 150.578 151.56 149.512C154.581 148.564 157.663 147.616 160.743 146.786C162.758 146.312 164.772 145.602 166.787 145.068C167.261 144.95 167.735 144.89 168.208 144.831C168.269 144.831 168.445 144.831 168.564 144.772C168.623 144.772 168.683 144.772 168.742 144.712C168.742 144.653 168.682 144.653 168.682 144.594C168.386 144.121 168.149 143.765 167.793 143.232C165.306 139.855 162.758 136.478 160.15 133.159C158.432 131.026 156.714 128.952 154.996 126.878C153.752 125.338 152.507 123.679 151.204 122.139C150.494 121.251 149.782 120.302 149.013 119.413C148.835 119.177 148.005 118.288 147.768 117.695C147.59 117.695 147.471 117.636 147.294 117.636C146.643 117.576 146.109 117.814 145.516 117.991C143.798 118.525 133.727 121.487 131.001 122.554C130.171 122.849 129.342 123.086 128.631 123.561C128.512 123.679 128.393 123.857 128.334 123.976C129.52 127.649 131.238 131.085 132.719 134.64C132.837 134.877 132.956 135.173 133.075 135.47C132.956 135.529 132.837 135.588 132.719 135.648C132.541 135.766 132.422 135.826 132.304 135.944L132.245 136.003C131.831 135.055 131.416 134.106 131.06 133.159C129.934 130.553 128.868 127.945 128.156 125.221C128.097 125.101 128.097 124.923 128.038 124.806C127.802 125.338 127.565 125.931 127.624 126.524C127.741 127.945 128.275 129.25 128.868 130.492C129.637 132.271 130.349 134.048 131.119 135.826C131.238 136.063 130.467 137.01 130.349 136.715C130.052 136.063 129.815 135.47 129.52 134.818C128.808 132.981 127.978 131.204 127.268 129.426C126.912 128.479 126.616 127.471 126.557 126.464C126.379 125.812 126.675 125.043 127.031 124.272ZM168.742 145.424C168.505 145.542 168.208 145.602 167.971 145.661C167.32 145.778 166.727 146.017 166.134 146.193C162.402 147.438 158.552 148.326 154.818 149.57C150.316 150.993 145.753 152.178 141.606 154.37C141.428 154.429 141.25 154.548 141.072 154.666C140.718 155.2 140.836 156.029 140.718 156.681V156.799C142.495 156.325 144.272 155.851 146.05 155.378C148.124 154.844 150.138 154.311 152.212 153.777L158.137 152.237C160.033 151.764 161.929 151.23 163.884 150.756C164.831 150.519 165.78 150.282 166.727 150.046C167.261 149.926 167.793 149.807 168.269 149.631C168.269 149.57 168.327 149.453 168.327 149.392C168.386 148.979 168.505 148.504 168.564 148.03C168.682 147.201 168.92 146.254 168.742 145.424Z" fill="black"/>
<path d="M52.4375 87.8927C52.4375 87.8338 52.4375 87.8338 52.3787 87.8338C52.3168 87.8338 52.3168 87.8338 52.3168 87.8927C52.3168 87.9515 52.3787 87.9515 52.4375 87.8927Z" fill="black"/>
<path d="M51.6084 89.0185C51.6084 88.9597 51.6084 88.9597 51.5496 88.9597C51.4877 88.9597 51.4877 88.9597 51.4877 89.0185C51.4877 89.0773 51.5496 89.0773 51.6084 89.0185C51.6084 89.0773 51.6084 89.0773 51.6084 89.0185Z" fill="black"/>
<path d="M95.9258 178.959C95.9258 178.9 95.9258 178.9 95.9258 178.959C95.867 178.9 95.8051 178.9 95.8051 178.959C95.8051 179.018 95.8051 179.018 95.9258 178.959Z" fill="black"/>
<path d="M232.732 77.5812H232.73V77.5829H232.732V77.5812Z" fill="black"/>
<path d="M129.578 124.92C129.578 124.742 130.051 124.506 130.171 124.506C130.407 124.386 140.064 121.306 140.064 121.306C140.124 121.306 140.124 121.306 140.183 121.248C140.183 121.248 140.183 121.306 140.242 121.306C140.302 121.365 143.027 124.742 143.146 124.862C143.739 125.572 144.331 126.283 144.923 127.053C144.923 127.053 145.279 127.468 145.398 127.587C145.457 127.646 145.515 127.705 145.574 127.764H145.515C145.813 128.12 150.315 134.223 150.433 134.34C150.493 134.459 150.611 134.579 150.671 134.637C150.671 134.637 157.365 144.472 157.602 145.184C158.373 146.961 157.306 146.961 157.009 147.08C155.943 147.554 143.265 151.937 143.146 151.937C142.021 152.293 141.309 150.219 140.894 149.628C140.124 148.442 139.295 146.902 138.524 145.717C138.287 145.48 139.413 144.709 139.71 144.828C140.005 144.887 140.064 145.184 140.242 145.421C140.539 145.953 140.894 146.546 141.191 147.08C141.309 147.02 141.369 146.961 141.487 146.902C141.723 146.783 144.983 145.184 144.983 145.124H145.042C144.864 144.709 144.686 144.294 144.508 143.879C144.271 143.466 143.975 142.932 143.797 142.458C143.739 142.339 144.212 142.398 144.271 142.458C144.923 143.11 145.457 143.879 145.871 144.709V144.769C145.989 144.709 153.988 141.273 154.166 141.214C153.632 140.504 153.158 139.792 152.626 139.022C152.448 138.725 152.27 138.488 152.033 138.193C151.618 138.31 151.204 138.43 150.789 138.547C149.9 138.725 149.012 138.903 148.122 139.14C148.004 139.199 147.826 139.199 147.709 139.199C147.47 139.199 147.294 139.14 147.233 138.844C147.175 138.488 147.531 138.31 147.826 138.31C149.012 138.015 150.196 137.659 151.44 137.363C150.848 136.534 150.315 135.763 149.722 134.933C148.775 135.289 147.885 135.704 146.819 135.882C146.701 135.882 146.582 135.941 146.464 135.941C146.345 135.941 146.167 135.882 146.049 135.822C145.813 135.585 145.93 135.17 146.227 135.111C146.404 135.052 146.582 135.052 146.76 134.993C147.589 134.815 148.36 134.459 149.13 134.164C148.478 133.215 147.767 132.268 147.116 131.319C145.813 131.734 143.856 132.385 142.494 132.683C142.021 132.149 140.835 129.364 140.717 129.186C140.42 129.245 138.406 130.016 137.694 130.253C137.814 130.431 138.88 131.912 138.406 132.268C138.287 132.327 138.228 132.327 138.17 132.327C137.694 132.327 137.458 131.497 137.162 131.201C137.043 130.965 136.925 130.787 136.806 130.609C135.859 130.965 134.91 131.319 134.022 131.734C134.378 132.385 134.673 133.156 134.91 133.867C134.969 133.927 134.554 134.103 134.554 133.986C134.2 133.571 133.963 133.097 133.666 132.622C133.548 132.385 133.37 132.149 133.251 131.912C133.548 132.563 133.844 133.215 134.08 133.867C134.2 134.103 134.08 134.401 133.844 134.459C133.844 134.459 133.429 134.223 133.37 134.045C133.073 133.867 129.519 125.394 129.578 124.92ZM157.07 146.546C157.07 146.546 157.009 146.073 157.009 146.014C156.062 146.251 153.87 147.198 153.514 147.317C153.514 147.376 153.573 147.732 153.573 147.732C153.573 147.732 156.536 146.724 157.07 146.546ZM147.885 149.865C148.182 149.804 151.56 148.383 152.98 147.969C152.98 147.969 152.863 147.613 152.863 147.554C151.974 147.849 151.084 148.205 150.196 148.501C149.427 148.798 148.656 149.094 147.885 149.45C147.826 149.45 147.826 149.865 147.885 149.865ZM143.205 151.405C144.331 151.168 147.233 150.043 147.233 150.043L147.175 149.628C147.175 149.628 144.153 150.753 143.324 151.049C143.265 151.168 143.146 151.405 143.205 151.405ZM141.013 148.205L140.776 148.857C140.776 148.857 142.138 150.99 142.316 151.227C142.375 151.109 142.375 150.871 142.494 150.694C141.606 149.45 141.013 148.205 141.013 148.205ZM145.279 145.953C145.161 145.953 145.101 146.014 145.042 146.073C144.686 146.251 141.545 147.849 141.428 147.908C141.665 148.383 142.79 150.397 142.79 150.397C144.212 149.923 145.515 149.509 146.879 148.975C146.819 148.798 145.515 146.427 145.279 145.953ZM150.73 143.525C150.611 143.525 147.055 145.065 146.523 145.302C146.404 145.361 146.227 145.421 146.108 145.539C146.523 146.309 147.531 148.383 147.648 148.679C149.308 148.027 150.967 147.376 152.626 146.783C151.914 145.658 151.323 144.709 150.73 143.525ZM151.382 143.228C152.152 144.235 153.219 146.487 153.278 146.546C154.403 146.19 155.588 145.775 156.714 145.48C156.062 144.354 155.352 143.228 154.581 142.161C154.462 142.222 151.56 143.228 151.382 143.228ZM135.859 123.498C135.681 123.558 135.503 123.617 135.384 123.617C134.732 123.854 134.141 124.032 133.488 124.21C133.37 124.269 133.251 124.269 133.133 124.328L133.311 124.506C133.785 124.92 134.141 125.454 134.554 125.928C134.614 125.868 134.673 125.868 134.792 125.868C135.622 125.572 136.51 125.335 137.34 125.098C136.806 124.625 136.332 124.032 135.859 123.498ZM140.42 123.144C140.183 122.846 139.946 122.61 139.71 122.314C138.88 122.551 138.05 122.846 137.28 123.083C137.103 123.144 136.984 123.144 136.806 123.202C137.103 123.558 137.458 123.913 137.755 124.328C137.931 124.506 138.05 124.684 138.228 124.862C139.176 124.564 140.124 124.21 141.132 123.973C140.894 123.676 140.657 123.38 140.42 123.144ZM142.672 131.438L142.85 131.793C143.027 131.734 143.205 131.675 143.383 131.616C144.39 131.26 145.398 130.904 146.404 130.609C145.752 129.72 145.101 128.891 144.39 128.061C143.383 128.417 142.316 128.713 141.309 129.069C141.784 129.897 142.199 130.667 142.672 131.438ZM140.776 128.298C141.784 128.002 142.79 127.705 143.797 127.349C143.324 126.758 142.909 126.224 142.494 125.691C142.199 125.335 141.96 124.979 141.665 124.625C140.717 124.862 139.769 125.157 138.821 125.572C139.058 125.868 139.354 126.165 139.591 126.461C140.005 127.053 140.361 127.705 140.776 128.298ZM137.043 129.66C137.577 129.423 138.17 129.186 138.761 129.008C139.176 128.83 139.591 128.713 140.005 128.593C139.354 127.764 138.702 126.936 137.992 126.106C137.931 126.046 137.872 125.987 137.872 125.928C136.925 126.224 135.976 126.461 135.088 126.816C135.266 127.053 135.444 127.349 135.622 127.646C136.035 128.239 136.569 128.949 137.043 129.66ZM131.889 128.298C132.421 129.186 132.955 130.075 133.429 131.023C133.488 131.082 133.488 131.141 133.488 131.201C134.378 130.667 135.266 130.253 136.154 129.897C136.096 129.838 136.096 129.838 136.096 129.779C135.798 129.245 135.503 128.771 135.147 128.239C134.851 127.824 134.554 127.409 134.317 126.936C133.488 127.29 132.777 127.705 131.948 128.002H131.889C131.83 128.179 131.83 128.239 131.889 128.298ZM131.415 127.349C132.245 126.994 133.014 126.639 133.785 126.283C133.726 126.224 133.666 126.106 133.607 126.046C133.37 125.631 133.014 125.216 132.718 124.742C132.66 124.684 132.66 124.625 132.599 124.506C132.304 124.564 132.067 124.625 131.77 124.742C131.474 124.801 131.237 124.92 130.94 124.979C130.703 125.04 130.525 125.098 130.288 125.157C130.644 125.928 131.059 126.639 131.415 127.349Z" fill="black"/>
<path d="M142.85 121.782L143.206 120.359H143.264C144.509 120.064 145.812 119.412 147.115 119.412C147.767 119.175 148.833 121.367 149.367 121.841C151.263 124.33 153.159 126.758 155.114 129.188C158.787 134.047 162.875 138.668 166.193 143.822C166.371 145.482 163.409 145.836 162.164 145.896C160.742 145.836 159.795 144.356 158.965 143.288C153.514 136.238 147.767 129.188 142.85 121.782ZM148.479 127.588L148.301 128.18C148.953 129.069 149.663 129.959 150.315 130.787L150.434 130.135C149.841 129.307 149.131 128.478 148.479 127.588ZM150.966 130.847L150.849 131.499C151.5 132.387 152.211 133.276 152.862 134.164L152.981 133.454C152.389 132.565 151.678 131.677 150.966 130.847ZM153.396 134.817C154.165 135.823 154.936 136.89 155.766 137.897L155.884 137.187C155.114 136.121 154.343 135.113 153.514 134.105L153.396 134.817ZM156.298 138.608C157.069 139.616 157.84 140.564 158.609 141.631L158.728 140.979C157.958 139.972 157.188 138.964 156.418 137.956L156.298 138.608ZM159.617 142.046C159.499 141.926 159.38 141.748 159.261 141.631L159.143 142.341C159.854 143.349 160.624 144.118 161.394 145.126C161.454 144.948 161.572 144.83 161.691 144.652C161.157 143.527 160.268 142.934 159.617 142.046ZM147.826 127.529L147.945 126.877C147.293 126.106 146.701 125.337 146.049 124.508L145.931 125.04C146.405 125.633 147.649 127.292 147.826 127.529ZM143.679 121.248L143.56 121.841C144.212 122.612 144.804 123.559 145.456 124.388L145.575 123.856C145.041 123.144 143.797 121.426 143.679 121.248ZM147.945 121.189C147.649 120.715 147.234 120.301 146.937 119.827C146.108 120.181 145.219 120.42 144.45 120.715C144.982 121.486 145.634 122.256 146.227 123.026C147.234 122.968 148.182 122.729 149.189 122.729C148.716 122.256 148.301 121.723 147.945 121.189ZM150.788 124.922C150.373 124.388 149.96 123.856 149.545 123.322C148.597 123.382 147.589 123.678 146.642 123.737C147.293 124.566 147.886 125.396 148.538 126.226C149.485 126.048 150.434 125.752 151.441 125.752C151.263 125.455 151.027 125.218 150.788 124.922ZM152.745 127.411C152.389 126.996 152.093 126.521 151.737 126.106C150.788 126.284 149.96 126.582 149.07 126.877C149.782 127.766 150.434 128.714 151.144 129.603C152.093 129.366 153.04 129.129 153.989 129.01C153.574 128.417 153.159 127.944 152.745 127.411ZM154.641 129.84C154.521 129.721 154.404 129.544 154.285 129.425C153.396 129.662 152.508 129.959 151.618 130.254C152.33 131.143 152.981 132.092 153.692 132.98C154.641 132.743 155.588 132.387 156.596 132.387C155.944 131.499 155.292 130.669 154.641 129.84ZM158.433 134.757C157.899 134.105 157.425 133.513 156.952 132.861C156.003 133.098 155.173 133.454 154.226 133.691C154.995 134.639 155.766 135.645 156.476 136.594C157.484 136.357 158.55 136.121 159.617 136.297C159.261 135.765 158.846 135.231 158.433 134.757ZM160.388 137.187C160.268 137.068 160.151 136.89 160.09 136.772C159.024 136.89 158.194 137.009 157.188 137.305C157.958 138.253 158.67 139.201 159.439 140.149C160.505 139.913 161.572 140.03 162.638 139.913C161.808 139.083 161.098 138.134 160.388 137.187ZM165.127 143.052C164.416 142.222 163.705 141.453 162.994 140.564C161.986 140.801 160.98 140.86 159.973 140.979C160.683 141.985 161.513 142.993 162.047 144.118C163.172 143.881 164.475 143.527 165.542 143.466C165.423 143.349 165.246 143.23 165.127 143.052ZM162.698 145.126C163.646 145.067 164.653 145.008 165.542 144.533C165.661 144.296 165.837 144.118 165.957 143.881C165.009 144.178 163.053 144.533 162.047 144.711C162.047 144.889 161.986 145.008 161.986 145.184C162.223 145.184 162.52 145.126 162.698 145.126Z" fill="black"/>
<path d="M190.664 31.0726C190.605 31.1315 190.664 31.0138 190.664 31.0726V31.0726Z" fill="black"/>
<path d="M167.912 98.379C167.971 98.3202 167.971 98.201 167.971 98.1422C168.149 97.6686 168.268 97.1934 168.446 96.7198C169.274 94.3501 170.045 91.9804 170.816 89.6108C171.646 87.0631 172.534 84.5155 173.364 81.9678C174.193 79.4201 175.082 76.8725 175.97 74.3248C176.8 71.836 177.629 69.3471 178.459 66.9187C179.289 64.4886 180.058 62.0602 180.887 59.6301C181.776 57.0237 182.605 54.476 183.495 51.8695C184.324 49.4983 185.094 47.1286 185.865 44.759C186.695 42.2701 187.524 39.8417 188.352 37.4116C188.767 36.2276 189.182 35.042 189.597 33.8579C189.834 33.2063 190.072 32.5531 190.309 31.9619C190.426 31.7251 190.546 31.4279 190.604 31.1911C190.663 31.0719 190.663 31.0131 190.782 31.0131C190.841 31.0131 190.841 30.9543 190.9 30.9543C190.96 30.9543 190.96 30.9543 190.96 30.8954C191.019 30.8954 191.078 30.8351 191.138 30.8351C191.315 30.7763 191.493 30.7763 191.73 30.7763C192.264 30.7175 192.856 30.7175 193.389 30.7175C196.351 30.6586 199.314 30.6586 202.276 30.7175C205.417 30.7175 208.557 30.7175 211.698 30.7763C214.897 30.7763 218.155 30.7763 221.354 30.8351C224.376 30.8351 227.457 30.8351 230.479 30.8954C233.619 30.8954 236.759 30.8954 239.9 30.9543C242.98 30.9543 246.062 30.9543 249.142 31.0131C252.223 31.0131 255.245 31.0131 258.326 31.0719C261.111 31.0719 263.895 31.0719 266.621 31.1323H270.826C270.887 31.1323 271.004 31.1323 271.065 31.1911C271.241 31.1911 271.419 31.2499 271.538 31.2499C272.841 31.7251 273.967 32.4943 275.094 33.2063C275.448 33.5019 276.16 33.6799 276.16 34.2727C276.16 34.3315 276.16 34.3904 276.1 34.3904V34.4492C276.1 34.6272 276.1 34.7463 276.041 34.9243C275.982 35.1612 275.922 35.398 275.804 35.6348C275.626 36.2276 275.389 36.8792 275.152 37.472C274.738 38.7752 274.204 40.0785 273.73 41.4405C272.546 44.759 271.36 48.0171 270.116 51.2767C268.754 55.0084 267.39 58.7417 266.028 62.475C264.665 66.2067 263.302 69.9399 261.94 73.6717C260.518 77.5829 259.037 81.4926 257.614 85.4627C256.192 89.4328 254.711 93.4029 253.229 97.3714C251.809 101.163 250.445 105.014 249.024 108.806C247.661 112.599 246.238 116.332 244.876 120.124C243.514 123.856 242.15 127.53 240.788 131.262C239.84 133.809 238.951 136.357 238.004 138.905C238.004 138.964 238.004 138.964 237.944 139.024C237.826 139.261 237.47 139.261 237.233 139.32C236.581 139.378 235.871 139.439 235.159 139.498H234.449C233.56 139.498 232.731 139.439 231.842 139.439C231.604 139.439 231.308 139.439 231.013 139.378H230.598C230.537 139.378 230.537 139.378 230.479 139.32H230.183C230.183 139.32 230.123 139.32 230.123 139.261C229.708 139.024 229.353 138.846 228.938 138.609C227.931 138.016 226.923 137.365 225.976 136.772C225.798 136.654 225.62 136.535 225.442 136.416C225.266 136.891 225.205 137.365 225.027 137.838C224.732 139.142 224.495 140.445 224.139 141.75C224.139 141.808 224.08 141.867 224.08 141.926C224.08 141.986 224.08 142.104 224.021 142.223C224.021 142.282 223.961 142.282 223.961 142.341C223.961 142.401 223.902 142.46 223.902 142.578C223.843 142.638 223.843 142.697 223.843 142.756C223.843 142.875 223.784 142.992 223.606 143.112C223.546 143.17 223.546 143.17 223.487 143.17C223.428 143.29 223.25 143.407 223.131 143.407C222.421 143.763 221.71 144.178 220.881 144.356C217.562 145.481 214.007 145.955 210.453 146.193C211.874 147.555 213.177 148.917 214.6 150.281C215.429 151.05 216.2 151.88 216.969 152.709C217.503 153.243 218.096 153.776 218.511 154.369C218.807 154.605 218.865 155.079 218.511 155.317C218.451 155.376 218.333 155.376 218.274 155.376C218.155 155.435 217.918 155.494 217.859 155.554C216.733 155.791 215.607 155.969 214.482 156.146C212.882 156.56 211.283 156.975 209.624 157.331C208.201 157.568 206.839 157.805 205.417 158.102C203.343 158.576 201.329 159.227 199.255 159.701H199.136C198.958 159.701 198.781 159.583 198.662 159.405C198.543 159.346 198.484 159.227 198.367 159.108C197.477 158.22 196.529 157.39 195.641 156.502C194.692 155.613 193.804 154.725 192.856 153.836C191.908 152.946 190.96 151.999 190.012 151.111C189.064 150.162 188.057 149.273 187.11 148.326C186.161 147.436 185.213 146.489 184.265 145.6C183.317 144.652 182.369 143.763 181.361 142.875C180.414 141.926 179.406 141.038 178.459 140.09C177.51 139.142 176.563 138.253 175.614 137.365C174.667 136.476 173.718 135.527 172.83 134.639C171.882 133.692 170.934 132.802 170.045 131.855C169.926 131.735 169.808 131.618 169.689 131.499C169.572 131.381 169.452 131.203 169.452 131.025C169.452 130.966 169.513 130.966 169.513 130.906C169.513 130.669 169.689 130.432 169.926 130.373C170.579 130.254 171.17 130.136 171.822 130.017C172.949 129.781 174.074 129.603 175.199 129.425C176.326 129.188 177.51 129.01 178.637 128.773C179.762 128.536 180.887 128.358 182.013 128.182C183.139 127.943 184.324 127.767 185.509 127.528C186.102 127.411 186.695 127.292 187.286 127.233C187.523 127.174 187.82 127.174 188.116 127.115C188.235 127.115 188.352 127.055 188.53 127.055H188.767C188.886 127.055 188.886 127.055 188.945 127.115C189.064 127.174 189.123 127.233 189.182 127.292C189.242 127.411 189.242 127.528 189.242 127.648V127.706C189.301 127.706 189.301 127.767 189.301 127.767C190.368 128.477 191.315 129.425 192.322 130.254C193.152 130.906 193.923 131.618 194.753 132.328C195.581 132.98 196.351 133.751 197.062 134.461C197.122 134.58 197.24 134.639 197.3 134.758H197.359C197.655 134.698 198.011 134.698 198.306 134.698C200.024 134.52 201.684 134.224 203.402 134.046C204.35 133.987 205.298 133.631 206.246 133.395C207.076 133.158 207.845 132.743 208.557 132.211C209.209 131.677 209.741 130.966 210.156 130.195C210.393 129.603 210.63 129.01 210.868 128.358C210.986 128.062 211.045 127.648 211.223 127.411L211.283 127.352C211.105 127.233 210.927 127.115 210.749 127.055C208.675 125.693 206.542 124.39 204.468 123.026C202.335 121.605 200.143 120.241 198.011 118.819C195.878 117.457 193.686 116.095 191.553 114.673C189.419 113.309 187.286 111.947 185.153 110.585C183.081 109.221 180.946 107.918 178.874 106.556C176.8 105.192 174.667 103.889 172.593 102.527C171.704 101.934 170.756 101.341 169.867 100.749C169.513 100.512 169.216 100.334 168.86 100.097C168.742 100.038 168.564 99.919 168.445 99.8602C168.327 99.8014 168.208 99.741 168.09 99.6234H167.854C167.971 98.913 167.854 98.6158 167.912 98.379ZM270.65 31.9015H263.895C260.933 31.9015 257.97 31.9015 255.008 31.8427C251.926 31.8427 248.846 31.8427 245.706 31.7839C242.565 31.7251 239.485 31.7839 236.403 31.7251C233.263 31.7251 230.183 31.7251 227.042 31.6647C223.961 31.6647 220.881 31.6647 217.799 31.6059C214.6 31.6059 211.342 31.5471 208.084 31.5471C205.002 31.5471 201.92 31.5471 198.899 31.4867C197.418 31.4867 195.937 31.4867 194.455 31.4279C193.804 31.4279 193.093 31.4279 192.442 31.3691C192.144 31.3691 191.79 31.3103 191.493 31.3103H191.315C191.256 31.4867 191.256 31.6647 191.197 31.8427C191.019 32.4355 190.841 32.9679 190.663 33.5019C189.894 35.9304 189.123 38.3016 188.294 40.6713C187.464 43.1601 186.634 45.5886 185.805 48.0774C184.975 50.5647 184.147 52.9948 183.376 55.4232C182.547 57.9709 181.658 60.5186 180.829 63.0662C179.999 65.4962 179.228 67.8659 178.399 70.2944C177.571 72.7832 176.741 75.3309 175.851 77.8197L173.186 85.7583C172.356 88.2472 171.526 90.736 170.697 93.2249C170.638 93.4029 170.579 93.5793 170.519 93.7573C170.579 93.7573 170.638 93.7573 170.697 93.8161C170.697 93.8161 170.756 93.8161 170.756 93.8765C170.756 93.9353 170.816 93.8765 170.816 93.9353C170.934 93.9941 171.053 94.0545 171.112 94.1133L171.585 94.3501C171.941 94.5869 172.297 94.7649 172.712 95.0017C175.082 96.3638 177.393 97.7274 179.762 99.0894C182.132 100.453 184.443 101.815 186.812 103.179C189.182 104.541 191.493 105.903 193.863 107.266C196.234 108.628 198.603 109.992 201.032 111.354C203.343 112.718 205.712 114.08 208.082 115.383C210.393 116.686 212.704 118.05 214.956 119.353C217.267 120.656 219.517 121.96 221.828 123.323C224.08 124.626 226.272 125.93 228.524 127.174C229.649 127.826 230.715 128.477 231.842 129.129C232.375 129.425 232.909 129.781 233.441 130.078C233.619 130.195 233.797 130.314 233.975 130.432C235.041 127.53 236.108 124.685 237.174 121.842C238.478 118.287 239.781 114.731 241.084 111.176C242.448 107.444 243.81 103.711 245.232 99.9794C246.594 96.3638 247.897 92.7497 249.261 89.1356C250.742 85.1067 252.223 81.1382 253.705 77.1093C255.126 73.198 256.607 69.2883 258.088 65.3182C258.859 63.3046 259.569 61.2894 260.34 59.2757C261.111 57.2016 261.88 55.1276 262.651 52.9948C264.132 49.0247 265.555 45.115 267.036 41.1449C267.687 39.4269 268.339 37.7088 268.991 35.9908C269.345 35.1008 269.701 34.1535 270.057 33.2651C270.235 32.7915 270.413 32.3163 270.65 31.9015ZM233.085 138.075C233.915 138.135 234.685 138.135 235.515 138.135H237.352C237.885 136.594 238.478 135.113 239.01 133.631C240.315 130.078 241.618 126.522 242.921 122.967C244.283 119.294 245.647 115.561 247.009 111.888C248.431 108.037 249.793 104.245 251.216 100.394C252.697 96.3638 254.178 92.3349 255.659 88.306C257.082 84.4551 258.503 80.5454 259.925 76.6945C261.348 72.9024 262.71 69.1103 264.073 65.3182C265.435 61.5262 266.858 57.7944 268.22 54.0024C269.464 50.6251 270.709 47.189 271.953 43.8117C272.546 42.2113 273.137 40.5521 273.789 38.9532C274.145 38.0044 274.501 37.116 274.855 36.1688C275.033 35.6936 275.211 35.22 275.389 34.8052C275.448 34.6875 275.508 34.5683 275.567 34.3904C275.33 34.2727 275.211 34.0947 274.974 33.9755C274.264 33.5019 273.552 33.0871 272.841 32.6723C272.605 32.4943 271.894 32.0795 271.419 31.7251C271.36 31.8427 271.241 31.9015 271.123 31.9015C271.065 32.0207 271.065 32.0795 271.065 32.1987C270.945 32.6723 270.767 33.1459 270.65 33.5607C270.353 34.4492 270.057 35.3391 269.76 36.2276C269.227 37.7676 268.635 39.368 268.042 40.9669C267.39 42.6849 266.797 44.4634 266.146 46.1814C265.435 48.1363 264.665 50.1499 263.954 52.1063C263.183 54.1788 262.414 56.3132 261.643 58.3857C260.162 62.4146 258.622 66.5039 257.141 70.5916C255.718 74.5013 254.237 78.4713 252.756 82.3826C251.335 86.1731 249.971 89.9652 248.549 93.7573C247.187 97.4317 245.825 101.163 244.461 104.897C243.099 108.511 241.796 112.184 240.432 115.798C239.07 119.412 237.707 123.086 236.403 126.7C235.456 129.188 234.566 131.677 233.619 134.165C233.145 135.41 232.67 136.713 232.197 137.957C232.494 138.016 232.789 138.016 233.085 138.075ZM209.978 144.771C213.238 144.712 216.496 144.178 219.695 143.348C220.407 143.112 221.118 142.934 221.828 142.638C222.184 142.519 222.718 142.104 223.192 141.986C223.192 141.926 223.25 141.926 223.25 141.867H223.309C223.309 141.808 223.37 141.75 223.37 141.689V141.63C223.37 141.572 223.37 141.452 223.428 141.394C223.487 141.335 223.487 141.274 223.546 141.216C223.546 140.979 223.606 140.742 223.665 140.564C223.843 139.971 223.961 139.378 224.08 138.787C224.317 137.66 224.612 136.535 224.968 135.469C224.554 135.173 224.139 134.935 223.665 134.639C222.894 134.165 222.184 133.692 221.474 133.217C221.413 133.751 221.354 134.283 221.237 134.817C220.998 136.061 220.466 137.245 219.873 138.372C219.221 139.617 218.333 140.86 216.911 141.216C215.607 141.63 214.245 141.808 212.882 142.045C211.874 142.223 210.868 142.341 209.86 142.519C209.15 142.638 208.438 142.756 207.669 142.875C208.201 143.407 208.735 143.941 209.326 144.474C209.446 144.593 209.563 144.712 209.682 144.83C209.802 144.712 209.919 144.712 209.978 144.771ZM212.052 127.884C211.874 128.655 211.698 129.425 211.401 130.137C210.749 131.381 209.86 132.447 208.616 133.099C207.964 133.395 207.372 133.751 206.661 133.868C205.949 134.046 205.18 134.283 204.468 134.402C202.217 134.58 200.024 135.054 197.774 135.173C197.418 135.173 197.24 134.935 197.24 134.639C196.766 134.283 196.293 133.868 195.819 133.453C194.277 132.211 192.737 131.025 191.197 129.722C190.485 129.07 189.834 128.536 189.006 128.004C188.886 127.943 188.767 127.826 188.767 127.648V127.53C188.591 127.589 188.472 127.589 188.294 127.589C187.879 127.648 187.464 127.767 187.049 127.826C185.865 128.062 184.738 128.24 183.554 128.477C182.427 128.714 181.243 128.892 180.118 129.129C178.991 129.366 177.866 129.544 176.741 129.722C175.614 129.9 174.489 130.137 173.364 130.314C172.534 130.491 171.704 130.61 170.875 130.788C171.053 130.966 171.231 131.084 171.407 131.262C172.356 132.15 173.364 132.98 174.311 133.868C175.26 134.758 176.207 135.647 177.215 136.594C178.162 137.543 179.169 138.431 180.177 139.378C181.124 140.268 182.073 141.157 183.02 142.104C183.969 143.053 184.975 143.941 185.924 144.888C186.871 145.837 187.879 146.726 188.828 147.674C189.775 148.622 190.724 149.51 191.73 150.399C192.678 151.289 193.626 152.236 194.575 153.124C195.522 154.013 196.41 154.903 197.359 155.791C198.189 156.56 199.018 157.331 199.848 158.161H199.965C200.499 158.042 201.032 157.865 201.566 157.746C203.994 157.094 206.424 156.443 208.912 156.087C210.868 155.791 212.823 155.257 214.778 154.842C215.785 154.666 216.793 154.605 217.799 154.547H218.096L218.036 154.488C217.681 154.013 217.208 153.598 216.793 153.185C215.134 151.406 213.355 149.747 211.637 148.029C210.393 146.667 208.972 145.481 207.728 144.119C207.491 143.822 206.188 142.519 206.898 142.282H207.076C207.135 142.104 207.254 141.926 207.491 141.867C208.084 141.808 208.675 141.75 209.209 141.63C210.512 141.394 211.874 141.274 213.238 140.979C214.422 140.742 215.607 140.623 216.793 140.208C218.511 139.676 219.636 136.95 220.229 135.349C220.407 134.876 220.525 134.402 220.584 133.929C220.644 133.692 220.762 133.099 220.94 132.802C220.881 132.743 220.822 132.684 220.703 132.684C219.636 131.972 218.57 131.262 217.503 130.61C216.496 129.959 215.429 129.307 214.422 128.596C213.711 128.121 212.941 127.648 212.23 127.174V127.233C212.171 127.411 212.112 127.648 212.052 127.884ZM169.63 98.557C169.867 98.6746 170.045 98.7938 170.223 98.913L175.911 102.586C177.985 103.948 180.118 105.251 182.191 106.615C184.324 107.977 186.398 109.34 188.53 110.702C190.663 112.066 192.737 113.428 194.87 114.79C197.063 116.213 199.255 117.576 201.388 118.997C203.58 120.419 205.773 121.782 207.906 123.204C209.978 124.568 212.052 125.871 214.126 127.233C215.134 127.884 216.2 128.536 217.208 129.248C218.274 129.9 219.341 130.61 220.347 131.262C221.413 131.913 222.48 132.625 223.546 133.277C224.495 133.868 225.383 134.461 226.332 135.113C227.279 135.764 228.287 136.357 229.234 137.009C229.649 137.306 230.064 137.601 230.479 137.897C230.598 138.016 230.776 138.135 230.893 138.194C231.013 137.838 231.13 137.543 231.249 137.245C232.019 135.173 232.789 133.158 233.56 131.084C233.5 131.025 233.441 131.025 233.382 131.025C233.085 130.847 232.789 130.729 232.433 130.551C231.308 129.959 230.183 129.307 229.116 128.714C227.99 128.062 226.864 127.47 225.798 126.818C223.546 125.515 221.296 124.212 218.985 122.908C216.733 121.605 214.422 120.3 212.171 118.997C209.86 117.635 207.491 116.271 205.121 114.968C202.81 113.606 200.499 112.303 198.189 110.939C195.819 109.577 193.448 108.214 191.078 106.852C188.708 105.49 186.339 104.126 183.969 102.764C181.599 101.4 179.289 100.038 176.917 98.6746C175.792 98.023 174.608 97.3714 173.481 96.6609C172.89 96.305 172.356 96.0093 171.763 95.6533C171.468 95.4753 171.231 95.2973 170.934 95.1797C170.756 95.0605 170.579 94.9429 170.401 94.8825C170.342 94.8825 170.342 94.8237 170.342 94.8237H170.282C169.928 95.9505 169.513 97.1346 169.157 98.2598C169.274 98.3202 169.513 98.4378 169.63 98.557Z" fill="black"/>
<path d="M103.865 62.119H103.213V62.2382C103.272 62.7118 102.799 63.0074 102.443 63.1854C102.325 63.2442 102.206 63.2442 102.088 63.2442C101.673 63.2442 101.198 62.9486 101.08 62.5338V62.4146C100.251 62.653 99.4212 63.0662 98.6504 63.5414C98.5916 63.5414 98.5328 63.6002 98.474 63.6002C97.9988 63.6002 97.762 62.9486 98.1768 62.653C99.4212 61.8822 100.844 61.2894 102.325 61.1718H102.562C103.154 61.1718 103.746 61.1718 104.221 61.585C104.695 61.8822 104.339 62.1778 103.865 62.119Z" fill="black"/>
<path d="M13.7476 138.727C14.0432 137.305 14.2212 135.943 14.5184 134.52C15.1096 131.855 15.8216 129.247 16.71 126.699C17.7765 123.737 19.1989 120.893 20.6801 118.109C21.7465 116.035 23.1086 114.139 24.353 112.184C26.0122 109.873 27.4935 107.504 29.3307 105.252C30.2191 104.244 31.1076 103.238 31.996 102.23C33.2404 100.867 34.6025 99.6237 35.9072 98.3793C38.8093 96.0081 41.5938 93.5208 44.5563 91.3276C46.0375 90.1435 47.6967 89.1948 49.2972 88.1283C49.8884 87.7739 50.4224 87.4179 51.0152 87.0031C51.4888 86.7075 52.0228 86.4691 52.6141 86.4691C52.5552 85.9367 52.8509 85.4027 53.326 84.3966C53.7409 83.567 54.2145 82.7962 54.6881 81.9666C54.9249 81.493 55.3397 81.2562 55.6957 80.8413C55.7545 80.7825 55.8133 80.7222 55.8737 80.6045C55.5765 80.4265 55.3985 80.1309 55.1617 79.8337C54.6293 78.8865 54.0953 77.9377 53.5629 76.9904C52.4964 74.9164 51.4888 72.8424 50.6004 70.7095C49.9488 69.1107 49.5928 67.4514 49.2368 65.7922C48.822 64.133 48.6455 62.4149 48.5264 60.6381C48.3484 58.6229 48.3484 56.6092 48.5264 54.6528C49.356 48.6102 51.8448 42.4485 55.7545 37.768C57.7697 35.5159 60.1394 33.6199 62.6871 31.9607C66.538 29.3542 70.8625 27.6362 75.4842 26.8065C76.8478 26.4505 78.2686 26.4505 79.6911 26.5109C85.9116 26.8065 88.4593 27.4582 93.437 29.235C94.6814 29.6498 95.9258 30.2426 97.051 30.8354C98.2366 31.487 99.3619 32.1975 100.369 33.0271C101.376 33.8567 102.383 34.7451 103.272 35.6939C104.22 36.7015 105.05 37.8268 105.702 38.952C106.353 40.0788 106.946 41.2629 107.42 42.5661C107.834 43.8709 108.13 45.233 108.249 46.595C108.367 47.8998 108.249 49.2618 107.952 50.5651C107.834 51.0387 107.715 51.5727 107.537 51.9875C107.715 51.9287 107.952 51.9287 108.13 51.9875C108.901 52.1655 109.433 52.8171 109.789 53.4687C110.145 54.1203 110.441 54.8308 110.619 55.5428C110.975 56.9636 111.153 58.5052 111.093 59.9865C111.093 60.6969 111.034 61.4677 110.915 62.1781C110.797 62.9489 110.678 63.6594 110.441 64.3698C110.204 65.0818 109.967 65.7922 109.553 66.4438C109.257 66.9175 108.901 67.3323 108.486 67.6294C108.545 67.6882 108.545 67.8059 108.604 67.8662C108.96 68.5179 109.433 69.2283 109.375 69.9991C109.197 71.1243 108.249 71.6583 107.242 71.954C107.242 72.0128 107.242 72.0128 107.3 72.0731C107.478 72.9012 107.361 73.7308 107.242 74.5016C107.064 75.746 106.531 76.9301 105.76 77.9981L105.702 78.0569C105.76 78.1157 105.819 78.2349 105.938 78.2937C106.471 78.0569 107.064 78.1157 107.478 78.6497C108.308 79.4189 109.019 80.3677 109.433 81.3738C109.494 81.6121 109.611 81.849 109.611 82.0858C109.967 82.4402 110.323 82.855 110.619 83.2698C110.678 83.389 110.856 83.745 110.915 83.9818C110.975 83.9818 111.034 83.9214 111.093 83.9214C111.744 83.9214 112.456 84.8114 112.871 85.285C113.818 86.5295 114.292 88.0695 114.707 89.5507C115.299 91.032 115.004 91.8616 114.233 93.1648C113.286 94.7049 111.922 95.9493 110.738 97.3717C110.085 98.2013 110.085 99.3266 110.085 100.275C110.323 103.355 110.738 106.437 111.093 109.517C111.329 111.413 111.449 113.309 111.566 115.264C112.633 116.509 113.523 117.931 114.292 119.353C115.004 120.893 115.536 122.611 115.892 124.33C116.722 128.536 117.491 132.921 116.307 137.127C115.951 138.431 115.419 139.735 114.707 140.919C114.114 141.809 113.403 142.578 112.574 143.23C110.738 144.711 108.842 146.133 106.59 147.022C105.524 147.378 104.457 147.732 103.391 147.91C103.984 147.97 104.516 148.147 105.109 148.325C105.582 148.503 106.056 148.562 106.531 148.681C107.598 148.147 108.664 147.673 109.672 147.141C112.337 145.896 115.004 144.593 117.61 143.171C120.868 141.334 124.187 139.557 127.445 137.541C130.705 135.645 133.785 133.276 137.459 132.092C138.289 131.795 141.25 131.143 141.428 131.143C141.606 131.143 141.725 131.202 141.903 131.262C141.962 131.262 142.02 131.321 142.079 131.321C142.198 131.38 142.318 131.499 142.435 131.558C142.791 131.795 143.087 132.092 143.384 132.328C143.975 132.861 144.509 133.395 145.102 133.988C145.635 134.579 146.169 135.232 146.642 135.943C146.76 136.121 146.82 136.238 146.938 136.416C147.057 136.594 147.175 136.772 147.235 136.95C147.294 137.127 147.413 137.305 147.472 137.483C147.531 137.661 147.65 137.839 147.709 138.017C147.767 138.075 147.767 138.193 147.709 138.253C148.241 138.905 148.953 139.674 149.19 140.445C149.546 140.801 149.841 141.156 150.019 141.631C150.197 141.926 150.256 142.282 150.375 142.578C150.493 142.875 150.552 143.23 150.256 143.527C149.722 144.059 148.894 143.881 148.241 143.644C147.767 143.527 147.294 143.408 146.76 143.349C143.739 142.815 141.725 143.527 139.236 145.184C137.221 146.429 135.622 148.266 133.845 149.806C131.711 151.702 129.697 153.657 127.564 155.494C124.958 157.686 122.232 159.82 119.387 161.715C118.025 162.544 117.137 163.256 115.833 164.145C115.655 165.092 115.358 165.982 114.885 166.81C113.64 168.411 111.981 169.536 110.619 171.017C108.901 172.854 107.005 174.572 104.813 175.817C103.628 176.646 102.383 177.417 101.021 177.95C99.9547 178.306 98.9471 178.72 97.8218 178.838H97.407C96.6362 178.838 96.1626 178.66 95.8654 178.306C95.333 178.601 94.9182 179.016 94.4446 179.312C93.8518 179.787 93.2001 180.141 92.5485 180.556C90.7701 181.622 88.8741 182.452 86.978 183.401C84.5496 184.763 82.0019 185.948 79.3351 186.778C77.0258 187.547 74.5369 188.023 72.1069 188.081C69.9741 188.081 67.9 187.608 65.8275 187.252C63.5167 186.659 61.2058 185.829 59.0142 184.941C58.1242 184.585 57.2358 184.23 56.3473 183.933C55.3397 183.579 54.4513 182.986 53.5629 182.512C53.0289 182.215 52.5552 181.92 52.0228 181.564C51.9036 181.622 51.7845 181.683 51.6668 181.622C51.1328 181.564 50.6004 181.683 50.0076 181.683C49.2368 181.742 48.4675 181.742 47.7556 181.742C46.6303 181.742 45.4463 181.861 44.3195 181.92C41.4762 181.92 38.6917 181.622 35.9072 181.09C33.9508 180.734 31.996 180.141 30.0411 179.609C28.3231 179.016 26.5447 178.423 24.887 177.594C21.5097 175.758 18.6649 173.032 16.7689 169.714C15.17 166.988 14.458 163.849 13.6284 160.826C13.274 159.405 12.9768 158.042 12.8003 156.619C12.6223 154.784 12.5032 152.947 12.4443 151.109C12.5032 147.258 13.0371 142.993 13.7476 138.727ZM55.8133 82.3226C55.2221 83.1522 54.6881 84.0994 54.2145 85.0482C54.0365 85.5219 53.6805 85.9955 53.6217 86.5883C53.9173 87.0619 54.3321 87.4767 54.6293 87.9503C55.8133 89.3139 57.0578 90.7364 58.2434 92.0984C60.7322 95.0021 63.2799 97.8453 65.8275 100.69C68.1384 103.297 70.4477 105.844 72.4629 108.629C73.1145 109.578 73.8249 110.525 74.4766 111.472C74.8914 112.125 75.3062 112.716 75.721 113.309C76.3726 114.02 76.8478 114.969 77.617 115.561C78.2098 116.094 78.5658 115.205 78.8614 114.791C79.5131 113.961 79.9867 112.953 80.5795 112.065C81.5283 110.525 82.4755 109.044 83.2463 107.384C83.4831 106.852 83.7788 106.318 84.0156 105.844C83.9568 105.607 84.0759 105.371 84.2539 105.252C84.3128 105.074 84.3716 104.896 84.3716 104.659C84.6084 102.704 83.8391 101.579 82.7727 100.097C80.9355 97.6673 79.0394 95.2977 77.2022 92.928C75.4842 90.854 73.6485 88.8403 71.7525 86.9443C70.508 85.5807 69.3224 84.1598 68.3148 82.6182C68.256 82.9154 68.1384 83.211 67.8412 83.3302C67.7824 83.3302 67.7236 83.389 67.6044 83.389C67.4264 83.389 67.3088 83.3302 67.1308 83.2698C66.7748 83.1522 66.4188 83.033 66.0643 82.9742C64.8199 82.7374 63.5167 82.6182 62.2134 82.4402C60.969 82.2638 59.7834 81.9666 58.539 81.6121C58.0654 81.493 57.5329 81.3738 57.1181 81.315C56.7033 81.5518 56.2885 81.9078 55.8133 82.3226ZM85.26 105.547C85.972 106.14 86.5044 106.911 87.0972 107.562C87.7488 108.451 88.5196 109.222 89.1713 110.051C89.5257 108.807 89.7641 107.443 89.8229 106.14C89.9405 104.778 90.0009 103.475 89.9405 102.111C89.7641 96.7789 88.4593 91.4468 85.5572 86.8839C85.4968 86.8839 85.438 86.8251 85.438 86.7663V86.7075C84.5496 87.6547 83.6023 88.6035 82.7123 89.4919C82.0607 90.1436 81.4679 90.7952 80.8163 91.5056C80.225 92.1572 79.6911 92.8692 79.0983 93.4605C79.8691 94.4093 80.5795 95.3565 81.3503 96.3641C82.2387 97.6085 83.2463 98.7338 84.0759 99.9782C84.7276 100.927 85.3204 101.874 85.438 102.999C85.5572 103.889 85.4968 104.719 85.26 105.547ZM93.081 89.1359C93.1413 88.8403 94.5034 87.1811 95.6286 86.0558C95.0358 85.9955 94.5034 85.8175 93.9106 85.7587C92.4294 85.463 90.9481 85.0482 89.5861 84.2774C89.1124 84.0994 88.6976 83.8626 88.2828 83.6258C87.9856 83.9214 87.69 84.2186 87.4532 84.5142C86.978 85.0482 86.5044 85.641 86.0308 86.1147C86.5044 86.6471 86.8016 87.2987 87.2164 87.8327C87.8077 88.7799 88.3416 89.9656 88.8153 91.032C88.9344 91.388 89.0521 91.6836 89.1713 92.0396C89.4081 92.394 89.6449 92.6912 89.8817 92.9868C90.5937 93.9356 91.3041 94.8829 91.9557 95.9493C92.3705 96.6009 92.7853 97.1937 93.2001 97.8453C92.903 96.1861 92.6073 94.4681 92.4882 92.8088C92.2514 91.6248 92.3117 90.2612 93.081 89.1359ZM92.4294 98.7941C91.5997 97.4305 90.8305 96.0685 90.0009 94.7652C90.0009 94.7652 90.0009 94.7049 89.9405 94.7049C90.8305 98.0822 91.1849 101.579 90.9481 105.074C90.8893 106.259 90.8305 107.384 90.6525 108.57C90.5937 108.985 90.4157 109.4 90.3553 109.873C90.2377 110.347 90.1185 110.881 89.8229 111.296C89.9405 112.658 90.0597 114.08 90.0009 115.442C89.9405 116.628 89.7037 117.872 89.4081 118.997C90.3553 117.872 91.5997 116.982 92.903 116.213C93.6738 115.798 94.5622 115.561 95.333 115.088C95.155 113.368 95.0358 111.71 94.9182 109.991C94.6814 106.97 94.2666 104.007 93.7326 101.045C93.7326 100.986 93.6738 100.986 93.6738 100.927C93.259 100.275 92.903 99.5046 92.4294 98.7941ZM109.079 66.029C109.197 65.7922 109.316 65.4966 109.433 65.1994C109.611 64.7846 109.731 64.311 109.848 63.8962C110.026 63.2446 110.145 62.5341 110.204 61.8825C110.263 61.1117 110.323 60.2821 110.323 59.4525C110.323 58.742 110.263 57.9712 110.085 57.2004C110.026 56.668 109.848 56.134 109.731 55.5428V55.4824C109.611 55.1868 109.494 54.8308 109.375 54.4763C109.257 54.2983 109.138 54.0615 109.079 53.8835C109.019 53.7644 108.901 53.6467 108.842 53.5275C108.782 53.4099 108.664 53.3495 108.604 53.2907C108.545 53.2319 108.486 53.1716 108.367 53.1127C108.308 53.0539 108.249 53.0539 108.19 52.9951C108.13 52.9347 108.071 52.9347 108.012 52.9347C107.893 52.8759 107.715 52.8171 107.656 52.7567H107.598C107.361 53.2907 107.122 53.7644 106.886 54.2983C106.412 55.1868 105.819 55.9576 105.168 56.7268C105.228 56.9048 105.287 57.0828 105.346 57.2004C105.524 57.7932 105.643 58.3272 105.702 58.92C105.76 59.4525 105.819 60.0453 105.819 60.5777V61.4677C106.353 61.4073 106.827 61.5265 107.361 61.4073C108.012 61.5265 107.893 62.3561 107.3 62.4149C106.946 62.5341 106.175 62.4149 105.819 62.1193C105.819 62.3561 105.76 62.5929 105.76 62.8297C106.056 63.3034 106.531 64.311 106.709 64.6066C107.183 65.4362 107.776 66.2658 108.249 67.0954C108.249 67.0954 108.308 67.0954 108.308 67.0366C108.367 66.9778 108.427 66.9174 108.486 66.8586C108.545 66.7395 108.664 66.6806 108.723 66.563C108.901 66.385 109.019 66.207 109.079 66.029ZM106.531 74.5016C106.649 73.85 106.827 73.1396 106.768 72.4276C106.116 72.5468 105.465 72.5468 104.931 72.6644C104.22 72.6644 103.272 72.4879 102.857 71.8348C102.68 71.6583 102.561 71.3023 102.68 71.0655C102.857 70.7683 103.272 70.7683 103.45 71.0067C103.569 71.1243 103.686 71.3023 103.806 71.42C104.279 71.6583 104.813 71.7171 105.287 71.6583C106.294 71.5391 107.361 71.4803 108.249 70.9463C108.486 70.7095 108.782 70.4139 108.664 70.0579C108.486 69.5255 108.13 69.1107 107.893 68.5767C107.122 67.0366 105.88 65.6142 105.582 63.8374C105.465 64.489 105.346 65.1994 105.109 65.851C104.931 66.4438 104.694 67.0366 104.457 67.6294C103.984 68.6355 103.332 69.6431 102.502 70.3535C102.088 70.7095 101.612 71.0655 101.08 71.2435C100.665 71.42 100.25 71.4803 99.8355 71.4803H99.4795C98.8883 71.42 98.3543 71.1832 97.8807 70.8875C97.3467 70.5315 96.9319 70.1167 96.6362 69.6431C96.2214 69.0503 95.8654 68.3987 95.5698 67.7471C95.333 67.1543 95.155 66.563 95.0358 65.9098C94.799 64.7846 94.6814 63.6005 94.6814 62.4149C94.6814 62.1193 94.6814 61.8825 94.7402 61.5853C94.0886 61.6441 93.437 61.7045 92.7853 61.7045H92.6073C91.3629 61.7045 90.1185 61.5853 88.9344 61.3485C88.2828 61.2293 87.69 61.1117 87.0972 60.9337C86.978 60.8749 86.8604 60.8145 86.8016 60.6969C86.7412 60.5777 86.7412 60.4013 86.7412 60.2821C86.7412 60.1629 86.8604 60.0453 86.978 59.9865C87.0972 59.9261 87.2164 59.9261 87.334 59.9261C87.4532 59.9865 87.5708 59.9865 87.6312 59.9865C88.4593 60.1629 89.3493 60.3409 90.2377 60.4601C91.1849 60.5777 92.1337 60.6381 93.081 60.5777C93.615 60.5777 94.1474 60.5189 94.6814 60.4601C94.7402 59.8673 94.8594 59.3333 94.977 58.742C95.2138 57.6152 95.6286 56.49 96.1626 55.4236C96.6951 54.3572 97.4659 53.3495 98.4735 52.6979C98.9471 52.4023 99.4795 52.1655 100.014 52.1051C100.369 52.0463 100.724 52.0463 101.08 52.1051C101.376 52.1655 101.732 52.2831 102.027 52.4023C102.324 52.5199 102.62 52.7567 102.857 52.9347C103.094 53.1127 103.272 53.3495 103.508 53.5275C103.686 53.7644 103.864 54.0012 104.042 54.238C104.162 54.4763 104.338 54.7131 104.457 54.95C104.516 55.128 104.635 55.3044 104.694 55.4824C104.872 55.3044 104.99 55.128 105.168 54.95C105.465 54.5352 105.702 54.1203 105.997 53.7055C106.234 53.2907 106.471 52.8171 106.649 52.3435V52.2831C106.827 51.8095 107.005 51.3359 107.122 50.8623C107.242 50.3871 107.361 49.8546 107.42 49.3207C107.478 48.7279 107.478 48.1366 107.478 47.6026C107.478 46.951 107.42 46.3582 107.3 45.7654C107.183 45.1138 107.064 44.4622 106.827 43.8105C106.59 43.1001 106.353 42.4485 106.056 41.7969C105.702 41.0849 105.346 40.3744 104.931 39.664C104.516 38.952 103.984 38.3004 103.45 37.59C102.857 36.8795 102.266 36.2264 101.612 35.5748C100.902 34.8643 100.133 34.2715 99.3031 33.6787C98.4735 33.0875 97.5835 32.4947 96.6951 32.021C95.7478 31.487 94.7402 31.0134 93.6738 30.5986H93.615C93.3782 30.4794 93.2001 30.4206 92.9633 30.3618C92.3705 30.125 91.7189 29.947 91.1261 29.769C88.2828 28.7614 83.8979 27.8141 79.2763 27.8141C78.4466 27.8141 77.6774 27.8141 76.8478 27.9318C74.5957 28.3466 72.4041 28.8218 70.2712 29.591C67.4264 30.5986 64.7611 32.1387 62.2723 33.9171C60.435 35.2203 58.6582 36.6412 57.1181 38.3004C55.7545 39.7816 54.6293 41.4409 53.6805 43.1589C52.4376 45.5889 51.3108 48.0762 50.6004 50.6843C50.0664 52.6391 49.5928 54.6528 49.534 56.7268C49.4148 59.1568 49.6516 61.5853 49.9488 64.0154C50.3636 66.2658 50.7784 68.5179 51.608 70.7095C52.4376 72.7836 53.4437 74.8576 54.5101 76.8713C55.1029 77.9377 55.5765 79.0645 56.3473 80.0705C57.1769 80.4265 58.0654 80.4265 58.9538 80.7222C59.9026 80.959 60.791 81.2562 61.7383 81.3738C63.5755 81.7298 65.5303 81.671 67.3088 82.2638C67.4264 81.315 67.5456 80.3677 67.7236 79.4189C67.7824 79.0041 68.7296 79.9529 68.5532 80.6633C68.4928 80.959 68.434 81.2562 68.434 81.6121C68.5532 81.7886 68.7296 81.9666 68.8488 82.1446C69.974 83.567 71.1597 84.9894 72.4041 86.3515C73.9441 87.8915 75.4842 89.4919 76.9066 91.1512C77.3802 91.7424 77.8538 92.3352 78.329 92.8692C79.3954 91.7424 80.3427 90.5584 81.4091 89.4919C82.6535 88.1887 83.8979 86.9443 85.1424 85.6999C85.794 84.9291 86.4456 84.1598 87.2164 83.5082C87.2752 83.4478 87.334 83.4478 87.3929 83.389C86.4456 82.7374 85.5572 81.9078 84.7276 81.0782C84.4908 80.8413 84.2539 80.5457 84.0156 80.2485C83.7788 80.0705 83.7199 79.5969 84.0156 79.4189C84.4907 79.0645 84.7864 79.5381 85.0835 79.8337C85.438 80.1897 85.7352 80.6045 86.15 80.959C87.0972 81.849 88.0445 82.6786 89.1713 83.2698C89.7037 83.5082 90.1789 83.745 90.6525 83.9818C91.6601 84.4554 92.7265 84.7511 93.8518 84.9894C94.9182 85.2262 96.0434 85.463 97.1099 85.3439C97.6439 85.285 98.1175 85.1659 98.6515 85.1071C98.9471 85.0482 99.1839 84.9291 99.4795 84.9291C99.7767 83.8038 100.309 82.7962 100.843 81.671C101.436 80.3677 102.324 77.7597 103.864 77.4053C104.398 77.3449 104.813 77.5833 105.168 77.9377L105.228 77.8789C105.88 76.6933 106.353 75.6269 106.531 74.5016ZM101.851 59.2745C100.724 59.9261 99.5399 60.4013 98.2955 60.8145C97.7615 60.9925 97.1099 61.1117 96.5171 61.2293C96.2803 61.2897 95.9846 61.3485 95.7478 61.3485C95.7478 61.5853 95.689 61.8825 95.689 62.1193C95.689 62.8297 95.689 63.4814 95.8066 64.1918C95.8654 64.7846 95.9846 65.3774 96.1022 65.9702C96.2214 66.4438 96.3406 66.8586 96.5171 67.2734C96.6362 67.6294 96.8142 67.9251 96.9922 68.2207C97.1099 68.459 97.2879 68.6959 97.407 68.8723C97.5247 69.0503 97.7027 69.2283 97.8218 69.4063C97.9395 69.5255 98.0587 69.6431 98.1763 69.7019C98.2955 69.7623 98.4131 69.8799 98.5323 69.9387C98.6515 69.9991 98.7691 70.0579 98.8883 70.1167C99.0059 70.1771 99.0647 70.1771 99.1839 70.2359C99.3031 70.2947 99.4207 70.2947 99.4795 70.2947C99.5399 70.2947 99.7179 70.2947 99.7767 70.3535H100.133C100.25 70.3535 100.369 70.2947 100.428 70.2947C100.546 70.2359 100.665 70.2359 100.784 70.1771C100.902 70.1167 101.021 70.0579 101.139 69.9991C101.258 69.9387 101.436 69.8211 101.554 69.7623C101.673 69.6431 101.851 69.5255 101.968 69.4063C102.146 69.2283 102.324 69.0503 102.502 68.8135C102.68 68.5767 102.857 68.3399 103.035 68.0442C103.272 67.6882 103.45 67.3323 103.628 66.9174C103.864 66.4438 103.984 65.9702 104.162 65.4362C104.338 64.7846 104.457 64.1918 104.575 63.5402C104.694 62.8297 104.753 62.0589 104.753 61.3485V60.9337C104.753 60.3409 104.694 59.8085 104.635 59.2157C104.575 58.6817 104.457 58.0301 104.338 57.4388C103.628 58.1492 102.798 58.742 101.851 59.2745ZM104.042 56.312L103.984 56.2532C103.864 55.8972 103.686 55.5428 103.508 55.2456C103.391 55.0676 103.272 54.8911 103.213 54.772C103.035 54.5352 102.857 54.3572 102.68 54.1203C102.561 54.0012 102.442 53.8835 102.324 53.7644C102.205 53.6467 102.088 53.5864 101.968 53.5275C101.851 53.4687 101.732 53.4099 101.612 53.3495C101.554 53.2907 101.436 53.2907 101.317 53.2319C101.199 53.1716 101.08 53.1716 101.021 53.1716C100.902 53.1716 100.784 53.1716 100.724 53.1127H100.428C100.309 53.1127 100.192 53.1716 100.133 53.1716C100.014 53.2319 99.8943 53.2319 99.7767 53.2907C99.6575 53.3495 99.5399 53.4099 99.4207 53.4687C99.3031 53.5864 99.1251 53.6467 99.0059 53.7055C98.8279 53.8232 98.7103 53.9423 98.5323 54.1203C98.3543 54.2983 98.1763 54.4763 98.0587 54.6528C97.8807 54.8911 97.7027 55.128 97.5247 55.4236C97.2879 55.7796 97.1099 56.134 96.9319 56.5488C96.6951 57.024 96.5171 57.5564 96.3406 58.0904C96.1626 58.6817 96.0434 59.3333 95.9258 59.9865C95.9258 60.1041 95.8654 60.2233 95.8654 60.3409C96.5171 60.2233 97.2879 60.1041 97.9983 59.8673C98.4735 59.7481 98.4735 59.7481 98.0587 59.8673C98.7103 59.6893 99.3619 59.4525 100.014 59.1568C100.606 58.92 101.199 58.6229 101.732 58.2669C102.205 57.9712 102.68 57.6756 103.094 57.3196C103.391 56.9048 103.686 56.6092 104.042 56.312ZM100.843 88.7211C100.961 88.6035 101.139 88.4255 101.258 88.3063C101.317 88.1887 101.436 88.0695 101.554 87.9503V87.4179C101.612 86.8839 101.612 86.3515 101.612 85.8175C101.732 85.0482 102.205 84.3966 102.561 83.6846C103.391 82.2638 104.22 80.9002 105.109 79.5381C105.228 79.3601 105.346 79.1821 105.524 79.0645C105.465 79.0041 105.404 79.0041 105.346 78.9453C105.109 78.7085 104.872 78.4717 104.575 78.3525C104.398 78.2937 104.22 78.1157 103.984 78.2349C103.272 78.7673 102.976 79.5381 102.561 80.3074C102.027 81.4341 101.612 82.5006 101.08 83.6258C100.724 84.3363 100.369 85.107 100.309 85.9367C100.309 86.8251 100.428 87.7739 100.843 88.7211ZM107.537 79.8337C106.531 78.4717 105.997 80.1309 105.465 80.9002C104.753 82.1446 104.042 83.3302 103.332 84.5746C103.094 84.9291 102.917 85.285 102.739 85.6999C102.62 86.1147 102.68 86.5295 102.68 87.0031C102.68 88.1283 102.502 89.3139 102.68 90.4392C103.035 90.2024 103.391 90.0244 103.806 89.8464H103.864C103.923 89.0771 104.042 88.3063 104.162 87.5959C104.279 86.7663 104.753 85.9367 105.228 85.2262C105.702 84.3363 106.353 83.567 106.946 82.7962C107.42 82.1446 108.071 81.315 108.842 81.493C108.308 80.9002 108.012 80.3074 107.537 79.8337ZM110.204 84.0994C109.611 83.5082 109.138 82.7962 108.427 82.3814C107.893 82.7374 107.656 83.389 107.242 83.8626C106.709 84.4554 106.294 85.1659 105.938 85.8778C105.643 86.3515 105.346 86.8251 105.168 87.3591C104.931 88.0107 104.872 88.7211 104.813 89.4316C104.694 90.498 104.457 91.566 104.635 92.6324C105.168 92.2764 105.582 91.6836 106.175 91.2688H106.234V91.032C106.294 90.3804 106.531 89.7287 106.827 89.0771C107.005 88.5431 107.122 87.9503 107.478 87.4767C108.071 86.7075 108.842 86.1147 109.611 85.463C109.967 85.1659 110.323 84.8114 110.738 84.5746C110.441 84.4554 110.382 84.2186 110.204 84.0994ZM111.627 126.048V125.337C111.627 125.159 111.093 118.405 110.915 116.094C110.797 114.139 110.678 112.184 110.441 110.229C110.204 107.977 109.848 105.725 109.672 103.475C109.494 101.105 108.782 98.2601 110.797 96.4229C111.805 95.18 113.108 93.9944 113.937 92.572C114.589 91.566 114.648 91.032 114.174 89.9067C113.877 88.9579 113.523 88.0107 112.989 87.1223C112.633 86.2927 112.1 85.5219 111.39 84.9894C110.856 85.2262 110.441 85.5807 109.967 85.9367C109.316 86.4691 108.604 87.0031 108.13 87.6547C107.834 88.1283 107.715 88.7211 107.537 89.2551C107.183 90.0847 107.005 91.032 106.946 91.9204C108.012 90.676 109.257 89.5507 110.56 88.5431C111.093 88.1887 111.744 88.5431 111.685 89.1948C111.685 89.3727 111.449 89.5507 111.271 89.4919C111.034 89.4316 110.975 89.2551 110.915 89.0771C110.5 89.3139 110.323 89.7876 110.026 90.1435C109.433 90.854 108.723 91.388 108.13 92.0396C107.776 92.394 107.478 92.75 107.122 92.9868C106.59 93.2236 106.353 92.8088 106.294 92.2764C105.938 92.6912 105.643 93.106 105.109 93.3428C104.99 93.4016 104.813 93.4605 104.694 93.4605C104.22 93.4605 103.747 93.0472 103.686 92.5132C103.628 91.9792 103.686 91.388 103.747 90.854V90.7364H103.686C103.391 90.9128 103.094 91.1512 102.739 91.1512H102.62C102.027 91.1512 101.79 90.6172 101.673 90.0847C101.612 89.7287 101.554 89.3728 101.554 88.9579C101.376 89.1359 101.199 89.3139 101.08 89.3727C100.961 89.4316 100.843 89.4316 100.784 89.4316C100.014 89.4316 99.6575 87.8327 99.5399 87.2399C99.3619 86.4691 99.3619 85.7587 99.4795 85.1071C98.7103 85.641 97.8218 85.8778 96.8731 85.9367C96.3994 86.5295 95.9258 87.0619 95.3918 87.6547C94.7402 88.3651 94.1474 89.1359 93.7326 89.9656C93.3178 90.7952 93.3781 91.8028 93.437 92.75C93.793 96.1861 94.5622 99.6237 95.0962 103.06C95.7478 106.615 95.9258 110.229 96.2214 113.902C96.3406 115.325 96.5171 116.745 96.6951 118.168C96.7554 118.524 96.7554 118.878 96.8142 119.234C96.873 119.293 96.873 119.412 96.9319 119.53V119.59C96.9922 119.827 96.9922 120.123 97.051 120.359C97.1702 121.071 97.2879 121.841 97.4659 122.553C97.7027 123.559 98.0587 124.566 98.4131 125.574V125.633C98.7691 126.462 99.1251 127.351 99.5987 128.18C100.014 128.892 100.428 129.603 100.902 130.254C101.258 130.788 101.732 131.262 102.146 131.736C102.502 132.092 102.857 132.446 103.272 132.743C103.569 132.98 103.864 133.217 104.22 133.395C104.457 133.573 104.753 133.691 105.05 133.81C105.287 133.869 105.524 133.988 105.702 134.047C105.88 134.105 106.116 134.164 106.294 134.164C106.471 134.225 106.649 134.225 106.827 134.225H107.3C107.478 134.225 107.598 134.164 107.776 134.164C107.893 134.105 108.071 134.105 108.19 134.047C108.308 133.988 108.486 133.927 108.604 133.869C108.723 133.81 108.901 133.691 109.019 133.632C109.138 133.513 109.257 133.395 109.375 133.276C109.494 133.158 109.672 132.98 109.789 132.861C109.909 132.683 110.085 132.507 110.204 132.328C110.204 132.328 110.204 132.27 110.263 132.27C110.382 132.031 110.56 131.795 110.619 131.499C110.797 131.143 110.915 130.788 110.975 130.432C111.093 129.959 111.212 129.484 111.329 128.951C111.449 128.3 111.507 127.588 111.507 126.936C111.627 126.76 111.627 126.404 111.627 126.048ZM104.931 146.844C105.643 146.607 106.353 146.429 107.064 146.192C107.952 145.838 108.723 145.304 109.553 144.83C113.523 142.163 115.063 140.564 116.07 135.706C116.722 131.914 115.951 127.944 115.182 124.212C114.826 122.731 114.352 121.249 113.701 119.827C113.167 118.878 112.633 117.931 112.041 116.982C112.1 117.516 112.1 118.109 112.159 118.641C112.219 120.183 112.633 125.396 112.693 125.87C112.752 126.462 112.752 127.055 112.693 127.648C112.633 128.241 112.574 128.832 112.515 129.425C112.278 130.669 111.922 131.914 111.271 132.98C110.619 134.047 109.611 134.935 108.427 135.291C108.012 135.409 107.598 135.469 107.122 135.469C106.886 135.469 106.649 135.469 106.412 135.409C105.819 135.35 105.287 135.172 104.694 134.876C104.635 134.817 104.516 134.817 104.398 134.757C103.213 134.164 102.205 133.336 101.317 132.328C100.546 131.499 99.8355 130.491 99.2427 129.544C98.5911 128.417 97.9983 127.233 97.5247 125.989C97.3467 125.455 97.1702 124.981 96.9922 124.449C96.6951 123.441 96.3994 122.433 96.2214 121.426C96.1626 121.071 96.1022 120.657 96.0434 120.301C95.9258 120.064 95.8654 119.768 95.8654 119.53C95.7478 118.524 95.6286 117.516 95.511 116.509C95.511 116.331 95.4506 116.154 95.4506 115.916C94.7402 116.391 93.9694 116.687 93.2001 117.16C91.9557 118.049 90.7113 118.997 89.8229 120.301C88.9933 121.664 88.5196 123.204 88.2225 124.744C87.5708 127.826 87.2752 130.965 87.0384 134.105C86.978 134.639 86.9192 135.172 87.0384 135.706C87.2752 136.831 87.6312 137.956 88.0445 139.083C88.2828 139.793 88.6373 140.504 89.0521 141.097C89.4081 141.631 89.8817 142.163 90.4157 142.637C90.8305 142.697 91.0069 143.112 91.3041 143.29C91.9557 143.881 92.6662 144.474 93.3782 145.008C93.9106 145.54 94.6226 145.838 95.333 146.133C96.5774 146.666 97.9395 147.022 99.3031 147.2C101.139 147.495 103.094 147.378 104.931 146.844ZM91.4217 148.029C90.2965 148.8 88.9933 148.976 87.7488 149.452C87.9268 149.569 88.1048 149.688 88.3416 149.806C88.4593 149.866 88.5785 149.925 88.6976 149.984C88.7565 149.688 88.9344 149.452 89.1713 149.332C89.9405 148.977 90.8893 149.037 91.7189 148.859C93.1413 148.622 94.5622 148.325 95.9258 148.088C96.3406 148.029 96.7554 147.91 97.229 147.851C96.1022 147.556 95.0358 147.2 93.9694 146.666C93.9106 146.607 93.7929 146.607 93.7326 146.548C93.5546 146.666 93.3781 146.785 93.259 146.844C92.7265 147.258 92.0734 147.673 91.4217 148.029ZM116.248 163.078C117.137 162.427 117.847 161.893 118.855 161.302C120.988 159.879 123.062 158.279 125.134 156.739C126.201 155.791 127.269 155.021 128.335 154.072C129.756 152.829 131.119 151.524 132.54 150.281C134.082 148.918 135.503 147.378 137.103 146.074C138.821 144.711 140.717 143.466 142.85 142.815C144.509 142.282 146.286 142.578 148.004 142.756C148.597 142.815 149.131 143.112 149.722 143.112C149.427 141.985 148.656 141.156 147.709 140.623C146.998 140.089 146.169 139.793 145.339 139.615C144.746 139.498 144.273 139.674 143.68 139.852C142.969 140.03 142.257 140.327 141.606 140.564C140.836 140.801 140.124 140.979 139.414 141.275C138.643 141.57 138.228 141.156 138.88 140.742C139.177 140.564 139.414 140.445 139.71 140.267C140.539 139.793 141.428 139.557 142.318 139.142C142.672 138.964 143.146 138.905 143.561 138.786C144.036 138.608 144.451 138.431 144.983 138.49C145.813 138.49 146.642 138.727 147.413 139.142C146.82 138.49 146.169 137.839 145.635 137.127C145.398 136.831 145.161 136.594 144.865 136.299C144.568 136.001 144.212 135.409 143.68 135.528C143.324 135.528 143.028 135.765 142.672 135.884C141.664 136.299 140.717 136.831 139.768 137.365C139.058 137.719 138.348 138.134 137.636 138.49C137.281 138.727 136.808 138.846 136.569 138.431C136.452 138.195 136.569 137.839 136.808 137.719C136.925 137.661 136.984 137.661 137.103 137.602C137.459 137.424 137.814 137.246 138.111 137.068C139.768 136.238 141.369 135.172 143.206 134.639C144.273 134.342 145.042 135.172 145.754 135.884C145.576 135.647 145.398 135.469 145.161 135.232C144.687 134.757 144.212 134.283 143.739 133.81C143.384 133.454 142.318 132.565 142.02 132.27C141.962 132.209 141.842 132.209 141.725 132.209C140.895 132.446 137.044 133.691 135.207 134.639C132.481 136.121 129.934 137.897 127.269 139.437C123.772 141.453 120.277 143.466 116.722 145.362C115.419 146.074 114.114 146.666 112.752 147.319C111.39 147.97 110.026 148.681 108.604 149.332C110.797 149.925 112.396 151.88 113.581 153.776C114.174 154.725 114.589 155.731 115.004 156.739C115.299 157.509 115.655 158.22 115.833 158.991C116.01 160.294 116.248 161.715 116.248 163.078ZM97.8218 178.186C98.7103 178.128 99.5399 177.772 100.369 177.535C101.732 177.12 102.976 176.349 104.162 175.58C105.643 174.631 107.123 173.684 108.308 172.439C109.494 171.373 110.5 170.129 111.685 169.062C112.574 168.291 113.462 167.522 114.233 166.573C115.892 163.789 115.063 160.234 113.877 157.39C112.871 154.784 111.39 152.117 108.901 150.636C108.308 150.281 107.656 150.162 107.005 149.984H106.886C106.768 149.984 106.649 149.925 106.59 149.866C106.056 149.747 105.582 149.628 105.05 149.51C104.279 149.274 103.508 149.154 102.739 149.037C102.146 148.977 101.554 148.976 101.021 148.918C100.25 148.918 99.4207 148.74 98.6515 148.74C98.4131 148.74 98.1763 148.74 97.9983 148.8C96.2802 149.037 94.5622 149.391 92.8442 149.747C91.8365 149.984 90.7701 149.984 89.7037 150.221C90.3553 151.051 91.3629 151.643 92.0145 152.473C93.0222 153.776 93.8518 155.257 94.6226 156.739C95.7478 158.694 96.6951 160.768 97.229 162.959C97.7027 165.092 98.1175 167.285 98.1763 169.536C98.2366 171.254 98.1763 173.032 97.8218 174.691C97.6438 175.521 97.407 176.409 97.1702 177.239C96.8142 178.186 96.873 178.186 97.8218 178.186ZM14.0432 155.672C14.1624 158.101 14.814 160.531 15.4656 162.9C15.9392 164.618 16.4144 166.336 17.1248 167.937C18.8429 171.729 21.8054 174.868 25.3606 176.942C26.3079 177.476 27.2567 177.891 28.2627 178.245C29.4483 178.72 30.6339 179.135 31.818 179.431C33.5964 179.904 35.3144 180.378 37.0913 180.675C39.1653 181.031 41.2982 181.208 43.431 181.327C44.6755 181.386 45.9199 181.327 47.2231 181.208C48.5264 181.149 49.8296 181.208 51.1328 181.09C51.0152 181.031 50.9564 180.971 50.8372 180.853C48.9412 179.668 47.1643 178.484 45.5051 177.002C43.0162 174.928 40.3494 173.15 37.8621 171.136C35.9661 169.714 34.3657 168.055 33.0036 166.1C31.9372 164.738 30.8707 163.434 29.9823 162.012C29.5071 161.124 29.0335 160.116 28.6187 159.167C27.6715 156.619 26.7227 154.013 26.4859 151.287C26.427 150.814 26.3079 150.281 26.1902 149.806C26.1299 149.51 26.3079 149.274 26.605 149.154C26.9007 149.037 27.1375 149.274 27.2567 149.569C27.3743 150.043 27.4347 150.518 27.4935 150.992C27.6111 151.939 27.7303 152.947 27.9671 153.895C28.2627 155.021 28.6187 156.146 29.0335 157.273C29.5071 158.813 30.1588 160.235 30.9296 161.597C31.818 162.959 32.8256 164.204 33.7728 165.448C34.1877 165.922 34.4848 166.514 34.8996 166.988C35.4321 167.64 36.0837 168.233 36.6765 168.884C38.6314 170.602 40.7642 172.144 42.8986 173.625C43.8458 174.394 44.7931 175.106 45.7419 175.875C46.5715 176.527 47.3408 177.239 48.2307 177.891C49.2368 178.66 50.3032 179.312 51.3696 180.024C52.9112 181.09 54.4513 182.098 56.1105 182.986C56.999 183.518 58.0066 183.696 58.895 184.111C60.3762 184.763 61.9766 185.356 63.5167 185.89C65.2935 186.481 67.1308 186.896 68.9664 187.193C70.33 187.43 71.8113 187.667 73.2337 187.547C75.1297 187.489 77.0258 187.133 78.8026 186.541C80.3427 186.066 81.8239 185.592 83.3051 184.882C84.9644 184.23 86.5044 183.223 88.1637 182.512C90.5333 181.386 92.9633 180.319 95.0962 178.838C95.2138 178.779 95.689 178.484 96.1022 178.364C95.9846 177.832 96.1626 177.179 96.3994 176.351C96.6951 175.283 96.9922 174.157 97.1099 173.032C97.407 170.187 97.1702 167.344 96.5774 164.618C96.3406 162.959 95.8066 161.36 95.0962 159.82C94.0886 157.746 92.9633 155.731 91.7189 153.776C91.0673 152.829 90.1185 152.117 89.2889 151.287C84.6687 150.518 83.3051 142.993 81.9431 139.261C80.5207 134.342 79.4542 129.247 77.8538 124.33C76.611 121.367 75.1297 118.463 73.1733 115.857C71.3377 113.546 69.0268 111.65 66.7748 109.814C66.182 109.458 65.6495 108.985 64.9376 108.866C64.6419 108.924 64.2859 108.748 64.2859 108.392C64.3463 107.443 65.5907 107.918 66.1232 108.155C69.0268 109.932 71.5745 112.362 73.8249 114.91C75.9578 117.634 77.5582 120.715 78.8614 123.856C81.1723 131.084 82.5359 138.668 85.3792 145.777C85.8528 146.785 86.3868 147.792 87.0972 148.681C87.9856 148.266 88.9933 148.088 89.9405 147.732C91.0673 147.258 92.0734 146.666 93.081 146.014C92.3117 145.482 91.5997 144.83 90.8893 144.178C90.6525 144.118 90.4745 143.881 90.2965 143.703C90.0597 143.466 89.7641 143.29 89.5257 143.052C88.1637 141.809 87.334 140.149 86.8016 138.371C86.4456 137.127 85.8528 135.765 86.0308 134.461C86.0308 134.342 86.0308 134.225 86.0896 134.105C85.9116 133.869 85.794 133.454 85.6748 133.276C85.1424 132.151 84.6084 130.965 84.0156 129.84C83.7199 129.188 83.364 128.595 83.0683 127.944C82.7727 127.351 83.6611 126.877 83.9568 127.529C84.6084 129.307 85.5572 131.025 86.15 132.802C86.3868 130.196 86.6236 127.529 87.156 124.922C87.334 124.093 87.512 123.204 87.7488 122.375C87.7488 122.316 87.69 122.316 87.69 122.316C87.5708 122.019 87.8077 121.723 87.8077 121.426C88.0445 120.242 88.4593 119.115 88.6976 117.931C88.8153 117.221 89.0521 116.509 89.1124 115.739C89.2889 114.495 89.2889 113.192 89.3493 111.887V111.591C89.1713 111.591 89.0521 111.532 88.9344 111.354C88.7565 111.057 88.5196 110.82 88.2828 110.584C87.9268 110.11 87.512 109.636 87.0972 109.222C86.6824 108.748 86.3264 108.273 85.9116 107.799C85.5572 107.384 85.2012 106.911 84.7864 106.555C84.3128 107.504 83.8979 108.392 83.4243 109.339C83.0095 110.169 82.4755 110.94 82.0019 111.769C81.1723 112.894 79.5131 116.509 78.329 116.745H78.0922C76.7874 116.745 76.077 115.264 75.3062 114.317C74.7149 113.606 74.1809 112.894 73.7073 112.065C72.4041 110.229 71.1008 108.333 69.6784 106.555C68.5532 105.193 67.4264 103.889 66.2423 102.526C63.6947 99.6237 61.0867 96.7789 58.5994 93.8753C56.9401 91.9204 55.1617 90.0244 53.5629 88.0107C53.326 87.7739 53.1481 87.5371 53.0289 87.2987C52.8509 87.2987 52.6744 87.2987 52.4964 87.3591C52.3773 87.4179 52.3184 87.4179 52.1404 87.4767C50.9564 88.1283 49.8884 88.9579 48.7632 89.6699C45.4463 91.6836 42.4838 94.2313 39.5213 96.7201C38.6314 97.4893 37.6841 98.2013 36.7957 98.9706C35.5513 100.097 34.3657 101.223 33.2404 102.348C32.174 103.533 31.1664 104.719 30.0999 105.844C28.6775 107.621 27.3743 109.517 26.1299 111.413C24.887 113.192 23.7014 114.969 22.5762 116.806C20.8581 119.768 19.3769 122.907 18.0133 126.106C16.888 129.307 15.9392 132.683 15.2876 136.001C14.636 139.793 13.9256 143.644 13.8064 147.495C13.6284 150.281 13.8668 153.005 14.0432 155.672Z" fill="black"/>
<path d="M175.496 90.973C188.293 98.7939 230.834 122.789 230.834 122.789L262.828 36.8205L193.271 36.5822L193.152 37.0573C193.152 37.0573 181.184 74.147 175.496 90.973Z" fill="white"/>
<path d="M230.834 123.323C230.893 123.323 230.954 123.323 231.012 123.264C231.13 123.204 231.249 123.086 231.308 122.967L263.302 36.998C263.361 36.82 263.361 36.642 263.244 36.5244C263.124 36.4052 263.007 36.286 262.829 36.286L193.271 36.0492C193.034 36.0492 192.856 36.2272 192.737 36.464L192.62 36.9392C192.442 37.4128 180.592 74.1464 175.023 90.8548C174.962 91.0916 175.023 91.3284 175.26 91.4476C187.939 99.2082 230.183 123.027 230.598 123.264C230.656 123.323 230.715 123.323 230.834 123.323ZM262.058 37.3524L230.539 122.02C225.62 119.235 188.413 98.2021 176.148 90.7356C179.111 81.9086 183.613 68.0435 186.931 57.8529C192.5 40.6709 193.449 37.7672 193.626 37.176L193.686 37.0568C193.686 37.1156 262.058 37.3524 262.058 37.3524Z" fill="black"/>
<path d="M237.529 53.2903C235.278 53.1135 233.621 51.0385 233.857 48.5513C234.035 46.1216 235.989 44.2857 238.239 44.4034C240.492 44.5819 242.151 46.6554 241.915 49.1427C241.736 51.5724 239.782 53.4098 237.529 53.2903Z" fill="#273671"/>
<path d="M221.414 51.6904C219.34 51.572 217.859 49.6177 218.036 47.3665C218.214 45.1137 219.992 43.3962 222.066 43.5752C224.139 43.6919 225.62 45.6462 225.442 47.8989C225.205 50.1516 223.428 51.8691 221.414 51.6904Z" fill="#273671"/>
<path d="M205.238 49.9135C203.521 49.7951 202.218 48.1368 202.336 46.2413C202.454 44.3442 203.995 42.8632 205.712 43.0421C207.431 43.218 208.734 44.8189 208.616 46.7144C208.496 48.6098 206.957 50.0335 205.238 49.9135Z" fill="#273671"/>
<path d="M233.078 48.4907L225.621 47.9573L225.63 47.8384L233.086 48.3718L233.078 48.4907Z" fill="#273671"/>
<path d="M217.612 47.3646L209.505 46.774L209.513 46.6567L217.621 47.2473L217.612 47.3646Z" fill="#273671"/>
<path d="M198.603 62.1782C199.907 58.2681 200.914 55.4244 200.914 55.4244L236.108 59.3937L233.204 67.2733L198.603 62.1782Z" fill="#B1C1E3"/>
<path d="M195.344 72.2503C196.647 68.341 197.536 65.9106 197.536 65.9106L232.316 71.0058L228.878 80.1301L195.344 72.2503Z" fill="#B1C1E3"/>
<path d="M192.322 81.5523C193.625 77.6426 194.278 75.8638 194.278 75.8638L227.872 83.744L224.791 92.6925L192.322 81.5523Z" fill="#B1C1E3"/>
<path d="M188.767 90.4399C190.071 86.5303 190.722 84.7512 190.722 84.7512L222.954 96.3061L220.051 105.607L188.767 90.4399Z" fill="#273671"/>
<path d="M68.1377 81.0193C68.3745 81.0193 68.6113 80.8413 68.6717 80.6045C68.7893 80.072 68.7893 79.4792 68.7893 78.8864C68.8481 77.998 68.8481 77.1096 69.1453 76.5168C69.6189 75.568 70.5073 74.9164 71.515 74.6795C71.9886 74.5619 72.4622 74.5619 72.9962 74.5619C73.233 74.5619 73.411 74.5619 73.589 74.5015C74.2406 74.4427 75.1879 74.3236 75.8998 73.7911C77.8547 72.3687 76.6691 70.4727 75.8998 69.2282C75.7218 68.9914 75.6027 68.7546 75.485 68.5178C74.7731 67.2146 75.1879 65.0229 76.3735 63.6593C76.9059 63.0665 77.9723 62.0604 79.4536 62.5929C81.2908 63.1857 82.772 64.7257 83.3648 66.6218C83.4236 66.7998 83.4236 66.9174 83.4825 67.0954C83.6016 67.5102 83.7208 67.925 83.8973 68.3398C84.2533 69.1106 84.9637 69.5842 85.6153 69.5842C86.6229 69.643 87.3937 68.7546 87.5717 67.8662C87.7497 66.9778 87.4525 66.0893 87.2157 65.5553C87.1569 65.3773 87.0377 65.1993 86.9789 65.0229C86.7421 64.6081 86.5641 64.1933 86.4449 63.7181C86.1493 62.5341 86.5053 61.5264 87.5113 60.816C87.7497 60.638 87.8085 60.3424 87.6305 60.104C87.4525 59.8672 87.1569 59.8084 86.9201 59.9864C85.5565 60.994 85.024 62.3561 85.4389 64.0153C85.5565 64.5477 85.7933 65.0229 86.0301 65.4965C86.0905 65.6745 86.2081 65.8525 86.2685 66.029C86.5641 66.7409 86.6833 67.2734 86.5641 67.747C86.5053 68.1618 86.0905 68.637 85.6757 68.5766C85.3197 68.5766 84.9637 68.2222 84.8461 67.8662C84.6681 67.5706 84.6092 67.2146 84.4901 66.7998C84.4312 66.6218 84.4312 66.4438 84.3724 66.3261C83.7208 64.1329 82.0012 62.2972 79.8096 61.5853C78.2695 61.1116 76.7295 61.5853 75.6027 63.0077C74.1214 64.7257 73.7066 67.3322 74.5951 69.0518C74.7142 69.2886 74.8922 69.5842 75.0702 69.821C75.9587 71.2435 76.4323 72.1907 75.307 73.0203C74.8922 73.3175 74.3582 73.4955 73.5286 73.5543C73.3522 73.5543 73.1742 73.5543 72.9374 73.6131C72.4034 73.6131 71.8709 73.6719 71.2781 73.7911C69.9749 74.0867 68.8481 74.9752 68.2569 76.2196C67.8421 76.9904 67.8421 77.998 67.7817 79.0056C67.7817 79.538 67.7229 80.1308 67.6641 80.5457C67.6037 80.8413 67.7817 81.0781 68.0789 81.1385C68.0185 80.9605 68.0789 80.9605 68.1377 81.0193Z" fill="black"/>
<path d="M80.6393 71.7762H80.8761C81.1733 71.7762 81.4101 71.5394 81.4101 71.2422C81.4101 70.9466 81.1733 70.7097 80.8761 70.7097C79.9877 70.7686 79.2169 70.4729 78.6844 69.9389C77.7356 68.9917 77.4988 67.4516 77.5576 66.7397C77.5576 65.8512 78.2696 64.7848 79.2169 64.726C79.7509 64.726 80.2833 64.9628 80.6393 65.4364C80.8761 65.7321 81.0541 66.1469 81.1129 66.5617C81.0541 66.5617 80.9349 66.5617 80.8761 66.622C80.4025 66.7397 80.1053 67.1545 80.0465 67.5693C79.9877 68.2209 81.4689 69.4065 81.6469 69.5845C81.8837 69.7609 82.1793 69.7021 82.3573 69.4653C82.5353 69.2285 82.4765 68.9329 82.2397 68.7549C82.0013 68.5181 81.3497 67.9841 81.1129 67.6885C81.2321 67.6281 81.4101 67.6885 81.5865 67.6885L82.1793 67.7473V67.1545C82.1793 66.266 81.9425 65.4364 81.4689 64.8436C80.9349 64.1332 80.0465 63.7184 79.158 63.7184C77.9136 63.7772 76.5516 64.9628 76.4912 66.7397C76.4912 67.6281 76.7296 69.4653 77.9724 70.7097C78.6256 71.4805 79.5729 71.7762 80.6393 71.7762Z" fill="black"/>
</svg>
