<svg width="288" height="216" viewBox="0 0 288 216" fill="none" xmlns="http://www.w3.org/2000/svg">
<g clip-path="url(#clip0_884_19436)">
<path d="M242.979 202.833C242.979 202.833 157.506 202.549 116.329 202.55C115.479 186.957 115.833 35.0762 116.472 21.469C125.544 21.4691 242.766 21.966 242.766 21.966L242.979 202.833Z" fill="#273671"/>
<path d="M232.915 184.901C221.93 186.035 142.552 184.902 126.605 184.901C126.604 159.033 126.535 62.0073 126.322 33.2324C148.788 33.2327 229.868 33.4456 232.205 33.5156C232.349 37.344 234.616 140.819 232.915 184.901Z" fill="white"/>
<path d="M178.768 42.517C178.625 42.517 178.555 42.2336 178.768 42.2336C179.122 42.1631 179.547 42.0207 179.901 41.9502C179.618 41.7373 179.547 41.3833 179.76 41.0999C178.555 41.0999 177.279 41.1704 176.075 41.1704C175.791 41.1704 175.508 40.9575 175.508 40.6036C175.508 40.2497 175.721 40.0368 176.075 40.0368C179.334 39.8944 182.666 39.7534 185.926 39.6815C187.06 39.6815 188.265 39.6815 189.399 39.7534C189.966 39.8239 190.532 39.6815 191.029 40.0368C192.305 40.0368 193.509 40.1073 194.714 40.2497C195.139 40.2497 195.565 40.3202 195.918 40.6036C196.274 40.9575 196.061 41.6668 195.565 41.7372C192.021 41.9502 188.477 42.1631 184.933 42.0912C182.807 42.0207 180.751 42.4465 178.768 42.517Z" fill="white"/>
<path d="M140.638 61.0856C140.638 61.0151 140.638 61.0151 140.708 61.0151C140.782 61.0151 140.782 61.0151 140.782 61.0856C140.782 61.1561 140.782 61.1561 140.708 61.1561C140.638 61.1561 140.638 61.0856 140.638 61.0856Z" fill="#D5C1DE"/>
<path d="M116.47 22.2491C116.4 22.2491 116.257 22.1786 116.187 22.1786C116.116 22.1786 116.045 22.1066 115.974 22.0361C115.904 22.0361 115.904 21.9656 115.904 21.9656L115.833 21.8952C115.833 21.8952 115.833 21.8232 115.904 21.8232L115.974 21.7527C116.045 21.6822 116.116 21.6822 116.187 21.6117C116.257 21.5398 116.4 21.5398 116.541 21.5398C116.754 21.4693 116.967 21.6822 116.967 21.9656C116.896 22.0361 116.754 22.2491 116.47 22.2491Z" fill="black"/>
<path d="M116.753 21.8221C116.753 21.7516 116.823 21.7516 116.823 21.7516L116.897 21.8221L116.823 21.8926C116.823 21.8926 116.753 21.8926 116.753 21.8221Z" fill="black"/>
<path d="M242.554 22.0348H210.732C209.881 22.0348 209.881 20.7588 210.732 20.7588H243.05C243.475 20.8293 243.76 21.2551 243.547 21.6809C243.404 22.0348 242.908 22.0348 242.554 22.0348Z" fill="black"/>
<path d="M243.12 21.0436C242.766 20.6897 242.127 20.8307 241.631 20.7602C239.293 20.6897 237.025 20.6897 234.686 20.6897H116.186C115.832 20.7602 115.548 21.186 115.62 21.5399V202.621C115.62 202.974 115.903 203.33 116.257 203.33H243.05C243.333 203.33 243.616 203.117 243.687 202.833V21.6809C243.616 21.3975 243.403 21.1141 243.12 21.0436ZM240.923 201.983H116.824V22.0362H236.104C237.663 22.0362 239.221 22.0362 240.781 21.9643C241.277 21.9643 241.774 21.9643 242.199 21.8938V201.911C241.844 201.983 241.42 202.054 240.923 201.983Z" fill="black"/>
<path d="M233.624 33.2346C233.624 33.0217 233.553 32.8807 233.341 32.7383C233.341 32.6678 233.27 32.6678 233.198 32.6678C232.987 32.5973 232.774 32.5973 232.561 32.5973H126.18C125.967 32.5973 125.826 32.6678 125.754 32.7383L125.684 32.8088C125.543 32.9512 125.543 33.0922 125.543 33.3051V185.541C125.543 185.896 125.826 186.179 126.18 186.179H232.915C233.27 186.179 233.553 185.896 233.553 185.541V33.3051C233.624 33.3051 233.624 33.2346 233.624 33.2346ZM232.277 33.8719V184.833H126.818V33.8719H232.277Z" fill="black"/>
<path d="M165.585 9.98684C165.585 10.0573 165.515 10.0573 165.515 9.98684C165.515 9.91634 165.515 9.70343 165.585 9.63293C165.656 9.63293 165.585 9.77393 165.585 9.84443V9.98684Z" fill="#FFC540"/>
<path d="M214.7 39.4699C211.157 39.4699 159.277 39.4699 144.607 39.1865C145.032 24.9402 143.897 18.7744 144.466 15.3016C148.576 15.0182 153.254 15.0901 165.726 15.1606C165.869 12.6086 164.167 8.49855 165.515 6.51332C171.609 6.86863 187.768 6.01842 193.864 6.65573C194.501 9.13586 194.36 11.2621 194.784 15.0182C205.629 14.6643 214.63 15.444 214.63 15.444C214.63 15.444 214.771 35.7842 214.7 39.4699Z" fill="#FFC100"/>
<path d="M215.339 15.3024C215.339 15.2319 215.339 15.16 215.268 15.0895C215.268 15.019 215.196 14.9485 215.126 14.9485C214.985 14.8061 214.772 14.8061 214.559 14.8061H194.927V6.37312C194.856 6.23071 194.502 6.23071 194.289 6.23071H165.09C164.948 6.23071 164.735 6.23071 164.735 6.44362V14.8061H144.324C143.969 14.8061 143.615 14.9485 143.615 15.3729V39.5412C143.615 39.9656 144.041 40.1785 144.465 40.108H213.283C213.638 40.0375 214.205 40.1785 214.63 40.108H214.772C214.843 40.108 214.843 40.0375 214.913 40.0375C214.985 40.0375 214.985 39.9656 215.055 39.9656C215.055 39.9656 215.126 39.8951 215.126 39.8246V39.7541C215.198 39.6822 215.198 39.6117 215.198 39.5412V15.6563C215.339 15.5153 215.339 15.4448 215.339 15.3024C215.339 15.3729 215.339 15.3729 215.339 15.3024ZM166.011 7.29383H193.864V14.6651H166.082L166.011 7.29383ZM213.992 38.9039H145.032V15.8692H213.992V38.9039Z" fill="black"/>
<path d="M143.97 93.7566H143.969V93.758H143.97V93.7566Z" fill="black"/>
<path d="M212.999 63.3538C213.283 63.4243 213.495 63.7077 213.495 63.9911C213.425 64.2745 213.142 64.4874 212.857 64.4874C212.149 64.4169 211.369 64.204 210.73 63.8501C210.164 63.5667 209.667 63.2114 209.03 63.1409C208.18 63.1409 207.4 63.7077 206.55 63.8501C205.7 64.063 204.778 63.9911 203.857 63.9206C202.864 63.8501 201.944 63.4243 200.951 63.2833C200.242 63.2114 199.675 63.5667 199.108 63.9206C198.328 64.3464 197.408 64.7708 196.486 64.7003C195.776 64.7003 195.069 64.3464 194.43 64.063C193.013 63.4962 191.524 64.3464 190.177 64.8427C187.981 65.6225 185.642 64.7708 183.515 64.204C182.524 63.9206 181.531 63.9206 180.611 64.204C178.838 64.7003 177.209 65.693 175.295 65.3376C173.877 65.1262 172.601 64.1335 171.184 64.3464C170.121 64.6298 169.128 65.1262 167.994 65.2671C166.507 65.4801 165.018 65.1262 163.671 64.6298C163.034 64.4169 162.325 64.204 161.616 64.3464C160.765 64.4874 159.986 64.9132 159.277 65.3376C158.993 65.4801 158.569 65.834 158.285 65.834C158.143 65.834 158.072 65.7635 158.002 65.6225C158.002 65.5506 158.002 65.4096 158.072 65.3376C158.072 65.1967 158.215 65.1262 158.356 65.1262C161.262 62.7165 162.751 63.2128 164.522 63.7796C165.727 64.1335 167.003 64.4874 168.917 63.9206C171.397 62.928 172.034 62.9999 174.586 63.9206C175.579 64.3464 176.712 64.3464 177.705 63.9911C180.043 63.1409 181.885 62.3612 184.367 63.2128C186.138 63.7077 187.981 64.3464 189.753 63.7796C190.533 63.4962 191.312 63.0704 192.163 62.8575C193.226 62.5741 194.289 62.6446 195.281 63.1409C195.776 63.3538 196.345 63.5667 196.839 63.4962C199.108 63.1409 199.604 61.4405 202.297 62.3612C203.573 62.787 204.92 62.928 206.196 62.787C206.763 62.6446 207.259 62.4331 207.826 62.2202C209.03 61.7239 210.093 62.1497 211.086 62.7165C211.653 63.0704 212.362 63.2114 212.999 63.3538Z" fill="black"/>
<path d="M212.291 58.8173C212.716 59.0302 212.574 59.6675 212.148 59.8099C212.007 59.8804 211.865 59.8099 211.724 59.738C211.298 59.5265 210.944 59.3136 210.518 59.1007C209.951 58.7468 209.527 58.321 208.959 58.0376C207.897 57.5413 206.975 58.4634 206.054 58.8173C205.558 59.0302 204.991 59.1007 204.423 59.1007C203.432 59.1007 202.51 58.7468 201.589 58.4634C200.596 58.1081 199.463 57.6118 198.4 57.9671C197.478 58.2505 196.557 58.8173 195.564 59.0302C194.501 59.2431 193.438 58.9597 192.447 58.6044C190.321 57.8247 189.186 57.9671 187.202 58.9597C185.359 59.9509 183.799 60.2343 181.886 59.1712C181.177 58.8173 180.54 58.4634 179.76 58.3915C177.634 58.4634 175.861 59.9509 173.735 59.8804C173.168 59.8804 172.672 59.738 172.248 59.4546C171.822 59.1712 171.325 58.8173 170.759 58.7468C169.766 58.4634 168.988 58.9597 168.136 59.4546C167.499 59.8804 166.79 60.2343 166.082 60.2343C165.798 60.2343 165.515 60.1638 165.23 60.0229C164.522 59.6675 163.956 59.1712 163.246 58.8878C161.9 58.4634 160.553 59.3841 159.348 59.8099C158.71 60.0229 158.073 60.0933 157.364 60.0933C157.222 60.0933 157.081 60.0229 156.938 59.9509C156.797 59.8099 156.727 59.5265 156.938 59.3841C157.222 59.1712 157.577 59.1712 157.931 59.1007C159.348 58.8878 160.553 57.9671 161.9 57.7542C163.033 57.4708 164.168 57.9671 165.089 58.6044C165.443 58.8173 165.798 59.1712 166.293 59.0302C167.073 58.8173 167.641 58.2505 168.349 57.9671C169.908 57.1169 171.538 57.4003 172.885 58.3915C173.665 58.8173 174.587 58.6044 175.366 58.3915C176.5 57.9671 177.563 57.4708 178.767 57.2579C179.547 57.045 180.327 57.1169 181.036 57.4003C181.886 57.6837 182.736 58.2505 183.587 58.4634C184.65 58.7468 185.713 58.2505 186.705 57.7542C187.626 57.3284 188.619 56.8335 189.611 56.7616C190.462 56.6911 191.384 56.904 192.163 57.1169C193.297 57.4708 194.431 57.9671 195.636 57.5413C197.124 56.9745 198.47 56.0538 200.172 56.5487C202.013 56.9745 203.856 58.2505 205.771 57.4003C207.897 56.2653 208.747 56.0538 210.731 57.6118C211.298 58.2505 211.794 58.5339 212.291 58.8173Z" fill="black"/>
<path d="M149.922 58.4654C154.458 64.3478 144.253 67.8206 143.118 61.9382C142.34 58.323 147.442 55.2761 149.922 58.4654Z" fill="#B1C1E3"/>
<path d="M146.378 65.9072C142.48 65.4814 140.779 60.5211 143.685 57.8281C146.378 55.2761 150.914 56.8355 151.481 60.4506C151.977 63.4976 149.355 66.2611 146.378 65.9072ZM146.875 64.6312C149.497 64.7017 151.198 61.5843 149.709 59.458C148.292 57.2613 144.89 57.4728 143.826 59.8824C142.763 62.0087 144.465 64.6312 146.875 64.6312Z" fill="black"/>
<path d="M212.999 82.9162C213.283 82.9867 213.495 83.2701 213.495 83.5535C213.425 83.8369 213.142 84.0498 212.857 84.0498C212.149 83.9793 211.369 83.7664 210.73 83.4125C210.164 83.1291 209.667 82.7738 209.03 82.7033C208.18 82.7033 207.4 83.2701 206.55 83.4125C205.7 83.6254 204.778 83.5535 203.857 83.483C202.864 83.4125 201.944 82.9867 200.951 82.8457C200.242 82.7738 199.675 83.1291 199.108 83.483C198.328 83.9088 197.408 84.3332 196.486 84.2627C195.776 84.2627 195.069 83.9088 194.43 83.6254C193.013 83.0586 191.524 83.9088 190.177 84.4051C187.981 85.1848 185.642 84.3332 183.515 83.7664C182.524 83.483 181.531 83.483 180.611 83.7664C178.838 84.2627 177.209 85.2553 175.295 84.9C173.877 84.6885 172.601 83.6959 171.184 83.9088C170.121 84.1922 169.128 84.6885 167.994 84.8295C166.507 85.0424 165.018 84.6885 163.671 84.1922C163.034 83.9793 162.325 83.7664 161.616 83.9088C160.765 84.0498 159.986 84.4756 159.277 84.9C158.993 85.0424 158.569 85.3963 158.285 85.3963C158.143 85.3963 158.072 85.3258 158.002 85.1848C158.002 85.1129 158.002 84.9719 158.072 84.9C158.072 84.759 158.215 84.6885 158.356 84.6885C161.262 82.2789 162.751 82.7738 164.522 83.342C165.727 83.6959 167.003 84.0498 168.917 83.483C171.397 82.4904 172.034 82.4904 174.586 83.483C175.579 83.9088 176.712 83.9088 177.705 83.5535C180.043 82.7033 181.885 81.9236 184.367 82.7738C186.138 83.2701 187.981 83.9088 189.753 83.342C190.533 83.0586 191.312 82.6328 192.163 82.4199C193.226 82.1365 194.289 82.207 195.281 82.7033C195.776 82.9162 196.345 83.1291 196.839 83.0586C199.108 82.7033 199.604 81.0029 202.297 81.9236C203.573 82.3494 204.92 82.4904 206.196 82.3494C206.763 82.207 207.259 81.9955 207.826 81.7826C209.03 81.2863 210.093 81.7121 211.086 82.2789C211.653 82.7033 212.362 82.8457 212.999 82.9162Z" fill="black"/>
<path d="M212.291 78.4506C212.716 78.6635 212.574 79.3008 212.148 79.4432C212.007 79.5137 211.865 79.4432 211.724 79.3713C211.298 79.1598 210.944 78.9469 210.518 78.734C209.951 78.3801 209.527 77.9543 208.959 77.6709C207.897 77.1746 206.975 78.0967 206.054 78.4506C205.558 78.6635 204.991 78.734 204.423 78.734C203.432 78.734 202.51 78.3801 201.589 78.0967C200.596 77.7414 199.463 77.2451 198.4 77.6004C197.478 77.8838 196.557 78.4506 195.564 78.6635C194.501 78.9469 193.438 78.593 192.447 78.2377C190.321 77.458 189.186 77.6004 187.202 78.593C185.359 79.5842 183.799 79.8676 181.886 78.8764C181.177 78.5211 180.54 78.1672 179.76 78.0967C177.634 78.1672 175.861 79.6561 173.735 79.5842C173.168 79.5842 172.672 79.4432 172.248 79.1598C171.822 78.8764 171.325 78.5211 170.759 78.4506C169.766 78.1672 168.988 78.6635 168.136 79.1598C167.499 79.5842 166.79 79.9395 166.082 79.9395C165.798 79.9395 165.515 79.8676 165.23 79.7266C164.522 79.3713 163.956 78.8764 163.246 78.593C161.9 78.1672 160.553 79.0879 159.348 79.5137C158.71 79.7266 158.073 79.7971 157.364 79.7971C157.222 79.7971 157.081 79.7266 156.938 79.6561C156.797 79.5137 156.727 79.2303 156.938 79.0879C157.222 78.8764 157.577 78.8764 157.931 78.8045C159.348 78.593 160.553 77.6709 161.9 77.458C163.033 77.1746 164.168 77.6709 165.089 78.3082C165.443 78.5211 165.798 78.8764 166.293 78.734C167.073 78.5211 167.641 77.9543 168.349 77.6709C169.908 76.8207 171.538 77.1041 172.885 78.0967C173.665 78.5211 174.587 78.3082 175.366 78.0967C176.5 77.6709 177.563 77.1746 178.767 76.9617C179.547 76.7502 180.327 76.8207 181.036 77.1041C181.886 77.3875 182.736 77.9543 183.587 78.1672C184.65 78.4506 185.713 77.9543 186.705 77.458C187.626 77.0336 188.619 76.5373 189.611 76.4668C190.462 76.3948 191.384 76.6078 192.163 76.8207C193.297 77.1746 194.431 77.6709 195.636 77.2451C197.124 76.6782 198.47 75.7575 200.172 76.2538C202.013 76.6782 203.856 77.9543 205.771 77.1041C207.897 75.9704 208.747 75.7575 210.731 77.317C211.298 77.8838 211.794 78.1672 212.291 78.4506Z" fill="black"/>
<path d="M149.922 78.0956C154.458 83.9779 144.253 87.4507 143.118 81.5683C142.34 77.9532 147.442 74.9062 149.922 78.0956Z" fill="#B1C1E3"/>
<path d="M146.378 85.5373C142.48 85.1115 140.779 80.1513 143.685 77.4582C146.378 74.9062 150.914 76.4656 151.481 80.0808C151.977 83.0572 149.355 85.8912 146.378 85.5373ZM146.875 84.1908C149.497 84.2613 151.198 81.1439 149.709 79.0177C148.292 76.8195 144.89 77.0324 143.826 79.4421C142.763 81.6388 144.465 84.2613 146.875 84.1908Z" fill="black"/>
<path d="M212.999 102.546C213.283 102.617 213.495 102.9 213.495 103.184C213.425 103.467 213.142 103.68 212.857 103.68C212.149 103.609 211.369 103.396 210.73 103.043C210.164 102.759 209.667 102.404 209.03 102.333C208.18 102.333 207.4 102.9 206.55 103.043C205.7 103.255 204.778 103.184 203.857 103.113C202.864 103.043 201.944 102.617 200.951 102.476C200.242 102.404 199.675 102.759 199.108 103.113C198.328 103.539 197.408 103.963 196.486 103.893C195.776 103.893 195.069 103.539 194.43 103.255C193.013 102.689 191.524 103.539 190.177 104.035C187.981 104.815 185.642 103.963 183.515 103.396C182.524 103.113 181.531 103.113 180.611 103.396C178.838 103.893 177.209 104.885 175.295 104.53C173.877 104.319 172.601 103.326 171.184 103.539C170.121 103.822 169.128 104.319 167.994 104.46C166.507 104.672 165.018 104.319 163.671 103.822C163.034 103.609 162.325 103.396 161.616 103.539C160.765 103.68 159.986 104.106 159.277 104.531C158.993 104.672 158.569 105.026 158.285 105.026C158.143 105.026 158.072 104.956 158.002 104.815C158.002 104.743 158.002 104.602 158.072 104.531C158.072 104.389 158.215 104.319 158.356 104.319C161.262 101.909 162.751 102.405 164.522 102.972C165.727 103.326 167.003 103.68 168.917 103.113C171.397 102.12 172.034 102.12 174.586 103.113C175.579 103.539 176.712 103.539 177.705 103.184C180.043 102.333 181.885 101.554 184.367 102.405C186.138 102.9 187.981 103.539 189.753 102.972C190.533 102.689 191.312 102.263 192.163 102.05C193.226 101.767 194.289 101.837 195.281 102.333C195.776 102.546 196.345 102.759 196.839 102.689C199.108 102.333 199.604 100.633 202.297 101.554C203.573 101.979 204.92 102.12 206.196 101.979C206.763 101.837 207.259 101.626 207.826 101.413C209.03 100.916 210.093 101.341 211.086 101.909C211.653 102.263 212.362 102.476 212.999 102.546Z" fill="black"/>
<path d="M212.291 98.0807C212.716 98.2936 212.574 98.9309 212.148 99.0733C212.007 99.1438 211.865 99.0733 211.724 99.0014C211.298 98.7899 210.944 98.577 210.518 98.3641C209.951 98.0102 209.527 97.5844 208.959 97.301C207.897 96.8047 206.975 97.7268 206.054 98.0807C205.558 98.2936 204.991 98.3641 204.423 98.3641C203.432 98.3641 202.51 98.0102 201.589 97.7268C200.596 97.3715 199.463 96.8752 198.4 97.2305C197.478 97.5139 196.557 98.0807 195.564 98.2936C194.501 98.577 193.438 98.2231 192.447 97.8678C190.321 97.0881 189.186 97.2305 187.202 98.2231C185.359 99.2143 183.799 99.4977 181.886 98.5065C181.177 98.1512 180.54 97.7973 179.76 97.7268C177.634 97.7973 175.861 99.2862 173.735 99.2143C173.168 99.2143 172.672 99.0733 172.248 98.7899C171.822 98.5065 171.325 98.1512 170.759 98.0807C169.766 97.7973 168.988 98.2936 168.136 98.7899C167.499 99.2143 166.79 99.5696 166.082 99.5696C165.798 99.5696 165.515 99.4977 165.23 99.3567C164.522 99.0014 163.956 98.5065 163.246 98.2231C161.9 97.7973 160.553 98.718 159.348 99.1438C158.71 99.3567 158.073 99.4272 157.364 99.4272C157.222 99.4272 157.081 99.3567 156.938 99.2862C156.797 99.1438 156.727 98.8604 156.938 98.718C157.222 98.5065 157.577 98.5065 157.931 98.4346C159.348 98.2231 160.553 97.301 161.9 97.0881C163.033 96.8047 164.168 97.301 165.089 97.9383C165.443 98.1512 165.798 98.5065 166.293 98.3641C167.073 98.1512 167.641 97.5844 168.349 97.301C169.908 96.4508 171.538 96.7342 172.885 97.7268C173.665 98.1512 174.587 97.9383 175.366 97.7268C176.5 97.301 177.563 96.8047 178.767 96.5918C179.547 96.3803 180.327 96.4508 181.036 96.7342C181.886 97.0176 182.736 97.5844 183.587 97.7973C184.65 98.0807 185.713 97.5844 186.705 97.0881C187.626 96.6637 188.619 96.1674 189.611 96.0969C190.462 96.025 191.384 96.2379 192.163 96.4508C193.297 96.8047 194.431 97.301 195.636 96.8752C197.124 96.3084 198.47 95.3877 200.172 95.884C202.013 96.3084 203.856 97.5844 205.771 96.7342C207.897 95.6006 208.747 95.3877 210.731 96.9471C211.298 97.5139 211.794 97.7973 212.291 98.0807Z" fill="black"/>
<path d="M149.922 97.729C154.458 103.611 144.253 107.084 143.118 101.202C142.34 97.5866 147.442 94.5396 149.922 97.729Z" fill="#B1C1E3"/>
<path d="M146.378 105.1C142.48 104.674 140.779 99.7136 143.685 97.0206C146.378 94.4686 150.914 96.028 151.481 99.6431C151.977 102.69 149.355 105.454 146.378 105.1ZM146.875 103.824C149.497 103.894 151.198 100.777 149.709 98.6505C148.292 96.4538 144.89 96.6653 143.826 99.0749C142.763 101.273 144.465 103.894 146.875 103.824Z" fill="black"/>
<path d="M212.999 122.18C213.283 122.25 213.495 122.534 213.495 122.817C213.425 123.1 213.142 123.313 212.857 123.313C212.149 123.243 211.369 123.03 210.73 122.676C210.164 122.393 209.667 122.037 209.03 121.967C208.18 121.967 207.4 122.534 206.55 122.676C205.7 122.889 204.778 122.817 203.857 122.747C202.864 122.676 201.944 122.25 200.951 122.109C200.242 122.037 199.675 122.393 199.108 122.747C198.328 123.172 197.408 123.597 196.486 123.526C195.776 123.526 195.069 123.172 194.43 122.889C193.013 122.322 191.524 123.172 190.177 123.669C187.981 124.447 185.642 123.597 183.515 123.03C182.524 122.747 181.531 122.747 180.611 123.03C178.838 123.526 177.209 124.519 175.295 124.164C173.877 123.952 172.601 122.959 171.184 123.172C170.121 123.456 169.128 123.952 167.994 124.093C166.507 124.306 165.018 123.952 163.671 123.456C163.034 123.243 162.325 123.03 161.616 123.172C160.765 123.313 159.986 123.739 159.277 124.164C158.993 124.306 158.569 124.66 158.285 124.66C158.143 124.66 158.072 124.589 158.002 124.447C158.002 124.377 158.002 124.236 158.072 124.164C158.072 124.023 158.215 123.952 158.356 123.952C161.262 121.542 162.751 122.039 164.522 122.606C165.727 122.959 167.003 123.313 168.917 122.747C171.397 121.754 172.034 121.754 174.586 122.747C175.579 123.172 176.712 123.172 177.705 122.817C180.043 121.967 181.885 121.187 184.367 122.039C186.138 122.534 187.981 123.172 189.753 122.606C190.533 122.322 191.312 121.896 192.163 121.683C193.226 121.4 194.289 121.471 195.281 121.967C195.776 122.18 196.345 122.393 196.839 122.322C199.108 121.967 199.604 120.266 202.297 121.187C203.573 121.613 204.92 121.754 206.196 121.613C206.763 121.471 207.259 121.259 207.826 121.046C209.03 120.55 210.093 120.974 211.086 121.542C211.653 121.896 212.362 122.109 212.999 122.18Z" fill="black"/>
<path d="M212.291 117.643C212.716 117.856 212.574 118.493 212.148 118.636C212.007 118.706 211.865 118.636 211.724 118.564C211.298 118.352 210.944 118.139 210.518 117.926C209.951 117.573 209.527 117.147 208.959 116.863C207.897 116.367 206.975 117.289 206.054 117.643C205.558 117.856 204.991 117.926 204.423 117.926C203.432 117.926 202.51 117.573 201.589 117.289C200.596 116.934 199.463 116.438 198.4 116.793C197.478 117.076 196.557 117.643 195.564 117.856C194.501 118.139 193.438 117.785 192.447 117.43C190.321 116.65 189.186 116.793 187.202 117.785C185.359 118.777 183.799 119.06 181.886 118.069C181.177 117.714 180.54 117.36 179.76 117.289C177.634 117.36 175.861 118.849 173.735 118.777C173.168 118.777 172.672 118.636 172.248 118.352C171.822 118.069 171.325 117.714 170.759 117.643C169.766 117.36 168.988 117.856 168.136 118.352C167.499 118.777 166.79 119.132 166.082 119.132C165.798 119.132 165.515 119.06 165.23 118.919C164.522 118.564 163.956 118.069 163.246 117.785C161.9 117.36 160.553 118.28 159.348 118.706C158.71 118.919 158.073 118.99 157.364 118.99C157.222 118.99 157.081 118.919 156.938 118.849C156.797 118.706 156.727 118.423 156.938 118.28C157.222 118.069 157.577 118.069 157.931 117.997C159.348 117.785 160.553 116.863 161.9 116.65C163.033 116.367 164.168 116.863 165.089 117.501C165.443 117.714 165.798 118.069 166.293 117.926C167.073 117.714 167.641 117.147 168.349 116.863C169.908 116.013 171.538 116.297 172.885 117.289C173.665 117.714 174.587 117.501 175.366 117.289C176.5 116.863 177.563 116.367 178.767 116.154C179.547 115.943 180.327 116.013 181.036 116.297C181.886 116.58 182.736 117.147 183.587 117.36C184.65 117.643 185.713 117.147 186.705 116.65C187.626 116.226 188.619 115.73 189.611 115.659C190.462 115.587 191.384 115.8 192.163 116.013C193.297 116.367 194.431 116.863 195.636 116.438C197.124 115.871 198.47 114.95 200.172 115.446C202.013 115.871 203.856 117.147 205.771 116.297C207.897 115.163 208.747 114.95 210.731 116.509C211.298 117.076 211.794 117.36 212.291 117.643Z" fill="black"/>
<path d="M149.922 117.359C154.458 123.241 144.253 126.714 143.118 120.832C142.34 117.217 147.442 114.17 149.922 117.359Z" fill="#B1C1E3"/>
<path d="M146.378 124.73C142.48 124.304 140.779 119.344 143.685 116.651C146.378 114.099 150.914 115.658 151.481 119.273C151.977 122.32 149.355 125.084 146.378 124.73ZM146.875 123.454C149.497 123.524 151.198 120.407 149.709 118.281C148.292 116.084 144.89 116.295 143.826 118.705C142.763 120.903 144.465 123.524 146.875 123.454Z" fill="black"/>
<path d="M212.999 141.81C213.283 141.88 213.495 142.164 213.495 142.447C213.425 142.731 213.142 142.944 212.857 142.944C212.149 142.873 211.369 142.66 210.73 142.306C210.164 142.023 209.667 141.668 209.03 141.597C208.18 141.597 207.4 142.164 206.55 142.306C205.7 142.519 204.778 142.447 203.857 142.377C202.864 142.306 201.944 141.88 200.951 141.739C200.242 141.668 199.675 142.023 199.108 142.377C198.328 142.803 197.408 143.227 196.486 143.156C195.776 143.156 195.069 142.803 194.43 142.519C193.013 141.952 191.524 142.803 190.177 143.299C187.981 144.079 185.642 143.227 183.515 142.66C182.524 142.377 181.531 142.377 180.611 142.66C178.838 143.156 177.209 144.149 175.295 143.794C173.877 143.582 172.601 142.59 171.184 142.803C170.121 143.086 169.128 143.582 167.994 143.723C166.507 143.936 165.018 143.582 163.671 143.086C163.034 142.873 162.325 142.66 161.616 142.803C160.765 142.944 159.986 143.369 159.277 143.794C158.993 143.936 158.569 144.29 158.285 144.29C158.143 144.29 158.072 144.22 158.002 144.079C158.002 144.007 158.002 143.866 158.072 143.794C158.072 143.653 158.215 143.582 158.356 143.582C161.262 141.173 162.751 141.668 164.522 142.236C165.727 142.59 167.003 142.944 168.917 142.377C171.397 141.384 172.034 141.384 174.586 142.377C175.579 142.803 176.712 142.803 177.705 142.447C180.043 141.597 181.885 140.817 184.367 141.668C186.138 142.164 187.981 142.803 189.753 142.236C190.533 141.952 191.312 141.527 192.163 141.314C193.226 141.03 194.289 141.101 195.281 141.597C195.776 141.81 196.345 142.023 196.839 141.952C199.108 141.597 199.604 139.897 202.297 140.817C203.573 141.243 204.92 141.384 206.196 141.243C206.763 141.101 207.259 140.889 207.826 140.676C209.03 140.18 210.093 140.604 211.086 141.173C211.653 141.527 212.362 141.668 212.999 141.81Z" fill="black"/>
<path d="M212.291 137.277C212.716 137.49 212.574 138.127 212.148 138.269C212.007 138.34 211.865 138.269 211.724 138.197C211.298 137.986 210.944 137.773 210.518 137.56C209.951 137.206 209.527 136.78 208.959 136.497C207.897 136.001 206.975 136.923 206.054 137.277C205.558 137.49 204.991 137.56 204.423 137.56C203.432 137.56 202.51 137.206 201.589 136.923C200.596 136.567 199.463 136.071 198.4 136.426C197.478 136.71 196.557 137.277 195.564 137.49C194.501 137.773 193.438 137.419 192.447 137.064C190.321 136.284 189.186 136.426 187.202 137.419C185.359 138.41 183.799 138.694 181.886 137.702C181.177 137.347 180.54 136.993 179.76 136.923C177.634 136.993 175.861 138.482 173.735 138.41C173.168 138.41 172.672 138.269 172.248 137.986C171.822 137.702 171.325 137.347 170.759 137.277C169.766 136.993 168.988 137.49 168.136 137.986C167.499 138.41 166.79 138.766 166.082 138.766C165.798 138.766 165.515 138.694 165.23 138.553C164.522 138.197 163.956 137.702 163.246 137.419C161.9 136.993 160.553 137.914 159.348 138.34C158.71 138.553 158.073 138.623 157.364 138.623C157.222 138.623 157.081 138.553 156.938 138.482C156.797 138.34 156.727 138.056 156.938 137.914C157.222 137.702 157.577 137.702 157.931 137.631C159.348 137.419 160.553 136.497 161.9 136.284C163.033 136.001 164.168 136.497 165.089 137.134C165.443 137.347 165.798 137.702 166.293 137.56C167.073 137.347 167.641 136.78 168.349 136.497C169.908 135.647 171.538 135.93 172.885 136.923C173.665 137.347 174.587 137.134 175.366 136.923C176.5 136.497 177.563 136.001 178.767 135.788C179.547 135.576 180.327 135.647 181.036 135.93C181.886 136.214 182.736 136.78 183.587 136.993C184.65 137.277 185.713 136.78 186.705 136.284C187.626 135.86 188.619 135.363 189.611 135.293C190.462 135.221 191.384 135.434 192.163 135.647C193.297 136.001 194.431 136.497 195.636 136.071C197.124 135.504 198.47 134.584 200.172 135.08C202.013 135.504 203.856 136.78 205.771 135.93C207.897 134.796 208.747 134.584 210.731 136.143C211.298 136.71 211.794 136.993 212.291 137.277Z" fill="black"/>
<path d="M149.922 136.921C154.458 142.804 144.253 146.277 143.118 140.394C142.34 136.779 147.442 133.732 149.922 136.921Z" fill="#B1C1E3"/>
<path d="M146.378 144.363C142.48 143.938 140.779 138.977 143.685 136.284C146.378 133.732 150.914 135.292 151.481 138.907C151.977 141.954 149.355 144.717 146.378 144.363ZM146.875 143.087C149.497 143.158 151.198 140.04 149.709 137.914C148.292 135.717 144.89 135.929 143.826 138.339C142.763 140.465 144.465 143.087 146.875 143.087Z" fill="black"/>
<path d="M212.999 161.442C213.283 161.442 213.495 161.796 213.495 162.08C213.425 162.363 213.142 162.576 212.857 162.576C212.149 162.505 211.369 162.292 210.73 161.939C210.164 161.655 209.667 161.3 209.03 161.229C208.18 161.229 207.4 161.796 206.55 161.939C205.7 162.151 204.778 162.08 203.857 162.009C202.864 161.939 201.944 161.513 200.951 161.372C200.242 161.3 199.675 161.655 199.108 162.009C198.328 162.435 197.408 162.859 196.486 162.789C195.776 162.789 195.069 162.435 194.43 162.151C193.013 161.585 191.524 162.435 190.177 162.931C187.981 163.711 185.642 162.859 183.515 162.222C182.524 161.939 181.531 161.939 180.611 162.222C178.838 162.718 177.209 163.711 175.295 163.356C173.877 163.143 172.601 162.151 171.184 162.364C170.121 162.648 169.128 163.143 167.994 163.285C166.507 163.498 165.018 163.143 163.671 162.648C163.034 162.435 162.325 162.222 161.616 162.364C160.765 162.505 159.986 162.931 159.277 163.356C158.993 163.498 158.569 163.852 158.285 163.852C158.143 163.852 158.072 163.781 158.002 163.639C158.002 163.568 158.002 163.426 158.072 163.356C158.072 163.215 158.215 163.143 158.356 163.143C161.262 160.733 162.751 161.229 164.522 161.796C165.727 162.151 167.003 162.505 168.917 161.939C171.397 160.946 172.034 160.946 174.586 161.939C175.579 162.364 176.712 162.364 177.705 162.009C180.043 161.159 181.885 160.379 184.367 161.229C186.138 161.726 187.981 162.364 189.753 161.796C190.533 161.513 191.312 161.088 192.163 160.875C193.226 160.592 194.289 160.663 195.281 161.159C195.776 161.372 196.345 161.585 196.839 161.513C199.108 161.159 199.604 159.458 202.297 160.379C203.573 160.733 204.92 160.946 206.196 160.805C206.763 160.663 207.259 160.45 207.826 160.238C209.03 159.742 210.093 160.166 211.086 160.733C211.653 161.159 212.362 161.3 212.999 161.442Z" fill="black"/>
<path d="M212.291 156.908C212.716 157.121 212.574 157.759 212.148 157.901C212.007 157.901 211.865 157.901 211.724 157.829C211.298 157.618 210.944 157.405 210.518 157.192C209.951 156.838 209.527 156.483 208.959 156.129C207.897 155.632 206.975 156.554 206.054 156.908C205.558 157.121 204.991 157.262 204.423 157.262C203.432 157.262 202.51 156.908 201.589 156.625C200.596 156.271 199.463 155.775 198.4 156.129C197.478 156.412 196.557 156.979 195.564 157.192C194.501 157.475 193.438 157.121 192.447 156.766C190.321 155.988 189.186 156.129 187.202 157.121C185.359 158.114 183.799 158.397 181.886 157.405C181.177 157.051 180.54 156.695 179.76 156.625C177.634 156.695 175.861 158.184 173.735 158.114C173.168 158.114 172.672 157.971 172.248 157.688C171.822 157.405 171.325 157.051 170.759 156.979C169.766 156.695 168.988 157.192 168.136 157.688C167.499 158.114 166.79 158.468 166.082 158.468C165.798 158.468 165.515 158.397 165.23 158.255C164.522 157.901 163.956 157.405 163.246 157.121C161.9 156.695 160.553 157.618 159.348 158.042C158.71 158.255 158.073 158.325 157.364 158.397C157.222 158.397 157.081 158.397 156.938 158.255C156.797 158.112 156.727 157.829 156.938 157.688C157.222 157.475 157.577 157.475 157.931 157.405C159.348 157.192 160.553 156.342 161.9 156.058C163.033 155.775 164.168 156.271 165.089 156.908C165.443 157.121 165.798 157.475 166.293 157.334C167.073 157.121 167.641 156.554 168.349 156.271C169.908 155.419 171.538 155.703 172.885 156.695C173.665 157.121 174.587 156.908 175.366 156.695C176.5 156.271 177.563 155.775 178.767 155.632C179.547 155.419 180.327 155.491 181.036 155.775C181.886 156.058 182.736 156.625 183.587 156.838C184.65 157.121 185.713 156.625 186.705 156.129C187.626 155.703 188.619 155.208 189.611 155.136C190.462 155.065 191.384 155.278 192.163 155.491C193.297 155.845 194.431 156.342 195.636 155.916C197.124 155.349 198.47 154.428 200.172 154.925C202.013 155.349 203.856 156.625 205.771 155.775C207.897 154.641 208.747 154.356 210.731 155.988C211.298 156.342 211.794 156.625 212.291 156.908Z" fill="black"/>
<path d="M149.922 156.552C154.458 162.434 144.253 165.907 143.118 160.024C142.34 156.409 147.442 153.362 149.922 156.552Z" fill="#B1C1E3"/>
<path d="M146.378 163.993C142.48 163.568 140.779 158.607 143.685 155.914C146.378 153.362 150.914 154.851 151.481 158.537C151.977 161.584 149.355 164.347 146.378 163.993ZM146.875 162.717C149.497 162.788 151.198 159.671 149.709 157.544C148.292 155.348 144.89 155.559 143.826 157.969C142.763 160.095 144.465 162.717 146.875 162.717Z" fill="black"/>
<path d="M54.8818 39.3283C54.8818 40.8877 55.0947 42.801 53.8892 43.2268C50.5589 41.9508 49.2829 42.7305 48.857 45.2106C47.7939 46.4162 45.6677 42.9434 45.2433 44.0065C44.3212 46.7701 43.4005 46.983 40.9203 46.7701C40.0687 38.7614 38.4388 30.0436 38.8646 26.2875C40.7074 24.8705 40.7074 26.5004 43.6839 23.452C47.0861 25.8617 50.8423 35.4297 54.8818 39.3283Z" fill="#B1C1E3"/>
<path d="M39.2896 25.7915C37.8726 24.1615 37.2339 19.3423 38.2265 17.429C41.203 18.987 47.3688 24.9413 39.2896 25.7915Z" fill="#273671"/>
<path d="M100.666 180.79C100.169 183.625 93.7907 182.562 93.7907 182.562C93.7907 182.562 59.5595 93.5454 48.7859 67.6049C45.8814 61.0852 43.187 54.2821 40.9902 47.2647C42.1238 45.8477 45.1722 47.6905 45.0298 44.9256C49.8491 39.3266 57.3628 72.7795 60.4802 77.3153C73.8044 111.618 87.412 146.487 100.666 180.79Z" fill="#273671"/>
<path d="M106.477 175.547C106.62 175.83 106.407 180.863 104.422 176.327C99.1779 164.279 94.2867 152.088 90.5306 139.473C78.1285 107.933 65.584 75.971 54.5271 43.9351C54.0308 43.6517 54.2437 40.3919 55.1658 40.2509C56.0865 40.1085 57.292 42.6605 57.5754 42.9439C59.3464 44.8572 87.5541 123.456 89.8228 129.692C95.7757 144.789 101.232 160.167 106.477 175.547Z" fill="#273671"/>
<path d="M104.918 178.736C105.131 179.232 100.666 181.642 100.666 181.642C100.666 181.642 89.2548 150.174 85.4986 140.464C73.5929 109.564 61.2599 78.3082 49.4246 47.3369C48.291 45.494 49.4246 44.218 50.5583 42.66C52.2587 42.0918 53.3937 42.801 54.1015 44.077C70.615 88.7264 88.547 134.086 104.918 178.736Z" fill="#FFC100"/>
<path d="M98.0435 189.579C95.7756 189.722 93.6505 185.114 94.0042 182.988C97.4766 184.406 103.785 181.216 106.902 177.247C108.675 176.892 110.092 182.491 109.384 183.768C106.69 188.587 101.375 189.721 98.0435 189.579Z" fill="#FFC540"/>
<path d="M98.3274 189.864C102.863 190.289 106.903 187.1 109.596 183.698C116.967 192.132 105.91 197.376 99.2481 196.172C99.1776 196.242 94.6418 186.887 98.3274 189.864Z" fill="#B1C1E3"/>
<path d="M112.856 192.909C114.556 198.225 106.264 202.973 100.382 199.501C99.2484 198.791 99.106 195.602 99.8152 196.524C107.54 198.437 112.502 188.303 112.856 192.909Z" fill="#273671"/>
<path d="M113.352 191.209C113.209 190.855 113.068 190.5 112.926 190.146C112.926 190.075 112.926 190.003 112.856 189.862C112.715 189.509 112.572 189.225 112.502 188.87C111.155 185.256 109.809 181.57 108.462 177.885C106.547 172.712 104.634 167.537 102.721 162.364C100.737 157.048 98.8235 151.803 96.8383 146.488C95.1379 141.952 93.436 137.345 91.7356 132.81C89.8928 127.92 88.1205 123.029 86.2776 118.139C84.5067 113.32 82.6639 108.43 80.8916 103.609C79.1206 98.8618 77.3483 94.113 75.576 89.3643C73.5217 83.8358 71.4659 78.2368 69.4102 72.7097C67.4264 67.3942 65.5131 62.0786 63.5278 56.8335C62.5352 54.07 61.4721 51.3769 60.409 48.612C59.9141 47.336 59.4178 46.1319 58.9215 44.8558C58.6381 44.2185 58.4252 43.6517 58.1418 43.013C58.0713 42.8001 57.9288 42.5167 57.7879 42.3038C57.7159 42.2333 57.7159 42.1628 57.6454 42.0923C57.2196 41.3831 56.7247 40.7458 56.086 40.2495C55.945 39.9661 55.6616 39.6827 55.5192 39.3993C54.9524 38.6901 54.3856 37.9104 53.8893 37.1306C52.8262 35.6431 51.6926 34.1542 50.6999 32.5243C49.6368 30.9649 48.5032 29.4759 47.4401 27.9179C46.1641 26.0032 45.0305 24.0194 43.684 22.106C42.4784 20.5466 41.2024 19.1296 40.0688 17.5702C39.9278 17.4278 39.7854 17.2868 39.5725 17.1444C39.2891 16.861 38.9352 16.6481 38.5813 16.5071C37.9426 16.2237 37.1629 16.5776 37.0219 17.2868C36.8795 18.137 37.1629 18.9872 37.3758 19.8374C37.4463 20.2632 37.4463 20.6876 37.5182 21.0429C37.6592 22.247 37.8016 23.4525 37.8721 24.7286C38.0131 25.9327 38.085 27.1382 38.226 28.3423C38.3684 29.6183 38.5094 30.9649 38.6518 32.2409C38.7928 33.5874 38.9352 34.9339 39.0762 36.2804C39.2186 37.6269 39.3596 38.9735 39.5725 40.32C39.7149 41.6665 39.8559 43.0835 40.0688 44.43C40.1393 45.0688 40.2112 45.778 40.3522 46.4153C40.4227 46.7692 40.4227 47.0526 40.4946 47.4079C40.4946 47.5489 40.5651 47.7618 40.6356 47.9042V47.9747C40.7075 48.1157 40.7075 48.3286 40.778 48.471C40.919 48.9659 41.1319 49.4622 41.2743 49.9585C41.6282 50.8806 41.9116 51.8013 42.2655 52.7235C43.684 56.4796 45.101 60.2358 46.5899 63.9214C48.0774 67.7481 49.5663 71.5747 51.0539 75.4028C52.7557 79.7962 54.4561 84.1192 56.1565 88.5141C57.9994 93.3333 59.9141 98.1526 61.8274 102.972C63.5983 107.437 65.3002 111.903 67.0711 116.367C69.1268 121.612 71.112 126.857 73.1664 132.03C75.0797 136.849 76.9225 141.739 78.8372 146.56C80.8211 151.733 82.8768 156.835 84.8606 162.009C86.7739 166.9 88.6873 171.719 90.5301 176.609C92.1614 180.861 93.7914 185.043 95.4918 189.296C96.2715 191.209 96.9807 193.122 97.7604 195.036V195.108C98.0438 195.887 98.4682 196.737 98.8235 197.445C99.1774 198.225 99.6018 199.005 100.098 199.714C101.374 200.707 103.004 201.131 104.634 201.201C105.84 201.273 107.116 200.99 108.249 200.564C108.958 200.351 109.666 199.997 110.233 199.572C110.729 199.218 111.226 198.792 111.651 198.367C112.359 197.588 113.139 196.737 113.635 195.745C114.415 194.398 113.848 192.698 113.352 191.209ZM99.035 195.249C98.7516 194.398 98.2553 193.265 97.9719 192.556C97.618 191.635 97.2641 190.713 96.9088 189.792C97.1922 189.933 97.4756 190.003 97.7604 190.075C98.1848 190.146 98.6106 190.216 99.1069 190.216H99.7442C100.594 190.146 101.374 190.003 102.224 189.792C102.934 189.579 103.713 189.296 104.351 188.94C105.84 188.233 107.257 187.24 108.462 186.106C108.886 185.681 109.312 185.184 109.596 184.689C110.233 186.46 110.942 188.233 111.579 190.003C111.579 190.146 111.651 190.288 111.651 190.359C111.509 190.5 111.368 190.783 111.296 191.067C110.942 191.563 110.446 191.989 109.95 192.415C108.249 193.902 106.264 195.108 103.997 195.532C102.224 195.815 100.524 196.171 99.035 195.249ZM55.3782 41.1702H55.4487C55.5192 41.1702 55.5897 41.2421 55.6616 41.3126C55.7321 41.3831 55.8026 41.4536 55.8731 41.4536C55.945 41.4536 56.0155 41.596 56.086 41.6665C56.1565 41.737 56.2284 41.8089 56.3694 41.8794C56.5118 42.0204 56.6528 42.1628 56.7952 42.3038C56.8657 42.3757 56.9362 42.5167 57.0081 42.5886C57.0786 42.6591 57.0786 42.7296 57.1491 42.8001C57.2915 43.013 57.4325 43.2259 57.5044 43.3669V43.4388C57.5749 43.5798 57.6454 43.7222 57.6454 43.8632C57.6454 43.9351 57.7159 44.0761 57.7159 44.1466C57.7879 44.289 57.7879 44.5019 57.8583 44.6429C58.7791 47.2655 59.7012 49.9585 60.6219 52.5811C61.6145 55.2036 62.5352 57.8261 63.5278 60.5192C65.5836 65.9757 67.5674 71.5042 69.6231 76.9608C71.6069 82.4188 73.6627 87.8048 75.6479 93.2628C77.3483 97.9397 79.1206 102.546 80.8211 107.224C82.5934 112.044 84.4362 116.933 86.2071 121.753C87.9795 126.573 89.8223 131.393 91.5932 136.212C93.295 140.818 94.9955 145.425 96.6973 150.103L102.721 166.333C103.926 169.522 105.13 172.782 106.336 175.971C106.264 176.112 106.264 176.255 106.193 176.325C106.123 176.468 106.052 176.681 105.91 176.822V176.892C105.769 177.176 105.556 177.459 105.343 177.742C105.273 177.459 105.13 177.176 105.06 176.892C103.359 172.428 101.658 168.033 100.028 163.568C98.1143 158.465 96.1291 153.363 94.2157 148.26C92.2319 143.085 90.2467 137.842 88.3334 132.667C86.3496 127.494 84.4362 122.391 82.451 117.217C80.4672 112.114 78.5524 106.941 76.6391 101.768C74.7258 96.7356 72.8125 91.7034 70.8991 86.6007C68.9858 81.5686 67.0711 76.5364 65.1577 71.5042C63.2444 66.5425 61.4016 61.5823 59.4883 56.6206C58.4957 54.07 57.5749 51.5884 56.5823 49.0378C56.1565 47.9747 55.7321 46.8411 55.3063 45.778C55.0934 45.2097 54.8819 44.7148 54.669 44.2185C54.5985 44.0056 54.4561 43.7222 54.3856 43.5093V43.4388L54.4561 43.3669C54.81 42.6591 54.8819 41.8794 55.3782 41.1702ZM101.161 181.004V180.932C100.241 178.594 99.3903 176.255 98.4682 173.916C96.6254 169.167 94.8545 164.42 93.0116 159.741C91.0983 154.78 89.1836 149.748 87.2703 144.717C85.4274 139.826 83.5141 134.936 81.6008 129.974C79.758 125.084 77.8446 120.195 76.0018 115.303C74.0166 110.201 72.1032 105.098 70.1194 99.9954C68.2766 95.1057 66.3633 90.285 64.5204 85.3952C62.6071 80.435 60.6924 75.4733 58.7791 70.4411C57.0081 65.8347 55.2358 61.1565 53.4635 56.5501C52.6133 54.2815 51.6926 51.9438 50.7705 49.6751C50.3461 48.612 49.9202 47.5489 49.4944 46.4858C49.3534 46.2024 49.2829 45.919 49.1405 45.6356C49.2829 45.3522 49.4239 45.0688 49.5663 44.7853C49.8497 44.0761 50.2036 43.3669 50.6295 42.7296C51.4797 42.872 52.2594 43.2964 53.0391 43.6517C53.1801 43.7927 53.3225 43.7927 53.4635 43.8632C53.5354 44.0056 53.5354 44.1466 53.6059 44.289C53.7469 44.7853 53.9598 45.2097 54.1022 45.7061C55.945 50.5972 57.7879 55.5575 59.6293 60.4487C61.4721 65.4089 63.3868 70.3706 65.2297 75.2604C67.143 80.2925 69.0563 85.3247 70.9696 90.3569C72.883 95.3891 74.7963 100.492 76.711 105.524C78.6948 110.627 80.6082 115.8 82.5215 120.902C84.5067 126.077 86.4905 131.25 88.4039 136.425C90.3186 141.527 92.3024 146.63 94.2157 151.733C96.1291 156.835 98.0438 161.938 100.028 167.041C101.374 170.656 103.004 174.908 104.423 178.594L104.351 178.665C104.138 178.877 103.997 179.018 103.784 179.231C103.571 179.444 103.287 179.657 103.004 179.798C102.791 179.941 102.508 180.082 102.296 180.224C102.011 180.365 101.728 180.578 101.517 180.648C101.445 180.861 101.304 180.932 101.161 181.004ZM39.2891 25.2235C39.2891 25.0825 39.2891 24.9401 39.2186 24.7991C39.0762 23.5935 39.0057 22.3894 38.8647 21.1839C38.7223 20.1927 38.6518 19.1296 38.5813 18.137C38.5813 18.0665 38.5094 17.9946 38.5094 17.9946C38.6518 17.9946 38.7928 18.137 38.9352 18.2075C39.0762 18.278 39.1481 18.3499 39.1481 18.4204C39.3596 18.6333 39.5725 18.9872 39.7854 19.2001C40.1393 19.6964 40.4946 20.1208 40.919 20.6171C41.6987 21.5392 42.4784 22.3894 43.1172 23.3821C42.9747 23.523 42.9042 23.6655 42.8337 23.8769C42.3374 24.4452 41.7706 24.8696 41.0614 25.2235C40.5651 25.5083 39.9278 25.5083 39.3596 25.3659C39.3596 25.2235 39.2891 25.2235 39.2891 25.2235ZM41.2024 45.9895C41.1319 45.4932 41.1319 44.9983 41.0614 44.5019C40.919 43.1554 40.8485 41.8089 40.7075 40.3905C40.5651 39.044 40.4227 37.6269 40.2817 36.2804C40.1393 34.9339 39.9983 33.5874 39.8559 32.2409C39.7149 30.9649 39.5725 29.6183 39.4315 28.3423C39.3596 27.705 39.2891 27.0663 39.2186 26.3585C39.502 26.429 39.7854 26.429 39.9983 26.429C41.1319 26.3585 42.195 25.7198 43.0452 24.9401C43.1877 24.7991 43.4711 24.5157 43.684 24.2323C44.8176 26.0032 45.9512 27.9179 47.1567 29.6183C47.9364 30.8224 48.7866 31.8856 49.5663 33.0206C50.5575 34.58 51.6207 36.0675 52.6838 37.4845C53.252 38.3362 53.8188 39.1864 54.4561 39.9661V40.0366C53.8188 40.6034 53.4635 41.8089 53.3225 42.5167C49.3534 40.5329 49.6368 41.5255 47.9364 44.9263C47.0143 44.43 45.1715 42.7296 44.2508 44.0056C43.8969 44.7149 43.7545 45.4227 43.4006 46.1319C42.8337 46.0614 41.6987 45.3522 41.2024 45.9895ZM89.1131 169.663C87.1293 164.631 85.144 159.528 83.1602 154.426C81.175 149.394 79.1911 144.291 77.2778 139.259C75.3645 134.299 73.3793 129.337 71.4659 124.375C69.5526 119.415 67.5674 114.453 65.6541 109.493C63.9536 105.098 62.2518 100.705 60.5514 96.3098C58.5676 91.2071 56.5823 86.0339 54.5266 80.8594C53.1096 77.1737 51.6207 73.4175 50.2036 69.7319C48.7161 65.9757 47.2977 62.2196 45.8102 58.5339C45.0305 56.6206 44.3213 54.7073 43.5415 52.794C43.1171 51.8013 42.7618 50.8087 42.3374 49.888C42.1245 49.3917 41.9116 48.8954 41.6282 48.3286C41.5577 48.1876 41.4858 48.1157 41.4858 48.0452C41.6987 47.6913 41.9116 47.195 42.054 47.0526C42.4079 47.195 42.8337 47.2655 43.1876 47.4784C43.4006 47.6194 43.7545 47.6913 44.0379 47.5489C44.3918 47.4079 44.6047 47.0526 44.7471 46.7692C45.0305 46.2024 45.2434 45.5651 45.4549 44.9983C46.377 45.3522 47.1567 46.0614 48.0069 46.4858C48.1479 46.5563 48.2903 46.5563 48.4327 46.4858C48.5737 47.0526 48.7866 47.5489 48.9995 48.0452C49.5663 49.5341 50.1331 51.0216 50.6999 52.5106C52.4723 57.1169 54.2432 61.7233 55.945 66.331C57.8584 71.2913 59.7012 76.1825 61.6145 81.1428C63.4573 85.962 65.3002 90.7813 67.143 95.6006C69.1268 100.705 71.0401 105.807 73.0254 110.91C74.9387 115.8 76.7815 120.691 78.6948 125.651C80.6082 130.613 82.5215 135.573 84.4362 140.535C86.3496 145.425 88.1924 150.386 90.1057 155.276C92.019 160.167 93.8619 165.127 95.7752 170.019C97.2641 173.916 98.7516 177.742 100.241 181.641L100.311 181.711C99.8147 181.924 99.3184 182.137 98.8235 182.278C98.5387 182.35 98.3272 182.421 98.0438 182.491C97.7604 182.563 97.4051 182.563 97.1217 182.634H96.342C95.8457 182.563 95.3494 182.491 94.925 182.421C94.6416 182.35 94.4287 182.278 94.1453 182.208C92.3024 177.885 90.743 173.775 89.1131 169.663ZM94.7826 184.264C94.6416 183.91 94.4992 183.626 94.4287 183.341C94.6416 183.413 94.8545 183.484 95.1379 183.484C95.4918 183.554 95.8457 183.626 96.2715 183.626H96.6973C96.9088 183.626 97.1217 183.626 97.3346 183.554C97.618 183.554 97.9014 183.484 98.1848 183.413C98.4682 183.341 98.7516 183.271 98.9645 183.2C99.2479 183.13 99.5313 182.987 99.7442 182.917C100.028 182.846 100.241 182.704 100.524 182.563C101.091 182.35 101.587 182.067 102.083 181.854C102.367 181.711 102.58 181.57 102.863 181.428C103.075 181.287 103.359 181.145 103.571 181.004C103.854 180.861 104.067 180.648 104.28 180.507C104.493 180.365 104.706 180.153 104.917 179.941C105.13 179.728 105.343 179.585 105.556 179.374C105.769 179.161 105.91 178.948 106.123 178.735C106.264 178.522 106.477 178.311 106.619 178.027C106.76 177.814 106.903 177.601 106.973 177.389C107.399 178.594 107.895 179.798 108.32 181.004C108.533 181.641 108.816 182.28 109.029 182.917C108.958 183.058 108.886 183.271 108.816 183.413C108.674 183.626 108.533 183.838 108.39 184.051C108.179 184.334 107.966 184.617 107.753 184.83C107.469 185.184 107.116 185.469 106.76 185.752C106.336 186.106 105.91 186.39 105.414 186.744C104.847 187.099 104.28 187.382 103.713 187.666C103.217 187.877 102.65 188.162 102.083 188.303C101.587 188.445 101.02 188.586 100.524 188.729C100.098 188.799 99.7442 188.87 99.3184 188.87H98.3272C98.0438 188.87 97.7604 188.799 97.4756 188.729C97.2641 188.657 97.0512 188.586 96.8383 188.516C96.6973 188.445 96.6254 188.445 96.4844 188.374H96.4125C95.9176 187.099 95.3494 185.681 94.7826 184.264ZM111.368 197.021C110.659 197.871 109.809 198.721 108.816 199.218C107.823 199.643 106.76 199.997 105.697 200.138C104.563 200.21 103.43 200.138 102.367 199.714C101.87 199.501 101.233 199.36 100.948 198.864C100.453 198.154 100.028 197.304 99.5313 196.595C99.6737 196.666 99.8147 196.666 99.8852 196.737C101.233 197.162 102.65 196.878 103.997 196.595C107.186 196.099 109.95 194.185 112.076 191.918C112.146 191.846 112.146 191.776 112.218 191.705C113.068 194.185 113.209 195.036 111.368 197.021Z" fill="black"/>
<path d="M93.1523 182.352C93.1523 182.352 93.1523 182.281 93.2228 182.281C93.2962 182.281 93.2962 182.281 93.2962 182.352C93.2962 182.422 93.2962 182.422 93.2228 182.422C93.1523 182.422 93.1523 182.352 93.1523 182.352Z" fill="black"/>
<path d="M93.0811 182.281C93.0811 182.281 93.0811 182.21 93.1516 182.21C93.2249 182.21 93.2249 182.21 93.2249 182.281C93.2249 182.351 93.2249 182.351 93.1516 182.351C93.0811 182.351 93.0811 182.351 93.0811 182.281Z" fill="black"/>
<path d="M70.8283 73.9847C70.7578 73.9847 70.7578 73.8423 70.8283 73.8423C70.8988 73.8423 70.8988 73.9847 70.8283 73.9847Z" fill="#FFC540"/>
<path d="M90.3198 82.5592H90.3184V82.5606H90.3198V82.5592Z" fill="black"/>
<path d="M66.1507 74.836C66.1507 74.836 66.0802 74.836 66.0802 74.7655C66.0083 74.7655 66.0083 74.7655 66.0083 74.6936C65.9378 74.7655 65.7249 74.6936 65.7249 74.5526V74.3397C65.5839 74.2692 65.5839 74.0563 65.7249 74.0563C65.7968 73.9858 65.7249 73.7729 65.8673 73.7024L65.9378 73.6305V73.56C65.9378 73.419 65.8673 73.1356 66.0802 72.9932C66.0802 72.7803 66.3636 72.7803 66.4341 72.9932V73.1356C66.4341 73.56 66.647 74.9065 66.1507 74.836Z" fill="black"/>
<path d="M79.1201 112.044C79.1201 111.974 79.1201 111.974 79.1906 111.974C79.2639 111.974 79.2639 111.974 79.2639 112.044C79.2639 112.115 79.2639 112.115 79.1906 112.115C79.1201 112.115 79.1906 112.044 79.1201 112.044Z" fill="black"/>
<path d="M104.209 32.2394C103.499 31.5313 104.775 31.2479 105.342 31.2467C105.768 31.247 105.84 31.6726 105.839 31.9561C105.839 32.4526 105.272 32.524 104.989 32.453C104.634 32.4531 104.351 32.4523 104.209 32.2394Z" fill="#FCC6A7"/>
<path d="M102.013 30.3277C101.943 30.115 102.083 30.044 102.296 29.9022C102.509 29.7616 102.722 29.6191 102.792 29.8318C102.863 30.1161 102.296 30.0442 102.226 30.2575C102.226 30.3279 102.013 30.3981 102.013 30.3277Z" fill="black"/>
<path d="M102.012 30.1132C101.515 29.6874 102.508 29.6169 102.792 29.6169C103.004 29.6169 103.288 29.3335 103.501 29.5464C103.571 29.4759 103.784 29.5464 103.712 29.6169C103.501 29.8298 103.288 29.8298 103.145 29.9003C102.792 30.0427 102.438 30.1132 102.012 30.1132Z" fill="black"/>
<path d="M119.802 74.482C121.148 59.5984 116.612 51.6603 107.398 48.5429C99.6729 55.346 99.3895 51.6603 94.996 52.3695C89.0431 50.7396 86.4206 47.1244 86.4206 47.1244C86.4206 47.1244 73.4503 44.7867 67.7103 57.1888C62.7487 67.8199 63.3155 75.5451 65.938 81.9238C68.0642 83.2704 66.9306 85.1132 71.4665 85.5376C70.4739 93.3347 70.4034 99.0747 69.8366 108.076C92.444 108.146 117.392 106.587 117.392 106.587C117.392 106.587 117.462 89.8619 119.802 74.482Z" fill="#B1C1E3"/>
<path d="M106.265 29.7597C109.738 34.6495 97.973 40.7448 102.366 46.4143C102.792 46.9106 102.366 47.6903 101.8 47.9737C94.004 49.5331 98.6822 52.8648 94.0745 52.298C92.0202 51.022 93.8616 47.3364 90.8851 46.6272C89.7515 45.8474 92.0202 44.6433 91.3109 43.9341C87.6253 39.9651 83.9396 34.5085 84.6488 30.397C89.8939 9.41954 103.855 25.4368 106.265 29.7597Z" fill="#FCC6A7"/>
<path d="M74.1592 66.472C65.5133 61.227 71.892 68.2444 68.7732 65.9757C67.923 69.4485 77.2781 69.8024 79.9006 70.0872C79.9711 66.472 69.6234 59.1007 74.1592 66.472Z" fill="#FCC6A7"/>
<path d="M107.753 75.0491C104.918 70.7262 90.814 72.4971 90.814 72.4971C90.814 72.4971 88.2634 76.3957 89.4675 80.0108C95.7052 78.0961 103.855 81.4983 107.753 75.0491Z" fill="#FCC6A7"/>
<path d="M117.392 108.074C118.455 110.91 120.582 116.083 118.881 117.783C117.392 119.343 115.903 123.454 113.636 123.666C99.6745 124.658 69.9778 120.832 69.9778 120.832C69.9778 120.832 65.7958 114.594 70.5446 108.145C88.2637 108.004 108.533 106.941 117.392 108.074Z" fill="white"/>
<path d="M102.791 180.297C102.791 180.297 100.523 185.469 96.6253 185.752C95.2793 187.242 98.6102 190.927 98.4684 192.77C100.098 194.613 109.31 190.219 106.335 182.635C104.565 181.642 102.791 180.297 102.791 180.297Z" fill="#FCC6A7"/>
<path d="M97.6186 194.895C95.9887 193.832 93.0123 193.762 91.1694 193.406C86.7746 198.014 99.178 202.621 97.6186 194.895Z" fill="#FCC6A7"/>
<path d="M112.714 183.769C111.721 181.216 108.532 180.65 106.689 182.139C106.194 184.478 107.257 186.745 106.265 189.084C102.366 194.257 98.3971 193.337 98.3971 193.337C98.3971 193.337 97.5469 195.746 96.6262 199.077C92.7277 201.416 90.8848 194.47 87.5545 198.226C83.0891 202.479 85.9246 201.275 80.75 207.085C81.6002 209.708 86.9877 211.834 93.224 207.37C95.9875 202.762 99.1769 207.937 105.485 201.841C108.32 199.006 109.595 190.927 111.793 190.997C113.99 186.958 114.557 184.335 112.714 183.769Z" fill="#273671"/>
<path d="M105.981 47.5489C103.926 45.2802 103.429 47.4784 101.516 48.2581C99.9565 49.1083 97.3354 48.2581 96.5557 51.4474C97.3354 54.4944 109.241 50.3843 105.981 47.5489Z" fill="white"/>
<path d="M91.594 47.4085C90.318 43.7933 85.9245 46.1325 86.6323 47.6214C89.5383 53.6448 95.704 52.3702 91.594 47.4085Z" fill="white"/>
<path d="M106.973 22.9563C102.863 13.0344 86.3492 15.444 83.6562 25.2954C81.671 36.4229 81.3171 37.2012 87.3405 37.7694C87.3405 37.7694 86.9161 35.7137 87.0571 33.8004C85.0027 30.3276 86.9866 29.8313 87.3405 28.5553C89.8925 19.2707 99.4605 20.5467 103.43 29.2645C103.996 30.5391 103.43 32.5948 105.272 30.611C108.036 29.7608 107.61 33.658 106.619 35.0045C104.847 37.1307 101.728 37.2731 106.052 38.4772C112.359 37.5565 110.375 26.642 106.973 22.9563Z" fill="#3C3D56"/>
<path d="M87.7666 34.5807C84.6478 33.2342 85.7828 27.2813 90.1058 28.6278C94.5711 30.0448 91.5933 36.2811 87.7666 34.5807Z" fill="#B1C1E3"/>
<path d="M97.4058 34.1546C93.2957 33.3749 94.5703 26.9257 98.6818 28.1298C102.579 29.1929 101.304 34.5085 97.4058 34.1546Z" fill="#B1C1E3"/>
<path d="M91.1689 128.629C90.6726 130.896 85.357 152.088 84.8607 155.348C86.8459 157.403 89.1851 159.459 90.815 161.797C90.815 161.797 91.3113 128.771 91.1689 128.629ZM115.762 122.959C114.274 127.919 109.455 136.211 106.973 147.978C104.635 159.176 106.123 167.468 104.067 180.225C99.9572 181.5 98.3978 185.611 95.4214 185.398C97.4771 188.162 98.7517 192.201 97.5476 193.69C96.7679 194.683 94.6417 194.257 91.8781 192.06C92.0896 189.225 91.8781 186.035 91.0265 183.555C86.633 174.626 76.5687 166.192 69.9066 155.986C69.1988 143.796 69.3398 136.921 71.7494 121.4C92.232 121.824 108.887 125.439 115.762 122.959Z" fill="#273671"/>
<path d="M93.7907 31.0362C93.2941 30.8237 92.7277 31.1069 92.301 30.966C92.0183 30.7523 92.09 30.4692 92.3736 30.3988C92.7985 30.1864 93.2239 29.9727 93.6486 29.9736C94.7108 29.7602 94.7838 31.1071 93.7907 31.0362Z" fill="black"/>
<path d="M110.446 30.8225C108.39 8.63946 80.2546 12.3956 82.0974 34.1542C81.814 37.5551 83.8683 38.0514 86.7743 38.3348C87.2001 38.3348 87.2706 38.4053 87.4835 38.1219C88.4761 36.279 83.8683 37.6975 83.5144 36.4919C81.1048 28.6962 85.3572 18.5614 93.7198 17.002C92.3732 19.3411 94.7124 19.2706 94.7124 16.7891C99.3187 15.585 103.784 18.3485 106.336 22.0341C109.454 26.3571 110.233 32.4524 107.824 37.2012C107.611 37.2717 107.399 37.627 107.399 37.768C103.075 36.9177 103.004 38.3348 107.186 38.8311C107.186 38.8311 107.753 38.8311 108.037 38.7606C108.533 39.1145 110.659 33.3745 110.446 30.8225Z" fill="black"/>
<path d="M107.54 30.3259C107.114 29.3333 105.768 29.3333 104.988 29.9001C104.564 30.1835 104.421 30.6798 103.997 30.8927C103.714 29.0499 103.217 27.0661 102.012 25.5067C99.4611 22.4583 95.705 20.404 91.8064 21.821C88.7595 22.5302 86.8447 25.2937 86.8447 28.6255C86.8447 29.0499 87.6244 28.837 87.4129 28.6255C87.9798 25.9325 89.3968 22.9546 92.3732 22.6007C95.9884 21.7505 99.1777 23.3804 101.445 26.2159C102.438 27.4905 102.791 29.1204 103.004 30.6798C103.288 32.4521 104.493 31.7429 105.343 30.7517C105.627 30.4683 106.477 30.0425 106.62 30.6798C106.62 31.1056 106.69 31.6724 106.62 32.0263C106.335 33.3024 105.768 34.3655 104.847 35.3581C104.421 35.1452 104.067 34.5784 103.571 34.6489C103.004 34.7194 102.791 35.4991 103.288 35.8544C103.358 35.8544 103.358 35.9249 103.501 35.9249V36.7046C101.658 47.3358 87.4129 44.7132 87.4834 35.0747C87.5539 34.7913 87.2705 34.295 87.0576 34.6489C86.2779 38.0511 88.0502 41.3815 90.8857 43.1538C90.8857 43.3667 90.8138 43.4372 90.8138 43.6501C90.6009 44.2169 90.3175 44.9966 90.5304 45.6339C90.7433 45.8468 90.9562 45.6339 91.0267 45.4224C91.4525 44.9261 91.8064 44.3593 91.8769 43.7925C92.94 44.2874 94.1455 44.5708 95.2791 44.6427C97.3349 44.7132 99.2482 44.0759 100.949 42.8704V43.2962C101.162 44.8542 101.445 46.4855 102.508 47.7602C102.791 48.0436 103.288 47.6897 103.217 47.2653C103.147 46.9804 103.004 46.7689 103.004 46.556C102.721 45.2095 102.154 43.863 101.871 42.4446V42.2331C103.501 40.7442 104.634 38.7603 104.705 36.4917C106.761 37.4138 108.249 31.8148 107.54 30.3259Z" fill="black"/>
<path d="M93.3657 39.7543C92.7989 39.6838 92.2321 39.4709 91.8063 39.0451C91.7358 38.9746 91.5229 38.7617 91.7358 38.6207C91.8063 38.5488 92.0192 38.6207 92.1602 38.6207C92.586 38.6912 92.9399 38.8336 93.4362 38.8336C94.2159 38.8336 94.9251 38.7617 95.4919 38.4078C95.7048 38.3373 95.7753 38.1949 95.9882 38.1244C96.2716 37.841 96.8384 37.9115 97.1218 38.1244C97.9015 38.6912 96.696 39.3285 96.0587 39.6119C95.0661 39.9672 94.2159 39.9672 93.3657 39.7543Z" fill="black"/>
<path d="M93.72 36.7782C93.2237 36.7077 92.5864 36.4948 92.3735 35.9985C92.303 35.7856 92.303 35.5022 92.444 35.4317C92.9403 35.2188 93.4366 35.4317 93.9329 35.4317C94.3573 35.4317 94.7126 35.5022 94.7831 35.928C94.9255 36.4948 94.2163 36.8487 93.72 36.7782Z" fill="black"/>
<path d="M111.652 136.141C113.14 132.809 116.4 124.234 116.684 123.384C116.754 123.1 117.676 121.044 117.393 120.761C116.967 120.265 116.541 121.328 116.33 121.754C115.478 123.243 114.487 125.723 113.991 127.423C112.998 129.833 111.935 132.385 110.942 134.794C109.312 139.188 107.116 143.157 106.053 147.765C105.06 152.512 105.273 157.899 105.202 162.576C105.132 167.325 104.777 172.144 103.926 176.61C103.856 177.886 103.43 179.019 103.217 180.223C103.217 180.223 103.147 180.223 103.147 180.153C103.076 180.083 102.934 180.083 102.934 179.94C103.006 179.657 103.147 179.373 103.147 179.09C103.217 178.523 103.43 177.956 103.36 177.318C103.289 177.106 103.147 177.034 102.934 177.034C102.863 176.326 101.8 175.404 101.446 174.98C100.1 173.35 98.6812 171.648 97.3347 170.018C94.997 167.466 93.2247 164.49 91.0984 161.726C91.3818 161.513 91.3818 161.017 91.3818 160.663C91.3113 159.883 91.3113 159.317 91.3113 158.537C91.0984 155.773 91.2394 153.08 91.2394 150.315C91.2394 146.702 91.5243 143.229 91.8077 139.614C91.8077 137.558 91.8782 135.504 91.8782 133.377C91.8077 132.314 91.8077 131.251 91.8077 130.188C91.8782 129.762 91.8782 129.336 91.8782 128.912C91.9487 127.849 91.8782 126.786 91.4523 125.723C91.3818 125.51 91.2394 125.226 91.0279 125.226C90.956 125.226 90.815 125.297 90.7445 125.51C90.2482 126.36 90.3187 127.495 90.2482 128.558C90.2482 128.841 90.1763 129.336 90.1763 129.692C89.6095 131.959 89.0427 134.157 88.4054 136.424C87.9091 139.26 86.9165 141.882 86.4202 144.646C86.1368 146.133 85.9253 147.693 85.57 149.111C85.0032 150.741 84.7198 152.442 84.5069 154.143C84.0105 153.718 83.3732 153.859 83.3732 154.497C83.3732 154.851 83.6566 155.064 83.94 155.205C84.4364 155.56 84.9327 156.057 85.2866 156.694C86.4202 158.324 87.8386 159.883 89.1132 161.443C89.8929 162.222 90.7445 163.215 91.5243 164.206C93.2952 166.545 94.9251 168.885 96.9808 171.011C98.6107 173.278 100.383 175.404 102.226 177.46C102.226 177.53 102.296 177.53 102.437 177.53C102.226 178.31 102.154 179.16 101.942 179.94C101.73 180.79 101.163 181.5 100.454 182.066C99.7444 182.776 99.32 183.342 98.3978 183.909C97.9015 184.476 97.1218 184.618 96.555 184.972C95.8472 185.256 95.0675 185.469 94.4288 185.185C94.0044 184.831 93.6491 184.405 93.2952 183.909C91.8077 182.066 90.2482 180.223 88.6888 178.453C87.8386 177.177 86.846 176.043 85.8534 174.837C83.0193 171.435 80.1134 168.034 77.2075 164.773C75.1517 162.222 72.5997 159.883 71.1827 156.907C68.9154 152.725 70.1196 147.835 69.8361 143.299C70.0491 138.41 70.403 133.518 70.9698 128.77C71.1827 127.423 71.3956 126.148 71.538 124.801C71.6085 123.667 72.0329 122.391 71.8214 121.328C71.7495 121.257 71.6085 121.257 71.6085 121.257C71.3956 121.328 71.3956 121.541 71.3956 121.683C70.9698 124.022 70.403 126.432 70.1196 128.77C69.6232 131.959 69.6232 135.078 69.2693 138.338C69.0564 140.96 68.8435 143.512 68.773 146.205C68.4896 150.315 68.2767 154.71 70.5454 158.324C72.1048 161.159 74.372 163.356 76.2853 165.836C79.1913 169.026 82.0267 172.357 84.7903 175.688C86.7755 178.027 88.4054 180.436 90.5316 182.705C90.6021 182.776 90.7445 182.917 90.815 182.988C90.3187 186.035 90.815 189.154 90.5316 192.273C90.4611 192.627 90.5316 192.84 90.815 193.123C90.7445 193.194 90.7445 193.336 90.6021 193.407C90.0353 194.186 89.8929 195.037 89.4685 195.816L89.2556 196.029C88.4054 196.241 87.6962 196.809 87.1294 197.659C86.3497 198.793 85.57 199.998 84.7198 201.202C84.5069 201.556 84.4364 201.912 84.2234 202.266C84.0105 202.549 83.799 202.762 83.6566 203.045C82.5935 204.179 81.3175 205.312 80.4673 206.659C80.0415 207.227 80.6802 207.794 80.9636 208.431C81.4599 209.211 82.4511 209.565 83.2308 209.92C84.5773 210.417 85.9958 210.274 87.3423 210.487C89.8929 210.487 92.3026 209.353 94.1454 207.581C94.8546 206.872 95.6343 206.235 96.2716 205.525C96.4845 205.525 96.555 205.455 96.7679 205.312C97.0513 206.022 97.7605 206.447 98.6107 206.376C101.659 206.447 104.564 205.101 106.195 202.549C107.541 200.565 108.605 198.367 109.383 196.241C109.879 194.683 110.163 193.051 111.155 191.564C112.005 191.847 113.14 191.777 113.424 190.714C113.991 189.225 114.77 187.878 114.698 186.248C114.698 185.539 114.415 183.696 113.707 182.917C112.715 181.57 111.298 181.146 109.525 180.79C108.675 180.72 107.682 180.72 106.903 181.003C106.69 181.003 106.478 181.359 105.627 181.287C105.202 181.216 104.847 181.075 104.493 181.003C105.06 178.594 106.762 166.404 106.762 161.3C106.762 156.623 106.69 151.945 107.825 147.339C108.816 143.653 110.235 139.897 111.652 136.141ZM90.1058 142.945C90.0353 146.913 90.0353 151.025 89.8224 154.994C89.7519 156.34 89.8929 157.616 90.0353 158.891V160.237C88.6888 158.466 87.4833 156.694 85.9253 155.205C86.2087 151.804 87.0589 148.472 87.6962 145.142C88.122 143.157 88.5464 141.173 89.0427 139.33C89.539 137.346 89.7519 135.361 90.3892 133.377C90.3892 133.164 90.6021 132.668 90.6726 132.101C90.6021 135.715 90.3892 139.33 90.1058 142.945ZM90.5316 197.587C91.0984 197.943 91.6653 198.58 92.3026 198.935C93.0823 199.43 94.0749 199.785 95.0675 199.785C94.2173 201.132 93.4376 202.691 92.0192 203.683C90.1763 203.895 90.3892 200.919 90.3892 199.785C90.1763 199.076 90.3892 198.296 90.5316 197.587ZM87.0589 199.36C87.7667 198.58 88.3349 197.304 89.4685 197.092H89.6814C89.4685 197.304 89.398 197.587 89.2556 197.8C88.263 199.076 87.2718 200.423 85.9253 201.345C85.7124 201.415 85.6405 201.556 85.429 201.628C85.9958 200.848 86.6331 200.069 87.0589 199.36ZM85.0737 202.195H85.1456C86.2792 202.266 87.2718 201.202 87.9796 200.423C88.1925 200.139 88.9722 199.43 89.539 198.65C89.0427 200.636 88.8298 203.258 90.3187 204.462C90.815 204.959 91.4523 204.818 92.0911 204.746C92.8708 204.534 93.3657 203.754 93.862 203.186C94.6417 202.123 95.4919 200.919 95.9882 199.643C96.2011 199.572 96.4845 199.572 96.6974 199.43L96.7679 199.36C96.7679 199.289 96.8384 199.289 96.8384 199.147C96.9103 199.076 97.0513 199.076 97.1232 198.935C97.0513 199.289 97.0513 199.713 96.9103 200.069C96.6269 201.345 96.3435 202.619 95.7753 203.754C95.5638 203.754 95.3509 203.966 95.2804 204.038C93.5081 206.164 91.3113 208.218 88.4759 208.715C87.4128 208.928 86.3497 208.644 85.2866 208.502C83.799 208.431 81.8843 208.007 80.9636 206.731C81.5304 205.881 82.3101 205.455 83.0193 204.675C83.3027 204.321 83.5861 203.825 83.8695 203.399C84.0824 203.045 84.153 202.619 84.3659 202.266M95.9882 197.943C95.5638 198.226 95.2085 198.65 94.7122 198.65C93.3657 198.367 92.3745 197.304 91.3113 196.524C91.0279 196.313 90.7445 196.241 90.5316 196.17C90.815 195.603 90.956 194.894 91.0279 194.611C91.0984 194.257 91.2394 193.831 91.2394 193.548C91.4523 193.62 91.7358 193.761 91.9487 193.831C93.0823 194.611 94.5712 194.824 96.0601 194.966H97.3347C97.3347 195.674 97.4066 196.454 97.4066 197.092C96.8384 197.304 96.414 197.517 95.9882 197.943ZM97.2642 193.123V193.336C96.2716 193.407 95.4214 193.123 94.4288 192.84C93.5786 192.627 92.7989 192.131 91.8782 191.847C91.8782 190.004 91.9487 188.162 91.8077 186.319C91.8077 185.469 91.5948 184.548 91.3818 183.768C92.3745 185.043 93.3657 186.389 94.8546 186.602H95.5638C96.1306 188.232 97.1937 189.721 97.4066 191.564C97.4066 192.131 97.3347 192.627 97.2642 193.123ZM106.903 188.375C107.753 186.319 107.612 184.263 106.903 182.209C108.888 181.216 111.298 182.209 112.644 183.98C112.857 184.548 113.14 185.115 113.211 185.611C113.281 186.178 113.211 186.745 112.928 187.382C112.502 188.232 112.077 189.154 111.652 190.004C111.226 190.075 110.872 190.004 110.518 190.075C110.092 190.288 109.951 190.571 109.738 190.855C108.675 192.697 108.462 194.966 107.47 196.879C106.195 199.998 104.139 203.045 100.95 204.179C100.241 204.392 99.6034 204.675 98.8942 204.675C98.3978 204.675 97.9015 204.746 97.5476 204.462C97.2642 204.179 97.5476 203.683 97.5476 203.399V203.116C97.5476 203.045 97.6181 202.903 97.6181 202.832C98.1144 201.84 98.3273 200.565 98.3273 199.502C98.3978 199.006 98.2568 198.722 98.1144 198.226V198.013L98.1849 197.943C98.1849 197.872 98.2568 197.872 98.2568 197.73C98.2568 197.587 98.3273 197.517 98.4698 197.517H98.7532C98.7532 197.163 98.6812 196.809 98.6812 196.454C98.9646 196.95 99.2481 197.446 99.6739 197.943C100.17 198.296 100.737 198.509 101.446 198.722C104.352 199.289 106.336 196.737 106.619 194.044C106.69 192.768 106.195 191.493 106.053 190.217V190.147C106.265 189.651 106.69 189.084 106.903 188.375ZM98.4698 194.044V193.831C101.091 194.186 103.501 192.981 105.273 191.068C105.769 196.454 102.509 200.493 98.5403 194.399C98.6812 194.186 98.6812 194.114 98.4698 194.044ZM105.202 182.705C105.627 185.469 105.769 189.225 103.36 191.068C102.083 192.201 100.241 192.84 98.6107 192.556C98.8942 191.068 98.8237 189.367 97.831 188.091C97.3347 187.595 96.9808 187.028 96.4845 186.532C98.5403 186.035 100.17 184.193 101.517 182.563C102.013 182.066 102.367 181.429 102.65 180.79C103.217 181.853 104.069 182.492 105.202 182.705Z" fill="black"/>
<path d="M120.581 66.7565C120.297 64.4174 120.014 62.1502 119.588 59.8111C119.375 57.4719 118.525 55.2047 116.754 53.5748C115.408 52.2988 113.919 51.1651 112.289 50.243C111.155 49.5338 109.95 48.7541 108.674 48.4002C108.462 48.3297 108.249 48.3297 107.966 48.1873C107.753 47.4795 106.619 47.1961 106.123 46.8408C105.556 46.3445 105.13 45.3533 104.28 45.4942C103.288 45.7072 102.721 46.4869 102.011 47.1242C101.515 47.4076 101.02 47.6205 100.453 47.8334C99.4609 48.2592 98.4682 47.7629 97.5475 48.2592C96.4125 48.967 96.0586 50.5264 95.9162 51.66V51.8729C95.4918 51.8729 95.1379 51.8024 94.6416 51.66C94.3582 51.5895 94.0748 51.5895 93.7914 51.4485C93.7914 51.1651 93.5066 50.8803 93.3656 50.6688C93.1527 50.102 93.2951 49.4633 93.3656 48.8965C93.4361 47.1242 92.232 46.8408 90.9559 46.0611C90.743 45.8496 90.8854 45.5662 90.8854 45.2813C90.8854 44.8569 90.8135 44.4311 90.3172 44.2901C89.5389 44.0772 87.1998 45.8496 86.7035 46.274H86.633C86.5611 46.274 83.5141 46.6998 82.2381 46.7703C75.576 46.8408 71.8199 49.0389 68.6305 54.8494C65.4412 60.2369 63.1021 66.5436 63.6703 72.8518C63.7408 74.4113 63.9537 75.9707 64.2371 77.5287C64.5205 79.0176 64.7334 80.577 65.3002 81.9236C65.867 83.0572 66.8582 83.9793 67.9213 84.8295C68.7729 85.3963 69.7642 85.8221 70.8273 86.1055V86.317C70.2605 90.2861 70.3324 94.3975 70.2605 98.5076C70.2605 99.5707 70.2605 100.776 70.19 101.839C70.19 103.186 69.6937 108.855 69.6937 108.855C67.3545 112.541 66.8582 117.927 69.9771 121.329C76.2147 123.667 85.2865 123.384 90.3172 123.952C97.0512 124.73 113.281 127.566 117.321 121.541C121.431 115.305 120.51 113.462 118.384 108.218C118.384 107.933 118.596 102.76 118.455 100.493C118.384 96.6648 118.738 92.9086 118.738 89.082C118.738 87.452 118.808 85.7502 118.455 84.1908C119.305 82.6328 119.943 80.8604 120.084 79.16C121.148 75.0486 121.077 71.009 120.581 66.7565ZM97.1922 51.3061C98.6812 46.9832 98.9646 51.3061 102.863 48.1168C103.358 47.6924 103.713 47.0537 104.421 46.8408C104.847 47.1242 104.989 47.6205 105.273 47.9039C105.556 48.1873 105.981 48.4002 106.336 48.6131H106.264L105.697 49.1799C105.484 49.3928 105.273 49.6057 104.989 49.6762C104.705 49.8891 104.28 50.102 103.997 50.243C103.5 50.4559 103.147 50.7393 102.65 50.9522C101.941 51.2356 101.161 51.4485 100.524 51.66C99.8853 51.8729 99.248 51.8729 98.5387 51.9434C97.9719 52.0153 97.4051 52.0153 96.7678 52.0153C97.0512 51.7319 97.2641 51.4485 97.1922 51.3061ZM89.7504 45.4238C89.326 46.4164 90.2467 47.2666 91.0969 47.55C91.8767 47.8334 92.373 48.2592 92.1601 49.1094C92.0896 49.6762 92.0896 50.3854 92.232 50.9522C91.9486 50.8803 91.6652 50.7393 91.3803 50.5264C90.9559 50.3135 90.602 50.102 90.2467 49.8172C89.9633 49.6057 89.467 49.3223 89.1836 49.0389C88.7592 48.7541 88.4758 48.3297 88.1924 48.0463C88.1205 47.9758 87.9076 47.7629 87.6961 47.4795C87.4832 47.2666 87.4127 46.9832 87.1998 46.7703C86.9164 46.7703 88.9707 45.9201 89.7504 45.4238ZM118.88 113.958C119.305 115.801 117.321 121.826 114.132 122.746C107.186 124.73 99.1056 122.676 91.7357 122.25C84.9312 121.826 75.6465 121.683 71.1826 120.407C69.3398 119.84 68.8434 116.934 68.7729 115.021C68.7729 112.965 70.3324 110.415 70.4029 108.572C70.6863 108.572 71.1107 108.501 71.2531 108.359C74.159 109.068 82.451 108.572 83.727 109.068C91.5228 108.996 99.248 108.785 106.903 108.218C109.17 108.005 114.485 108.005 116.966 107.438C116.895 109.706 118.384 111.691 118.88 113.958ZM71.8199 86.317C72.2457 86.3889 72.5996 86.5299 72.9535 86.5299C75.7889 86.5299 78.6244 85.5373 81.3174 84.759C82.3086 84.5461 83.1602 84.3332 84.1514 84.0498C84.1514 84.2627 84.3644 84.3332 84.5773 84.4742C85.7109 85.1834 86.8445 85.9631 87.9795 86.6004C90.3172 87.9469 92.3025 89.3654 94.7121 90.5695C98.5387 92.5547 102.578 94.0422 106.903 94.1846C109.029 94.1141 110.8 92.6252 112.359 91.2787C113.493 90.2156 114.911 89.223 115.832 88.0893C116.612 87.2391 117.321 86.317 117.958 85.3258C117.958 85.7502 117.888 86.1055 117.888 86.176C117.321 90.1451 117.391 94.2551 117.321 98.3666V99.9246C102.224 100.776 86.633 99.8541 71.7494 101.414V100.421C71.6789 96.5943 72.0328 92.8381 72.0328 89.01C71.8904 87.7354 71.9623 87.3096 71.8199 86.317ZM117.179 105.949H116.471C115.408 106.02 114.344 106.02 113.139 106.162C113.068 104.673 112.926 102.264 112.926 101.414C114.415 101.414 115.761 101.414 117.038 101.343V101.91C117.108 102.547 117.179 104.39 117.179 105.949ZM111.935 106.233C110.588 106.303 109.17 106.303 107.966 106.446C107.894 105.099 107.753 102.547 107.753 101.484C109.24 101.484 110.588 101.414 111.935 101.414C111.722 102.619 111.863 104.745 111.935 106.233ZM106.69 106.446C105.343 106.446 103.926 106.516 102.721 106.516C102.65 105.24 102.508 102.69 102.508 101.556C103.854 101.556 105.343 101.484 106.69 101.484C106.477 102.831 106.547 105.029 106.69 106.446ZM101.304 106.587C99.9572 106.587 98.5387 106.659 97.1922 106.659C97.1217 105.524 96.9793 103.043 96.9793 101.767C98.3273 101.767 99.7443 101.697 101.091 101.697C101.161 103.043 101.232 105.24 101.304 106.587ZM96.0586 106.729C94.7121 106.729 93.2951 106.729 91.9486 106.8C91.8767 105.17 91.7357 102.831 91.7357 102.123C91.7357 102.051 91.6652 102.051 91.6652 102.051C93.0117 101.98 94.4992 101.98 95.8457 101.839C95.8457 103.186 95.9881 105.453 96.0586 106.729ZM90.743 106.8C89.3965 106.8 87.9795 106.8 86.774 106.87C86.7035 105.312 86.5611 102.902 86.5611 102.193C87.9076 102.123 89.3965 102.123 90.8854 101.98C90.8854 102.051 90.8135 102.051 90.8135 102.193C90.5301 103.327 90.602 105.24 90.743 106.8ZM85.357 106.8C84.0105 106.8 82.5934 106.8 81.3879 106.87C81.3174 105.383 81.175 103.256 81.175 102.264C82.451 102.193 83.94 102.193 85.357 102.051C85.1441 103.327 85.2865 105.383 85.357 106.8ZM80.1119 106.942C78.7654 106.942 77.3484 107.013 76.1428 107.013C76.0723 105.666 75.9313 103.61 75.9313 102.619C77.065 102.547 78.5525 102.547 80.1119 102.406C79.899 103.61 79.9709 105.524 80.1119 106.942ZM71.607 102.831C72.1738 102.831 73.2369 102.76 74.6553 102.76C74.5834 104.036 74.6553 105.879 74.7258 107.155C73.6627 107.155 72.5996 107.225 71.5365 107.225C71.5365 106.162 71.607 104.39 71.607 102.831ZM119.375 77.4582C119.164 79.301 118.88 81.1438 118.029 82.8443C116.754 85.7502 114.556 88.2317 112.076 90.2156C111.013 91.0658 109.95 92.2713 108.603 92.7676C105.768 93.8307 102.65 92.2713 99.8148 91.6326C97.9719 90.8529 95.9881 90.1451 94.3582 89.01C92.0896 87.5225 89.9633 85.8221 87.5537 84.6871C87.2703 84.6166 86.4201 83.9793 85.5699 83.6959C86.5611 83.483 87.6242 83.1996 88.4039 82.6328C88.9002 82.1365 89.1836 81.4977 89.3965 80.7899C89.8223 80.718 90.2467 80.577 90.6725 80.577C92.1601 80.3641 93.5066 79.5139 95.066 79.5139C96.0586 79.5139 96.9088 80.0102 97.9014 80.0807C100.169 80.3641 102.295 79.5139 104.21 78.3084C105.06 77.8121 106.051 77.7416 106.831 77.1748C107.54 76.608 108.32 75.8988 108.32 74.9076V74.6242C108.32 74.5523 108.249 74.5523 108.249 74.4113C108.177 73.8444 108.036 73.2762 107.823 72.7813C107.894 72.4979 107.894 72.2131 108.036 71.9297C109.17 68.0326 112.146 64.7008 112.43 60.6613C112.502 60.6613 112.502 60.4484 112.43 60.4484C112.359 60.3779 112.146 60.4484 112.146 60.5203C111.296 61.7949 111.083 63.4262 110.375 64.7008C109.809 65.8358 109.383 67.0399 108.745 68.1736C108.249 69.0252 107.753 69.9459 107.469 70.7961C107.186 68.9533 107.682 66.9695 107.682 65.0561C107.682 64.8432 108.177 63.5672 107.61 63.7801C106.123 65.2676 106.123 67.1824 106.336 69.1662C106.406 70.2293 106.547 71.2924 106.619 72.3555C106.619 72.7813 106.831 73.1352 106.903 73.4186C106.336 72.9928 105.627 72.6389 104.917 72.426C103.075 71.8592 101.091 71.9297 99.248 71.8592C96.4844 71.5758 93.7195 71.1514 90.9559 72.0721C90.9559 71.8592 90.8854 71.7887 90.743 71.5758C90.0338 70.7961 88.9002 70.7961 87.9076 70.5832C87.0574 70.5127 86.1367 70.2998 85.2865 70.2998C83.6566 70.2998 81.9547 69.592 80.2543 69.5201C79.9709 68.7404 78.6949 67.1104 77.8447 66.1192C77.9152 66.0473 79.6875 59.5981 79.1912 57.7553C78.482 57.1885 77.8447 62.858 77.6318 63.7096C77.4189 62.4336 76.7816 58.7479 76.3557 59.7406C76.2852 60.2369 76.4262 60.7318 76.4262 61.0871C76.6391 62.4336 76.8521 63.8506 76.9945 65.1971L76.9226 65.1266C76.0723 64.3469 74.9387 63.3543 73.8051 63.2838C73.3793 63.2133 72.9535 63.0004 72.6701 63.3543C72.1738 64.134 72.9535 64.9137 73.4498 65.4805L73.5203 65.551C73.2369 65.4805 71.6789 64.4879 70.7568 64.2764C69.9066 63.8506 68.4176 63.8506 68.9139 65.2676C68.9844 65.3395 68.9844 65.4805 69.1268 65.551C68.3471 65.551 67.5674 66.4026 68.0637 67.1824C68.7729 68.5289 70.19 69.3086 71.5365 69.592C71.8199 69.8754 72.5291 69.8035 72.883 69.8754C74.159 69.9459 75.5055 70.0883 76.7816 70.2998C78.5525 70.7256 80.2543 70.7256 82.0252 70.8666C82.8049 71.0795 83.5846 71.1514 84.4349 71.2924C85.7814 71.3629 86.9869 71.3629 88.3334 71.5758C88.9002 71.6463 89.8223 71.6463 90.1762 72.1426C89.6799 74.1279 88.6873 75.9707 88.4039 77.884C88.1205 79.3715 88.6873 81.7107 86.774 82.0646C84.2234 82.6328 81.7418 83.1277 79.2617 84.0498C77.4189 84.5461 75.435 85.1834 73.5203 85.3963C72.3867 85.3258 71.1107 84.9705 70.0476 84.5461C68.9844 84.1203 68.2061 83.4111 67.4264 82.4904C66.5748 81.7107 66.2914 80.6475 65.9375 79.5844C64.9449 75.4744 64.4486 71.2219 65.0873 66.899C65.867 61.0871 68.7729 55.6291 72.5996 51.3061C74.4424 49.3223 76.9945 48.4002 79.5451 48.1168C81.8842 47.9039 84.2234 47.8334 86.4906 47.2666V47.3371C86.5611 47.6205 86.7035 47.9039 86.774 48.1873C87.0574 48.8965 87.5537 49.4633 88.1205 49.9596C88.5463 50.243 88.9002 50.5264 89.2555 50.8098C89.6799 51.0932 90.1057 51.3061 90.602 51.5895C91.0264 51.8024 91.4523 52.0153 91.9486 52.1563C92.4435 52.3692 92.9398 52.4397 93.4361 52.5822C94.4287 52.7951 95.4213 53.0066 96.2715 53.0785C96.8383 53.0785 97.4051 53.149 98.0424 53.149H99.3185C100.169 53.0785 101.161 52.9361 102.083 52.7232C102.578 52.6527 102.934 52.4397 103.43 52.2987C103.926 52.0858 104.28 52.0153 104.776 51.7319C105.484 51.3061 106.123 50.9522 106.831 50.4559C107.257 50.1725 107.61 49.7467 107.894 49.3928C107.894 49.3928 107.894 49.3223 107.966 49.3223H108.036C109.383 49.6057 110.446 50.5264 111.509 51.3061C112.785 52.0153 113.848 52.8656 114.911 53.6453C117.958 55.7715 118.312 58.7479 118.738 62.1502C119.305 67.2529 120.227 72.426 119.375 77.4582ZM89.467 79.9383C89.5389 78.5918 89.467 77.1043 89.9633 75.8283C90.2467 74.8357 90.5301 73.8444 90.743 72.9223C90.743 72.8518 90.743 72.7094 90.8135 72.7094C91.2393 72.6389 91.5933 72.6389 91.9486 72.6389C93.2951 72.6389 94.7826 72.426 96.1291 72.426C97.4051 72.4979 98.7517 72.7094 100.028 72.6389C103.147 72.6389 105.06 72.8518 107.399 74.9781C107.399 75.191 107.186 75.4025 107.114 75.6859C106.547 76.6785 105.484 77.1748 104.351 77.4582C103.004 77.884 101.941 78.8047 100.453 79.0176C98.6107 79.4434 96.9793 78.5918 95.2084 78.4508C93.2232 78.3084 91.2393 78.8752 89.467 79.9383ZM71.3955 66.7565C70.6863 66.2602 69.7642 65.7639 69.4102 64.9137C70.2605 64.9137 71.1826 65.3395 71.9623 65.6934C72.8125 65.9768 73.5922 66.4731 74.3719 66.9695C75.1516 67.7492 75.9313 68.5289 76.7816 69.3086C76.0018 69.2367 75.2221 69.0957 74.3719 69.0252C73.4498 68.1736 72.4572 67.4658 71.3955 66.7565ZM73.1664 68.7404C72.883 68.6699 72.4572 68.6699 72.1738 68.6699H72.1033C70.9697 68.3865 69.4807 67.8902 68.9844 66.686C69.1973 66.2602 69.7642 66.6861 70.2605 66.7565C71.1107 67.5363 72.1738 68.0326 73.1664 68.7404ZM76.7096 68.0326C75.576 66.686 74.3 65.41 73.3088 63.8506C75.1516 64.134 76.4982 65.6934 77.7023 67.04C78.4115 67.8197 79.0488 68.5994 79.758 69.4496C79.0488 69.3791 78.482 69.2367 77.7728 69.1662C77.4894 68.9533 76.9945 68.316 76.7096 68.0326Z" fill="black"/>
<path d="M103.288 30.3969C103.358 30.3264 103.501 30.1135 103.358 29.9006C103.288 29.6877 103.145 29.6172 102.934 29.4762C103.004 29.4762 103.004 29.4043 103.004 29.2633C102.792 29.1914 102.438 29.2633 102.225 29.2633C102.012 29.2633 101.728 29.3338 101.375 29.3338C101.091 28.5541 100.382 27.8449 99.3893 27.35C97.0516 26.3574 95.0664 27.7744 94.4291 29.6172C93.8623 29.1914 93.1531 29.4043 92.4439 29.6172C92.1604 28.8375 91.5936 28.1297 90.601 27.7744C85.7113 25.5072 82.3809 33.7992 87.767 35.1457C90.6729 35.9254 92.7273 33.3029 92.7273 30.9637C92.9402 30.9637 93.1531 30.8932 93.2955 30.8932C93.4365 30.8932 93.7904 30.8932 94.0033 30.9637C93.9328 32.5232 94.5701 34.0826 96.5553 34.7918C99.3893 35.5701 101.516 33.2324 101.587 30.8932C102.082 30.6803 102.579 30.6098 103.075 30.4674C103.358 30.7508 103.43 30.5393 103.288 30.3969ZM89.5379 34.4365C85.7113 35.1457 85.1445 29.2633 88.4043 28.767C91.877 27.9168 93.507 33.8697 89.5379 34.4365ZM98.0428 34.1531C94.4291 34.366 93.9328 28.4836 97.7594 28.2002C101.232 27.9168 102.295 33.9402 98.0428 34.1531Z" fill="black"/>
</g>
<defs>
<clipPath id="clip0_884_19436">
<rect width="288" height="216" fill="white" transform="translate(0 -0.000488281)"/>
</clipPath>
</defs>
</svg>
