<svg width="80" height="80" viewBox="0 0 80 80" fill="none" xmlns="http://www.w3.org/2000/svg">
    <path fill-rule="evenodd" clip-rule="evenodd"
          d="M72 12C71.4486 12 71 11.5514 71 11C71 10.4486 71.4486 10 72 10C72.5514 10 73 10.4486 73 11C73 11.5514 72.5514 12 72 12Z"
          fill="#CACAFB"/>
    <path fill-rule="evenodd" clip-rule="evenodd"
          d="M65 24C64.4486 24 64 23.5514 64 23C64 22.4486 64.4486 22 65 22C65.5514 22 66 22.4486 66 23C66 23.5514 65.5514 24 65 24Z"
          fill="#CACAFB"/>
    <path fill-rule="evenodd" clip-rule="evenodd"
          d="M13 71C12.4486 71 12 70.5514 12 70C12 69.4486 12.4486 69 13 69C13.5514 69 14 69.4486 14 70C14 70.5514 13.5514 71 13 71Z"
          fill="#CACAFB"/>
    <path fill-rule="evenodd" clip-rule="evenodd"
          d="M67 75C66.4486 75 66 74.5514 66 74C66 73.4486 66.4486 73 67 73C67.5514 73 68 73.4486 68 74C68 74.5514 67.5514 75 67 75Z"
          fill="#CACAFB"/>
    <path fill-rule="evenodd" clip-rule="evenodd"
          d="M57 8C56.4486 8 56 7.5514 56 7C56 6.44855 56.4486 6 57 6C57.5514 6 58 6.44855 58 7C58 7.5514 57.5514 8 57 8Z"
          fill="#CACAFB"/>
    <path fill-rule="evenodd" clip-rule="evenodd"
          d="M7 14C6.4486 14 6 13.5514 6 13C6 12.4486 6.4486 12 7 12C7.5514 12 8 12.4486 8 13C8 13.5514 7.5514 14 7 14Z"
          fill="#CACAFB"/>
    <path fill-rule="evenodd" clip-rule="evenodd"
          d="M50.3717 51.0715C50.8844 51.2767 51.1339 51.8586 50.9287 52.3714L46.9287 62.3714C46.7236 62.8842 46.1417 63.1336 45.6289 62.9285C45.1161 62.7234 44.8667 62.1414 45.0718 61.6286L49.0718 51.6286C49.2769 51.1158 49.8589 50.8664 50.3717 51.0715ZM58.3717 56.0715C58.8844 56.2767 59.1339 56.8586 58.9287 57.3714L56.9287 62.3714C56.7236 62.8842 56.1417 63.1336 55.6289 62.9285C55.1161 62.7234 54.8667 62.1414 55.0718 61.6286L57.0718 56.6286C57.2769 56.1158 57.8589 55.8664 58.3717 56.0715Z"
          fill="#E1000F"/>
    <path fill-rule="evenodd" clip-rule="evenodd"
          d="M35.3717 51.0715C35.8844 51.2767 36.1339 51.8586 35.9287 52.3714L31.9287 62.3714C31.7236 62.8842 31.1417 63.1336 30.6289 62.9285C30.1161 62.7234 29.8667 62.1414 30.0718 61.6286L34.0718 51.6286C34.2769 51.1158 34.8589 50.8664 35.3717 51.0715Z"
          fill="#E1000F"/>
    <path fill-rule="evenodd" clip-rule="evenodd"
          d="M20.3717 51.0715C20.8844 51.2767 21.1339 51.8586 20.9287 52.3714L16.9287 62.3714C16.7236 62.8842 16.1417 63.1336 15.6289 62.9285C15.1161 62.7234 14.8667 62.1414 15.0718 61.6286L19.0718 51.6286C19.2769 51.1158 19.8589 50.8664 20.3717 51.0715Z"
          fill="#E1000F"/>
    <path fill-rule="evenodd" clip-rule="evenodd"
          d="M32.0002 38C33.6571 38 35.0002 36.6569 35.0002 35C35.0002 33.3431 33.6571 32 32.0002 32C30.3434 32 29.0002 33.3431 29.0002 35C29.0002 36.6569 30.3434 38 32.0002 38ZM32.0002 40C34.7617 40 37.0002 37.7614 37.0002 35C37.0002 32.2386 34.7617 30 32.0002 30C29.2388 30 27.0002 32.2386 27.0002 35C27.0002 37.7614 29.2388 40 32.0002 40Z"
          fill="#E1000F"/>
    <path fill-rule="evenodd" clip-rule="evenodd"
          d="M19.0002 31C19.0002 30.4477 19.448 30 20.0002 30H24.0002C24.5525 30 25.0002 30.4477 25.0002 31C25.0002 31.5523 24.5525 32 24.0002 32H20.0002C19.448 32 19.0002 31.5523 19.0002 31ZM19.0002 35C19.0002 34.4477 19.448 34 20.0002 34H24.0002C24.5525 34 25.0002 34.4477 25.0002 35C25.0002 35.5523 24.5525 36 24.0002 36H20.0002C19.448 36 19.0002 35.5523 19.0002 35ZM19.0002 39C19.0002 38.4477 19.448 38 20.0002 38H24.0002C24.5525 38 25.0002 38.4477 25.0002 39C25.0002 39.5523 24.5525 40 24.0002 40H20.0002C19.448 40 19.0002 39.5523 19.0002 39Z"
          fill="#E1000F"/>
    <path fill-rule="evenodd" clip-rule="evenodd"
          d="M48.8952 19.3385C49.2931 17.9539 50.5597 17 52.0003 17C53.4409 17 54.7075 17.9539 55.1054 19.3385L60.386 37.7141L64.4061 50.7044L64.4119 50.7238L65.3534 54H69.0003C69.5526 54 70.0003 54.4477 70.0003 55V60C70.0003 60.5523 69.5526 61 69.0003 61H62.0003C61.448 61 61.0003 60.5523 61.0003 60C61.0003 59.4477 61.448 59 62.0003 59H68.0003V56H64.6003C64.1544 56 63.7624 55.7048 63.6392 55.2762L62.4925 51.2859L60.263 44.0818H51.0003C50.448 44.0818 50.0003 43.6341 50.0003 43.0818C50.0003 42.5295 50.448 42.0818 51.0003 42.0818H59.6441L58.4724 38.2956L58.4666 38.2762L57.5251 35H46.4755L45.534 38.2762L45.5282 38.2956L42.743 47.2956C42.5797 47.8232 42.0196 48.1186 41.492 47.9553C40.9644 47.792 40.6691 47.232 40.8324 46.7044L42.045 42.7861L43.6146 37.7141L48.8952 19.3385ZM47.0503 33H56.9504L54.9388 26H49.0618L47.0503 33ZM49.6366 24H54.364L53.1832 19.8908C53.0316 19.3634 52.5491 19 52.0003 19C51.4515 19 50.969 19.3634 50.8174 19.8908L49.6366 24Z"
          fill="#000091"/>
    <path fill-rule="evenodd" clip-rule="evenodd"
          d="M45.3717 51.0715C45.8844 51.2766 46.1339 51.8586 45.9287 52.3714L41.9287 62.3714C41.7236 62.8842 41.1417 63.1336 40.6289 62.9285C40.1161 62.7234 39.8667 62.1414 40.0718 61.6286L44.0718 51.6286C44.2769 51.1158 44.8589 50.8664 45.3717 51.0715ZM55.3717 51.0715C55.8844 51.2766 56.1339 51.8586 55.9287 52.3714L51.9287 62.3714C51.7236 62.8842 51.1417 63.1336 50.6289 62.9285C50.1161 62.7234 49.8667 62.1414 50.0718 61.6286L54.0718 51.6286C54.2769 51.1158 54.8589 50.8664 55.3717 51.0715Z"
          fill="#000091"/>
    <path fill-rule="evenodd" clip-rule="evenodd"
          d="M30.3717 51.0715C30.8844 51.2766 31.1339 51.8586 30.9287 52.3714L26.9287 62.3714C26.7236 62.8842 26.1417 63.1336 25.6289 62.9285C25.1161 62.7234 24.8667 62.1414 25.0718 61.6286L29.0718 51.6286C29.2769 51.1158 29.8589 50.8664 30.3717 51.0715ZM40.3717 51.0715C40.8844 51.2766 41.1339 51.8586 40.9287 52.3714L36.9287 62.3714C36.7236 62.8842 36.1417 63.1336 35.6289 62.9285C35.1161 62.7234 34.8667 62.1414 35.0718 61.6286L39.0718 51.6286C39.2769 51.1158 39.8589 50.8664 40.3717 51.0715Z"
          fill="#000091"/>
    <path fill-rule="evenodd" clip-rule="evenodd"
          d="M25.3717 51.0715C25.8844 51.2766 26.1339 51.8586 25.9287 52.3714L21.9287 62.3714C21.7236 62.8842 21.1417 63.1336 20.6289 62.9285C20.1161 62.7234 19.8667 62.1414 20.0718 61.6286L24.0718 51.6286C24.2769 51.1158 24.8589 50.8664 25.3717 51.0715ZM14.3717 53.5715C14.8844 53.7766 15.1339 54.3586 14.9287 54.8714L11.9287 62.3714C11.7236 62.8842 11.1417 63.1336 10.6289 62.9285C10.1161 62.7234 9.86668 62.1414 10.0718 61.6286L13.0718 54.1286C13.2769 53.6158 13.8589 53.3664 14.3717 53.5715Z"
          fill="#000091"/>
    <path fill-rule="evenodd" clip-rule="evenodd"
          d="M15.0003 18C15.0003 17.4477 15.448 17 16.0003 17H44.0003C44.5526 17 45.0003 17.4477 45.0003 18V20C45.0003 20.5523 44.5526 21 44.0003 21C43.448 21 43.0003 20.5523 43.0003 20V19H17.0003V25H41.0003C41.5525 25 42.0003 25.4477 42.0003 26C42.0003 26.5523 41.5525 27 41.0003 27H17.0003V48C17.0003 48.5523 16.5526 49 16.0003 49C15.448 49 15.0003 48.5523 15.0003 48V18Z"
          fill="#000091"/>
    <path d="M21.0003 22C21.0003 22.5523 20.5526 23 20.0003 23C19.448 23 19.0003 22.5523 19.0003 22C19.0003 21.4477 19.448 21 20.0003 21C20.5526 21 21.0003 21.4477 21.0003 22Z"
          fill="#000091"/>
    <path d="M25.0003 22C25.0003 22.5523 24.5526 23 24.0003 23C23.448 23 23.0003 22.5523 23.0003 22C23.0003 21.4477 23.448 21 24.0003 21C24.5526 21 25.0003 21.4477 25.0003 22Z"
          fill="#000091"/>
    <path d="M29.0003 22C29.0003 22.5523 28.5525 23 28.0003 23C27.448 23 27.0003 22.5523 27.0003 22C27.0003 21.4477 27.448 21 28.0003 21C28.5525 21 29.0003 21.4477 29.0003 22Z"
          fill="#000091"/>
    <path d="M48.0003 43C48.0003 43.5523 47.5526 44 47.0003 44C46.448 44 46.0003 43.5523 46.0003 43C46.0003 42.4477 46.448 42 47.0003 42C47.5526 42 48.0003 42.4477 48.0003 43Z"
          fill="#000091"/>
</svg>
