<svg width="160" height="160" viewBox="0 0 160 160" fill="none" xmlns="http://www.w3.org/2000/svg">
    <path fill-rule="evenodd" clip-rule="evenodd"
          d="M140 138C138.897 138 138 137.103 138 136C138 134.897 138.897 134 140 134C141.103 134 142 134.897 142 136C142 137.103 141.103 138 140 138Z"
          fill="#CACAFB"/>
    <path fill-rule="evenodd" clip-rule="evenodd"
          d="M136 26C134.897 26 134 25.1028 134 24C134 22.8971 134.897 22 136 22C137.103 22 138 22.8971 138 24C138 25.1028 137.103 26 136 26Z"
          fill="#CACAFB"/>
    <path fill-rule="evenodd" clip-rule="evenodd"
          d="M28 138C26.8972 138 26 137.103 26 136C26 134.897 26.8972 134 28 134C29.1028 134 30 134.897 30 136C30 137.103 29.1028 138 28 138Z"
          fill="#CACAFB"/>
    <path fill-rule="evenodd" clip-rule="evenodd"
          d="M20 34C18.8972 34 18 33.1028 18 32C18 30.8971 18.8972 30 20 30C21.1028 30 22 30.8971 22 32C22 33.1028 21.1028 34 20 34Z"
          fill="#CACAFB"/>
    <path fill-rule="evenodd" clip-rule="evenodd"
          d="M32 66C32 62.6863 34.6863 60 38 60C41.3137 60 44 62.6863 44 66C44 69.3137 41.3137 72 38 72C34.6863 72 32 69.3137 32 66ZM40 66C40 64.8954 39.1046 64 38 64C36.8954 64 36 64.8954 36 66C36 67.1046 36.8954 68 38 68C39.1046 68 40 67.1046 40 66Z"
          fill="#E1000F"/>
    <path d="M38 68C39.0257 68 39.871 68.7721 39.9865 69.7668L40 70V78C40 79.1046 39.1046 80 38 80C36.9743 80 36.129 79.2279 36.0135 78.2332L36 78V70C36 68.8954 36.8954 68 38 68Z"
          fill="#E1000F"/>
    <path fill-rule="evenodd" clip-rule="evenodd"
          d="M76 58C76 54.6863 78.6863 52 82 52C85.3137 52 88 54.6863 88 58C88 61.3137 85.3137 64 82 64C78.6863 64 76 61.3137 76 58ZM84 58C84 56.8954 83.1046 56 82 56C80.8954 56 80 56.8954 80 58C80 59.1046 80.8954 60 82 60C83.1046 60 84 59.1046 84 58Z"
          fill="#E1000F"/>
    <path d="M82 60C83.0257 60 83.871 60.7721 83.9865 61.7668L84 62V70C84 71.1046 83.1046 72 82 72C80.9743 72 80.129 71.2279 80.0135 70.2332L80 70V62C80 60.8954 80.8954 60 82 60Z"
          fill="#E1000F"/>
    <path fill-rule="evenodd" clip-rule="evenodd"
          d="M112 34C112 30.6863 114.686 28 118 28C121.314 28 124 30.6863 124 34C124 37.3137 121.314 40 118 40C114.686 40 112 37.3137 112 34ZM120 34C120 32.8954 119.105 32 118 32C116.895 32 116 32.8954 116 34C116 35.1046 116.895 36 118 36C119.105 36 120 35.1046 120 34Z"
          fill="#E1000F"/>
    <path d="M118 36C119.026 36 119.871 36.7721 119.987 37.7668L120 38V46C120 47.1046 119.105 48 118 48C116.974 48 116.129 47.2279 116.013 46.2332L116 46V38C116 36.8954 116.895 36 118 36Z"
          fill="#E1000F"/>
    <path fill-rule="evenodd" clip-rule="evenodd"
          d="M96 78C96 74.6863 98.6863 72 102 72C105.314 72 108 74.6863 108 78C108 81.3137 105.314 84 102 84C98.6863 84 96 81.3137 96 78ZM104 78C104 76.8954 103.105 76 102 76C100.895 76 100 76.8954 100 78C100 79.1046 100.895 80 102 80C103.105 80 104 79.1046 104 78Z"
          fill="#E1000F"/>
    <path d="M102 80C103.026 80 103.871 80.7721 103.987 81.7668L104 82V90C104 91.1046 103.105 92 102 92C100.974 92 100.129 91.2279 100.013 90.2332L100 90V82C100 80.8954 100.895 80 102 80Z"
          fill="#E1000F"/>
    <path fill-rule="evenodd" clip-rule="evenodd"
          d="M68 98C68 94.6863 70.6863 92 74 92C77.3137 92 80 94.6863 80 98C80 101.314 77.3137 104 74 104C70.6863 104 68 101.314 68 98ZM76 98C76 96.8954 75.1046 96 74 96C72.8954 96 72 96.8954 72 98C72 99.1046 72.8954 100 74 100C75.1046 100 76 99.1046 76 98Z"
          fill="#E1000F"/>
    <path d="M74 100C75.0257 100 75.871 100.772 75.9865 101.767L76 102V110C76 111.105 75.1046 112 74 112C72.9743 112 72.129 111.228 72.0135 110.233L72 110V102C72 100.895 72.8954 100 74 100Z"
          fill="#E1000F"/>
    <path fill-rule="evenodd" clip-rule="evenodd"
          d="M100 118C100 114.686 102.686 112 106 112C109.314 112 112 114.686 112 118C112 121.314 109.314 124 106 124C102.686 124 100 121.314 100 118ZM108 118C108 116.895 107.105 116 106 116C104.895 116 104 116.895 104 118C104 119.105 104.895 120 106 120C107.105 120 108 119.105 108 118Z"
          fill="#E1000F"/>
    <path d="M106 120C107.026 120 107.871 120.772 107.987 121.767L108 122V130C108 131.105 107.105 132 106 132C104.974 132 104.129 131.228 104.013 130.233L104 130V122C104 120.895 104.895 120 106 120Z"
          fill="#E1000F"/>
    <path fill-rule="evenodd" clip-rule="evenodd"
          d="M126.081 48.0017L131.416 48.2197C131.758 48.2337 132.091 48.3352 132.382 48.5145C134.957 50.0979 135.932 53.3221 134.68 55.9969L134.511 56.3282L132.938 59.202L132.884 59.7801C132.853 60.094 132.799 60.3965 132.719 60.6984L132.58 61.1523L131.436 64.334L131.529 69.8141C131.564 71.497 130.867 73.0926 129.62 74.2354L129.322 74.4909L126.997 76.3593C126.635 76.6489 126.241 76.896 125.822 77.0969L125.584 77.2L123.434 79.872L123.575 79.9943C124.234 80.6056 124.754 81.3631 125.081 82.2238L125.209 82.5989L125.528 83.652L125.925 84.1414L127.234 86.0213C128.266 87.5192 128.524 89.3649 128.017 91.0317L127.902 91.362L128.554 92.1124C129.451 93.158 129.953 94.4586 129.981 95.8178L129.976 96.2271L129.865 98.2785C129.809 99.2184 129.525 100.12 129.054 100.915L128.934 101.1L129.094 101.367C129.584 102.254 129.837 103.258 129.816 104.29L129.798 104.608L130.098 104.639C131.955 104.89 133.644 105.972 134.595 107.668L134.764 107.993L135.436 109.396C136.326 111.27 136.149 113.444 135.03 115.101L134.998 115.144L134.996 115.395C134.929 116.925 134.253 118.38 133.089 119.45L132.789 119.709L128.683 122.992L128.486 123.131L127.566 123.698L127.546 123.83C127.486 124.133 127.401 124.43 127.294 124.719L127.115 125.145C126.506 126.464 125.404 127.52 124.051 128.108L123.675 128.257L120.042 129.549C119.709 129.659 119.414 129.738 119.124 129.793L118.835 129.839L116.143 130.209C115.382 130.314 114.592 130.276 113.844 130.095C112.77 129.837 112.109 128.756 112.368 127.683C112.608 126.685 113.557 126.045 114.551 126.165L114.781 126.207C114.954 126.249 115.14 126.269 115.324 126.266L115.597 126.246L118.301 125.874C118.387 125.863 118.475 125.845 118.576 125.817L118.74 125.767L122.33 124.49C122.85 124.303 123.274 123.922 123.487 123.46C123.581 123.26 123.637 123.047 123.654 122.831L123.658 122.615C123.631 121.973 123.913 121.363 124.408 120.968L124.604 120.83L126.288 119.786L130.283 116.591C130.76 116.207 131.013 115.664 131.001 115.106L130.979 114.867C130.91 114.428 130.988 113.982 131.198 113.596L131.34 113.373L131.605 113.011C131.985 112.527 132.094 111.916 131.918 111.355L131.825 111.118L131.16 109.726C130.748 108.874 129.759 108.422 128.789 108.635L128.547 108.702L128.033 108.878C127.527 109.052 126.976 109.014 126.502 108.781L126.272 108.648L125.788 108.324C124.861 107.703 124.632 106.458 125.235 105.555L125.377 105.367C125.629 105.071 125.778 104.716 125.81 104.334C125.853 103.844 125.7 103.371 125.379 102.994L125.205 102.813L124.916 102.548C124.052 101.755 124.062 100.41 124.888 99.6261L125.078 99.4671C125.48 99.1691 125.752 98.7388 125.842 98.2822L125.871 98.0522L125.981 96.0218C126 95.6333 125.892 95.2497 125.672 94.9185L125.526 94.7264L123.987 92.9543C123.424 92.3065 123.343 91.3813 123.759 90.652L123.899 90.4395C124.323 89.8763 124.384 89.1362 124.078 88.5225L123.946 88.2989L122.741 86.5568L122.186 85.8838C122.074 85.7478 121.98 85.5978 121.908 85.438L121.815 85.1913L121.381 83.7604C121.205 83.1805 120.744 82.7128 120.138 82.4929L119.905 82.4223C118.561 82.0945 117.969 80.5521 118.681 79.4204L118.821 79.2253L122.808 74.27C123.009 74.0209 123.265 73.8244 123.556 73.6957L123.779 73.6121C123.958 73.5573 124.126 73.482 124.278 73.3898L124.494 73.2392L126.815 71.3739C127.221 71.0473 127.465 70.6085 127.519 70.1308L127.53 69.8891L127.431 64.0387C127.428 63.8776 127.445 63.717 127.481 63.5604L127.549 63.3289L128.81 59.8181L128.869 59.6105L128.902 59.3968L128.993 58.4232C129.01 58.2422 129.051 58.0648 129.116 57.8958L129.23 57.6491L131.003 54.407C131.358 53.7589 131.268 52.9709 130.816 52.3925L130.632 52.19L125.918 51.9984C124.893 51.9565 124.08 51.1505 124.005 50.1519L124.001 49.9183C124.043 48.8935 124.849 48.0804 125.848 48.0056L126.081 48.0017Z"
          fill="#000091"/>
    <path fill-rule="evenodd" clip-rule="evenodd"
          d="M81.8535 24.1744C84.186 23.614 86.6433 24.4306 88.1114 26.2431L88.3467 26.5543L88.9917 27.464L89.3438 27.4964C91.5735 27.764 93.476 29.2059 94.2717 31.2842L94.2957 31.36C94.9513 31.6434 95.5357 32.0252 96.0414 32.4968L96.1157 32.572L96.2231 32.6042C96.3536 32.6474 96.4822 32.6949 96.6088 32.7465L96.9818 32.9138L98.6297 33.7064C99.1489 33.9607 99.6237 34.2806 100.043 34.6564L100.164 34.774L100.301 34.743C101.936 34.3474 103.693 34.6606 105.105 35.5826L105.451 35.8257C106.5 36.6225 107.238 37.712 107.581 38.9325L107.684 39.368L109.123 40.3451C109.335 40.4894 109.517 40.6727 109.66 40.8846L109.789 41.1056L111.789 45.1056C112.283 46.0935 111.882 47.2949 110.894 47.7889C109.977 48.2476 108.875 47.935 108.327 47.097L108.211 46.8944L106.444 43.36L104.674 42.1598C104.194 41.8341 103.882 41.3188 103.812 40.751L103.78 40.259C103.715 39.774 103.456 39.3333 103.034 39.0132C102.599 38.6841 102.035 38.5312 101.492 38.5888L101.222 38.6353L99.8772 38.9471C99.127 39.121 98.352 38.848 97.875 38.262L97.7274 38.0552C97.571 37.8038 97.3533 37.5865 97.0894 37.42L96.8832 37.3049L95.2346 36.5121C95.1167 36.4543 94.9971 36.4083 94.8747 36.3737L94.689 36.3303C94.2995 36.2578 93.9421 36.0717 93.6605 35.7978L93.501 35.6232C93.2658 35.3329 92.947 35.1103 92.583 34.9815L92.3022 34.9029C91.6742 34.7717 91.1524 34.3489 90.8908 33.7735L90.8051 33.5508L90.5787 32.8379C90.3449 32.089 89.6738 31.5559 88.8432 31.4651L88.5895 31.4514H87.9483C87.3808 31.4514 86.8442 31.2106 86.4677 30.7959L86.3165 30.6077L85.0801 28.8629C84.6512 28.2543 83.8568 27.9211 83.0696 28.0125L82.8079 28.0589L76.2391 29.7084C75.7114 29.8413 75.2764 30.1515 75.0035 30.5738L74.8808 30.7939L73.4425 33.832C73.3462 34.0399 73.2894 34.2658 73.2748 34.4918L73.2743 34.7171L73.5385 38.6921C73.5738 39.2229 73.3961 39.7419 73.0515 40.1378L72.8655 40.3249L71.0106 41.9602C70.8757 42.0792 70.7257 42.1791 70.5648 42.2576L70.3158 42.359L63.3961 44.6465C62.7009 44.8742 62.2043 45.4174 62.058 46.0614L62.0198 46.3072L61.9814 46.7525C61.8864 47.8545 60.9215 48.6542 59.8467 48.5759L59.615 48.5454L55.9716 47.8523C55.6469 47.7905 55.3439 47.6495 55.0888 47.4435L54.9068 47.2769L52.1035 44.3745C51.7387 43.9987 51.2134 43.7618 50.7062 43.7351L50.455 43.7396L47.1928 43.8995C46.5509 43.9342 45.9827 44.2305 45.6203 44.7087C45.3227 45.098 45.1942 45.5671 45.2486 46.0323L45.2911 46.2641L46.3297 50.346L47.7125 53.5389C48.3142 54.9294 47.2154 56.4265 45.7555 56.3302L45.5339 56.3036L44.4467 56.1143C44.1352 56.0571 43.8122 56.0692 43.5036 56.1484L43.2752 56.2202L42.9645 56.338C42.3166 56.5836 41.5944 56.4747 41.0509 56.0643L40.8559 55.8964L39.3769 54.4473C39.0156 54.0927 38.5078 53.8801 37.9583 53.8514L37.6806 53.8526L29.6832 54.5458C29.5221 54.5587 29.3657 54.5893 29.2074 54.6394L28.9677 54.7294L23.1715 57.3366C22.2906 57.7336 21.8501 58.6149 22.0463 59.4679L22.1088 59.6802L22.9922 62.1306C23.1014 62.4321 23.2998 62.7128 23.5693 62.9418L23.7843 63.1033C24.4002 63.511 24.7357 64.2201 24.673 64.9431L24.6372 65.1843C24.5413 65.6384 24.6211 66.1132 24.8896 66.5521L25.0399 66.8071L25.3145 67.2333C25.3572 67.2954 25.3982 67.3531 25.4376 67.4068L25.6521 67.6805L25.8206 67.8643L25.9381 67.9677C25.9682 67.9898 25.989 68 25.9997 68C27.1043 68 27.9997 68.8955 27.9997 70C27.9997 71.1046 27.1043 72 25.9997 72C24.1431 72 22.6744 70.7335 21.4499 68.5928C20.9837 67.8341 20.7052 66.983 20.6232 66.1105L20.5977 65.636L20.5819 65.621C20.083 65.1149 19.6779 64.5272 19.3893 63.883L19.2303 63.4899L18.3454 61.0354C17.3437 58.2504 18.5816 55.222 21.1956 53.8517L21.5294 53.6892L27.3511 51.0708C27.8822 50.8403 28.411 50.686 28.9474 50.6058L29.3512 50.5596L37.3853 49.8639C39.0584 49.7611 40.664 50.2778 41.8814 51.3199L42.1775 51.5913L42.7537 52.158L42.5974 51.7908L42.4948 51.4902L41.413 47.2442C40.9795 45.5147 41.3565 43.6999 42.4374 42.2861C43.4292 40.9772 44.9195 40.1393 46.5709 39.941L46.9869 39.9048L50.1676 39.751C51.7562 39.5999 53.4381 40.1921 54.677 41.3035L54.9772 41.592L57.3417 44.04L58.4517 44.252L58.5145 44.0986C59.1364 42.7012 60.2974 41.5739 61.771 40.9833L62.1457 40.847L68.6697 38.69L69.4797 37.974L69.2826 34.973C69.2311 34.141 69.3581 33.3081 69.6567 32.5235L69.8202 32.1355L71.2659 29.0815C71.9764 27.5828 73.2768 26.4586 74.8617 25.9448L75.2636 25.8292L81.8535 24.1744Z"
          fill="#000091"/>
    <path fill-rule="evenodd" clip-rule="evenodd"
          d="M40.7835 84.4123C41.6604 83.7406 42.9158 83.907 43.5875 84.7838L43.396 84.5251L43.7836 84.6848L44.5796 84.9727L46.7183 85.6859L47.0649 85.8148C47.1142 85.8346 47.1602 85.854 47.2038 85.8734L49.1979 86.8563C49.7006 87.1049 50.0724 87.5511 50.2293 88.0821L50.2832 88.3145C50.3054 88.4453 50.3426 88.5741 50.3944 88.6988L50.4829 88.8825C50.8886 89.6183 50.7878 90.5197 50.2534 91.1458L50.0801 91.3249C49.6532 91.7147 49.4213 92.239 49.4291 92.7727C49.4324 93.0014 49.4816 93.2318 49.5733 93.4487L49.6789 93.6605C49.9024 94.0464 49.9893 94.4936 49.9303 94.9306L49.8472 95.3211L49.8261 95.4577L48.6129 105.666C48.5853 105.892 48.5991 106.114 48.653 106.327L48.7202 106.537C48.8901 106.973 48.9018 107.454 48.7535 107.898L48.7137 108.03L48.6855 108.154L47.2193 115.879C47.1707 116.135 47.0726 116.379 46.9315 116.596L46.7762 116.804L44.1341 119.902C43.7612 120.34 43.6142 120.901 43.7211 121.446C43.8173 121.92 44.0985 122.342 44.5144 122.634L44.7333 122.769L46.4311 123.671C46.6914 123.809 46.9172 124.002 47.0929 124.237L47.2152 124.42L48.0265 125.794C48.1984 126.086 48.4564 126.338 48.7624 126.514L49.0003 126.631L52.9707 128.276C53.1372 128.345 53.2932 128.436 53.4346 128.547L53.6354 128.726L54.8249 129.944C55.1567 130.284 55.6175 130.504 56.1091 130.561L56.357 130.575H58.1176C58.3776 130.575 58.6341 130.625 58.8733 130.723L59.1061 130.836L60.2876 131.508C60.4545 131.604 60.6286 131.676 60.8118 131.724L61.0937 131.779L68.0413 132.682C68.6525 132.767 69.2682 132.59 69.7251 132.203L69.8485 132.09L69.9572 131.972C70.3786 131.475 71.0115 131.219 71.6509 131.273L71.8905 131.308L72.5631 131.448L72.8887 131.545L74.4957 132.179C74.9763 132.369 75.3617 132.735 75.5763 133.198L75.6691 133.437C75.8066 133.872 76.1103 134.256 76.518 134.508L76.7303 134.623L78.6742 135.533C78.9994 135.682 79.3779 135.749 79.7472 135.725L80.0215 135.691L81.6856 135.364C81.8449 135.332 82.0073 135.32 82.1689 135.328L82.4104 135.355L85.8905 135.962L86.3238 136C86.4521 136 86.5803 135.989 86.7004 135.969L86.8735 135.931L91.2417 134.812C91.7816 134.67 92.2417 134.326 92.4994 133.884C92.7126 133.524 92.7947 133.098 92.736 132.691L92.6839 132.45L91.6226 128.852C91.5018 128.442 91.5159 128.006 91.6591 127.608L91.7605 127.375L92.852 125.241C93.3551 124.258 94.5601 123.869 95.5434 124.372C96.4565 124.839 96.8574 125.912 96.5072 126.85L96.4129 127.063L95.6837 128.484L96.5223 131.324C96.9348 132.739 96.7911 134.261 96.1387 135.562L95.9482 135.911C95.2221 137.156 94.034 138.101 92.6344 138.568L92.2477 138.683L87.8908 139.8C87.4998 139.905 87.0748 139.97 86.5692 139.989L86.1742 139.994L85.4022 139.927L82.0977 139.358L80.7809 139.618C79.649 139.833 78.4704 139.734 77.3928 139.329L76.9938 139.163L75.0358 138.246C73.8937 137.713 72.9564 136.841 72.3484 135.772L72.2557 135.596L72.0037 135.496C70.8204 136.373 69.3617 136.795 67.9049 136.689L67.5078 136.647L60.5813 135.746C59.9326 135.663 59.3088 135.479 58.7281 135.204L58.3009 134.98L57.5897 134.574L56.357 134.575C54.8403 134.575 53.372 134.016 52.2576 133.02L51.9627 132.738L51.0617 131.814L47.4685 130.326C46.3946 129.881 45.4667 129.132 44.8128 128.188L44.5807 127.825L44.0557 126.938L42.8493 126.297C41.389 125.513 40.3266 124.196 39.8935 122.626L39.7984 122.229C39.4807 120.608 39.8581 118.952 40.8327 117.631L41.0888 117.308L43.3857 114.612L44.7544 107.415L44.7777 107.31L44.7513 107.21C44.6274 106.682 44.5785 106.139 44.6063 105.595L44.6415 105.188L45.8597 94.936L45.8451 94.8996C45.6347 94.3733 45.5014 93.8189 45.4514 93.2549L45.4295 92.8304C45.4143 91.7907 45.6793 90.7787 46.1796 89.8852L46.2057 89.838L45.5566 89.5179L43.2752 88.7541L42.2964 88.4029C41.2877 88.0224 40.8255 87.756 40.412 87.2162C39.7403 86.3393 39.9067 85.084 40.7835 84.4123Z"
          fill="#000091"/>
    <path fill-rule="evenodd" clip-rule="evenodd"
          d="M69.9997 72C71.1043 72 71.9997 72.8955 71.9997 74C71.9997 75.0257 71.2277 75.871 70.233 75.9866L69.9997 76H65.9997C64.8952 76 63.9997 75.1046 63.9997 74C63.9997 72.9743 64.7718 72.129 65.7665 72.0135L65.9997 72H69.9997Z"
          fill="#000091"/>
    <path fill-rule="evenodd" clip-rule="evenodd"
          d="M110 60C111.104 60 112 60.8955 112 62C112 63.0257 111.228 63.871 110.233 63.9866L110 64H106C104.895 64 104 63.1046 104 62C104 60.9743 104.772 60.129 105.766 60.0135L106 60H110Z"
          fill="#000091"/>
    <path fill-rule="evenodd" clip-rule="evenodd"
          d="M97.9997 100C99.1043 100 99.9997 100.895 99.9997 102C99.9997 103.026 99.2276 103.871 98.233 103.987L97.9997 104H93.9997C92.8952 104 91.9997 103.105 91.9997 102C91.9997 100.974 92.7718 100.129 93.7665 100.013L93.9997 100H97.9997Z"
          fill="#000091"/>
</svg>
