<svg width="790" height="322" viewBox="0 0 790 322" fill="none" xmlns="http://www.w3.org/2000/svg">
<g clip-path="url(#clip0_2_19)">
<path d="M138.828 204.452L51.0406 62.5471H0V258.859H39.8236V116.954L127.611 258.859H178.652V62.5471H138.828V204.452Z" fill="white"/>
<path d="M269.227 62.5471H229.403V258.859H269.227V62.5471Z" fill="white"/>
<path d="M374.394 91.7132C389.257 91.7132 402.162 101.532 413.658 116.394L442.824 90.0352C425.994 70.1284 403.56 56.9437 374.114 56.9437C336.538 56.9437 310.738 82.7437 310.738 113.877C310.738 180.34 399.924 170.531 399.924 206.709C399.924 220.733 390.385 229.143 374.684 229.143C358.982 229.143 342.991 220.174 331.214 205.021L302.328 231.66C319.718 252.416 341.872 264.472 374.963 264.472C411.141 264.472 439.748 242.318 440.307 205.301C440.307 137.999 351.121 148.088 351.121 112.469C351.121 100.693 360.37 91.7132 374.394 91.7132Z" fill="white"/>
<path d="M665.994 177.283C679.089 164.558 691.205 150.195 691.205 131.307C691.205 108.094 672.677 91.2537 647.156 91.2537C624.902 91.2537 607.353 101.442 595.007 121.528L592.84 125.054L619.898 141.535L622.026 137.959C629.097 126.113 635.69 121.279 644.799 121.279C653.01 121.279 657.914 125.973 657.914 133.854C657.914 142.214 653.179 147.948 643.181 158.136L598.393 202.174V230.162H694.471V199.777H642.682L665.994 177.293V177.283Z" fill="white"/>
<path d="M643.67 13.9837C648.495 13.9837 653.269 15.2522 657.464 17.6395L761.993 77.3C770.643 82.2343 776.026 91.4935 776.026 101.462V219.944C776.026 229.912 770.653 239.162 761.993 244.106L657.464 303.766C653.269 306.163 648.505 307.422 643.67 307.422C638.836 307.422 634.072 306.153 629.877 303.766L525.348 244.106C516.698 239.172 511.315 229.912 511.315 219.944V101.462C511.315 91.4935 516.688 82.2442 525.348 77.3L629.877 17.6395C634.072 15.2423 638.836 13.9837 643.67 13.9837ZM643.67 0C636.519 0 629.367 1.82787 622.955 5.4936L518.426 65.1541C505.391 72.5955 497.341 86.4493 497.341 101.462V219.944C497.341 234.956 505.391 248.81 518.426 256.252L622.955 315.912C629.377 319.578 636.529 321.406 643.67 321.406C650.812 321.406 657.974 319.578 664.386 315.912L768.915 256.252C781.949 248.81 790 234.956 790 219.944V101.462C790 86.4493 781.949 72.5955 768.915 65.1541L664.386 5.4936C657.964 1.82787 650.812 0 643.67 0Z" fill="#FDC82E"/>
</g>
<defs>
<clipPath id="clip0_2_19">
<rect width="790" height="322" fill="white"/>
</clipPath>
</defs>
</svg>
