<svg width="673" height="401" viewBox="0 0 673 401" fill="none" xmlns="http://www.w3.org/2000/svg">
<g clip-path="url(#clip0_884_23548)">
<path d="M670.451 132.606C670.405 132.092 670.378 131.577 670.354 131.06C670.324 130.626 670.297 130.317 669.785 130.276C669.327 130.168 668.815 130.26 668.384 130.08C663.965 129.848 659.535 129.923 655.107 129.829C651.901 129.851 648.678 129.929 645.474 129.861C644.156 129.781 642.89 129.692 641.58 129.732C637.676 129.966 633.771 130.01 629.864 129.996C622.171 130.19 614.475 130.368 606.782 130.33C604.938 130.322 603.109 130.503 601.271 130.624C600.368 130.67 599.457 130.645 598.566 130.823C598.334 130.901 598.005 130.907 597.881 131.144C597.609 132.69 597.746 134.217 597.94 135.752C597.965 136.639 598.008 137.522 598.089 138.406C598.113 139.537 597.981 140.666 598.099 141.797C598.312 143.618 598.008 143.481 599.881 143.938C601.519 144.211 603.19 144.197 604.844 144.159C607.965 144.154 611.08 144.132 614.197 144.17C618.121 144.256 622.036 144.17 625.954 143.987C629.877 143.944 633.804 143.912 637.722 143.661C643.194 143.446 648.67 143.257 654.14 142.969C657.171 142.893 660.2 142.815 663.232 142.813C665.843 142.699 668.481 142.896 671.06 142.406C671.34 141.466 671.243 140.458 671.224 139.489C671.251 137.164 670.639 134.907 670.453 132.598L670.451 132.606Z" fill="#C0CAE8"/>
<path d="M608.797 164.731C608.859 162.576 608.466 160.456 608.498 158.301C607.595 157.865 606.388 158.115 605.493 158.148C604.337 158.193 603.187 158.315 602.034 158.409C601.236 158.471 600.438 158.441 599.641 158.379C597.436 158.266 595.23 158.385 593.025 158.331C586.817 158.398 580.608 158.15 574.403 158.304C569.781 158.28 565.171 158.727 560.549 158.554C552.67 158.646 544.77 157.55 536.923 158.57C537.238 159.497 536.977 160.531 536.982 161.496C536.974 163.996 536.713 166.479 536.661 168.979C536.637 169.555 536.632 170.137 536.607 170.716C536.583 171.635 536.43 172.626 536.931 173.45C537.874 173.674 538.874 173.604 539.838 173.601C543.675 173.351 547.513 173.415 551.355 173.469C554.441 173.302 557.531 173.329 560.617 173.197C564.519 173.132 568.423 173.089 572.325 173.116C576.294 173.334 580.266 173.434 584.241 173.421C587.34 173.364 590.438 173.243 593.54 173.235C597.226 173.299 600.907 173.353 604.593 173.208C606.181 173.219 607.77 173.141 609.336 172.852C609.061 170.148 608.555 167.457 608.797 164.731Z" fill="#C0CAE8"/>
<path d="M672.774 137.46C672.564 135.971 672.07 134.53 671.852 133.04C671.556 130.376 671.777 128.838 668.47 129.104C665.636 128.598 662.763 128.552 659.883 128.517C657.293 128.496 654.703 128.447 652.111 128.485C649.829 128.48 647.544 128.593 645.261 128.533C643.197 128.383 641.109 128.436 639.042 128.598C635.202 128.916 631.352 128.657 627.506 128.795C619.816 128.991 612.12 128.876 604.435 129.166C603.206 129.255 601.983 129.403 600.751 129.463C599.547 129.581 597.72 129.401 596.871 130.395C596.275 131.259 596.389 132.402 596.273 133.401C596.23 135.141 596.424 136.881 596.359 138.627C596.216 140.229 596.114 141.856 596.534 143.432C596.615 143.877 596.768 144.326 597.097 144.65C599.743 146.667 604.947 145.835 608.205 146.037C612.907 146.037 617.609 145.851 622.308 145.757C625.415 145.706 628.522 145.803 631.629 145.7C635.598 145.633 639.554 145.285 643.518 145.064C646.636 144.846 649.764 144.841 652.882 144.601C656.684 144.394 660.481 144.159 664.288 144.243C666.843 144.151 669.551 144.547 671.99 143.648C673.135 142.767 672.868 140.957 672.876 139.669C672.841 138.936 672.852 138.198 672.771 137.466L672.774 137.46ZM671.057 142.414C668.479 142.904 665.838 142.707 663.229 142.821C660.198 142.821 657.169 142.899 654.138 142.977C648.667 143.265 643.195 143.454 637.719 143.669C633.801 143.922 629.875 143.952 625.952 143.995C622.033 144.178 618.115 144.264 614.195 144.178C611.077 144.141 607.959 144.162 604.842 144.167C603.187 144.205 601.516 144.219 599.878 143.947C598.005 143.489 598.31 143.623 598.097 141.805C597.981 140.674 598.113 139.545 598.086 138.414C598.008 137.53 597.962 136.647 597.938 135.761C597.744 134.225 597.606 132.695 597.879 131.152C598.003 130.912 598.331 130.909 598.563 130.831C599.455 130.653 600.366 130.678 601.269 130.632C603.106 130.511 604.936 130.33 606.779 130.338C614.475 130.376 622.171 130.198 629.861 130.004C633.771 130.018 637.676 129.975 641.578 129.74C642.887 129.7 644.157 129.789 645.472 129.869C648.673 129.937 651.898 129.859 655.105 129.837C659.53 129.934 663.962 129.856 668.381 130.088C668.813 130.268 669.327 130.174 669.783 130.284C670.295 130.325 670.322 130.634 670.351 131.068C670.376 131.585 670.402 132.1 670.448 132.614C670.634 134.923 671.246 137.18 671.219 139.505C671.238 140.474 671.335 141.479 671.055 142.422L671.057 142.414Z" fill="#010101"/>
<path d="M610.39 169.512C609.972 166.848 610.411 164.146 610.266 161.469C610.096 160.259 610.489 158.772 610.042 157.585C608.991 155.974 606.757 156.407 605.108 156.496C603.96 156.537 602.818 156.677 601.675 156.776C599.299 156.798 596.919 156.631 594.54 156.712C585.235 156.768 575.931 156.464 566.639 157.04C562.843 157.191 559.035 157.183 555.241 156.984C553.406 156.989 551.598 156.976 549.765 156.865C545.411 156.847 540.992 156.448 536.694 157.356C536.12 157.509 535.686 157.959 535.689 158.57C535.681 158.759 535.786 158.931 535.937 159.034C535.066 162.514 534.886 166.188 534.807 169.784C534.799 171.462 534.473 173.297 535.624 174.711C536.572 175.619 538.044 175.403 539.251 175.47C541.439 175.446 543.622 175.244 545.812 175.287C548.173 175.247 550.533 175.395 552.891 175.25C554.67 175.101 556.481 175.096 558.264 174.996C559.817 174.859 561.587 174.757 563.188 174.719C569.83 174.741 576.475 174.579 583.117 174.738C587.733 174.778 592.349 174.66 596.968 174.689C599.269 174.714 601.565 174.681 603.866 174.611C604.976 174.611 606.081 174.681 607.191 174.614C608.142 174.625 609.083 174.477 609.988 174.186C610.764 173.957 610.732 173.248 610.64 172.591C610.624 171.562 610.565 170.533 610.392 169.518L610.39 169.512ZM604.593 173.211C600.91 173.356 597.226 173.302 593.54 173.237C590.438 173.248 587.34 173.367 584.241 173.423C580.263 173.437 576.294 173.334 572.325 173.119C568.423 173.092 564.519 173.135 560.617 173.2C557.531 173.332 554.441 173.305 551.355 173.472C547.513 173.418 543.676 173.356 539.838 173.604C538.874 173.609 537.874 173.679 536.931 173.453C536.43 172.629 536.583 171.635 536.607 170.719C536.632 170.14 536.637 169.561 536.661 168.981C536.715 166.482 536.974 163.996 536.982 161.498C536.979 160.534 537.238 159.5 536.923 158.573C544.77 157.555 552.67 158.651 560.549 158.557C565.171 158.729 569.781 158.282 574.403 158.306C580.608 158.15 586.817 158.401 593.025 158.333C595.23 158.39 597.437 158.271 599.641 158.382C600.438 158.444 601.236 158.474 602.034 158.412C603.187 158.317 604.338 158.196 605.494 158.15C606.385 158.118 607.595 157.865 608.498 158.304C608.466 160.459 608.859 162.576 608.797 164.734C608.555 167.462 609.059 170.153 609.336 172.855C607.773 173.143 606.183 173.221 604.593 173.211Z" fill="#010101"/>
<path d="M670.451 132.606C670.405 132.092 670.378 131.577 670.354 131.06C670.324 130.626 670.297 130.317 669.785 130.276C669.327 130.168 668.815 130.26 668.384 130.08C663.965 129.848 659.535 129.923 655.107 129.829C651.901 129.851 648.678 129.929 645.474 129.861C644.156 129.781 642.89 129.692 641.58 129.732C637.676 129.966 633.771 130.01 629.864 129.996C622.171 130.19 614.475 130.368 606.782 130.33C604.938 130.322 603.109 130.503 601.271 130.624C600.368 130.67 599.457 130.645 598.566 130.823C598.334 130.901 598.005 130.907 597.881 131.144C597.609 132.69 597.746 134.217 597.94 135.752C597.965 136.639 598.008 137.522 598.089 138.406C598.113 139.537 597.981 140.666 598.099 141.797C598.312 143.618 598.008 143.481 599.881 143.938C601.519 144.211 603.19 144.197 604.844 144.159C607.965 144.154 611.08 144.132 614.197 144.17C618.121 144.256 622.036 144.17 625.954 143.987C629.877 143.944 633.804 143.912 637.722 143.661C643.194 143.446 648.67 143.257 654.14 142.969C657.171 142.893 660.2 142.815 663.232 142.813C665.843 142.699 668.481 142.896 671.06 142.406C671.34 141.466 671.243 140.458 671.224 139.489C671.251 137.164 670.639 134.907 670.453 132.598L670.451 132.606Z" fill="#C0CAE8"/>
<path d="M608.797 164.731C608.859 162.576 608.466 160.456 608.498 158.301C607.595 157.865 606.388 158.115 605.493 158.148C604.337 158.193 603.187 158.315 602.034 158.409C601.236 158.471 600.438 158.441 599.641 158.379C597.436 158.266 595.23 158.385 593.025 158.331C586.817 158.398 580.608 158.15 574.403 158.304C569.781 158.28 565.171 158.727 560.549 158.554C552.67 158.646 544.77 157.55 536.923 158.57C537.238 159.497 536.977 160.531 536.982 161.496C536.974 163.996 536.713 166.479 536.661 168.979C536.637 169.555 536.632 170.137 536.607 170.716C536.583 171.635 536.43 172.626 536.931 173.45C537.874 173.674 538.874 173.604 539.838 173.601C543.675 173.351 547.513 173.415 551.355 173.469C554.441 173.302 557.531 173.329 560.617 173.197C564.519 173.132 568.423 173.089 572.325 173.116C576.294 173.334 580.266 173.434 584.241 173.421C587.34 173.364 590.438 173.243 593.54 173.235C597.226 173.299 600.907 173.353 604.593 173.208C606.181 173.219 607.77 173.141 609.336 172.852C609.061 170.148 608.555 167.457 608.797 164.731Z" fill="#C0CAE8"/>
<path d="M672.774 137.46C672.564 135.971 672.07 134.53 671.852 133.04C671.556 130.376 671.777 128.838 668.47 129.104C665.636 128.598 662.763 128.552 659.883 128.517C657.293 128.496 654.703 128.447 652.111 128.485C649.829 128.48 647.544 128.593 645.261 128.533C643.197 128.383 641.109 128.436 639.042 128.598C635.202 128.916 631.352 128.657 627.506 128.795C619.816 128.991 612.12 128.876 604.435 129.166C603.206 129.255 601.983 129.403 600.751 129.463C599.547 129.581 597.72 129.401 596.871 130.395C596.275 131.259 596.389 132.402 596.273 133.401C596.23 135.141 596.424 136.881 596.359 138.627C596.216 140.229 596.114 141.856 596.534 143.432C596.615 143.877 596.768 144.326 597.097 144.65C599.743 146.667 604.947 145.835 608.205 146.037C612.907 146.037 617.609 145.851 622.308 145.757C625.415 145.706 628.522 145.803 631.629 145.7C635.598 145.633 639.554 145.285 643.518 145.064C646.636 144.846 649.764 144.841 652.882 144.601C656.684 144.394 660.481 144.159 664.288 144.243C666.843 144.151 669.551 144.547 671.99 143.648C673.135 142.767 672.868 140.957 672.876 139.669C672.841 138.936 672.852 138.198 672.771 137.466L672.774 137.46ZM671.057 142.414C668.479 142.904 665.838 142.707 663.229 142.821C660.198 142.821 657.169 142.899 654.138 142.977C648.667 143.265 643.195 143.454 637.719 143.669C633.801 143.922 629.875 143.952 625.952 143.995C622.033 144.178 618.115 144.264 614.195 144.178C611.077 144.141 607.959 144.162 604.842 144.167C603.187 144.205 601.516 144.219 599.878 143.947C598.005 143.489 598.31 143.623 598.097 141.805C597.981 140.674 598.113 139.545 598.086 138.414C598.008 137.53 597.962 136.647 597.938 135.761C597.744 134.225 597.606 132.695 597.879 131.152C598.003 130.912 598.331 130.909 598.563 130.831C599.455 130.653 600.366 130.678 601.269 130.632C603.106 130.511 604.936 130.33 606.779 130.338C614.475 130.376 622.171 130.198 629.861 130.004C633.771 130.018 637.676 129.975 641.578 129.74C642.887 129.7 644.157 129.789 645.472 129.869C648.673 129.937 651.898 129.859 655.105 129.837C659.53 129.934 663.962 129.856 668.381 130.088C668.813 130.268 669.327 130.174 669.783 130.284C670.295 130.325 670.322 130.634 670.351 131.068C670.376 131.585 670.402 132.1 670.448 132.614C670.634 134.923 671.246 137.18 671.219 139.505C671.238 140.474 671.335 141.479 671.055 142.422L671.057 142.414Z" fill="#010101"/>
<path d="M610.39 169.512C609.972 166.848 610.411 164.146 610.266 161.469C610.096 160.259 610.489 158.772 610.042 157.585C608.991 155.974 606.757 156.407 605.108 156.496C603.96 156.537 602.818 156.677 601.675 156.776C599.299 156.798 596.919 156.631 594.54 156.712C585.235 156.768 575.931 156.464 566.639 157.04C562.843 157.191 559.035 157.183 555.241 156.984C553.406 156.989 551.598 156.976 549.765 156.865C545.411 156.847 540.992 156.448 536.694 157.356C536.12 157.509 535.686 157.959 535.689 158.57C535.681 158.759 535.786 158.931 535.937 159.034C535.066 162.514 534.886 166.188 534.807 169.784C534.799 171.462 534.473 173.297 535.624 174.711C536.572 175.619 538.044 175.403 539.251 175.47C541.439 175.446 543.622 175.244 545.812 175.287C548.173 175.247 550.533 175.395 552.891 175.25C554.67 175.101 556.481 175.096 558.264 174.996C559.817 174.859 561.587 174.757 563.188 174.719C569.83 174.741 576.475 174.579 583.117 174.738C587.733 174.778 592.349 174.66 596.968 174.689C599.269 174.714 601.565 174.681 603.866 174.611C604.976 174.611 606.081 174.681 607.191 174.614C608.142 174.625 609.083 174.477 609.988 174.186C610.764 173.957 610.732 173.248 610.64 172.591C610.624 171.562 610.565 170.533 610.392 169.518L610.39 169.512ZM604.593 173.211C600.91 173.356 597.226 173.302 593.54 173.237C590.438 173.248 587.34 173.367 584.241 173.423C580.263 173.437 576.294 173.334 572.325 173.119C568.423 173.092 564.519 173.135 560.617 173.2C557.531 173.332 554.441 173.305 551.355 173.472C547.513 173.418 543.676 173.356 539.838 173.604C538.874 173.609 537.874 173.679 536.931 173.453C536.43 172.629 536.583 171.635 536.607 170.719C536.632 170.14 536.637 169.561 536.661 168.981C536.715 166.482 536.974 163.996 536.982 161.498C536.979 160.534 537.238 159.5 536.923 158.573C544.77 157.555 552.67 158.651 560.549 158.557C565.171 158.729 569.781 158.282 574.403 158.306C580.608 158.15 586.817 158.401 593.025 158.333C595.23 158.39 597.437 158.271 599.641 158.382C600.438 158.444 601.236 158.474 602.034 158.412C603.187 158.317 604.338 158.196 605.494 158.15C606.385 158.118 607.595 157.865 608.498 158.304C608.466 160.459 608.859 162.576 608.797 164.734C608.555 167.462 609.059 170.153 609.336 172.855C607.773 173.143 606.183 173.221 604.593 173.211Z" fill="#010101"/>
<path d="M525.842 193.047C525.847 193.063 525.85 193.076 525.852 193.092C525.85 193.079 525.844 193.063 525.842 193.047Z" fill="#010101"/>
<path d="M522.134 182.962C523.994 182.506 525.449 185.122 524.336 186.606C524.411 187.667 523.616 188.89 522.493 188.939C518.297 193.588 512.857 196.855 507.893 200.584C505.225 202.577 502.439 204.398 499.593 206.13C498.939 206.445 497.446 207.539 496.163 208.25C496.125 208.285 496.085 208.317 496.036 208.347C494.347 209.384 492.674 210.448 491 211.514C479.47 218.706 466.665 223.894 456.223 232.759C447.926 239.06 440.931 247.13 431.888 252.41C430.546 253.08 425.906 255.76 424.887 255.154C424.208 255.426 423.526 255.699 422.842 255.965C417.399 259.324 411.573 261.899 405.585 264.078C393.912 274.764 383.75 287.271 372.913 298.881C362.215 310.42 351.242 322.509 337.055 329.774C327.238 334.238 316.651 336.71 306.174 339.092C299.446 340.778 292.574 341.726 285.663 342.235C278.578 342.9 271.481 343.706 264.353 343.385C264.035 343.375 263.717 343.364 263.399 343.345C262.173 343.504 260.98 343.579 260.492 343.735C258.915 343.967 257.334 344.172 255.763 344.449C255.162 344.519 254.445 344.872 253.863 344.568C234.58 347.66 215.044 349.831 196.195 355.105C190.393 356.565 184.629 358.182 178.898 359.897C174.751 361.069 170.569 362.51 166.303 363.243C166.176 363.324 166.023 363.378 165.842 363.391C159.079 365.484 152.218 367.208 145.331 368.832L145.325 368.838C144.393 369.519 143.183 369.729 142.092 370.069C141.854 371.176 140.405 371.014 139.551 371.332C137.419 371.844 135.293 372.393 133.167 372.924C124.231 375.09 115.482 378.134 106.374 379.513C105.884 380.146 104.911 380.046 104.208 380.291C102.108 380.792 100.007 381.285 97.902 381.759C83.7659 385.11 69.4573 387.669 55.3185 390.998C49.5843 392.41 43.8393 393.768 38.0862 395.095C35.2191 395.758 32.3493 396.415 29.4795 397.067C21.1288 398.837 9.39894 400.941 2.24465 399.661C-8.28335 398.271 21.533 266.409 22.0126 265.568C22.3602 265.194 101.246 263.354 107.269 263.281C112.682 262.74 118.069 262.136 123.393 261.037C127.169 260.297 130.928 259.459 134.668 258.551C135.212 258.424 135.805 258.037 136.32 258.408C142.714 255.86 148.893 252.997 154.8 249.487C159.022 246.95 162.8 243.949 166.521 240.803C166.831 240.555 167.122 240.267 167.462 240.064C167.96 239.609 168.378 238.605 169.194 238.974C169.359 239.071 169.472 239.176 169.542 239.286C170.143 238.669 170.738 238.058 171.32 237.457C173.848 234.831 176.33 232.161 178.911 229.583C188.127 220.482 198.232 212.088 209.749 206.052C218.897 201.378 228.797 198.482 238.859 196.559C242.553 195.77 246.251 195.008 249.975 194.367C251.753 194.065 253.537 193.763 255.329 193.542C255.736 193.51 256.221 193.354 256.598 193.486C256.735 193.289 256.959 193.152 257.215 193.122C258.43 192.979 259.646 192.839 260.858 192.699C264.962 192.301 269.028 191.597 272.992 190.447C278.22 188.96 283.243 186.851 288.357 185.03C293.477 183.199 298.605 181.399 303.66 179.387C316.403 174.132 329.208 168.871 342.668 165.719C344.301 165.383 345.955 165.14 347.615 164.998C347.766 164.987 347.944 164.968 348.127 164.952C348.742 164.618 349.914 164.804 350.534 164.785C351.77 164.785 359.509 165.639 358.798 167.497C359.932 168.381 361.024 169.345 361.918 170.474C364.082 173.615 364.891 177.531 365.025 181.316C365.206 181.453 365.333 181.663 365.343 181.9C365.421 183.393 365.448 184.882 365.225 186.364C364.971 187.842 364.389 189.246 363.85 190.639C362.288 194.706 359.946 198.385 357.3 201.828C355.306 204.562 352.827 207.086 350.183 209.16C347.909 211.032 345.325 212.46 342.776 213.923C338.917 216.212 334.948 218.332 330.712 219.849C322.989 222.663 314.913 224.188 306.883 225.791C305.414 226.133 303.956 226.507 302.493 226.882C301.658 226.989 300.699 227.622 299.915 227.138C299.626 227.262 299.335 227.391 299.055 227.534C303.097 229.322 307.578 230.146 311.97 230.354C315.896 230.58 319.728 230.198 323.638 230.082C326.028 229.969 328.392 230.047 330.72 230.049C337.677 229.785 344.638 229.206 351.552 228.406C355.971 227.754 360.579 226.971 364.866 225.88C366.335 225.47 367.804 224.953 369.032 224.024C369.288 223.846 369.455 223.542 369.763 223.461C369.733 222.828 370.186 221.99 370.293 221.435C371.724 216.611 374.702 212.309 376.17 207.525C377.569 201.513 378.318 195.024 381.999 189.871C384.858 185.795 388.609 182.153 393.163 180.039C394.931 179.32 396.876 178.455 398.811 178.902C398.929 178.848 399.059 178.821 399.191 178.83C399.452 178.87 399.679 178.988 399.891 179.128C399.964 178.727 400.021 178.323 400.085 177.919C400.085 177.914 400.085 177.911 400.085 177.906C400.6 174.261 401.204 170.63 402.077 167.053C403.028 162.729 404.176 158.414 406.192 154.455C408.846 148.914 414.1 144.741 420.05 143.26C421.713 142.759 426.687 142.217 427.937 144.009C429.034 144.736 428.743 148.208 428.748 149.191C428.63 156.566 425.957 163.715 425.827 171.034C425.973 170.802 426.129 170.582 426.24 170.377C427.239 168.844 428.271 167.33 429.215 165.763C429.037 164.642 429.894 163.578 430.257 162.552C431.57 159.737 433.1 157.035 434.599 154.317C436.366 151.087 438.212 147.852 440.713 145.121C441.885 143.252 443.119 141.409 444.507 139.691C446.436 137.177 449.007 135.313 451.677 133.654C452.141 133.355 452.612 133.059 453.095 132.768C452.876 132.202 453.448 131.693 454.048 131.472C454.719 131.138 455.412 130.842 456.102 130.551C458.047 129.692 459.977 128.749 462.022 128.159C462.852 127.93 463.687 127.677 464.533 127.515C464.711 127.48 464.889 127.507 465.045 127.583C467.198 127.109 470.206 126.537 472.17 127.634C472.421 127.537 472.725 127.566 473.005 127.803C473.286 128.105 473.412 128.48 473.472 128.878C473.657 129.183 473.814 129.533 473.927 129.934C474.148 130.556 474.256 131.224 474.372 131.871C474.425 132.183 474.326 132.431 474.153 132.595C474.215 133.366 474.116 134.147 473.838 134.834C473.248 139.168 471.755 143.448 469.607 147.249C469.586 147.271 469.564 147.292 469.543 147.311C469.772 147.483 469.915 147.764 469.839 148.098C469.739 148.677 469.351 149.162 469.128 149.698C468.939 150.137 468.683 150.689 468.252 150.818C468.322 152.391 466.28 155.777 465.94 156.75C464.447 159.81 462.941 162.861 461.483 165.938C462.962 166.517 457.506 176.214 456.821 177.534C453.836 183.126 451.009 188.906 447.654 194.272C448.589 194.011 449.61 193.637 450.475 193.303C450.826 192.828 451.467 192.675 452.054 192.513C452.895 191.67 454.067 191.212 455.083 190.617C457.22 189.491 459.392 188.432 461.567 187.376C466.975 184.836 472.143 181.771 477.791 179.77C478.249 178.983 479.411 179.029 480.189 178.722C482.65 177.978 485.247 177.827 487.724 177.114C491.854 176.09 496.107 175.805 500.351 175.955C508.1 175.912 516.122 177.86 522.126 182.951L522.134 182.962Z" fill="white"/>
<path d="M432.922 246.828C432.071 246.591 431.931 245.296 432.744 244.91C434.582 244.043 436.417 243.162 438.241 242.268C444.644 239.34 450.313 235.246 456.061 231.264C465.929 224.606 476.276 218.682 486.726 212.99C487.198 211.819 488.809 211.474 489.809 210.833C492.622 209.416 495.441 208.002 498.192 206.472C503.129 203.528 508.103 200.535 512.506 196.829C512.695 195.923 513.915 195.175 514.708 194.789C515.599 194.512 516.397 195.519 515.947 196.33C514.586 198.108 512.625 199.371 510.913 200.799C510.369 201.761 509.264 202.286 508.418 202.959C505.831 204.753 503.131 206.375 500.415 207.964C489.38 214.065 478.147 219.822 467.416 226.464C457.829 232.008 449.432 239.345 439.368 244.043C437.589 244.918 435.8 245.775 434.008 246.624C433.671 246.796 433.294 246.966 432.914 246.831L432.922 246.828Z" fill="white"/>
<path d="M522.118 189.529C521.544 188.939 522.145 187.729 522.986 187.996C523.355 187.859 523.789 188.131 523.835 188.521C523.883 188.769 523.727 188.977 523.592 189.154C523.366 189.677 522.549 189.987 522.118 189.529Z" fill="white"/>
<path d="M522.466 184.966C521.978 184.424 521.423 183.958 520.887 183.468C520.887 183.468 520.89 183.468 520.892 183.468C520.644 183.207 520.617 182.735 520.79 182.412C521.199 181.766 521.93 181.989 522.337 182.512C522.765 182.943 523.188 183.379 523.614 183.815C524.347 184.589 523.237 185.698 522.466 184.963V184.966Z" fill="white"/>
<path d="M354.645 174.951C356.785 177.704 356.149 181.572 354.637 184.47C350.946 191.746 344.646 197.475 337.607 201.464C336.57 201.957 334.538 203.396 333.484 202.65C332.945 202.251 333.131 201.577 333.185 201.012C333.255 199.172 333.061 197.34 332.867 195.517C332.525 192.484 331.593 189.561 330.434 186.749C329.693 184.801 328.823 182.867 327.424 181.297C326.775 180.572 326.058 179.912 325.371 179.225C325.08 178.937 324.767 178.601 324.891 178.151C324.964 177.887 325.19 177.674 325.46 177.623C325.541 177.448 325.681 177.302 325.872 177.238C326.726 176.941 327.559 176.578 328.392 176.227C330.846 175.174 333.18 173.833 335.734 173.017C337.033 172.596 338.373 172.289 339.723 172.082C343.953 171.384 351.832 171.19 354.651 174.951H354.645Z" fill="#BEC9E8"/>
<path d="M428.826 146.476C429.222 146.702 429.33 147.271 429.034 147.623C429.341 148.585 429.017 149.684 428.999 150.683C428.78 152.906 428.196 160.639 426.026 161.485C424.525 161.862 423.13 162.406 421.693 162.926C421.057 163.166 420.236 163.427 419.683 162.878C418.988 162.167 419.419 161.086 419.503 160.224C419.88 157.703 420.928 155.354 422.235 153.183C423.763 150.861 425.35 148.418 427.57 146.705C427.931 146.471 428.403 146.217 428.823 146.476H428.826Z" fill="#BEC9E8"/>
<path d="M473.763 131.001C474.838 130.858 475.088 132.367 474.021 132.574C474.363 133.013 474.425 133.735 473.873 134.029C473.458 138.349 472.243 145.547 468.761 148.397C468.117 148.976 467.271 149.248 466.412 149.21C465.145 149.253 463.879 149.329 462.612 149.318C458.802 149.38 459.252 146.818 460.349 144.124C461.432 141.358 462.962 138.726 465.053 136.598C467.32 134.427 470.769 131.936 473.765 131.001H473.763Z" fill="#BEC9E8"/>
<path d="M511.213 190.388C512.916 189.954 522.126 188.298 521.062 191.711C520.429 192.67 519.515 193.424 518.696 194.221C516.554 196.236 513.967 197.65 511.531 199.266C510.237 200.123 508.966 201.006 507.656 201.839C506.039 202.771 504.603 203.916 502.773 204.134C502.094 204.153 501.709 203.552 501.243 203.164C500.604 202.606 499.936 202.087 499.238 201.61C498.642 201.163 497.888 200.864 497.416 200.279C497.101 199.727 497.648 199.054 498.254 199.256C499.685 194.612 506.805 191.487 511.21 190.385L511.213 190.388Z" fill="#BEC9E8"/>
<path d="M503.46 206.062C503.226 205.944 503.121 205.707 503.024 205.481C502.307 205.421 502.199 204.576 502.083 204.013C501.897 203.204 502.897 202.609 503.474 203.229C506.934 200.425 510.897 198.305 514.355 195.49C515.969 194.229 517.58 192.963 519.181 191.681C520.016 191.064 520.965 192.276 520.151 192.939C519.933 193.114 519.714 193.289 519.496 193.464C519.415 194.124 518.693 194.426 518.259 194.846C515.92 196.923 513.654 198.983 511.191 200.891C509.892 201.906 508.596 202.922 507.308 203.948C506.699 204.435 506.082 204.912 505.449 205.367C504.878 205.747 504.188 206.44 503.46 206.062Z" fill="#BEC9E8"/>
<path d="M238.377 252.369C238.377 252.369 238.369 252.366 238.366 252.364C238.293 252.321 238.221 252.278 238.148 252.229C238.078 252.178 238.008 252.127 237.943 252.073C237.897 252.03 237.854 251.987 237.811 251.941C237.798 251.925 237.784 251.906 237.771 251.887C237.757 251.833 237.746 251.782 237.736 251.728C237.728 251.661 237.719 251.593 237.717 251.523C237.719 251.515 237.722 251.504 237.725 251.494C237.744 251.448 237.765 251.402 237.787 251.359C237.817 251.308 237.849 251.257 237.881 251.205C237.93 251.162 237.975 251.117 238.024 251.073C238.11 250.995 238.202 250.917 238.272 250.823C241.39 249.525 244.564 248.361 247.746 247.23C255.873 244.277 264.308 241.761 272.222 238.322C277.794 235.916 283.079 232.91 288.643 230.494C295.692 227.472 303.299 226.149 310.771 224.608C323.657 222.267 336.292 217.971 347.171 210.561C351.294 207.592 354.939 203.951 357.966 199.878C360.534 196.136 362.735 192.233 363.789 187.872C364.761 183.064 364.77 177.496 362.948 172.92C361.568 169.865 358.946 167.406 355.812 166.212C352.778 165.089 349.321 165.183 346.174 165.566C328.332 168.82 311.906 176.909 294.916 182.921C293.693 183.339 292.469 183.767 291.249 184.201C291.249 184.017 291.211 183.832 291.141 183.648C291.001 183.285 290.718 182.972 290.373 182.784C291.416 182.415 292.459 182.051 293.504 181.698C308.397 176.402 322.814 169.728 338.125 165.657C345.581 163.68 354.805 161.722 361.037 167.567C365.753 171.737 366.381 178.541 365.939 184.462C365.637 189.421 363.573 194.024 361.008 198.21C358.914 201.723 356.195 204.818 353.242 207.633C351.407 209.386 349.448 211.013 347.335 212.425C340.957 216.543 334.061 219.897 326.84 222.251C316.549 225.753 305.638 226.785 295.229 229.837C287.088 232.258 279.92 236.894 272.122 240.137C261.187 244.76 249.657 247.83 238.706 252.41C238.598 252.399 238.49 252.388 238.385 252.366L238.377 252.369Z" fill="#010101"/>
<path d="M237.951 252.084C237.951 252.084 237.973 252.103 237.984 252.114C237.973 252.106 237.962 252.095 237.951 252.084Z" fill="#010101"/>
<path d="M385.467 218.712C385.467 218.712 385.467 218.712 385.464 218.712C385.459 218.712 385.451 218.717 385.443 218.717C385.443 218.717 385.437 218.717 385.435 218.717C385.432 218.717 385.429 218.717 385.424 218.72C385.437 218.714 385.451 218.712 385.464 218.706L385.467 218.712Z" fill="#010101"/>
<path d="M369.38 224.614C369.043 224.501 368.876 224.196 368.836 223.752C369 223.719 369.162 223.682 369.324 223.639C369.58 223.569 369.833 223.493 370.092 223.431C370.218 223.399 370.345 223.369 370.472 223.337C370.445 223.463 370.418 223.587 370.393 223.714C370.383 224.18 370.043 224.638 369.577 224.638C369.512 224.638 369.448 224.63 369.38 224.614Z" fill="#010101"/>
<path d="M377.636 196.942C379.275 191.554 382.39 186.633 386.569 182.859C388.603 180.807 396.951 174.97 399.633 177.687C399.619 177.717 399.606 177.749 399.592 177.779C399.533 177.911 399.476 178.043 399.417 178.172C399.366 178.285 399.32 178.399 399.271 178.512C399.22 178.541 399.172 178.571 399.123 178.603C398.978 178.698 398.835 178.797 398.695 178.9C398.654 178.929 398.614 178.962 398.574 178.991C398.331 178.63 397.959 178.426 397.401 178.614C393.559 179.457 390.172 181.688 387.367 184.341C383.643 187.764 380.881 192.187 379.32 196.993C379.178 197.464 379.04 197.938 378.911 198.412C378.622 198.604 378.337 198.798 378.054 198.994C377.655 199.272 377.254 199.546 376.857 199.829C377.095 198.86 377.348 197.895 377.633 196.939L377.636 196.942Z" fill="#010101"/>
<path d="M383.712 220.732C383.311 220.506 383.2 220.021 383.4 219.622C383.451 219.52 383.499 219.42 383.551 219.318C383.58 219.31 383.61 219.302 383.639 219.294C383.626 219.296 383.613 219.302 383.596 219.305C384.127 219.164 384.647 218.981 385.167 218.806L385.208 218.793C385.221 218.787 385.235 218.785 385.251 218.779C385.27 218.774 385.286 218.768 385.305 218.76C385.326 218.755 385.348 218.747 385.369 218.739C385.367 218.739 385.364 218.739 385.361 218.742C385.386 218.733 385.41 218.725 385.437 218.72C385.437 218.72 385.442 218.72 385.445 218.717C385.445 218.717 385.45 218.717 385.453 218.715C385.458 218.715 385.464 218.712 385.466 218.709C385.461 218.709 385.458 218.709 385.453 218.712C385.458 218.712 385.466 218.707 385.475 218.707H385.477C385.477 218.707 385.48 218.707 385.483 218.707C385.483 218.707 385.485 218.707 385.488 218.707C385.574 218.682 385.663 218.658 385.752 218.634C385.636 218.844 385.526 219.057 385.413 219.27C385.186 219.652 384.987 220.255 384.661 220.592C384.599 220.608 384.539 220.624 384.477 220.641C384.316 220.686 384.16 220.751 384.001 220.805C383.984 220.81 383.965 220.816 383.949 220.821C383.874 220.805 383.796 220.775 383.709 220.735L383.712 220.732Z" fill="#010101"/>
<path d="M398.894 177.526C398.937 176.179 399.058 174.835 399.247 173.501C399.694 170.024 400.635 166.458 401.715 163.166C403.033 159.12 404.491 155.061 406.752 151.435C409.783 146.883 414.469 143.432 419.726 141.913C421.631 141.35 423.663 141.196 425.638 141.401C429.12 141.681 429.936 144.679 430.033 147.677C430.165 150.438 429.621 153.175 429.228 155.896C428.662 159.554 427.902 163.174 427.128 166.789C426.872 167.979 426.616 169.167 426.334 170.353C426.231 170.784 425.77 171.053 425.345 170.945C424.911 170.835 424.649 170.388 424.752 169.957C425.024 168.812 425.275 167.662 425.522 166.509C426.722 160.833 427.921 155.193 428.414 149.428C428.414 147.586 428.562 144.466 426.808 143.378C425.593 142.85 424.216 142.92 422.922 142.993C420.715 143.12 418.549 143.944 416.579 144.876C413.243 146.573 410.263 149.143 408.182 152.224C406.8 154.411 405.846 156.607 404.911 158.961C403.434 162.948 402.028 167.144 401.254 171.301C400.988 172.788 400.767 174.28 400.632 175.783C400.538 176.015 400.446 176.244 400.357 176.478C400.333 176.532 400.309 176.583 400.284 176.637C400.206 176.807 400.131 176.979 400.055 177.151C400.028 177.157 400.004 177.165 399.98 177.176C399.907 177.205 399.856 177.259 399.815 177.324C399.727 177.467 399.667 177.628 399.6 177.782C399.541 177.914 399.484 178.046 399.425 178.175C399.374 178.288 399.328 178.401 399.279 178.514C399.228 178.544 399.18 178.574 399.131 178.606C399.05 178.657 398.972 178.711 398.894 178.765C398.886 178.296 398.918 177.836 398.902 177.526H398.894Z" fill="#010101"/>
<path d="M389.429 217.546C389.119 216.729 391.875 214.461 392.43 213.699C396.515 209.354 400.361 204.783 403.972 200.034C408.167 194.73 411.826 189.044 415.561 183.417C419.652 177.151 424.316 171.198 428.019 164.728C433.206 155.446 437.501 145.401 444.906 137.595C447.512 134.969 450.503 132.746 453.699 130.885C458.87 127.645 463.151 126.077 469.344 126.257C470.89 126.397 472.984 125.856 474.164 127.055C478.01 132.574 471.324 145.565 469.247 151.465C464.86 162.167 460.47 172.912 455.224 183.226C453.13 187.158 450.753 190.948 447.975 194.434C447.318 195.258 446.04 194.323 446.674 193.453C448.91 190.641 450.894 187.635 452.65 184.508C458.886 172.96 463.674 160.707 468.646 148.58C470.511 143.284 475.525 133.347 473 128.205C472.785 127.847 472.117 127.992 471.844 127.927C471.041 127.887 470.233 127.882 469.43 127.887C467.309 127.892 465.181 127.976 463.1 128.423C460.349 128.948 457.897 130.362 455.491 131.731C452.742 133.29 450.12 135.049 447.757 137.15C438.059 146.056 433.871 158.961 426.857 169.784C423.087 175.46 419.086 180.974 415.346 186.671C410.202 194.692 404.548 202.388 398.315 209.599C396.181 212.091 393.931 214.483 391.673 216.864C391.061 217.537 390.086 218.882 389.437 217.546H389.429Z" fill="#010101"/>
<path d="M88.792 261.724C88.8486 261.724 88.9079 261.727 88.9644 261.73C88.9079 261.73 88.8486 261.727 88.792 261.724Z" fill="#010101"/>
<path d="M92.0824 263.354C92.0689 262.918 92.4273 262.519 92.8719 262.514C97.2346 262.46 101.595 262.368 105.952 262.112C118.018 261.229 130.082 259.343 141.475 255.192C149.769 252.022 157.635 247.604 164.372 241.802C199.631 207.541 210.14 198.227 260.425 191.479C268.703 190.116 277.062 188.16 284.879 185.168C286.464 184.562 288.029 183.912 289.611 183.293C290.39 183.059 291.147 182.496 291.974 182.655C292.969 183.317 292.346 184.147 291.279 184.387C289.783 184.958 288.307 185.569 286.819 186.156C270.113 193.087 251.819 193.637 234.387 197.726C213.374 202.07 195.573 213.599 180.572 228.576C168.214 240.943 158.074 251.165 141.041 257.088C129.843 260.997 117.989 262.874 106.186 263.731C102.306 263.963 98.4175 264.062 94.5318 264.122C93.6507 264.065 92.2656 264.528 92.0878 263.354H92.0824Z" fill="#010101"/>
<path d="M22.0957 265.293C22.093 264.844 22.4595 264.485 22.9041 264.472C25.2296 264.399 27.5578 264.337 29.8833 264.27C32.5806 264.192 35.2806 264.114 37.978 264.038C40.643 263.963 43.3107 263.885 45.9757 263.806C48.6111 263.731 51.2464 263.653 53.8818 263.578C56.4606 263.502 59.0394 263.429 61.6181 263.354C64.2939 263.276 66.967 263.198 69.6428 263.122C72.359 263.044 75.0779 262.966 77.7941 262.888C80.1897 262.818 82.5852 262.748 84.9835 262.681C86.6595 262.632 88.3383 262.578 90.0144 262.54C90.5964 262.527 91.1758 262.524 91.7578 262.532C91.933 262.535 92.1081 262.538 92.2833 262.543C92.4773 262.549 92.674 262.549 92.868 262.573C93.0189 262.592 93.1671 262.619 93.318 262.632C93.6198 262.664 93.9647 262.713 94.1022 263.028C94.1507 263.141 94.1587 263.262 94.1291 263.381C94.0159 263.839 93.4716 263.847 93.0917 263.92C92.9462 263.952 92.8033 263.982 92.6578 263.995C92.4288 264.019 92.1997 264.033 91.9869 264.049C90.7311 264.146 89.47 264.176 88.2116 264.213C86.0829 264.278 83.9514 264.337 81.8226 264.399C79.3112 264.472 76.7971 264.545 74.2857 264.617C71.4833 264.698 68.6835 264.779 65.8811 264.86C63.2727 264.935 60.6642 265.008 58.0558 265.086C55.4824 265.161 52.9117 265.234 50.341 265.31C47.6653 265.385 44.9868 265.466 42.311 265.541C39.6999 265.614 37.0861 265.692 34.4749 265.767C31.7048 265.848 28.9347 265.926 26.1646 266.007C25.0841 266.04 24.0035 266.066 22.9257 266.101C22.9176 266.101 22.9095 266.101 22.9041 266.101C22.4703 266.101 22.1092 265.722 22.1065 265.293H22.0957Z" fill="#010101"/>
<path d="M379.178 221.591C379.076 221.233 379.289 220.867 379.639 220.756C380.191 220.597 380.728 220.385 381.256 220.156C382.969 219.477 384.694 218.828 386.402 218.138C387.48 217.68 388.58 217.257 389.685 216.88C390.253 216.727 390.884 216.255 391.471 216.535C391.754 216.708 391.897 217.001 391.829 217.333C391.743 217.766 391.261 217.958 390.9 218.117C387.631 219.28 384.497 220.894 381.124 221.734C380.485 221.831 379.499 222.499 379.175 221.594L379.178 221.591Z" fill="#010101"/>
<path d="M383.594 220.662C383.165 220.624 382.807 220.193 382.874 219.762C383.082 218.601 383.424 217.47 383.796 216.352C386.402 208.654 389.657 201.184 393.3 193.928C395.604 189.052 397.687 184.009 398.582 178.663C398.751 177.72 398.897 176.772 399.067 175.829C399.164 175.411 399.155 174.913 399.514 174.619C399.74 174.434 400.045 174.433 400.301 174.56C401.026 175.026 400.597 176.144 400.535 176.842C400.188 179.045 399.783 181.246 399.188 183.398C397.622 188.933 394.965 194.264 392.454 199.366C389.7 205.184 387.269 211.186 385.203 217.279C384.914 218.184 384.647 219.1 384.494 219.943C384.443 220.377 384.036 220.721 383.594 220.662Z" fill="#010101"/>
<path d="M369.463 224.853C369.043 224.781 368.701 224.347 368.798 223.913C368.954 223.213 369.143 222.523 369.342 221.836C370.83 216.732 372.834 211.797 374.691 206.819C375.141 205.588 375.561 204.347 375.947 203.097C376.51 201.27 376.933 199.404 377.493 197.577C377.59 197.262 377.679 196.923 377.927 196.691C378.173 196.465 378.531 196.438 378.817 196.608C379.205 196.839 379.199 197.321 379.113 197.707C378.849 198.806 378.523 199.894 378.235 200.988C376.898 206.194 374.713 211.118 372.926 216.174C372.099 218.486 371.296 220.813 370.654 223.186C370.45 223.851 370.436 224.996 369.463 224.853Z" fill="#010101"/>
<path d="M524.191 182.277C517.891 177.871 510.211 175.67 502.644 174.716C480.855 172.693 462.421 186.579 443.451 195.016C425.081 203.544 406.44 211.563 387.27 218.076C387.259 218.082 387.249 218.09 387.238 218.095H387.243C387.13 218.16 387.019 218.227 386.898 218.281C386.82 218.319 386.742 218.351 386.661 218.381H386.658C386.656 218.381 386.653 218.381 386.65 218.383C386.642 218.386 386.637 218.389 386.629 218.391C386.26 218.515 385.874 218.593 385.5 218.701H385.508C385.508 218.701 385.492 218.701 385.484 218.706C385.481 218.706 385.478 218.706 385.473 218.709H385.475H385.47C385.465 218.712 385.457 218.715 385.451 218.715H385.443C385.443 218.715 385.419 218.725 385.403 218.728L385.368 218.739C385.368 218.739 385.373 218.739 385.376 218.739C385.354 218.744 385.333 218.752 385.311 218.76C385.295 218.766 385.276 218.771 385.257 218.776C385.244 218.782 385.23 218.785 385.214 218.79L385.174 218.803C384.654 218.979 384.133 219.162 383.603 219.302C383.616 219.299 383.63 219.294 383.646 219.291C383.616 219.299 383.586 219.307 383.557 219.315H383.554C383.252 219.42 382.948 219.509 382.646 219.614C382.565 219.644 382.482 219.671 382.401 219.698C382.35 219.714 382.298 219.727 382.247 219.741C378.628 220.913 374.988 222.03 371.329 223.084C371.318 223.086 371.307 223.092 371.296 223.094C371.161 223.14 371.024 223.181 370.887 223.221C370.701 223.278 370.512 223.323 370.323 223.372C368.3 223.948 366.268 224.506 364.231 225.039C351.65 228.374 338.556 228.471 325.635 229.403C317.476 230.343 309.125 229.672 301.295 227.127C300.548 226.777 299.511 226.443 299.53 227.641C300.395 229.045 303.189 229.258 305.091 229.858C309.335 230.796 313.674 231.474 318.026 231.474C318.4 231.474 318.775 231.469 319.149 231.458C323.065 231.329 326.964 230.884 330.874 230.639C337.481 230.19 344.129 230.192 350.696 229.222C361.329 227.816 371.749 225.08 381.84 221.481C400.797 215.471 419.221 208.015 437.24 199.616C450.581 194.022 462.987 186.517 476.28 180.834C488.926 175.794 502.116 174.256 515.023 179.349C517.85 180.33 520.529 181.698 522.986 183.406C524.867 184.661 524.091 186.377 523.862 186.945C523.406 188.039 522.676 188.985 521.959 189.917C520.375 191.937 518.632 193.828 516.799 195.624C508.616 203.856 498.344 209.168 488.214 214.652C483.59 217.166 478.991 219.727 474.399 222.3C468.945 225.349 463.472 228.387 458.341 231.965C454.062 234.898 449.953 238.066 445.795 241.169C435.151 248.999 424.084 256.585 411.692 261.371C399.612 266.201 386.675 268.795 374.352 272.951C366.422 275.599 358.658 278.767 351.127 282.398C349.858 283.018 348.594 283.643 347.343 284.3C346.947 284.483 346.759 284.992 346.955 285.385C347.09 285.668 347.397 285.854 347.705 285.854C348.012 285.854 348.243 285.647 348.508 285.528C349.839 284.839 351.186 284.176 352.536 283.521C356.864 281.42 361.313 279.581 365.772 277.787C381.062 271.551 397.585 268.792 412.904 262.637C428.528 256.499 441.893 246.066 455.251 236.145C465.482 228.579 476.894 222.849 487.964 216.643C498.756 210.801 509.896 205.114 518.532 196.198C520.671 194.035 522.736 191.775 524.452 189.257C525.018 188.384 526.521 186.046 525.88 184.292C525.568 183.436 524.568 182.477 524.204 182.272L524.191 182.277Z" fill="#010101"/>
<path d="M405.475 264.202C404.731 263.308 403.823 264.51 403.179 264.946C402.266 265.692 401.336 266.589 400.458 267.397C400.137 267.78 397.477 270.317 396.852 270.964C385.354 283.785 374.511 297.205 362.42 309.488C354.929 317.367 346.346 324.444 336.398 328.99C321.294 336.145 304.59 338.739 288.12 340.64C261.901 343.652 235.424 346.327 209.547 351.79C178.2 358.338 147.923 369.005 116.889 376.8C85.3615 384.887 53.508 391.718 21.4147 397.151C17.4752 397.832 13.5437 398.562 9.57983 399.093C8.44808 399.233 7.30824 399.333 6.16841 399.317C4.77527 399.271 4.54353 400.922 6.44596 400.943C11.264 400.798 15.9931 399.669 20.7411 398.921C54.4458 393.221 87.8971 386.034 120.977 377.42C145.714 371.041 169.992 363.017 194.78 356.829C216.392 351.407 238.455 348.072 260.562 345.438C274.914 343.665 289.543 342.389 303.868 340.134C313.884 338.537 323.822 336.121 333.183 332.172C338.632 329.912 343.927 327.21 348.685 323.705C353.304 320.419 357.629 316.734 361.579 312.667C368.332 305.868 374.756 298.754 381.064 291.546C386.893 284.903 392.557 278.118 398.464 271.543C398.854 271.109 403.185 266.993 404.454 265.956C404.907 265.565 406.033 264.992 405.472 264.202H405.475Z" fill="#010101" stroke="black" stroke-width="0.43" stroke-miterlimit="10"/>
<path d="M465.805 155.513C461.774 154.428 458.268 150.665 458.427 146.344C458.982 141.242 463.407 135.572 467.667 132.868C468.842 132.105 473.905 129.11 474.8 130.729C475.177 132.014 473.42 131.774 472.679 132.148C471.13 132.703 469.666 133.474 468.308 134.398C465.118 136.453 462.809 139.569 461.084 142.901C458.826 147.052 460.634 151.378 464.76 153.388C465.234 153.622 465.73 153.805 466.242 153.94C467.182 154.207 466.894 155.543 466.045 155.543C465.969 155.543 465.891 155.532 465.808 155.51L465.805 155.513Z" fill="#010101"/>
<path d="M467.994 147.893C468.646 147.893 469.592 148.025 469.487 148.889C469.428 149.329 469.007 149.646 468.568 149.587C465.666 149.205 462.907 149.97 460.112 150.384C457.108 148.197 466.989 147.745 467.994 147.896V147.893Z" fill="#010101"/>
<path d="M421.22 156.803L421.233 156.817C421.217 157.024 421.201 157.232 421.188 157.439C421.196 157.226 421.206 157.016 421.22 156.803Z" fill="#010101"/>
<path d="M428.916 145.999C428.916 145.999 428.897 146.005 428.889 146.01C428.897 146.007 428.908 146.005 428.916 145.999Z" fill="#010101"/>
<path d="M425.135 170.538C422.849 170.207 420.365 169.229 419.136 167.166C418.589 165.868 418.727 164.378 418.716 162.996C418.88 157.757 420.492 152.38 424.17 148.526C424.887 147.677 427.859 144.879 428.923 145.622C429.481 146.08 429.071 146.745 428.533 146.988C427.859 147.392 427.244 147.812 426.662 148.324C425.517 149.364 424.501 150.543 423.617 151.807C421.561 154.91 420.621 158.616 420.379 162.293C420.319 163.201 420.306 164.111 420.365 165.019C420.427 165.526 420.373 166.099 420.661 166.541C421.747 168.009 423.636 168.669 425.358 168.922C426.38 169.089 426.218 170.541 425.24 170.541C425.207 170.541 425.172 170.541 425.137 170.536L425.135 170.538Z" fill="#010101"/>
<path d="M419.134 165.493C418.293 164.507 420.328 163.212 421.001 162.659C422.828 161.385 424.989 160.464 427.234 160.351C428.301 160.373 428.307 161.948 427.234 161.981C426.361 162.021 425.512 162.264 424.688 162.538C423.316 163.037 422.044 163.807 420.947 164.769C420.573 165.095 420.123 165.703 419.622 165.703C419.463 165.703 419.301 165.641 419.131 165.493H419.134Z" fill="#010101"/>
<path d="M331.348 200.346L331.391 200.325C331.472 200.309 331.55 200.29 331.628 200.271C331.523 200.301 331.418 200.336 331.315 200.368C331.326 200.36 331.334 200.355 331.345 200.346H331.348Z" fill="#010101"/>
<path d="M355.51 176.691C355.51 176.691 355.518 176.71 355.524 176.718C355.421 176.728 355.313 176.739 355.211 176.753C355.208 176.753 355.203 176.753 355.2 176.753C355.303 176.731 355.408 176.71 355.51 176.688V176.691Z" fill="#010101"/>
<path d="M327.241 179.393C327.3 179.358 327.362 179.325 327.421 179.29C327.381 179.339 327.338 179.387 327.298 179.436C327.279 179.422 327.257 179.409 327.238 179.393H327.241Z" fill="#010101"/>
<path d="M326.701 204.497C323.869 203.999 321.908 201.734 320.841 199.331C319.806 197.179 319.062 194.897 318.652 192.562C317.863 187.799 318.211 182.202 321.935 178.566C323.972 176.887 326.561 175.955 328.965 174.843C334.131 172.564 339.733 171.134 345.44 170.924C347.811 170.872 350.32 170.875 352.513 171.842C354.117 172.252 355.825 172.982 356.402 174.579C358.299 179.584 356.286 185.2 353.263 189.426C348.14 196.338 338.905 204.705 329.313 204.705C328.445 204.705 327.572 204.637 326.701 204.492V204.497ZM327.389 177.37C325.971 178.046 324.497 178.679 323.266 179.646C319.639 183.123 319.652 188.702 320.544 193.195C321.142 195.783 322.053 198.364 323.559 200.613C325.071 202.703 327.415 203.221 329.959 203.075C337.394 202.518 343.64 197.615 348.455 192.567C351.411 189.397 354.13 185.828 355.041 181.609C355.523 179.713 355.769 175.514 354.009 174.207C353.613 173.976 353.19 173.795 352.753 173.647C352.675 173.612 352.594 173.577 352.513 173.547C352.341 173.48 352.169 173.418 351.993 173.367C351.993 173.367 351.999 173.367 352.001 173.367C352.001 173.367 351.996 173.367 351.993 173.367C351.988 173.367 351.983 173.364 351.98 173.361C351.98 173.361 351.98 173.361 351.977 173.361C351.977 173.361 351.977 173.361 351.974 173.361C351.974 173.361 351.975 173.361 351.977 173.361C351.977 173.361 351.977 173.361 351.98 173.361C351.931 173.348 351.883 173.337 351.832 173.324C351.627 173.27 351.425 173.2 351.223 173.138C351.056 173.089 350.886 173.049 350.719 173C350.536 172.944 350.358 172.879 350.169 172.841C350.01 172.809 349.854 172.777 349.692 172.747C349.552 172.72 349.409 172.699 349.269 172.666C349.153 172.639 349.037 172.613 348.919 172.607C348.859 172.604 348.803 172.607 348.746 172.613H348.725C348.56 172.596 348.393 172.572 348.229 172.564C348.075 172.556 347.916 172.551 347.763 172.553C347.66 172.553 347.558 172.561 347.456 172.572C347.143 172.564 346.83 172.559 346.518 172.559H346.512C339.854 172.559 333.268 174.565 327.391 177.375L327.389 177.37Z" fill="#010101"/>
<path d="M332.663 203.213C331.76 202.959 332.083 202.035 332.248 201.405C332.568 199.897 332.738 198.353 332.657 196.815C332.064 190.423 329.488 183.875 324.455 179.436C324.164 179.177 323.765 179.013 323.644 178.628C323.431 177.844 324.468 177.437 325.066 177.9C331.003 182.428 333.924 190.199 334.419 197.238C334.46 199.056 334.196 200.874 333.738 202.639C333.643 203.002 333.269 203.242 332.889 203.242C332.813 203.242 332.738 203.231 332.665 203.213H332.663Z" fill="#010101"/>
<path d="M494.812 209.3C494.093 208.885 494.384 207.959 494.411 207.288C494.694 204.357 495.497 201.475 496.863 198.865C500.592 191.77 511.231 187.309 519.008 188.357C520.083 188.656 522.651 188.656 522.155 190.323C521.616 191.509 520.209 190.504 519.358 190.426C518.011 190.148 516.631 190.129 515.262 190.216C512.177 190.399 509.202 191.447 506.442 192.796C502.309 194.719 498.814 198.025 497.456 202.461C496.863 204.174 496.515 205.96 496.337 207.759C496.367 208.522 496.068 209.432 495.335 209.432C495.181 209.432 495.006 209.392 494.812 209.303V209.3Z" fill="#010101"/>
<path d="M500.93 205.198C500.224 204.147 499.332 203.215 498.29 202.496C497.853 202.13 497.22 202.043 496.843 201.623C496.53 201.195 496.587 200.586 497.018 200.255C497.915 199.657 498.934 200.608 499.688 201.068C500.852 201.922 501.852 202.994 502.639 204.201C503.083 204.969 502.421 205.68 501.747 205.68C501.445 205.68 501.143 205.54 500.933 205.198H500.93Z" fill="#010101"/>
<path d="M494.547 211.813C493.959 210.65 494.277 207.757 494.795 206.569C494.77 206.009 494.999 205.346 495.668 205.376C496.101 205.392 496.479 205.777 496.449 206.219C496.269 207.956 496.401 209.728 496.15 211.455C495.98 212.164 494.978 212.468 494.547 211.816V211.813Z" fill="#010101"/>
<path d="M502.423 207.555C502.078 207.434 501.922 207.132 501.825 206.806C501.687 206.491 501.531 206.186 501.356 205.89C500.291 204.069 498.731 202.588 496.945 201.491C496.161 200.845 497.047 199.614 497.912 200.193C499.658 201.2 501.111 202.633 502.337 204.22C502.849 205.012 503.353 205.901 503.498 206.838C503.452 207.358 502.908 207.738 502.423 207.555Z" fill="#010101"/>
<path d="M502.218 206.65C501.488 204.718 499.858 203.582 498.235 202.461C497.82 202.173 497.37 201.93 496.996 201.588C496.301 201.103 496.856 199.934 497.688 200.228C499.793 201.507 502.091 202.878 503.28 205.12C503.46 205.44 503.622 205.769 503.759 206.111C504.094 207.118 502.612 207.654 502.221 206.65H502.218Z" fill="#010101"/>
<path d="M535.198 28.5554C535.756 35.6236 530.458 36.5098 524.721 36.4586C526.33 40.7631 521.984 39.683 519.281 41.0352C518.578 41.6574 517.236 41.9429 517.198 40.6419C517.017 30.336 512.469 34.767 511.256 27.276C510.796 22.3492 516.621 21.6704 518.974 25.3769C518.376 15.5073 524.083 11.5746 528.459 12.6386C531.949 16.9646 536.149 20.1189 535.196 28.5554H535.198Z" fill="white"/>
<path d="M508.11 90.2645C510.158 95.07 505.483 101.233 506.493 106.54C506.226 109.276 509.188 122.508 504.704 121.317C504.946 123.076 504.149 126.782 502.187 123.984C500.778 124.671 499.603 122.896 499.096 121.797C497.973 121.829 497.493 120.536 497.056 119.698C495.208 119.281 496.078 115.434 496.434 114.13C497.903 105.834 498.126 97.3192 499.6 89.0416C499.288 88.2146 500.223 87.4631 500.999 87.8133C503.157 89.2221 505.814 89.2221 508.11 90.2672V90.2645Z" fill="white"/>
<path d="M567.925 94.1704C569.194 96.9826 569.213 102.957 565.966 97.7907C565.877 98.7308 564.869 100.786 563.694 100.04C563.161 99.4931 564.104 98.1112 563.751 97.5698C561.654 98.6041 561.805 91.8996 559.97 95.1212C561.878 97.8149 562.161 99.6574 561.555 99.8863C560.665 99.7813 555.793 96.064 550.356 93.136C545.686 89.7016 541.714 85.8524 541.714 85.8524L548.795 77.8899C554.144 86.3965 563.279 88.3709 567.927 94.1704H567.925Z" fill="white"/>
<path d="M507.376 184.311C503.471 184.314 501.173 183.325 502.267 178.929C502.356 178.565 505.145 178.929 505.145 178.929C505.145 178.929 509.478 184.265 507.376 184.311Z" fill="white"/>
<path d="M543.458 157.418C541.359 155.85 536.842 156.165 536.53 152.951C536.403 152.127 535.546 150.258 537.007 150.271C538.394 150.172 539.901 150.856 539.866 152.569C541.224 153.439 547.591 156.82 543.458 157.418Z" fill="white"/>
<path d="M515.605 43.7692C518.227 43.1901 522.202 45.0541 524.773 43.9201C525.266 43.0851 525.745 40.0547 523.66 40.281C521.076 41.019 517.198 40.6419 515.605 43.7692Z" fill="#C0CAE8"/>
<path d="M548.117 73.6797C546.705 72.0473 544.562 68.6856 542.137 69.9867C540.954 68.8419 536.384 62.7919 536.384 62.7919C536.384 62.7919 533.945 49.9485 530.329 45.6441C529.243 43.7181 527.605 47.1687 526.479 47.8421C522.086 51.0583 508.931 46.7889 508.931 46.7889C508.931 46.7889 507.39 48.5909 506.635 50.4334C503.509 58.2019 497.39 85.7042 500.098 87.482C512.655 93.7394 510.564 88.7265 514.377 87.7271C516.433 87.1884 521.289 88.3143 532.027 92.476C534.856 81.3243 532.027 79.164 539.028 84.5917C541.892 88.4005 552.035 76.1983 548.119 73.6824L548.117 73.6797Z" fill="#C0CAE8"/>
<path d="M529.396 42.5463C528.412 41.6682 524.411 38.4951 525.227 42.0211C526.734 48.537 510.226 41.2372 504.632 43.8851C497.001 40.6069 484.7 33.5522 479.17 39.5483C477.721 41.1214 481.251 40.3968 482.35 40.1059C489.981 42.6218 496.839 45.4717 505.23 44.5154C511.45 49.4206 530.439 52.0388 529.396 42.5463Z" fill="#FDC731"/>
<path d="M529.243 25.1695C525.753 25.5628 524.268 17.2367 527.747 17.1828C531.175 17.129 532.527 24.7978 529.243 25.1695Z" fill="#FDC731"/>
<path d="M535.851 21.49C533.388 21.5519 529.783 13.4602 534.234 14.7073C535.396 15.4319 538.467 21.4415 535.851 21.49Z" fill="#FDC731"/>
<path d="M559.846 111.103C559.019 117.592 550.843 141.423 542.223 150.797C539.997 150.797 536.233 149.964 533.77 147.642C532.323 136.625 543.174 125.471 541.854 114.047C532.695 113.058 522.891 111.825 522.891 111.825C522.891 111.825 520.806 117.142 519.628 123.028C516.704 137.635 516.769 154.67 510.914 169.431C501.895 189.345 496.6 173.873 500.553 160.103C502.423 148.313 499.057 134.527 500.017 123.483C502.067 124.676 505.724 126.783 504.977 121.468C507.343 121.366 507.373 115.919 506.732 111.862C505.328 105.058 506.667 97.3597 508.86 91.1588C509.413 89.5938 510.655 91.5844 510.957 87.3877C516.804 85.4402 525.185 91.0807 531.649 92.2175C539.512 91.9642 559.291 105.861 559.848 111.103H559.846Z" fill="#010101"/>
<path d="M509.588 90.3184C509.564 90.3292 509.537 90.34 509.513 90.3481C509.491 90.3534 509.467 90.3588 509.445 90.3642C509.437 90.3642 509.432 90.3642 509.424 90.3642C509.478 90.3534 509.534 90.34 509.588 90.3157V90.3184Z" fill="#010101"/>
<path d="M509.553 90.3319C509.54 90.3373 509.526 90.3427 509.513 90.3454C509.491 90.3535 509.467 90.3589 509.445 90.3616C509.437 90.3616 509.432 90.3616 509.424 90.3616C509.467 90.3535 509.51 90.3427 509.556 90.3265L509.553 90.3319Z" fill="#010101"/>
<path d="M559.596 87.5655C559.596 87.5655 559.604 87.5709 559.609 87.5736C559.294 87.3527 558.981 87.1265 558.674 86.8975L558.69 86.911C558.623 86.8625 558.561 86.814 558.496 86.7628C558.496 86.7628 558.496 86.7628 558.502 86.7628C555.195 84.0826 552.08 81.1735 549.297 77.9519C549.221 77.8657 549.216 77.739 549.272 77.6421C550.264 75.9585 549.456 74.3423 548.063 73.1437C548.057 73.141 548.054 73.1356 548.052 73.1329C546.764 71.8723 544.624 68.6749 542.711 69.1328C542.649 69.149 542.582 69.1436 542.525 69.1139C539.82 67.7429 538.354 64.7502 536.411 62.4983C536.376 62.4579 536.354 62.4067 536.349 62.3528C536.112 59.4868 535.643 56.6423 534.797 53.9001C534.797 53.8921 534.791 53.8867 534.789 53.8786C533.552 50.6273 532.073 47.4084 530 44.5989C529.957 44.5397 529.944 44.4642 529.957 44.3915C530.477 41.8245 527.206 41.143 525.81 39.8285C525.775 39.7961 525.689 39.6776 525.638 39.6103C525.611 39.5752 525.592 39.5348 525.586 39.4917C525.551 39.2709 525.527 39.0446 525.487 38.8264C525.403 38.2284 525.347 37.652 525.282 37.0594C525.263 36.8843 525.417 36.7415 525.592 36.7711C533.929 38.2607 537.5 34.0829 535.43 25.649C535.093 24.445 536.508 23.4645 535.947 22.3547C535.877 22.2173 535.947 22.0449 536.093 21.9991C539.636 20.857 533.705 9.17459 531.24 15.3754C531.199 15.3215 531.173 15.2596 531.135 15.203C531.135 15.2057 531.14 15.2111 531.143 15.2138C530.976 14.904 530.593 14.7208 530.467 14.4003C530.456 14.376 530.445 14.3518 530.426 14.3303C530.003 13.8185 529.558 13.3228 529.092 12.846C529.003 12.7572 528.995 12.6198 529.065 12.5147C531.342 9.18805 529.779 5.54892 527.144 4.07818C526.144 3.70645 525.869 2.61013 525.242 1.85052C522.876 -1.61353 518.942 0.549481 516.101 2.07679C516.085 2.08487 516.069 2.09295 516.053 2.09834C514.757 2.53202 513.582 1.61078 512.415 1.18519C507.759 -0.867384 504.032 3.41015 501.442 6.73952C501.1 7.12471 500.68 7.43987 500.181 7.59071C500.168 7.5961 500.152 7.59879 500.136 7.60149C493.733 8.48231 494.404 13.5275 495.177 18.5297C495.183 18.5647 495.18 18.597 495.172 18.632C492.628 28.4343 503.601 36.6769 512.679 36.2297C512.711 36.2297 512.741 36.2297 512.773 36.2405C513.291 36.4075 513.94 36.7146 514.355 36.7577C519.615 36.8573 515.323 33.8135 515.32 33.8081C517.079 35.8149 516.153 39.1092 517.147 41.4016C517.193 41.5066 517.171 41.6332 517.085 41.7059C516.029 42.6002 514.288 43.0339 512.97 42.9558C510.17 42.7619 507.349 43.0043 504.617 43.6508C504.552 43.6669 504.485 43.6561 504.428 43.6238C502.175 42.3174 499.95 40.9679 497.592 39.8581C497.6 39.8635 497.611 39.8689 497.619 39.8742C497.624 39.8742 497.627 39.8742 497.63 39.8796C492.318 37.3287 487.107 36.1651 481.254 37.3476C480.774 37.1994 479.336 38.6729 478.554 39.8231C478.543 39.8392 478.53 39.8527 478.516 39.8662C477.646 40.9409 477.808 41.5551 477.813 41.6009C478.002 42.8938 478.953 48.8899 480.182 48.6475C481.957 48.195 482.973 46.1855 484.181 44.9222C484.911 44.106 484.701 42.8373 484.663 41.7652C484.655 41.582 484.835 41.4446 485.01 41.5066C491.321 43.6561 497.697 46.7754 504.477 44.7902C504.544 44.7713 504.617 44.7794 504.679 44.8117C505.735 45.4124 506.791 46.0212 507.885 46.5438C508.031 46.6138 508.079 46.7943 507.988 46.9263C501.887 55.6402 501.151 69.2567 499.594 79.8428C499.047 83.1156 498.664 85.6153 499.033 86.717C499.141 87.1615 499.349 87.4416 499.47 87.5763C499.524 87.6383 499.545 87.7191 499.529 87.7999C498.222 94.1273 497.417 106.798 497.427 106.796C497.576 109.584 494.17 118.968 496.967 119.992C497.061 120.027 497.128 120.105 497.136 120.205C497.231 121.215 497.78 122.125 498.942 122.405C499.055 122.432 499.141 122.527 499.152 122.642C500.02 134.271 499.828 145.781 499.535 157.399C499.535 157.407 499.535 157.415 499.535 157.423C499.904 161.989 496.538 177.394 501.666 179.128C501.798 179.172 501.866 179.317 501.825 179.449C501.529 180.403 501.141 181.9 501.461 182.784C501.472 182.816 501.491 182.843 501.51 182.87C502.658 184.279 504.741 184.858 506.452 185.216C507.721 185.375 509.386 184.351 508.858 182.951C508.847 182.921 508.831 182.894 508.812 182.87C507.95 181.776 506.551 181.154 506.015 179.764C505.837 179.465 505.422 179.39 505.129 179.549C505.096 179.565 505.069 179.592 505.045 179.621C504.229 180.664 505.986 182.318 507.004 183.182C507.169 183.322 507.104 183.595 506.891 183.64C505.619 183.904 504.121 183.002 503 182.479C502.976 182.469 502.951 182.452 502.933 182.436C502.2 181.795 502.771 180.578 502.483 179.697C502.423 179.514 502.574 179.333 502.766 179.357C509.303 180.211 510.96 171.936 512.011 166.958C513.881 157.698 517.389 148.607 517.376 139.074C517.376 139.068 517.376 139.063 517.376 139.058C517.861 130.023 522.081 121.592 522.876 112.617C522.889 112.455 523.045 112.347 523.202 112.388C528.933 113.923 534.902 113.899 540.741 114.833C540.879 114.855 540.978 114.982 540.965 115.122C540.086 124.342 535.357 132.795 533.466 141.854C533.466 141.862 533.463 141.867 533.46 141.872C532.587 144.668 531.752 148.601 534.969 150.091C535.056 150.131 535.115 150.209 535.126 150.304C535.373 152.946 534.732 155.634 538.076 156.426C538.084 156.426 538.09 156.429 538.098 156.432C540.065 157.11 546.093 159.92 545.503 155.82C545.495 155.764 545.468 155.707 545.427 155.667C544.099 154.314 541.978 153.803 540.458 152.617C540.407 152.577 540.372 152.52 540.359 152.456C540.313 152.216 540.299 151.974 540.294 151.729C540.291 151.567 540.431 151.44 540.59 151.465C541.833 151.637 543.145 151.058 543.568 149.835C543.576 149.811 543.587 149.789 543.603 149.768C551.14 139.987 562.024 122.249 560.45 109.637C560.447 109.608 560.439 109.581 560.426 109.554C557.432 102.927 540.124 93.5077 532.768 91.2666C532.617 91.2208 532.541 91.0592 532.603 90.9137C533.379 89.0874 534.363 84.2092 534.692 82.6146C534.735 82.4099 534.985 82.3344 535.131 82.4799C536.829 84.15 538.58 86.9998 541.25 86.0678C541.345 86.0355 541.45 86.0544 541.523 86.1244C545.085 89.61 548.847 92.9448 553.207 95.4095C553.212 95.4122 553.22 95.4175 553.226 95.4202C554.85 96.2256 556.761 96.6593 557.949 98.1705C558.782 99.1994 561.953 101.971 562.226 99.3099C562.226 99.2883 562.226 99.2641 562.226 99.2425C562.061 97.5994 560.277 96.4708 560.488 94.7468C560.504 94.6148 560.625 94.5179 560.757 94.5232C560.819 94.5259 560.884 94.5367 560.948 94.5475C560.994 94.5556 561.037 94.5744 561.072 94.6041C562.083 95.466 561.601 98.3025 563.123 98.0304C563.309 97.9981 563.471 98.1543 563.427 98.3402C562.762 101.306 564.912 101.058 565.89 98.79C565.982 98.5772 566.287 98.5799 566.373 98.7954C566.607 99.3772 566.839 100.013 567.313 100.404C567.337 100.422 567.362 100.439 567.391 100.449C568.278 100.816 568.868 99.6277 568.817 98.8331C569.482 91.5548 564.519 90.9649 559.604 87.5655H559.596ZM501.917 44.1356C498.697 44.5639 495.436 44.2461 492.378 43.1443C490.392 42.4682 488.395 41.7652 486.398 41.0918C484.418 40.4076 482.302 39.8069 480.187 40.1679C479.99 40.1975 479.794 40.2271 479.597 40.2567C480.093 39.4917 480.702 38.7483 481.418 38.1638C481.418 38.1638 481.421 38.1638 481.424 38.1638C487.204 37.151 491.963 38.1557 497.231 40.6743C497.215 40.6662 497.198 40.6581 497.18 40.6473C499.249 41.6197 501.213 42.7915 503.186 43.9498C502.766 44.0279 502.342 44.0925 501.917 44.1356ZM525.236 40.6635C525.352 40.6392 527.51 41.7356 527.586 41.7652C527.624 41.7814 527.659 41.7975 527.694 41.8137C527.777 41.8514 527.858 41.8891 527.942 41.9322C528.19 42.0669 528.432 42.2312 528.615 42.4494C528.82 42.6972 528.982 43.007 529.063 43.3194C529.065 43.3329 529.071 43.3491 529.073 43.3652C529.084 43.4083 529.092 43.4514 529.103 43.4945C529.103 43.4945 529.103 43.4999 529.103 43.5026C529.111 43.543 529.116 43.5834 529.122 43.6265C529.122 43.6373 529.122 43.6481 529.125 43.6561C529.127 43.6912 529.13 43.7262 529.133 43.7612C529.133 43.7774 529.133 43.7935 529.133 43.8097C529.133 43.8393 529.133 43.8689 529.133 43.8986C529.133 43.9174 529.13 43.939 529.127 43.9578C529.127 43.9821 529.122 44.009 529.119 44.0333C529.116 44.0575 529.108 44.0791 529.106 44.1006C529.1 44.1222 528.947 44.871 528.65 45.2831C528.572 45.3909 528.486 45.4905 528.375 45.566C528.351 45.5821 528.319 45.5929 528.287 45.601C527.726 44.7632 526.875 44.1168 526.015 43.5996C525.956 43.5619 525.848 43.4891 525.729 43.4218C525.735 43.3814 525.371 41.7005 525.328 41.5524C525.287 41.4069 525.217 40.6689 525.242 40.6635H525.236ZM532.442 15.3161C532.792 14.7154 533.662 14.201 534.43 15.2272C536.624 18.1553 537.211 21.1964 535.562 21.1937C534.064 21.1937 532.63 17.4603 532.63 17.4603C532.337 16.733 532.223 15.6906 532.442 15.3134V15.3161ZM521.526 19.9277C521.868 19.4913 522.194 19.0253 522.542 18.5835C522.571 18.3465 522.606 18.1095 522.641 17.8724C522.725 17.3256 522.9 16.7896 523.134 16.2885C523.407 15.6959 523.77 15.1384 524.236 14.6777C524.587 14.3329 524.986 14.077 525.419 13.8535C525.748 13.6811 526.109 13.576 526.462 13.4817C526.724 13.4117 527.804 13.137 527.909 13.1046C528.006 13.075 528.173 13.0104 528.243 13.1181C528.254 13.1316 529.766 14.7855 530.72 16.0353C530.766 16.0973 530.814 16.1593 530.86 16.2212C530.943 16.3343 531.027 16.4475 531.102 16.566C531.143 16.6306 531.186 16.6926 531.224 16.7599C531.264 16.8246 531.305 16.8919 531.337 16.962V16.97C531.399 17.0535 531.458 17.137 531.512 17.2232C531.517 17.2313 531.52 17.2367 531.526 17.2448C531.299 17.3498 531.1 17.5626 530.962 17.9209C530.882 18.1741 530.836 18.4516 530.833 18.7263C530.634 18.4192 530.418 18.1229 530.192 17.8347C530.162 17.7862 530.095 17.6973 530.006 17.5923C529.763 17.2206 529.44 16.9108 529.028 16.7141C526.699 15.7525 525.223 17.4522 525.112 19.7014C525.11 19.7984 525.11 19.8954 525.112 19.9923C523.757 20.2913 522.41 20.62 521.111 21.1156C520.968 21.1829 520.825 21.2476 520.68 21.3122C520.925 20.8328 521.243 20.3775 521.523 19.9331L521.526 19.9277ZM529.858 24.9002C527.384 26.2228 524.369 19.9438 527.141 17.7081C529.114 16.1188 532.84 23.3055 529.858 24.9002ZM517.05 34.7401C517.058 34.662 517.05 34.5758 517.015 34.4869C516.667 33.3556 515.568 32.7657 514.479 32.4532C514.388 32.4263 514.309 32.3751 514.25 32.2997C513.199 30.9367 512.159 29.5279 511.863 27.7905C511.704 26.6969 511.771 25.4335 512.644 24.6443C513.097 24.2941 513.574 23.8658 514.134 23.7284C514.134 23.7284 514.137 23.7284 514.14 23.7284C514.269 23.6961 514.404 23.68 514.544 23.6826C514.576 23.6826 514.608 23.688 514.641 23.6961C515.414 23.8685 516.231 24.1136 516.818 24.6685C517.715 25.3446 518.295 26.4517 519.373 26.8639C519.982 27.0524 520.704 26.9339 521.154 26.4625C521.668 25.9238 521.642 25.1049 521.334 24.4665C521.105 23.9278 520.69 23.4618 520.456 22.9257C520.601 22.6617 520.645 22.5863 520.79 22.3223C520.809 22.3197 520.83 22.3143 520.849 22.3116C521.59 22.185 522.331 22.0557 523.051 21.8725C523.064 21.8698 523.075 21.8644 523.089 21.8617C523.63 21.6786 524.18 21.5035 524.73 21.3257C524.986 21.2422 525.255 21.4065 525.298 21.6732C525.651 23.9116 526.993 26.0046 529.157 26.0046C529.332 26.0046 529.513 25.9911 529.699 25.9642C529.833 25.9642 529.963 25.9507 530.089 25.9184C530.607 25.7945 531.04 25.4147 531.334 24.9675C532.188 23.7446 532.272 22.1095 531.808 20.6307C531.79 20.5661 531.776 20.4987 531.784 20.4314C531.811 20.2186 531.738 19.9223 531.733 19.7849C531.717 19.6341 531.695 19.4644 531.69 19.2893C531.674 18.8421 532.253 18.6536 532.496 19.028C532.762 19.4374 532.999 19.8792 533.021 19.9169C533.051 19.9681 533.441 20.787 533.571 21.0429C533.595 21.0887 533.625 21.1291 533.662 21.1668C533.811 21.3041 534.546 22.0503 534.888 22.651C534.972 22.7964 534.945 22.9796 534.843 23.1143C534.164 24.0167 533.84 24.6658 533.929 25.6409C533.883 25.6679 533.84 25.6975 533.802 25.7352C532.878 26.7831 531.806 26.8692 530.51 26.6295C530.493 26.6268 530.477 26.6241 530.461 26.6241C530.178 26.6107 529.866 26.5325 529.61 26.6861C528.928 27.443 531.835 28.1541 532.326 27.9871C533.021 27.9252 533.646 27.61 534.169 27.1656C534.282 27.0713 534.436 27.0255 534.576 27.0686C534.643 27.0901 534.713 27.1009 534.783 27.1009C534.797 27.1009 534.81 27.0955 534.824 27.0955C535.093 29.2855 535.064 31.5912 534.212 33.4876C534.201 33.5091 534.191 33.5334 534.177 33.5549C533.164 35.2304 530.927 35.4135 529.141 35.5967C529.127 35.5967 529.117 35.5967 529.103 35.5967C527.777 35.6263 526.435 35.5913 525.142 35.2762C524.479 35.1307 523.83 34.9583 523.164 34.8236C522.698 34.724 522.215 34.7401 521.744 34.6593C521.501 34.6432 520.962 34.4223 520.946 34.8209C520.954 34.8964 521.006 34.961 521.07 34.9906C521.763 35.3408 522.469 35.6775 523.204 35.928C523.452 36.0223 523.7 36.1274 523.948 36.2324C524.086 36.2917 524.183 36.4156 524.212 36.561C524.242 36.7119 524.274 36.8627 524.307 37.0109C524.315 37.0459 524.317 37.0809 524.315 37.1159C524.28 37.8944 524.36 38.5543 524.571 39.3086C524.53 39.3032 524.495 39.3032 524.457 39.3005C522.959 39.1281 521.501 39.6103 520.111 40.1194C519.534 40.3483 518.95 40.5692 518.4 40.852C518.082 40.6689 518.085 40.6689 517.764 40.4857C517.721 39.6884 517.688 38.8641 517.578 38.0749C517.449 36.7146 517.317 35.6533 517.039 34.732L517.05 34.7401ZM525.002 42.9531C523.797 42.7322 522.577 42.91 521.377 42.5868C520.615 42.4305 519.912 42.0938 519.181 41.8406C520.526 41.5443 523.159 40.5504 524.627 40.677C524.627 40.7227 524.635 40.7685 524.649 40.8116C524.754 41.5282 524.889 42.2393 524.999 42.9531H525.002ZM517.397 42.2177C517.605 42.2447 517.81 42.207 518.015 42.1504C518.812 42.3363 519.561 42.6757 520.329 42.9639C521.156 43.2548 522.016 43.4433 522.892 43.5242C523.466 43.5969 524.056 43.5888 524.619 43.7262C521.752 44.2218 518.877 43.6912 516.004 43.2871C516.546 43.0016 517.09 42.6595 517.395 42.2177H517.397ZM505.891 44.4616C507.144 44.203 508.416 44.0171 509.696 43.9524C510.24 43.9255 510.785 43.9174 511.332 43.9255C511.345 43.9255 511.359 43.9255 511.37 43.9255C511.38 43.9174 511.391 43.9174 511.402 43.9174C511.453 43.9174 511.502 43.912 511.553 43.9174C511.607 43.9174 511.661 43.9309 511.712 43.9363C511.728 43.9363 511.744 43.9363 511.763 43.9363C511.763 43.9363 511.758 43.9363 511.758 43.939C511.785 43.939 511.814 43.939 511.844 43.939C511.855 43.939 511.868 43.939 511.879 43.9363C511.898 43.9363 511.917 43.9336 511.935 43.9336C511.976 43.9336 512.014 43.9336 512.057 43.9417C512.078 43.9417 512.097 43.9471 512.119 43.9498C512.119 43.9498 512.121 43.9498 512.124 43.9498C512.229 43.9659 512.332 43.9848 512.437 44.0009C512.437 44.0009 512.442 44.0009 512.445 44.0009C512.445 44.0009 512.466 44.0009 512.48 44.0036H512.474C512.474 44.0036 512.491 44.0036 512.501 44.0063C512.499 44.0063 512.493 44.0063 512.488 44.0036C512.625 44.0198 512.763 44.0252 512.903 44.0252C512.97 44.0252 513.038 44.0252 513.102 44.0252C513.178 44.0252 513.253 44.0252 513.329 44.0252C513.366 44.0252 513.407 44.0252 513.444 44.0252C513.687 44.0225 513.927 44.0171 514.169 44.0306C514.231 44.0306 514.296 44.0386 514.358 44.0467C514.374 44.0467 514.39 44.0494 514.406 44.0521C514.476 44.0602 514.544 44.071 514.611 44.0791C514.754 44.1006 514.894 44.1248 515.034 44.1518C515.188 44.1814 515.339 44.2218 515.492 44.2676C515.511 44.273 515.53 44.2784 515.546 44.2838C515.767 44.3161 515.988 44.3484 516.209 44.3834C518.95 44.8117 521.86 45.2508 524.563 44.4131C524.73 44.3538 525.112 44.2218 525.32 44.0521C525.366 44.0979 525.417 44.1356 525.473 44.1679C525.972 45.0865 526.629 45.9646 527.597 46.3821C527.651 46.4091 527.713 46.4306 527.775 46.4468C524.743 48.7418 521.178 48.8037 517.403 48.2569C515.099 47.8852 512.822 47.4219 510.626 46.6677C510.585 46.6596 510.545 46.6515 510.505 46.6434C510.513 46.6434 510.518 46.6434 510.526 46.6434C510.443 46.6273 510.362 46.6057 510.281 46.5788C510.13 46.5303 509.982 46.4683 509.828 46.4145C509.739 46.3821 509.656 46.3444 509.57 46.304C509.483 46.2663 509.405 46.2178 509.322 46.1747C509.249 46.1397 509.176 46.1047 509.101 46.067C509.101 46.067 509.106 46.0697 509.109 46.0724C509.087 46.0589 509.063 46.0508 509.039 46.0427C508.974 46.0185 508.907 46.005 508.839 45.9781C508.818 45.97 508.793 45.9619 508.775 45.9485C508.602 45.873 508.43 45.7949 508.257 45.7141C507.457 45.3154 506.673 44.8898 505.894 44.4562L505.891 44.4616ZM499.764 85.5776C500.047 84.0799 500.305 82.5769 500.553 81.0711C502.536 81.3836 504.463 81.995 506.471 82.2348C507.371 82.4018 510.946 82.5499 511.017 83.0321C511.275 84.7857 510.542 89.4403 510.014 90.0491C509.252 90.9272 504.048 89.1817 502 88.0288C501.337 87.684 500.607 87.3743 500.09 86.814C499.95 86.6254 499.855 86.418 499.788 86.2025C499.726 86.0005 499.726 85.785 499.764 85.5776ZM499.168 121.406C499.122 121.393 499.079 121.382 499.036 121.374C498.643 121.182 498.279 120.878 498.179 120.434C498.093 118.413 498.279 116.393 498.457 114.384C498.462 114.265 498.476 114.155 498.505 114.042C498.505 113.958 498.43 113.899 498.352 113.907C498.247 113.915 498.22 114.039 498.206 114.122C498.09 115.348 497.379 117.207 497.169 118.874C497.142 118.85 497.112 118.828 497.085 118.804C495.716 117.083 498.344 109.379 498.001 106.82C497.991 106.769 498.147 105.395 498.222 104.773C498.511 101.885 498.759 98.9947 499.157 96.1206C499.435 93.971 499.721 91.8242 499.931 89.6693C499.971 89.1386 500.028 88.6026 500.044 88.0692C500.507 88.3952 501.027 88.6484 501.531 88.8989C503.687 90.1245 506.064 90.6228 508.465 91.1104C508.392 91.4659 508.368 91.835 508.279 92.1878C507.255 96.6189 506.336 101.131 505.786 105.656C505.67 106.847 505.716 108.045 505.91 109.225C506.328 111.076 506.813 112.932 506.64 114.85C506.565 115.483 506.522 116.129 506.419 116.765L506.433 117.018C506.455 117.169 506.468 117.32 506.463 117.468C506.463 117.503 506.46 117.541 506.457 117.576C506.463 117.697 506.468 117.818 506.471 117.939C506.492 117.95 506.514 117.963 506.533 117.977C506.565 117.999 506.589 118.028 506.613 118.055C506.5 119.542 506.258 121.045 505.417 121.075C505.441 120.964 505.369 120.886 505.282 120.862C505.282 120.84 505.285 120.821 505.288 120.8C505.342 120.619 505.417 120.452 505.501 120.285C505.498 120.237 505.495 120.191 505.493 120.143C505.493 120.097 505.49 120.051 505.49 120.005C505.468 119.93 505.449 119.854 505.431 119.779C505.385 119.601 505.35 119.421 505.32 119.24C505.32 119.24 505.32 119.238 505.32 119.235C505.304 119.127 505.293 119.022 505.288 118.914C505.28 118.788 505.309 118.664 505.336 118.543C505.342 118.521 505.35 118.5 505.358 118.478C505.358 118.446 505.358 118.413 505.358 118.381C505.358 118.346 505.358 118.311 505.358 118.276C504.951 117.069 504.323 115.919 504.186 114.645C504.272 114.559 504.213 114.394 504.089 114.392C503.628 114.338 503.895 116.056 503.892 116.39C503.962 117.349 504.242 118.246 504.587 119.143C504.676 119.318 504.727 119.537 504.805 119.733C503.938 121.018 504.261 122.809 504.037 124.294C504.01 124.469 503.878 124.598 503.765 124.725C503.763 124.727 503.76 124.733 503.757 124.735C503.757 124.735 503.754 124.735 503.752 124.733C503.569 124.63 503.294 124.722 503.154 124.547C503.043 123.83 503.178 123.23 503.135 122.448C503.097 121.04 502.946 119.642 502.825 118.238C502.809 117.977 502.784 117.713 502.787 117.452C502.806 117.333 502.706 117.225 502.588 117.225C502.469 117.225 502.369 117.336 502.388 117.452C502.399 118.203 502.351 118.952 502.251 119.698C502.148 120.66 501.593 122.448 501.698 123.787C501.426 123.639 501.17 123.472 500.936 123.265C500.427 122.842 500.524 122.176 500.526 121.589C500.507 120.172 500.529 118.755 500.594 117.341C500.626 116.859 500.599 116.377 500.629 115.897C500.661 115.787 500.599 115.66 500.48 115.631C500.09 115.585 500.208 116.129 500.152 116.377C500.098 116.959 499.947 117.519 499.801 118.082C499.564 119.022 499.233 120.253 499.163 121.406H499.168ZM540.377 153.792C541.094 154.196 541.722 154.611 542.471 155.058C543.051 155.47 543.889 155.626 544.33 156.187C543.53 156.876 541.256 155.694 540.286 155.448C539.486 155.163 538.688 154.869 537.901 154.541C537.475 154.366 536.988 154.142 536.971 153.614C536.864 152.679 536.918 151.729 536.772 150.797C537.586 151.025 538.437 151.176 539.259 151.287C539.248 151.335 539.03 152.601 539.24 152.86C539.526 153.275 539.938 153.563 540.377 153.795V153.792ZM534.153 79.0562C533.932 80.3842 533.719 81.7149 533.485 83.0402C533.452 83.1883 533.458 83.1964 533.433 83.323C533.123 85.0389 532.776 86.7466 532.323 88.4329C532.132 89.1359 531.916 89.8417 531.676 90.5393C531.631 90.6659 531.639 90.8033 531.69 90.9218C530.45 90.5205 529.197 90.1487 527.915 89.9144C525.961 89.5561 524.099 88.8612 522.199 88.309C521.227 88.0208 520.251 87.7487 519.259 87.5601C519.006 87.4659 518.75 87.3743 518.494 87.2854C516.875 86.7305 515.156 86.7682 513.477 86.8813C513.186 86.8679 512.213 86.6766 512.38 87.2153H512.375C512.542 87.5386 512.876 87.6948 513.178 87.8645C513.431 88.0396 513.692 88.1958 513.991 88.2766C514.727 88.5083 515.495 88.3063 516.241 88.2578C517.373 88.177 518.642 88.3736 519.728 88.775C521.267 89.2841 522.816 89.7959 524.374 90.2888C525.039 90.5393 525.708 90.7764 526.392 90.9676C526.912 91.0888 527.438 91.2235 527.966 91.3663C528.036 91.3851 528.103 91.4067 528.173 91.4255C528.2 91.4309 528.227 91.4363 528.254 91.4444C529.925 91.905 531.614 92.4545 533.226 93.0202C535.845 93.8552 538.359 94.9246 540.722 96.3334C542.711 97.4189 544.743 98.4264 546.594 99.7436C547.777 100.484 548.938 101.257 550.086 102.055C551.245 102.812 552.468 103.461 553.576 104.296C554.794 105.225 555.672 106.524 556.855 107.491C559.628 109.602 559.24 112.288 558.658 115.353C556.677 124.135 552.587 132.283 548.273 140.124C547.136 142.004 545.85 143.788 544.584 145.582C543.81 146.713 542.956 147.796 542.283 148.992C542.161 149.218 542.18 149.493 542.304 149.708C542.167 149.835 542.029 149.956 541.895 150.026C540.995 150.309 540.011 149.924 539.103 149.789C537.764 149.52 536.387 149.18 535.282 148.337C534.632 147.842 534.228 146.993 534.363 146.18C534.622 144.305 535.109 142.522 535.603 140.695C536.874 136.167 538.222 131.663 539.847 127.249C540.946 124.129 542.037 120.98 542.46 117.686C542.579 116.487 542.865 115.184 542.39 114.033C542.169 113.543 541.657 113.322 541.156 113.25C540.48 113.134 539.793 113.056 539.116 112.945C537.675 112.757 536.225 112.6 534.781 112.415C533.196 112.21 531.628 111.895 530.052 111.636C530.041 111.636 530.027 111.633 530.017 111.631C529.585 111.515 529.154 111.399 528.723 111.289C526.796 110.852 524.854 110.505 522.938 110.015C519.408 109.109 515.77 107.87 512.256 106.817C511.744 106.672 511.229 106.529 510.704 106.435C510.548 106.402 510.329 106.381 510.214 106.518C510.098 106.647 510.176 106.868 510.337 106.903C511.1 107.321 511.82 107.83 512.547 108.312C513.485 108.872 514.485 109.32 515.468 109.796C517.683 110.685 519.952 111.477 522.259 112.118C522 112.827 521.765 113.546 521.582 114.279C520.763 117.234 519.804 120.151 518.933 123.092C517.567 127.249 516.524 131.491 515.724 135.793C515.094 138.643 515.393 141.584 515.002 144.461C514.293 149.029 513.345 153.563 512.356 158.08C511.701 160.917 511.097 163.758 510.451 166.598C509.669 169.625 509.222 172.809 507.398 175.441C506.667 176.731 505.447 177.674 503.967 177.916C503.073 178 502.197 177.717 501.327 177.558C501.178 177.426 501.027 177.273 500.96 177.084C500.626 176.209 500.494 175.274 500.354 174.353C499.809 169.687 500.515 165.016 500.831 160.364C501.389 150.021 501.507 139.637 500.72 129.304C500.553 127.677 500.437 126.047 500.346 124.418C500.648 124.598 501.014 124.73 501.464 124.795C501.653 124.8 501.798 124.708 501.89 124.576C502.108 125.107 502.542 125.463 503.323 125.49C503.474 125.495 503.62 125.484 503.765 125.425C503.8 125.411 503.83 125.39 503.854 125.368C503.903 125.398 503.957 125.422 504.019 125.43C504.749 125.382 505.14 124.576 505.129 123.914C505.188 123.17 505.193 122.424 505.234 121.681C505.296 121.732 505.363 121.772 505.433 121.799C505.802 121.915 506.166 121.71 506.463 121.503C506.953 121.161 507.061 120.522 507.107 119.965C507.198 119.124 507.239 118.279 507.271 117.436C507.33 117.15 507.376 116.859 507.408 116.568C507.74 114.281 507.678 111.938 507.12 109.691C506.775 107.736 506.797 105.715 507.112 103.736C507.468 99.52 508.799 95.4229 508.872 91.1831C509.23 91.2558 509.588 91.3286 509.947 91.4067C509.958 91.4067 509.968 91.4067 509.976 91.4067C510.685 91.4067 510.903 90.5932 511.011 90.0221C511.299 88.6107 511.566 87.1911 511.814 85.7689C511.954 84.7372 512.221 83.6947 512.213 82.655C512.062 82.2348 511.741 81.9546 511.353 81.758C511.868 79.2421 512.469 76.7397 513.108 74.2534C514.317 69.8062 515.956 65.5179 517.589 61.2027C518.044 60.0174 518.365 58.7891 518.672 57.5581C518.707 57.4127 518.745 57.2672 518.783 57.1218C519.537 56.4349 520.1 55.5541 520.397 54.5736C520.445 54.4092 520.378 54.2261 520.232 54.1345C519.777 53.8948 519.494 54.5278 519.181 54.7567C519.092 54.8321 519.009 54.9103 518.931 54.9938C518.933 54.9561 518.941 54.9183 518.941 54.8806C518.906 54.0725 519.044 53.2806 519.079 52.4698C519.079 52.0711 518.505 51.9796 518.4 52.3648C518.4 52.3648 518.4 52.3648 518.397 52.3648C518.006 53.3102 518.09 54.3688 517.804 55.3493C517.75 55.5837 517.697 55.8315 517.645 56.082C517.637 56.0901 517.627 56.0955 517.618 56.1009C517.605 56.1116 517.591 56.1224 517.575 56.1359C517.389 56.8255 517.203 57.5123 517.004 58.1965C516.797 58.9077 516.535 59.6026 516.293 60.3003C515.999 61.1515 515.767 62.0215 515.509 62.8835C515.449 63.0828 515.387 63.2795 515.323 63.4788C515.296 63.5596 515.269 63.6377 515.242 63.7185C515.166 63.9421 515.088 64.1684 515.002 64.3893C514.994 64.4108 514.986 64.4351 514.978 64.4566C514.703 65.1516 512.889 70.5712 512.663 71.4386C512.442 72.279 512.218 73.1194 512 73.9625C511.76 74.8999 511.515 75.8373 511.27 76.772C511.13 77.3081 510.99 77.8441 510.841 78.3774C510.68 78.9566 510.278 81.0738 510.211 81.4078C510.065 81.3782 506.357 80.9822 504.77 80.6482C503.477 80.4165 502.113 80.0556 500.766 79.9478C500.761 79.9425 500.755 79.9398 500.75 79.9344C502.113 71.417 503.175 62.8215 506.147 54.6894C507.047 52.1304 507.815 49.3155 509.623 47.2603C512.302 48.2731 515.142 48.8819 517.99 49.1889C517.996 49.1889 518.001 49.1889 518.006 49.1889C518.138 49.1916 518.268 49.1997 518.4 49.2105C518.537 49.2213 518.675 49.2374 518.812 49.2509C518.804 49.2509 518.799 49.2509 518.791 49.2482C518.871 49.2563 518.952 49.2644 519.033 49.2697H519.028C519.216 49.2805 519.405 49.2886 519.594 49.2967C519.672 49.2994 519.75 49.3074 519.828 49.3182C519.92 49.3317 520.014 49.3371 520.108 49.3398C520.205 49.3425 520.302 49.3452 520.402 49.3479C520.464 49.3505 520.523 49.3559 520.585 49.3586H520.593C523.544 49.3586 526.311 48.5667 528.489 46.4576C528.508 46.4602 528.529 46.4656 528.548 46.4656C528.901 46.4656 529.197 46.0616 529.426 45.6979C530.841 47.729 531.728 50.0886 532.62 52.3863C533.757 55.2281 534.306 58.2666 534.6 61.305C534.835 63.4626 534.959 65.5314 534.864 67.7213C534.87 71.5086 534.918 75.3174 534.166 79.0482L534.153 79.0562ZM536.287 75.1343C536.511 73.378 536.54 67.5651 536.551 66.8917C536.54 65.8465 536.508 64.796 536.449 63.7482C536.459 63.7643 536.47 63.7832 536.481 63.7993C536.864 64.3058 537.238 64.8229 537.607 65.3374C537.591 65.3455 537.575 65.3482 537.562 65.359C537.588 65.3913 537.615 65.4236 537.64 65.4586C537.747 65.596 537.858 65.728 537.966 65.8654C538.216 66.1752 538.47 66.4849 538.718 66.7947C539.181 67.3792 539.69 67.926 540.202 68.4675C540.307 68.5806 540.412 68.6937 540.515 68.8096C540.507 68.8015 540.501 68.7961 540.496 68.788C540.631 68.9362 540.757 69.0897 540.879 69.2486C540.935 69.3267 541.744 70.1321 541.407 70.4123C541.267 70.5631 541.124 70.714 540.968 70.846C540.957 70.8567 540.946 70.8648 540.933 70.8729C540.779 71.0291 540.628 71.1854 540.474 71.3416C539.184 72.7315 538.381 74.4851 537.357 76.069C536.68 77.1815 536.034 78.3155 535.403 79.4576C535.751 78.0273 536.096 76.5942 536.284 75.1343H536.287ZM539.814 84.8719C539.712 84.8449 536.794 82.9082 535.788 82.0758C535.247 81.626 535.117 80.8529 535.479 80.2522C536.54 78.4879 538.831 75.7727 539.876 74.1646C540.442 73.2756 543.355 69.984 543.377 69.9436C543.53 69.9059 543.686 69.9005 543.851 69.9705C544.15 70.0729 544.36 70.4069 544.595 70.617C545.195 71.2662 547.815 74.0299 548.394 74.776C548.647 75.1046 548.752 75.5249 548.672 75.9316C548.572 76.4326 548.372 76.9094 548.372 76.9094C548.362 76.9363 548.351 76.966 548.34 76.9929C548.308 77.0737 548.273 77.1518 548.232 77.2299C548.227 77.2407 548.222 77.2515 548.216 77.2623C548.208 77.2811 548.197 77.2973 548.187 77.3134C548.187 77.3161 548.181 77.3215 548.181 77.3242C548.149 77.4077 547.839 77.8818 547.715 78.0165C547.68 78.0569 544.452 81.3405 543.87 81.8442C543.339 82.3075 540.836 85.3109 539.82 84.8719H539.814ZM563.538 96.9395C563.269 97.0095 563.22 97.392 562.905 97.3866C562.875 97.3866 562.843 97.3785 562.816 97.3624C562.595 97.0957 562.598 96.6997 562.492 96.3792C562.382 95.7462 562.026 95.2209 561.614 94.7414C562.056 94.9084 562.482 95.1159 562.899 95.3421C563.212 95.8351 563.476 96.3415 563.624 96.9341C563.595 96.9341 563.568 96.9341 563.538 96.9422V96.9395ZM564.252 99.6439C564.12 98.7577 564.629 97.9119 564.521 97.0364C564.411 96.662 564.236 96.3092 564.026 95.9724C564.249 96.099 564.473 96.2283 564.699 96.3469C565.015 96.5893 565.281 96.8802 565.513 97.1981C565.281 98.0789 564.915 99.0136 564.252 99.6466V99.6439ZM567.747 99.59C567.119 98.4506 566.906 97.0714 565.958 96.1179C565.4 95.4714 564.635 95.0997 563.888 94.7118C562.845 94.1569 561.665 93.5185 560.447 93.7717C559.372 94.0842 559.695 95.4391 559.994 96.2229C560.399 97.3193 561.415 98.2405 561.423 99.4526C561.423 99.4688 561.417 99.485 561.415 99.5011C559.442 98.7631 558.504 96.6189 556.64 95.6977C551.134 94.4613 543.439 86.7978 541.989 85.5453C543.013 84.7291 544.5 83.3419 545.266 82.6577C546.082 81.9142 548.475 78.9485 548.529 78.935C548.529 78.935 548.529 78.935 548.531 78.935C548.537 78.935 548.54 78.935 548.545 78.935C548.545 78.935 548.548 78.935 548.55 78.935C548.591 78.9296 548.626 78.9431 548.658 78.9647C548.79 79.0293 548.906 79.1371 549.017 79.2313C549.13 79.3283 549.237 79.4334 549.343 79.5384C549.59 79.7835 549.841 80.0233 550.094 80.263C550.146 80.3115 550.197 80.36 550.251 80.4058C550.251 80.4058 550.251 80.4058 550.248 80.4058C550.253 80.4085 550.256 80.4138 550.261 80.4192C550.286 80.4408 550.307 80.4596 550.331 80.4812C550.331 80.4812 550.331 80.4812 550.329 80.4812C550.334 80.4866 550.337 80.4893 550.342 80.4947C550.345 80.4974 550.35 80.5 550.353 80.5054C550.426 80.5701 550.499 80.6347 550.571 80.6994C550.563 80.6913 550.552 80.6832 550.542 80.6724C551.102 81.1735 551.644 81.696 552.188 82.2132C552.439 82.4529 552.692 82.6927 552.959 82.9163C553.236 83.1533 553.517 83.3876 553.794 83.6274C553.87 83.692 553.945 83.7567 554.02 83.8213C554.004 83.8079 553.991 83.7944 553.975 83.7836C554.02 83.8213 554.066 83.8617 554.112 83.8995C554.126 83.9102 554.136 83.921 554.15 83.9318L554.126 83.9102C554.126 83.9102 554.142 83.9237 554.15 83.9291C554.161 83.9372 554.171 83.9479 554.182 83.956C554.546 84.2604 554.915 84.5567 555.276 84.8638C555.659 85.1897 556.055 85.4995 556.44 85.8227L556.392 85.7823C556.429 85.8146 556.47 85.847 556.508 85.8766C556.518 85.8847 556.526 85.8928 556.537 85.9008C556.537 85.9008 556.543 85.9035 556.543 85.9062C556.556 85.917 556.567 85.9278 556.578 85.9359C556.591 85.9466 556.602 85.9547 556.615 85.9655C556.623 85.9736 556.632 85.979 556.642 85.987C556.634 85.9817 556.629 85.9763 556.621 85.9709C556.672 86.0113 556.72 86.0544 556.772 86.0948C556.78 86.1002 556.788 86.1083 556.796 86.1136C556.796 86.1136 556.799 86.1136 556.801 86.1163C556.804 86.119 556.807 86.1217 556.809 86.1244C556.815 86.1298 556.823 86.1352 556.828 86.1379C557.391 86.5931 557.949 87.0537 558.496 87.5224C558.596 87.6059 558.693 87.6921 558.793 87.7756C559.245 88.1581 559.698 88.5352 560.164 88.9043C560.342 89.047 560.523 89.1871 560.703 89.3218C560.765 89.3649 560.824 89.408 560.886 89.4511C560.878 89.4457 560.873 89.4403 560.865 89.4349C561.159 89.6316 561.452 89.8228 561.751 90.006C562.056 90.1918 562.366 90.3669 562.678 90.542C562.827 90.6255 562.975 90.709 563.123 90.7952C563.877 91.1292 564.632 91.4606 565.343 91.8942C566.497 92.6916 567.736 93.7098 567.812 95.2263C567.928 96.1421 567.938 97.0634 567.971 97.9846C567.944 98.4641 568.068 99.1537 567.744 99.5927L567.747 99.59ZM517.57 29.6787C517.438 29.369 517.088 29.2154 516.756 29.2908C516.64 29.3232 516.519 29.3016 516.4 29.2855C515.29 28.8895 513.986 27.2248 514.805 26.1312C514.854 26.0881 514.959 25.9965 515.04 26.01C515.438 26.0558 515.49 25.4766 515.088 25.4605C514.288 25.3312 513.644 26.0585 513.466 26.7561C513.07 28.0814 513.789 29.5737 514.945 30.3333C515.239 30.5407 515.791 30.6916 516.317 30.7023C516.344 30.7023 516.368 30.7023 516.392 30.7023C516.573 30.7023 516.748 30.6862 516.904 30.6485C517.311 30.5515 517.61 30.3252 517.6 29.905C517.6 29.835 517.586 29.7595 517.567 29.6787H517.57Z" fill="#010101"/>
</g>
<defs>
<clipPath id="clip0_884_23548">
<rect width="673" height="401" fill="white"/>
</clipPath>
</defs>
</svg>
