<svg width="304" height="258" viewBox="0 0 304 258" fill="none" xmlns="http://www.w3.org/2000/svg">
<g clip-path="url(#clip0_884_23690)">
<path d="M302.36 85.3177C302.331 84.9867 302.314 84.6557 302.298 84.3229C302.279 84.0439 302.262 83.8446 301.932 83.8186C301.638 83.7493 301.308 83.8082 301.031 83.6921C298.189 83.543 295.339 83.5916 292.492 83.5309C290.429 83.5448 288.356 83.595 286.296 83.5517C285.448 83.4997 284.633 83.4425 283.791 83.4685C281.28 83.6193 278.768 83.647 276.255 83.6384C271.307 83.7631 266.357 83.8775 261.409 83.8533C260.223 83.8481 259.046 83.9642 257.864 84.0422C257.284 84.0716 256.698 84.056 256.124 84.1704C255.975 84.2207 255.764 84.2241 255.684 84.3766C255.509 85.3714 255.597 86.3541 255.722 87.3419C255.738 87.9121 255.766 88.4806 255.818 89.049C255.833 89.7769 255.748 90.5031 255.824 91.231C255.961 92.4025 255.766 92.3142 256.97 92.6088C258.024 92.7838 259.098 92.7752 260.163 92.7509C262.17 92.7474 264.173 92.7336 266.179 92.7578C268.702 92.8133 271.22 92.7578 273.74 92.64C276.264 92.6122 278.789 92.5914 281.309 92.4303C284.829 92.2916 288.351 92.1703 291.869 91.9849C293.819 91.9363 295.767 91.8861 297.717 91.8843C299.397 91.8116 301.093 91.9381 302.752 91.6227C302.932 91.0178 302.87 90.3696 302.858 89.7457C302.875 88.2501 302.482 86.7978 302.362 85.3125L302.36 85.3177Z" fill="#C0CAE8"/>
<path d="M262.704 105.986C262.744 104.6 262.491 103.236 262.512 101.85C261.931 101.569 261.155 101.73 260.58 101.751C259.836 101.78 259.096 101.858 258.354 101.919C257.841 101.959 257.328 101.94 256.815 101.9C255.397 101.827 253.978 101.903 252.56 101.869C248.567 101.912 244.574 101.753 240.582 101.851C237.61 101.836 234.644 102.123 231.672 102.013C226.604 102.071 221.522 101.366 216.475 102.023C216.678 102.619 216.51 103.285 216.513 103.905C216.508 105.513 216.34 107.111 216.307 108.72C216.292 109.09 216.288 109.465 216.272 109.837C216.257 110.428 216.158 111.066 216.48 111.596C217.087 111.74 217.73 111.695 218.351 111.693C220.819 111.532 223.287 111.574 225.758 111.609C227.743 111.501 229.731 111.518 231.715 111.434C234.225 111.392 236.736 111.364 239.246 111.382C241.799 111.522 244.353 111.586 246.91 111.577C248.903 111.541 250.896 111.463 252.891 111.458C255.262 111.499 257.63 111.534 260.001 111.44C261.022 111.447 262.044 111.397 263.051 111.212C262.874 109.472 262.548 107.74 262.704 105.986Z" fill="#C0CAE8"/>
<path d="M303.855 88.4408C303.719 87.4824 303.402 86.5552 303.262 85.5968C303.071 83.8828 303.213 82.8932 301.087 83.0647C299.263 82.7389 297.416 82.7095 295.563 82.6869C293.898 82.6731 292.232 82.6419 290.565 82.6661C289.097 82.6627 287.627 82.7355 286.159 82.6973C284.831 82.6003 283.488 82.6349 282.159 82.7389C279.689 82.9434 277.212 82.7771 274.739 82.8654C269.792 82.992 264.842 82.9174 259.899 83.1046C259.109 83.1618 258.322 83.2571 257.53 83.2952C256.755 83.3715 255.58 83.2554 255.034 83.8949C254.651 84.4512 254.724 85.186 254.65 85.829C254.622 86.9486 254.747 88.0681 254.705 89.1912C254.613 90.2224 254.547 91.2691 254.818 92.283C254.87 92.5689 254.969 92.8584 255.18 93.0663C256.882 94.3644 260.229 93.8289 262.324 93.9589C265.349 93.9589 268.373 93.8393 271.396 93.7786C273.394 93.7457 275.392 93.8081 277.391 93.7422C279.944 93.6989 282.488 93.4753 285.037 93.3332C287.043 93.1928 289.055 93.1894 291.06 93.0351C293.506 92.9017 295.948 92.7509 298.397 92.8046C300.04 92.7457 301.782 93.0005 303.35 92.4216C304.087 91.8549 303.915 90.6903 303.921 89.8619C303.898 89.3905 303.905 88.9156 303.853 88.4442L303.855 88.4408ZM302.751 91.6279C301.092 91.9433 299.393 91.8168 297.716 91.8896C295.766 91.8896 293.818 91.9398 291.868 91.9901C288.35 92.1755 284.83 92.2968 281.308 92.4355C278.788 92.5984 276.262 92.6175 273.739 92.6452C271.219 92.7631 268.699 92.8185 266.177 92.763C264.172 92.7388 262.166 92.7527 260.161 92.7561C259.097 92.7804 258.022 92.789 256.969 92.614C255.764 92.3194 255.96 92.406 255.823 91.2362C255.748 90.5083 255.833 89.7821 255.816 89.0543C255.766 88.4858 255.736 87.9174 255.721 87.3472C255.596 86.3593 255.508 85.3749 255.683 84.3819C255.762 84.2276 255.974 84.2259 256.123 84.1756C256.697 84.0613 257.282 84.0769 257.863 84.0474C259.045 83.9694 260.222 83.8533 261.407 83.8585C266.357 83.8828 271.307 83.7684 276.254 83.6436C278.769 83.6523 281.28 83.6245 283.79 83.4737C284.632 83.4477 285.448 83.5049 286.294 83.5569C288.353 83.6003 290.428 83.55 292.49 83.5361C295.336 83.5985 298.187 83.5483 301.03 83.6973C301.307 83.8134 301.638 83.7528 301.931 83.8238C302.26 83.8498 302.277 84.0491 302.297 84.3282C302.312 84.6609 302.329 84.9919 302.359 85.3229C302.479 86.8082 302.872 88.2605 302.855 89.7562C302.867 90.3801 302.929 91.0265 302.749 91.6331L302.751 91.6279Z" fill="#010101"/>
<path d="M263.729 109.063C263.461 107.349 263.743 105.61 263.65 103.888C263.54 103.11 263.793 102.153 263.506 101.389C262.83 100.352 261.393 100.631 260.332 100.688C259.594 100.714 258.859 100.805 258.124 100.869C256.596 100.883 255.065 100.775 253.535 100.827C247.55 100.863 241.565 100.668 235.589 101.039C233.147 101.136 230.698 101.13 228.258 101.002C227.078 101.006 225.915 100.997 224.736 100.926C221.935 100.914 219.093 100.657 216.329 101.241C215.959 101.34 215.68 101.629 215.682 102.023C215.677 102.144 215.744 102.255 215.842 102.321C215.282 104.56 215.166 106.924 215.115 109.238C215.11 110.317 214.9 111.498 215.64 112.408C216.251 112.992 217.197 112.853 217.973 112.896C219.381 112.881 220.785 112.751 222.194 112.778C223.712 112.752 225.23 112.848 226.747 112.754C227.891 112.659 229.055 112.655 230.203 112.591C231.201 112.503 232.34 112.437 233.369 112.413C237.641 112.427 241.915 112.323 246.188 112.425C249.157 112.451 252.126 112.375 255.096 112.394C256.576 112.409 258.053 112.388 259.533 112.343C260.247 112.343 260.958 112.388 261.672 112.345C262.284 112.352 262.889 112.257 263.471 112.07C263.97 111.922 263.949 111.466 263.891 111.044C263.88 110.382 263.842 109.72 263.731 109.066L263.729 109.063ZM260.001 111.442C257.632 111.536 255.263 111.501 252.892 111.46C250.897 111.466 248.904 111.543 246.911 111.579C244.352 111.588 241.799 111.522 239.246 111.383C236.737 111.366 234.225 111.394 231.716 111.435C229.731 111.52 227.743 111.503 225.759 111.61C223.287 111.576 220.819 111.536 218.351 111.695C217.731 111.699 217.088 111.744 216.481 111.598C216.159 111.068 216.257 110.428 216.273 109.839C216.289 109.466 216.292 109.094 216.308 108.721C216.342 107.113 216.509 105.513 216.514 103.907C216.512 103.286 216.679 102.621 216.476 102.025C221.523 101.37 226.605 102.075 231.672 102.014C234.645 102.125 237.61 101.837 240.583 101.853C244.574 101.753 248.567 101.914 252.561 101.87C253.978 101.907 255.398 101.831 256.816 101.902C257.329 101.941 257.842 101.961 258.355 101.921C259.097 101.86 259.837 101.782 260.58 101.753C261.154 101.732 261.932 101.569 262.513 101.851C262.492 103.238 262.745 104.6 262.705 105.988C262.549 107.744 262.873 109.475 263.052 111.213C262.046 111.399 261.024 111.449 260.001 111.442Z" fill="#010101"/>
<path d="M302.36 85.3177C302.331 84.9867 302.314 84.6557 302.298 84.3229C302.279 84.0439 302.262 83.8446 301.932 83.8186C301.638 83.7493 301.308 83.8082 301.031 83.6921C298.189 83.543 295.339 83.5916 292.492 83.5309C290.429 83.5448 288.356 83.595 286.296 83.5517C285.448 83.4997 284.633 83.4425 283.791 83.4685C281.28 83.6193 278.768 83.647 276.255 83.6384C271.307 83.7631 266.357 83.8775 261.409 83.8533C260.223 83.8481 259.046 83.9642 257.864 84.0422C257.284 84.0716 256.698 84.056 256.124 84.1704C255.975 84.2207 255.764 84.2241 255.684 84.3766C255.509 85.3714 255.597 86.3541 255.722 87.3419C255.738 87.9121 255.766 88.4806 255.818 89.049C255.833 89.7769 255.748 90.5031 255.824 91.231C255.961 92.4025 255.766 92.3142 256.97 92.6088C258.024 92.7838 259.098 92.7752 260.163 92.7509C262.17 92.7474 264.173 92.7336 266.179 92.7578C268.702 92.8133 271.22 92.7578 273.74 92.64C276.264 92.6122 278.789 92.5914 281.309 92.4303C284.829 92.2916 288.351 92.1703 291.869 91.9849C293.819 91.9363 295.767 91.8861 297.717 91.8843C299.397 91.8116 301.093 91.9381 302.752 91.6227C302.932 91.0178 302.87 90.3696 302.858 89.7457C302.875 88.2501 302.482 86.7978 302.362 85.3125L302.36 85.3177Z" fill="#C0CAE8"/>
<path d="M262.704 105.986C262.744 104.6 262.491 103.236 262.512 101.85C261.931 101.569 261.155 101.73 260.58 101.751C259.836 101.78 259.096 101.858 258.354 101.919C257.841 101.959 257.328 101.94 256.815 101.9C255.397 101.827 253.978 101.903 252.56 101.869C248.567 101.912 244.574 101.753 240.582 101.851C237.61 101.836 234.644 102.123 231.672 102.013C226.604 102.071 221.522 101.366 216.475 102.023C216.678 102.619 216.51 103.285 216.513 103.905C216.508 105.513 216.34 107.111 216.307 108.72C216.292 109.09 216.288 109.465 216.272 109.837C216.257 110.428 216.158 111.066 216.48 111.596C217.087 111.74 217.73 111.695 218.351 111.693C220.819 111.532 223.287 111.574 225.758 111.609C227.743 111.501 229.731 111.518 231.715 111.434C234.225 111.392 236.736 111.364 239.246 111.382C241.799 111.522 244.353 111.586 246.91 111.577C248.903 111.541 250.896 111.463 252.891 111.458C255.262 111.499 257.63 111.534 260.001 111.44C261.022 111.447 262.044 111.397 263.051 111.212C262.874 109.472 262.548 107.74 262.704 105.986Z" fill="#C0CAE8"/>
<path d="M303.855 88.4408C303.719 87.4824 303.402 86.5552 303.262 85.5968C303.071 83.8828 303.213 82.8932 301.087 83.0647C299.263 82.7389 297.416 82.7095 295.563 82.6869C293.898 82.6731 292.232 82.6419 290.565 82.6661C289.097 82.6627 287.627 82.7355 286.159 82.6973C284.831 82.6003 283.488 82.6349 282.159 82.7389C279.689 82.9434 277.212 82.7771 274.739 82.8654C269.792 82.992 264.842 82.9174 259.899 83.1046C259.109 83.1618 258.322 83.2571 257.53 83.2952C256.755 83.3715 255.58 83.2554 255.034 83.8949C254.651 84.4512 254.724 85.186 254.65 85.829C254.622 86.9486 254.747 88.0681 254.705 89.1912C254.613 90.2224 254.547 91.2691 254.818 92.283C254.87 92.5689 254.969 92.8584 255.18 93.0663C256.882 94.3644 260.229 93.8289 262.324 93.9589C265.349 93.9589 268.373 93.8393 271.396 93.7786C273.394 93.7457 275.392 93.8081 277.391 93.7422C279.944 93.6989 282.488 93.4753 285.037 93.3332C287.043 93.1928 289.055 93.1894 291.06 93.0351C293.506 92.9017 295.948 92.7509 298.397 92.8046C300.04 92.7457 301.782 93.0005 303.35 92.4216C304.087 91.8549 303.915 90.6903 303.921 89.8619C303.898 89.3905 303.905 88.9156 303.853 88.4442L303.855 88.4408ZM302.751 91.6279C301.092 91.9433 299.393 91.8168 297.716 91.8896C295.766 91.8896 293.818 91.9398 291.868 91.9901C288.35 92.1755 284.83 92.2968 281.308 92.4355C278.788 92.5984 276.262 92.6175 273.739 92.6452C271.219 92.7631 268.699 92.8185 266.177 92.763C264.172 92.7388 262.166 92.7527 260.161 92.7561C259.097 92.7804 258.022 92.789 256.969 92.614C255.764 92.3194 255.96 92.406 255.823 91.2362C255.748 90.5083 255.833 89.7821 255.816 89.0543C255.766 88.4858 255.736 87.9174 255.721 87.3472C255.596 86.3593 255.508 85.3749 255.683 84.3819C255.762 84.2276 255.974 84.2259 256.123 84.1756C256.697 84.0613 257.282 84.0769 257.863 84.0474C259.045 83.9694 260.222 83.8533 261.407 83.8585C266.357 83.8828 271.307 83.7684 276.254 83.6436C278.769 83.6523 281.28 83.6245 283.79 83.4737C284.632 83.4477 285.448 83.5049 286.294 83.5569C288.353 83.6003 290.428 83.55 292.49 83.5361C295.336 83.5985 298.187 83.5483 301.03 83.6973C301.307 83.8134 301.638 83.7528 301.931 83.8238C302.26 83.8498 302.277 84.0491 302.297 84.3282C302.312 84.6609 302.329 84.9919 302.359 85.3229C302.479 86.8082 302.872 88.2605 302.855 89.7562C302.867 90.3801 302.929 91.0265 302.749 91.6331L302.751 91.6279Z" fill="#010101"/>
<path d="M263.729 109.063C263.461 107.349 263.743 105.61 263.65 103.888C263.54 103.11 263.793 102.153 263.506 101.389C262.83 100.352 261.393 100.631 260.332 100.688C259.594 100.714 258.859 100.805 258.124 100.869C256.596 100.883 255.065 100.775 253.535 100.827C247.55 100.863 241.565 100.668 235.589 101.039C233.147 101.136 230.698 101.13 228.258 101.002C227.078 101.006 225.915 100.997 224.736 100.926C221.935 100.914 219.093 100.657 216.329 101.241C215.959 101.34 215.68 101.629 215.682 102.023C215.677 102.144 215.744 102.255 215.842 102.321C215.282 104.56 215.166 106.924 215.115 109.238C215.11 110.317 214.9 111.498 215.64 112.408C216.251 112.992 217.197 112.853 217.973 112.896C219.381 112.881 220.785 112.751 222.194 112.778C223.712 112.752 225.23 112.848 226.747 112.754C227.891 112.659 229.055 112.655 230.203 112.591C231.201 112.503 232.34 112.437 233.369 112.413C237.641 112.427 241.915 112.323 246.188 112.425C249.157 112.451 252.126 112.375 255.096 112.394C256.576 112.409 258.053 112.388 259.533 112.343C260.247 112.343 260.958 112.388 261.672 112.345C262.284 112.352 262.889 112.257 263.471 112.07C263.97 111.922 263.949 111.466 263.891 111.044C263.88 110.382 263.842 109.72 263.731 109.066L263.729 109.063ZM260.001 111.442C257.632 111.536 255.263 111.501 252.892 111.46C250.897 111.466 248.904 111.543 246.911 111.579C244.352 111.588 241.799 111.522 239.246 111.383C236.737 111.366 234.225 111.394 231.716 111.435C229.731 111.52 227.743 111.503 225.759 111.61C223.287 111.576 220.819 111.536 218.351 111.695C217.731 111.699 217.088 111.744 216.481 111.598C216.159 111.068 216.257 110.428 216.273 109.839C216.289 109.466 216.292 109.094 216.308 108.721C216.342 107.113 216.509 105.513 216.514 103.907C216.512 103.286 216.679 102.621 216.476 102.025C221.523 101.37 226.605 102.075 231.672 102.014C234.645 102.125 237.61 101.837 240.583 101.853C244.574 101.753 248.567 101.914 252.561 101.87C253.978 101.907 255.398 101.831 256.816 101.902C257.329 101.941 257.842 101.961 258.355 101.921C259.097 101.86 259.837 101.782 260.58 101.753C261.154 101.732 261.932 101.569 262.513 101.851C262.492 103.238 262.745 104.6 262.705 105.988C262.549 107.744 262.873 109.475 263.052 111.213C262.046 111.399 261.024 111.449 260.001 111.442Z" fill="#010101"/>
<path d="M209.349 124.205C209.352 124.215 209.354 124.224 209.356 124.235C209.354 124.226 209.35 124.215 209.349 124.205Z" fill="#010101"/>
<path d="M206.964 117.716C208.16 117.423 209.095 119.106 208.38 120.061C208.428 120.744 207.917 121.53 207.194 121.562C204.496 124.553 200.996 126.655 197.804 129.054C196.088 130.336 194.296 131.508 192.466 132.622C192.044 132.825 191.084 133.529 190.259 133.986C190.235 134.009 190.209 134.029 190.178 134.048C189.091 134.716 188.015 135.4 186.939 136.087C179.522 140.714 171.286 144.052 164.57 149.755C159.234 153.809 154.734 159.001 148.918 162.398C148.055 162.83 145.07 164.554 144.415 164.164C143.978 164.339 143.54 164.514 143.099 164.686C139.598 166.847 135.851 168.504 132 169.906C124.492 176.781 117.956 184.828 110.985 192.297C104.105 199.722 97.047 207.5 87.9218 212.174C81.6078 215.046 74.7981 216.637 68.0595 218.169C63.7318 219.254 59.3121 219.864 54.8665 220.191C50.31 220.619 45.7448 221.137 41.1605 220.931C40.956 220.924 40.7515 220.917 40.547 220.905C39.7583 221.007 38.9906 221.056 38.6768 221.156C37.6629 221.306 36.6456 221.437 35.6351 221.616C35.2486 221.661 34.7876 221.888 34.4132 221.692C22.0106 223.682 9.44499 225.078 -2.67861 228.472C-6.41016 229.411 -10.1174 230.451 -13.8039 231.555C-16.4713 232.309 -19.1612 233.236 -21.9048 233.707C-21.9863 233.759 -22.0851 233.794 -22.2012 233.803C-26.5515 235.149 -30.9642 236.259 -35.3942 237.304L-35.3976 237.307C-35.9973 237.746 -36.7755 237.881 -37.4775 238.099C-37.63 238.811 -38.5624 238.707 -39.1118 238.912C-40.4828 239.241 -41.8503 239.595 -43.2178 239.936C-48.965 241.33 -54.5926 243.288 -60.4508 244.175C-60.7662 244.583 -61.3919 244.518 -61.8443 244.676C-63.1944 244.998 -64.5463 245.316 -65.8999 245.621C-74.9922 247.777 -84.1954 249.423 -93.2894 251.565C-96.9776 252.473 -100.673 253.347 -104.373 254.201C-106.217 254.627 -108.063 255.05 -109.909 255.47C-115.28 256.608 -122.825 257.962 -127.426 257.139C-134.198 256.244 -115.02 171.405 -114.712 170.864C-114.488 170.623 -63.749 169.44 -59.8754 169.393C-56.3934 169.045 -52.9288 168.656 -49.504 167.949C-47.0758 167.473 -44.658 166.934 -42.2524 166.35C-41.9023 166.268 -41.521 166.019 -41.1899 166.258C-37.0771 164.618 -33.1029 162.776 -29.3038 160.518C-26.5879 158.885 -24.158 156.955 -21.7644 154.93C-21.5651 154.771 -21.3779 154.585 -21.1595 154.455C-20.8389 154.163 -20.5703 153.516 -20.0451 153.754C-19.9394 153.816 -19.8666 153.884 -19.8215 153.955C-19.435 153.558 -19.052 153.164 -18.6776 152.778C-17.0519 151.088 -15.4556 149.371 -13.7952 147.712C-7.86777 141.856 -1.36833 136.456 6.03929 132.572C11.9234 129.565 18.2912 127.702 24.7629 126.465C27.1391 125.957 29.517 125.466 31.9122 125.054C33.0561 124.86 34.2035 124.666 35.3561 124.523C35.6178 124.503 35.9297 124.402 36.1724 124.487C36.2608 124.361 36.4046 124.272 36.5693 124.253C37.351 124.161 38.1326 124.071 38.9126 123.981C41.5522 123.725 44.1676 123.272 46.7171 122.532C50.0795 121.576 53.3101 120.218 56.5997 119.047C59.8927 117.868 63.191 116.711 66.4424 115.416C74.6387 112.035 82.8748 108.65 91.532 106.622C92.5823 106.406 93.6465 106.25 94.7141 106.158C94.8112 106.151 94.9256 106.139 95.0434 106.129C95.4386 105.914 96.1925 106.033 96.5912 106.021C97.3867 106.021 102.364 106.571 101.907 107.766C102.637 108.335 103.338 108.955 103.914 109.681C105.306 111.702 105.826 114.222 105.912 116.657C106.028 116.745 106.11 116.881 106.117 117.033C106.167 117.993 106.184 118.952 106.04 119.905C105.878 120.856 105.503 121.759 105.157 122.655C104.151 125.272 102.645 127.64 100.943 129.854C99.6606 131.613 98.0661 133.237 96.3658 134.572C94.903 135.776 93.2409 136.695 91.6013 137.636C89.1194 139.109 86.5664 140.473 83.8419 141.449C78.8746 143.26 73.6802 144.241 68.5153 145.272C67.5707 145.492 66.6331 145.733 65.692 145.974C65.1547 146.043 64.5377 146.45 64.0333 146.138C63.8479 146.218 63.6607 146.301 63.4804 146.393C66.0802 147.544 68.9625 148.074 71.7876 148.208C74.3128 148.353 76.7774 148.107 79.2923 148.033C80.8296 147.96 82.3496 148.01 83.847 148.012C88.3221 147.842 92.799 147.469 97.2463 146.955C100.089 146.535 103.052 146.031 105.81 145.329C106.755 145.066 107.699 144.733 108.489 144.135C108.654 144.021 108.762 143.825 108.959 143.773C108.94 143.366 109.231 142.827 109.301 142.469C110.221 139.366 112.136 136.598 113.081 133.52C113.98 129.652 114.462 125.477 116.83 122.161C118.668 119.539 121.081 117.196 124.01 115.836C125.147 115.373 126.398 114.816 127.643 115.104C127.719 115.07 127.802 115.052 127.887 115.057C128.055 115.083 128.201 115.16 128.338 115.25C128.385 114.992 128.421 114.732 128.463 114.472C128.463 114.468 128.463 114.466 128.463 114.463C128.794 112.118 129.182 109.782 129.743 107.48C130.355 104.699 131.094 101.922 132.39 99.3748C134.097 95.8098 137.477 93.1253 141.304 92.1721C142.373 91.8497 145.573 91.5014 146.377 92.6539C147.082 93.1218 146.895 95.3557 146.898 95.9883C146.822 100.733 145.103 105.333 145.02 110.042C145.113 109.893 145.214 109.751 145.285 109.619C145.928 108.633 146.592 107.659 147.198 106.65C147.084 105.929 147.635 105.245 147.869 104.584C148.713 102.773 149.698 101.035 150.661 99.2864C151.798 97.2084 152.985 95.127 154.594 93.3696C155.348 92.1669 156.142 90.9815 157.034 89.8758C158.275 88.2588 159.929 87.0595 161.646 85.9919C161.944 85.7995 162.248 85.6089 162.558 85.4217C162.417 85.0578 162.785 84.7302 163.171 84.5881C163.603 84.3732 164.048 84.1826 164.492 83.9954C165.743 83.4426 166.984 82.836 168.3 82.4564C168.834 82.3091 169.371 82.1462 169.915 82.0422C170.03 82.0197 170.144 82.037 170.244 82.0856C171.629 81.7805 173.564 81.4131 174.827 82.1185C174.988 82.0561 175.184 82.0752 175.364 82.2277C175.545 82.4218 175.626 82.6627 175.664 82.9192C175.784 83.115 175.884 83.3403 175.957 83.5985C176.099 83.9989 176.169 84.4287 176.243 84.8446C176.278 85.0457 176.214 85.2051 176.103 85.3108C176.142 85.8065 176.078 86.3091 175.9 86.751C175.52 89.5395 174.56 92.2934 173.179 94.7388C173.165 94.7526 173.151 94.7665 173.137 94.7786C173.284 94.8895 173.376 95.0698 173.328 95.2847C173.264 95.6573 173.014 95.9693 172.87 96.3141C172.749 96.5966 172.584 96.9519 172.307 97.0351C172.352 98.0472 171.038 100.226 170.82 100.851C169.86 102.82 168.891 104.784 167.953 106.763C168.905 107.135 165.395 113.375 164.955 114.224C163.034 117.822 161.216 121.541 159.059 124.993C159.66 124.825 160.317 124.584 160.873 124.369C161.098 124.064 161.511 123.965 161.889 123.861C162.43 123.319 163.183 123.024 163.837 122.641C165.211 121.917 166.608 121.236 168.007 120.556C171.485 118.922 174.81 116.95 178.442 115.662C178.737 115.156 179.484 115.186 179.985 114.988C181.567 114.51 183.238 114.413 184.831 113.953C187.488 113.295 190.223 113.111 192.953 113.208C197.937 113.18 203.097 114.433 206.958 117.709L206.964 117.716Z" fill="white"/>
<path d="M149.583 158.807C149.035 158.655 148.945 157.821 149.468 157.573C150.65 157.015 151.831 156.449 153.004 155.873C157.122 153.989 160.769 151.355 164.465 148.794C170.812 144.509 177.468 140.698 184.189 137.036C184.492 136.282 185.529 136.061 186.172 135.648C187.981 134.737 189.794 133.827 191.564 132.842C194.739 130.948 197.938 129.023 200.77 126.638C200.892 126.056 201.677 125.574 202.186 125.326C202.76 125.147 203.273 125.796 202.984 126.317C202.108 127.461 200.847 128.274 199.746 129.192C199.396 129.811 198.685 130.149 198.141 130.582C196.477 131.737 194.741 132.78 192.994 133.802C185.896 137.728 178.671 141.431 171.769 145.705C165.602 149.272 160.202 153.993 153.728 157.015C152.585 157.578 151.434 158.13 150.281 158.676C150.064 158.786 149.822 158.896 149.577 158.809L149.583 158.807Z" fill="white"/>
<path d="M206.953 121.941C206.584 121.562 206.971 120.784 207.511 120.955C207.749 120.867 208.028 121.042 208.057 121.293C208.088 121.452 207.988 121.586 207.901 121.7C207.756 122.037 207.231 122.236 206.953 121.941Z" fill="white"/>
<path d="M207.176 119.005C206.863 118.657 206.506 118.357 206.161 118.042C206.161 118.042 206.162 118.042 206.164 118.042C206.005 117.874 205.987 117.57 206.098 117.362C206.362 116.946 206.831 117.09 207.093 117.427C207.369 117.704 207.641 117.985 207.915 118.265C208.386 118.763 207.672 119.477 207.176 119.004V119.005Z" fill="white"/>
<path d="M99.2358 112.562C100.612 114.333 100.203 116.822 99.2306 118.686C96.8562 123.368 92.804 127.054 88.2769 129.62C87.6096 129.938 86.3028 130.863 85.6251 130.383C85.2785 130.127 85.3981 129.693 85.4328 129.329C85.4778 128.146 85.353 126.967 85.2282 125.794C85.0081 123.842 84.4084 121.962 83.6632 120.153C83.1866 118.9 82.6267 117.655 81.7272 116.645C81.3095 116.179 80.8485 115.754 80.4065 115.312C80.2193 115.127 80.0183 114.91 80.098 114.621C80.1448 114.451 80.2904 114.314 80.4637 114.281C80.5157 114.168 80.6058 114.075 80.7289 114.033C81.2783 113.842 81.8139 113.609 82.3494 113.383C83.9284 112.706 85.4293 111.843 87.0724 111.317C87.9078 111.047 88.7691 110.849 89.6375 110.716C92.3586 110.267 97.4264 110.142 99.2393 112.562H99.2358Z" fill="#BEC9E8"/>
<path d="M146.948 94.2414C147.203 94.387 147.273 94.7526 147.082 94.9797C147.279 95.5984 147.071 96.3055 147.059 96.9484C146.919 98.3782 146.543 103.354 145.148 103.898C144.182 104.141 143.284 104.491 142.361 104.825C141.952 104.98 141.423 105.148 141.068 104.794C140.621 104.337 140.898 103.642 140.952 103.087C141.194 101.465 141.868 99.9536 142.709 98.5567C143.692 97.0628 144.713 95.4909 146.141 94.3887C146.373 94.2379 146.676 94.075 146.947 94.2414H146.948Z" fill="#BEC9E8"/>
<path d="M175.851 84.2848C176.543 84.193 176.704 85.1635 176.018 85.2969C176.238 85.5794 176.278 86.0439 175.922 86.2328C175.656 89.0126 174.874 93.6434 172.635 95.477C172.22 95.8496 171.676 96.0247 171.123 96.0004C170.309 96.0281 169.494 96.0767 168.68 96.0697C166.229 96.1096 166.518 94.4614 167.224 92.7284C167.92 90.9485 168.905 89.2553 170.25 87.8861C171.707 86.4893 173.926 84.8862 175.853 84.2848H175.851Z" fill="#BEC9E8"/>
<path d="M199.94 122.494C201.035 122.215 206.959 121.149 206.275 123.345C205.867 123.962 205.28 124.447 204.753 124.96C203.375 126.257 201.711 127.166 200.144 128.206C199.313 128.757 198.495 129.326 197.652 129.861C196.612 130.461 195.688 131.198 194.512 131.338C194.075 131.35 193.827 130.964 193.527 130.714C193.116 130.355 192.687 130.021 192.238 129.714C191.855 129.426 191.369 129.234 191.066 128.858C190.863 128.503 191.215 128.069 191.605 128.199C192.525 125.211 197.105 123.201 199.938 122.492L199.94 122.494Z" fill="#BEC9E8"/>
<path d="M194.953 132.579C194.802 132.503 194.735 132.35 194.672 132.204C194.211 132.166 194.142 131.622 194.067 131.26C193.948 130.74 194.591 130.357 194.962 130.756C197.187 128.951 199.737 127.588 201.96 125.776C202.998 124.965 204.035 124.151 205.064 123.326C205.602 122.929 206.212 123.709 205.688 124.135C205.548 124.248 205.408 124.361 205.267 124.473C205.215 124.898 204.751 125.092 204.472 125.362C202.967 126.698 201.51 128.024 199.926 129.251C199.09 129.905 198.256 130.558 197.428 131.218C197.036 131.532 196.639 131.839 196.232 132.132C195.865 132.376 195.421 132.821 194.953 132.579Z" fill="#BEC9E8"/>
<path d="M24.453 162.372C24.453 162.372 24.4478 162.37 24.446 162.369C24.3992 162.341 24.3524 162.313 24.3056 162.282C24.2606 162.249 24.2155 162.216 24.1739 162.181C24.1444 162.154 24.1167 162.126 24.089 162.097C24.0803 162.086 24.0717 162.074 24.063 162.062C24.0543 162.027 24.0474 161.994 24.0405 161.96C24.0353 161.916 24.0301 161.873 24.0283 161.828C24.0301 161.823 24.0318 161.816 24.0335 161.809C24.0457 161.779 24.0595 161.75 24.0734 161.722C24.0924 161.689 24.1132 161.656 24.134 161.623C24.1652 161.596 24.1947 161.566 24.2259 161.539C24.2814 161.488 24.3403 161.438 24.3854 161.377C26.3906 160.542 28.4323 159.793 30.4792 159.065C35.7065 157.166 41.1314 155.547 46.2217 153.334C49.8059 151.786 53.2047 149.852 56.7837 148.298C61.3178 146.353 66.2105 145.502 71.0166 144.511C79.3047 143.005 87.4316 140.241 94.4285 135.473C97.0802 133.563 99.4252 131.22 101.372 128.6C103.023 126.192 104.439 123.681 105.117 120.875C105.743 117.782 105.748 114.199 104.576 111.255C103.689 109.29 102.002 107.707 99.9868 106.94C98.0352 106.217 95.8115 106.278 93.7872 106.524C82.3118 108.617 71.7463 113.822 60.8186 117.69C60.0317 117.959 59.2449 118.234 58.4597 118.513C58.4597 118.395 58.4355 118.276 58.3904 118.158C58.3003 117.924 58.1183 117.723 57.8964 117.602C58.5672 117.364 59.2379 117.13 59.9104 116.903C69.4897 113.496 78.7622 109.201 88.6102 106.583C93.4059 105.311 99.3386 104.051 103.347 107.811C106.38 110.494 106.784 114.872 106.5 118.681C106.306 121.872 104.978 124.834 103.328 127.527C101.982 129.787 100.233 131.778 98.3333 133.589C97.153 134.717 95.893 135.764 94.5342 136.672C90.4317 139.322 85.9965 141.48 81.3516 142.995C74.7326 145.248 67.7149 145.911 61.0196 147.875C55.7837 149.433 51.1734 152.416 46.1576 154.502C39.1243 157.476 31.708 159.452 24.6644 162.398C24.5951 162.391 24.5257 162.384 24.4581 162.37L24.453 162.372Z" fill="#010101"/>
<path d="M24.1787 162.188C24.1787 162.188 24.1936 162.201 24.2011 162.209C24.1936 162.203 24.1862 162.196 24.1787 162.188Z" fill="#010101"/>
<path d="M119.061 140.717C119.061 140.717 119.061 140.717 119.059 140.717C119.055 140.717 119.05 140.721 119.045 140.721C119.045 140.721 119.041 140.721 119.039 140.721C119.038 140.721 119.036 140.721 119.032 140.723C119.041 140.719 119.05 140.717 119.059 140.714L119.061 140.717Z" fill="#010101"/>
<path d="M108.713 144.515C108.497 144.442 108.389 144.246 108.363 143.96C108.469 143.939 108.573 143.915 108.677 143.887C108.842 143.842 109.005 143.794 109.171 143.754C109.252 143.733 109.334 143.714 109.415 143.693C109.398 143.775 109.381 143.854 109.365 143.936C109.358 144.236 109.14 144.53 108.84 144.53C108.798 144.53 108.757 144.525 108.713 144.515Z" fill="#010101"/>
<path d="M114.024 126.711C115.078 123.244 117.082 120.078 119.77 117.65C121.078 116.329 126.448 112.574 128.172 114.323C128.164 114.342 128.155 114.362 128.146 114.381C128.108 114.466 128.072 114.551 128.034 114.634C128.001 114.707 127.971 114.78 127.94 114.853C127.907 114.872 127.876 114.891 127.845 114.912C127.751 114.972 127.659 115.037 127.569 115.102C127.543 115.121 127.517 115.142 127.491 115.161C127.335 114.929 127.096 114.797 126.737 114.919C124.266 115.461 122.087 116.896 120.283 118.603C117.888 120.806 116.111 123.652 115.108 126.743C115.016 127.047 114.927 127.352 114.844 127.657C114.659 127.78 114.475 127.905 114.293 128.031C114.036 128.21 113.778 128.386 113.523 128.568C113.676 127.944 113.839 127.324 114.023 126.709L114.024 126.711Z" fill="#010101"/>
<path d="M117.931 142.017C117.673 141.872 117.602 141.56 117.73 141.303C117.763 141.237 117.794 141.173 117.827 141.107C117.846 141.102 117.865 141.097 117.885 141.092C117.876 141.093 117.867 141.097 117.857 141.099C118.198 141.009 118.533 140.891 118.867 140.778L118.893 140.769C118.902 140.766 118.911 140.764 118.921 140.761C118.933 140.757 118.944 140.754 118.956 140.749C118.97 140.745 118.983 140.74 118.997 140.735C118.996 140.735 118.994 140.735 118.992 140.736C119.008 140.731 119.023 140.726 119.041 140.723C119.041 140.723 119.044 140.723 119.046 140.721C119.046 140.721 119.049 140.721 119.051 140.719C119.054 140.719 119.058 140.717 119.06 140.716C119.056 140.716 119.054 140.716 119.051 140.717C119.054 140.717 119.06 140.714 119.065 140.714H119.067C119.067 140.714 119.068 140.714 119.07 140.714C119.07 140.714 119.072 140.714 119.073 140.714C119.129 140.698 119.186 140.683 119.243 140.667C119.169 140.802 119.098 140.939 119.025 141.076C118.879 141.322 118.751 141.71 118.541 141.927C118.502 141.937 118.463 141.948 118.424 141.958C118.32 141.988 118.219 142.029 118.117 142.064C118.106 142.067 118.094 142.071 118.084 142.074C118.035 142.064 117.985 142.045 117.93 142.019L117.931 142.017Z" fill="#010101"/>
<path d="M127.696 114.219C127.724 113.352 127.802 112.487 127.923 111.629C128.211 109.392 128.816 107.097 129.511 104.98C130.358 102.376 131.296 99.7647 132.75 97.432C134.7 94.503 137.714 92.283 141.095 91.3055C142.321 90.9433 143.628 90.8445 144.898 90.9762C147.137 91.1565 147.662 93.0854 147.725 95.0143C147.81 96.7907 147.46 98.5515 147.207 100.302C146.843 102.655 146.354 104.985 145.856 107.311C145.692 108.077 145.527 108.841 145.345 109.603C145.279 109.881 144.983 110.054 144.709 109.985C144.43 109.914 144.262 109.626 144.328 109.349C144.503 108.612 144.664 107.872 144.823 107.13C145.595 103.479 146.366 99.8496 146.683 96.1408C146.683 94.9554 146.779 92.9485 145.65 92.2483C144.869 91.9086 143.983 91.9537 143.151 92.0005C141.731 92.0819 140.338 92.6123 139.071 93.2119C136.925 94.3038 135.008 95.9571 133.67 97.9397C132.781 99.347 132.168 100.759 131.566 102.274C130.617 104.839 129.712 107.539 129.214 110.213C129.043 111.17 128.901 112.13 128.814 113.097C128.753 113.246 128.694 113.394 128.637 113.544C128.622 113.579 128.606 113.612 128.59 113.647C128.54 113.756 128.492 113.867 128.443 113.978C128.426 113.981 128.41 113.986 128.395 113.993C128.348 114.012 128.315 114.047 128.289 114.089C128.232 114.18 128.194 114.284 128.15 114.383C128.112 114.468 128.076 114.553 128.038 114.636C128.005 114.709 127.975 114.782 127.944 114.855C127.911 114.874 127.88 114.893 127.849 114.914C127.797 114.946 127.746 114.981 127.696 115.016C127.691 114.714 127.712 114.418 127.701 114.219H127.696Z" fill="#010101"/>
<path d="M121.608 139.967C121.409 139.442 123.182 137.983 123.539 137.492C126.167 134.697 128.64 131.756 130.962 128.7C133.661 125.288 136.015 121.629 138.417 118.009C141.048 113.978 144.048 110.148 146.429 105.985C149.766 100.013 152.528 93.5499 157.291 88.5274C158.967 86.8377 160.891 85.4079 162.946 84.2103C166.272 82.1254 169.027 81.1168 173.009 81.2329C174.004 81.323 175.351 80.9746 176.11 81.7459C178.583 85.2969 174.283 93.6556 172.947 97.451C170.125 104.337 167.302 111.25 163.927 117.886C162.581 120.416 161.052 122.854 159.265 125.097C158.842 125.627 158.021 125.026 158.428 124.466C159.867 122.657 161.142 120.723 162.272 118.711C166.283 111.281 169.363 103.397 172.56 95.5949C173.76 92.1877 176.985 85.7943 175.361 82.4859C175.223 82.2554 174.793 82.349 174.618 82.3074C174.101 82.2814 173.581 82.2779 173.065 82.2814C171.701 82.2849 170.332 82.3386 168.994 82.6263C167.224 82.9642 165.647 83.8741 164.099 84.7545C162.331 85.7579 160.645 86.8896 159.125 88.2414C152.887 93.971 150.194 102.274 145.682 109.238C143.258 112.889 140.684 116.437 138.278 120.102C134.969 125.263 131.333 130.215 127.324 134.854C125.952 136.457 124.505 137.996 123.052 139.528C122.659 139.962 122.031 140.827 121.614 139.967H121.608Z" fill="#010101"/>
<path d="M-69.6433 169.44C-69.652 169.159 -69.4215 168.902 -69.1355 168.899C-66.3295 168.864 -63.5252 168.805 -60.7226 168.641C-52.9614 168.072 -45.202 166.859 -37.8741 164.188C-32.5393 162.149 -27.4802 159.306 -23.1472 155.573C-0.468529 133.53 6.29089 127.537 38.6338 123.196C43.9581 122.319 49.3345 121.061 54.3624 119.135C55.3815 118.745 56.3885 118.328 57.4059 117.929C57.9068 117.778 58.3938 117.416 58.9259 117.518C59.5655 117.945 59.1651 118.478 58.4787 118.633C57.5168 119 56.567 119.394 55.6103 119.771C44.8646 124.231 33.098 124.584 21.8861 127.215C8.3707 130.01 -3.0787 137.428 -12.7273 147.064C-20.6757 155.02 -27.1977 161.597 -38.1531 165.409C-45.3562 167.923 -52.9805 169.131 -60.5718 169.682C-63.0676 169.831 -65.5686 169.895 -68.0679 169.934C-68.6346 169.897 -69.5255 170.195 -69.6399 169.44H-69.6433Z" fill="#010101"/>
<path d="M115.015 142.57C114.949 142.339 115.086 142.104 115.311 142.033C115.666 141.93 116.011 141.794 116.351 141.646C117.453 141.21 118.562 140.792 119.661 140.348C120.355 140.054 121.062 139.781 121.772 139.539C122.138 139.44 122.544 139.137 122.921 139.317C123.103 139.428 123.195 139.617 123.152 139.83C123.096 140.109 122.786 140.232 122.554 140.334C120.452 141.083 118.436 142.121 116.266 142.662C115.855 142.724 115.221 143.154 115.013 142.572L115.015 142.57Z" fill="#010101"/>
<path d="M117.856 141.972C117.58 141.948 117.35 141.671 117.393 141.393C117.526 140.646 117.747 139.918 117.986 139.199C119.662 134.246 121.755 129.44 124.099 124.771C125.581 121.634 126.92 118.39 127.496 114.95C127.605 114.343 127.698 113.733 127.808 113.127C127.87 112.858 127.865 112.538 128.095 112.349C128.241 112.229 128.437 112.229 128.601 112.31C129.068 112.61 128.792 113.33 128.752 113.778C128.529 115.196 128.269 116.612 127.886 117.997C126.879 121.558 125.17 124.988 123.554 128.27C121.783 132.014 120.22 135.875 118.89 139.795C118.705 140.378 118.533 140.967 118.435 141.509C118.402 141.788 118.14 142.01 117.856 141.972Z" fill="#010101"/>
<path d="M108.767 144.669C108.497 144.622 108.276 144.343 108.339 144.064C108.439 143.613 108.561 143.17 108.689 142.728C109.646 139.444 110.935 136.269 112.129 133.066C112.419 132.274 112.689 131.475 112.937 130.671C113.299 129.496 113.571 128.295 113.932 127.12C113.994 126.917 114.051 126.698 114.211 126.549C114.369 126.404 114.599 126.387 114.783 126.496C115.032 126.645 115.029 126.955 114.973 127.203C114.804 127.91 114.594 128.61 114.408 129.314C113.549 132.664 112.143 135.832 110.994 139.085C110.462 140.572 109.945 142.069 109.533 143.596C109.401 144.024 109.393 144.761 108.767 144.669Z" fill="#010101"/>
<path d="M208.287 117.276C204.235 114.44 199.295 113.024 194.428 112.411C180.414 111.109 168.557 120.043 156.356 125.471C144.54 130.958 132.55 136.118 120.22 140.308C120.214 140.312 120.207 140.317 120.2 140.32H120.203C120.13 140.362 120.059 140.405 119.981 140.44C119.931 140.464 119.881 140.485 119.829 140.504H119.827C119.825 140.504 119.824 140.504 119.822 140.506C119.817 140.508 119.813 140.509 119.808 140.511C119.571 140.591 119.323 140.641 119.082 140.71H119.087C119.087 140.71 119.077 140.71 119.071 140.714C119.07 140.714 119.068 140.714 119.064 140.716H119.066H119.063C119.059 140.717 119.054 140.719 119.051 140.719H119.045C119.045 140.719 119.03 140.726 119.019 140.728L118.997 140.735C118.997 140.735 119 140.735 119.002 140.735C118.988 140.738 118.974 140.743 118.96 140.749C118.95 140.752 118.938 140.755 118.926 140.759C118.917 140.762 118.908 140.764 118.898 140.768L118.872 140.776C118.538 140.889 118.203 141.007 117.862 141.097C117.87 141.095 117.879 141.092 117.889 141.09C117.87 141.095 117.851 141.1 117.832 141.106H117.83C117.636 141.173 117.44 141.23 117.246 141.298C117.194 141.317 117.141 141.334 117.089 141.352C117.056 141.362 117.023 141.371 116.99 141.379C114.662 142.133 112.321 142.853 109.967 143.53C109.96 143.532 109.953 143.535 109.946 143.537C109.86 143.567 109.771 143.593 109.683 143.619C109.563 143.655 109.442 143.684 109.32 143.716C108.019 144.086 106.712 144.445 105.402 144.788C97.3095 146.934 88.888 146.996 80.5774 147.596C75.3293 148.201 69.9582 147.769 64.9215 146.132C64.4414 145.906 63.7742 145.691 63.7863 146.463C64.3426 147.365 66.14 147.502 67.3636 147.889C70.0933 148.492 72.8838 148.929 75.6829 148.929C75.9238 148.929 76.1647 148.925 76.4056 148.918C78.9239 148.835 81.4318 148.549 83.9467 148.391C88.1965 148.102 92.4722 148.104 96.696 147.48C103.535 146.575 110.237 144.814 116.728 142.499C128.921 138.632 140.771 133.835 152.361 128.432C160.942 124.832 168.921 120.004 177.471 116.347C185.605 113.104 194.089 112.115 202.391 115.392C204.209 116.023 205.932 116.903 207.512 118.002C208.722 118.81 208.223 119.913 208.075 120.279C207.783 120.983 207.313 121.591 206.852 122.191C205.833 123.491 204.711 124.707 203.533 125.863C198.269 131.159 191.662 134.577 185.147 138.106C182.173 139.723 179.215 141.371 176.261 143.026C172.753 144.988 169.233 146.943 165.933 149.244C163.181 151.131 160.538 153.17 157.863 155.166C151.017 160.204 143.899 165.084 135.928 168.164C128.158 171.272 119.837 172.94 111.912 175.615C106.811 177.318 101.818 179.356 96.9733 181.693C96.157 182.091 95.3441 182.493 94.5399 182.916C94.2851 183.034 94.1638 183.361 94.2903 183.615C94.377 183.796 94.5746 183.916 94.7721 183.916C94.9697 183.916 95.1188 183.783 95.2886 183.706C96.1448 183.263 97.0114 182.836 97.8797 182.415C100.663 181.063 103.525 179.88 106.393 178.726C116.227 174.713 126.855 172.939 136.708 168.979C146.757 165.029 155.354 158.317 163.945 151.934C170.526 147.066 177.866 143.379 184.986 139.386C191.927 135.627 199.092 131.969 204.647 126.232C206.023 124.841 207.351 123.387 208.455 121.766C208.819 121.205 209.786 119.7 209.374 118.572C209.173 118.021 208.53 117.404 208.296 117.272L208.287 117.276Z" fill="#010101"/>
<path d="M131.929 169.986C131.451 169.41 130.866 170.183 130.452 170.464C129.865 170.944 129.267 171.521 128.702 172.041C128.496 172.287 126.785 173.92 126.383 174.336C118.987 182.585 112.013 191.219 104.236 199.122C99.4179 204.191 93.8977 208.744 87.4988 211.67C77.7843 216.273 67.0403 217.942 56.4471 219.165C39.5832 221.103 22.553 222.824 5.90923 226.338C-14.2529 230.552 -33.7269 237.414 -53.688 242.43C-73.9662 247.633 -94.4542 252.028 -115.096 255.523C-117.63 255.962 -120.159 256.432 -122.709 256.773C-123.436 256.863 -124.17 256.927 -124.903 256.917C-125.799 256.887 -125.948 257.95 -124.724 257.964C-121.625 257.87 -118.584 257.144 -115.53 256.662C-93.851 252.995 -72.3353 248.371 -51.0588 242.829C-35.1481 238.725 -19.5322 233.562 -3.58862 229.581C10.3115 226.092 24.5028 223.947 38.7218 222.252C47.9528 221.111 57.3622 220.29 66.5758 218.839C73.0181 217.812 79.41 216.257 85.4311 213.716C88.9356 212.262 92.3413 210.524 95.4021 208.269C98.3728 206.155 101.155 203.784 103.695 201.167C108.039 196.793 112.171 192.216 116.228 187.578C119.977 183.304 123.62 178.939 127.419 174.708C127.671 174.429 130.456 171.781 131.272 171.114C131.563 170.863 132.288 170.493 131.927 169.986H131.929Z" fill="#010101" stroke="black" stroke-width="0.43" stroke-miterlimit="10"/>
<path d="M170.733 100.056C168.14 99.3574 165.885 96.9363 165.988 94.1565C166.345 90.874 169.191 87.2259 171.931 85.4859C172.686 84.9954 175.943 83.0682 176.519 84.1098C176.761 84.9365 175.631 84.7822 175.155 85.0231C174.158 85.3802 173.217 85.8758 172.343 86.4703C170.291 87.7926 168.806 89.7978 167.697 91.9416C166.244 94.6123 167.407 97.3956 170.061 98.6885C170.366 98.8392 170.685 98.9571 171.014 99.0438C171.619 99.2153 171.433 100.075 170.887 100.075C170.839 100.075 170.789 100.068 170.735 100.054L170.733 100.056Z" fill="#010101"/>
<path d="M172.141 95.153C172.56 95.153 173.169 95.2379 173.101 95.7942C173.063 96.0767 172.793 96.2812 172.51 96.2431C170.643 95.997 168.869 96.4892 167.071 96.7561C165.139 95.3488 171.494 95.0577 172.141 95.1547V95.153Z" fill="#010101"/>
<path d="M142.056 100.886L142.065 100.895C142.054 101.028 142.044 101.162 142.035 101.295C142.04 101.158 142.047 101.023 142.056 100.886Z" fill="#010101"/>
<path d="M147.008 93.9346C147.008 93.9346 146.995 93.9383 146.989 93.942C146.995 93.9401 147.002 93.9383 147.008 93.9346Z" fill="#010101"/>
<path d="M144.574 109.723C143.104 109.51 141.506 108.881 140.716 107.553C140.364 106.718 140.452 105.759 140.446 104.87C140.551 101.499 141.588 98.0403 143.953 95.5602C144.415 95.0143 146.326 93.2136 147.011 93.692C147.37 93.9866 147.106 94.4147 146.76 94.5707C146.326 94.8306 145.931 95.101 145.557 95.4303C144.82 96.0992 144.167 96.8583 143.598 97.6711C142.276 99.6676 141.671 102.052 141.515 104.418C141.477 105.002 141.468 105.588 141.506 106.172C141.546 106.498 141.511 106.867 141.697 107.151C142.395 108.096 143.61 108.52 144.718 108.683C145.375 108.791 145.271 109.725 144.642 109.725C144.621 109.725 144.598 109.725 144.576 109.721L144.574 109.723Z" fill="#010101"/>
<path d="M140.714 106.477C140.173 105.843 141.482 105.009 141.915 104.654C143.09 103.834 144.48 103.241 145.924 103.168C146.61 103.182 146.614 104.196 145.924 104.217C145.362 104.243 144.816 104.399 144.286 104.576C143.404 104.896 142.586 105.392 141.88 106.011C141.639 106.22 141.35 106.612 141.028 106.612C140.925 106.612 140.821 106.572 140.712 106.477H140.714Z" fill="#010101"/>
<path d="M84.2503 128.901L84.278 128.887C84.33 128.877 84.3803 128.865 84.4305 128.853C84.3629 128.872 84.2954 128.894 84.2295 128.915C84.2364 128.91 84.2416 128.906 84.2486 128.901H84.2503Z" fill="#010101"/>
<path d="M99.7921 113.681C99.7921 113.681 99.7973 113.693 99.8007 113.699C99.7349 113.706 99.6656 113.713 99.5997 113.721C99.598 113.721 99.5945 113.721 99.5928 113.721C99.6586 113.707 99.7262 113.693 99.7921 113.68V113.681Z" fill="#010101"/>
<path d="M81.6101 115.42C81.6483 115.397 81.6881 115.376 81.7262 115.354C81.7002 115.385 81.6725 115.416 81.6465 115.447C81.6344 115.439 81.6205 115.43 81.6084 115.42H81.6101Z" fill="#010101"/>
<path d="M81.2624 131.572C79.4408 131.251 78.1791 129.794 77.4927 128.248C76.8272 126.863 76.3488 125.395 76.0854 123.893C75.5776 120.829 75.8011 117.227 78.1964 114.888C79.5067 113.808 81.1723 113.208 82.7183 112.492C86.0408 111.026 89.644 110.106 93.3149 109.971C94.8401 109.938 96.4537 109.94 97.8645 110.562C98.8958 110.825 99.9946 111.295 100.366 112.323C101.586 115.543 100.291 119.156 98.3464 121.875C95.0516 126.322 89.112 131.705 82.9418 131.705C82.3838 131.705 81.8222 131.662 81.2624 131.568V131.572ZM81.7043 114.118C80.7927 114.553 79.8446 114.96 79.0526 115.582C76.7197 117.82 76.7284 121.409 77.3021 124.3C77.6868 125.965 78.2726 127.626 79.2415 129.073C80.2138 130.418 81.7217 130.75 83.3578 130.657C88.1397 130.298 92.1572 127.144 95.2544 123.896C97.1557 121.856 98.9044 119.56 99.4903 116.846C99.8005 115.626 99.9582 112.924 98.8265 112.083C98.5717 111.934 98.2996 111.818 98.0188 111.723C97.9685 111.7 97.9165 111.678 97.8645 111.659C97.7536 111.615 97.6427 111.576 97.53 111.543C97.53 111.543 97.5335 111.543 97.5352 111.543C97.5352 111.543 97.5318 111.543 97.53 111.543C97.5266 111.543 97.5231 111.541 97.5214 111.539C97.5214 111.539 97.5214 111.539 97.5196 111.539C97.5196 111.539 97.5196 111.539 97.5179 111.539C97.5179 111.539 97.5179 111.539 97.5196 111.539C97.5196 111.539 97.5196 111.539 97.5214 111.539C97.4902 111.531 97.459 111.524 97.4261 111.515C97.2943 111.48 97.1643 111.435 97.0344 111.395C96.9269 111.364 96.8177 111.338 96.7102 111.307C96.5924 111.271 96.478 111.229 96.3567 111.205C96.2544 111.184 96.1539 111.163 96.0499 111.144C95.9598 111.127 95.8679 111.113 95.7778 111.092C95.7033 111.075 95.6287 111.057 95.5525 111.054C95.5143 111.052 95.4779 111.054 95.4415 111.057H95.4277C95.322 111.047 95.2145 111.031 95.1088 111.026C95.01 111.021 94.9077 111.018 94.8089 111.019C94.7431 111.019 94.6772 111.024 94.6114 111.031C94.4103 111.026 94.2093 111.023 94.0082 111.023H94.0048C89.7221 111.023 85.4861 112.314 81.7061 114.122L81.7043 114.118Z" fill="#010101"/>
<path d="M85.0965 130.745C84.5159 130.582 84.7239 129.988 84.8296 129.582C85.0359 128.612 85.145 127.619 85.0931 126.629C84.7118 122.517 83.0548 118.303 79.8172 115.447C79.63 115.281 79.3736 115.175 79.2956 114.927C79.1586 114.423 79.8259 114.161 80.2107 114.46C84.0289 117.373 85.9077 122.373 86.2266 126.901C86.2526 128.071 86.0827 129.241 85.7881 130.376C85.7274 130.61 85.4865 130.764 85.2421 130.764C85.1936 130.764 85.1451 130.757 85.0983 130.745H85.0965Z" fill="#010101"/>
<path d="M189.39 134.662C188.928 134.395 189.115 133.799 189.132 133.367C189.314 131.482 189.83 129.627 190.709 127.948C193.108 123.383 199.951 120.513 204.952 121.187C205.644 121.38 207.296 121.38 206.977 122.452C206.63 123.215 205.726 122.569 205.178 122.518C204.311 122.34 203.424 122.328 202.543 122.383C200.559 122.501 198.645 123.175 196.871 124.043C194.212 125.281 191.964 127.407 191.091 130.262C190.709 131.364 190.486 132.513 190.371 133.671C190.39 134.161 190.198 134.747 189.726 134.747C189.628 134.747 189.515 134.721 189.39 134.664V134.662Z" fill="#010101"/>
<path d="M193.325 132.023C192.871 131.347 192.297 130.747 191.626 130.284C191.346 130.049 190.938 129.993 190.696 129.723C190.495 129.447 190.531 129.055 190.808 128.842C191.386 128.458 192.041 129.069 192.526 129.366C193.275 129.915 193.918 130.605 194.424 131.381C194.71 131.875 194.283 132.333 193.85 132.333C193.656 132.333 193.462 132.243 193.327 132.023H193.325Z" fill="#010101"/>
<path d="M189.22 136.279C188.842 135.53 189.047 133.669 189.379 132.905C189.364 132.544 189.511 132.118 189.941 132.137C190.22 132.147 190.463 132.395 190.444 132.679C190.327 133.797 190.412 134.938 190.251 136.048C190.142 136.504 189.497 136.7 189.22 136.281V136.279Z" fill="#010101"/>
<path d="M194.285 133.539C194.063 133.461 193.963 133.267 193.9 133.057C193.812 132.854 193.711 132.659 193.599 132.468C192.914 131.296 191.91 130.343 190.761 129.638C190.257 129.222 190.827 128.43 191.384 128.802C192.507 129.451 193.441 130.373 194.229 131.393C194.559 131.903 194.883 132.475 194.976 133.078C194.947 133.412 194.597 133.657 194.285 133.539Z" fill="#010101"/>
<path d="M194.153 132.957C193.684 131.714 192.635 130.983 191.592 130.262C191.325 130.076 191.035 129.92 190.795 129.7C190.347 129.388 190.704 128.636 191.24 128.825C192.594 129.648 194.072 130.53 194.836 131.972C194.952 132.178 195.056 132.39 195.145 132.61C195.36 133.258 194.406 133.603 194.155 132.957H194.153Z" fill="#010101"/>
<path d="M215.367 18.3723C215.726 22.9199 212.318 23.4901 208.628 23.4572C209.663 26.2266 206.868 25.5317 205.129 26.4017C204.677 26.802 203.814 26.9857 203.789 26.1486C203.673 19.5179 200.748 22.3688 199.968 17.5491C199.671 14.3793 203.419 13.9426 204.932 16.3273C204.547 9.97729 208.218 7.44699 211.032 8.13156C213.277 10.9149 215.979 12.9443 215.365 18.3723H215.367Z" fill="white"/>
<path d="M197.944 58.0755C199.261 61.1673 196.254 65.1326 196.904 68.5467C196.732 70.3075 198.637 78.8204 195.753 78.0544C195.909 79.1861 195.396 81.5708 194.134 79.7701C193.228 80.2121 192.472 79.07 192.146 78.3629C191.423 78.3837 191.115 77.5518 190.834 77.0128C189.645 76.7442 190.205 74.2694 190.434 73.4305C191.378 68.0927 191.522 62.6144 192.47 57.2886C192.269 56.7566 192.871 56.2731 193.37 56.4984C194.758 57.4048 196.467 57.4048 197.944 58.0772V58.0755Z" fill="white"/>
<path d="M236.416 60.5884C237.233 62.3978 237.245 66.2417 235.156 62.9177C235.099 63.5225 234.451 64.8449 233.695 64.3648C233.352 64.013 233.959 63.1239 233.732 62.7756C232.383 63.4411 232.48 59.1275 231.3 61.2002C232.527 62.9333 232.709 64.1187 232.319 64.266C231.747 64.1984 228.614 61.8068 225.116 59.9229C222.112 57.7133 219.558 55.2367 219.558 55.2367L224.112 50.1137C227.553 55.5868 233.428 56.8571 236.418 60.5884H236.416Z" fill="white"/>
<path d="M197.472 118.584C194.961 118.586 193.482 117.95 194.186 115.122C194.243 114.888 196.037 115.122 196.037 115.122C196.037 115.122 198.824 118.555 197.472 118.584Z" fill="white"/>
<path d="M220.679 101.281C219.329 100.272 216.424 100.475 216.223 98.4077C216.141 97.8774 215.59 96.6746 216.53 96.6833C217.422 96.6191 218.391 97.0593 218.369 98.1616C219.242 98.7214 223.338 100.896 220.679 101.281Z" fill="white"/>
<path d="M202.765 28.1608C204.451 27.7882 207.007 28.9874 208.661 28.2578C208.978 27.7206 209.287 25.7709 207.945 25.9164C206.283 26.3913 203.789 26.1487 202.765 28.1608Z" fill="#C0CAE8"/>
<path d="M223.675 47.4049C222.767 46.3546 221.389 44.1917 219.829 45.0288C219.069 44.2923 216.129 40.3998 216.129 40.3998C216.129 40.3998 214.561 32.1365 212.235 29.367C211.536 28.1278 210.482 30.3479 209.758 30.7812C206.933 32.8505 198.471 30.1036 198.471 30.1036C198.471 30.1036 197.48 31.263 196.995 32.4484C194.984 37.4466 191.048 55.1413 192.79 56.2852C200.867 60.3111 199.522 57.0859 201.974 56.4429C203.297 56.0963 206.42 56.8207 213.327 59.4983C215.146 52.3234 213.327 50.9334 217.829 54.4256C219.672 56.8762 226.195 49.0253 223.677 47.4066L223.675 47.4049Z" fill="#C0CAE8"/>
<path d="M211.636 27.374C211.003 26.809 208.429 24.7675 208.954 27.0361C209.923 31.2284 199.306 26.5317 195.708 28.2354C190.799 26.1262 182.887 21.5873 179.331 25.4451C178.398 26.4572 180.669 25.991 181.376 25.8038C186.284 27.4225 190.695 29.2561 196.092 28.6409C200.093 31.7968 212.306 33.4814 211.636 27.374Z" fill="#FDC731"/>
<path d="M211.536 16.1939C209.292 16.4469 208.337 11.09 210.574 11.0553C212.779 11.0206 213.649 15.9547 211.536 16.1939Z" fill="#FDC731"/>
<path d="M215.787 13.8265C214.202 13.8664 211.883 8.6602 214.747 9.46262C215.494 9.92882 217.469 13.7953 215.787 13.8265Z" fill="#FDC731"/>
<path d="M231.22 71.4826C230.688 75.6576 225.43 90.9901 219.885 97.0213C218.453 97.0213 216.032 96.4857 214.448 94.9918C213.517 87.9035 220.497 80.7269 219.648 73.3769C213.757 72.7408 207.451 71.9471 207.451 71.9471C207.451 71.9471 206.11 75.3682 205.352 79.155C203.472 88.5534 203.513 99.5134 199.747 109.011C193.946 121.823 190.541 111.869 193.083 103.009C194.286 95.4234 192.121 86.5535 192.738 79.4478C194.057 80.2156 196.409 81.5709 195.929 78.1515C197.451 78.0856 197.47 74.5814 197.057 71.9713C196.154 67.5936 197.016 62.6404 198.427 58.6509C198.782 57.644 199.581 58.9247 199.775 56.2246C203.536 54.9716 208.926 58.6006 213.084 59.332C218.141 59.1691 230.863 68.11 231.222 71.4826H231.22Z" fill="#010101"/>
<path d="M198.895 58.1101C198.879 58.1171 198.862 58.124 198.846 58.1292C198.832 58.1327 198.817 58.1361 198.803 58.1396C198.798 58.1396 198.794 58.1396 198.789 58.1396C198.824 58.1327 198.86 58.124 198.895 58.1084V58.1101Z" fill="#010101"/>
<path d="M198.873 58.1188C198.864 58.1223 198.855 58.1258 198.847 58.1276C198.833 58.1328 198.817 58.1363 198.803 58.138C198.798 58.138 198.794 58.138 198.789 58.138C198.817 58.1328 198.845 58.1258 198.874 58.1154L198.873 58.1188Z" fill="#010101"/>
<path d="M231.059 56.3389C231.059 56.3389 231.064 56.3424 231.068 56.3441C230.865 56.202 230.664 56.0564 230.466 55.9091L230.477 55.9178C230.433 55.8866 230.394 55.8554 230.352 55.8225C230.352 55.8225 230.352 55.8225 230.355 55.8225C228.229 54.0981 226.225 52.2263 224.435 50.1536C224.386 50.0981 224.383 50.0167 224.419 49.9543C225.057 48.8711 224.537 47.8312 223.641 47.06C223.638 47.0583 223.636 47.0548 223.634 47.0531C222.806 46.242 221.43 44.1848 220.199 44.4795C220.159 44.4899 220.116 44.4864 220.079 44.4673C218.339 43.5852 217.396 41.6597 216.147 40.2109C216.124 40.1849 216.11 40.152 216.107 40.1173C215.954 38.2733 215.653 36.4432 215.109 34.6789C215.109 34.6737 215.105 34.6702 215.103 34.665C214.308 32.5732 213.356 30.5022 212.024 28.6946C211.996 28.6565 211.987 28.6079 211.996 28.5611C212.33 26.9095 210.226 26.471 209.329 25.6253C209.306 25.6045 209.251 25.5282 209.218 25.4849C209.2 25.4624 209.188 25.4364 209.185 25.4087C209.162 25.2666 209.147 25.121 209.121 24.9806C209.067 24.5959 209.03 24.225 208.989 23.8437C208.977 23.731 209.075 23.6392 209.188 23.6583C214.551 24.6166 216.847 21.9286 215.516 16.5024C215.299 15.7277 216.209 15.0968 215.849 14.3828C215.804 14.2944 215.849 14.1835 215.942 14.1541C218.221 13.4192 214.407 5.90286 212.821 9.89241C212.795 9.85775 212.778 9.81789 212.753 9.78149C212.753 9.78323 212.757 9.78669 212.758 9.78843C212.651 9.58912 212.405 9.47127 212.323 9.26504C212.316 9.24944 212.31 9.23384 212.297 9.21998C212.025 8.89069 211.739 8.5718 211.44 8.26505C211.382 8.20786 211.377 8.11947 211.422 8.05188C212.887 5.91153 211.881 3.57014 210.186 2.62388C209.543 2.38471 209.367 1.67935 208.963 1.19062C207.441 -1.03812 204.911 0.353544 203.084 1.3362C203.073 1.3414 203.063 1.3466 203.053 1.35006C202.219 1.62909 201.463 1.03638 200.713 0.76255C197.718 -0.558056 195.321 2.19407 193.655 4.33616C193.435 4.58399 193.165 4.78676 192.844 4.88381C192.836 4.88728 192.825 4.88901 192.815 4.89074C188.697 5.45746 189.128 8.70352 189.626 11.9218C189.629 11.9444 189.627 11.9652 189.622 11.9877C187.986 18.2944 195.044 23.5976 200.883 23.3099C200.903 23.3099 200.923 23.3099 200.943 23.3168C201.276 23.4243 201.694 23.6219 201.961 23.6496C205.344 23.7137 202.583 21.7553 202.581 21.7519C203.713 23.043 203.117 25.1626 203.756 26.6374C203.786 26.705 203.772 26.7865 203.716 26.8333C203.037 27.4086 201.917 27.6877 201.07 27.6374C199.269 27.5126 197.454 27.6686 195.697 28.0845C195.655 28.0949 195.612 28.088 195.576 28.0672C194.127 27.2267 192.695 26.3584 191.179 25.6444C191.184 25.6478 191.191 25.6513 191.196 25.6548C191.199 25.6548 191.201 25.6548 191.203 25.6582C187.787 24.017 184.435 23.2683 180.67 24.0291C180.362 23.9338 179.436 24.8818 178.934 25.6218C178.927 25.6322 178.918 25.6409 178.909 25.6496C178.35 26.3411 178.454 26.7362 178.457 26.7657C178.578 27.5975 179.19 31.4554 179.981 31.2994C181.123 31.0082 181.776 29.7154 182.553 28.9026C183.022 28.3774 182.887 27.5612 182.863 26.8714C182.858 26.7535 182.974 26.6651 183.086 26.705C187.145 28.088 191.246 30.0949 195.607 28.8176C195.65 28.8055 195.697 28.8107 195.737 28.8315C196.416 29.218 197.096 29.6096 197.799 29.9459C197.893 29.9909 197.924 30.107 197.865 30.192C193.941 35.7985 193.468 44.5592 192.466 51.3702C192.115 53.4759 191.868 55.0842 192.106 55.793C192.175 56.079 192.309 56.2592 192.387 56.3459C192.421 56.3857 192.435 56.4377 192.425 56.4897C191.584 60.5607 191.066 68.7131 191.073 68.7114C191.168 70.5051 188.977 76.5432 190.777 77.2017C190.837 77.2243 190.881 77.2745 190.886 77.3386C190.946 77.9885 191.3 78.5743 192.047 78.7546C192.12 78.7719 192.175 78.8326 192.182 78.9071C192.74 86.3888 192.617 93.7942 192.428 101.269C192.428 101.274 192.428 101.279 192.428 101.285C192.666 104.222 190.501 114.134 193.799 115.25C193.884 115.277 193.927 115.371 193.901 115.456C193.711 116.069 193.461 117.033 193.667 117.602C193.674 117.622 193.687 117.64 193.699 117.657C194.437 118.563 195.777 118.936 196.877 119.167C197.694 119.269 198.765 118.61 198.425 117.709C198.418 117.69 198.408 117.673 198.396 117.657C197.841 116.953 196.941 116.553 196.597 115.659C196.482 115.466 196.215 115.418 196.026 115.52C196.006 115.531 195.988 115.548 195.973 115.567C195.447 116.238 196.577 117.302 197.233 117.858C197.338 117.948 197.297 118.123 197.16 118.153C196.342 118.322 195.378 117.742 194.657 117.406C194.642 117.399 194.626 117.388 194.614 117.378C194.142 116.965 194.51 116.182 194.324 115.615C194.286 115.498 194.383 115.381 194.506 115.397C198.711 115.946 199.777 110.622 200.453 107.42C201.656 101.461 203.912 95.6122 203.904 89.4789C203.904 89.4754 203.904 89.4719 203.904 89.4685C204.216 83.6557 206.93 78.2312 207.441 72.4566C207.45 72.3526 207.55 72.2833 207.651 72.3092C211.337 73.2971 215.176 73.2815 218.932 73.8829C219.02 73.8968 219.085 73.9782 219.076 74.0683C218.511 80.0007 215.469 85.4391 214.252 91.2674C214.252 91.2726 214.251 91.2761 214.249 91.2795C213.687 93.0785 213.15 95.6088 215.22 96.5672C215.275 96.5932 215.313 96.6434 215.32 96.7041C215.48 98.4042 215.067 100.134 217.218 100.643C217.223 100.643 217.227 100.645 217.232 100.647C218.497 101.084 222.374 102.891 221.995 100.253C221.989 100.217 221.972 100.181 221.946 100.155C221.092 99.2846 219.728 98.9553 218.75 98.1928C218.717 98.1668 218.695 98.1304 218.686 98.0888C218.656 97.9346 218.648 97.7786 218.644 97.6209C218.643 97.5169 218.733 97.4354 218.835 97.451C219.634 97.5619 220.478 97.1893 220.75 96.4025C220.755 96.3869 220.762 96.3731 220.773 96.3592C225.62 90.0664 232.621 78.6541 231.609 70.5398C231.607 70.5207 231.602 70.5034 231.593 70.486C229.667 66.2227 218.535 60.1621 213.804 58.7202C213.707 58.6907 213.658 58.5867 213.698 58.4931C214.197 57.3181 214.83 54.1795 215.041 53.1535C215.069 53.0218 215.23 52.9733 215.324 53.0669C216.415 54.1414 217.542 55.975 219.26 55.3753C219.32 55.3545 219.388 55.3667 219.435 55.4117C221.726 57.6543 224.145 59.7999 226.95 61.3857C226.953 61.3874 226.958 61.3909 226.962 61.3926C228.007 61.9108 229.236 62.1898 230 63.1621C230.536 63.8241 232.576 65.6074 232.751 63.8951C232.751 63.8813 232.751 63.8657 232.751 63.8518C232.645 62.7946 231.498 62.0685 231.633 60.9593C231.643 60.8744 231.721 60.812 231.806 60.8155C231.846 60.8172 231.888 60.8241 231.929 60.8311C231.959 60.8363 231.986 60.8484 232.009 60.8675C232.659 61.422 232.349 63.247 233.328 63.0719C233.447 63.0511 233.551 63.1517 233.524 63.2712C233.096 65.1794 234.479 65.0199 235.108 63.5607C235.167 63.4238 235.363 63.4255 235.418 63.5641C235.569 63.9385 235.718 64.3475 236.023 64.5988C236.039 64.6109 236.054 64.6213 236.073 64.6282C236.643 64.8639 237.023 64.0997 236.99 63.5884C237.418 58.9056 234.226 58.5261 231.064 56.3389H231.059ZM193.96 28.3965C191.889 28.6721 189.792 28.4676 187.825 27.7587C186.548 27.3237 185.263 26.8714 183.979 26.4381C182.705 25.9979 181.345 25.6114 179.984 25.8437C179.857 25.8627 179.731 25.8818 179.604 25.9009C179.923 25.4087 180.315 24.9303 180.776 24.5543C180.776 24.5543 180.778 24.5543 180.78 24.5543C184.497 23.9026 187.558 24.5491 190.946 26.1695C190.936 26.1643 190.926 26.1591 190.913 26.1522C192.245 26.7778 193.508 27.5317 194.777 28.2769C194.506 28.3272 194.234 28.3688 193.96 28.3965ZM208.959 26.1626C209.034 26.147 210.422 26.8523 210.471 26.8714C210.495 26.8818 210.517 26.8922 210.54 26.9026C210.594 26.9268 210.646 26.9511 210.699 26.9788C210.859 27.0655 211.015 27.1712 211.133 27.3116C211.264 27.471 211.368 27.6703 211.42 27.8714C211.422 27.88 211.426 27.8904 211.427 27.9008C211.434 27.9286 211.44 27.9563 211.446 27.984C211.446 27.984 211.446 27.9875 211.446 27.9892C211.452 28.0152 211.455 28.0412 211.459 28.0689C211.459 28.0759 211.459 28.0828 211.46 28.088C211.462 28.1105 211.464 28.1331 211.466 28.1556C211.466 28.166 211.466 28.1764 211.466 28.1868C211.466 28.2059 211.466 28.2249 211.466 28.244C211.466 28.2561 211.464 28.27 211.462 28.2821C211.462 28.2977 211.459 28.315 211.457 28.3306C211.455 28.3462 211.45 28.3601 211.448 28.374C211.445 28.3878 211.346 28.8696 211.155 29.1348C211.105 29.2041 211.05 29.2682 210.978 29.3168C210.963 29.3272 210.942 29.3341 210.921 29.3393C210.561 28.8003 210.013 28.3844 209.46 28.0516C209.422 28.0273 209.353 27.9806 209.277 27.9372C209.28 27.9112 209.046 26.8298 209.018 26.7345C208.992 26.6409 208.947 26.166 208.963 26.1626H208.959ZM213.594 9.85428C213.819 9.46781 214.379 9.13679 214.873 9.79709C216.284 11.6809 216.662 13.6376 215.601 13.6359C214.637 13.6359 213.715 11.2338 213.715 11.2338C213.526 10.7659 213.453 10.0952 213.594 9.85255V9.85428ZM206.573 12.8213C206.793 12.5406 207.003 12.2407 207.226 11.9565C207.245 11.804 207.268 11.6515 207.29 11.499C207.344 11.1472 207.457 10.8023 207.607 10.4799C207.782 10.0986 208.016 9.7399 208.316 9.44354C208.542 9.22171 208.798 9.05707 209.077 8.91322C209.289 8.8023 209.521 8.73471 209.748 8.67406C209.916 8.629 210.611 8.45222 210.679 8.43143C210.741 8.41236 210.848 8.37077 210.894 8.44009C210.9 8.44876 211.873 9.51287 212.486 10.317C212.516 10.3569 212.547 10.3967 212.576 10.4366C212.63 10.5094 212.684 10.5822 212.732 10.6584C212.758 10.7 212.786 10.7399 212.81 10.7832C212.836 10.8248 212.862 10.8681 212.883 10.9132V10.9184C212.923 10.9721 212.961 11.0258 212.996 11.0813C212.999 11.0865 213.001 11.09 213.005 11.0952C212.859 11.1628 212.731 11.2997 212.642 11.5302C212.59 11.6931 212.561 11.8716 212.559 12.0484C212.431 11.8508 212.292 11.6602 212.147 11.4747C212.128 11.4435 212.084 11.3863 212.027 11.3187C211.871 11.0796 211.663 10.8803 211.398 10.7537C209.9 10.135 208.951 11.2286 208.88 12.6757C208.878 12.7381 208.878 12.8005 208.88 12.8629C208.008 13.0553 207.141 13.2667 206.306 13.5856C206.214 13.6289 206.122 13.6705 206.029 13.7121C206.186 13.4036 206.391 13.1107 206.571 12.8248L206.573 12.8213ZM211.932 16.0206C210.341 16.8715 208.401 12.8317 210.185 11.3933C211.453 10.3707 213.85 14.9946 211.932 16.0206ZM203.694 22.3515C203.699 22.3013 203.694 22.2458 203.671 22.1886C203.448 21.4607 202.741 21.0812 202.04 20.8801C201.982 20.8628 201.931 20.8299 201.893 20.7813C201.217 19.9044 200.548 18.998 200.358 17.8802C200.255 17.1765 200.299 16.3637 200.86 15.8559C201.151 15.6306 201.458 15.3551 201.819 15.2667C201.819 15.2667 201.82 15.2667 201.822 15.2667C201.905 15.2459 201.992 15.2355 202.082 15.2372C202.103 15.2372 202.124 15.2407 202.144 15.2459C202.642 15.3568 203.167 15.5145 203.545 15.8715C204.122 16.3065 204.495 17.0188 205.188 17.284C205.58 17.4053 206.044 17.3291 206.334 17.0258C206.665 16.6791 206.647 16.1523 206.45 15.7416C206.302 15.3949 206.035 15.0951 205.885 14.7502C205.978 14.5804 206.006 14.5319 206.1 14.362C206.112 14.3603 206.126 14.3568 206.138 14.3551C206.614 14.2736 207.091 14.1904 207.554 14.0726C207.562 14.0709 207.569 14.0674 207.578 14.0657C207.926 13.9478 208.28 13.8352 208.633 13.7208C208.798 13.6671 208.971 13.7728 208.999 13.9443C209.226 15.3845 210.089 16.7311 211.481 16.7311C211.594 16.7311 211.71 16.7225 211.829 16.7051C211.916 16.7051 211.999 16.6965 212.081 16.6757C212.414 16.596 212.693 16.3516 212.882 16.0639C213.431 15.2771 213.485 14.2251 213.187 13.2736C213.174 13.2321 213.166 13.1887 213.171 13.1454C213.188 13.0085 213.142 12.8178 213.138 12.7295C213.128 12.6324 213.114 12.5232 213.11 12.4106C213.1 12.1229 213.473 12.0016 213.629 12.2425C213.8 12.5059 213.953 12.7901 213.966 12.8144C213.986 12.8473 214.237 13.3742 214.32 13.5388C214.336 13.5683 214.355 13.5943 214.379 13.6185C214.474 13.7069 214.947 14.187 215.168 14.5735C215.221 14.667 215.204 14.7849 215.138 14.8715C214.701 15.4521 214.493 15.8698 214.551 16.4972C214.521 16.5145 214.493 16.5336 214.469 16.5578C213.875 17.232 213.185 17.2875 212.351 17.1332C212.341 17.1315 212.33 17.1297 212.32 17.1297C212.138 17.1211 211.937 17.0708 211.772 17.1696C211.334 17.6566 213.204 18.1141 213.519 18.0067C213.966 17.9668 214.369 17.7641 214.705 17.4781C214.778 17.4174 214.876 17.388 214.967 17.4157C215.01 17.4296 215.055 17.4365 215.1 17.4365C215.109 17.4365 215.117 17.433 215.126 17.433C215.299 18.842 215.28 20.3255 214.733 21.5456C214.726 21.5595 214.719 21.5751 214.71 21.589C214.058 22.6669 212.62 22.7848 211.471 22.9026C211.462 22.9026 211.455 22.9026 211.446 22.9026C210.594 22.9217 209.731 22.8992 208.899 22.6964C208.472 22.6028 208.055 22.4919 207.627 22.4052C207.327 22.3411 207.016 22.3515 206.713 22.2995C206.557 22.2891 206.211 22.147 206.2 22.4035C206.205 22.452 206.238 22.4936 206.28 22.5127C206.725 22.738 207.179 22.9546 207.653 23.1158C207.812 23.1765 207.971 23.2441 208.131 23.3116C208.219 23.3498 208.282 23.4295 208.301 23.5231C208.32 23.6201 208.341 23.7172 208.361 23.8125C208.367 23.835 208.368 23.8576 208.367 23.8801C208.344 24.3809 208.396 24.8056 208.531 25.2908C208.505 25.2873 208.483 25.2873 208.458 25.2856C207.495 25.1747 206.557 25.4849 205.663 25.8125C205.292 25.9598 204.916 26.1019 204.562 26.2839C204.358 26.166 204.359 26.166 204.153 26.0482C204.125 25.5352 204.105 25.0049 204.034 24.4971C203.95 23.6219 203.866 22.939 203.687 22.3463L203.694 22.3515ZM208.809 27.6357C208.034 27.4936 207.249 27.6079 206.477 27.4C205.987 27.2995 205.535 27.0828 205.065 26.9199C205.93 26.7293 207.623 26.0898 208.568 26.1712C208.568 26.2007 208.573 26.2301 208.581 26.2579C208.649 26.7189 208.736 27.1764 208.807 27.6357H208.809ZM203.917 27.1625C204.051 27.1799 204.183 27.1556 204.314 27.1192C204.827 27.2388 205.309 27.4572 205.803 27.6426C206.335 27.8298 206.888 27.9511 207.451 28.0031C207.821 28.0499 208.2 28.0447 208.562 28.1331C206.718 28.452 204.869 28.1105 203.021 27.8506C203.37 27.6669 203.72 27.4468 203.916 27.1625H203.917ZM196.517 28.6062C197.323 28.4398 198.141 28.3202 198.964 28.2786C199.314 28.2613 199.664 28.2561 200.016 28.2613C200.025 28.2613 200.033 28.2613 200.04 28.2613C200.047 28.2561 200.054 28.2561 200.061 28.2561C200.094 28.2561 200.125 28.2526 200.158 28.2561C200.193 28.2561 200.228 28.2648 200.26 28.2682C200.271 28.2682 200.281 28.2682 200.293 28.2682C200.293 28.2682 200.29 28.2682 200.29 28.27C200.307 28.27 200.326 28.27 200.345 28.27C200.352 28.27 200.361 28.27 200.368 28.2682C200.38 28.2682 200.392 28.2665 200.404 28.2665C200.43 28.2665 200.455 28.2665 200.482 28.2717C200.496 28.2717 200.508 28.2752 200.522 28.2769C200.522 28.2769 200.524 28.2769 200.526 28.2769C200.593 28.2873 200.659 28.2994 200.727 28.3098C200.727 28.3098 200.73 28.3098 200.732 28.3098C200.732 28.3098 200.746 28.3098 200.754 28.3116H200.751C200.751 28.3116 200.761 28.3116 200.768 28.3133C200.767 28.3133 200.763 28.3133 200.76 28.3116C200.848 28.322 200.936 28.3254 201.027 28.3254C201.07 28.3254 201.113 28.3254 201.155 28.3254C201.203 28.3254 201.252 28.3254 201.3 28.3254C201.325 28.3254 201.351 28.3254 201.375 28.3254C201.531 28.3237 201.685 28.3202 201.841 28.3289C201.881 28.3289 201.923 28.3341 201.962 28.3393C201.973 28.3393 201.983 28.341 201.994 28.3428C202.039 28.348 202.082 28.3549 202.125 28.3601C202.217 28.374 202.307 28.3896 202.397 28.4069C202.496 28.426 202.593 28.452 202.692 28.4814C202.704 28.4849 202.716 28.4883 202.727 28.4918C202.869 28.5126 203.011 28.5334 203.153 28.5559C204.916 28.8315 206.788 29.114 208.526 28.575C208.634 28.5369 208.88 28.452 209.013 28.3428C209.043 28.3722 209.075 28.3965 209.112 28.4173C209.432 29.0083 209.855 29.5733 210.478 29.8419C210.512 29.8592 210.552 29.8731 210.592 29.8835C208.642 31.3601 206.349 31.3999 203.921 31.0481C202.439 30.8089 200.975 30.5109 199.562 30.0256C199.536 30.0204 199.51 30.0152 199.484 30.01C199.489 30.01 199.493 30.01 199.498 30.01C199.444 29.9996 199.392 29.9857 199.34 29.9684C199.243 29.9372 199.148 29.8973 199.049 29.8627C198.992 29.8419 198.938 29.8176 198.883 29.7916C198.827 29.7674 198.777 29.7362 198.723 29.7084C198.676 29.6859 198.63 29.6634 198.581 29.6391C198.581 29.6391 198.584 29.6408 198.586 29.6426C198.572 29.6339 198.557 29.6287 198.541 29.6235C198.5 29.6079 198.456 29.5993 198.413 29.5819C198.399 29.5767 198.383 29.5715 198.371 29.5629C198.26 29.5143 198.149 29.4641 198.039 29.4121C197.524 29.1556 197.019 28.8818 196.519 28.6027L196.517 28.6062ZM192.576 55.0599C192.758 54.0963 192.924 53.1293 193.083 52.1605C194.359 52.3615 195.598 52.7549 196.889 52.9092C197.468 53.0166 199.768 53.1119 199.813 53.4222C199.98 54.5504 199.508 57.5451 199.169 57.9368C198.678 58.5018 195.331 57.3788 194.014 56.637C193.588 56.4152 193.118 56.2159 192.785 55.8554C192.695 55.7341 192.634 55.6006 192.591 55.462C192.551 55.332 192.551 55.1934 192.576 55.0599ZM192.193 78.1116C192.163 78.1029 192.135 78.096 192.108 78.0908C191.855 77.9678 191.621 77.7719 191.556 77.486C191.501 76.1861 191.621 74.8863 191.735 73.5935C191.738 73.5172 191.747 73.4462 191.766 73.3734C191.766 73.3196 191.718 73.2815 191.667 73.2867C191.6 73.2919 191.582 73.3716 191.574 73.4254C191.499 74.2139 191.042 75.4097 190.907 76.4825C190.889 76.4669 190.87 76.453 190.853 76.4374C189.972 75.33 191.662 70.3734 191.442 68.727C191.435 68.694 191.536 67.8102 191.584 67.4098C191.77 65.552 191.929 63.6924 192.186 61.8432C192.364 60.4602 192.548 59.0789 192.683 57.6925C192.709 57.351 192.745 57.0062 192.756 56.663C193.054 56.8727 193.388 57.0356 193.713 57.1968C195.099 57.9854 196.628 58.306 198.172 58.6197C198.125 58.8484 198.11 59.0859 198.052 59.3129C197.394 62.1638 196.803 65.0667 196.449 67.9783C196.375 68.7443 196.404 69.5155 196.529 70.2746C196.798 71.4652 197.11 72.6593 196.999 73.8933C196.95 74.3006 196.922 74.7165 196.857 75.1255L196.865 75.2884C196.879 75.3855 196.888 75.4825 196.884 75.5778C196.884 75.6004 196.883 75.6246 196.881 75.6472C196.884 75.7251 196.888 75.8031 196.889 75.8811C196.903 75.8881 196.917 75.8967 196.929 75.9054C196.95 75.9193 196.966 75.9383 196.981 75.9556C196.909 76.9123 196.753 77.8794 196.212 77.8984C196.227 77.8274 196.181 77.7771 196.125 77.7615C196.125 77.7477 196.127 77.7355 196.129 77.7217C196.163 77.6055 196.212 77.4981 196.265 77.3906C196.264 77.3594 196.262 77.33 196.26 77.2988C196.26 77.2693 196.259 77.2399 196.259 77.2104C196.245 77.1619 196.233 77.1133 196.22 77.0648C196.191 76.9504 196.168 76.8343 196.149 76.7182C196.149 76.7182 196.149 76.7165 196.149 76.7147C196.139 76.6454 196.132 76.5778 196.129 76.5085C196.123 76.427 196.142 76.3473 196.16 76.2693C196.163 76.2555 196.168 76.2416 196.174 76.2277C196.174 76.2069 196.174 76.1861 196.174 76.1654C196.174 76.1428 196.174 76.1203 196.174 76.0978C195.912 75.3213 195.508 74.5813 195.42 73.7616C195.475 73.7061 195.437 73.6004 195.357 73.5987C195.061 73.564 195.233 74.6697 195.231 74.8846C195.276 75.5016 195.456 76.0787 195.678 76.6558C195.735 76.7685 195.768 76.9088 195.818 77.0354C195.26 77.862 195.468 79.0145 195.324 79.9695C195.307 80.0821 195.222 80.1653 195.149 80.2467C195.148 80.2485 195.146 80.252 195.144 80.2537C195.144 80.2537 195.142 80.2537 195.141 80.252C195.023 80.1861 194.846 80.245 194.756 80.1324C194.685 79.6714 194.772 79.2849 194.744 78.7823C194.72 77.8759 194.622 76.9764 194.544 76.0735C194.534 75.9054 194.518 75.7355 194.52 75.5674C194.532 75.4912 194.468 75.4219 194.392 75.4219C194.316 75.4219 194.252 75.4929 194.264 75.5674C194.271 76.051 194.239 76.5328 194.175 77.0128C194.109 77.6315 193.752 78.7823 193.82 79.6436C193.645 79.5483 193.48 79.4409 193.329 79.3074C193.002 79.0353 193.064 78.6073 193.066 78.2294C193.054 77.3178 193.068 76.4062 193.109 75.4964C193.13 75.1862 193.113 74.8759 193.132 74.5675C193.153 74.4964 193.113 74.4149 193.037 74.3959C192.785 74.3664 192.862 74.7165 192.825 74.8759C192.79 75.2503 192.693 75.6108 192.6 75.973C192.447 76.5778 192.234 77.3698 192.189 78.1116H192.193ZM218.698 98.9484C219.159 99.2084 219.563 99.4753 220.045 99.763C220.417 100.028 220.956 100.129 221.241 100.489C220.726 100.933 219.263 100.172 218.639 100.014C218.124 99.8306 217.611 99.6416 217.105 99.4302C216.831 99.3175 216.518 99.1737 216.507 98.834C216.438 98.2327 216.473 97.6209 216.379 97.0212C216.903 97.1685 217.45 97.2656 217.979 97.3366C217.972 97.3678 217.831 98.1824 217.967 98.3488C218.15 98.6157 218.416 98.8011 218.698 98.9501V98.9484ZM214.694 50.8641C214.552 51.7185 214.415 52.5747 214.265 53.4274C214.244 53.5227 214.247 53.5279 214.232 53.6093C214.032 54.7133 213.809 55.8121 213.518 56.897C213.395 57.3493 213.256 57.8034 213.102 58.2522C213.072 58.3337 213.077 58.4221 213.11 58.4983C212.313 58.2401 211.507 58.0009 210.682 57.8502C209.426 57.6197 208.228 57.1725 207.006 56.8173C206.38 56.6318 205.753 56.4568 205.115 56.3355C204.952 56.2748 204.788 56.2159 204.623 56.1587C203.581 55.8017 202.476 55.8259 201.396 55.8987C201.209 55.8901 200.583 55.767 200.69 56.1136H200.687C200.794 56.3216 201.009 56.4221 201.203 56.5313C201.366 56.6439 201.534 56.7445 201.727 56.7965C202.2 56.9455 202.694 56.8155 203.174 56.7843C203.902 56.7323 204.718 56.8589 205.417 57.1171C206.406 57.4446 207.403 57.7739 208.405 58.0911C208.833 58.2522 209.263 58.4048 209.703 58.5278C210.037 58.6058 210.375 58.6924 210.715 58.7843C210.76 58.7964 210.803 58.8103 210.848 58.8224C210.866 58.8259 210.883 58.8294 210.9 58.8346C211.975 59.1309 213.062 59.4845 214.098 59.8484C215.783 60.3857 217.4 61.0737 218.92 61.9801C220.199 62.6785 221.506 63.3267 222.697 64.1742C223.457 64.6508 224.204 65.1482 224.943 65.6612C225.688 66.1482 226.475 66.5658 227.187 67.1031C227.971 67.701 228.536 68.5363 229.297 69.1585C231.08 70.5172 230.83 72.2451 230.456 74.2174C229.182 79.8672 226.551 85.1098 223.776 90.1548C223.045 91.3645 222.218 92.5118 221.404 93.666C220.906 94.3939 220.357 95.0906 219.923 95.8601C219.845 96.0056 219.858 96.1824 219.937 96.3211C219.849 96.4025 219.761 96.4805 219.674 96.5256C219.095 96.7075 218.462 96.4597 217.878 96.3731C217.017 96.1997 216.131 95.9814 215.421 95.4389C215.003 95.12 214.743 94.5741 214.83 94.0507C214.996 92.8445 215.31 91.6972 215.627 90.5222C216.445 87.6089 217.312 84.7112 218.357 81.8706C219.064 79.8637 219.766 77.8378 220.038 75.7182C220.114 74.947 220.298 74.1082 219.993 73.3682C219.851 73.0527 219.521 72.9106 219.199 72.8638C218.764 72.7893 218.322 72.7391 217.887 72.668C216.96 72.5467 216.027 72.4462 215.098 72.3266C214.079 72.1949 213.07 71.9921 212.057 71.8257C212.05 71.8257 212.041 71.824 212.034 71.8223C211.757 71.7477 211.479 71.6732 211.202 71.6021C209.963 71.3214 208.713 71.0978 207.481 70.7824C205.21 70.2001 202.871 69.4029 200.611 68.7252C200.281 68.6317 199.95 68.5398 199.612 68.4791C199.512 68.4584 199.371 68.4445 199.297 68.5329C199.222 68.6161 199.273 68.7582 199.377 68.7807C199.867 69.0493 200.33 69.3769 200.798 69.6871C201.401 70.0476 202.044 70.3353 202.677 70.642C204.101 71.2139 205.561 71.7235 207.044 72.1359C206.878 72.5917 206.727 73.0545 206.609 73.5259C206.082 75.4271 205.465 77.304 204.905 79.1965C204.027 81.8706 203.356 84.6002 202.841 87.368C202.436 89.2016 202.628 91.0941 202.377 92.945C201.921 95.8843 201.311 98.8011 200.675 101.707C200.254 103.532 199.865 105.361 199.449 107.187C198.947 109.135 198.659 111.184 197.486 112.877C197.016 113.707 196.231 114.314 195.279 114.47C194.704 114.524 194.141 114.342 193.581 114.239C193.485 114.154 193.388 114.056 193.345 113.934C193.13 113.371 193.045 112.77 192.955 112.177C192.605 109.175 193.059 106.17 193.262 103.177C193.621 96.5221 193.697 89.8411 193.191 83.193C193.083 82.1462 193.009 81.0977 192.95 80.0492C193.144 80.1653 193.38 80.2502 193.669 80.2918C193.791 80.2953 193.884 80.2364 193.943 80.1514C194.083 80.4929 194.362 80.7216 194.865 80.7389C194.962 80.7424 195.056 80.7355 195.149 80.6973C195.172 80.6887 195.191 80.6748 195.207 80.661C195.238 80.68 195.272 80.6956 195.312 80.7008C195.782 80.6696 196.033 80.1514 196.026 79.7251C196.064 79.2468 196.068 78.7667 196.094 78.2884C196.134 78.3213 196.177 78.3473 196.222 78.3646C196.46 78.4392 196.694 78.3074 196.884 78.174C197.2 77.9539 197.269 77.5431 197.298 77.1844C197.357 76.6437 197.383 76.0995 197.404 75.557C197.442 75.3733 197.472 75.1862 197.493 74.999C197.706 73.5276 197.666 72.0198 197.307 70.5744C197.085 69.3162 197.099 68.0164 197.302 66.7426C197.531 64.0303 198.387 61.3943 198.434 58.6665C198.664 58.7132 198.895 58.76 199.125 58.8103C199.132 58.8103 199.139 58.8103 199.144 58.8103C199.6 58.8103 199.741 58.2869 199.81 57.9195C199.995 57.0114 200.167 56.098 200.326 55.183C200.416 54.5192 200.588 53.8485 200.583 53.1795C200.486 52.9092 200.28 52.7289 200.03 52.6024C200.361 50.9837 200.748 49.3737 201.158 47.7741C201.936 44.9127 202.99 42.1537 204.041 39.3773C204.333 38.6147 204.54 37.8244 204.737 37.0324C204.76 36.9388 204.784 36.8453 204.808 36.7517C205.294 36.3097 205.656 35.743 205.847 35.1122C205.878 35.0065 205.834 34.8886 205.741 34.8297C205.448 34.6754 205.266 35.0827 205.065 35.23C205.008 35.2786 204.954 35.3288 204.904 35.3825C204.905 35.3583 204.911 35.334 204.911 35.3097C204.888 34.7898 204.976 34.2803 204.999 33.7586C204.999 33.5021 204.63 33.4432 204.562 33.6911C204.562 33.6911 204.562 33.6911 204.561 33.6911C204.309 34.2994 204.363 34.9805 204.179 35.6113C204.145 35.7621 204.11 35.9215 204.077 36.0827C204.072 36.0879 204.065 36.0914 204.06 36.0948C204.051 36.1018 204.042 36.1087 204.032 36.1174C203.912 36.561 203.793 37.003 203.664 37.4432C203.531 37.9007 203.363 38.3478 203.207 38.7967C203.018 39.3444 202.869 39.9041 202.703 40.4587C202.664 40.587 202.625 40.7135 202.583 40.8417C202.566 40.8937 202.548 40.944 202.531 40.996C202.482 41.1398 202.432 41.2854 202.377 41.4275C202.371 41.4414 202.366 41.457 202.361 41.4708C202.184 41.918 201.018 45.4049 200.872 45.963C200.73 46.5037 200.586 47.0444 200.446 47.5869C200.292 48.19 200.134 48.7931 199.976 49.3945C199.886 49.7394 199.796 50.0842 199.701 50.4274C199.597 50.8 199.338 52.1622 199.295 52.3771C199.202 52.358 196.817 52.1033 195.796 51.8884C194.964 51.7393 194.087 51.5071 193.22 51.4378C193.217 51.4343 193.213 51.4326 193.21 51.4291C194.087 45.9491 194.77 40.4189 196.681 35.1867C197.26 33.5403 197.754 31.7292 198.917 30.4069C200.64 31.0585 202.467 31.4502 204.299 31.6478C204.302 31.6478 204.306 31.6478 204.309 31.6478C204.394 31.6495 204.477 31.6547 204.562 31.6616C204.651 31.6685 204.739 31.6789 204.827 31.6876C204.822 31.6876 204.819 31.6876 204.814 31.6859C204.866 31.6911 204.918 31.6963 204.97 31.6997H204.966C205.087 31.7067 205.209 31.7119 205.33 31.7171C205.38 31.7188 205.431 31.724 205.481 31.7309C205.54 31.7396 205.6 31.7431 205.661 31.7448C205.723 31.7465 205.786 31.7483 205.85 31.75C205.89 31.7517 205.928 31.7552 205.968 31.7569H205.973C207.871 31.7569 209.651 31.2474 211.051 29.8904C211.063 29.8921 211.077 29.8956 211.089 29.8956C211.316 29.8956 211.507 29.6356 211.654 29.4017C212.564 30.7084 213.135 32.2266 213.708 33.7049C214.44 35.5333 214.793 37.4882 214.982 39.4431C215.133 40.8313 215.213 42.1623 215.152 43.5713C215.155 46.008 215.187 48.4586 214.703 50.8589L214.694 50.8641ZM216.067 48.3408C216.211 47.2108 216.23 43.4708 216.237 43.0375C216.23 42.3651 216.209 41.6892 216.171 41.015C216.178 41.0254 216.185 41.0376 216.192 41.048C216.438 41.3738 216.679 41.7065 216.916 42.0376C216.906 42.0428 216.896 42.0445 216.887 42.0514C216.904 42.0722 216.922 42.093 216.937 42.1155C217.006 42.2039 217.078 42.2889 217.147 42.3772C217.308 42.5765 217.471 42.7759 217.63 42.9752C217.929 43.3512 218.256 43.703 218.585 44.0514C218.653 44.1242 218.721 44.197 218.786 44.2715C218.781 44.2663 218.778 44.2628 218.774 44.2576C218.861 44.353 218.942 44.4517 219.02 44.554C219.057 44.6042 219.577 45.1224 219.36 45.3027C219.27 45.3997 219.178 45.4968 219.078 45.5817C219.071 45.5886 219.064 45.5938 219.055 45.599C218.956 45.6996 218.859 45.8001 218.76 45.9006C217.93 46.7949 217.414 47.9231 216.755 48.9421C216.32 49.6579 215.904 50.3875 215.499 51.1224C215.722 50.2021 215.944 49.2801 216.065 48.3408H216.067ZM218.336 54.6058C218.27 54.5885 216.393 53.3424 215.746 52.8069C215.398 52.5175 215.315 52.0201 215.547 51.6336C216.23 50.4985 217.703 48.7515 218.376 47.7169C218.74 47.1449 220.613 45.0271 220.627 45.0011C220.726 44.9769 220.826 44.9734 220.932 45.0185C221.125 45.0843 221.26 45.2992 221.411 45.4344C221.797 45.8521 223.482 47.6302 223.854 48.1103C224.017 48.3217 224.085 48.5921 224.033 48.8538C223.969 49.1761 223.84 49.4829 223.84 49.4829C223.834 49.5002 223.827 49.5193 223.82 49.5366C223.799 49.5886 223.776 49.6388 223.75 49.6891C223.747 49.696 223.743 49.703 223.74 49.7099C223.735 49.722 223.728 49.7324 223.721 49.7428C223.721 49.7446 223.717 49.748 223.717 49.7498C223.697 49.8035 223.497 50.1085 223.418 50.1952C223.395 50.2212 221.319 52.3338 220.944 52.6579C220.603 52.956 218.993 54.8883 218.339 54.6058H218.336ZM233.595 62.37C233.421 62.4151 233.39 62.6612 233.187 62.6577C233.168 62.6577 233.148 62.6525 233.13 62.6421C232.988 62.4706 232.99 62.2158 232.922 62.0096C232.851 61.6023 232.622 61.2643 232.357 60.9558C232.642 61.0633 232.915 61.1968 233.184 61.3423C233.385 61.6595 233.555 61.9853 233.65 62.3666C233.631 62.3666 233.614 62.3666 233.595 62.3718V62.37ZM234.054 64.1101C233.969 63.5399 234.297 62.9957 234.227 62.4324C234.156 62.1915 234.044 61.9645 233.908 61.7479C234.052 61.8293 234.196 61.9125 234.342 61.9888C234.545 62.1447 234.716 62.3319 234.865 62.5364C234.716 63.1031 234.48 63.7045 234.054 64.1118V64.1101ZM236.302 64.0754C235.898 63.3423 235.761 62.455 235.151 61.8414C234.792 61.4255 234.3 61.1863 233.82 60.9368C233.149 60.5798 232.39 60.169 231.607 60.3319C230.915 60.533 231.123 61.4047 231.316 61.909C231.576 62.6144 232.229 63.2071 232.234 63.987C232.234 63.9974 232.231 64.0078 232.229 64.0182C230.96 63.5433 230.357 62.1638 229.158 61.5711C225.617 60.7756 220.667 55.845 219.735 55.0391C220.393 54.514 221.35 53.6215 221.842 53.1813C222.367 52.7029 223.906 50.7948 223.941 50.7861C223.941 50.7861 223.941 50.7861 223.943 50.7861C223.946 50.7861 223.948 50.7861 223.951 50.7861C223.951 50.7861 223.953 50.7861 223.955 50.7861C223.981 50.7827 224.003 50.7913 224.024 50.8052C224.109 50.8468 224.184 50.9161 224.255 50.9768C224.327 51.0392 224.397 51.1068 224.464 51.1744C224.624 51.3321 224.785 51.4863 224.948 51.6405C224.981 51.6717 225.014 51.7029 225.048 51.7324C225.048 51.7324 225.048 51.7324 225.047 51.7324C225.05 51.7341 225.052 51.7376 225.055 51.7411C225.071 51.7549 225.085 51.7671 225.1 51.7809C225.1 51.7809 225.1 51.7809 225.099 51.7809C225.102 51.7844 225.104 51.7861 225.107 51.7896C225.109 51.7913 225.113 51.7931 225.114 51.7965C225.161 51.8381 225.208 51.8797 225.255 51.9213C225.25 51.9161 225.243 51.9109 225.236 51.904C225.596 52.2263 225.945 52.5625 226.295 52.8953C226.456 53.0495 226.619 53.2038 226.79 53.3476C226.969 53.5001 227.149 53.6509 227.328 53.8052C227.376 53.8468 227.425 53.8884 227.473 53.9299C227.463 53.9213 227.454 53.9126 227.444 53.9057C227.473 53.9299 227.503 53.9559 227.532 53.9802C227.541 53.9871 227.548 53.9941 227.556 54.001L227.541 53.9871C227.541 53.9871 227.551 53.9958 227.556 53.9993C227.563 54.0045 227.57 54.0114 227.577 54.0166C227.811 54.2124 228.049 54.4031 228.281 54.6006C228.527 54.8103 228.782 55.0097 229.03 55.2176L228.998 55.1916C229.023 55.2124 229.049 55.2332 229.073 55.2523C229.08 55.2575 229.085 55.2627 229.092 55.2679C229.092 55.2679 229.095 55.2696 229.095 55.2714C229.104 55.2783 229.111 55.2852 229.118 55.2904C229.127 55.2973 229.134 55.3025 229.142 55.3095C229.147 55.3147 229.153 55.3181 229.16 55.3233C229.154 55.3199 229.151 55.3164 229.146 55.3129C229.179 55.3389 229.21 55.3667 229.243 55.3927C229.248 55.3961 229.253 55.4013 229.258 55.4048C229.258 55.4048 229.26 55.4048 229.262 55.4065C229.264 55.4083 229.265 55.41 229.267 55.4117C229.271 55.4152 229.276 55.4187 229.279 55.4204C229.641 55.7133 230 56.0096 230.352 56.3112C230.416 56.3649 230.479 56.4204 230.543 56.4741C230.834 56.7202 231.125 56.9628 231.425 57.2003C231.539 57.2921 231.655 57.3822 231.771 57.4689C231.811 57.4966 231.849 57.5243 231.889 57.5521C231.884 57.5486 231.881 57.5451 231.875 57.5417C232.064 57.6682 232.253 57.7912 232.446 57.9091C232.642 58.0287 232.841 58.1413 233.042 58.254C233.137 58.3077 233.233 58.3614 233.328 58.4169C233.813 58.6318 234.298 58.845 234.756 59.124C235.498 59.637 236.295 60.2921 236.344 61.2678C236.418 61.857 236.425 62.4498 236.446 63.0425C236.429 63.351 236.508 63.7946 236.3 64.0771L236.302 64.0754ZM204.028 19.0951C203.943 18.8958 203.718 18.797 203.505 18.8455C203.43 18.8663 203.352 18.8524 203.276 18.842C202.562 18.5873 201.723 17.5162 202.25 16.8126C202.281 16.7849 202.349 16.7259 202.401 16.7346C202.657 16.7641 202.69 16.3915 202.432 16.3811C201.917 16.2979 201.503 16.7658 201.389 17.2147C201.134 18.0673 201.597 19.0275 202.34 19.5162C202.529 19.6496 202.885 19.7467 203.222 19.7536C203.24 19.7536 203.255 19.7536 203.271 19.7536C203.387 19.7536 203.5 19.7432 203.6 19.719C203.862 19.6566 204.054 19.511 204.047 19.2406C204.047 19.1956 204.039 19.1471 204.027 19.0951H204.028Z" fill="#010101"/>
</g>
<defs>
<clipPath id="clip0_884_23690">
<rect width="304" height="258" fill="white"/>
</clipPath>
</defs>
</svg>
