<svg width="92" height="104" viewBox="0 0 92 104" fill="none" xmlns="http://www.w3.org/2000/svg">
<g clip-path="url(#clip0_884_24662)">
<path fill-rule="evenodd" clip-rule="evenodd" d="M33.0512 25.4608C33.0512 23.8747 31.7534 22.5769 30.1673 22.5769H24.3995C22.8134 22.5769 21.5156 23.8747 21.5156 25.4608V31.2286C21.5156 32.8147 22.8134 34.1124 24.3995 34.1124H30.1673C31.7534 34.1124 33.0512 32.8147 33.0512 31.2286V25.4608ZM30.1673 31.2286H24.3995V25.4608H30.1673V31.2286Z" fill="#FCC72C"/>
<path fill-rule="evenodd" clip-rule="evenodd" d="M33.0512 41.3221C33.0512 39.736 31.7534 38.4382 30.1673 38.4382H24.3995C22.8134 38.4382 21.5156 39.736 21.5156 41.3221V47.0899C21.5156 48.676 22.8134 49.9738 24.3995 49.9738H30.1673C31.7534 49.9738 33.0512 48.676 33.0512 47.0899V41.3221ZM30.1673 47.0899H24.3995V41.3221H30.1673V47.0899Z" fill="#FCC72C"/>
<path fill-rule="evenodd" clip-rule="evenodd" d="M47.3842 25.4608C47.3842 23.8747 46.0864 22.5769 44.5003 22.5769H38.7325C37.1464 22.5769 35.8486 23.8747 35.8486 25.4608V31.2286C35.8486 32.8147 37.1464 34.1124 38.7325 34.1124H44.5003C46.0864 34.1124 47.3842 32.8147 47.3842 31.2286V25.4608ZM44.5003 31.2286H38.7325V25.4608H44.5003V31.2286Z" fill="#FCC72C"/>
<path fill-rule="evenodd" clip-rule="evenodd" d="M47.3842 41.3221C47.3842 39.736 46.0864 38.4382 44.5003 38.4382H38.7325C37.1464 38.4382 35.8486 39.736 35.8486 41.3221V47.0899C35.8486 48.676 37.1464 49.9738 38.7325 49.9738H44.5003C46.0864 49.9738 47.3842 48.676 47.3842 47.0899V41.3221ZM44.5003 47.0899H38.7325V41.3221H44.5003V47.0899Z" fill="#FCC72C"/>
<path fill-rule="evenodd" clip-rule="evenodd" d="M30.1673 54.2996H24.3995C22.8134 54.2996 21.5156 55.5973 21.5156 57.1834V62.9512C21.5156 64.5374 22.8134 65.8351 24.3995 65.8351H30.1673C31.7534 65.8351 33.0512 64.5374 33.0512 62.9512V57.1834C33.0512 55.5973 31.7534 54.2996 30.1673 54.2996ZM30.1673 62.9512H24.3995V57.1834H30.1673V62.9512Z" fill="#FCC72C"/>
<path fill-rule="evenodd" clip-rule="evenodd" d="M44.5003 54.2996H38.7325C37.1464 54.2996 35.8486 55.5973 35.8486 57.1834V62.9512C35.8486 64.5374 37.1464 65.8351 38.7325 65.8351H44.5003C46.0864 65.8351 47.3842 64.5374 47.3842 62.9512V57.1834C47.3842 55.5973 46.0864 54.2996 44.5003 54.2996ZM44.5003 62.9512H38.7325V57.1834H44.5003V62.9512Z" fill="#FCC72C"/>
<path d="M6.41851 7.8834C7.21487 7.8834 7.86045 7.23782 7.86045 6.44145C7.86045 5.64509 7.21487 4.99951 6.41851 4.99951C5.62214 4.99951 4.97656 5.64509 4.97656 6.44145C4.97656 7.23782 5.62214 7.8834 6.41851 7.8834Z" fill="#CAC8E5"/>
<path d="M6.41851 98.7257C7.21487 98.7257 7.86045 98.0801 7.86045 97.2837C7.86045 96.4874 7.21487 95.8418 6.41851 95.8418C5.62214 95.8418 4.97656 96.4874 4.97656 97.2837C4.97656 98.0801 5.62214 98.7257 6.41851 98.7257Z" fill="#CAC8E5"/>
<path d="M84.1392 98.9999C84.9356 98.9999 85.5812 98.3543 85.5812 97.5579C85.5812 96.7616 84.9356 96.116 84.1392 96.116C83.3428 96.116 82.6973 96.7616 82.6973 97.5579C82.6973 98.3543 83.3428 98.9999 84.1392 98.9999Z" fill="#CAC8E5"/>
<path d="M85.5816 25.1866C86.378 25.1866 87.0235 24.541 87.0235 23.7447C87.0235 22.9483 86.378 22.3027 85.5816 22.3027C84.7852 22.3027 84.1396 22.9483 84.1396 23.7447C84.1396 24.541 84.7852 25.1866 85.5816 25.1866Z" fill="#CAC8E5"/>
<path d="M12.1861 92.9581C12.9824 92.9581 13.628 92.3125 13.628 91.5162C13.628 90.7198 12.9824 90.0742 12.1861 90.0742C11.3897 90.0742 10.7441 90.7198 10.7441 91.5162C10.7441 92.3125 11.3897 92.9581 12.1861 92.9581Z" fill="#352A6B"/>
<path fill-rule="evenodd" clip-rule="evenodd" d="M84.1392 41.0481H68.1337C67.4127 41.1923 66.8359 41.7691 66.8359 42.49C66.8359 43.3552 67.4127 43.932 68.2779 43.932H84.2834C85.0044 43.7878 85.5812 43.211 85.5812 42.49C85.5812 41.6249 85.0044 41.0481 84.1392 41.0481Z" fill="#352A6B"/>
<path d="M54.0025 17.9769C54.7989 17.9769 55.4444 17.3313 55.4444 16.535C55.4444 15.7386 54.7989 15.093 54.0025 15.093C53.2061 15.093 52.5605 15.7386 52.5605 16.535C52.5605 17.3313 53.2061 17.9769 54.0025 17.9769Z" fill="#352A6B"/>
<path fill-rule="evenodd" clip-rule="evenodd" d="M16.5118 84.3063V17.9769H46.7926C47.5136 17.9769 48.0904 17.4001 48.2346 16.6792C48.2346 15.814 47.6578 15.2372 46.9368 15.093H15.0699C14.3489 15.093 13.7721 15.6698 13.6279 16.3908V84.3063C13.6279 85.1714 14.2047 85.7482 15.0699 85.7482C15.7908 85.7482 16.3676 85.1714 16.5118 84.4505V84.3063Z" fill="#352A6B"/>
<path fill-rule="evenodd" clip-rule="evenodd" d="M34.4068 84.3064C33.5416 84.3064 32.9648 84.8832 32.9648 85.7483V91.6603C33.109 92.3813 33.6858 92.9581 34.4068 92.9581C35.272 92.9581 35.8487 92.3813 35.8487 91.5161V85.6041C35.7045 84.8832 35.1278 84.3064 34.4068 84.3064Z" fill="#352A6B"/>
<path fill-rule="evenodd" clip-rule="evenodd" d="M78.5153 90.0741H55.4442V22.3028C55.4442 21.4376 54.8674 20.8608 54.0022 20.8608C53.2813 20.8608 52.7045 21.4376 52.5603 22.1586V90.0741H44.4998V78.5385H45.9418C46.8069 78.5385 47.3837 77.9618 47.3837 77.0966V71.3288C47.3837 70.4637 46.8069 69.8869 45.9418 69.8869H22.8707C22.0055 69.8869 21.4287 70.4637 21.4287 71.3288V77.0966C21.4287 77.9618 22.0055 78.5385 22.8707 78.5385H24.3126V90.0741H17.8095C17.0885 90.2183 16.5117 90.7951 16.5117 91.516C16.5117 92.3812 17.0885 92.958 17.9537 92.958H25.9132C26.6342 92.8138 27.2109 92.237 27.2109 91.516C27.2109 91.4728 27.1965 91.4439 27.1965 91.4151V78.5385H41.6159V91.6602C41.6159 91.6602 41.6592 91.7756 41.688 91.8477C41.7169 91.9486 41.7457 92.0496 41.789 92.1361C41.8178 92.1793 41.8466 92.2082 41.8611 92.2514C41.9187 92.3379 41.9764 92.4245 42.0629 92.511C42.1495 92.5975 42.2504 92.6696 42.3513 92.7417C42.3802 92.7561 42.409 92.7849 42.4378 92.7994C42.5388 92.857 42.6397 92.8859 42.7407 92.9147C42.7983 92.9291 42.856 92.958 42.9137 92.9724H78.3711C79.2362 92.9724 79.813 92.3956 79.813 91.5304C79.813 90.8095 79.2362 90.2327 78.5153 90.0885V90.0741ZM25.7546 75.6547H24.3126V72.7708H44.4998V75.6547H25.7546Z" fill="#352A6B"/>
<path fill-rule="evenodd" clip-rule="evenodd" d="M84.1395 47.0898H59.4823C58.7613 47.234 58.1846 47.8108 58.1846 48.676C58.3288 49.397 58.9055 49.9737 59.6265 49.9737H82.6976V91.6603C82.8418 92.3813 83.4186 92.958 84.1395 92.958C85.0047 92.958 85.5815 92.3813 85.5815 91.5161V48.3876C85.4373 47.6666 84.8605 47.0898 84.1395 47.0898Z" fill="#352A6B"/>
<path fill-rule="evenodd" clip-rule="evenodd" d="M59.8134 65.8351H66.5329C67.3548 65.8351 67.8883 65.3737 67.8883 64.6815V55.4531C67.8883 54.761 67.3404 54.2996 66.5329 54.2996H59.8134C58.9915 54.2996 58.458 54.761 58.458 55.4531V64.6815C58.458 65.3737 59.0059 65.8351 59.8134 65.8351ZM61.1689 56.6067H65.163V63.528H61.1689V56.6067Z" fill="#FCC72C"/>
<path fill-rule="evenodd" clip-rule="evenodd" d="M71.4931 65.8351H78.2126C79.0345 65.8351 79.568 65.3737 79.568 64.6815V55.4531C79.568 54.761 79.0201 54.2996 78.2126 54.2996H71.4931C70.6712 54.2996 70.1377 54.761 70.1377 55.4531V64.6815C70.1377 65.3737 70.6856 65.8351 71.4931 65.8351ZM72.8485 56.6067H76.8427V63.528H72.8485V56.6067Z" fill="#FCC72C"/>
<path fill-rule="evenodd" clip-rule="evenodd" d="M58.4434 79.548C58.4434 80.2401 58.9913 80.7016 59.7988 80.7016H66.5182C67.3401 80.7016 67.8737 80.2401 67.8737 79.548V70.3196C67.8737 69.6274 67.3257 69.166 66.5182 69.166H59.7988C58.9769 69.166 58.4434 69.6274 58.4434 70.3196V79.548ZM61.1686 71.4731H65.1628V78.3945H61.1686V71.4731Z" fill="#FCC72C"/>
<path fill-rule="evenodd" clip-rule="evenodd" d="M70.123 79.548C70.123 80.2401 70.671 80.7016 71.4785 80.7016H78.1979C79.0198 80.7016 79.5534 80.2401 79.5534 79.548V70.3196C79.5534 69.6274 79.0054 69.166 78.1979 69.166H71.4785C70.6566 69.166 70.123 69.6274 70.123 70.3196V79.548ZM72.8483 71.4731H76.8425V78.3945H72.8483V71.4731Z" fill="#FCC72C"/>
</g>
<defs>
<clipPath id="clip0_884_24662">
<rect width="82.0465" height="94.0002" fill="white" transform="translate(4.97656 4.99951)"/>
</clipPath>
</defs>
</svg>
