<svg width="137" height="136" viewBox="0 0 137 136" fill="none" xmlns="http://www.w3.org/2000/svg">
    <path fill-rule="evenodd" clip-rule="evenodd"
          d="M115.828 22.1C114.891 22.1 114.128 21.3373 114.128 20.4C114.128 19.4625 114.891 18.7 115.828 18.7C116.766 18.7 117.528 19.4625 117.528 20.4C117.528 21.3373 116.766 22.1 115.828 22.1Z"
          fill="#CACAFB"/>
    <path fill-rule="evenodd" clip-rule="evenodd"
          d="M69.9283 129.2C68.991 129.2 68.2283 128.437 68.2283 127.5C68.2283 126.563 68.991 125.8 69.9283 125.8C70.8657 125.8 71.6283 126.563 71.6283 127.5C71.6283 128.437 70.8657 129.2 69.9283 129.2Z"
          fill="#CACAFB"/>
    <path fill-rule="evenodd" clip-rule="evenodd"
          d="M25.7283 17C24.7909 17 24.0283 16.2374 24.0283 15.3C24.0283 14.3625 24.7909 13.6 25.7283 13.6C26.6657 13.6 27.4283 14.3625 27.4283 15.3C27.4283 16.2374 26.6657 17 25.7283 17Z"
          fill="#CACAFB"/>
    <path d="M71.6283 57.8C71.6283 55.9223 70.1061 54.4 68.2283 54.4C66.3505 54.4 64.8283 55.9223 64.8283 57.8V85C64.8283 86.8778 66.3505 88.4 68.2283 88.4C70.1061 88.4 71.6283 86.8778 71.6283 85V57.8Z"
          fill="#E1000F"/>
    <path d="M71.6283 98.6C71.6283 96.7223 70.1061 95.2 68.2283 95.2C66.3505 95.2 64.8283 96.7223 64.8283 98.6C64.8283 100.478 66.3505 102 68.2283 102C70.1061 102 71.6283 100.478 71.6283 98.6Z"
          fill="#E1000F"/>
    <path d="M66.7078 21.3398C67.3013 20.1527 68.9374 20.0902 69.6406 21.1523L69.7489 21.3398L115.649 113.14C116.184 114.211 115.475 115.461 114.324 115.589L114.128 115.6H100.528C99.5895 115.6 98.8284 114.839 98.8284 113.9C98.8284 113.028 99.4846 112.31 100.33 112.211L100.528 112.2H111.376L68.2284 25.9012L25.079 112.2H90.3284C91.2002 112.2 91.9187 112.856 92.0169 113.702L92.0284 113.9C92.0284 114.772 91.3721 115.49 90.5266 115.589L90.3284 115.6H22.3284C21.1311 115.6 20.3304 114.406 20.73 113.32L20.8078 113.14L66.7078 21.3398Z"
          fill="#000091"/>
    <path d="M102.228 78.2C101.291 78.2 100.528 77.4374 100.528 76.5C100.528 75.5626 101.291 74.8 102.228 74.8C103.166 74.8 103.928 75.5626 103.928 76.5C103.928 77.4374 103.166 78.2 102.228 78.2Z"
          fill="#000091"/>
    <path d="M107.05 82.3676C106.584 81.6552 105.648 81.3896 104.868 81.7795C104.028 82.1994 103.688 83.2205 104.108 84.0603L116.008 107.86L116.107 108.032C116.573 108.745 117.509 109.01 118.289 108.621C119.128 108.201 119.469 107.18 119.049 106.34L107.149 82.5398L107.05 82.3676Z"
          fill="#000091"/>
</svg>
