<svg width="137" height="136" viewBox="0 0 137 136" fill="none" xmlns="http://www.w3.org/2000/svg">
    <path fill-rule="evenodd" clip-rule="evenodd"
          d="M29.7641 13.6C28.8267 13.6 28.0641 12.8374 28.0641 11.9C28.0641 10.9626 28.8267 10.2 29.7641 10.2C30.7015 10.2 31.4641 10.9626 31.4641 11.9C31.4641 12.8374 30.7015 13.6 29.7641 13.6Z"
          fill="#CACAFB"/>
    <path fill-rule="evenodd" clip-rule="evenodd"
          d="M26.3641 122.4C25.4267 122.4 24.6641 121.637 24.6641 120.7C24.6641 119.763 25.4267 119 26.3641 119C27.3014 119 28.0641 119.763 28.0641 120.7C28.0641 121.637 27.3014 122.4 26.3641 122.4Z"
          fill="#CACAFB"/>
    <path fill-rule="evenodd" clip-rule="evenodd"
          d="M111.364 122.4C110.427 122.4 109.664 121.637 109.664 120.7C109.664 119.763 110.427 119 111.364 119C112.301 119 113.064 119.763 113.064 120.7C113.064 121.637 112.301 122.4 111.364 122.4Z"
          fill="#CACAFB"/>
    <path fill-rule="evenodd" clip-rule="evenodd"
          d="M111.364 17C110.427 17 109.664 16.2374 109.664 15.3C109.664 14.3626 110.427 13.6 111.364 13.6C112.301 13.6 113.064 14.3626 113.064 15.3C113.064 16.2374 112.301 17 111.364 17Z"
          fill="#CACAFB"/>
    <path fill-rule="evenodd" clip-rule="evenodd"
          d="M54.2501 65.7266C58.7258 67.567 61.8887 71.4809 62.0569 76.1113L62.064 76.5H58.664C58.664 71.8687 54.1504 68 48.464 68C42.9129 68 38.4796 71.6867 38.2716 76.1705L38.264 76.5H34.864C34.864 71.7006 38.0774 67.6183 42.6778 65.7266C41.0084 64.1746 39.964 61.9593 39.964 59.5C39.964 54.8056 43.7695 51 48.464 51C53.1584 51 56.964 54.8056 56.964 59.5C56.964 61.9593 55.9196 64.1746 54.2501 65.7266ZM48.464 64.6C51.2806 64.6 53.564 62.3166 53.564 59.5C53.564 56.6833 51.2806 54.4 48.464 54.4C45.6473 54.4 43.364 56.6833 43.364 59.5C43.364 62.3166 45.6473 64.6 48.464 64.6Z"
          fill="#E1000F"/>
    <path fill-rule="evenodd" clip-rule="evenodd"
          d="M33.164 40.8H63.764C66.5806 40.8 68.864 43.0833 68.864 45.9V79.9C68.864 82.7166 66.5806 85 63.764 85H33.164C30.3473 85 28.064 82.7166 28.064 79.9V45.9C28.064 43.0833 30.3473 40.8 33.164 40.8ZM63.764 44.2H33.164C32.2251 44.2 31.464 44.9611 31.464 45.9V79.9C31.464 80.8389 32.2251 81.6 33.164 81.6H63.764C64.7028 81.6 65.464 80.8389 65.464 79.9V45.9C65.464 44.9611 64.7028 44.2 63.764 44.2Z"
          fill="#E1000F"/>
    <path d="M14.4718 100.677C14.659 105.176 18.1819 108.8 22.5519 108.8H26.364L26.5622 108.789C27.4077 108.69 28.064 107.972 28.064 107.1L28.0526 106.902C27.9544 106.056 27.2358 105.4 26.364 105.4H22.5519L22.2789 105.391C19.8384 105.238 17.864 103.038 17.864 100.3V35.7L17.872 35.3981C18.0162 32.7018 20.079 30.6 22.5519 30.6H97.764L97.9622 30.5886C98.8077 30.4904 99.464 29.7718 99.464 28.9C99.464 27.9611 98.7029 27.2 97.764 27.2H22.5519L22.1897 27.2083C17.8687 27.4076 14.464 31.1548 14.464 35.7V100.3L14.4718 100.677Z"
          fill="#000091"/>
    <path d="M123.256 35.3232C123.069 30.8244 119.546 27.2 115.176 27.2H107.964L107.766 27.2114C106.92 27.3097 106.264 28.0282 106.264 28.9C106.264 29.8389 107.025 30.6 107.964 30.6H115.176L115.449 30.6086C117.89 30.7622 119.864 32.9618 119.864 35.7V100.3L119.856 100.602C119.712 103.298 117.649 105.4 115.176 105.4H67.164L66.9657 105.411C66.1203 105.51 65.464 106.228 65.464 107.1C65.464 108.039 66.2251 108.8 67.164 108.8H115.176L115.538 108.792C119.859 108.592 123.264 104.845 123.264 100.3V35.7L123.256 35.3232Z"
          fill="#000091"/>
    <path d="M60.364 95.2C61.3029 95.2 62.064 95.9611 62.064 96.9C62.064 97.7718 61.4077 98.4904 60.5622 98.5886L60.364 98.6H26.364C25.4251 98.6 24.664 97.8389 24.664 96.9C24.664 96.0282 25.3203 95.3097 26.1657 95.2115L26.364 95.2H60.364Z"
          fill="#000091"/>
    <path d="M96.064 96.9C96.064 95.9611 95.3029 95.2 94.364 95.2H90.964L90.7657 95.2115C89.9203 95.3097 89.264 96.0282 89.264 96.9C89.264 97.8389 90.0251 98.6 90.964 98.6H94.364L94.5622 98.5886C95.4077 98.4904 96.064 97.7718 96.064 96.9Z"
          fill="#000091"/>
    <path d="M111.364 95.2C112.303 95.2 113.064 95.9611 113.064 96.9C113.064 97.7718 112.408 98.4904 111.562 98.5886L111.364 98.6H101.164C100.225 98.6 99.464 97.8389 99.464 96.9C99.464 96.0282 100.12 95.3097 100.966 95.2115L101.164 95.2H111.364Z"
          fill="#000091"/>
    <path d="M65.464 96.9C65.464 97.8374 66.2266 98.6 67.164 98.6C68.1014 98.6 68.864 97.8374 68.864 96.9C68.864 95.9626 68.1014 95.2 67.164 95.2C66.2266 95.2 65.464 95.9626 65.464 96.9Z"
          fill="#000091"/>
    <path d="M73.964 98.6C73.0266 98.6 72.264 97.8374 72.264 96.9C72.264 95.9626 73.0266 95.2 73.964 95.2C74.9014 95.2 75.664 95.9626 75.664 96.9C75.664 97.8374 74.9014 98.6 73.964 98.6Z"
          fill="#000091"/>
    <path d="M109.664 42.5C109.664 41.5611 108.903 40.8 107.964 40.8H77.364L77.1657 40.8115C76.3203 40.9097 75.664 41.6282 75.664 42.5C75.664 43.4389 76.4251 44.2 77.364 44.2H107.964L108.162 44.1886C109.008 44.0904 109.664 43.3718 109.664 42.5Z"
          fill="#000091"/>
    <path d="M90.964 47.6C91.9029 47.6 92.664 48.3611 92.664 49.3C92.664 50.1718 92.0077 50.8904 91.1622 50.9886L90.964 51H77.364C76.4251 51 75.664 50.2389 75.664 49.3C75.664 48.4282 76.3203 47.7097 77.1657 47.6115L77.364 47.6H90.964Z"
          fill="#000091"/>
    <path d="M96.064 49.3C96.064 50.2374 96.8266 51 97.764 51C98.7014 51 99.464 50.2374 99.464 49.3C99.464 48.3626 98.7014 47.6 97.764 47.6C96.8266 47.6 96.064 48.3626 96.064 49.3Z"
          fill="#000091"/>
    <path d="M97.764 54.4C98.7029 54.4 99.464 55.1611 99.464 56.1C99.464 56.9718 98.8077 57.6904 97.9622 57.7886L97.764 57.8H77.364C76.4251 57.8 75.664 57.0389 75.664 56.1C75.664 55.2282 76.3203 54.5097 77.1657 54.4115L77.364 54.4H97.764Z"
          fill="#000091"/>
    <path fill-rule="evenodd" clip-rule="evenodd"
          d="M81.614 64.6C78.3279 64.6 75.664 67.2639 75.664 70.55C75.664 73.8361 78.3279 76.5 81.614 76.5C84.9001 76.5 87.564 73.8361 87.564 70.55C87.564 67.2639 84.9001 64.6 81.614 64.6ZM81.614 68C83.0223 68 84.164 69.1417 84.164 70.55C84.164 71.9583 83.0223 73.1 81.614 73.1C80.2057 73.1 79.064 71.9583 79.064 70.55C79.064 69.1417 80.2057 68 81.614 68Z"
          fill="#000091"/>
    <path d="M107.964 81.6C108.903 81.6 109.664 82.3611 109.664 83.3C109.664 84.1718 109.008 84.8904 108.162 84.9886L107.964 85H77.364C76.4251 85 75.664 84.2389 75.664 83.3C75.664 82.4282 76.3203 81.7097 77.1657 81.6115L77.364 81.6H107.964Z"
          fill="#000091"/>
    <path d="M85.864 96.9C85.864 95.9611 85.1029 95.2 84.164 95.2H80.764L80.5657 95.2115C79.7203 95.3097 79.064 96.0282 79.064 96.9C79.064 97.8389 79.8251 98.6 80.764 98.6H84.164L84.3623 98.5886C85.2077 98.4904 85.864 97.7718 85.864 96.9Z"
          fill="#000091"/>
</svg>
