<svg width="137" height="136" viewBox="0 0 137 136" fill="none" xmlns="http://www.w3.org/2000/svg">
    <path fill-rule="evenodd" clip-rule="evenodd"
          d="M29.5511 13.6C28.6137 13.6 27.8511 12.8374 27.8511 11.9C27.8511 10.9626 28.6137 10.2 29.5511 10.2C30.4885 10.2 31.2511 10.9626 31.2511 11.9C31.2511 12.8374 30.4885 13.6 29.5511 13.6Z"
          fill="#CACAFB"/>
    <path fill-rule="evenodd" clip-rule="evenodd"
          d="M12.5511 108.8C11.6137 108.8 10.8511 108.037 10.8511 107.1C10.8511 106.163 11.6137 105.4 12.5511 105.4C13.4885 105.4 14.2511 106.163 14.2511 107.1C14.2511 108.037 13.4885 108.8 12.5511 108.8Z"
          fill="#CACAFB"/>
    <path fill-rule="evenodd" clip-rule="evenodd"
          d="M131.551 98.6C130.614 98.6 129.851 97.8373 129.851 96.9C129.851 95.9625 130.614 95.2 131.551 95.2C132.488 95.2 133.251 95.9625 133.251 96.9C133.251 97.8373 132.488 98.6 131.551 98.6Z"
          fill="#CACAFB"/>
    <path fill-rule="evenodd" clip-rule="evenodd"
          d="M104.351 10.2C103.414 10.2 102.651 9.43737 102.651 8.49999C102.651 7.56253 103.414 6.79999 104.351 6.79999C105.289 6.79999 106.051 7.56253 106.051 8.49999C106.051 9.43737 105.289 10.2 104.351 10.2Z"
          fill="#CACAFB"/>
    <path fill-rule="evenodd" clip-rule="evenodd"
          d="M66.9511 71.4C61.3178 71.4 56.7511 75.9667 56.7511 81.6C56.7511 85.3755 58.8023 88.6718 61.8511 90.4354V96.9C61.8511 99.7167 64.1344 102 66.9511 102C69.7678 102 72.0511 99.7167 72.0511 96.9V90.4354C75.0999 88.6718 77.1511 85.3755 77.1511 81.6C77.1511 75.9667 72.5844 71.4 66.9511 71.4ZM66.9511 88.4C70.7066 88.4 73.7511 85.3556 73.7511 81.6C73.7511 77.8445 70.7066 74.8 66.9511 74.8C63.1956 74.8 60.1511 77.8445 60.1511 81.6C60.1511 85.3556 63.1956 88.4 66.9511 88.4ZM65.2511 91.8V96.9C65.2511 97.7718 65.9074 98.4904 66.7528 98.5886L66.9511 98.6C67.89 98.6 68.6511 97.8389 68.6511 96.9V91.8H65.2511Z"
          fill="#E1000F"/>
    <path d="M100.499 106.286L100.344 107.936H98.2687L97.9155 104.257C100.477 103.99 102.154 103.432 102.154 101.537C102.154 100.378 101.271 99.5754 100.123 99.5754C98.9531 99.5754 98.2245 100.2 97.4077 101.426L95.0012 99.9321C96.2375 97.9479 97.9155 96.9 100.256 96.9C102.861 96.9 105.201 98.7059 105.201 101.537C105.201 104.146 103.236 105.818 100.499 106.286Z"
          fill="#000091"/>
    <path d="M101.249 111.28C101.249 112.328 100.344 113.22 99.3284 113.22C98.2687 113.22 97.3856 112.328 97.3856 111.28C97.3856 110.232 98.2687 109.341 99.3284 109.341C100.344 109.341 101.249 110.232 101.249 111.28Z"
          fill="#000091"/>
    <path fill-rule="evenodd" clip-rule="evenodd"
          d="M66.9512 17C83.5623 17 95.8512 26.6162 95.8512 41.1251C95.8512 42.064 95.0901 42.8251 94.1512 42.8251C93.2123 42.8251 92.4512 42.064 92.4512 41.1251C92.4512 28.7019 81.842 20.4 66.9512 20.4C52.2672 20.4 41.7467 28.4729 41.4573 40.6099L41.4512 41.1251V47.6H48.2512C51.0678 47.6 53.3512 49.8833 53.3512 52.7V56.1C53.3512 56.6961 53.2489 57.2683 53.061 57.8H80.8414C80.6534 57.2683 80.5512 56.6961 80.5512 56.1V52.7C80.5512 49.8833 82.8345 47.6 85.6512 47.6V41.8588C85.6512 33.0953 77.8364 27.2 66.7691 27.2C57.1228 27.2 49.777 31.7561 48.2109 38.8183C48.0076 39.7349 47.0997 40.3132 46.1831 40.1099C45.2665 39.9066 44.6882 38.9988 44.8915 38.0821C46.8451 29.2725 55.6685 23.8 66.7691 23.8C79.3426 23.8 88.7577 30.7566 89.0444 41.3592L89.0512 41.8588V47.6H94.1512C96.9678 47.6 99.2512 49.8833 99.2512 52.7V56.1C99.2512 56.6961 99.1489 57.2683 98.961 57.8H99.324C102.993 57.8 105.872 61.0674 106.043 65.0584L106.051 65.4345V76.5C106.051 77.4389 105.29 78.2 104.351 78.2C103.479 78.2 102.761 77.5437 102.663 76.6983L102.651 76.5V65.4345C102.651 63.1433 101.226 61.361 99.5535 61.2103L99.324 61.2H31.1783C29.486 61.2 27.987 62.8827 27.8599 65.1254L27.8512 65.4345V81.6H39.7512C40.6901 81.6 41.4512 82.3611 41.4512 83.3C41.4512 84.1718 40.7949 84.8904 39.9494 84.9886L39.7512 85H27.8512V95.2H38.0512L38.3508 95.2087C41.028 95.3638 43.1512 97.5839 43.1512 100.3V112.2H83.6657C82.7559 110.118 82.2512 107.818 82.2512 105.4C82.2512 96.0112 89.8623 88.4 99.2512 88.4C108.64 88.4 116.251 96.0112 116.251 105.4C116.251 114.789 108.64 122.4 99.2512 122.4C93.6894 122.4 88.7514 119.729 85.6499 115.6H31.1783C27.5094 115.6 24.6303 112.333 24.4592 108.342L24.4512 107.965V65.4345C24.4512 61.4009 27.219 58.0112 30.8367 57.8095L31.1783 57.8H34.9414C34.7534 57.2683 34.6512 56.6961 34.6512 56.1V52.7C34.6512 50.4707 36.0815 48.5755 38.0745 47.882C38.0698 47.8543 38.0659 47.8264 38.0626 47.7983L38.0512 47.6V41.1251C38.0512 26.6162 50.34 17 66.9512 17ZM94.1512 57.8C95.0901 57.8 95.8512 57.0389 95.8512 56.1V52.7C95.8512 51.7611 95.0901 51 94.1512 51H85.6512C84.7123 51 83.9512 51.7611 83.9512 52.7V56.1C83.9512 57.0389 84.7123 57.8 85.6512 57.8H94.1512ZM49.9512 56.1C49.9512 57.0389 49.1901 57.8 48.2512 57.8H39.7512C38.8123 57.8 38.0512 57.0389 38.0512 56.1V52.7C38.0512 51.7611 38.8123 51 39.7512 51H48.2512C49.1901 51 49.9512 51.7611 49.9512 52.7V56.1ZM27.8512 107.965V98.6H38.0512C38.923 98.6 39.6415 99.2563 39.7397 100.102L39.7512 100.3V112.2H31.1783L30.9489 112.19C29.2766 112.039 27.8512 110.257 27.8512 107.965ZM99.2512 91.8C106.762 91.8 112.851 97.8889 112.851 105.4C112.851 112.911 106.762 119 99.2512 119C91.7401 119 85.6512 112.911 85.6512 105.4C85.6512 97.8889 91.7401 91.8 99.2512 91.8Z"
          fill="#000091"/>
    <path d="M106.051 83.3C106.051 84.2389 105.29 85 104.351 85C103.412 85 102.651 84.2389 102.651 83.3C102.651 82.3611 103.412 81.6 104.351 81.6C105.29 81.6 106.051 82.3611 106.051 83.3Z"
          fill="#000091"/>
    <path d="M44.8512 83.3C44.8512 82.3611 45.6123 81.6 46.5512 81.6C47.4901 81.6 48.2512 82.3611 48.2512 83.3C48.2512 84.2389 47.4901 85 46.5512 85C45.6123 85 44.8512 84.2389 44.8512 83.3Z"
          fill="#000091"/>
</svg>
