<svg width="137" height="136" viewBox="0 0 137 136" fill="none" xmlns="http://www.w3.org/2000/svg">
    <path fill-rule="evenodd" clip-rule="evenodd"
          d="M116.038 22.1C115.101 22.1 114.338 21.3373 114.338 20.4C114.338 19.4625 115.101 18.7 116.038 18.7C116.976 18.7 117.738 19.4625 117.738 20.4C117.738 21.3373 116.976 22.1 116.038 22.1Z"
          fill="#CACAFB"/>
    <path fill-rule="evenodd" clip-rule="evenodd"
          d="M70.1381 129.2C69.2007 129.2 68.4381 128.437 68.4381 127.5C68.4381 126.563 69.2007 125.8 70.1381 125.8C71.0755 125.8 71.8381 126.563 71.8381 127.5C71.8381 128.437 71.0755 129.2 70.1381 129.2Z"
          fill="#CACAFB"/>
    <path fill-rule="evenodd" clip-rule="evenodd"
          d="M25.9382 17C25.0008 17 24.2382 16.2374 24.2382 15.3C24.2382 14.3625 25.0008 13.6 25.9382 13.6C26.8755 13.6 27.6382 14.3625 27.6382 15.3C27.6382 16.2374 26.8755 17 25.9382 17Z"
          fill="#CACAFB"/>
    <path d="M27.6381 37.4C26.7007 37.4 25.9381 36.6374 25.9381 35.7C25.9381 34.7625 26.7007 34 27.6381 34C28.5755 34 29.3381 34.7625 29.3381 35.7C29.3381 36.6374 28.5755 37.4 27.6381 37.4Z"
          fill="#E1000F"/>
    <path d="M34.4381 37.4C33.5007 37.4 32.7381 36.6374 32.7381 35.7C32.7381 34.7625 33.5007 34 34.4381 34C35.3755 34 36.1381 34.7625 36.1381 35.7C36.1381 36.6374 35.3755 37.4 34.4381 37.4Z"
          fill="#E1000F"/>
    <path d="M39.5381 35.7C39.5381 36.6374 40.3007 37.4 41.2381 37.4C42.1755 37.4 42.9381 36.6374 42.9381 35.7C42.9381 34.7625 42.1755 34 41.2381 34C40.3007 34 39.5381 34.7625 39.5381 35.7Z"
          fill="#E1000F"/>
    <path d="M105.838 34C106.777 34 107.538 34.7611 107.538 35.7C107.538 36.5718 106.882 37.2904 106.036 37.3886L105.838 37.4H54.8381C53.8992 37.4 53.1381 36.6389 53.1381 35.7C53.1381 34.8282 53.7944 34.1096 54.6399 34.0114L54.8381 34H105.838Z"
          fill="#E1000F"/>
    <path fill-rule="evenodd" clip-rule="evenodd"
          d="M87.6351 84.5012C87.3165 85.167 87.1381 85.9127 87.1381 86.7C87.1381 89.5167 89.4215 91.8 92.2381 91.8C95.0548 91.8 97.3381 89.5167 97.3381 86.7C97.3381 85.6543 97.0234 84.682 96.4834 83.8729L103.798 74.12L103.915 73.9415C104.334 73.2079 104.151 72.26 103.458 71.74C102.707 71.1767 101.641 71.3289 101.078 72.08L93.764 81.8322C93.2822 81.6813 92.7696 81.6 92.2381 81.6C91.4508 81.6 90.7051 81.7784 90.0393 82.097L86.6402 78.6979L86.48 78.5565C85.8131 78.038 84.8489 78.0851 84.236 78.6979C83.5721 79.3618 83.5721 80.4382 84.236 81.1021L87.6351 84.5012ZM92.2381 85C93.177 85 93.9381 85.7611 93.9381 86.7C93.9381 87.6389 93.177 88.4 92.2381 88.4C91.2992 88.4 90.5381 87.6389 90.5381 86.7C90.5381 85.7611 91.2992 85 92.2381 85Z"
          fill="#E1000F"/>
    <path d="M114.327 28.7018C114.228 27.8563 113.51 27.2 112.638 27.2H20.8381L20.6398 27.2114C19.7943 27.3097 19.1381 28.0282 19.1381 28.9V107.1L19.1495 107.298C19.2477 108.144 19.9662 108.8 20.8381 108.8H61.6381L61.8363 108.789C62.6818 108.69 63.3381 107.972 63.3381 107.1L63.3266 106.902C63.2284 106.056 62.5099 105.4 61.6381 105.4H22.5381V44.2H85.4381L85.6363 44.1886C86.4818 44.0904 87.1381 43.3718 87.1381 42.5C87.1381 41.5611 86.3769 40.8 85.4381 40.8H22.5381V30.6H110.938V56.1L110.95 56.2983C111.048 57.1437 111.766 57.8 112.638 57.8C113.577 57.8 114.338 57.0389 114.338 56.1V28.9L114.327 28.7018Z"
          fill="#000091"/>
    <path d="M121.138 86.7C121.138 70.739 108.199 57.8 92.2381 57.8C76.277 57.8 63.3381 70.739 63.3381 86.7C63.3381 101.356 74.247 113.463 88.3877 115.346L87.636 116.098L87.4946 116.258C86.976 116.925 87.0232 117.889 87.636 118.502C88.2999 119.166 89.3763 119.166 90.0401 118.502L93.4401 115.102C93.4901 115.052 93.537 114.999 93.5805 114.943C93.6753 114.821 93.7522 114.688 93.8092 114.55C93.8817 114.376 93.9258 114.186 93.9359 113.987C93.9373 113.959 93.9381 113.929 93.9381 113.9C93.9381 113.671 93.8927 113.452 93.8106 113.253C93.7276 113.051 93.6041 112.862 93.4401 112.698L90.0401 109.298L89.88 109.157C89.2131 108.638 88.2488 108.685 87.636 109.298L87.4946 109.458C86.976 110.125 87.0232 111.089 87.636 111.702L87.738 111.804C75.801 109.679 66.7381 99.2478 66.7381 86.7C66.7381 72.6168 78.1548 61.2 92.2381 61.2C106.321 61.2 117.738 72.6168 117.738 86.7C117.738 92.6483 115.697 98.279 112.018 102.794C111.425 103.522 111.535 104.593 112.263 105.186C112.991 105.779 114.061 105.67 114.654 104.942C118.823 99.8254 121.138 93.4379 121.138 86.7Z"
          fill="#000091"/>
    <path d="M110.303 109.26C111.035 108.672 111.153 107.602 110.566 106.87C109.978 106.137 108.908 106.02 108.176 106.607C107.173 107.411 106.111 108.138 104.999 108.782C104.187 109.253 103.91 110.293 104.38 111.105C104.851 111.918 105.891 112.195 106.704 111.724C107.964 110.995 109.167 110.17 110.303 109.26Z"
          fill="#000091"/>
    <path d="M96.0163 68.3822C94.7817 68.1288 93.5176 68 92.2381 68C81.9103 68 73.5381 76.3723 73.5381 86.7C73.5381 97.0277 81.9103 105.4 92.2381 105.4C102.566 105.4 110.938 97.0277 110.938 86.7C110.938 84.123 110.416 81.6161 109.416 79.2983C109.044 78.4362 108.043 78.0389 107.181 78.4108C106.319 78.7827 105.922 79.783 106.294 80.6451C107.111 82.5396 107.538 84.5883 107.538 86.7C107.538 95.15 100.688 102 92.2381 102C83.7881 102 76.9381 95.15 76.9381 86.7C76.9381 78.2501 83.7881 71.4 92.2381 71.4C93.2877 71.4 94.3226 71.5055 95.3326 71.7128C96.2523 71.9016 97.151 71.3091 97.3398 70.3894C97.5286 69.4697 96.936 68.571 96.0163 68.3822Z"
          fill="#000091"/>
    <path d="M65.0381 54.4C65.9769 54.4 66.7381 55.1611 66.7381 56.1C66.7381 56.9718 66.0818 57.6904 65.2363 57.7886L65.0381 57.8H34.4381C33.4992 57.8 32.7381 57.0389 32.7381 56.1C32.7381 55.2282 33.3943 54.5097 34.2398 54.4114L34.4381 54.4H65.0381Z"
          fill="#000091"/>
    <path d="M59.9381 66.3C59.9381 65.3611 59.1769 64.6 58.2381 64.6H34.4381L34.2398 64.6115C33.3943 64.7097 32.7381 65.4282 32.7381 66.3C32.7381 67.2389 33.4992 68 34.4381 68H58.2381L58.4363 67.9886C59.2818 67.8904 59.9381 67.1718 59.9381 66.3Z"
          fill="#000091"/>
    <path d="M54.8381 74.8C55.7769 74.8 56.5381 75.5611 56.5381 76.5C56.5381 77.3718 55.8818 78.0904 55.0363 78.1886L54.8381 78.2H34.4381C33.4992 78.2 32.7381 77.4389 32.7381 76.5C32.7381 75.6282 33.3943 74.9097 34.2398 74.8115L34.4381 74.8H54.8381Z"
          fill="#000091"/>
</svg>
