<svg width="40" height="24" viewBox="0 0 40 24" fill="none" xmlns="http://www.w3.org/2000/svg">
    <rect width="40" height="24" rx="2" fill="#E3E3FD"/>
    <path d="M9.236 17V8.6H12.008C13.856 8.6 14.984 9.548 14.984 11.108C14.984 12.656 13.856 13.604 12.008 13.604H10.94V17H9.236ZM12.08 10.016H10.94V12.188H12.08C12.8 12.188 13.232 11.768 13.232 11.084C13.232 10.448 12.8 10.016 12.08 10.016ZM16.5133 17V8.6H19.8133C22.4773 8.6 24.2773 10.532 24.2773 12.8C24.2773 15.068 22.4773 17 19.8133 17H16.5133ZM19.8373 10.148H18.2173V15.452H19.8373C21.3973 15.452 22.5253 14.288 22.5253 12.8C22.5253 11.3 21.3973 10.148 19.8373 10.148ZM26.0407 17V8.6H30.9367V10.016H27.7447V12.008H30.4567V13.424H27.7447V17H26.0407Z" fill="#000091"/>
</svg>