<svg width="136" height="136" viewBox="0 0 136 136" fill="none" xmlns="http://www.w3.org/2000/svg">
    <path fill-rule="evenodd" clip-rule="evenodd"
          d="M127.501 105.4C126.563 105.4 125.801 104.637 125.801 103.7C125.801 102.763 126.563 102 127.501 102C128.438 102 129.201 102.763 129.201 103.7C129.201 104.637 128.438 105.4 127.501 105.4Z"
          fill="#CACAFB"/>
    <path fill-rule="evenodd" clip-rule="evenodd"
          d="M93.5008 6.79999C92.5634 6.79999 91.8008 6.03737 91.8008 5.09999C91.8008 4.16253 92.5634 3.39999 93.5008 3.39999C94.4382 3.39999 95.2008 4.16253 95.2008 5.09999C95.2008 6.03737 94.4382 6.79999 93.5008 6.79999Z"
          fill="#CACAFB"/>
    <path fill-rule="evenodd" clip-rule="evenodd"
          d="M5.10039 91.8C4.16301 91.8 3.40039 91.0374 3.40039 90.1C3.40039 89.1625 4.16301 88.4 5.10039 88.4C6.03777 88.4 6.80039 89.1625 6.80039 90.1C6.80039 91.0374 6.03777 91.8 5.10039 91.8Z"
          fill="#CACAFB"/>
    <path d="M90.0998 79.9C90.0998 78.9611 89.3387 78.2 88.3998 78.2H44.1998L44.0015 78.2114C43.1561 78.3096 42.4998 79.0282 42.4998 79.9C42.4998 80.8389 43.2609 81.6 44.1998 81.6H88.3998L88.5981 81.5886C89.4435 81.4904 90.0998 80.7718 90.0998 79.9Z"
          fill="#000091"/>
    <path d="M79.8998 69.7C79.8998 68.7611 79.1387 68 78.1998 68H44.1998L44.0015 68.0114C43.1561 68.1096 42.4998 68.8282 42.4998 69.7C42.4998 70.6389 43.2609 71.4 44.1998 71.4H78.1998L78.3981 71.3886C79.2435 71.2904 79.8998 70.5718 79.8998 69.7Z"
          fill="#000091"/>
    <path d="M78.1998 98.6C79.1387 98.6 79.8998 99.3611 79.8998 100.3C79.8998 101.172 79.2435 101.89 78.3981 101.989L78.1998 102H44.1998C43.2609 102 42.4998 101.239 42.4998 100.3C42.4998 99.4282 43.1561 98.7096 44.0015 98.6114L44.1998 98.6H78.1998Z"
          fill="#000091"/>
    <path d="M69.6998 90.1C69.6998 89.1611 68.9387 88.4 67.9998 88.4H44.1998L44.0015 88.4114C43.1561 88.5096 42.4998 89.2282 42.4998 90.1C42.4998 91.0389 43.2609 91.8 44.1998 91.8H67.9998L68.1981 91.7886C69.0435 91.6904 69.6998 90.9718 69.6998 90.1Z"
          fill="#000091"/>
    <path fill-rule="evenodd" clip-rule="evenodd"
          d="M33.9998 17H98.5998C99.5387 17 100.3 17.7611 100.3 18.7V110.5C100.3 111.439 99.5387 112.2 98.5998 112.2H33.9998C33.0609 112.2 32.2998 111.439 32.2998 110.5V18.7C32.2998 17.7611 33.0609 17 33.9998 17ZM96.8998 108.8V20.4H35.6998V108.8H96.8998Z"
          fill="#000091"/>
    <path d="M105.4 30.6C106.272 30.6 106.99 31.2563 107.088 32.1017L107.1 32.3V117.3C107.1 118.172 106.444 118.89 105.598 118.989L105.4 119H47.5998C46.6609 119 45.8998 118.239 45.8998 117.3C45.8998 116.428 46.5561 115.71 47.4015 115.611L47.5998 115.6H103.7V32.3C103.7 31.4282 104.356 30.7096 105.202 30.6114L105.4 30.6Z"
          fill="#000091"/>
    <path d="M68 30.6C68 29.6611 67.2389 28.9 66.3 28.9C65.3611 28.9 64.6 29.6611 64.6 30.6C64.6 31.5389 65.3611 32.3 66.3 32.3C67.2389 32.3 68 31.5389 68 30.6Z"
          fill="#E1000F"/>
    <path d="M77.7021 35.2021C78.366 34.5382 78.366 33.4618 77.7021 32.7979C77.0382 32.134 75.9618 32.134 75.2979 32.7979C74.634 33.4618 74.634 34.5382 75.2979 35.2021C75.9618 35.866 77.0382 35.866 77.7021 35.2021Z"
          fill="#E1000F"/>
    <path d="M57.3021 53.1979C57.966 53.8618 57.966 54.9382 57.3021 55.6021C56.6382 56.266 55.5618 56.266 54.8979 55.6021C54.234 54.9382 54.234 53.8618 54.8979 53.1979C55.5618 52.534 56.6382 52.534 57.3021 53.1979Z"
          fill="#E1000F"/>
    <path d="M66.3 56.1C67.2389 56.1 68 56.8611 68 57.8C68 58.7389 67.2389 59.5 66.3 59.5C65.3611 59.5 64.6 58.7389 64.6 57.8C64.6 56.8611 65.3611 56.1 66.3 56.1Z"
          fill="#E1000F"/>
    <path d="M77.7021 55.6021C78.366 54.9382 78.366 53.8618 77.7021 53.1979C77.0382 52.534 75.9618 52.534 75.2979 53.1979C74.634 53.8618 74.634 54.9382 75.2979 55.6021C75.9618 56.266 77.0382 56.266 77.7021 55.6021Z"
          fill="#E1000F"/>
    <path d="M81.6 44.2C81.6 43.2611 80.8389 42.5 79.9 42.5C78.9611 42.5 78.2 43.2611 78.2 44.2C78.2 45.1389 78.9611 45.9 79.9 45.9C80.8389 45.9 81.6 45.1389 81.6 44.2Z"
          fill="#E1000F"/>
    <path d="M52.7 42.5C53.6389 42.5 54.4 43.2611 54.4 44.2C54.4 45.1389 53.6389 45.9 52.7 45.9C51.7611 45.9 51 45.1389 51 44.2C51 43.2611 51.7611 42.5 52.7 42.5Z"
          fill="#E1000F"/>
    <path d="M57.3021 32.7979C57.966 33.4618 57.966 34.5382 57.3021 35.2021C56.6382 35.866 55.5618 35.866 54.8979 35.2021C54.234 34.5382 54.234 33.4618 54.8979 32.7979C55.5618 32.134 56.6382 32.134 57.3021 32.7979Z"
          fill="#E1000F"/>
</svg>
