<svg width="136" height="136" viewBox="0 0 136 136" fill="none" xmlns="http://www.w3.org/2000/svg">
    <path fill-rule="evenodd" clip-rule="evenodd"
          d="M103.7 125.8C102.763 125.8 102 125.037 102 124.1C102 123.163 102.763 122.4 103.7 122.4C104.637 122.4 105.4 123.163 105.4 124.1C105.4 125.037 104.637 125.8 103.7 125.8Z"
          fill="#CACAFB"/>
    <path fill-rule="evenodd" clip-rule="evenodd"
          d="M117.3 17C116.362 17 115.6 16.2374 115.6 15.3C115.6 14.3625 116.362 13.6 117.3 13.6C118.237 13.6 119 14.3625 119 15.3C119 16.2374 118.237 17 117.3 17Z"
          fill="#CACAFB"/>
    <path fill-rule="evenodd" clip-rule="evenodd"
          d="M18.7 23.8C17.7626 23.8 17 23.0374 17 22.1C17 21.1625 17.7626 20.4 18.7 20.4C19.6374 20.4 20.4 21.1625 20.4 22.1C20.4 23.0374 19.6374 23.8 18.7 23.8Z"
          fill="#CACAFB"/>
    <path fill-rule="evenodd" clip-rule="evenodd"
          d="M60.3063 51.2539C60.8074 50.9441 61.4333 50.916 61.9603 51.1795L78.9603 59.6795C79.5152 59.957 79.8749 60.5148 79.8987 61.1348C79.9226 61.7548 79.6067 62.3385 79.0746 62.6577L62.0746 72.8577C61.5495 73.1728 60.8954 73.1811 60.3624 72.8793C59.8294 72.5776 59.5 72.0125 59.5 71.4V52.7C59.5 52.1108 59.8051 51.5636 60.3063 51.2539ZM62.9 55.4507V68.3975L74.6698 61.3356L62.9 55.4507Z"
          fill="#E1000F"/>
    <path d="M88.3998 34C88.3998 33.0611 87.6387 32.3 86.6998 32.3H32.2998L31.9311 32.3079C27.4077 32.5009 23.7998 36.2291 23.7998 40.8V91.8L23.8077 92.1687C24.0007 96.6921 27.7289 100.3 32.2998 100.3H42.4998L42.6981 100.289C43.5435 100.19 44.1998 99.4718 44.1998 98.6C44.1998 97.6611 43.4387 96.9 42.4998 96.9H32.2998L32.0001 96.8913C29.323 96.7362 27.1998 94.5161 27.1998 91.8V40.8L27.2085 40.5003C27.3636 37.8232 29.5837 35.7 32.2998 35.7H86.6998L86.8981 35.6886C87.7435 35.5904 88.3998 34.8718 88.3998 34Z"
          fill="#000091"/>
    <path fill-rule="evenodd" clip-rule="evenodd"
          d="M112.192 40.4313C111.999 35.9079 108.271 32.3 103.7 32.3H96.8998L96.7015 32.3114C95.8561 32.4096 95.1998 33.1282 95.1998 34C95.1998 34.9389 95.9609 35.7 96.8998 35.7H103.7L103.999 35.7087C106.677 35.8638 108.8 38.0839 108.8 40.8V91.8L108.791 92.0997C108.636 94.7768 106.416 96.9 103.7 96.9H52.6998L52.5015 96.9114C51.6561 97.0097 50.9998 97.7282 50.9998 98.6C50.9998 99.5389 51.7609 100.3 52.6998 100.3H61.1719C60.9311 107.352 59.1397 110.5 56.0998 110.5H52.6998L52.5015 110.511C51.6561 110.61 50.9998 111.328 50.9998 112.2C50.9998 113.139 51.7609 113.9 52.6998 113.9H83.2998L83.4981 113.889C84.3435 113.79 84.9998 113.072 84.9998 112.2C84.9998 111.261 84.2387 110.5 83.2998 110.5H79.8998C76.8599 110.5 75.0685 107.352 74.8277 100.3H103.7L104.069 100.292C108.592 100.099 112.2 96.3709 112.2 91.8V40.8L112.192 40.4313ZM64.5715 100.3H71.4281C71.5809 104.765 72.3557 108.2 73.7934 110.5H62.2062C63.6439 108.2 64.4187 104.765 64.5715 100.3Z"
          fill="#000091"/>
    <path d="M100.3 83.3C101.239 83.3 102 84.0611 102 85C102 85.8718 101.344 86.5904 100.498 86.6886L100.3 86.7H35.6998C34.7609 86.7 33.9998 85.9389 33.9998 85C33.9998 84.1282 34.6561 83.4096 35.5015 83.3114L35.6998 83.3H100.3Z"
          fill="#000091"/>
    <path d="M71.3998 91.8C71.3998 90.8611 70.6387 90.1 69.6998 90.1H66.2998L66.1015 90.1114C65.2561 90.2096 64.5998 90.9282 64.5998 91.8C64.5998 92.7389 65.3609 93.5 66.2998 93.5H69.6998L69.8981 93.4886C70.7435 93.3904 71.3998 92.6718 71.3998 91.8Z"
          fill="#000091"/>
</svg>
