<svg width="32" height="32" viewBox="0 0 32 32" fill="none" xmlns="http://www.w3.org/2000/svg">
<rect y="-0.000488281" width="32" height="32" rx="16" fill="#272771"/>
<path d="M23.3097 23.4503H8.42871V21.9622H23.3097V23.4503ZM11.4049 21.2182H9.91681V16.0098H11.4049V21.2182ZM15.1251 21.2182H13.637V16.0098H15.1251V21.2182ZM18.1013 21.2182H16.6132V16.0098H18.1013V21.2182ZM21.8216 21.2182H20.3335V16.0098H21.8216V21.2182ZM15.8692 8.56934L23.3097 12.2896V15.2658H8.42871V12.2896L15.8692 8.56934ZM15.8692 11.5455C15.4585 11.5455 15.1251 11.8789 15.1251 12.2896C15.1251 12.7003 15.4585 13.0336 15.8692 13.0336C16.2799 13.0336 16.6132 12.7003 16.6132 12.2896C16.6132 11.8789 16.2799 11.5455 15.8692 11.5455Z" fill="white"/>
</svg>
