<svg width="32" height="32" viewBox="0 0 32 32" fill="none" xmlns="http://www.w3.org/2000/svg">
<rect y="-0.000488281" width="32" height="32" rx="16" fill="#272771"/>
<path d="M10.0114 9.48284L14.9888 14.4602L12.8936 16.5567L10.0114 13.6745C8.85427 12.5174 8.85427 10.64 10.0114 9.48284ZM17.4555 15.6626L16.8233 16.2947L22.0638 21.5352L21.015 22.5828L15.7757 17.3424L10.5352 22.5828L9.4876 21.5352L16.4078 14.6138C15.9721 13.5352 16.4221 11.9793 17.609 10.7924C19.0567 9.34593 21.0507 8.99355 22.0638 10.0066C23.0757 11.0197 22.7245 13.0138 21.2769 14.4602C20.09 15.6471 18.5352 16.0983 17.4555 15.6626Z" fill="white"/>
</svg>
