<svg width="32" height="32" viewBox="0 0 32 32" fill="none" xmlns="http://www.w3.org/2000/svg">
<rect y="-0.000488281" width="32" height="32" rx="16" fill="#272771"/>
<path d="M12.2921 20.228L9.28613 22.5899V10.1042C9.28613 9.73158 9.58732 9.4292 9.96113 9.4292H22.1088C22.4814 9.4292 22.7838 9.73158 22.7838 10.1042V19.553C22.7838 19.9256 22.4814 20.228 22.1088 20.228H12.2921ZM13.4326 15.5518L12.7754 15.9316L13.4492 17.1006L14.1088 16.7197C14.4469 17.0649 14.8778 17.3197 15.3599 17.4435V18.203H16.7099V17.4435C17.1921 17.3197 17.623 17.0649 17.9611 16.7197L18.6195 17.1006L19.2945 15.9316L18.6361 15.5518C18.7004 15.3209 18.735 15.0792 18.735 14.8292C18.735 14.578 18.7004 14.3363 18.6361 14.1054L19.2945 13.7256L18.6195 12.5566L17.9611 12.9375C17.623 12.5923 17.1921 12.3387 16.7099 12.2137V11.4542H15.3599V12.2137C14.8778 12.3387 14.4469 12.5923 14.1088 12.9375L13.4492 12.5566L12.7754 13.7256L13.4326 14.1054C13.3695 14.3363 13.3349 14.578 13.3349 14.8292C13.3349 15.0792 13.3695 15.3209 13.4326 15.5518ZM16.0349 16.178C15.2897 16.178 14.6849 15.5744 14.6849 14.8292C14.6849 14.0828 15.2897 13.4792 16.0349 13.4792C16.7802 13.4792 17.3849 14.0828 17.3849 14.8292C17.3849 15.5744 16.7802 16.178 16.0349 16.178Z" fill="white"/>
</svg>
