<svg width="32" height="32" viewBox="0 0 32 32" fill="none" xmlns="http://www.w3.org/2000/svg">
<rect y="-0.000488281" width="32" height="32" rx="16" fill="#272771"/>
<path d="M21.2459 15.835L22.3138 17.6839C22.9876 18.8517 22.5876 20.3446 21.4209 21.0184C21.0495 21.2327 20.6293 21.3446 20.2007 21.3446H18.7626V22.7398L15.2757 20.2993L18.7626 17.8589V19.2529H20.2007C20.2614 19.2529 20.3221 19.2374 20.3745 19.2065C20.5233 19.1208 20.584 18.9434 20.5281 18.7874L20.5019 18.7303L19.434 16.8815L21.2459 15.835ZM12.9995 13.9422L13.3709 18.1815L12.1626 17.485L11.4436 18.7303C11.4126 18.7827 11.3971 18.8434 11.3971 18.9041C11.3971 19.0755 11.5197 19.2184 11.6828 19.2469L11.7459 19.2529H13.8805V21.3446H11.7459C10.3971 21.3446 9.30427 20.2529 9.30427 18.9041C9.30427 18.4755 9.41737 18.0553 9.63165 17.6839L10.3507 16.4386L9.14355 15.741L12.9995 13.9422ZM17.1936 9.46837C17.5638 9.68265 17.8721 9.99099 18.0864 10.3624L18.8055 11.6077L20.0138 10.91L19.6436 15.1505L15.7864 13.3505L16.9936 12.6541L16.2745 11.4077C16.2448 11.3553 16.2007 11.3112 16.1471 11.2803C15.9995 11.1946 15.8138 11.2303 15.7067 11.3565L15.6709 11.4077L14.6031 13.2577L12.7924 12.2112L13.859 10.3624C14.5328 9.19456 16.0257 8.79456 17.1936 9.46837Z" fill="white"/>
</svg>
