<svg width="32" height="32" viewBox="0 0 32 32" fill="none" xmlns="http://www.w3.org/2000/svg">
<rect y="-0.000488281" width="32" height="32" rx="16" fill="#272771"/>
<path d="M10.9555 11.8656C11.0281 11.7847 11.1031 11.7049 11.1805 11.6264C11.5281 11.274 11.9055 10.9716 12.3043 10.7156C12.0793 10.6525 11.8758 10.6156 11.6984 10.6025C11.2865 10.5704 11.1067 10.6692 11.0293 10.7478C10.9531 10.8252 10.8555 11.0073 10.8865 11.424C10.896 11.5573 10.9186 11.7049 10.9555 11.8656ZM22.0293 17.8633C22.0734 17.9525 22.1163 18.0418 22.1567 18.1287C22.4996 18.8716 22.7258 19.5966 22.7746 20.249C22.8234 20.8978 22.6984 21.5728 22.2139 22.0633C21.7293 22.5537 21.0615 22.6787 20.421 22.6299C19.8591 22.5871 19.2436 22.4085 18.6079 22.1335L18.6067 22.1347C18.496 22.0871 18.3853 22.0359 18.2746 21.9835C16.8127 21.2835 15.1401 20.0525 13.571 18.4645C12.002 16.8775 10.7865 15.1871 10.0948 13.7097C10.0424 13.5966 9.99243 13.4847 9.94481 13.3728C9.6722 12.7287 9.49481 12.1025 9.45196 11.5335C9.40434 10.8847 9.52815 10.2097 10.0127 9.71921C10.4972 9.22873 11.1651 9.10254 11.8067 9.15135C12.4508 9.20135 13.1674 9.42992 13.9008 9.77635C13.9901 9.81802 14.0793 9.86206 14.1686 9.9073C16.3043 9.36325 18.6615 9.93587 20.3317 11.6264C22.0032 13.3168 22.5686 15.7014 22.0293 17.8633ZM21.2293 19.7502C20.9782 20.1525 20.6782 20.5335 20.3317 20.8847C20.2543 20.9621 20.1758 21.0371 20.0972 21.1109C20.2532 21.1466 20.3984 21.1692 20.5282 21.1799C20.9401 21.2109 21.1198 21.1121 21.1972 21.0347C21.2734 20.9573 21.3722 20.774 21.3401 20.3585C21.327 20.1799 21.2913 19.9764 21.2293 19.7502ZM11.1805 20.8847C9.55315 19.2371 8.97458 16.9323 9.44362 14.8168C10.221 16.2573 11.3877 17.799 12.8079 19.2359C14.2293 20.674 15.7543 21.8549 17.1793 22.6418C15.0877 23.1168 12.8091 22.5311 11.1805 20.8847Z" fill="white"/>
</svg>
