<svg width="32" height="32" viewBox="0 0 32 32" fill="none" xmlns="http://www.w3.org/2000/svg">
<rect y="-0.000488281" width="32" height="32" rx="16" fill="#272771"/>
<path d="M9.23126 16.992C9.10864 16.2527 9.11221 15.5099 9.23126 14.792C9.9753 14.8099 10.6432 14.4527 10.9027 13.8265C11.1622 13.1991 10.942 12.4741 10.4039 11.9622C10.8277 11.3694 11.3503 10.842 11.9598 10.4051C12.4717 10.9444 13.1967 11.1646 13.8241 10.9051C14.4515 10.6444 14.8074 9.97652 14.7896 9.23366C15.5289 9.10985 16.2717 9.11461 16.9896 9.23366C16.9717 9.97652 17.3289 10.6456 17.9551 10.9051C18.5825 11.1646 19.3075 10.9444 19.8194 10.4063C20.4122 10.8289 20.9408 11.3515 21.3765 11.961C20.8372 12.4741 20.617 13.1991 20.8765 13.8265C21.136 14.4527 21.8051 14.8099 22.5479 14.792C22.6717 15.5313 22.667 16.2741 22.5479 16.992C21.8051 16.9741 21.136 17.3301 20.8765 17.9575C20.617 18.5849 20.8372 19.3087 21.3753 19.8218C20.9527 20.4134 20.4301 20.942 19.8205 21.3777C19.3075 20.8396 18.5825 20.6194 17.9551 20.8789C17.3289 21.1384 16.9717 21.8075 16.9896 22.5503C16.2503 22.673 15.5074 22.6694 14.7896 22.5503C14.8074 21.8063 14.4515 21.1384 13.8241 20.8789C13.1967 20.6194 12.4729 20.8396 11.9598 21.3777C11.3682 20.9539 10.8396 20.4313 10.4039 19.8218C10.942 19.3099 11.1622 18.5849 10.9027 17.9575C10.6432 17.3301 9.97411 16.9741 9.23126 16.992ZM15.8896 17.9158C17.0075 17.9158 17.9146 17.0099 17.9146 15.892C17.9146 14.7741 17.0075 13.867 15.8896 13.867C14.7717 13.867 13.8658 14.7741 13.8658 15.892C13.8658 17.0099 14.7717 17.9158 15.8896 17.9158Z" fill="white"/>
</svg>
