<svg width="32" height="32" viewBox="0 0 32 32" fill="none" xmlns="http://www.w3.org/2000/svg">
<rect y="-0.000488281" width="32" height="32" rx="16" fill="#272771"/>
<path d="M16.789 8.89327L19.2259 13.1147C19.4331 13.473 19.3104 13.9314 18.9521 14.1385L17.9771 14.7004L18.7271 16.0004L17.4283 16.7504L16.6783 15.4504L15.7045 16.0135C15.3462 16.2207 14.8866 16.098 14.6807 15.7397L13.3021 13.3528C11.7628 13.8195 10.6426 15.2492 10.6426 16.9409C10.6426 17.4099 10.7283 17.8588 10.8854 18.273C11.4664 17.904 12.1545 17.6909 12.8926 17.6909C14.1557 17.6909 15.2723 18.3159 15.9521 19.2718L21.7176 15.9445L22.4676 17.2433L16.5593 20.654C16.6128 20.9076 16.6414 21.1707 16.6414 21.4409C16.6414 21.698 16.6164 21.9492 16.5664 22.1909H22.6414V23.6909H9.89258C9.42234 23.0647 9.14258 22.2849 9.14258 21.4409C9.14258 20.6849 9.36639 19.9826 9.75091 19.3933C9.36282 18.6623 9.14258 17.8278 9.14258 16.9409C9.14258 14.6957 10.5533 12.7778 12.5378 12.029L12.2426 11.5183C11.8283 10.8004 12.0747 9.88375 12.7914 9.46946L14.7402 8.34446C15.4581 7.93017 16.3747 8.17541 16.789 8.89327Z" fill="white"/>
</svg>
