<svg width="32" height="32" viewBox="0 0 32 32" fill="none" xmlns="http://www.w3.org/2000/svg">
<rect y="-0.000488281" width="32" height="32" rx="16" fill="#272771"/>
<path d="M19.3368 9.14233C21.5927 9.14233 23.4201 10.9983 23.4201 13.5971C23.4201 18.7935 17.8522 21.7638 15.9963 22.8769C14.5272 21.9959 10.7368 19.9542 9.21653 16.5661H12.7046L13.3975 15.4114L15.6249 19.1233L17.1582 16.5661H19.7082V15.0816H16.3177L15.6249 16.2364L13.3975 12.5245L11.8641 15.0816H8.72724C8.62724 14.609 8.57129 14.1138 8.57129 13.5971C8.57129 10.9983 10.4284 9.14233 12.6546 9.14233C14.0356 9.14233 15.2534 9.88519 15.9963 10.6269C16.738 9.88519 17.9558 9.14233 19.3368 9.14233Z" fill="white"/>
</svg>
