<svg width="32" height="32" viewBox="0 0 32 32" fill="none" xmlns="http://www.w3.org/2000/svg">
<rect y="-0.000488281" width="32" height="32" rx="16" fill="#272771"/>
<path fill-rule="evenodd" clip-rule="evenodd" d="M9.16772 11.9207V16.7112H12.9999V19.9053H10.232V20.4374C10.232 20.7315 9.99391 20.9695 9.69986 20.9695H9.16772C8.87367 20.9695 8.63558 20.7315 8.63558 20.4374V19.9053H8.10343V15.6469H7.57129V13.5172H8.10343V11.9207C8.10343 11.3326 8.57962 10.8564 9.16772 10.8564H15.1868C14.8284 11.0683 14.5403 11.3945 14.388 11.7993L14.3427 11.9207H9.16772ZM9.16772 18.8398H11.2963V17.7755H9.16772V18.8398ZM22.1086 11.39C22.5515 11.39 22.9491 11.665 23.1051 12.0805L24.4432 15.6483V20.4388C24.4432 20.7329 24.2039 20.971 23.9098 20.971H23.3777C23.0836 20.971 22.8456 20.7329 22.8456 20.4388V19.9055H15.3944V20.4388C15.3944 20.7329 15.1551 20.971 14.8622 20.971H14.3289C14.0348 20.971 13.7967 20.7329 13.7967 20.4388V15.6483L15.1348 12.0805C15.1501 12.0389 15.1732 12.0028 15.1965 11.9665C15.2058 11.9518 15.2152 11.9372 15.2241 11.9221C15.4122 11.6007 15.7503 11.39 16.1313 11.39H22.1086ZM16.192 18.3091C16.3491 18.3091 16.4955 18.2626 16.6182 18.1841C16.842 18.0424 16.9908 17.7948 16.9908 17.5102C16.9908 17.0698 16.6336 16.7126 16.192 16.7126C15.7515 16.7126 15.3944 17.0698 15.3944 17.5102C15.3944 17.6043 15.4134 17.6936 15.4432 17.7769C15.5527 18.0864 15.8455 18.3091 16.192 18.3091ZM21.2491 17.5102C21.2491 17.9519 21.6063 18.3091 22.0479 18.3091C22.4884 18.3091 22.8456 17.9519 22.8456 17.5102C22.8456 17.0698 22.4884 16.7126 22.0479 16.7126C21.6063 16.7126 21.2491 17.0698 21.2491 17.5102ZM14.9336 15.6483H23.3063L22.1086 12.4543H16.1313L14.9336 15.6483Z" fill="white"/>
</svg>
