<svg width="64" height="65" viewBox="0 0 64 65" fill="none" xmlns="http://www.w3.org/2000/svg">
<path fill-rule="evenodd" clip-rule="evenodd" d="M59.9992 50.4955C59.5581 50.4955 59.1992 50.1366 59.1992 49.6955C59.1992 49.2543 59.5581 48.8955 59.9992 48.8955C60.4403 48.8955 60.7992 49.2543 60.7992 49.6955C60.7992 50.1366 60.4403 50.4955 59.9992 50.4955Z" fill="#CACAFB"/>
<path fill-rule="evenodd" clip-rule="evenodd" d="M43.9992 4.09561C43.5581 4.09561 43.1992 3.73673 43.1992 3.29561C43.1992 2.85445 43.5581 2.49561 43.9992 2.49561C44.4403 2.49561 44.7992 2.85445 44.7992 3.29561C44.7992 3.73673 44.4403 4.09561 43.9992 4.09561Z" fill="#CACAFB"/>
<path fill-rule="evenodd" clip-rule="evenodd" d="M2.39961 44.0956C1.95849 44.0956 1.59961 43.7367 1.59961 43.2956C1.59961 42.8544 1.95849 42.4956 2.39961 42.4956C2.84073 42.4956 3.19961 42.8544 3.19961 43.2956C3.19961 43.7367 2.84073 44.0956 2.39961 44.0956Z" fill="#CACAFB"/>
<path d="M42.4002 38.4955C42.4002 38.0537 42.042 37.6955 41.6002 37.6955H20.8002L20.7069 37.7009C20.309 37.7471 20.0002 38.0852 20.0002 38.4955C20.0002 38.9373 20.3584 39.2955 20.8002 39.2955H41.6002L41.6935 39.2901C42.0914 39.2439 42.4002 38.9058 42.4002 38.4955Z" fill="#000091"/>
<path d="M37.6002 33.6955C37.6002 33.2537 37.242 32.8955 36.8002 32.8955H20.8002L20.7069 32.9009C20.309 32.9471 20.0002 33.2852 20.0002 33.6955C20.0002 34.1373 20.3584 34.4955 20.8002 34.4955H36.8002L36.8935 34.4901C37.2914 34.4439 37.6002 34.1058 37.6002 33.6955Z" fill="#000091"/>
<path d="M36.8002 47.2955C37.242 47.2955 37.6002 47.6537 37.6002 48.0955C37.6002 48.5058 37.2914 48.8439 36.8935 48.8901L36.8002 48.8955H20.8002C20.3584 48.8955 20.0002 48.5373 20.0002 48.0955C20.0002 47.6852 20.309 47.3471 20.7069 47.3009L20.8002 47.2955H36.8002Z" fill="#000091"/>
<path d="M32.8002 43.2955C32.8002 42.8537 32.442 42.4955 32.0002 42.4955H20.8002L20.7069 42.5009C20.309 42.5471 20.0002 42.8852 20.0002 43.2955C20.0002 43.7373 20.3584 44.0955 20.8002 44.0955H32.0002L32.0935 44.0901C32.4914 44.0439 32.8002 43.7058 32.8002 43.2955Z" fill="#000091"/>
<path fill-rule="evenodd" clip-rule="evenodd" d="M16.0002 8.89551H46.4002C46.842 8.89551 47.2002 9.25368 47.2002 9.69551V52.8955C47.2002 53.3373 46.842 53.6955 46.4002 53.6955H16.0002C15.5584 53.6955 15.2002 53.3373 15.2002 52.8955V9.69551C15.2002 9.25368 15.5584 8.89551 16.0002 8.89551ZM45.6002 52.0955V10.4955H16.8002V52.0955H45.6002Z" fill="#000091"/>
<path d="M49.6002 15.2955C50.0105 15.2955 50.3486 15.6043 50.3948 16.0022L50.4002 16.0955V56.0955C50.4002 56.5058 50.0914 56.8439 49.6935 56.8901L49.6002 56.8955H22.4002C21.9584 56.8955 21.6002 56.5373 21.6002 56.0955C21.6002 55.6852 21.909 55.3471 22.3069 55.3009L22.4002 55.2955H48.8002V16.0955C48.8002 15.6852 49.109 15.3471 49.5069 15.3009L49.6002 15.2955Z" fill="#000091"/>
<path d="M32 15.2956C32 14.8538 31.6418 14.4956 31.2 14.4956C30.7582 14.4956 30.4 14.8538 30.4 15.2956C30.4 15.7374 30.7582 16.0956 31.2 16.0956C31.6418 16.0956 32 15.7374 32 15.2956Z" fill="#FDC82E"/>
<path d="M36.5657 17.4613C36.8781 17.1489 36.8781 16.6423 36.5657 16.3299C36.2533 16.0175 35.7467 16.0175 35.4343 16.3299C35.1219 16.6423 35.1219 17.1489 35.4343 17.4613C35.7467 17.7737 36.2533 17.7737 36.5657 17.4613Z" fill="#FDC82E"/>
<path d="M26.9657 25.9299C27.2781 26.2423 27.2781 26.7489 26.9657 27.0613C26.6533 27.3737 26.1467 27.3737 25.8343 27.0613C25.5219 26.7489 25.5219 26.2423 25.8343 25.9299C26.1467 25.6175 26.6533 25.6175 26.9657 25.9299Z" fill="#FDC82E"/>
<path d="M31.2 27.2956C31.6418 27.2956 32 27.6538 32 28.0956C32 28.5374 31.6418 28.8956 31.2 28.8956C30.7582 28.8956 30.4 28.5374 30.4 28.0956C30.4 27.6538 30.7582 27.2956 31.2 27.2956Z" fill="#FDC82E"/>
<path d="M36.5657 27.0613C36.8781 26.7489 36.8781 26.2423 36.5657 25.9299C36.2533 25.6175 35.7467 25.6175 35.4343 25.9299C35.1219 26.2423 35.1219 26.7489 35.4343 27.0613C35.7467 27.3737 36.2533 27.3737 36.5657 27.0613Z" fill="#FDC82E"/>
<path d="M38.4 21.6956C38.4 21.2538 38.0418 20.8956 37.6 20.8956C37.1582 20.8956 36.8 21.2538 36.8 21.6956C36.8 22.1374 37.1582 22.4956 37.6 22.4956C38.0418 22.4956 38.4 22.1374 38.4 21.6956Z" fill="#FDC82E"/>
<path d="M24.8 20.8956C25.2418 20.8956 25.6 21.2538 25.6 21.6956C25.6 22.1374 25.2418 22.4956 24.8 22.4956C24.3582 22.4956 24 22.1374 24 21.6956C24 21.2538 24.3582 20.8956 24.8 20.8956Z" fill="#FDC82E"/>
<path d="M26.9657 16.3299C27.2781 16.6423 27.2781 17.1489 26.9657 17.4613C26.6533 17.7737 26.1467 17.7737 25.8343 17.4613C25.5219 17.1489 25.5219 16.6423 25.8343 16.3299C26.1467 16.0175 26.6533 16.0175 26.9657 16.3299Z" fill="#FDC82E"/>
</svg>
