<svg width="64" height="65" viewBox="0 0 64 65" fill="none" xmlns="http://www.w3.org/2000/svg">
<path fill-rule="evenodd" clip-rule="evenodd" d="M47.2004 61.6957C46.7593 61.6957 46.4004 61.3368 46.4004 60.8957C46.4004 60.4545 46.7593 60.0957 47.2004 60.0957C47.6415 60.0957 48.0004 60.4545 48.0004 60.8957C48.0004 61.3368 47.6415 61.6957 47.2004 61.6957Z" fill="#CACAFB"/>
<path fill-rule="evenodd" clip-rule="evenodd" d="M53.6008 10.4955C53.1597 10.4955 52.8008 10.1366 52.8008 9.69551C52.8008 9.25435 53.1597 8.89551 53.6008 8.89551C54.0419 8.89551 54.4008 9.25435 54.4008 9.69551C54.4008 10.1366 54.0419 10.4955 53.6008 10.4955Z" fill="#CACAFB"/>
<path fill-rule="evenodd" clip-rule="evenodd" d="M7.20039 13.6957C6.75927 13.6957 6.40039 13.3368 6.40039 12.8957C6.40039 12.4545 6.75927 12.0957 7.20039 12.0957C7.64151 12.0957 8.00039 12.4545 8.00039 12.8957C8.00039 13.3368 7.64151 13.6957 7.20039 13.6957Z" fill="#CACAFB"/>
<path d="M31.1998 32.8957C30.3162 32.8957 29.5998 33.6121 29.5998 34.4957C29.5998 36.4853 30.4067 37.6957 31.9998 37.6957C32.4417 37.6957 32.7998 37.3375 32.7998 36.8957C32.7998 36.4539 32.4417 36.0957 31.9998 36.0957L31.9246 36.093C31.8291 36.0859 31.7432 36.0647 31.6669 36.0265C32.3227 35.8266 32.7998 35.2169 32.7998 34.4957C32.7998 33.6121 32.0835 32.8957 31.1998 32.8957Z" fill="#FDC82E"/>
<path d="M34.3998 34.4957C34.3998 33.6121 35.1162 32.8957 35.9998 32.8957C36.8835 32.8957 37.5998 33.6121 37.5998 34.4957C37.5998 35.2169 37.1227 35.8266 36.4669 36.0265C36.5432 36.0647 36.6291 36.0859 36.7246 36.093L36.7998 36.0957C37.2417 36.0957 37.5998 36.4539 37.5998 36.8957C37.5998 37.3375 37.2417 37.6957 36.7998 37.6957C35.2067 37.6957 34.3998 36.4853 34.3998 34.4957Z" fill="#FDC82E"/>
<path d="M44.7998 40.8957C45.2417 40.8957 45.5998 41.2539 45.5998 41.6957C45.5998 42.106 45.291 42.4441 44.8931 42.4903L44.7998 42.4957H30.3998C29.958 42.4957 29.5998 42.1375 29.5998 41.6957C29.5998 41.2854 29.9087 40.9473 30.3065 40.9011L30.3998 40.8957H44.7998Z" fill="#FDC82E"/>
<path d="M42.3998 44.8957C42.3998 44.4539 42.0417 44.0957 41.5998 44.0957H30.3998L30.3065 44.1011C29.9087 44.1473 29.5998 44.4855 29.5998 44.8957C29.5998 45.3375 29.958 45.6957 30.3998 45.6957H41.5998L41.6931 45.6903C42.091 45.6441 42.3998 45.306 42.3998 44.8957Z" fill="#FDC82E"/>
<path d="M23.7872 22.0328L23.7145 22.8092H22.7379L22.5716 21.078C23.7768 20.9521 24.5664 20.6898 24.5664 19.798C24.5664 19.2524 24.1508 18.8747 23.6106 18.8747C23.0599 18.8747 22.7171 19.1685 22.3327 19.7456L21.2002 19.0426C21.782 18.1088 22.5716 17.6157 23.6729 17.6157C24.8989 17.6157 26.0002 18.4656 26.0002 19.798C26.0002 21.0256 25.0755 21.8124 23.7872 22.0328Z" fill="#FDC82E"/>
<path d="M24.1405 24.3829C24.1405 24.876 23.7145 25.2957 23.2366 25.2957C22.7379 25.2957 22.3223 24.876 22.3223 24.3829C22.3223 23.8898 22.7379 23.4701 23.2366 23.4701C23.7145 23.4701 24.1405 23.8898 24.1405 24.3829Z" fill="#FDC82E"/>
<path d="M25.5998 10.4956C31.0831 10.4956 35.4302 13.7413 37.5421 18.9973C37.7069 19.4073 37.5081 19.8732 37.0981 20.0379C36.6881 20.2027 36.2222 20.0039 36.0575 19.5939C34.1789 14.9186 30.3979 12.0956 25.5998 12.0956C18.9724 12.0956 13.5998 17.4682 13.5998 24.0956C13.5998 26.6683 14.4104 29.1166 15.8924 31.1517C16.0803 31.4097 16.0951 31.7513 15.9388 32.0221L15.8804 32.1096L12.8214 36.0956H17.5998C18.0101 36.0956 18.3482 36.4044 18.3944 36.8023L18.3998 36.8956C18.3998 37.3059 18.091 37.644 17.6931 37.6902L17.5998 37.6956H11.1998C10.5667 37.6956 10.196 37.0024 10.5148 36.4817L10.5651 36.4086L14.2558 31.598L14.2106 31.5311C12.8404 29.437 12.0687 26.9989 12.0042 24.4446L11.9998 24.0956C11.9998 16.5845 18.0887 10.4956 25.5998 10.4956Z" fill="#000091"/>
<path d="M37.5998 23.2956C46.4364 23.2956 53.5998 30.4591 53.5998 39.2956C53.5998 41.8001 53.0233 44.224 51.9308 46.4181C51.7339 46.8136 51.2536 46.9746 50.8581 46.7777C50.4626 46.5808 50.3016 46.1005 50.4985 45.705C51.4813 43.7311 51.9998 41.5512 51.9998 39.2956C51.9998 31.3427 45.5527 24.8956 37.5998 24.8956C29.6469 24.8956 23.1998 31.3427 23.1998 39.2956C23.1998 47.1601 29.5044 53.5522 37.3353 53.6932L37.5998 53.6956H51.3046L48.9342 50.1394C48.7066 49.798 48.776 49.3453 49.0814 49.0862L49.156 49.03C49.4974 48.8024 49.9501 48.8718 50.2092 49.1772L50.2654 49.2519L53.4654 54.0518C53.803 54.5582 53.4734 55.2282 52.8893 55.2909L52.7998 55.2956H37.5998C28.7632 55.2956 21.5998 48.1322 21.5998 39.2956C21.5998 30.4591 28.7632 23.2956 37.5998 23.2956Z" fill="#000091"/>
<path d="M43.9998 16.0956C43.9998 16.5367 44.3587 16.8956 44.7998 16.8956C45.2409 16.8956 45.5998 16.5367 45.5998 16.0956C45.5998 15.6544 45.2409 15.2956 44.7998 15.2956C44.3587 15.2956 43.9998 15.6544 43.9998 16.0956Z" fill="#000091"/>
<path d="M47.9998 16.8956C47.5587 16.8956 47.1998 16.5367 47.1998 16.0956C47.1998 15.6544 47.5587 15.2956 47.9998 15.2956C48.4409 15.2956 48.7998 15.6544 48.7998 16.0956C48.7998 16.5367 48.4409 16.8956 47.9998 16.8956Z" fill="#000091"/>
<path d="M50.3998 16.0956C50.3998 16.5367 50.7587 16.8956 51.1998 16.8956C51.6409 16.8956 51.9998 16.5367 51.9998 16.0956C51.9998 15.6544 51.6409 15.2956 51.1998 15.2956C50.7587 15.2956 50.3998 15.6544 50.3998 16.0956Z" fill="#000091"/>
<path fill-rule="evenodd" clip-rule="evenodd" d="M54.3998 12.0956H41.5998C41.158 12.0956 40.7998 12.4538 40.7998 12.8956V19.2956L40.8052 19.3889C40.8514 19.7868 41.1895 20.0956 41.5998 20.0956H47.6678L50.6341 23.0613L50.7018 23.1222C51.2114 23.5336 51.9998 23.1773 51.9998 22.4956V20.0956H54.3998C54.8416 20.0956 55.1998 19.7374 55.1998 19.2956V12.8956C55.1998 12.4538 54.8416 12.0956 54.3998 12.0956ZM53.5998 13.6956V18.4956H51.1998L51.1065 18.501C50.7086 18.5472 50.3998 18.8853 50.3998 19.2956V20.5636L48.5655 18.7299L48.4862 18.6605C48.3474 18.5541 48.1766 18.4956 47.9998 18.4956H42.3998V13.6956H53.5998Z" fill="#000091"/>
<path d="M12.7998 47.2956C13.2416 47.2956 13.5998 47.6538 13.5998 48.0956C13.5998 48.5059 13.291 48.844 12.8931 48.8902L12.7998 48.8956H9.5998C9.15798 48.8956 8.7998 48.5374 8.7998 48.0956C8.7998 47.6853 9.10864 47.3472 9.50651 47.301L9.5998 47.2956H12.7998Z" fill="#000091"/>
<path d="M15.1998 48.0956C15.1998 48.5367 15.5587 48.8956 15.9998 48.8956C16.4409 48.8956 16.7998 48.5367 16.7998 48.0956C16.7998 47.6544 16.4409 47.2956 15.9998 47.2956C15.5587 47.2956 15.1998 47.6544 15.1998 48.0956Z" fill="#000091"/>
<path d="M19.1998 48.8956C18.7587 48.8956 18.3998 48.5367 18.3998 48.0956C18.3998 47.6544 18.7587 47.2956 19.1998 47.2956C19.6409 47.2956 19.9998 47.6544 19.9998 48.0956C19.9998 48.5367 19.6409 48.8956 19.1998 48.8956Z" fill="#000091"/>
</svg>
