<svg width="64" height="65" viewBox="0 0 64 65" fill="none" xmlns="http://www.w3.org/2000/svg">
<path fill-rule="evenodd" clip-rule="evenodd" d="M48.8 60.0956C48.3589 60.0956 48 59.7367 48 59.2956C48 58.8544 48.3589 58.4956 48.8 58.4956C49.2411 58.4956 49.6 58.8544 49.6 59.2956C49.6 59.7367 49.2411 60.0956 48.8 60.0956Z" fill="#CACAFB"/>
<path fill-rule="evenodd" clip-rule="evenodd" d="M55.2004 8.89541C54.7593 8.89541 54.4004 8.53653 54.4004 8.09541C54.4004 7.65425 54.7593 7.29541 55.2004 7.29541C55.6415 7.29541 56.0004 7.65425 56.0004 8.09541C56.0004 8.53653 55.6415 8.89541 55.2004 8.89541Z" fill="#CACAFB"/>
<path fill-rule="evenodd" clip-rule="evenodd" d="M8.8 12.0956C8.35888 12.0956 8 11.7367 8 11.2956C8 10.8544 8.35888 10.4956 8.8 10.4956C9.24112 10.4956 9.6 10.8544 9.6 11.2956C9.6 11.7367 9.24112 12.0956 8.8 12.0956Z" fill="#CACAFB"/>
<path fill-rule="evenodd" clip-rule="evenodd" d="M28.3794 25.015C28.6153 24.8692 28.9098 24.856 29.1578 24.98L37.1578 28.98C37.4189 29.1105 37.5882 29.373 37.5994 29.6648C37.6106 29.9566 37.462 30.2313 37.2116 30.3815L29.2116 35.1815C28.9645 35.3298 28.6566 35.3337 28.4058 35.1917C28.155 35.0497 28 34.7837 28 34.4955V25.6955C28 25.4182 28.1436 25.1608 28.3794 25.015ZM29.6 26.9899V33.0826L35.1387 29.7593L29.6 26.9899Z" fill="#FDC82E"/>
<path d="M41.6002 16.8957C41.6002 16.4539 41.242 16.0957 40.8002 16.0957H15.2002L15.0267 16.0994C12.898 16.1902 11.2002 17.9447 11.2002 20.0957V44.0957L11.2039 44.2692C11.2947 46.3979 13.0492 48.0957 15.2002 48.0957H20.0002L20.0935 48.0903C20.4914 48.0441 20.8002 47.706 20.8002 47.2957C20.8002 46.8539 20.442 46.4957 20.0002 46.4957H15.2002L15.0592 46.4916C13.7993 46.4186 12.8002 45.3738 12.8002 44.0957V20.0957L12.8043 19.9547C12.8773 18.6948 13.9221 17.6957 15.2002 17.6957H40.8002L40.8935 17.6903C41.2914 17.6441 41.6002 17.306 41.6002 16.8957Z" fill="#000091"/>
<path fill-rule="evenodd" clip-rule="evenodd" d="M52.7965 19.9222C52.7056 17.7935 50.9512 16.0957 48.8002 16.0957H45.6002L45.5069 16.1011C45.109 16.1473 44.8002 16.4854 44.8002 16.8957C44.8002 17.3375 45.1584 17.6957 45.6002 17.6957H48.8002L48.9412 17.6998C50.2011 17.7728 51.2002 18.8176 51.2002 20.0957V44.0957L51.1961 44.2367C51.1231 45.4966 50.0783 46.4957 48.8002 46.4957H24.8002L24.7069 46.5011C24.309 46.5473 24.0002 46.8854 24.0002 47.2957C24.0002 47.7375 24.3584 48.0957 24.8002 48.0957H28.7871C28.6738 51.4143 27.8307 52.8957 26.4002 52.8957H24.8002L24.7069 52.9011C24.309 52.9473 24.0002 53.2854 24.0002 53.6957C24.0002 54.1375 24.3584 54.4957 24.8002 54.4957H39.2002L39.2935 54.4903C39.6914 54.4441 40.0002 54.106 40.0002 53.6957C40.0002 53.2539 39.642 52.8957 39.2002 52.8957H37.6002C36.1697 52.8957 35.3266 51.4143 35.2133 48.0957H48.8002L48.9737 48.092C51.1023 48.0012 52.8002 46.2467 52.8002 44.0957V20.0957L52.7965 19.9222ZM30.3869 48.0957H33.6135C33.6854 50.197 34.05 51.8132 34.7266 52.8957H29.2738C29.9504 51.8132 30.315 50.197 30.3869 48.0957Z" fill="#000091"/>
<path d="M47.2002 40.0957C47.642 40.0957 48.0002 40.4539 48.0002 40.8957C48.0002 41.306 47.6914 41.6441 47.2935 41.6903L47.2002 41.6957H16.8002C16.3584 41.6957 16.0002 41.3375 16.0002 40.8957C16.0002 40.4854 16.309 40.1473 16.7069 40.1011L16.8002 40.0957H47.2002Z" fill="#000091"/>
<path d="M33.6002 44.0957C33.6002 43.6539 33.242 43.2957 32.8002 43.2957H31.2002L31.1069 43.3011C30.709 43.3473 30.4002 43.6854 30.4002 44.0957C30.4002 44.5375 30.7584 44.8957 31.2002 44.8957H32.8002L32.8935 44.8903C33.2914 44.8441 33.6002 44.506 33.6002 44.0957Z" fill="#000091"/>
</svg>
